G04 #@! TF.GenerationSoftware,KiCad,Pcbnew,(5.0.1-3-g963ef8bb5)*
G04 #@! TF.CreationDate,2020-04-18T14:55:13-02:30*
G04 #@! TF.ProjectId,graphics-card,67726170686963732D636172642E6B69,rev?*
G04 #@! TF.SameCoordinates,Original*
G04 #@! TF.FileFunction,Copper,L2,Inr,Mixed*
G04 #@! TF.FilePolarity,Positive*
%FSLAX46Y46*%
G04 Gerber Fmt 4.6, Leading zero omitted, Abs format (unit mm)*
G04 Created by KiCad (PCBNEW (5.0.1-3-g963ef8bb5)) date Saturday, April 18, 2020 at 02:55:13 pm*
%MOMM*%
%LPD*%
G01*
G04 APERTURE LIST*
G04 #@! TA.AperFunction,ViaPad*
%ADD10C,1.950000*%
G04 #@! TD*
G04 #@! TA.AperFunction,ViaPad*
%ADD11O,1.100000X1.500000*%
G04 #@! TD*
G04 #@! TA.AperFunction,ViaPad*
%ADD12O,1.350000X1.700000*%
G04 #@! TD*
G04 #@! TA.AperFunction,ViaPad*
%ADD13C,3.000000*%
G04 #@! TD*
G04 #@! TA.AperFunction,ViaPad*
%ADD14C,0.450000*%
G04 #@! TD*
G04 #@! TA.AperFunction,Conductor*
%ADD15C,0.250000*%
G04 #@! TD*
G04 APERTURE END LIST*
D10*
G04 #@! TO.N,GND*
G04 #@! TO.C,J2*
X127611000Y-158316000D03*
X111911000Y-158316000D03*
X127011000Y-153416000D03*
X112511000Y-153416000D03*
G04 #@! TD*
D11*
G04 #@! TO.N,GND*
G04 #@! TO.C,J1*
X151553000Y-157436500D03*
X156393000Y-157436500D03*
D12*
X151243000Y-160436500D03*
X156703000Y-160436500D03*
G04 #@! TD*
D13*
G04 #@! TO.N,GND*
X123698000Y-140208000D03*
D14*
X131699000Y-133731000D03*
X119372082Y-143009918D03*
X145288000Y-155025000D03*
X155067000Y-149225000D03*
X136525000Y-155025000D03*
X140716000Y-147193000D03*
X127889000Y-119507000D03*
X115189000Y-115062000D03*
X137414000Y-122555000D03*
X147193000Y-133858000D03*
X125095000Y-126492000D03*
X129032000Y-130937000D03*
X118881829Y-146766831D03*
X121793000Y-154432000D03*
X159521010Y-115433990D03*
X152908000Y-141605000D03*
X145064000Y-125603000D03*
X141224000Y-115824000D03*
X153543000Y-125349000D03*
X114554000Y-145542000D03*
X128462510Y-144234350D03*
X136274279Y-134097587D03*
X142367000Y-133985000D03*
X149860000Y-112141000D03*
X135255000Y-130937000D03*
X119380000Y-128016000D03*
X121031000Y-133794500D03*
X132842000Y-140271500D03*
G04 #@! TO.N,+3V3*
X137033000Y-133731000D03*
X135382000Y-129667000D03*
X135509000Y-123825000D03*
X135382000Y-118364000D03*
X143510000Y-133985000D03*
X148590000Y-133985000D03*
X157988000Y-151638000D03*
X147193000Y-149479000D03*
X146939000Y-125603000D03*
X142480000Y-115181091D03*
X144526000Y-116586000D03*
X154305000Y-127635000D03*
X154265623Y-122320631D03*
X156083000Y-151511016D03*
X135509000Y-131572000D03*
X147193000Y-146177000D03*
G04 #@! TO.N,+1V2*
X143129000Y-156125000D03*
X143129000Y-155025000D03*
X135509000Y-148505010D03*
X112776000Y-122555000D03*
G04 #@! TO.N,/CVCC12_SII*
X117347996Y-140208000D03*
X130048000Y-140462000D03*
X127635000Y-133731000D03*
X122174000Y-133604000D03*
X119761000Y-133731000D03*
X125857000Y-143637000D03*
X127574981Y-135371182D03*
G04 #@! TO.N,/IOVCC_SII*
X117631009Y-139475009D03*
X130175000Y-138684000D03*
X129641421Y-133724606D03*
X124206000Y-133731000D03*
X141224000Y-146050000D03*
G04 #@! TO.N,/AVCC_SII*
X120396000Y-146685000D03*
X122917114Y-146753654D03*
G04 #@! TO.N,+5V*
X134112000Y-156125000D03*
X134112000Y-155025000D03*
X112318515Y-130810000D03*
X112268000Y-149732994D03*
G04 #@! TO.N,/~RESET*
X153916091Y-144787909D03*
X159766000Y-141732000D03*
X135255000Y-127889000D03*
X121412000Y-114046000D03*
X114531935Y-144792802D03*
G04 #@! TO.N,/OSC_IN*
X132587525Y-126870621D03*
X124079000Y-123317000D03*
G04 #@! TO.N,/OSC32_IN*
X127508000Y-116162011D03*
X132335538Y-119139113D03*
G04 #@! TO.N,/OSC32_OUT*
X132325421Y-119789047D03*
G04 #@! TO.N,Net-(D1-Pad1)*
X115951000Y-129413000D03*
G04 #@! TO.N,Net-(D4-Pad2)*
X150622000Y-111636020D03*
X112776000Y-119634000D03*
G04 #@! TO.N,/CSCL*
X139954000Y-115062000D03*
X126238000Y-114935000D03*
X113284000Y-144335500D03*
G04 #@! TO.N,/CSDA*
X113418516Y-143661089D03*
X139573000Y-112649000D03*
X131191000Y-113665000D03*
G04 #@! TO.N,Net-(R7-Pad1)*
X118237000Y-146685000D03*
G04 #@! TO.N,/OSC_OUT*
X132715000Y-127508000D03*
G04 #@! TO.N,/CI2CA*
X113456599Y-142972219D03*
G04 #@! TO.N,/INT_SII*
X113540321Y-145006584D03*
X137571241Y-112114076D03*
G04 #@! TO.N,/SWCLK*
X154432000Y-113538000D03*
X120269000Y-114935000D03*
G04 #@! TO.N,/SWDIO*
X156718000Y-117387000D03*
X117729000Y-115062000D03*
G04 #@! TO.N,/HPD*
X132715000Y-146203644D03*
X116078000Y-150876000D03*
G04 #@! TO.N,/CLK-*
X118491000Y-149479000D03*
G04 #@! TO.N,/CLK+*
X120173001Y-149526114D03*
G04 #@! TO.N,/D2-*
X122723000Y-149479000D03*
G04 #@! TO.N,/D2+*
X124460000Y-149479000D03*
G04 #@! TD*
D15*
G04 #@! TO.N,+3V3*
X157988000Y-136652000D02*
X146939000Y-125603000D01*
X157988000Y-151638000D02*
X157988000Y-136652000D01*
G04 #@! TO.N,+1V2*
X111768514Y-123562486D02*
X112776000Y-122555000D01*
X111768514Y-144048779D02*
X111768514Y-123562486D01*
X116224745Y-148505010D02*
X111768514Y-144048779D01*
X135509000Y-148505010D02*
X116224745Y-148505010D01*
G04 #@! TO.N,/~RESET*
X153827000Y-144877000D02*
X153916091Y-144787909D01*
X152908000Y-144877000D02*
X153827000Y-144877000D01*
X152153909Y-144787909D02*
X135255000Y-127889000D01*
X153916091Y-144787909D02*
X152153909Y-144787909D01*
X114536828Y-144787909D02*
X114531935Y-144792802D01*
X153916091Y-144787909D02*
X114536828Y-144787909D01*
G04 #@! TO.N,Net-(D4-Pad2)*
X116638002Y-119634000D02*
X112776000Y-119634000D01*
X124707927Y-111564075D02*
X116638002Y-119634000D01*
X150231857Y-111564075D02*
X124707927Y-111564075D01*
X150303802Y-111636020D02*
X150231857Y-111564075D01*
X150622000Y-111636020D02*
X150303802Y-111636020D01*
G04 #@! TO.N,/CSCL*
X112868515Y-128304485D02*
X126013001Y-115159999D01*
X112868515Y-143920015D02*
X112868515Y-128304485D01*
X126013001Y-115159999D02*
X126238000Y-114935000D01*
X112868515Y-143920015D02*
X113284000Y-144335500D01*
G04 #@! TO.N,/CSDA*
X114013622Y-143207406D02*
X113559939Y-143661089D01*
X113559939Y-143661089D02*
X113418516Y-143661089D01*
X114013622Y-127973380D02*
X114013622Y-143207406D01*
X128322002Y-113665000D02*
X114013622Y-127973380D01*
X131191000Y-113665000D02*
X128322002Y-113665000D01*
G04 #@! TO.N,/INT_SII*
X139030001Y-113884001D02*
X137571241Y-112425241D01*
X139030001Y-117562001D02*
X139030001Y-113884001D01*
X122438001Y-134154001D02*
X139030001Y-117562001D01*
X113540321Y-145006584D02*
X114463632Y-144083273D01*
X121909999Y-134154001D02*
X122438001Y-134154001D01*
X114463632Y-141600368D02*
X121909999Y-134154001D01*
X137571241Y-112425241D02*
X137571241Y-112114076D01*
X114463632Y-144083273D02*
X114463632Y-141600368D01*
G04 #@! TO.N,/SWCLK*
X154432000Y-113538000D02*
X151980020Y-111086020D01*
X120269000Y-114374998D02*
X120269000Y-114935000D01*
X123557978Y-111086020D02*
X120269000Y-114374998D01*
X151980020Y-111086020D02*
X123557978Y-111086020D01*
G04 #@! TO.N,/SWDIO*
X122154990Y-110636010D02*
X117729000Y-115062000D01*
X156718000Y-114935000D02*
X152419010Y-110636010D01*
X152419010Y-110636010D02*
X122154990Y-110636010D01*
X156718000Y-117387000D02*
X156718000Y-114935000D01*
G04 #@! TD*
M02*
