G04 #@! TF.GenerationSoftware,KiCad,Pcbnew,(5.0.1-3-g963ef8bb5)*
G04 #@! TF.CreationDate,2020-04-18T14:55:13-02:30*
G04 #@! TF.ProjectId,graphics-card,67726170686963732D636172642E6B69,rev?*
G04 #@! TF.SameCoordinates,Original*
G04 #@! TF.FileFunction,Copper,L1,Top,Signal*
G04 #@! TF.FilePolarity,Positive*
%FSLAX46Y46*%
G04 Gerber Fmt 4.6, Leading zero omitted, Abs format (unit mm)*
G04 Created by KiCad (PCBNEW (5.0.1-3-g963ef8bb5)) date Saturday, April 18, 2020 at 02:55:13 pm*
%MOMM*%
%LPD*%
G01*
G04 APERTURE LIST*
G04 #@! TA.AperFunction,ComponentPad*
%ADD10C,1.950000*%
G04 #@! TD*
G04 #@! TA.AperFunction,SMDPad,CuDef*
%ADD11R,0.300000X1.900000*%
G04 #@! TD*
G04 #@! TA.AperFunction,SMDPad,CuDef*
%ADD12R,1.550000X0.300000*%
G04 #@! TD*
G04 #@! TA.AperFunction,SMDPad,CuDef*
%ADD13R,0.300000X1.550000*%
G04 #@! TD*
G04 #@! TA.AperFunction,Conductor*
%ADD14C,0.100000*%
G04 #@! TD*
G04 #@! TA.AperFunction,SMDPad,CuDef*
%ADD15C,0.975000*%
G04 #@! TD*
G04 #@! TA.AperFunction,SMDPad,CuDef*
%ADD16R,1.300000X1.550000*%
G04 #@! TD*
G04 #@! TA.AperFunction,SMDPad,CuDef*
%ADD17R,3.800000X2.000000*%
G04 #@! TD*
G04 #@! TA.AperFunction,SMDPad,CuDef*
%ADD18R,1.500000X2.000000*%
G04 #@! TD*
G04 #@! TA.AperFunction,SMDPad,CuDef*
%ADD19R,2.000000X1.500000*%
G04 #@! TD*
G04 #@! TA.AperFunction,SMDPad,CuDef*
%ADD20R,2.000000X3.800000*%
G04 #@! TD*
G04 #@! TA.AperFunction,SMDPad,CuDef*
%ADD21R,1.350000X2.000000*%
G04 #@! TD*
G04 #@! TA.AperFunction,SMDPad,CuDef*
%ADD22R,1.825000X0.700000*%
G04 #@! TD*
G04 #@! TA.AperFunction,SMDPad,CuDef*
%ADD23R,0.400000X1.650000*%
G04 #@! TD*
G04 #@! TA.AperFunction,ComponentPad*
%ADD24O,1.100000X1.500000*%
G04 #@! TD*
G04 #@! TA.AperFunction,ComponentPad*
%ADD25O,1.350000X1.700000*%
G04 #@! TD*
G04 #@! TA.AperFunction,SMDPad,CuDef*
%ADD26R,1.430000X2.500000*%
G04 #@! TD*
G04 #@! TA.AperFunction,SMDPad,CuDef*
%ADD27R,1.000000X3.150000*%
G04 #@! TD*
G04 #@! TA.AperFunction,BGAPad,CuDef*
%ADD28C,1.000000*%
G04 #@! TD*
G04 #@! TA.AperFunction,SMDPad,CuDef*
%ADD29R,0.300000X1.500000*%
G04 #@! TD*
G04 #@! TA.AperFunction,SMDPad,CuDef*
%ADD30R,1.500000X0.300000*%
G04 #@! TD*
G04 #@! TA.AperFunction,SMDPad,CuDef*
%ADD31R,5.000000X5.000000*%
G04 #@! TD*
G04 #@! TA.AperFunction,ViaPad*
%ADD32C,3.000000*%
G04 #@! TD*
G04 #@! TA.AperFunction,ViaPad*
%ADD33C,0.450000*%
G04 #@! TD*
G04 #@! TA.AperFunction,Conductor*
%ADD34C,0.250000*%
G04 #@! TD*
G04 #@! TA.AperFunction,Conductor*
%ADD35C,0.200000*%
G04 #@! TD*
G04 #@! TA.AperFunction,Conductor*
%ADD36C,0.300000*%
G04 #@! TD*
G04 APERTURE END LIST*
D10*
G04 #@! TO.P,J2,SH*
G04 #@! TO.N,GND*
X127611000Y-158316000D03*
X111911000Y-158316000D03*
X127011000Y-153416000D03*
X112511000Y-153416000D03*
D11*
G04 #@! TO.P,J2,19*
G04 #@! TO.N,/HPD*
X115511000Y-152416000D03*
G04 #@! TO.P,J2,18*
G04 #@! TO.N,+5V*
X116011000Y-152416000D03*
G04 #@! TO.P,J2,17*
G04 #@! TO.N,GND*
X116511000Y-152416000D03*
G04 #@! TO.P,J2,16*
G04 #@! TO.N,/SDA*
X117011000Y-152416000D03*
G04 #@! TO.P,J2,15*
G04 #@! TO.N,/SCL*
X117511000Y-152416000D03*
G04 #@! TO.P,J2,14*
G04 #@! TO.N,Net-(J2-Pad14)*
X118011000Y-152416000D03*
G04 #@! TO.P,J2,13*
G04 #@! TO.N,/CEC*
X118511000Y-152416000D03*
G04 #@! TO.P,J2,12*
G04 #@! TO.N,/CLK-*
X119011000Y-152416000D03*
G04 #@! TO.P,J2,11*
G04 #@! TO.N,GND*
X119511000Y-152416000D03*
G04 #@! TO.P,J2,10*
G04 #@! TO.N,/CLK+*
X120011000Y-152416000D03*
G04 #@! TO.P,J2,9*
G04 #@! TO.N,/D0-*
X120511000Y-152416000D03*
G04 #@! TO.P,J2,8*
G04 #@! TO.N,GND*
X121011000Y-152416000D03*
G04 #@! TO.P,J2,7*
G04 #@! TO.N,/D0+*
X121511000Y-152416000D03*
G04 #@! TO.P,J2,6*
G04 #@! TO.N,/D1-*
X122011000Y-152416000D03*
G04 #@! TO.P,J2,5*
G04 #@! TO.N,GND*
X122511000Y-152416000D03*
G04 #@! TO.P,J2,4*
G04 #@! TO.N,/D1+*
X123011000Y-152416000D03*
G04 #@! TO.P,J2,3*
G04 #@! TO.N,/D2-*
X123511000Y-152416000D03*
G04 #@! TO.P,J2,2*
G04 #@! TO.N,GND*
X124011000Y-152416000D03*
G04 #@! TO.P,J2,1*
G04 #@! TO.N,/D2+*
X124511000Y-152416000D03*
G04 #@! TD*
D12*
G04 #@! TO.P,U5,1*
G04 #@! TO.N,/DE*
X134080000Y-115837000D03*
G04 #@! TO.P,U5,2*
G04 #@! TO.N,/HSYNC*
X134080000Y-116337000D03*
G04 #@! TO.P,U5,3*
G04 #@! TO.N,/VSYNC*
X134080000Y-116837000D03*
G04 #@! TO.P,U5,4*
G04 #@! TO.N,/IDCK*
X134080000Y-117337000D03*
G04 #@! TO.P,U5,5*
G04 #@! TO.N,Net-(U5-Pad5)*
X134080000Y-117837000D03*
G04 #@! TO.P,U5,6*
G04 #@! TO.N,+3V3*
X134080000Y-118337000D03*
G04 #@! TO.P,U5,7*
G04 #@! TO.N,Net-(U5-Pad7)*
X134080000Y-118837000D03*
G04 #@! TO.P,U5,8*
G04 #@! TO.N,/OSC32_IN*
X134080000Y-119337000D03*
G04 #@! TO.P,U5,9*
G04 #@! TO.N,/OSC32_OUT*
X134080000Y-119837000D03*
G04 #@! TO.P,U5,10*
G04 #@! TO.N,/B_CB_0*
X134080000Y-120337000D03*
G04 #@! TO.P,U5,11*
G04 #@! TO.N,/B_CB_1*
X134080000Y-120837000D03*
G04 #@! TO.P,U5,12*
G04 #@! TO.N,/B_CB_2*
X134080000Y-121337000D03*
G04 #@! TO.P,U5,13*
G04 #@! TO.N,/B_CB_3*
X134080000Y-121837000D03*
G04 #@! TO.P,U5,14*
G04 #@! TO.N,/B_CB_4*
X134080000Y-122337000D03*
G04 #@! TO.P,U5,15*
G04 #@! TO.N,/B_CB_5*
X134080000Y-122837000D03*
G04 #@! TO.P,U5,16*
G04 #@! TO.N,GND*
X134080000Y-123337000D03*
G04 #@! TO.P,U5,17*
G04 #@! TO.N,+3V3*
X134080000Y-123837000D03*
G04 #@! TO.P,U5,18*
G04 #@! TO.N,/B_CB_6*
X134080000Y-124337000D03*
G04 #@! TO.P,U5,19*
G04 #@! TO.N,/B_CB_7*
X134080000Y-124837000D03*
G04 #@! TO.P,U5,20*
G04 #@! TO.N,Net-(U5-Pad20)*
X134080000Y-125337000D03*
G04 #@! TO.P,U5,21*
G04 #@! TO.N,Net-(U5-Pad21)*
X134080000Y-125837000D03*
G04 #@! TO.P,U5,22*
G04 #@! TO.N,Net-(U5-Pad22)*
X134080000Y-126337000D03*
G04 #@! TO.P,U5,23*
G04 #@! TO.N,/OSC_IN*
X134080000Y-126837000D03*
G04 #@! TO.P,U5,24*
G04 #@! TO.N,/OSC_OUT*
X134080000Y-127337000D03*
G04 #@! TO.P,U5,25*
G04 #@! TO.N,/~RESET*
X134080000Y-127837000D03*
G04 #@! TO.P,U5,26*
G04 #@! TO.N,Net-(U5-Pad26)*
X134080000Y-128337000D03*
G04 #@! TO.P,U5,27*
G04 #@! TO.N,Net-(U5-Pad27)*
X134080000Y-128837000D03*
G04 #@! TO.P,U5,28*
G04 #@! TO.N,Net-(U5-Pad28)*
X134080000Y-129337000D03*
G04 #@! TO.P,U5,29*
G04 #@! TO.N,Net-(U5-Pad29)*
X134080000Y-129837000D03*
G04 #@! TO.P,U5,30*
G04 #@! TO.N,+3V3*
X134080000Y-130337000D03*
G04 #@! TO.P,U5,31*
G04 #@! TO.N,GND*
X134080000Y-130837000D03*
G04 #@! TO.P,U5,32*
G04 #@! TO.N,+3V3*
X134080000Y-131337000D03*
G04 #@! TO.P,U5,33*
X134080000Y-131837000D03*
G04 #@! TO.P,U5,34*
G04 #@! TO.N,/G_Y_0*
X134080000Y-132337000D03*
G04 #@! TO.P,U5,35*
G04 #@! TO.N,/G_Y_1*
X134080000Y-132837000D03*
G04 #@! TO.P,U5,36*
G04 #@! TO.N,/G_Y_2*
X134080000Y-133337000D03*
D13*
G04 #@! TO.P,U5,37*
G04 #@! TO.N,/G_Y_3*
X136030000Y-135287000D03*
G04 #@! TO.P,U5,38*
G04 #@! TO.N,GND*
X136530000Y-135287000D03*
G04 #@! TO.P,U5,39*
G04 #@! TO.N,+3V3*
X137030000Y-135287000D03*
G04 #@! TO.P,U5,40*
G04 #@! TO.N,/G_Y_4*
X137530000Y-135287000D03*
G04 #@! TO.P,U5,41*
G04 #@! TO.N,/G_Y_5*
X138030000Y-135287000D03*
G04 #@! TO.P,U5,42*
G04 #@! TO.N,/G_Y_6*
X138530000Y-135287000D03*
G04 #@! TO.P,U5,43*
G04 #@! TO.N,/G_Y_7*
X139030000Y-135287000D03*
G04 #@! TO.P,U5,44*
G04 #@! TO.N,Net-(U5-Pad44)*
X139530000Y-135287000D03*
G04 #@! TO.P,U5,45*
G04 #@! TO.N,Net-(U5-Pad45)*
X140030000Y-135287000D03*
G04 #@! TO.P,U5,46*
G04 #@! TO.N,Net-(U5-Pad46)*
X140530000Y-135287000D03*
G04 #@! TO.P,U5,47*
G04 #@! TO.N,Net-(U5-Pad47)*
X141030000Y-135287000D03*
G04 #@! TO.P,U5,48*
G04 #@! TO.N,Net-(U5-Pad48)*
X141530000Y-135287000D03*
G04 #@! TO.P,U5,49*
G04 #@! TO.N,Net-(U5-Pad49)*
X142030000Y-135287000D03*
G04 #@! TO.P,U5,50*
G04 #@! TO.N,Net-(U5-Pad50)*
X142530000Y-135287000D03*
G04 #@! TO.P,U5,51*
G04 #@! TO.N,GND*
X143030000Y-135287000D03*
G04 #@! TO.P,U5,52*
G04 #@! TO.N,+3V3*
X143530000Y-135287000D03*
G04 #@! TO.P,U5,53*
G04 #@! TO.N,Net-(U5-Pad53)*
X144030000Y-135287000D03*
G04 #@! TO.P,U5,54*
G04 #@! TO.N,Net-(U5-Pad54)*
X144530000Y-135287000D03*
G04 #@! TO.P,U5,55*
G04 #@! TO.N,Net-(U5-Pad55)*
X145030000Y-135287000D03*
G04 #@! TO.P,U5,56*
G04 #@! TO.N,Net-(U5-Pad56)*
X145530000Y-135287000D03*
G04 #@! TO.P,U5,57*
G04 #@! TO.N,Net-(U5-Pad57)*
X146030000Y-135287000D03*
G04 #@! TO.P,U5,58*
G04 #@! TO.N,Net-(U5-Pad58)*
X146530000Y-135287000D03*
G04 #@! TO.P,U5,59*
G04 #@! TO.N,/R_CR_0*
X147030000Y-135287000D03*
G04 #@! TO.P,U5,60*
G04 #@! TO.N,/R_CR_1*
X147530000Y-135287000D03*
G04 #@! TO.P,U5,61*
G04 #@! TO.N,GND*
X148030000Y-135287000D03*
G04 #@! TO.P,U5,62*
G04 #@! TO.N,+3V3*
X148530000Y-135287000D03*
G04 #@! TO.P,U5,63*
G04 #@! TO.N,/R_CR_2*
X149030000Y-135287000D03*
G04 #@! TO.P,U5,64*
G04 #@! TO.N,/R_CR_3*
X149530000Y-135287000D03*
G04 #@! TO.P,U5,65*
G04 #@! TO.N,/R_CR_4*
X150030000Y-135287000D03*
G04 #@! TO.P,U5,66*
G04 #@! TO.N,/R_CR_5*
X150530000Y-135287000D03*
G04 #@! TO.P,U5,67*
G04 #@! TO.N,/R_CR_6*
X151030000Y-135287000D03*
G04 #@! TO.P,U5,68*
G04 #@! TO.N,/R_CR_7*
X151530000Y-135287000D03*
G04 #@! TO.P,U5,69*
G04 #@! TO.N,Net-(U5-Pad69)*
X152030000Y-135287000D03*
G04 #@! TO.P,U5,70*
G04 #@! TO.N,Net-(U5-Pad70)*
X152530000Y-135287000D03*
G04 #@! TO.P,U5,71*
G04 #@! TO.N,Net-(C37-Pad1)*
X153030000Y-135287000D03*
G04 #@! TO.P,U5,72*
G04 #@! TO.N,+3V3*
X153530000Y-135287000D03*
D12*
G04 #@! TO.P,U5,73*
G04 #@! TO.N,Net-(U5-Pad73)*
X155480000Y-133337000D03*
G04 #@! TO.P,U5,74*
G04 #@! TO.N,Net-(U5-Pad74)*
X155480000Y-132837000D03*
G04 #@! TO.P,U5,75*
G04 #@! TO.N,/USB1_D-*
X155480000Y-132337000D03*
G04 #@! TO.P,U5,76*
G04 #@! TO.N,/USB1_D+*
X155480000Y-131837000D03*
G04 #@! TO.P,U5,77*
G04 #@! TO.N,Net-(U5-Pad77)*
X155480000Y-131337000D03*
G04 #@! TO.P,U5,78*
G04 #@! TO.N,Net-(U5-Pad78)*
X155480000Y-130837000D03*
G04 #@! TO.P,U5,79*
G04 #@! TO.N,Net-(U5-Pad79)*
X155480000Y-130337000D03*
G04 #@! TO.P,U5,80*
G04 #@! TO.N,Net-(U5-Pad80)*
X155480000Y-129837000D03*
G04 #@! TO.P,U5,81*
G04 #@! TO.N,Net-(U5-Pad81)*
X155480000Y-129337000D03*
G04 #@! TO.P,U5,82*
G04 #@! TO.N,Net-(U5-Pad82)*
X155480000Y-128837000D03*
G04 #@! TO.P,U5,83*
G04 #@! TO.N,GND*
X155480000Y-128337000D03*
G04 #@! TO.P,U5,84*
G04 #@! TO.N,+3V3*
X155480000Y-127837000D03*
G04 #@! TO.P,U5,85*
G04 #@! TO.N,Net-(U5-Pad85)*
X155480000Y-127337000D03*
G04 #@! TO.P,U5,86*
G04 #@! TO.N,Net-(U5-Pad86)*
X155480000Y-126837000D03*
G04 #@! TO.P,U5,87*
G04 #@! TO.N,Net-(U5-Pad87)*
X155480000Y-126337000D03*
G04 #@! TO.P,U5,88*
G04 #@! TO.N,Net-(U5-Pad88)*
X155480000Y-125837000D03*
G04 #@! TO.P,U5,89*
G04 #@! TO.N,Net-(U5-Pad89)*
X155480000Y-125337000D03*
G04 #@! TO.P,U5,90*
G04 #@! TO.N,Net-(U5-Pad90)*
X155480000Y-124837000D03*
G04 #@! TO.P,U5,91*
G04 #@! TO.N,Net-(U5-Pad91)*
X155480000Y-124337000D03*
G04 #@! TO.P,U5,92*
G04 #@! TO.N,Net-(U5-Pad92)*
X155480000Y-123837000D03*
G04 #@! TO.P,U5,93*
G04 #@! TO.N,Net-(U5-Pad93)*
X155480000Y-123337000D03*
G04 #@! TO.P,U5,94*
G04 #@! TO.N,GND*
X155480000Y-122837000D03*
G04 #@! TO.P,U5,95*
G04 #@! TO.N,+3V3*
X155480000Y-122337000D03*
G04 #@! TO.P,U5,96*
G04 #@! TO.N,Net-(U5-Pad96)*
X155480000Y-121837000D03*
G04 #@! TO.P,U5,97*
G04 #@! TO.N,Net-(U5-Pad97)*
X155480000Y-121337000D03*
G04 #@! TO.P,U5,98*
G04 #@! TO.N,Net-(U5-Pad98)*
X155480000Y-120837000D03*
G04 #@! TO.P,U5,99*
G04 #@! TO.N,Net-(U5-Pad99)*
X155480000Y-120337000D03*
G04 #@! TO.P,U5,100*
G04 #@! TO.N,Net-(U5-Pad100)*
X155480000Y-119837000D03*
G04 #@! TO.P,U5,101*
G04 #@! TO.N,Net-(U5-Pad101)*
X155480000Y-119337000D03*
G04 #@! TO.P,U5,102*
G04 #@! TO.N,Net-(U5-Pad102)*
X155480000Y-118837000D03*
G04 #@! TO.P,U5,103*
G04 #@! TO.N,Net-(U5-Pad103)*
X155480000Y-118337000D03*
G04 #@! TO.P,U5,104*
G04 #@! TO.N,Net-(U5-Pad104)*
X155480000Y-117837000D03*
G04 #@! TO.P,U5,105*
G04 #@! TO.N,/SWDIO*
X155480000Y-117337000D03*
G04 #@! TO.P,U5,106*
G04 #@! TO.N,Net-(C38-Pad1)*
X155480000Y-116837000D03*
G04 #@! TO.P,U5,107*
G04 #@! TO.N,GND*
X155480000Y-116337000D03*
G04 #@! TO.P,U5,108*
G04 #@! TO.N,+3V3*
X155480000Y-115837000D03*
D13*
G04 #@! TO.P,U5,109*
G04 #@! TO.N,/SWCLK*
X153530000Y-113887000D03*
G04 #@! TO.P,U5,110*
G04 #@! TO.N,Net-(U5-Pad110)*
X153030000Y-113887000D03*
G04 #@! TO.P,U5,111*
G04 #@! TO.N,Net-(U5-Pad111)*
X152530000Y-113887000D03*
G04 #@! TO.P,U5,112*
G04 #@! TO.N,Net-(U5-Pad112)*
X152030000Y-113887000D03*
G04 #@! TO.P,U5,113*
G04 #@! TO.N,Net-(U5-Pad113)*
X151530000Y-113887000D03*
G04 #@! TO.P,U5,114*
G04 #@! TO.N,Net-(D4-Pad2)*
X151030000Y-113887000D03*
G04 #@! TO.P,U5,115*
G04 #@! TO.N,Net-(U5-Pad115)*
X150530000Y-113887000D03*
G04 #@! TO.P,U5,116*
G04 #@! TO.N,Net-(U5-Pad116)*
X150030000Y-113887000D03*
G04 #@! TO.P,U5,117*
G04 #@! TO.N,Net-(U5-Pad117)*
X149530000Y-113887000D03*
G04 #@! TO.P,U5,118*
G04 #@! TO.N,Net-(U5-Pad118)*
X149030000Y-113887000D03*
G04 #@! TO.P,U5,119*
G04 #@! TO.N,Net-(U5-Pad119)*
X148530000Y-113887000D03*
G04 #@! TO.P,U5,120*
G04 #@! TO.N,GND*
X148030000Y-113887000D03*
G04 #@! TO.P,U5,121*
G04 #@! TO.N,+3V3*
X147530000Y-113887000D03*
G04 #@! TO.P,U5,122*
G04 #@! TO.N,Net-(U5-Pad122)*
X147030000Y-113887000D03*
G04 #@! TO.P,U5,123*
G04 #@! TO.N,Net-(U5-Pad123)*
X146530000Y-113887000D03*
G04 #@! TO.P,U5,124*
G04 #@! TO.N,Net-(U5-Pad124)*
X146030000Y-113887000D03*
G04 #@! TO.P,U5,125*
G04 #@! TO.N,Net-(U5-Pad125)*
X145530000Y-113887000D03*
G04 #@! TO.P,U5,126*
G04 #@! TO.N,Net-(U5-Pad126)*
X145030000Y-113887000D03*
G04 #@! TO.P,U5,127*
G04 #@! TO.N,Net-(U5-Pad127)*
X144530000Y-113887000D03*
G04 #@! TO.P,U5,128*
G04 #@! TO.N,Net-(U5-Pad128)*
X144030000Y-113887000D03*
G04 #@! TO.P,U5,129*
G04 #@! TO.N,Net-(U5-Pad129)*
X143530000Y-113887000D03*
G04 #@! TO.P,U5,130*
G04 #@! TO.N,GND*
X143030000Y-113887000D03*
G04 #@! TO.P,U5,131*
G04 #@! TO.N,+3V3*
X142530000Y-113887000D03*
G04 #@! TO.P,U5,132*
G04 #@! TO.N,Net-(U5-Pad132)*
X142030000Y-113887000D03*
G04 #@! TO.P,U5,133*
G04 #@! TO.N,Net-(U5-Pad133)*
X141530000Y-113887000D03*
G04 #@! TO.P,U5,134*
G04 #@! TO.N,Net-(U5-Pad134)*
X141030000Y-113887000D03*
G04 #@! TO.P,U5,135*
G04 #@! TO.N,Net-(U5-Pad135)*
X140530000Y-113887000D03*
G04 #@! TO.P,U5,136*
G04 #@! TO.N,/CSCL*
X140030000Y-113887000D03*
G04 #@! TO.P,U5,137*
G04 #@! TO.N,/CSDA*
X139530000Y-113887000D03*
G04 #@! TO.P,U5,138*
G04 #@! TO.N,GND*
X139030000Y-113887000D03*
G04 #@! TO.P,U5,139*
G04 #@! TO.N,Net-(U5-Pad139)*
X138530000Y-113887000D03*
G04 #@! TO.P,U5,140*
G04 #@! TO.N,/INT_SII*
X138030000Y-113887000D03*
G04 #@! TO.P,U5,141*
G04 #@! TO.N,Net-(U5-Pad141)*
X137530000Y-113887000D03*
G04 #@! TO.P,U5,142*
G04 #@! TO.N,Net-(U5-Pad142)*
X137030000Y-113887000D03*
G04 #@! TO.P,U5,143*
G04 #@! TO.N,+3V3*
X136530000Y-113887000D03*
G04 #@! TO.P,U5,144*
X136030000Y-113887000D03*
G04 #@! TD*
D14*
G04 #@! TO.N,+3V3*
G04 #@! TO.C,C8*
G36*
X158976142Y-126592174D02*
X158999803Y-126595684D01*
X159023007Y-126601496D01*
X159045529Y-126609554D01*
X159067153Y-126619782D01*
X159087670Y-126632079D01*
X159106883Y-126646329D01*
X159124607Y-126662393D01*
X159140671Y-126680117D01*
X159154921Y-126699330D01*
X159167218Y-126719847D01*
X159177446Y-126741471D01*
X159185504Y-126763993D01*
X159191316Y-126787197D01*
X159194826Y-126810858D01*
X159196000Y-126834750D01*
X159196000Y-127322250D01*
X159194826Y-127346142D01*
X159191316Y-127369803D01*
X159185504Y-127393007D01*
X159177446Y-127415529D01*
X159167218Y-127437153D01*
X159154921Y-127457670D01*
X159140671Y-127476883D01*
X159124607Y-127494607D01*
X159106883Y-127510671D01*
X159087670Y-127524921D01*
X159067153Y-127537218D01*
X159045529Y-127547446D01*
X159023007Y-127555504D01*
X158999803Y-127561316D01*
X158976142Y-127564826D01*
X158952250Y-127566000D01*
X158039750Y-127566000D01*
X158015858Y-127564826D01*
X157992197Y-127561316D01*
X157968993Y-127555504D01*
X157946471Y-127547446D01*
X157924847Y-127537218D01*
X157904330Y-127524921D01*
X157885117Y-127510671D01*
X157867393Y-127494607D01*
X157851329Y-127476883D01*
X157837079Y-127457670D01*
X157824782Y-127437153D01*
X157814554Y-127415529D01*
X157806496Y-127393007D01*
X157800684Y-127369803D01*
X157797174Y-127346142D01*
X157796000Y-127322250D01*
X157796000Y-126834750D01*
X157797174Y-126810858D01*
X157800684Y-126787197D01*
X157806496Y-126763993D01*
X157814554Y-126741471D01*
X157824782Y-126719847D01*
X157837079Y-126699330D01*
X157851329Y-126680117D01*
X157867393Y-126662393D01*
X157885117Y-126646329D01*
X157904330Y-126632079D01*
X157924847Y-126619782D01*
X157946471Y-126609554D01*
X157968993Y-126601496D01*
X157992197Y-126595684D01*
X158015858Y-126592174D01*
X158039750Y-126591000D01*
X158952250Y-126591000D01*
X158976142Y-126592174D01*
X158976142Y-126592174D01*
G37*
D15*
G04 #@! TD*
G04 #@! TO.P,C8,1*
G04 #@! TO.N,+3V3*
X158496000Y-127078500D03*
D14*
G04 #@! TO.N,GND*
G04 #@! TO.C,C8*
G36*
X158976142Y-128467174D02*
X158999803Y-128470684D01*
X159023007Y-128476496D01*
X159045529Y-128484554D01*
X159067153Y-128494782D01*
X159087670Y-128507079D01*
X159106883Y-128521329D01*
X159124607Y-128537393D01*
X159140671Y-128555117D01*
X159154921Y-128574330D01*
X159167218Y-128594847D01*
X159177446Y-128616471D01*
X159185504Y-128638993D01*
X159191316Y-128662197D01*
X159194826Y-128685858D01*
X159196000Y-128709750D01*
X159196000Y-129197250D01*
X159194826Y-129221142D01*
X159191316Y-129244803D01*
X159185504Y-129268007D01*
X159177446Y-129290529D01*
X159167218Y-129312153D01*
X159154921Y-129332670D01*
X159140671Y-129351883D01*
X159124607Y-129369607D01*
X159106883Y-129385671D01*
X159087670Y-129399921D01*
X159067153Y-129412218D01*
X159045529Y-129422446D01*
X159023007Y-129430504D01*
X158999803Y-129436316D01*
X158976142Y-129439826D01*
X158952250Y-129441000D01*
X158039750Y-129441000D01*
X158015858Y-129439826D01*
X157992197Y-129436316D01*
X157968993Y-129430504D01*
X157946471Y-129422446D01*
X157924847Y-129412218D01*
X157904330Y-129399921D01*
X157885117Y-129385671D01*
X157867393Y-129369607D01*
X157851329Y-129351883D01*
X157837079Y-129332670D01*
X157824782Y-129312153D01*
X157814554Y-129290529D01*
X157806496Y-129268007D01*
X157800684Y-129244803D01*
X157797174Y-129221142D01*
X157796000Y-129197250D01*
X157796000Y-128709750D01*
X157797174Y-128685858D01*
X157800684Y-128662197D01*
X157806496Y-128638993D01*
X157814554Y-128616471D01*
X157824782Y-128594847D01*
X157837079Y-128574330D01*
X157851329Y-128555117D01*
X157867393Y-128537393D01*
X157885117Y-128521329D01*
X157904330Y-128507079D01*
X157924847Y-128494782D01*
X157946471Y-128484554D01*
X157968993Y-128476496D01*
X157992197Y-128470684D01*
X158015858Y-128467174D01*
X158039750Y-128466000D01*
X158952250Y-128466000D01*
X158976142Y-128467174D01*
X158976142Y-128467174D01*
G37*
D15*
G04 #@! TD*
G04 #@! TO.P,C8,2*
G04 #@! TO.N,GND*
X158496000Y-128953500D03*
D14*
G04 #@! TO.N,GND*
G04 #@! TO.C,C9*
G36*
X158976142Y-112192674D02*
X158999803Y-112196184D01*
X159023007Y-112201996D01*
X159045529Y-112210054D01*
X159067153Y-112220282D01*
X159087670Y-112232579D01*
X159106883Y-112246829D01*
X159124607Y-112262893D01*
X159140671Y-112280617D01*
X159154921Y-112299830D01*
X159167218Y-112320347D01*
X159177446Y-112341971D01*
X159185504Y-112364493D01*
X159191316Y-112387697D01*
X159194826Y-112411358D01*
X159196000Y-112435250D01*
X159196000Y-112922750D01*
X159194826Y-112946642D01*
X159191316Y-112970303D01*
X159185504Y-112993507D01*
X159177446Y-113016029D01*
X159167218Y-113037653D01*
X159154921Y-113058170D01*
X159140671Y-113077383D01*
X159124607Y-113095107D01*
X159106883Y-113111171D01*
X159087670Y-113125421D01*
X159067153Y-113137718D01*
X159045529Y-113147946D01*
X159023007Y-113156004D01*
X158999803Y-113161816D01*
X158976142Y-113165326D01*
X158952250Y-113166500D01*
X158039750Y-113166500D01*
X158015858Y-113165326D01*
X157992197Y-113161816D01*
X157968993Y-113156004D01*
X157946471Y-113147946D01*
X157924847Y-113137718D01*
X157904330Y-113125421D01*
X157885117Y-113111171D01*
X157867393Y-113095107D01*
X157851329Y-113077383D01*
X157837079Y-113058170D01*
X157824782Y-113037653D01*
X157814554Y-113016029D01*
X157806496Y-112993507D01*
X157800684Y-112970303D01*
X157797174Y-112946642D01*
X157796000Y-112922750D01*
X157796000Y-112435250D01*
X157797174Y-112411358D01*
X157800684Y-112387697D01*
X157806496Y-112364493D01*
X157814554Y-112341971D01*
X157824782Y-112320347D01*
X157837079Y-112299830D01*
X157851329Y-112280617D01*
X157867393Y-112262893D01*
X157885117Y-112246829D01*
X157904330Y-112232579D01*
X157924847Y-112220282D01*
X157946471Y-112210054D01*
X157968993Y-112201996D01*
X157992197Y-112196184D01*
X158015858Y-112192674D01*
X158039750Y-112191500D01*
X158952250Y-112191500D01*
X158976142Y-112192674D01*
X158976142Y-112192674D01*
G37*
D15*
G04 #@! TD*
G04 #@! TO.P,C9,2*
G04 #@! TO.N,GND*
X158496000Y-112679000D03*
D14*
G04 #@! TO.N,+3V3*
G04 #@! TO.C,C9*
G36*
X158976142Y-114067674D02*
X158999803Y-114071184D01*
X159023007Y-114076996D01*
X159045529Y-114085054D01*
X159067153Y-114095282D01*
X159087670Y-114107579D01*
X159106883Y-114121829D01*
X159124607Y-114137893D01*
X159140671Y-114155617D01*
X159154921Y-114174830D01*
X159167218Y-114195347D01*
X159177446Y-114216971D01*
X159185504Y-114239493D01*
X159191316Y-114262697D01*
X159194826Y-114286358D01*
X159196000Y-114310250D01*
X159196000Y-114797750D01*
X159194826Y-114821642D01*
X159191316Y-114845303D01*
X159185504Y-114868507D01*
X159177446Y-114891029D01*
X159167218Y-114912653D01*
X159154921Y-114933170D01*
X159140671Y-114952383D01*
X159124607Y-114970107D01*
X159106883Y-114986171D01*
X159087670Y-115000421D01*
X159067153Y-115012718D01*
X159045529Y-115022946D01*
X159023007Y-115031004D01*
X158999803Y-115036816D01*
X158976142Y-115040326D01*
X158952250Y-115041500D01*
X158039750Y-115041500D01*
X158015858Y-115040326D01*
X157992197Y-115036816D01*
X157968993Y-115031004D01*
X157946471Y-115022946D01*
X157924847Y-115012718D01*
X157904330Y-115000421D01*
X157885117Y-114986171D01*
X157867393Y-114970107D01*
X157851329Y-114952383D01*
X157837079Y-114933170D01*
X157824782Y-114912653D01*
X157814554Y-114891029D01*
X157806496Y-114868507D01*
X157800684Y-114845303D01*
X157797174Y-114821642D01*
X157796000Y-114797750D01*
X157796000Y-114310250D01*
X157797174Y-114286358D01*
X157800684Y-114262697D01*
X157806496Y-114239493D01*
X157814554Y-114216971D01*
X157824782Y-114195347D01*
X157837079Y-114174830D01*
X157851329Y-114155617D01*
X157867393Y-114137893D01*
X157885117Y-114121829D01*
X157904330Y-114107579D01*
X157924847Y-114095282D01*
X157946471Y-114085054D01*
X157968993Y-114076996D01*
X157992197Y-114071184D01*
X158015858Y-114067674D01*
X158039750Y-114066500D01*
X158952250Y-114066500D01*
X158976142Y-114067674D01*
X158976142Y-114067674D01*
G37*
D15*
G04 #@! TD*
G04 #@! TO.P,C9,1*
G04 #@! TO.N,+3V3*
X158496000Y-114554000D03*
D14*
G04 #@! TO.N,+3V3*
G04 #@! TO.C,C10*
G36*
X147109642Y-111061174D02*
X147133303Y-111064684D01*
X147156507Y-111070496D01*
X147179029Y-111078554D01*
X147200653Y-111088782D01*
X147221170Y-111101079D01*
X147240383Y-111115329D01*
X147258107Y-111131393D01*
X147274171Y-111149117D01*
X147288421Y-111168330D01*
X147300718Y-111188847D01*
X147310946Y-111210471D01*
X147319004Y-111232993D01*
X147324816Y-111256197D01*
X147328326Y-111279858D01*
X147329500Y-111303750D01*
X147329500Y-112216250D01*
X147328326Y-112240142D01*
X147324816Y-112263803D01*
X147319004Y-112287007D01*
X147310946Y-112309529D01*
X147300718Y-112331153D01*
X147288421Y-112351670D01*
X147274171Y-112370883D01*
X147258107Y-112388607D01*
X147240383Y-112404671D01*
X147221170Y-112418921D01*
X147200653Y-112431218D01*
X147179029Y-112441446D01*
X147156507Y-112449504D01*
X147133303Y-112455316D01*
X147109642Y-112458826D01*
X147085750Y-112460000D01*
X146598250Y-112460000D01*
X146574358Y-112458826D01*
X146550697Y-112455316D01*
X146527493Y-112449504D01*
X146504971Y-112441446D01*
X146483347Y-112431218D01*
X146462830Y-112418921D01*
X146443617Y-112404671D01*
X146425893Y-112388607D01*
X146409829Y-112370883D01*
X146395579Y-112351670D01*
X146383282Y-112331153D01*
X146373054Y-112309529D01*
X146364996Y-112287007D01*
X146359184Y-112263803D01*
X146355674Y-112240142D01*
X146354500Y-112216250D01*
X146354500Y-111303750D01*
X146355674Y-111279858D01*
X146359184Y-111256197D01*
X146364996Y-111232993D01*
X146373054Y-111210471D01*
X146383282Y-111188847D01*
X146395579Y-111168330D01*
X146409829Y-111149117D01*
X146425893Y-111131393D01*
X146443617Y-111115329D01*
X146462830Y-111101079D01*
X146483347Y-111088782D01*
X146504971Y-111078554D01*
X146527493Y-111070496D01*
X146550697Y-111064684D01*
X146574358Y-111061174D01*
X146598250Y-111060000D01*
X147085750Y-111060000D01*
X147109642Y-111061174D01*
X147109642Y-111061174D01*
G37*
D15*
G04 #@! TD*
G04 #@! TO.P,C10,1*
G04 #@! TO.N,+3V3*
X146842000Y-111760000D03*
D14*
G04 #@! TO.N,GND*
G04 #@! TO.C,C10*
G36*
X148984642Y-111061174D02*
X149008303Y-111064684D01*
X149031507Y-111070496D01*
X149054029Y-111078554D01*
X149075653Y-111088782D01*
X149096170Y-111101079D01*
X149115383Y-111115329D01*
X149133107Y-111131393D01*
X149149171Y-111149117D01*
X149163421Y-111168330D01*
X149175718Y-111188847D01*
X149185946Y-111210471D01*
X149194004Y-111232993D01*
X149199816Y-111256197D01*
X149203326Y-111279858D01*
X149204500Y-111303750D01*
X149204500Y-112216250D01*
X149203326Y-112240142D01*
X149199816Y-112263803D01*
X149194004Y-112287007D01*
X149185946Y-112309529D01*
X149175718Y-112331153D01*
X149163421Y-112351670D01*
X149149171Y-112370883D01*
X149133107Y-112388607D01*
X149115383Y-112404671D01*
X149096170Y-112418921D01*
X149075653Y-112431218D01*
X149054029Y-112441446D01*
X149031507Y-112449504D01*
X149008303Y-112455316D01*
X148984642Y-112458826D01*
X148960750Y-112460000D01*
X148473250Y-112460000D01*
X148449358Y-112458826D01*
X148425697Y-112455316D01*
X148402493Y-112449504D01*
X148379971Y-112441446D01*
X148358347Y-112431218D01*
X148337830Y-112418921D01*
X148318617Y-112404671D01*
X148300893Y-112388607D01*
X148284829Y-112370883D01*
X148270579Y-112351670D01*
X148258282Y-112331153D01*
X148248054Y-112309529D01*
X148239996Y-112287007D01*
X148234184Y-112263803D01*
X148230674Y-112240142D01*
X148229500Y-112216250D01*
X148229500Y-111303750D01*
X148230674Y-111279858D01*
X148234184Y-111256197D01*
X148239996Y-111232993D01*
X148248054Y-111210471D01*
X148258282Y-111188847D01*
X148270579Y-111168330D01*
X148284829Y-111149117D01*
X148300893Y-111131393D01*
X148318617Y-111115329D01*
X148337830Y-111101079D01*
X148358347Y-111088782D01*
X148379971Y-111078554D01*
X148402493Y-111070496D01*
X148425697Y-111064684D01*
X148449358Y-111061174D01*
X148473250Y-111060000D01*
X148960750Y-111060000D01*
X148984642Y-111061174D01*
X148984642Y-111061174D01*
G37*
D15*
G04 #@! TD*
G04 #@! TO.P,C10,2*
G04 #@! TO.N,GND*
X148717000Y-111760000D03*
D14*
G04 #@! TO.N,GND*
G04 #@! TO.C,C11*
G36*
X143953142Y-111061174D02*
X143976803Y-111064684D01*
X144000007Y-111070496D01*
X144022529Y-111078554D01*
X144044153Y-111088782D01*
X144064670Y-111101079D01*
X144083883Y-111115329D01*
X144101607Y-111131393D01*
X144117671Y-111149117D01*
X144131921Y-111168330D01*
X144144218Y-111188847D01*
X144154446Y-111210471D01*
X144162504Y-111232993D01*
X144168316Y-111256197D01*
X144171826Y-111279858D01*
X144173000Y-111303750D01*
X144173000Y-112216250D01*
X144171826Y-112240142D01*
X144168316Y-112263803D01*
X144162504Y-112287007D01*
X144154446Y-112309529D01*
X144144218Y-112331153D01*
X144131921Y-112351670D01*
X144117671Y-112370883D01*
X144101607Y-112388607D01*
X144083883Y-112404671D01*
X144064670Y-112418921D01*
X144044153Y-112431218D01*
X144022529Y-112441446D01*
X144000007Y-112449504D01*
X143976803Y-112455316D01*
X143953142Y-112458826D01*
X143929250Y-112460000D01*
X143441750Y-112460000D01*
X143417858Y-112458826D01*
X143394197Y-112455316D01*
X143370993Y-112449504D01*
X143348471Y-112441446D01*
X143326847Y-112431218D01*
X143306330Y-112418921D01*
X143287117Y-112404671D01*
X143269393Y-112388607D01*
X143253329Y-112370883D01*
X143239079Y-112351670D01*
X143226782Y-112331153D01*
X143216554Y-112309529D01*
X143208496Y-112287007D01*
X143202684Y-112263803D01*
X143199174Y-112240142D01*
X143198000Y-112216250D01*
X143198000Y-111303750D01*
X143199174Y-111279858D01*
X143202684Y-111256197D01*
X143208496Y-111232993D01*
X143216554Y-111210471D01*
X143226782Y-111188847D01*
X143239079Y-111168330D01*
X143253329Y-111149117D01*
X143269393Y-111131393D01*
X143287117Y-111115329D01*
X143306330Y-111101079D01*
X143326847Y-111088782D01*
X143348471Y-111078554D01*
X143370993Y-111070496D01*
X143394197Y-111064684D01*
X143417858Y-111061174D01*
X143441750Y-111060000D01*
X143929250Y-111060000D01*
X143953142Y-111061174D01*
X143953142Y-111061174D01*
G37*
D15*
G04 #@! TD*
G04 #@! TO.P,C11,2*
G04 #@! TO.N,GND*
X143685500Y-111760000D03*
D14*
G04 #@! TO.N,+3V3*
G04 #@! TO.C,C11*
G36*
X142078142Y-111061174D02*
X142101803Y-111064684D01*
X142125007Y-111070496D01*
X142147529Y-111078554D01*
X142169153Y-111088782D01*
X142189670Y-111101079D01*
X142208883Y-111115329D01*
X142226607Y-111131393D01*
X142242671Y-111149117D01*
X142256921Y-111168330D01*
X142269218Y-111188847D01*
X142279446Y-111210471D01*
X142287504Y-111232993D01*
X142293316Y-111256197D01*
X142296826Y-111279858D01*
X142298000Y-111303750D01*
X142298000Y-112216250D01*
X142296826Y-112240142D01*
X142293316Y-112263803D01*
X142287504Y-112287007D01*
X142279446Y-112309529D01*
X142269218Y-112331153D01*
X142256921Y-112351670D01*
X142242671Y-112370883D01*
X142226607Y-112388607D01*
X142208883Y-112404671D01*
X142189670Y-112418921D01*
X142169153Y-112431218D01*
X142147529Y-112441446D01*
X142125007Y-112449504D01*
X142101803Y-112455316D01*
X142078142Y-112458826D01*
X142054250Y-112460000D01*
X141566750Y-112460000D01*
X141542858Y-112458826D01*
X141519197Y-112455316D01*
X141495993Y-112449504D01*
X141473471Y-112441446D01*
X141451847Y-112431218D01*
X141431330Y-112418921D01*
X141412117Y-112404671D01*
X141394393Y-112388607D01*
X141378329Y-112370883D01*
X141364079Y-112351670D01*
X141351782Y-112331153D01*
X141341554Y-112309529D01*
X141333496Y-112287007D01*
X141327684Y-112263803D01*
X141324174Y-112240142D01*
X141323000Y-112216250D01*
X141323000Y-111303750D01*
X141324174Y-111279858D01*
X141327684Y-111256197D01*
X141333496Y-111232993D01*
X141341554Y-111210471D01*
X141351782Y-111188847D01*
X141364079Y-111168330D01*
X141378329Y-111149117D01*
X141394393Y-111131393D01*
X141412117Y-111115329D01*
X141431330Y-111101079D01*
X141451847Y-111088782D01*
X141473471Y-111078554D01*
X141495993Y-111070496D01*
X141519197Y-111064684D01*
X141542858Y-111061174D01*
X141566750Y-111060000D01*
X142054250Y-111060000D01*
X142078142Y-111061174D01*
X142078142Y-111061174D01*
G37*
D15*
G04 #@! TD*
G04 #@! TO.P,C11,1*
G04 #@! TO.N,+3V3*
X141810500Y-111760000D03*
D14*
G04 #@! TO.N,+3V3*
G04 #@! TO.C,C12*
G36*
X136919642Y-111061174D02*
X136943303Y-111064684D01*
X136966507Y-111070496D01*
X136989029Y-111078554D01*
X137010653Y-111088782D01*
X137031170Y-111101079D01*
X137050383Y-111115329D01*
X137068107Y-111131393D01*
X137084171Y-111149117D01*
X137098421Y-111168330D01*
X137110718Y-111188847D01*
X137120946Y-111210471D01*
X137129004Y-111232993D01*
X137134816Y-111256197D01*
X137138326Y-111279858D01*
X137139500Y-111303750D01*
X137139500Y-112216250D01*
X137138326Y-112240142D01*
X137134816Y-112263803D01*
X137129004Y-112287007D01*
X137120946Y-112309529D01*
X137110718Y-112331153D01*
X137098421Y-112351670D01*
X137084171Y-112370883D01*
X137068107Y-112388607D01*
X137050383Y-112404671D01*
X137031170Y-112418921D01*
X137010653Y-112431218D01*
X136989029Y-112441446D01*
X136966507Y-112449504D01*
X136943303Y-112455316D01*
X136919642Y-112458826D01*
X136895750Y-112460000D01*
X136408250Y-112460000D01*
X136384358Y-112458826D01*
X136360697Y-112455316D01*
X136337493Y-112449504D01*
X136314971Y-112441446D01*
X136293347Y-112431218D01*
X136272830Y-112418921D01*
X136253617Y-112404671D01*
X136235893Y-112388607D01*
X136219829Y-112370883D01*
X136205579Y-112351670D01*
X136193282Y-112331153D01*
X136183054Y-112309529D01*
X136174996Y-112287007D01*
X136169184Y-112263803D01*
X136165674Y-112240142D01*
X136164500Y-112216250D01*
X136164500Y-111303750D01*
X136165674Y-111279858D01*
X136169184Y-111256197D01*
X136174996Y-111232993D01*
X136183054Y-111210471D01*
X136193282Y-111188847D01*
X136205579Y-111168330D01*
X136219829Y-111149117D01*
X136235893Y-111131393D01*
X136253617Y-111115329D01*
X136272830Y-111101079D01*
X136293347Y-111088782D01*
X136314971Y-111078554D01*
X136337493Y-111070496D01*
X136360697Y-111064684D01*
X136384358Y-111061174D01*
X136408250Y-111060000D01*
X136895750Y-111060000D01*
X136919642Y-111061174D01*
X136919642Y-111061174D01*
G37*
D15*
G04 #@! TD*
G04 #@! TO.P,C12,1*
G04 #@! TO.N,+3V3*
X136652000Y-111760000D03*
D14*
G04 #@! TO.N,GND*
G04 #@! TO.C,C12*
G36*
X138794642Y-111061174D02*
X138818303Y-111064684D01*
X138841507Y-111070496D01*
X138864029Y-111078554D01*
X138885653Y-111088782D01*
X138906170Y-111101079D01*
X138925383Y-111115329D01*
X138943107Y-111131393D01*
X138959171Y-111149117D01*
X138973421Y-111168330D01*
X138985718Y-111188847D01*
X138995946Y-111210471D01*
X139004004Y-111232993D01*
X139009816Y-111256197D01*
X139013326Y-111279858D01*
X139014500Y-111303750D01*
X139014500Y-112216250D01*
X139013326Y-112240142D01*
X139009816Y-112263803D01*
X139004004Y-112287007D01*
X138995946Y-112309529D01*
X138985718Y-112331153D01*
X138973421Y-112351670D01*
X138959171Y-112370883D01*
X138943107Y-112388607D01*
X138925383Y-112404671D01*
X138906170Y-112418921D01*
X138885653Y-112431218D01*
X138864029Y-112441446D01*
X138841507Y-112449504D01*
X138818303Y-112455316D01*
X138794642Y-112458826D01*
X138770750Y-112460000D01*
X138283250Y-112460000D01*
X138259358Y-112458826D01*
X138235697Y-112455316D01*
X138212493Y-112449504D01*
X138189971Y-112441446D01*
X138168347Y-112431218D01*
X138147830Y-112418921D01*
X138128617Y-112404671D01*
X138110893Y-112388607D01*
X138094829Y-112370883D01*
X138080579Y-112351670D01*
X138068282Y-112331153D01*
X138058054Y-112309529D01*
X138049996Y-112287007D01*
X138044184Y-112263803D01*
X138040674Y-112240142D01*
X138039500Y-112216250D01*
X138039500Y-111303750D01*
X138040674Y-111279858D01*
X138044184Y-111256197D01*
X138049996Y-111232993D01*
X138058054Y-111210471D01*
X138068282Y-111188847D01*
X138080579Y-111168330D01*
X138094829Y-111149117D01*
X138110893Y-111131393D01*
X138128617Y-111115329D01*
X138147830Y-111101079D01*
X138168347Y-111088782D01*
X138189971Y-111078554D01*
X138212493Y-111070496D01*
X138235697Y-111064684D01*
X138259358Y-111061174D01*
X138283250Y-111060000D01*
X138770750Y-111060000D01*
X138794642Y-111061174D01*
X138794642Y-111061174D01*
G37*
D15*
G04 #@! TD*
G04 #@! TO.P,C12,2*
G04 #@! TO.N,GND*
X138527000Y-111760000D03*
D14*
G04 #@! TO.N,+3V3*
G04 #@! TO.C,C23*
G36*
X132269142Y-129793674D02*
X132292803Y-129797184D01*
X132316007Y-129802996D01*
X132338529Y-129811054D01*
X132360153Y-129821282D01*
X132380670Y-129833579D01*
X132399883Y-129847829D01*
X132417607Y-129863893D01*
X132433671Y-129881617D01*
X132447921Y-129900830D01*
X132460218Y-129921347D01*
X132470446Y-129942971D01*
X132478504Y-129965493D01*
X132484316Y-129988697D01*
X132487826Y-130012358D01*
X132489000Y-130036250D01*
X132489000Y-130948750D01*
X132487826Y-130972642D01*
X132484316Y-130996303D01*
X132478504Y-131019507D01*
X132470446Y-131042029D01*
X132460218Y-131063653D01*
X132447921Y-131084170D01*
X132433671Y-131103383D01*
X132417607Y-131121107D01*
X132399883Y-131137171D01*
X132380670Y-131151421D01*
X132360153Y-131163718D01*
X132338529Y-131173946D01*
X132316007Y-131182004D01*
X132292803Y-131187816D01*
X132269142Y-131191326D01*
X132245250Y-131192500D01*
X131757750Y-131192500D01*
X131733858Y-131191326D01*
X131710197Y-131187816D01*
X131686993Y-131182004D01*
X131664471Y-131173946D01*
X131642847Y-131163718D01*
X131622330Y-131151421D01*
X131603117Y-131137171D01*
X131585393Y-131121107D01*
X131569329Y-131103383D01*
X131555079Y-131084170D01*
X131542782Y-131063653D01*
X131532554Y-131042029D01*
X131524496Y-131019507D01*
X131518684Y-130996303D01*
X131515174Y-130972642D01*
X131514000Y-130948750D01*
X131514000Y-130036250D01*
X131515174Y-130012358D01*
X131518684Y-129988697D01*
X131524496Y-129965493D01*
X131532554Y-129942971D01*
X131542782Y-129921347D01*
X131555079Y-129900830D01*
X131569329Y-129881617D01*
X131585393Y-129863893D01*
X131603117Y-129847829D01*
X131622330Y-129833579D01*
X131642847Y-129821282D01*
X131664471Y-129811054D01*
X131686993Y-129802996D01*
X131710197Y-129797184D01*
X131733858Y-129793674D01*
X131757750Y-129792500D01*
X132245250Y-129792500D01*
X132269142Y-129793674D01*
X132269142Y-129793674D01*
G37*
D15*
G04 #@! TD*
G04 #@! TO.P,C23,1*
G04 #@! TO.N,+3V3*
X132001500Y-130492500D03*
D14*
G04 #@! TO.N,GND*
G04 #@! TO.C,C23*
G36*
X130394142Y-129793674D02*
X130417803Y-129797184D01*
X130441007Y-129802996D01*
X130463529Y-129811054D01*
X130485153Y-129821282D01*
X130505670Y-129833579D01*
X130524883Y-129847829D01*
X130542607Y-129863893D01*
X130558671Y-129881617D01*
X130572921Y-129900830D01*
X130585218Y-129921347D01*
X130595446Y-129942971D01*
X130603504Y-129965493D01*
X130609316Y-129988697D01*
X130612826Y-130012358D01*
X130614000Y-130036250D01*
X130614000Y-130948750D01*
X130612826Y-130972642D01*
X130609316Y-130996303D01*
X130603504Y-131019507D01*
X130595446Y-131042029D01*
X130585218Y-131063653D01*
X130572921Y-131084170D01*
X130558671Y-131103383D01*
X130542607Y-131121107D01*
X130524883Y-131137171D01*
X130505670Y-131151421D01*
X130485153Y-131163718D01*
X130463529Y-131173946D01*
X130441007Y-131182004D01*
X130417803Y-131187816D01*
X130394142Y-131191326D01*
X130370250Y-131192500D01*
X129882750Y-131192500D01*
X129858858Y-131191326D01*
X129835197Y-131187816D01*
X129811993Y-131182004D01*
X129789471Y-131173946D01*
X129767847Y-131163718D01*
X129747330Y-131151421D01*
X129728117Y-131137171D01*
X129710393Y-131121107D01*
X129694329Y-131103383D01*
X129680079Y-131084170D01*
X129667782Y-131063653D01*
X129657554Y-131042029D01*
X129649496Y-131019507D01*
X129643684Y-130996303D01*
X129640174Y-130972642D01*
X129639000Y-130948750D01*
X129639000Y-130036250D01*
X129640174Y-130012358D01*
X129643684Y-129988697D01*
X129649496Y-129965493D01*
X129657554Y-129942971D01*
X129667782Y-129921347D01*
X129680079Y-129900830D01*
X129694329Y-129881617D01*
X129710393Y-129863893D01*
X129728117Y-129847829D01*
X129747330Y-129833579D01*
X129767847Y-129821282D01*
X129789471Y-129811054D01*
X129811993Y-129802996D01*
X129835197Y-129797184D01*
X129858858Y-129793674D01*
X129882750Y-129792500D01*
X130370250Y-129792500D01*
X130394142Y-129793674D01*
X130394142Y-129793674D01*
G37*
D15*
G04 #@! TD*
G04 #@! TO.P,C23,2*
G04 #@! TO.N,GND*
X130126500Y-130492500D03*
D14*
G04 #@! TO.N,GND*
G04 #@! TO.C,C24*
G36*
X158976142Y-122957674D02*
X158999803Y-122961184D01*
X159023007Y-122966996D01*
X159045529Y-122975054D01*
X159067153Y-122985282D01*
X159087670Y-122997579D01*
X159106883Y-123011829D01*
X159124607Y-123027893D01*
X159140671Y-123045617D01*
X159154921Y-123064830D01*
X159167218Y-123085347D01*
X159177446Y-123106971D01*
X159185504Y-123129493D01*
X159191316Y-123152697D01*
X159194826Y-123176358D01*
X159196000Y-123200250D01*
X159196000Y-123687750D01*
X159194826Y-123711642D01*
X159191316Y-123735303D01*
X159185504Y-123758507D01*
X159177446Y-123781029D01*
X159167218Y-123802653D01*
X159154921Y-123823170D01*
X159140671Y-123842383D01*
X159124607Y-123860107D01*
X159106883Y-123876171D01*
X159087670Y-123890421D01*
X159067153Y-123902718D01*
X159045529Y-123912946D01*
X159023007Y-123921004D01*
X158999803Y-123926816D01*
X158976142Y-123930326D01*
X158952250Y-123931500D01*
X158039750Y-123931500D01*
X158015858Y-123930326D01*
X157992197Y-123926816D01*
X157968993Y-123921004D01*
X157946471Y-123912946D01*
X157924847Y-123902718D01*
X157904330Y-123890421D01*
X157885117Y-123876171D01*
X157867393Y-123860107D01*
X157851329Y-123842383D01*
X157837079Y-123823170D01*
X157824782Y-123802653D01*
X157814554Y-123781029D01*
X157806496Y-123758507D01*
X157800684Y-123735303D01*
X157797174Y-123711642D01*
X157796000Y-123687750D01*
X157796000Y-123200250D01*
X157797174Y-123176358D01*
X157800684Y-123152697D01*
X157806496Y-123129493D01*
X157814554Y-123106971D01*
X157824782Y-123085347D01*
X157837079Y-123064830D01*
X157851329Y-123045617D01*
X157867393Y-123027893D01*
X157885117Y-123011829D01*
X157904330Y-122997579D01*
X157924847Y-122985282D01*
X157946471Y-122975054D01*
X157968993Y-122966996D01*
X157992197Y-122961184D01*
X158015858Y-122957674D01*
X158039750Y-122956500D01*
X158952250Y-122956500D01*
X158976142Y-122957674D01*
X158976142Y-122957674D01*
G37*
D15*
G04 #@! TD*
G04 #@! TO.P,C24,2*
G04 #@! TO.N,GND*
X158496000Y-123444000D03*
D14*
G04 #@! TO.N,+3V3*
G04 #@! TO.C,C24*
G36*
X158976142Y-121082674D02*
X158999803Y-121086184D01*
X159023007Y-121091996D01*
X159045529Y-121100054D01*
X159067153Y-121110282D01*
X159087670Y-121122579D01*
X159106883Y-121136829D01*
X159124607Y-121152893D01*
X159140671Y-121170617D01*
X159154921Y-121189830D01*
X159167218Y-121210347D01*
X159177446Y-121231971D01*
X159185504Y-121254493D01*
X159191316Y-121277697D01*
X159194826Y-121301358D01*
X159196000Y-121325250D01*
X159196000Y-121812750D01*
X159194826Y-121836642D01*
X159191316Y-121860303D01*
X159185504Y-121883507D01*
X159177446Y-121906029D01*
X159167218Y-121927653D01*
X159154921Y-121948170D01*
X159140671Y-121967383D01*
X159124607Y-121985107D01*
X159106883Y-122001171D01*
X159087670Y-122015421D01*
X159067153Y-122027718D01*
X159045529Y-122037946D01*
X159023007Y-122046004D01*
X158999803Y-122051816D01*
X158976142Y-122055326D01*
X158952250Y-122056500D01*
X158039750Y-122056500D01*
X158015858Y-122055326D01*
X157992197Y-122051816D01*
X157968993Y-122046004D01*
X157946471Y-122037946D01*
X157924847Y-122027718D01*
X157904330Y-122015421D01*
X157885117Y-122001171D01*
X157867393Y-121985107D01*
X157851329Y-121967383D01*
X157837079Y-121948170D01*
X157824782Y-121927653D01*
X157814554Y-121906029D01*
X157806496Y-121883507D01*
X157800684Y-121860303D01*
X157797174Y-121836642D01*
X157796000Y-121812750D01*
X157796000Y-121325250D01*
X157797174Y-121301358D01*
X157800684Y-121277697D01*
X157806496Y-121254493D01*
X157814554Y-121231971D01*
X157824782Y-121210347D01*
X157837079Y-121189830D01*
X157851329Y-121170617D01*
X157867393Y-121152893D01*
X157885117Y-121136829D01*
X157904330Y-121122579D01*
X157924847Y-121110282D01*
X157946471Y-121100054D01*
X157968993Y-121091996D01*
X157992197Y-121086184D01*
X158015858Y-121082674D01*
X158039750Y-121081500D01*
X158952250Y-121081500D01*
X158976142Y-121082674D01*
X158976142Y-121082674D01*
G37*
D15*
G04 #@! TD*
G04 #@! TO.P,C24,1*
G04 #@! TO.N,+3V3*
X158496000Y-121569000D03*
D14*
G04 #@! TO.N,GND*
G04 #@! TO.C,C25*
G36*
X149324142Y-146404174D02*
X149347803Y-146407684D01*
X149371007Y-146413496D01*
X149393529Y-146421554D01*
X149415153Y-146431782D01*
X149435670Y-146444079D01*
X149454883Y-146458329D01*
X149472607Y-146474393D01*
X149488671Y-146492117D01*
X149502921Y-146511330D01*
X149515218Y-146531847D01*
X149525446Y-146553471D01*
X149533504Y-146575993D01*
X149539316Y-146599197D01*
X149542826Y-146622858D01*
X149544000Y-146646750D01*
X149544000Y-147134250D01*
X149542826Y-147158142D01*
X149539316Y-147181803D01*
X149533504Y-147205007D01*
X149525446Y-147227529D01*
X149515218Y-147249153D01*
X149502921Y-147269670D01*
X149488671Y-147288883D01*
X149472607Y-147306607D01*
X149454883Y-147322671D01*
X149435670Y-147336921D01*
X149415153Y-147349218D01*
X149393529Y-147359446D01*
X149371007Y-147367504D01*
X149347803Y-147373316D01*
X149324142Y-147376826D01*
X149300250Y-147378000D01*
X148387750Y-147378000D01*
X148363858Y-147376826D01*
X148340197Y-147373316D01*
X148316993Y-147367504D01*
X148294471Y-147359446D01*
X148272847Y-147349218D01*
X148252330Y-147336921D01*
X148233117Y-147322671D01*
X148215393Y-147306607D01*
X148199329Y-147288883D01*
X148185079Y-147269670D01*
X148172782Y-147249153D01*
X148162554Y-147227529D01*
X148154496Y-147205007D01*
X148148684Y-147181803D01*
X148145174Y-147158142D01*
X148144000Y-147134250D01*
X148144000Y-146646750D01*
X148145174Y-146622858D01*
X148148684Y-146599197D01*
X148154496Y-146575993D01*
X148162554Y-146553471D01*
X148172782Y-146531847D01*
X148185079Y-146511330D01*
X148199329Y-146492117D01*
X148215393Y-146474393D01*
X148233117Y-146458329D01*
X148252330Y-146444079D01*
X148272847Y-146431782D01*
X148294471Y-146421554D01*
X148316993Y-146413496D01*
X148340197Y-146407684D01*
X148363858Y-146404174D01*
X148387750Y-146403000D01*
X149300250Y-146403000D01*
X149324142Y-146404174D01*
X149324142Y-146404174D01*
G37*
D15*
G04 #@! TD*
G04 #@! TO.P,C25,2*
G04 #@! TO.N,GND*
X148844000Y-146890500D03*
D14*
G04 #@! TO.N,+3V3*
G04 #@! TO.C,C25*
G36*
X149324142Y-148279174D02*
X149347803Y-148282684D01*
X149371007Y-148288496D01*
X149393529Y-148296554D01*
X149415153Y-148306782D01*
X149435670Y-148319079D01*
X149454883Y-148333329D01*
X149472607Y-148349393D01*
X149488671Y-148367117D01*
X149502921Y-148386330D01*
X149515218Y-148406847D01*
X149525446Y-148428471D01*
X149533504Y-148450993D01*
X149539316Y-148474197D01*
X149542826Y-148497858D01*
X149544000Y-148521750D01*
X149544000Y-149009250D01*
X149542826Y-149033142D01*
X149539316Y-149056803D01*
X149533504Y-149080007D01*
X149525446Y-149102529D01*
X149515218Y-149124153D01*
X149502921Y-149144670D01*
X149488671Y-149163883D01*
X149472607Y-149181607D01*
X149454883Y-149197671D01*
X149435670Y-149211921D01*
X149415153Y-149224218D01*
X149393529Y-149234446D01*
X149371007Y-149242504D01*
X149347803Y-149248316D01*
X149324142Y-149251826D01*
X149300250Y-149253000D01*
X148387750Y-149253000D01*
X148363858Y-149251826D01*
X148340197Y-149248316D01*
X148316993Y-149242504D01*
X148294471Y-149234446D01*
X148272847Y-149224218D01*
X148252330Y-149211921D01*
X148233117Y-149197671D01*
X148215393Y-149181607D01*
X148199329Y-149163883D01*
X148185079Y-149144670D01*
X148172782Y-149124153D01*
X148162554Y-149102529D01*
X148154496Y-149080007D01*
X148148684Y-149056803D01*
X148145174Y-149033142D01*
X148144000Y-149009250D01*
X148144000Y-148521750D01*
X148145174Y-148497858D01*
X148148684Y-148474197D01*
X148154496Y-148450993D01*
X148162554Y-148428471D01*
X148172782Y-148406847D01*
X148185079Y-148386330D01*
X148199329Y-148367117D01*
X148215393Y-148349393D01*
X148233117Y-148333329D01*
X148252330Y-148319079D01*
X148272847Y-148306782D01*
X148294471Y-148296554D01*
X148316993Y-148288496D01*
X148340197Y-148282684D01*
X148363858Y-148279174D01*
X148387750Y-148278000D01*
X149300250Y-148278000D01*
X149324142Y-148279174D01*
X149324142Y-148279174D01*
G37*
D15*
G04 #@! TD*
G04 #@! TO.P,C25,1*
G04 #@! TO.N,+3V3*
X148844000Y-148765500D03*
D14*
G04 #@! TO.N,GND*
G04 #@! TO.C,C26*
G36*
X143228142Y-148327674D02*
X143251803Y-148331184D01*
X143275007Y-148336996D01*
X143297529Y-148345054D01*
X143319153Y-148355282D01*
X143339670Y-148367579D01*
X143358883Y-148381829D01*
X143376607Y-148397893D01*
X143392671Y-148415617D01*
X143406921Y-148434830D01*
X143419218Y-148455347D01*
X143429446Y-148476971D01*
X143437504Y-148499493D01*
X143443316Y-148522697D01*
X143446826Y-148546358D01*
X143448000Y-148570250D01*
X143448000Y-149057750D01*
X143446826Y-149081642D01*
X143443316Y-149105303D01*
X143437504Y-149128507D01*
X143429446Y-149151029D01*
X143419218Y-149172653D01*
X143406921Y-149193170D01*
X143392671Y-149212383D01*
X143376607Y-149230107D01*
X143358883Y-149246171D01*
X143339670Y-149260421D01*
X143319153Y-149272718D01*
X143297529Y-149282946D01*
X143275007Y-149291004D01*
X143251803Y-149296816D01*
X143228142Y-149300326D01*
X143204250Y-149301500D01*
X142291750Y-149301500D01*
X142267858Y-149300326D01*
X142244197Y-149296816D01*
X142220993Y-149291004D01*
X142198471Y-149282946D01*
X142176847Y-149272718D01*
X142156330Y-149260421D01*
X142137117Y-149246171D01*
X142119393Y-149230107D01*
X142103329Y-149212383D01*
X142089079Y-149193170D01*
X142076782Y-149172653D01*
X142066554Y-149151029D01*
X142058496Y-149128507D01*
X142052684Y-149105303D01*
X142049174Y-149081642D01*
X142048000Y-149057750D01*
X142048000Y-148570250D01*
X142049174Y-148546358D01*
X142052684Y-148522697D01*
X142058496Y-148499493D01*
X142066554Y-148476971D01*
X142076782Y-148455347D01*
X142089079Y-148434830D01*
X142103329Y-148415617D01*
X142119393Y-148397893D01*
X142137117Y-148381829D01*
X142156330Y-148367579D01*
X142176847Y-148355282D01*
X142198471Y-148345054D01*
X142220993Y-148336996D01*
X142244197Y-148331184D01*
X142267858Y-148327674D01*
X142291750Y-148326500D01*
X143204250Y-148326500D01*
X143228142Y-148327674D01*
X143228142Y-148327674D01*
G37*
D15*
G04 #@! TD*
G04 #@! TO.P,C26,2*
G04 #@! TO.N,GND*
X142748000Y-148814000D03*
D14*
G04 #@! TO.N,/IOVCC_SII*
G04 #@! TO.C,C26*
G36*
X143228142Y-146452674D02*
X143251803Y-146456184D01*
X143275007Y-146461996D01*
X143297529Y-146470054D01*
X143319153Y-146480282D01*
X143339670Y-146492579D01*
X143358883Y-146506829D01*
X143376607Y-146522893D01*
X143392671Y-146540617D01*
X143406921Y-146559830D01*
X143419218Y-146580347D01*
X143429446Y-146601971D01*
X143437504Y-146624493D01*
X143443316Y-146647697D01*
X143446826Y-146671358D01*
X143448000Y-146695250D01*
X143448000Y-147182750D01*
X143446826Y-147206642D01*
X143443316Y-147230303D01*
X143437504Y-147253507D01*
X143429446Y-147276029D01*
X143419218Y-147297653D01*
X143406921Y-147318170D01*
X143392671Y-147337383D01*
X143376607Y-147355107D01*
X143358883Y-147371171D01*
X143339670Y-147385421D01*
X143319153Y-147397718D01*
X143297529Y-147407946D01*
X143275007Y-147416004D01*
X143251803Y-147421816D01*
X143228142Y-147425326D01*
X143204250Y-147426500D01*
X142291750Y-147426500D01*
X142267858Y-147425326D01*
X142244197Y-147421816D01*
X142220993Y-147416004D01*
X142198471Y-147407946D01*
X142176847Y-147397718D01*
X142156330Y-147385421D01*
X142137117Y-147371171D01*
X142119393Y-147355107D01*
X142103329Y-147337383D01*
X142089079Y-147318170D01*
X142076782Y-147297653D01*
X142066554Y-147276029D01*
X142058496Y-147253507D01*
X142052684Y-147230303D01*
X142049174Y-147206642D01*
X142048000Y-147182750D01*
X142048000Y-146695250D01*
X142049174Y-146671358D01*
X142052684Y-146647697D01*
X142058496Y-146624493D01*
X142066554Y-146601971D01*
X142076782Y-146580347D01*
X142089079Y-146559830D01*
X142103329Y-146540617D01*
X142119393Y-146522893D01*
X142137117Y-146506829D01*
X142156330Y-146492579D01*
X142176847Y-146480282D01*
X142198471Y-146470054D01*
X142220993Y-146461996D01*
X142244197Y-146456184D01*
X142267858Y-146452674D01*
X142291750Y-146451500D01*
X143204250Y-146451500D01*
X143228142Y-146452674D01*
X143228142Y-146452674D01*
G37*
D15*
G04 #@! TD*
G04 #@! TO.P,C26,1*
G04 #@! TO.N,/IOVCC_SII*
X142748000Y-146939000D03*
D14*
G04 #@! TO.N,GND*
G04 #@! TO.C,C31*
G36*
X140053142Y-146454974D02*
X140076803Y-146458484D01*
X140100007Y-146464296D01*
X140122529Y-146472354D01*
X140144153Y-146482582D01*
X140164670Y-146494879D01*
X140183883Y-146509129D01*
X140201607Y-146525193D01*
X140217671Y-146542917D01*
X140231921Y-146562130D01*
X140244218Y-146582647D01*
X140254446Y-146604271D01*
X140262504Y-146626793D01*
X140268316Y-146649997D01*
X140271826Y-146673658D01*
X140273000Y-146697550D01*
X140273000Y-147185050D01*
X140271826Y-147208942D01*
X140268316Y-147232603D01*
X140262504Y-147255807D01*
X140254446Y-147278329D01*
X140244218Y-147299953D01*
X140231921Y-147320470D01*
X140217671Y-147339683D01*
X140201607Y-147357407D01*
X140183883Y-147373471D01*
X140164670Y-147387721D01*
X140144153Y-147400018D01*
X140122529Y-147410246D01*
X140100007Y-147418304D01*
X140076803Y-147424116D01*
X140053142Y-147427626D01*
X140029250Y-147428800D01*
X139116750Y-147428800D01*
X139092858Y-147427626D01*
X139069197Y-147424116D01*
X139045993Y-147418304D01*
X139023471Y-147410246D01*
X139001847Y-147400018D01*
X138981330Y-147387721D01*
X138962117Y-147373471D01*
X138944393Y-147357407D01*
X138928329Y-147339683D01*
X138914079Y-147320470D01*
X138901782Y-147299953D01*
X138891554Y-147278329D01*
X138883496Y-147255807D01*
X138877684Y-147232603D01*
X138874174Y-147208942D01*
X138873000Y-147185050D01*
X138873000Y-146697550D01*
X138874174Y-146673658D01*
X138877684Y-146649997D01*
X138883496Y-146626793D01*
X138891554Y-146604271D01*
X138901782Y-146582647D01*
X138914079Y-146562130D01*
X138928329Y-146542917D01*
X138944393Y-146525193D01*
X138962117Y-146509129D01*
X138981330Y-146494879D01*
X139001847Y-146482582D01*
X139023471Y-146472354D01*
X139045993Y-146464296D01*
X139069197Y-146458484D01*
X139092858Y-146454974D01*
X139116750Y-146453800D01*
X140029250Y-146453800D01*
X140053142Y-146454974D01*
X140053142Y-146454974D01*
G37*
D15*
G04 #@! TD*
G04 #@! TO.P,C31,2*
G04 #@! TO.N,GND*
X139573000Y-146941300D03*
D14*
G04 #@! TO.N,+1V2*
G04 #@! TO.C,C31*
G36*
X140053142Y-148329974D02*
X140076803Y-148333484D01*
X140100007Y-148339296D01*
X140122529Y-148347354D01*
X140144153Y-148357582D01*
X140164670Y-148369879D01*
X140183883Y-148384129D01*
X140201607Y-148400193D01*
X140217671Y-148417917D01*
X140231921Y-148437130D01*
X140244218Y-148457647D01*
X140254446Y-148479271D01*
X140262504Y-148501793D01*
X140268316Y-148524997D01*
X140271826Y-148548658D01*
X140273000Y-148572550D01*
X140273000Y-149060050D01*
X140271826Y-149083942D01*
X140268316Y-149107603D01*
X140262504Y-149130807D01*
X140254446Y-149153329D01*
X140244218Y-149174953D01*
X140231921Y-149195470D01*
X140217671Y-149214683D01*
X140201607Y-149232407D01*
X140183883Y-149248471D01*
X140164670Y-149262721D01*
X140144153Y-149275018D01*
X140122529Y-149285246D01*
X140100007Y-149293304D01*
X140076803Y-149299116D01*
X140053142Y-149302626D01*
X140029250Y-149303800D01*
X139116750Y-149303800D01*
X139092858Y-149302626D01*
X139069197Y-149299116D01*
X139045993Y-149293304D01*
X139023471Y-149285246D01*
X139001847Y-149275018D01*
X138981330Y-149262721D01*
X138962117Y-149248471D01*
X138944393Y-149232407D01*
X138928329Y-149214683D01*
X138914079Y-149195470D01*
X138901782Y-149174953D01*
X138891554Y-149153329D01*
X138883496Y-149130807D01*
X138877684Y-149107603D01*
X138874174Y-149083942D01*
X138873000Y-149060050D01*
X138873000Y-148572550D01*
X138874174Y-148548658D01*
X138877684Y-148524997D01*
X138883496Y-148501793D01*
X138891554Y-148479271D01*
X138901782Y-148457647D01*
X138914079Y-148437130D01*
X138928329Y-148417917D01*
X138944393Y-148400193D01*
X138962117Y-148384129D01*
X138981330Y-148369879D01*
X139001847Y-148357582D01*
X139023471Y-148347354D01*
X139045993Y-148339296D01*
X139069197Y-148333484D01*
X139092858Y-148329974D01*
X139116750Y-148328800D01*
X140029250Y-148328800D01*
X140053142Y-148329974D01*
X140053142Y-148329974D01*
G37*
D15*
G04 #@! TD*
G04 #@! TO.P,C31,1*
G04 #@! TO.N,+1V2*
X139573000Y-148816300D03*
D14*
G04 #@! TO.N,/AVCC_SII*
G04 #@! TO.C,C32*
G36*
X134338142Y-146431874D02*
X134361803Y-146435384D01*
X134385007Y-146441196D01*
X134407529Y-146449254D01*
X134429153Y-146459482D01*
X134449670Y-146471779D01*
X134468883Y-146486029D01*
X134486607Y-146502093D01*
X134502671Y-146519817D01*
X134516921Y-146539030D01*
X134529218Y-146559547D01*
X134539446Y-146581171D01*
X134547504Y-146603693D01*
X134553316Y-146626897D01*
X134556826Y-146650558D01*
X134558000Y-146674450D01*
X134558000Y-147161950D01*
X134556826Y-147185842D01*
X134553316Y-147209503D01*
X134547504Y-147232707D01*
X134539446Y-147255229D01*
X134529218Y-147276853D01*
X134516921Y-147297370D01*
X134502671Y-147316583D01*
X134486607Y-147334307D01*
X134468883Y-147350371D01*
X134449670Y-147364621D01*
X134429153Y-147376918D01*
X134407529Y-147387146D01*
X134385007Y-147395204D01*
X134361803Y-147401016D01*
X134338142Y-147404526D01*
X134314250Y-147405700D01*
X133401750Y-147405700D01*
X133377858Y-147404526D01*
X133354197Y-147401016D01*
X133330993Y-147395204D01*
X133308471Y-147387146D01*
X133286847Y-147376918D01*
X133266330Y-147364621D01*
X133247117Y-147350371D01*
X133229393Y-147334307D01*
X133213329Y-147316583D01*
X133199079Y-147297370D01*
X133186782Y-147276853D01*
X133176554Y-147255229D01*
X133168496Y-147232707D01*
X133162684Y-147209503D01*
X133159174Y-147185842D01*
X133158000Y-147161950D01*
X133158000Y-146674450D01*
X133159174Y-146650558D01*
X133162684Y-146626897D01*
X133168496Y-146603693D01*
X133176554Y-146581171D01*
X133186782Y-146559547D01*
X133199079Y-146539030D01*
X133213329Y-146519817D01*
X133229393Y-146502093D01*
X133247117Y-146486029D01*
X133266330Y-146471779D01*
X133286847Y-146459482D01*
X133308471Y-146449254D01*
X133330993Y-146441196D01*
X133354197Y-146435384D01*
X133377858Y-146431874D01*
X133401750Y-146430700D01*
X134314250Y-146430700D01*
X134338142Y-146431874D01*
X134338142Y-146431874D01*
G37*
D15*
G04 #@! TD*
G04 #@! TO.P,C32,1*
G04 #@! TO.N,/AVCC_SII*
X133858000Y-146918200D03*
D14*
G04 #@! TO.N,GND*
G04 #@! TO.C,C32*
G36*
X134338142Y-148306874D02*
X134361803Y-148310384D01*
X134385007Y-148316196D01*
X134407529Y-148324254D01*
X134429153Y-148334482D01*
X134449670Y-148346779D01*
X134468883Y-148361029D01*
X134486607Y-148377093D01*
X134502671Y-148394817D01*
X134516921Y-148414030D01*
X134529218Y-148434547D01*
X134539446Y-148456171D01*
X134547504Y-148478693D01*
X134553316Y-148501897D01*
X134556826Y-148525558D01*
X134558000Y-148549450D01*
X134558000Y-149036950D01*
X134556826Y-149060842D01*
X134553316Y-149084503D01*
X134547504Y-149107707D01*
X134539446Y-149130229D01*
X134529218Y-149151853D01*
X134516921Y-149172370D01*
X134502671Y-149191583D01*
X134486607Y-149209307D01*
X134468883Y-149225371D01*
X134449670Y-149239621D01*
X134429153Y-149251918D01*
X134407529Y-149262146D01*
X134385007Y-149270204D01*
X134361803Y-149276016D01*
X134338142Y-149279526D01*
X134314250Y-149280700D01*
X133401750Y-149280700D01*
X133377858Y-149279526D01*
X133354197Y-149276016D01*
X133330993Y-149270204D01*
X133308471Y-149262146D01*
X133286847Y-149251918D01*
X133266330Y-149239621D01*
X133247117Y-149225371D01*
X133229393Y-149209307D01*
X133213329Y-149191583D01*
X133199079Y-149172370D01*
X133186782Y-149151853D01*
X133176554Y-149130229D01*
X133168496Y-149107707D01*
X133162684Y-149084503D01*
X133159174Y-149060842D01*
X133158000Y-149036950D01*
X133158000Y-148549450D01*
X133159174Y-148525558D01*
X133162684Y-148501897D01*
X133168496Y-148478693D01*
X133176554Y-148456171D01*
X133186782Y-148434547D01*
X133199079Y-148414030D01*
X133213329Y-148394817D01*
X133229393Y-148377093D01*
X133247117Y-148361029D01*
X133266330Y-148346779D01*
X133286847Y-148334482D01*
X133308471Y-148324254D01*
X133330993Y-148316196D01*
X133354197Y-148310384D01*
X133377858Y-148306874D01*
X133401750Y-148305700D01*
X134314250Y-148305700D01*
X134338142Y-148306874D01*
X134338142Y-148306874D01*
G37*
D15*
G04 #@! TD*
G04 #@! TO.P,C32,2*
G04 #@! TO.N,GND*
X133858000Y-148793200D03*
D14*
G04 #@! TO.N,GND*
G04 #@! TO.C,C35*
G36*
X131488642Y-150367674D02*
X131512303Y-150371184D01*
X131535507Y-150376996D01*
X131558029Y-150385054D01*
X131579653Y-150395282D01*
X131600170Y-150407579D01*
X131619383Y-150421829D01*
X131637107Y-150437893D01*
X131653171Y-150455617D01*
X131667421Y-150474830D01*
X131679718Y-150495347D01*
X131689946Y-150516971D01*
X131698004Y-150539493D01*
X131703816Y-150562697D01*
X131707326Y-150586358D01*
X131708500Y-150610250D01*
X131708500Y-151522750D01*
X131707326Y-151546642D01*
X131703816Y-151570303D01*
X131698004Y-151593507D01*
X131689946Y-151616029D01*
X131679718Y-151637653D01*
X131667421Y-151658170D01*
X131653171Y-151677383D01*
X131637107Y-151695107D01*
X131619383Y-151711171D01*
X131600170Y-151725421D01*
X131579653Y-151737718D01*
X131558029Y-151747946D01*
X131535507Y-151756004D01*
X131512303Y-151761816D01*
X131488642Y-151765326D01*
X131464750Y-151766500D01*
X130977250Y-151766500D01*
X130953358Y-151765326D01*
X130929697Y-151761816D01*
X130906493Y-151756004D01*
X130883971Y-151747946D01*
X130862347Y-151737718D01*
X130841830Y-151725421D01*
X130822617Y-151711171D01*
X130804893Y-151695107D01*
X130788829Y-151677383D01*
X130774579Y-151658170D01*
X130762282Y-151637653D01*
X130752054Y-151616029D01*
X130743996Y-151593507D01*
X130738184Y-151570303D01*
X130734674Y-151546642D01*
X130733500Y-151522750D01*
X130733500Y-150610250D01*
X130734674Y-150586358D01*
X130738184Y-150562697D01*
X130743996Y-150539493D01*
X130752054Y-150516971D01*
X130762282Y-150495347D01*
X130774579Y-150474830D01*
X130788829Y-150455617D01*
X130804893Y-150437893D01*
X130822617Y-150421829D01*
X130841830Y-150407579D01*
X130862347Y-150395282D01*
X130883971Y-150385054D01*
X130906493Y-150376996D01*
X130929697Y-150371184D01*
X130953358Y-150367674D01*
X130977250Y-150366500D01*
X131464750Y-150366500D01*
X131488642Y-150367674D01*
X131488642Y-150367674D01*
G37*
D15*
G04 #@! TD*
G04 #@! TO.P,C35,2*
G04 #@! TO.N,GND*
X131221000Y-151066500D03*
D14*
G04 #@! TO.N,/USB_VIN*
G04 #@! TO.C,C35*
G36*
X133363642Y-150367674D02*
X133387303Y-150371184D01*
X133410507Y-150376996D01*
X133433029Y-150385054D01*
X133454653Y-150395282D01*
X133475170Y-150407579D01*
X133494383Y-150421829D01*
X133512107Y-150437893D01*
X133528171Y-150455617D01*
X133542421Y-150474830D01*
X133554718Y-150495347D01*
X133564946Y-150516971D01*
X133573004Y-150539493D01*
X133578816Y-150562697D01*
X133582326Y-150586358D01*
X133583500Y-150610250D01*
X133583500Y-151522750D01*
X133582326Y-151546642D01*
X133578816Y-151570303D01*
X133573004Y-151593507D01*
X133564946Y-151616029D01*
X133554718Y-151637653D01*
X133542421Y-151658170D01*
X133528171Y-151677383D01*
X133512107Y-151695107D01*
X133494383Y-151711171D01*
X133475170Y-151725421D01*
X133454653Y-151737718D01*
X133433029Y-151747946D01*
X133410507Y-151756004D01*
X133387303Y-151761816D01*
X133363642Y-151765326D01*
X133339750Y-151766500D01*
X132852250Y-151766500D01*
X132828358Y-151765326D01*
X132804697Y-151761816D01*
X132781493Y-151756004D01*
X132758971Y-151747946D01*
X132737347Y-151737718D01*
X132716830Y-151725421D01*
X132697617Y-151711171D01*
X132679893Y-151695107D01*
X132663829Y-151677383D01*
X132649579Y-151658170D01*
X132637282Y-151637653D01*
X132627054Y-151616029D01*
X132618996Y-151593507D01*
X132613184Y-151570303D01*
X132609674Y-151546642D01*
X132608500Y-151522750D01*
X132608500Y-150610250D01*
X132609674Y-150586358D01*
X132613184Y-150562697D01*
X132618996Y-150539493D01*
X132627054Y-150516971D01*
X132637282Y-150495347D01*
X132649579Y-150474830D01*
X132663829Y-150455617D01*
X132679893Y-150437893D01*
X132697617Y-150421829D01*
X132716830Y-150407579D01*
X132737347Y-150395282D01*
X132758971Y-150385054D01*
X132781493Y-150376996D01*
X132804697Y-150371184D01*
X132828358Y-150367674D01*
X132852250Y-150366500D01*
X133339750Y-150366500D01*
X133363642Y-150367674D01*
X133363642Y-150367674D01*
G37*
D15*
G04 #@! TD*
G04 #@! TO.P,C35,1*
G04 #@! TO.N,/USB_VIN*
X133096000Y-151066500D03*
D14*
G04 #@! TO.N,+5V*
G04 #@! TO.C,C36*
G36*
X135347142Y-150367674D02*
X135370803Y-150371184D01*
X135394007Y-150376996D01*
X135416529Y-150385054D01*
X135438153Y-150395282D01*
X135458670Y-150407579D01*
X135477883Y-150421829D01*
X135495607Y-150437893D01*
X135511671Y-150455617D01*
X135525921Y-150474830D01*
X135538218Y-150495347D01*
X135548446Y-150516971D01*
X135556504Y-150539493D01*
X135562316Y-150562697D01*
X135565826Y-150586358D01*
X135567000Y-150610250D01*
X135567000Y-151522750D01*
X135565826Y-151546642D01*
X135562316Y-151570303D01*
X135556504Y-151593507D01*
X135548446Y-151616029D01*
X135538218Y-151637653D01*
X135525921Y-151658170D01*
X135511671Y-151677383D01*
X135495607Y-151695107D01*
X135477883Y-151711171D01*
X135458670Y-151725421D01*
X135438153Y-151737718D01*
X135416529Y-151747946D01*
X135394007Y-151756004D01*
X135370803Y-151761816D01*
X135347142Y-151765326D01*
X135323250Y-151766500D01*
X134835750Y-151766500D01*
X134811858Y-151765326D01*
X134788197Y-151761816D01*
X134764993Y-151756004D01*
X134742471Y-151747946D01*
X134720847Y-151737718D01*
X134700330Y-151725421D01*
X134681117Y-151711171D01*
X134663393Y-151695107D01*
X134647329Y-151677383D01*
X134633079Y-151658170D01*
X134620782Y-151637653D01*
X134610554Y-151616029D01*
X134602496Y-151593507D01*
X134596684Y-151570303D01*
X134593174Y-151546642D01*
X134592000Y-151522750D01*
X134592000Y-150610250D01*
X134593174Y-150586358D01*
X134596684Y-150562697D01*
X134602496Y-150539493D01*
X134610554Y-150516971D01*
X134620782Y-150495347D01*
X134633079Y-150474830D01*
X134647329Y-150455617D01*
X134663393Y-150437893D01*
X134681117Y-150421829D01*
X134700330Y-150407579D01*
X134720847Y-150395282D01*
X134742471Y-150385054D01*
X134764993Y-150376996D01*
X134788197Y-150371184D01*
X134811858Y-150367674D01*
X134835750Y-150366500D01*
X135323250Y-150366500D01*
X135347142Y-150367674D01*
X135347142Y-150367674D01*
G37*
D15*
G04 #@! TD*
G04 #@! TO.P,C36,1*
G04 #@! TO.N,+5V*
X135079500Y-151066500D03*
D14*
G04 #@! TO.N,GND*
G04 #@! TO.C,C36*
G36*
X137222142Y-150367674D02*
X137245803Y-150371184D01*
X137269007Y-150376996D01*
X137291529Y-150385054D01*
X137313153Y-150395282D01*
X137333670Y-150407579D01*
X137352883Y-150421829D01*
X137370607Y-150437893D01*
X137386671Y-150455617D01*
X137400921Y-150474830D01*
X137413218Y-150495347D01*
X137423446Y-150516971D01*
X137431504Y-150539493D01*
X137437316Y-150562697D01*
X137440826Y-150586358D01*
X137442000Y-150610250D01*
X137442000Y-151522750D01*
X137440826Y-151546642D01*
X137437316Y-151570303D01*
X137431504Y-151593507D01*
X137423446Y-151616029D01*
X137413218Y-151637653D01*
X137400921Y-151658170D01*
X137386671Y-151677383D01*
X137370607Y-151695107D01*
X137352883Y-151711171D01*
X137333670Y-151725421D01*
X137313153Y-151737718D01*
X137291529Y-151747946D01*
X137269007Y-151756004D01*
X137245803Y-151761816D01*
X137222142Y-151765326D01*
X137198250Y-151766500D01*
X136710750Y-151766500D01*
X136686858Y-151765326D01*
X136663197Y-151761816D01*
X136639993Y-151756004D01*
X136617471Y-151747946D01*
X136595847Y-151737718D01*
X136575330Y-151725421D01*
X136556117Y-151711171D01*
X136538393Y-151695107D01*
X136522329Y-151677383D01*
X136508079Y-151658170D01*
X136495782Y-151637653D01*
X136485554Y-151616029D01*
X136477496Y-151593507D01*
X136471684Y-151570303D01*
X136468174Y-151546642D01*
X136467000Y-151522750D01*
X136467000Y-150610250D01*
X136468174Y-150586358D01*
X136471684Y-150562697D01*
X136477496Y-150539493D01*
X136485554Y-150516971D01*
X136495782Y-150495347D01*
X136508079Y-150474830D01*
X136522329Y-150455617D01*
X136538393Y-150437893D01*
X136556117Y-150421829D01*
X136575330Y-150407579D01*
X136595847Y-150395282D01*
X136617471Y-150385054D01*
X136639993Y-150376996D01*
X136663197Y-150371184D01*
X136686858Y-150367674D01*
X136710750Y-150366500D01*
X137198250Y-150366500D01*
X137222142Y-150367674D01*
X137222142Y-150367674D01*
G37*
D15*
G04 #@! TD*
G04 #@! TO.P,C36,2*
G04 #@! TO.N,GND*
X136954500Y-151066500D03*
D14*
G04 #@! TO.N,Net-(C37-Pad1)*
G04 #@! TO.C,C37*
G36*
X153388142Y-137719674D02*
X153411803Y-137723184D01*
X153435007Y-137728996D01*
X153457529Y-137737054D01*
X153479153Y-137747282D01*
X153499670Y-137759579D01*
X153518883Y-137773829D01*
X153536607Y-137789893D01*
X153552671Y-137807617D01*
X153566921Y-137826830D01*
X153579218Y-137847347D01*
X153589446Y-137868971D01*
X153597504Y-137891493D01*
X153603316Y-137914697D01*
X153606826Y-137938358D01*
X153608000Y-137962250D01*
X153608000Y-138449750D01*
X153606826Y-138473642D01*
X153603316Y-138497303D01*
X153597504Y-138520507D01*
X153589446Y-138543029D01*
X153579218Y-138564653D01*
X153566921Y-138585170D01*
X153552671Y-138604383D01*
X153536607Y-138622107D01*
X153518883Y-138638171D01*
X153499670Y-138652421D01*
X153479153Y-138664718D01*
X153457529Y-138674946D01*
X153435007Y-138683004D01*
X153411803Y-138688816D01*
X153388142Y-138692326D01*
X153364250Y-138693500D01*
X152451750Y-138693500D01*
X152427858Y-138692326D01*
X152404197Y-138688816D01*
X152380993Y-138683004D01*
X152358471Y-138674946D01*
X152336847Y-138664718D01*
X152316330Y-138652421D01*
X152297117Y-138638171D01*
X152279393Y-138622107D01*
X152263329Y-138604383D01*
X152249079Y-138585170D01*
X152236782Y-138564653D01*
X152226554Y-138543029D01*
X152218496Y-138520507D01*
X152212684Y-138497303D01*
X152209174Y-138473642D01*
X152208000Y-138449750D01*
X152208000Y-137962250D01*
X152209174Y-137938358D01*
X152212684Y-137914697D01*
X152218496Y-137891493D01*
X152226554Y-137868971D01*
X152236782Y-137847347D01*
X152249079Y-137826830D01*
X152263329Y-137807617D01*
X152279393Y-137789893D01*
X152297117Y-137773829D01*
X152316330Y-137759579D01*
X152336847Y-137747282D01*
X152358471Y-137737054D01*
X152380993Y-137728996D01*
X152404197Y-137723184D01*
X152427858Y-137719674D01*
X152451750Y-137718500D01*
X153364250Y-137718500D01*
X153388142Y-137719674D01*
X153388142Y-137719674D01*
G37*
D15*
G04 #@! TD*
G04 #@! TO.P,C37,1*
G04 #@! TO.N,Net-(C37-Pad1)*
X152908000Y-138206000D03*
D14*
G04 #@! TO.N,GND*
G04 #@! TO.C,C37*
G36*
X153388142Y-139594674D02*
X153411803Y-139598184D01*
X153435007Y-139603996D01*
X153457529Y-139612054D01*
X153479153Y-139622282D01*
X153499670Y-139634579D01*
X153518883Y-139648829D01*
X153536607Y-139664893D01*
X153552671Y-139682617D01*
X153566921Y-139701830D01*
X153579218Y-139722347D01*
X153589446Y-139743971D01*
X153597504Y-139766493D01*
X153603316Y-139789697D01*
X153606826Y-139813358D01*
X153608000Y-139837250D01*
X153608000Y-140324750D01*
X153606826Y-140348642D01*
X153603316Y-140372303D01*
X153597504Y-140395507D01*
X153589446Y-140418029D01*
X153579218Y-140439653D01*
X153566921Y-140460170D01*
X153552671Y-140479383D01*
X153536607Y-140497107D01*
X153518883Y-140513171D01*
X153499670Y-140527421D01*
X153479153Y-140539718D01*
X153457529Y-140549946D01*
X153435007Y-140558004D01*
X153411803Y-140563816D01*
X153388142Y-140567326D01*
X153364250Y-140568500D01*
X152451750Y-140568500D01*
X152427858Y-140567326D01*
X152404197Y-140563816D01*
X152380993Y-140558004D01*
X152358471Y-140549946D01*
X152336847Y-140539718D01*
X152316330Y-140527421D01*
X152297117Y-140513171D01*
X152279393Y-140497107D01*
X152263329Y-140479383D01*
X152249079Y-140460170D01*
X152236782Y-140439653D01*
X152226554Y-140418029D01*
X152218496Y-140395507D01*
X152212684Y-140372303D01*
X152209174Y-140348642D01*
X152208000Y-140324750D01*
X152208000Y-139837250D01*
X152209174Y-139813358D01*
X152212684Y-139789697D01*
X152218496Y-139766493D01*
X152226554Y-139743971D01*
X152236782Y-139722347D01*
X152249079Y-139701830D01*
X152263329Y-139682617D01*
X152279393Y-139664893D01*
X152297117Y-139648829D01*
X152316330Y-139634579D01*
X152336847Y-139622282D01*
X152358471Y-139612054D01*
X152380993Y-139603996D01*
X152404197Y-139598184D01*
X152427858Y-139594674D01*
X152451750Y-139593500D01*
X153364250Y-139593500D01*
X153388142Y-139594674D01*
X153388142Y-139594674D01*
G37*
D15*
G04 #@! TD*
G04 #@! TO.P,C37,2*
G04 #@! TO.N,GND*
X152908000Y-140081000D03*
D14*
G04 #@! TO.N,Net-(C38-Pad1)*
G04 #@! TO.C,C38*
G36*
X158976142Y-117847674D02*
X158999803Y-117851184D01*
X159023007Y-117856996D01*
X159045529Y-117865054D01*
X159067153Y-117875282D01*
X159087670Y-117887579D01*
X159106883Y-117901829D01*
X159124607Y-117917893D01*
X159140671Y-117935617D01*
X159154921Y-117954830D01*
X159167218Y-117975347D01*
X159177446Y-117996971D01*
X159185504Y-118019493D01*
X159191316Y-118042697D01*
X159194826Y-118066358D01*
X159196000Y-118090250D01*
X159196000Y-118577750D01*
X159194826Y-118601642D01*
X159191316Y-118625303D01*
X159185504Y-118648507D01*
X159177446Y-118671029D01*
X159167218Y-118692653D01*
X159154921Y-118713170D01*
X159140671Y-118732383D01*
X159124607Y-118750107D01*
X159106883Y-118766171D01*
X159087670Y-118780421D01*
X159067153Y-118792718D01*
X159045529Y-118802946D01*
X159023007Y-118811004D01*
X158999803Y-118816816D01*
X158976142Y-118820326D01*
X158952250Y-118821500D01*
X158039750Y-118821500D01*
X158015858Y-118820326D01*
X157992197Y-118816816D01*
X157968993Y-118811004D01*
X157946471Y-118802946D01*
X157924847Y-118792718D01*
X157904330Y-118780421D01*
X157885117Y-118766171D01*
X157867393Y-118750107D01*
X157851329Y-118732383D01*
X157837079Y-118713170D01*
X157824782Y-118692653D01*
X157814554Y-118671029D01*
X157806496Y-118648507D01*
X157800684Y-118625303D01*
X157797174Y-118601642D01*
X157796000Y-118577750D01*
X157796000Y-118090250D01*
X157797174Y-118066358D01*
X157800684Y-118042697D01*
X157806496Y-118019493D01*
X157814554Y-117996971D01*
X157824782Y-117975347D01*
X157837079Y-117954830D01*
X157851329Y-117935617D01*
X157867393Y-117917893D01*
X157885117Y-117901829D01*
X157904330Y-117887579D01*
X157924847Y-117875282D01*
X157946471Y-117865054D01*
X157968993Y-117856996D01*
X157992197Y-117851184D01*
X158015858Y-117847674D01*
X158039750Y-117846500D01*
X158952250Y-117846500D01*
X158976142Y-117847674D01*
X158976142Y-117847674D01*
G37*
D15*
G04 #@! TD*
G04 #@! TO.P,C38,1*
G04 #@! TO.N,Net-(C38-Pad1)*
X158496000Y-118334000D03*
D14*
G04 #@! TO.N,GND*
G04 #@! TO.C,C38*
G36*
X158976142Y-115972674D02*
X158999803Y-115976184D01*
X159023007Y-115981996D01*
X159045529Y-115990054D01*
X159067153Y-116000282D01*
X159087670Y-116012579D01*
X159106883Y-116026829D01*
X159124607Y-116042893D01*
X159140671Y-116060617D01*
X159154921Y-116079830D01*
X159167218Y-116100347D01*
X159177446Y-116121971D01*
X159185504Y-116144493D01*
X159191316Y-116167697D01*
X159194826Y-116191358D01*
X159196000Y-116215250D01*
X159196000Y-116702750D01*
X159194826Y-116726642D01*
X159191316Y-116750303D01*
X159185504Y-116773507D01*
X159177446Y-116796029D01*
X159167218Y-116817653D01*
X159154921Y-116838170D01*
X159140671Y-116857383D01*
X159124607Y-116875107D01*
X159106883Y-116891171D01*
X159087670Y-116905421D01*
X159067153Y-116917718D01*
X159045529Y-116927946D01*
X159023007Y-116936004D01*
X158999803Y-116941816D01*
X158976142Y-116945326D01*
X158952250Y-116946500D01*
X158039750Y-116946500D01*
X158015858Y-116945326D01*
X157992197Y-116941816D01*
X157968993Y-116936004D01*
X157946471Y-116927946D01*
X157924847Y-116917718D01*
X157904330Y-116905421D01*
X157885117Y-116891171D01*
X157867393Y-116875107D01*
X157851329Y-116857383D01*
X157837079Y-116838170D01*
X157824782Y-116817653D01*
X157814554Y-116796029D01*
X157806496Y-116773507D01*
X157800684Y-116750303D01*
X157797174Y-116726642D01*
X157796000Y-116702750D01*
X157796000Y-116215250D01*
X157797174Y-116191358D01*
X157800684Y-116167697D01*
X157806496Y-116144493D01*
X157814554Y-116121971D01*
X157824782Y-116100347D01*
X157837079Y-116079830D01*
X157851329Y-116060617D01*
X157867393Y-116042893D01*
X157885117Y-116026829D01*
X157904330Y-116012579D01*
X157924847Y-116000282D01*
X157946471Y-115990054D01*
X157968993Y-115981996D01*
X157992197Y-115976184D01*
X158015858Y-115972674D01*
X158039750Y-115971500D01*
X158952250Y-115971500D01*
X158976142Y-115972674D01*
X158976142Y-115972674D01*
G37*
D15*
G04 #@! TD*
G04 #@! TO.P,C38,2*
G04 #@! TO.N,GND*
X158496000Y-116459000D03*
D14*
G04 #@! TO.N,/USB_VIN*
G04 #@! TO.C,C39*
G36*
X150938142Y-153225174D02*
X150961803Y-153228684D01*
X150985007Y-153234496D01*
X151007529Y-153242554D01*
X151029153Y-153252782D01*
X151049670Y-153265079D01*
X151068883Y-153279329D01*
X151086607Y-153295393D01*
X151102671Y-153313117D01*
X151116921Y-153332330D01*
X151129218Y-153352847D01*
X151139446Y-153374471D01*
X151147504Y-153396993D01*
X151153316Y-153420197D01*
X151156826Y-153443858D01*
X151158000Y-153467750D01*
X151158000Y-154380250D01*
X151156826Y-154404142D01*
X151153316Y-154427803D01*
X151147504Y-154451007D01*
X151139446Y-154473529D01*
X151129218Y-154495153D01*
X151116921Y-154515670D01*
X151102671Y-154534883D01*
X151086607Y-154552607D01*
X151068883Y-154568671D01*
X151049670Y-154582921D01*
X151029153Y-154595218D01*
X151007529Y-154605446D01*
X150985007Y-154613504D01*
X150961803Y-154619316D01*
X150938142Y-154622826D01*
X150914250Y-154624000D01*
X150426750Y-154624000D01*
X150402858Y-154622826D01*
X150379197Y-154619316D01*
X150355993Y-154613504D01*
X150333471Y-154605446D01*
X150311847Y-154595218D01*
X150291330Y-154582921D01*
X150272117Y-154568671D01*
X150254393Y-154552607D01*
X150238329Y-154534883D01*
X150224079Y-154515670D01*
X150211782Y-154495153D01*
X150201554Y-154473529D01*
X150193496Y-154451007D01*
X150187684Y-154427803D01*
X150184174Y-154404142D01*
X150183000Y-154380250D01*
X150183000Y-153467750D01*
X150184174Y-153443858D01*
X150187684Y-153420197D01*
X150193496Y-153396993D01*
X150201554Y-153374471D01*
X150211782Y-153352847D01*
X150224079Y-153332330D01*
X150238329Y-153313117D01*
X150254393Y-153295393D01*
X150272117Y-153279329D01*
X150291330Y-153265079D01*
X150311847Y-153252782D01*
X150333471Y-153242554D01*
X150355993Y-153234496D01*
X150379197Y-153228684D01*
X150402858Y-153225174D01*
X150426750Y-153224000D01*
X150914250Y-153224000D01*
X150938142Y-153225174D01*
X150938142Y-153225174D01*
G37*
D15*
G04 #@! TD*
G04 #@! TO.P,C39,1*
G04 #@! TO.N,/USB_VIN*
X150670500Y-153924000D03*
D14*
G04 #@! TO.N,GND*
G04 #@! TO.C,C39*
G36*
X149063142Y-153225174D02*
X149086803Y-153228684D01*
X149110007Y-153234496D01*
X149132529Y-153242554D01*
X149154153Y-153252782D01*
X149174670Y-153265079D01*
X149193883Y-153279329D01*
X149211607Y-153295393D01*
X149227671Y-153313117D01*
X149241921Y-153332330D01*
X149254218Y-153352847D01*
X149264446Y-153374471D01*
X149272504Y-153396993D01*
X149278316Y-153420197D01*
X149281826Y-153443858D01*
X149283000Y-153467750D01*
X149283000Y-154380250D01*
X149281826Y-154404142D01*
X149278316Y-154427803D01*
X149272504Y-154451007D01*
X149264446Y-154473529D01*
X149254218Y-154495153D01*
X149241921Y-154515670D01*
X149227671Y-154534883D01*
X149211607Y-154552607D01*
X149193883Y-154568671D01*
X149174670Y-154582921D01*
X149154153Y-154595218D01*
X149132529Y-154605446D01*
X149110007Y-154613504D01*
X149086803Y-154619316D01*
X149063142Y-154622826D01*
X149039250Y-154624000D01*
X148551750Y-154624000D01*
X148527858Y-154622826D01*
X148504197Y-154619316D01*
X148480993Y-154613504D01*
X148458471Y-154605446D01*
X148436847Y-154595218D01*
X148416330Y-154582921D01*
X148397117Y-154568671D01*
X148379393Y-154552607D01*
X148363329Y-154534883D01*
X148349079Y-154515670D01*
X148336782Y-154495153D01*
X148326554Y-154473529D01*
X148318496Y-154451007D01*
X148312684Y-154427803D01*
X148309174Y-154404142D01*
X148308000Y-154380250D01*
X148308000Y-153467750D01*
X148309174Y-153443858D01*
X148312684Y-153420197D01*
X148318496Y-153396993D01*
X148326554Y-153374471D01*
X148336782Y-153352847D01*
X148349079Y-153332330D01*
X148363329Y-153313117D01*
X148379393Y-153295393D01*
X148397117Y-153279329D01*
X148416330Y-153265079D01*
X148436847Y-153252782D01*
X148458471Y-153242554D01*
X148480993Y-153234496D01*
X148504197Y-153228684D01*
X148527858Y-153225174D01*
X148551750Y-153224000D01*
X149039250Y-153224000D01*
X149063142Y-153225174D01*
X149063142Y-153225174D01*
G37*
D15*
G04 #@! TD*
G04 #@! TO.P,C39,2*
G04 #@! TO.N,GND*
X148795500Y-153924000D03*
D14*
G04 #@! TO.N,GND*
G04 #@! TO.C,C40*
G36*
X149126642Y-150685174D02*
X149150303Y-150688684D01*
X149173507Y-150694496D01*
X149196029Y-150702554D01*
X149217653Y-150712782D01*
X149238170Y-150725079D01*
X149257383Y-150739329D01*
X149275107Y-150755393D01*
X149291171Y-150773117D01*
X149305421Y-150792330D01*
X149317718Y-150812847D01*
X149327946Y-150834471D01*
X149336004Y-150856993D01*
X149341816Y-150880197D01*
X149345326Y-150903858D01*
X149346500Y-150927750D01*
X149346500Y-151840250D01*
X149345326Y-151864142D01*
X149341816Y-151887803D01*
X149336004Y-151911007D01*
X149327946Y-151933529D01*
X149317718Y-151955153D01*
X149305421Y-151975670D01*
X149291171Y-151994883D01*
X149275107Y-152012607D01*
X149257383Y-152028671D01*
X149238170Y-152042921D01*
X149217653Y-152055218D01*
X149196029Y-152065446D01*
X149173507Y-152073504D01*
X149150303Y-152079316D01*
X149126642Y-152082826D01*
X149102750Y-152084000D01*
X148615250Y-152084000D01*
X148591358Y-152082826D01*
X148567697Y-152079316D01*
X148544493Y-152073504D01*
X148521971Y-152065446D01*
X148500347Y-152055218D01*
X148479830Y-152042921D01*
X148460617Y-152028671D01*
X148442893Y-152012607D01*
X148426829Y-151994883D01*
X148412579Y-151975670D01*
X148400282Y-151955153D01*
X148390054Y-151933529D01*
X148381996Y-151911007D01*
X148376184Y-151887803D01*
X148372674Y-151864142D01*
X148371500Y-151840250D01*
X148371500Y-150927750D01*
X148372674Y-150903858D01*
X148376184Y-150880197D01*
X148381996Y-150856993D01*
X148390054Y-150834471D01*
X148400282Y-150812847D01*
X148412579Y-150792330D01*
X148426829Y-150773117D01*
X148442893Y-150755393D01*
X148460617Y-150739329D01*
X148479830Y-150725079D01*
X148500347Y-150712782D01*
X148521971Y-150702554D01*
X148544493Y-150694496D01*
X148567697Y-150688684D01*
X148591358Y-150685174D01*
X148615250Y-150684000D01*
X149102750Y-150684000D01*
X149126642Y-150685174D01*
X149126642Y-150685174D01*
G37*
D15*
G04 #@! TD*
G04 #@! TO.P,C40,2*
G04 #@! TO.N,GND*
X148859000Y-151384000D03*
D14*
G04 #@! TO.N,+3V3*
G04 #@! TO.C,C40*
G36*
X151001642Y-150685174D02*
X151025303Y-150688684D01*
X151048507Y-150694496D01*
X151071029Y-150702554D01*
X151092653Y-150712782D01*
X151113170Y-150725079D01*
X151132383Y-150739329D01*
X151150107Y-150755393D01*
X151166171Y-150773117D01*
X151180421Y-150792330D01*
X151192718Y-150812847D01*
X151202946Y-150834471D01*
X151211004Y-150856993D01*
X151216816Y-150880197D01*
X151220326Y-150903858D01*
X151221500Y-150927750D01*
X151221500Y-151840250D01*
X151220326Y-151864142D01*
X151216816Y-151887803D01*
X151211004Y-151911007D01*
X151202946Y-151933529D01*
X151192718Y-151955153D01*
X151180421Y-151975670D01*
X151166171Y-151994883D01*
X151150107Y-152012607D01*
X151132383Y-152028671D01*
X151113170Y-152042921D01*
X151092653Y-152055218D01*
X151071029Y-152065446D01*
X151048507Y-152073504D01*
X151025303Y-152079316D01*
X151001642Y-152082826D01*
X150977750Y-152084000D01*
X150490250Y-152084000D01*
X150466358Y-152082826D01*
X150442697Y-152079316D01*
X150419493Y-152073504D01*
X150396971Y-152065446D01*
X150375347Y-152055218D01*
X150354830Y-152042921D01*
X150335617Y-152028671D01*
X150317893Y-152012607D01*
X150301829Y-151994883D01*
X150287579Y-151975670D01*
X150275282Y-151955153D01*
X150265054Y-151933529D01*
X150256996Y-151911007D01*
X150251184Y-151887803D01*
X150247674Y-151864142D01*
X150246500Y-151840250D01*
X150246500Y-150927750D01*
X150247674Y-150903858D01*
X150251184Y-150880197D01*
X150256996Y-150856993D01*
X150265054Y-150834471D01*
X150275282Y-150812847D01*
X150287579Y-150792330D01*
X150301829Y-150773117D01*
X150317893Y-150755393D01*
X150335617Y-150739329D01*
X150354830Y-150725079D01*
X150375347Y-150712782D01*
X150396971Y-150702554D01*
X150419493Y-150694496D01*
X150442697Y-150688684D01*
X150466358Y-150685174D01*
X150490250Y-150684000D01*
X150977750Y-150684000D01*
X151001642Y-150685174D01*
X151001642Y-150685174D01*
G37*
D15*
G04 #@! TD*
G04 #@! TO.P,C40,1*
G04 #@! TO.N,+3V3*
X150734000Y-151384000D03*
D14*
G04 #@! TO.N,GND*
G04 #@! TO.C,C41*
G36*
X140505642Y-150431174D02*
X140529303Y-150434684D01*
X140552507Y-150440496D01*
X140575029Y-150448554D01*
X140596653Y-150458782D01*
X140617170Y-150471079D01*
X140636383Y-150485329D01*
X140654107Y-150501393D01*
X140670171Y-150519117D01*
X140684421Y-150538330D01*
X140696718Y-150558847D01*
X140706946Y-150580471D01*
X140715004Y-150602993D01*
X140720816Y-150626197D01*
X140724326Y-150649858D01*
X140725500Y-150673750D01*
X140725500Y-151586250D01*
X140724326Y-151610142D01*
X140720816Y-151633803D01*
X140715004Y-151657007D01*
X140706946Y-151679529D01*
X140696718Y-151701153D01*
X140684421Y-151721670D01*
X140670171Y-151740883D01*
X140654107Y-151758607D01*
X140636383Y-151774671D01*
X140617170Y-151788921D01*
X140596653Y-151801218D01*
X140575029Y-151811446D01*
X140552507Y-151819504D01*
X140529303Y-151825316D01*
X140505642Y-151828826D01*
X140481750Y-151830000D01*
X139994250Y-151830000D01*
X139970358Y-151828826D01*
X139946697Y-151825316D01*
X139923493Y-151819504D01*
X139900971Y-151811446D01*
X139879347Y-151801218D01*
X139858830Y-151788921D01*
X139839617Y-151774671D01*
X139821893Y-151758607D01*
X139805829Y-151740883D01*
X139791579Y-151721670D01*
X139779282Y-151701153D01*
X139769054Y-151679529D01*
X139760996Y-151657007D01*
X139755184Y-151633803D01*
X139751674Y-151610142D01*
X139750500Y-151586250D01*
X139750500Y-150673750D01*
X139751674Y-150649858D01*
X139755184Y-150626197D01*
X139760996Y-150602993D01*
X139769054Y-150580471D01*
X139779282Y-150558847D01*
X139791579Y-150538330D01*
X139805829Y-150519117D01*
X139821893Y-150501393D01*
X139839617Y-150485329D01*
X139858830Y-150471079D01*
X139879347Y-150458782D01*
X139900971Y-150448554D01*
X139923493Y-150440496D01*
X139946697Y-150434684D01*
X139970358Y-150431174D01*
X139994250Y-150430000D01*
X140481750Y-150430000D01*
X140505642Y-150431174D01*
X140505642Y-150431174D01*
G37*
D15*
G04 #@! TD*
G04 #@! TO.P,C41,2*
G04 #@! TO.N,GND*
X140238000Y-151130000D03*
D14*
G04 #@! TO.N,/USB_VIN*
G04 #@! TO.C,C41*
G36*
X142380642Y-150431174D02*
X142404303Y-150434684D01*
X142427507Y-150440496D01*
X142450029Y-150448554D01*
X142471653Y-150458782D01*
X142492170Y-150471079D01*
X142511383Y-150485329D01*
X142529107Y-150501393D01*
X142545171Y-150519117D01*
X142559421Y-150538330D01*
X142571718Y-150558847D01*
X142581946Y-150580471D01*
X142590004Y-150602993D01*
X142595816Y-150626197D01*
X142599326Y-150649858D01*
X142600500Y-150673750D01*
X142600500Y-151586250D01*
X142599326Y-151610142D01*
X142595816Y-151633803D01*
X142590004Y-151657007D01*
X142581946Y-151679529D01*
X142571718Y-151701153D01*
X142559421Y-151721670D01*
X142545171Y-151740883D01*
X142529107Y-151758607D01*
X142511383Y-151774671D01*
X142492170Y-151788921D01*
X142471653Y-151801218D01*
X142450029Y-151811446D01*
X142427507Y-151819504D01*
X142404303Y-151825316D01*
X142380642Y-151828826D01*
X142356750Y-151830000D01*
X141869250Y-151830000D01*
X141845358Y-151828826D01*
X141821697Y-151825316D01*
X141798493Y-151819504D01*
X141775971Y-151811446D01*
X141754347Y-151801218D01*
X141733830Y-151788921D01*
X141714617Y-151774671D01*
X141696893Y-151758607D01*
X141680829Y-151740883D01*
X141666579Y-151721670D01*
X141654282Y-151701153D01*
X141644054Y-151679529D01*
X141635996Y-151657007D01*
X141630184Y-151633803D01*
X141626674Y-151610142D01*
X141625500Y-151586250D01*
X141625500Y-150673750D01*
X141626674Y-150649858D01*
X141630184Y-150626197D01*
X141635996Y-150602993D01*
X141644054Y-150580471D01*
X141654282Y-150558847D01*
X141666579Y-150538330D01*
X141680829Y-150519117D01*
X141696893Y-150501393D01*
X141714617Y-150485329D01*
X141733830Y-150471079D01*
X141754347Y-150458782D01*
X141775971Y-150448554D01*
X141798493Y-150440496D01*
X141821697Y-150434684D01*
X141845358Y-150431174D01*
X141869250Y-150430000D01*
X142356750Y-150430000D01*
X142380642Y-150431174D01*
X142380642Y-150431174D01*
G37*
D15*
G04 #@! TD*
G04 #@! TO.P,C41,1*
G04 #@! TO.N,/USB_VIN*
X142113000Y-151130000D03*
D14*
G04 #@! TO.N,+1V2*
G04 #@! TO.C,C42*
G36*
X144285642Y-150431174D02*
X144309303Y-150434684D01*
X144332507Y-150440496D01*
X144355029Y-150448554D01*
X144376653Y-150458782D01*
X144397170Y-150471079D01*
X144416383Y-150485329D01*
X144434107Y-150501393D01*
X144450171Y-150519117D01*
X144464421Y-150538330D01*
X144476718Y-150558847D01*
X144486946Y-150580471D01*
X144495004Y-150602993D01*
X144500816Y-150626197D01*
X144504326Y-150649858D01*
X144505500Y-150673750D01*
X144505500Y-151586250D01*
X144504326Y-151610142D01*
X144500816Y-151633803D01*
X144495004Y-151657007D01*
X144486946Y-151679529D01*
X144476718Y-151701153D01*
X144464421Y-151721670D01*
X144450171Y-151740883D01*
X144434107Y-151758607D01*
X144416383Y-151774671D01*
X144397170Y-151788921D01*
X144376653Y-151801218D01*
X144355029Y-151811446D01*
X144332507Y-151819504D01*
X144309303Y-151825316D01*
X144285642Y-151828826D01*
X144261750Y-151830000D01*
X143774250Y-151830000D01*
X143750358Y-151828826D01*
X143726697Y-151825316D01*
X143703493Y-151819504D01*
X143680971Y-151811446D01*
X143659347Y-151801218D01*
X143638830Y-151788921D01*
X143619617Y-151774671D01*
X143601893Y-151758607D01*
X143585829Y-151740883D01*
X143571579Y-151721670D01*
X143559282Y-151701153D01*
X143549054Y-151679529D01*
X143540996Y-151657007D01*
X143535184Y-151633803D01*
X143531674Y-151610142D01*
X143530500Y-151586250D01*
X143530500Y-150673750D01*
X143531674Y-150649858D01*
X143535184Y-150626197D01*
X143540996Y-150602993D01*
X143549054Y-150580471D01*
X143559282Y-150558847D01*
X143571579Y-150538330D01*
X143585829Y-150519117D01*
X143601893Y-150501393D01*
X143619617Y-150485329D01*
X143638830Y-150471079D01*
X143659347Y-150458782D01*
X143680971Y-150448554D01*
X143703493Y-150440496D01*
X143726697Y-150434684D01*
X143750358Y-150431174D01*
X143774250Y-150430000D01*
X144261750Y-150430000D01*
X144285642Y-150431174D01*
X144285642Y-150431174D01*
G37*
D15*
G04 #@! TD*
G04 #@! TO.P,C42,1*
G04 #@! TO.N,+1V2*
X144018000Y-151130000D03*
D14*
G04 #@! TO.N,GND*
G04 #@! TO.C,C42*
G36*
X146160642Y-150431174D02*
X146184303Y-150434684D01*
X146207507Y-150440496D01*
X146230029Y-150448554D01*
X146251653Y-150458782D01*
X146272170Y-150471079D01*
X146291383Y-150485329D01*
X146309107Y-150501393D01*
X146325171Y-150519117D01*
X146339421Y-150538330D01*
X146351718Y-150558847D01*
X146361946Y-150580471D01*
X146370004Y-150602993D01*
X146375816Y-150626197D01*
X146379326Y-150649858D01*
X146380500Y-150673750D01*
X146380500Y-151586250D01*
X146379326Y-151610142D01*
X146375816Y-151633803D01*
X146370004Y-151657007D01*
X146361946Y-151679529D01*
X146351718Y-151701153D01*
X146339421Y-151721670D01*
X146325171Y-151740883D01*
X146309107Y-151758607D01*
X146291383Y-151774671D01*
X146272170Y-151788921D01*
X146251653Y-151801218D01*
X146230029Y-151811446D01*
X146207507Y-151819504D01*
X146184303Y-151825316D01*
X146160642Y-151828826D01*
X146136750Y-151830000D01*
X145649250Y-151830000D01*
X145625358Y-151828826D01*
X145601697Y-151825316D01*
X145578493Y-151819504D01*
X145555971Y-151811446D01*
X145534347Y-151801218D01*
X145513830Y-151788921D01*
X145494617Y-151774671D01*
X145476893Y-151758607D01*
X145460829Y-151740883D01*
X145446579Y-151721670D01*
X145434282Y-151701153D01*
X145424054Y-151679529D01*
X145415996Y-151657007D01*
X145410184Y-151633803D01*
X145406674Y-151610142D01*
X145405500Y-151586250D01*
X145405500Y-150673750D01*
X145406674Y-150649858D01*
X145410184Y-150626197D01*
X145415996Y-150602993D01*
X145424054Y-150580471D01*
X145434282Y-150558847D01*
X145446579Y-150538330D01*
X145460829Y-150519117D01*
X145476893Y-150501393D01*
X145494617Y-150485329D01*
X145513830Y-150471079D01*
X145534347Y-150458782D01*
X145555971Y-150448554D01*
X145578493Y-150440496D01*
X145601697Y-150434684D01*
X145625358Y-150431174D01*
X145649250Y-150430000D01*
X146136750Y-150430000D01*
X146160642Y-150431174D01*
X146160642Y-150431174D01*
G37*
D15*
G04 #@! TD*
G04 #@! TO.P,C42,2*
G04 #@! TO.N,GND*
X145893000Y-151130000D03*
D14*
G04 #@! TO.N,/~RESET*
G04 #@! TO.C,C43*
G36*
X153388142Y-144390674D02*
X153411803Y-144394184D01*
X153435007Y-144399996D01*
X153457529Y-144408054D01*
X153479153Y-144418282D01*
X153499670Y-144430579D01*
X153518883Y-144444829D01*
X153536607Y-144460893D01*
X153552671Y-144478617D01*
X153566921Y-144497830D01*
X153579218Y-144518347D01*
X153589446Y-144539971D01*
X153597504Y-144562493D01*
X153603316Y-144585697D01*
X153606826Y-144609358D01*
X153608000Y-144633250D01*
X153608000Y-145120750D01*
X153606826Y-145144642D01*
X153603316Y-145168303D01*
X153597504Y-145191507D01*
X153589446Y-145214029D01*
X153579218Y-145235653D01*
X153566921Y-145256170D01*
X153552671Y-145275383D01*
X153536607Y-145293107D01*
X153518883Y-145309171D01*
X153499670Y-145323421D01*
X153479153Y-145335718D01*
X153457529Y-145345946D01*
X153435007Y-145354004D01*
X153411803Y-145359816D01*
X153388142Y-145363326D01*
X153364250Y-145364500D01*
X152451750Y-145364500D01*
X152427858Y-145363326D01*
X152404197Y-145359816D01*
X152380993Y-145354004D01*
X152358471Y-145345946D01*
X152336847Y-145335718D01*
X152316330Y-145323421D01*
X152297117Y-145309171D01*
X152279393Y-145293107D01*
X152263329Y-145275383D01*
X152249079Y-145256170D01*
X152236782Y-145235653D01*
X152226554Y-145214029D01*
X152218496Y-145191507D01*
X152212684Y-145168303D01*
X152209174Y-145144642D01*
X152208000Y-145120750D01*
X152208000Y-144633250D01*
X152209174Y-144609358D01*
X152212684Y-144585697D01*
X152218496Y-144562493D01*
X152226554Y-144539971D01*
X152236782Y-144518347D01*
X152249079Y-144497830D01*
X152263329Y-144478617D01*
X152279393Y-144460893D01*
X152297117Y-144444829D01*
X152316330Y-144430579D01*
X152336847Y-144418282D01*
X152358471Y-144408054D01*
X152380993Y-144399996D01*
X152404197Y-144394184D01*
X152427858Y-144390674D01*
X152451750Y-144389500D01*
X153364250Y-144389500D01*
X153388142Y-144390674D01*
X153388142Y-144390674D01*
G37*
D15*
G04 #@! TD*
G04 #@! TO.P,C43,1*
G04 #@! TO.N,/~RESET*
X152908000Y-144877000D03*
D14*
G04 #@! TO.N,GND*
G04 #@! TO.C,C43*
G36*
X153388142Y-142515674D02*
X153411803Y-142519184D01*
X153435007Y-142524996D01*
X153457529Y-142533054D01*
X153479153Y-142543282D01*
X153499670Y-142555579D01*
X153518883Y-142569829D01*
X153536607Y-142585893D01*
X153552671Y-142603617D01*
X153566921Y-142622830D01*
X153579218Y-142643347D01*
X153589446Y-142664971D01*
X153597504Y-142687493D01*
X153603316Y-142710697D01*
X153606826Y-142734358D01*
X153608000Y-142758250D01*
X153608000Y-143245750D01*
X153606826Y-143269642D01*
X153603316Y-143293303D01*
X153597504Y-143316507D01*
X153589446Y-143339029D01*
X153579218Y-143360653D01*
X153566921Y-143381170D01*
X153552671Y-143400383D01*
X153536607Y-143418107D01*
X153518883Y-143434171D01*
X153499670Y-143448421D01*
X153479153Y-143460718D01*
X153457529Y-143470946D01*
X153435007Y-143479004D01*
X153411803Y-143484816D01*
X153388142Y-143488326D01*
X153364250Y-143489500D01*
X152451750Y-143489500D01*
X152427858Y-143488326D01*
X152404197Y-143484816D01*
X152380993Y-143479004D01*
X152358471Y-143470946D01*
X152336847Y-143460718D01*
X152316330Y-143448421D01*
X152297117Y-143434171D01*
X152279393Y-143418107D01*
X152263329Y-143400383D01*
X152249079Y-143381170D01*
X152236782Y-143360653D01*
X152226554Y-143339029D01*
X152218496Y-143316507D01*
X152212684Y-143293303D01*
X152209174Y-143269642D01*
X152208000Y-143245750D01*
X152208000Y-142758250D01*
X152209174Y-142734358D01*
X152212684Y-142710697D01*
X152218496Y-142687493D01*
X152226554Y-142664971D01*
X152236782Y-142643347D01*
X152249079Y-142622830D01*
X152263329Y-142603617D01*
X152279393Y-142585893D01*
X152297117Y-142569829D01*
X152316330Y-142555579D01*
X152336847Y-142543282D01*
X152358471Y-142533054D01*
X152380993Y-142524996D01*
X152404197Y-142519184D01*
X152427858Y-142515674D01*
X152451750Y-142514500D01*
X153364250Y-142514500D01*
X153388142Y-142515674D01*
X153388142Y-142515674D01*
G37*
D15*
G04 #@! TD*
G04 #@! TO.P,C43,2*
G04 #@! TO.N,GND*
X152908000Y-143002000D03*
D14*
G04 #@! TO.N,+5V*
G04 #@! TO.C,D1*
G36*
X113073642Y-128714174D02*
X113097303Y-128717684D01*
X113120507Y-128723496D01*
X113143029Y-128731554D01*
X113164653Y-128741782D01*
X113185170Y-128754079D01*
X113204383Y-128768329D01*
X113222107Y-128784393D01*
X113238171Y-128802117D01*
X113252421Y-128821330D01*
X113264718Y-128841847D01*
X113274946Y-128863471D01*
X113283004Y-128885993D01*
X113288816Y-128909197D01*
X113292326Y-128932858D01*
X113293500Y-128956750D01*
X113293500Y-129869250D01*
X113292326Y-129893142D01*
X113288816Y-129916803D01*
X113283004Y-129940007D01*
X113274946Y-129962529D01*
X113264718Y-129984153D01*
X113252421Y-130004670D01*
X113238171Y-130023883D01*
X113222107Y-130041607D01*
X113204383Y-130057671D01*
X113185170Y-130071921D01*
X113164653Y-130084218D01*
X113143029Y-130094446D01*
X113120507Y-130102504D01*
X113097303Y-130108316D01*
X113073642Y-130111826D01*
X113049750Y-130113000D01*
X112562250Y-130113000D01*
X112538358Y-130111826D01*
X112514697Y-130108316D01*
X112491493Y-130102504D01*
X112468971Y-130094446D01*
X112447347Y-130084218D01*
X112426830Y-130071921D01*
X112407617Y-130057671D01*
X112389893Y-130041607D01*
X112373829Y-130023883D01*
X112359579Y-130004670D01*
X112347282Y-129984153D01*
X112337054Y-129962529D01*
X112328996Y-129940007D01*
X112323184Y-129916803D01*
X112319674Y-129893142D01*
X112318500Y-129869250D01*
X112318500Y-128956750D01*
X112319674Y-128932858D01*
X112323184Y-128909197D01*
X112328996Y-128885993D01*
X112337054Y-128863471D01*
X112347282Y-128841847D01*
X112359579Y-128821330D01*
X112373829Y-128802117D01*
X112389893Y-128784393D01*
X112407617Y-128768329D01*
X112426830Y-128754079D01*
X112447347Y-128741782D01*
X112468971Y-128731554D01*
X112491493Y-128723496D01*
X112514697Y-128717684D01*
X112538358Y-128714174D01*
X112562250Y-128713000D01*
X113049750Y-128713000D01*
X113073642Y-128714174D01*
X113073642Y-128714174D01*
G37*
D15*
G04 #@! TD*
G04 #@! TO.P,D1,2*
G04 #@! TO.N,+5V*
X112806000Y-129413000D03*
D14*
G04 #@! TO.N,Net-(D1-Pad1)*
G04 #@! TO.C,D1*
G36*
X114948642Y-128714174D02*
X114972303Y-128717684D01*
X114995507Y-128723496D01*
X115018029Y-128731554D01*
X115039653Y-128741782D01*
X115060170Y-128754079D01*
X115079383Y-128768329D01*
X115097107Y-128784393D01*
X115113171Y-128802117D01*
X115127421Y-128821330D01*
X115139718Y-128841847D01*
X115149946Y-128863471D01*
X115158004Y-128885993D01*
X115163816Y-128909197D01*
X115167326Y-128932858D01*
X115168500Y-128956750D01*
X115168500Y-129869250D01*
X115167326Y-129893142D01*
X115163816Y-129916803D01*
X115158004Y-129940007D01*
X115149946Y-129962529D01*
X115139718Y-129984153D01*
X115127421Y-130004670D01*
X115113171Y-130023883D01*
X115097107Y-130041607D01*
X115079383Y-130057671D01*
X115060170Y-130071921D01*
X115039653Y-130084218D01*
X115018029Y-130094446D01*
X114995507Y-130102504D01*
X114972303Y-130108316D01*
X114948642Y-130111826D01*
X114924750Y-130113000D01*
X114437250Y-130113000D01*
X114413358Y-130111826D01*
X114389697Y-130108316D01*
X114366493Y-130102504D01*
X114343971Y-130094446D01*
X114322347Y-130084218D01*
X114301830Y-130071921D01*
X114282617Y-130057671D01*
X114264893Y-130041607D01*
X114248829Y-130023883D01*
X114234579Y-130004670D01*
X114222282Y-129984153D01*
X114212054Y-129962529D01*
X114203996Y-129940007D01*
X114198184Y-129916803D01*
X114194674Y-129893142D01*
X114193500Y-129869250D01*
X114193500Y-128956750D01*
X114194674Y-128932858D01*
X114198184Y-128909197D01*
X114203996Y-128885993D01*
X114212054Y-128863471D01*
X114222282Y-128841847D01*
X114234579Y-128821330D01*
X114248829Y-128802117D01*
X114264893Y-128784393D01*
X114282617Y-128768329D01*
X114301830Y-128754079D01*
X114322347Y-128741782D01*
X114343971Y-128731554D01*
X114366493Y-128723496D01*
X114389697Y-128717684D01*
X114413358Y-128714174D01*
X114437250Y-128713000D01*
X114924750Y-128713000D01*
X114948642Y-128714174D01*
X114948642Y-128714174D01*
G37*
D15*
G04 #@! TD*
G04 #@! TO.P,D1,1*
G04 #@! TO.N,Net-(D1-Pad1)*
X114681000Y-129413000D03*
D14*
G04 #@! TO.N,Net-(D2-Pad1)*
G04 #@! TO.C,D2*
G36*
X114948642Y-126047174D02*
X114972303Y-126050684D01*
X114995507Y-126056496D01*
X115018029Y-126064554D01*
X115039653Y-126074782D01*
X115060170Y-126087079D01*
X115079383Y-126101329D01*
X115097107Y-126117393D01*
X115113171Y-126135117D01*
X115127421Y-126154330D01*
X115139718Y-126174847D01*
X115149946Y-126196471D01*
X115158004Y-126218993D01*
X115163816Y-126242197D01*
X115167326Y-126265858D01*
X115168500Y-126289750D01*
X115168500Y-127202250D01*
X115167326Y-127226142D01*
X115163816Y-127249803D01*
X115158004Y-127273007D01*
X115149946Y-127295529D01*
X115139718Y-127317153D01*
X115127421Y-127337670D01*
X115113171Y-127356883D01*
X115097107Y-127374607D01*
X115079383Y-127390671D01*
X115060170Y-127404921D01*
X115039653Y-127417218D01*
X115018029Y-127427446D01*
X114995507Y-127435504D01*
X114972303Y-127441316D01*
X114948642Y-127444826D01*
X114924750Y-127446000D01*
X114437250Y-127446000D01*
X114413358Y-127444826D01*
X114389697Y-127441316D01*
X114366493Y-127435504D01*
X114343971Y-127427446D01*
X114322347Y-127417218D01*
X114301830Y-127404921D01*
X114282617Y-127390671D01*
X114264893Y-127374607D01*
X114248829Y-127356883D01*
X114234579Y-127337670D01*
X114222282Y-127317153D01*
X114212054Y-127295529D01*
X114203996Y-127273007D01*
X114198184Y-127249803D01*
X114194674Y-127226142D01*
X114193500Y-127202250D01*
X114193500Y-126289750D01*
X114194674Y-126265858D01*
X114198184Y-126242197D01*
X114203996Y-126218993D01*
X114212054Y-126196471D01*
X114222282Y-126174847D01*
X114234579Y-126154330D01*
X114248829Y-126135117D01*
X114264893Y-126117393D01*
X114282617Y-126101329D01*
X114301830Y-126087079D01*
X114322347Y-126074782D01*
X114343971Y-126064554D01*
X114366493Y-126056496D01*
X114389697Y-126050684D01*
X114413358Y-126047174D01*
X114437250Y-126046000D01*
X114924750Y-126046000D01*
X114948642Y-126047174D01*
X114948642Y-126047174D01*
G37*
D15*
G04 #@! TD*
G04 #@! TO.P,D2,1*
G04 #@! TO.N,Net-(D2-Pad1)*
X114681000Y-126746000D03*
D14*
G04 #@! TO.N,+3V3*
G04 #@! TO.C,D2*
G36*
X113073642Y-126047174D02*
X113097303Y-126050684D01*
X113120507Y-126056496D01*
X113143029Y-126064554D01*
X113164653Y-126074782D01*
X113185170Y-126087079D01*
X113204383Y-126101329D01*
X113222107Y-126117393D01*
X113238171Y-126135117D01*
X113252421Y-126154330D01*
X113264718Y-126174847D01*
X113274946Y-126196471D01*
X113283004Y-126218993D01*
X113288816Y-126242197D01*
X113292326Y-126265858D01*
X113293500Y-126289750D01*
X113293500Y-127202250D01*
X113292326Y-127226142D01*
X113288816Y-127249803D01*
X113283004Y-127273007D01*
X113274946Y-127295529D01*
X113264718Y-127317153D01*
X113252421Y-127337670D01*
X113238171Y-127356883D01*
X113222107Y-127374607D01*
X113204383Y-127390671D01*
X113185170Y-127404921D01*
X113164653Y-127417218D01*
X113143029Y-127427446D01*
X113120507Y-127435504D01*
X113097303Y-127441316D01*
X113073642Y-127444826D01*
X113049750Y-127446000D01*
X112562250Y-127446000D01*
X112538358Y-127444826D01*
X112514697Y-127441316D01*
X112491493Y-127435504D01*
X112468971Y-127427446D01*
X112447347Y-127417218D01*
X112426830Y-127404921D01*
X112407617Y-127390671D01*
X112389893Y-127374607D01*
X112373829Y-127356883D01*
X112359579Y-127337670D01*
X112347282Y-127317153D01*
X112337054Y-127295529D01*
X112328996Y-127273007D01*
X112323184Y-127249803D01*
X112319674Y-127226142D01*
X112318500Y-127202250D01*
X112318500Y-126289750D01*
X112319674Y-126265858D01*
X112323184Y-126242197D01*
X112328996Y-126218993D01*
X112337054Y-126196471D01*
X112347282Y-126174847D01*
X112359579Y-126154330D01*
X112373829Y-126135117D01*
X112389893Y-126117393D01*
X112407617Y-126101329D01*
X112426830Y-126087079D01*
X112447347Y-126074782D01*
X112468971Y-126064554D01*
X112491493Y-126056496D01*
X112514697Y-126050684D01*
X112538358Y-126047174D01*
X112562250Y-126046000D01*
X113049750Y-126046000D01*
X113073642Y-126047174D01*
X113073642Y-126047174D01*
G37*
D15*
G04 #@! TD*
G04 #@! TO.P,D2,2*
G04 #@! TO.N,+3V3*
X112806000Y-126746000D03*
D14*
G04 #@! TO.N,+1V2*
G04 #@! TO.C,D3*
G36*
X113137142Y-123380174D02*
X113160803Y-123383684D01*
X113184007Y-123389496D01*
X113206529Y-123397554D01*
X113228153Y-123407782D01*
X113248670Y-123420079D01*
X113267883Y-123434329D01*
X113285607Y-123450393D01*
X113301671Y-123468117D01*
X113315921Y-123487330D01*
X113328218Y-123507847D01*
X113338446Y-123529471D01*
X113346504Y-123551993D01*
X113352316Y-123575197D01*
X113355826Y-123598858D01*
X113357000Y-123622750D01*
X113357000Y-124535250D01*
X113355826Y-124559142D01*
X113352316Y-124582803D01*
X113346504Y-124606007D01*
X113338446Y-124628529D01*
X113328218Y-124650153D01*
X113315921Y-124670670D01*
X113301671Y-124689883D01*
X113285607Y-124707607D01*
X113267883Y-124723671D01*
X113248670Y-124737921D01*
X113228153Y-124750218D01*
X113206529Y-124760446D01*
X113184007Y-124768504D01*
X113160803Y-124774316D01*
X113137142Y-124777826D01*
X113113250Y-124779000D01*
X112625750Y-124779000D01*
X112601858Y-124777826D01*
X112578197Y-124774316D01*
X112554993Y-124768504D01*
X112532471Y-124760446D01*
X112510847Y-124750218D01*
X112490330Y-124737921D01*
X112471117Y-124723671D01*
X112453393Y-124707607D01*
X112437329Y-124689883D01*
X112423079Y-124670670D01*
X112410782Y-124650153D01*
X112400554Y-124628529D01*
X112392496Y-124606007D01*
X112386684Y-124582803D01*
X112383174Y-124559142D01*
X112382000Y-124535250D01*
X112382000Y-123622750D01*
X112383174Y-123598858D01*
X112386684Y-123575197D01*
X112392496Y-123551993D01*
X112400554Y-123529471D01*
X112410782Y-123507847D01*
X112423079Y-123487330D01*
X112437329Y-123468117D01*
X112453393Y-123450393D01*
X112471117Y-123434329D01*
X112490330Y-123420079D01*
X112510847Y-123407782D01*
X112532471Y-123397554D01*
X112554993Y-123389496D01*
X112578197Y-123383684D01*
X112601858Y-123380174D01*
X112625750Y-123379000D01*
X113113250Y-123379000D01*
X113137142Y-123380174D01*
X113137142Y-123380174D01*
G37*
D15*
G04 #@! TD*
G04 #@! TO.P,D3,2*
G04 #@! TO.N,+1V2*
X112869500Y-124079000D03*
D14*
G04 #@! TO.N,Net-(D3-Pad1)*
G04 #@! TO.C,D3*
G36*
X115012142Y-123380174D02*
X115035803Y-123383684D01*
X115059007Y-123389496D01*
X115081529Y-123397554D01*
X115103153Y-123407782D01*
X115123670Y-123420079D01*
X115142883Y-123434329D01*
X115160607Y-123450393D01*
X115176671Y-123468117D01*
X115190921Y-123487330D01*
X115203218Y-123507847D01*
X115213446Y-123529471D01*
X115221504Y-123551993D01*
X115227316Y-123575197D01*
X115230826Y-123598858D01*
X115232000Y-123622750D01*
X115232000Y-124535250D01*
X115230826Y-124559142D01*
X115227316Y-124582803D01*
X115221504Y-124606007D01*
X115213446Y-124628529D01*
X115203218Y-124650153D01*
X115190921Y-124670670D01*
X115176671Y-124689883D01*
X115160607Y-124707607D01*
X115142883Y-124723671D01*
X115123670Y-124737921D01*
X115103153Y-124750218D01*
X115081529Y-124760446D01*
X115059007Y-124768504D01*
X115035803Y-124774316D01*
X115012142Y-124777826D01*
X114988250Y-124779000D01*
X114500750Y-124779000D01*
X114476858Y-124777826D01*
X114453197Y-124774316D01*
X114429993Y-124768504D01*
X114407471Y-124760446D01*
X114385847Y-124750218D01*
X114365330Y-124737921D01*
X114346117Y-124723671D01*
X114328393Y-124707607D01*
X114312329Y-124689883D01*
X114298079Y-124670670D01*
X114285782Y-124650153D01*
X114275554Y-124628529D01*
X114267496Y-124606007D01*
X114261684Y-124582803D01*
X114258174Y-124559142D01*
X114257000Y-124535250D01*
X114257000Y-123622750D01*
X114258174Y-123598858D01*
X114261684Y-123575197D01*
X114267496Y-123551993D01*
X114275554Y-123529471D01*
X114285782Y-123507847D01*
X114298079Y-123487330D01*
X114312329Y-123468117D01*
X114328393Y-123450393D01*
X114346117Y-123434329D01*
X114365330Y-123420079D01*
X114385847Y-123407782D01*
X114407471Y-123397554D01*
X114429993Y-123389496D01*
X114453197Y-123383684D01*
X114476858Y-123380174D01*
X114500750Y-123379000D01*
X114988250Y-123379000D01*
X115012142Y-123380174D01*
X115012142Y-123380174D01*
G37*
D15*
G04 #@! TD*
G04 #@! TO.P,D3,1*
G04 #@! TO.N,Net-(D3-Pad1)*
X114744500Y-124079000D03*
D14*
G04 #@! TO.N,Net-(D4-Pad1)*
G04 #@! TO.C,D4*
G36*
X114997142Y-120332174D02*
X115020803Y-120335684D01*
X115044007Y-120341496D01*
X115066529Y-120349554D01*
X115088153Y-120359782D01*
X115108670Y-120372079D01*
X115127883Y-120386329D01*
X115145607Y-120402393D01*
X115161671Y-120420117D01*
X115175921Y-120439330D01*
X115188218Y-120459847D01*
X115198446Y-120481471D01*
X115206504Y-120503993D01*
X115212316Y-120527197D01*
X115215826Y-120550858D01*
X115217000Y-120574750D01*
X115217000Y-121487250D01*
X115215826Y-121511142D01*
X115212316Y-121534803D01*
X115206504Y-121558007D01*
X115198446Y-121580529D01*
X115188218Y-121602153D01*
X115175921Y-121622670D01*
X115161671Y-121641883D01*
X115145607Y-121659607D01*
X115127883Y-121675671D01*
X115108670Y-121689921D01*
X115088153Y-121702218D01*
X115066529Y-121712446D01*
X115044007Y-121720504D01*
X115020803Y-121726316D01*
X114997142Y-121729826D01*
X114973250Y-121731000D01*
X114485750Y-121731000D01*
X114461858Y-121729826D01*
X114438197Y-121726316D01*
X114414993Y-121720504D01*
X114392471Y-121712446D01*
X114370847Y-121702218D01*
X114350330Y-121689921D01*
X114331117Y-121675671D01*
X114313393Y-121659607D01*
X114297329Y-121641883D01*
X114283079Y-121622670D01*
X114270782Y-121602153D01*
X114260554Y-121580529D01*
X114252496Y-121558007D01*
X114246684Y-121534803D01*
X114243174Y-121511142D01*
X114242000Y-121487250D01*
X114242000Y-120574750D01*
X114243174Y-120550858D01*
X114246684Y-120527197D01*
X114252496Y-120503993D01*
X114260554Y-120481471D01*
X114270782Y-120459847D01*
X114283079Y-120439330D01*
X114297329Y-120420117D01*
X114313393Y-120402393D01*
X114331117Y-120386329D01*
X114350330Y-120372079D01*
X114370847Y-120359782D01*
X114392471Y-120349554D01*
X114414993Y-120341496D01*
X114438197Y-120335684D01*
X114461858Y-120332174D01*
X114485750Y-120331000D01*
X114973250Y-120331000D01*
X114997142Y-120332174D01*
X114997142Y-120332174D01*
G37*
D15*
G04 #@! TD*
G04 #@! TO.P,D4,1*
G04 #@! TO.N,Net-(D4-Pad1)*
X114729500Y-121031000D03*
D14*
G04 #@! TO.N,Net-(D4-Pad2)*
G04 #@! TO.C,D4*
G36*
X113122142Y-120332174D02*
X113145803Y-120335684D01*
X113169007Y-120341496D01*
X113191529Y-120349554D01*
X113213153Y-120359782D01*
X113233670Y-120372079D01*
X113252883Y-120386329D01*
X113270607Y-120402393D01*
X113286671Y-120420117D01*
X113300921Y-120439330D01*
X113313218Y-120459847D01*
X113323446Y-120481471D01*
X113331504Y-120503993D01*
X113337316Y-120527197D01*
X113340826Y-120550858D01*
X113342000Y-120574750D01*
X113342000Y-121487250D01*
X113340826Y-121511142D01*
X113337316Y-121534803D01*
X113331504Y-121558007D01*
X113323446Y-121580529D01*
X113313218Y-121602153D01*
X113300921Y-121622670D01*
X113286671Y-121641883D01*
X113270607Y-121659607D01*
X113252883Y-121675671D01*
X113233670Y-121689921D01*
X113213153Y-121702218D01*
X113191529Y-121712446D01*
X113169007Y-121720504D01*
X113145803Y-121726316D01*
X113122142Y-121729826D01*
X113098250Y-121731000D01*
X112610750Y-121731000D01*
X112586858Y-121729826D01*
X112563197Y-121726316D01*
X112539993Y-121720504D01*
X112517471Y-121712446D01*
X112495847Y-121702218D01*
X112475330Y-121689921D01*
X112456117Y-121675671D01*
X112438393Y-121659607D01*
X112422329Y-121641883D01*
X112408079Y-121622670D01*
X112395782Y-121602153D01*
X112385554Y-121580529D01*
X112377496Y-121558007D01*
X112371684Y-121534803D01*
X112368174Y-121511142D01*
X112367000Y-121487250D01*
X112367000Y-120574750D01*
X112368174Y-120550858D01*
X112371684Y-120527197D01*
X112377496Y-120503993D01*
X112385554Y-120481471D01*
X112395782Y-120459847D01*
X112408079Y-120439330D01*
X112422329Y-120420117D01*
X112438393Y-120402393D01*
X112456117Y-120386329D01*
X112475330Y-120372079D01*
X112495847Y-120359782D01*
X112517471Y-120349554D01*
X112539993Y-120341496D01*
X112563197Y-120335684D01*
X112586858Y-120332174D01*
X112610750Y-120331000D01*
X113098250Y-120331000D01*
X113122142Y-120332174D01*
X113122142Y-120332174D01*
G37*
D15*
G04 #@! TD*
G04 #@! TO.P,D4,2*
G04 #@! TO.N,Net-(D4-Pad2)*
X112854500Y-121031000D03*
D14*
G04 #@! TO.N,+3V3*
G04 #@! TO.C,FB2*
G36*
X146212642Y-148279174D02*
X146236303Y-148282684D01*
X146259507Y-148288496D01*
X146282029Y-148296554D01*
X146303653Y-148306782D01*
X146324170Y-148319079D01*
X146343383Y-148333329D01*
X146361107Y-148349393D01*
X146377171Y-148367117D01*
X146391421Y-148386330D01*
X146403718Y-148406847D01*
X146413946Y-148428471D01*
X146422004Y-148450993D01*
X146427816Y-148474197D01*
X146431326Y-148497858D01*
X146432500Y-148521750D01*
X146432500Y-149009250D01*
X146431326Y-149033142D01*
X146427816Y-149056803D01*
X146422004Y-149080007D01*
X146413946Y-149102529D01*
X146403718Y-149124153D01*
X146391421Y-149144670D01*
X146377171Y-149163883D01*
X146361107Y-149181607D01*
X146343383Y-149197671D01*
X146324170Y-149211921D01*
X146303653Y-149224218D01*
X146282029Y-149234446D01*
X146259507Y-149242504D01*
X146236303Y-149248316D01*
X146212642Y-149251826D01*
X146188750Y-149253000D01*
X145276250Y-149253000D01*
X145252358Y-149251826D01*
X145228697Y-149248316D01*
X145205493Y-149242504D01*
X145182971Y-149234446D01*
X145161347Y-149224218D01*
X145140830Y-149211921D01*
X145121617Y-149197671D01*
X145103893Y-149181607D01*
X145087829Y-149163883D01*
X145073579Y-149144670D01*
X145061282Y-149124153D01*
X145051054Y-149102529D01*
X145042996Y-149080007D01*
X145037184Y-149056803D01*
X145033674Y-149033142D01*
X145032500Y-149009250D01*
X145032500Y-148521750D01*
X145033674Y-148497858D01*
X145037184Y-148474197D01*
X145042996Y-148450993D01*
X145051054Y-148428471D01*
X145061282Y-148406847D01*
X145073579Y-148386330D01*
X145087829Y-148367117D01*
X145103893Y-148349393D01*
X145121617Y-148333329D01*
X145140830Y-148319079D01*
X145161347Y-148306782D01*
X145182971Y-148296554D01*
X145205493Y-148288496D01*
X145228697Y-148282684D01*
X145252358Y-148279174D01*
X145276250Y-148278000D01*
X146188750Y-148278000D01*
X146212642Y-148279174D01*
X146212642Y-148279174D01*
G37*
D15*
G04 #@! TD*
G04 #@! TO.P,FB2,2*
G04 #@! TO.N,+3V3*
X145732500Y-148765500D03*
D14*
G04 #@! TO.N,/IOVCC_SII*
G04 #@! TO.C,FB2*
G36*
X146212642Y-146404174D02*
X146236303Y-146407684D01*
X146259507Y-146413496D01*
X146282029Y-146421554D01*
X146303653Y-146431782D01*
X146324170Y-146444079D01*
X146343383Y-146458329D01*
X146361107Y-146474393D01*
X146377171Y-146492117D01*
X146391421Y-146511330D01*
X146403718Y-146531847D01*
X146413946Y-146553471D01*
X146422004Y-146575993D01*
X146427816Y-146599197D01*
X146431326Y-146622858D01*
X146432500Y-146646750D01*
X146432500Y-147134250D01*
X146431326Y-147158142D01*
X146427816Y-147181803D01*
X146422004Y-147205007D01*
X146413946Y-147227529D01*
X146403718Y-147249153D01*
X146391421Y-147269670D01*
X146377171Y-147288883D01*
X146361107Y-147306607D01*
X146343383Y-147322671D01*
X146324170Y-147336921D01*
X146303653Y-147349218D01*
X146282029Y-147359446D01*
X146259507Y-147367504D01*
X146236303Y-147373316D01*
X146212642Y-147376826D01*
X146188750Y-147378000D01*
X145276250Y-147378000D01*
X145252358Y-147376826D01*
X145228697Y-147373316D01*
X145205493Y-147367504D01*
X145182971Y-147359446D01*
X145161347Y-147349218D01*
X145140830Y-147336921D01*
X145121617Y-147322671D01*
X145103893Y-147306607D01*
X145087829Y-147288883D01*
X145073579Y-147269670D01*
X145061282Y-147249153D01*
X145051054Y-147227529D01*
X145042996Y-147205007D01*
X145037184Y-147181803D01*
X145033674Y-147158142D01*
X145032500Y-147134250D01*
X145032500Y-146646750D01*
X145033674Y-146622858D01*
X145037184Y-146599197D01*
X145042996Y-146575993D01*
X145051054Y-146553471D01*
X145061282Y-146531847D01*
X145073579Y-146511330D01*
X145087829Y-146492117D01*
X145103893Y-146474393D01*
X145121617Y-146458329D01*
X145140830Y-146444079D01*
X145161347Y-146431782D01*
X145182971Y-146421554D01*
X145205493Y-146413496D01*
X145228697Y-146407684D01*
X145252358Y-146404174D01*
X145276250Y-146403000D01*
X146188750Y-146403000D01*
X146212642Y-146404174D01*
X146212642Y-146404174D01*
G37*
D15*
G04 #@! TD*
G04 #@! TO.P,FB2,1*
G04 #@! TO.N,/IOVCC_SII*
X145732500Y-146890500D03*
D14*
G04 #@! TO.N,+1V2*
G04 #@! TO.C,FB3*
G36*
X137259142Y-148357674D02*
X137282803Y-148361184D01*
X137306007Y-148366996D01*
X137328529Y-148375054D01*
X137350153Y-148385282D01*
X137370670Y-148397579D01*
X137389883Y-148411829D01*
X137407607Y-148427893D01*
X137423671Y-148445617D01*
X137437921Y-148464830D01*
X137450218Y-148485347D01*
X137460446Y-148506971D01*
X137468504Y-148529493D01*
X137474316Y-148552697D01*
X137477826Y-148576358D01*
X137479000Y-148600250D01*
X137479000Y-149087750D01*
X137477826Y-149111642D01*
X137474316Y-149135303D01*
X137468504Y-149158507D01*
X137460446Y-149181029D01*
X137450218Y-149202653D01*
X137437921Y-149223170D01*
X137423671Y-149242383D01*
X137407607Y-149260107D01*
X137389883Y-149276171D01*
X137370670Y-149290421D01*
X137350153Y-149302718D01*
X137328529Y-149312946D01*
X137306007Y-149321004D01*
X137282803Y-149326816D01*
X137259142Y-149330326D01*
X137235250Y-149331500D01*
X136322750Y-149331500D01*
X136298858Y-149330326D01*
X136275197Y-149326816D01*
X136251993Y-149321004D01*
X136229471Y-149312946D01*
X136207847Y-149302718D01*
X136187330Y-149290421D01*
X136168117Y-149276171D01*
X136150393Y-149260107D01*
X136134329Y-149242383D01*
X136120079Y-149223170D01*
X136107782Y-149202653D01*
X136097554Y-149181029D01*
X136089496Y-149158507D01*
X136083684Y-149135303D01*
X136080174Y-149111642D01*
X136079000Y-149087750D01*
X136079000Y-148600250D01*
X136080174Y-148576358D01*
X136083684Y-148552697D01*
X136089496Y-148529493D01*
X136097554Y-148506971D01*
X136107782Y-148485347D01*
X136120079Y-148464830D01*
X136134329Y-148445617D01*
X136150393Y-148427893D01*
X136168117Y-148411829D01*
X136187330Y-148397579D01*
X136207847Y-148385282D01*
X136229471Y-148375054D01*
X136251993Y-148366996D01*
X136275197Y-148361184D01*
X136298858Y-148357674D01*
X136322750Y-148356500D01*
X137235250Y-148356500D01*
X137259142Y-148357674D01*
X137259142Y-148357674D01*
G37*
D15*
G04 #@! TD*
G04 #@! TO.P,FB3,2*
G04 #@! TO.N,+1V2*
X136779000Y-148844000D03*
D14*
G04 #@! TO.N,/AVCC_SII*
G04 #@! TO.C,FB3*
G36*
X137259142Y-146482674D02*
X137282803Y-146486184D01*
X137306007Y-146491996D01*
X137328529Y-146500054D01*
X137350153Y-146510282D01*
X137370670Y-146522579D01*
X137389883Y-146536829D01*
X137407607Y-146552893D01*
X137423671Y-146570617D01*
X137437921Y-146589830D01*
X137450218Y-146610347D01*
X137460446Y-146631971D01*
X137468504Y-146654493D01*
X137474316Y-146677697D01*
X137477826Y-146701358D01*
X137479000Y-146725250D01*
X137479000Y-147212750D01*
X137477826Y-147236642D01*
X137474316Y-147260303D01*
X137468504Y-147283507D01*
X137460446Y-147306029D01*
X137450218Y-147327653D01*
X137437921Y-147348170D01*
X137423671Y-147367383D01*
X137407607Y-147385107D01*
X137389883Y-147401171D01*
X137370670Y-147415421D01*
X137350153Y-147427718D01*
X137328529Y-147437946D01*
X137306007Y-147446004D01*
X137282803Y-147451816D01*
X137259142Y-147455326D01*
X137235250Y-147456500D01*
X136322750Y-147456500D01*
X136298858Y-147455326D01*
X136275197Y-147451816D01*
X136251993Y-147446004D01*
X136229471Y-147437946D01*
X136207847Y-147427718D01*
X136187330Y-147415421D01*
X136168117Y-147401171D01*
X136150393Y-147385107D01*
X136134329Y-147367383D01*
X136120079Y-147348170D01*
X136107782Y-147327653D01*
X136097554Y-147306029D01*
X136089496Y-147283507D01*
X136083684Y-147260303D01*
X136080174Y-147236642D01*
X136079000Y-147212750D01*
X136079000Y-146725250D01*
X136080174Y-146701358D01*
X136083684Y-146677697D01*
X136089496Y-146654493D01*
X136097554Y-146631971D01*
X136107782Y-146610347D01*
X136120079Y-146589830D01*
X136134329Y-146570617D01*
X136150393Y-146552893D01*
X136168117Y-146536829D01*
X136187330Y-146522579D01*
X136207847Y-146510282D01*
X136229471Y-146500054D01*
X136251993Y-146491996D01*
X136275197Y-146486184D01*
X136298858Y-146482674D01*
X136322750Y-146481500D01*
X137235250Y-146481500D01*
X137259142Y-146482674D01*
X137259142Y-146482674D01*
G37*
D15*
G04 #@! TD*
G04 #@! TO.P,FB3,1*
G04 #@! TO.N,/AVCC_SII*
X136779000Y-146969000D03*
D14*
G04 #@! TO.N,GND*
G04 #@! TO.C,R2*
G36*
X119647642Y-126047174D02*
X119671303Y-126050684D01*
X119694507Y-126056496D01*
X119717029Y-126064554D01*
X119738653Y-126074782D01*
X119759170Y-126087079D01*
X119778383Y-126101329D01*
X119796107Y-126117393D01*
X119812171Y-126135117D01*
X119826421Y-126154330D01*
X119838718Y-126174847D01*
X119848946Y-126196471D01*
X119857004Y-126218993D01*
X119862816Y-126242197D01*
X119866326Y-126265858D01*
X119867500Y-126289750D01*
X119867500Y-127202250D01*
X119866326Y-127226142D01*
X119862816Y-127249803D01*
X119857004Y-127273007D01*
X119848946Y-127295529D01*
X119838718Y-127317153D01*
X119826421Y-127337670D01*
X119812171Y-127356883D01*
X119796107Y-127374607D01*
X119778383Y-127390671D01*
X119759170Y-127404921D01*
X119738653Y-127417218D01*
X119717029Y-127427446D01*
X119694507Y-127435504D01*
X119671303Y-127441316D01*
X119647642Y-127444826D01*
X119623750Y-127446000D01*
X119136250Y-127446000D01*
X119112358Y-127444826D01*
X119088697Y-127441316D01*
X119065493Y-127435504D01*
X119042971Y-127427446D01*
X119021347Y-127417218D01*
X119000830Y-127404921D01*
X118981617Y-127390671D01*
X118963893Y-127374607D01*
X118947829Y-127356883D01*
X118933579Y-127337670D01*
X118921282Y-127317153D01*
X118911054Y-127295529D01*
X118902996Y-127273007D01*
X118897184Y-127249803D01*
X118893674Y-127226142D01*
X118892500Y-127202250D01*
X118892500Y-126289750D01*
X118893674Y-126265858D01*
X118897184Y-126242197D01*
X118902996Y-126218993D01*
X118911054Y-126196471D01*
X118921282Y-126174847D01*
X118933579Y-126154330D01*
X118947829Y-126135117D01*
X118963893Y-126117393D01*
X118981617Y-126101329D01*
X119000830Y-126087079D01*
X119021347Y-126074782D01*
X119042971Y-126064554D01*
X119065493Y-126056496D01*
X119088697Y-126050684D01*
X119112358Y-126047174D01*
X119136250Y-126046000D01*
X119623750Y-126046000D01*
X119647642Y-126047174D01*
X119647642Y-126047174D01*
G37*
D15*
G04 #@! TD*
G04 #@! TO.P,R2,2*
G04 #@! TO.N,GND*
X119380000Y-126746000D03*
D14*
G04 #@! TO.N,Net-(D2-Pad1)*
G04 #@! TO.C,R2*
G36*
X117772642Y-126047174D02*
X117796303Y-126050684D01*
X117819507Y-126056496D01*
X117842029Y-126064554D01*
X117863653Y-126074782D01*
X117884170Y-126087079D01*
X117903383Y-126101329D01*
X117921107Y-126117393D01*
X117937171Y-126135117D01*
X117951421Y-126154330D01*
X117963718Y-126174847D01*
X117973946Y-126196471D01*
X117982004Y-126218993D01*
X117987816Y-126242197D01*
X117991326Y-126265858D01*
X117992500Y-126289750D01*
X117992500Y-127202250D01*
X117991326Y-127226142D01*
X117987816Y-127249803D01*
X117982004Y-127273007D01*
X117973946Y-127295529D01*
X117963718Y-127317153D01*
X117951421Y-127337670D01*
X117937171Y-127356883D01*
X117921107Y-127374607D01*
X117903383Y-127390671D01*
X117884170Y-127404921D01*
X117863653Y-127417218D01*
X117842029Y-127427446D01*
X117819507Y-127435504D01*
X117796303Y-127441316D01*
X117772642Y-127444826D01*
X117748750Y-127446000D01*
X117261250Y-127446000D01*
X117237358Y-127444826D01*
X117213697Y-127441316D01*
X117190493Y-127435504D01*
X117167971Y-127427446D01*
X117146347Y-127417218D01*
X117125830Y-127404921D01*
X117106617Y-127390671D01*
X117088893Y-127374607D01*
X117072829Y-127356883D01*
X117058579Y-127337670D01*
X117046282Y-127317153D01*
X117036054Y-127295529D01*
X117027996Y-127273007D01*
X117022184Y-127249803D01*
X117018674Y-127226142D01*
X117017500Y-127202250D01*
X117017500Y-126289750D01*
X117018674Y-126265858D01*
X117022184Y-126242197D01*
X117027996Y-126218993D01*
X117036054Y-126196471D01*
X117046282Y-126174847D01*
X117058579Y-126154330D01*
X117072829Y-126135117D01*
X117088893Y-126117393D01*
X117106617Y-126101329D01*
X117125830Y-126087079D01*
X117146347Y-126074782D01*
X117167971Y-126064554D01*
X117190493Y-126056496D01*
X117213697Y-126050684D01*
X117237358Y-126047174D01*
X117261250Y-126046000D01*
X117748750Y-126046000D01*
X117772642Y-126047174D01*
X117772642Y-126047174D01*
G37*
D15*
G04 #@! TD*
G04 #@! TO.P,R2,1*
G04 #@! TO.N,Net-(D2-Pad1)*
X117505000Y-126746000D03*
D14*
G04 #@! TO.N,/CSCL*
G04 #@! TO.C,R3*
G36*
X126591142Y-113148674D02*
X126614803Y-113152184D01*
X126638007Y-113157996D01*
X126660529Y-113166054D01*
X126682153Y-113176282D01*
X126702670Y-113188579D01*
X126721883Y-113202829D01*
X126739607Y-113218893D01*
X126755671Y-113236617D01*
X126769921Y-113255830D01*
X126782218Y-113276347D01*
X126792446Y-113297971D01*
X126800504Y-113320493D01*
X126806316Y-113343697D01*
X126809826Y-113367358D01*
X126811000Y-113391250D01*
X126811000Y-113878750D01*
X126809826Y-113902642D01*
X126806316Y-113926303D01*
X126800504Y-113949507D01*
X126792446Y-113972029D01*
X126782218Y-113993653D01*
X126769921Y-114014170D01*
X126755671Y-114033383D01*
X126739607Y-114051107D01*
X126721883Y-114067171D01*
X126702670Y-114081421D01*
X126682153Y-114093718D01*
X126660529Y-114103946D01*
X126638007Y-114112004D01*
X126614803Y-114117816D01*
X126591142Y-114121326D01*
X126567250Y-114122500D01*
X125654750Y-114122500D01*
X125630858Y-114121326D01*
X125607197Y-114117816D01*
X125583993Y-114112004D01*
X125561471Y-114103946D01*
X125539847Y-114093718D01*
X125519330Y-114081421D01*
X125500117Y-114067171D01*
X125482393Y-114051107D01*
X125466329Y-114033383D01*
X125452079Y-114014170D01*
X125439782Y-113993653D01*
X125429554Y-113972029D01*
X125421496Y-113949507D01*
X125415684Y-113926303D01*
X125412174Y-113902642D01*
X125411000Y-113878750D01*
X125411000Y-113391250D01*
X125412174Y-113367358D01*
X125415684Y-113343697D01*
X125421496Y-113320493D01*
X125429554Y-113297971D01*
X125439782Y-113276347D01*
X125452079Y-113255830D01*
X125466329Y-113236617D01*
X125482393Y-113218893D01*
X125500117Y-113202829D01*
X125519330Y-113188579D01*
X125539847Y-113176282D01*
X125561471Y-113166054D01*
X125583993Y-113157996D01*
X125607197Y-113152184D01*
X125630858Y-113148674D01*
X125654750Y-113147500D01*
X126567250Y-113147500D01*
X126591142Y-113148674D01*
X126591142Y-113148674D01*
G37*
D15*
G04 #@! TD*
G04 #@! TO.P,R3,2*
G04 #@! TO.N,/CSCL*
X126111000Y-113635000D03*
D14*
G04 #@! TO.N,+3V3*
G04 #@! TO.C,R3*
G36*
X126591142Y-111273674D02*
X126614803Y-111277184D01*
X126638007Y-111282996D01*
X126660529Y-111291054D01*
X126682153Y-111301282D01*
X126702670Y-111313579D01*
X126721883Y-111327829D01*
X126739607Y-111343893D01*
X126755671Y-111361617D01*
X126769921Y-111380830D01*
X126782218Y-111401347D01*
X126792446Y-111422971D01*
X126800504Y-111445493D01*
X126806316Y-111468697D01*
X126809826Y-111492358D01*
X126811000Y-111516250D01*
X126811000Y-112003750D01*
X126809826Y-112027642D01*
X126806316Y-112051303D01*
X126800504Y-112074507D01*
X126792446Y-112097029D01*
X126782218Y-112118653D01*
X126769921Y-112139170D01*
X126755671Y-112158383D01*
X126739607Y-112176107D01*
X126721883Y-112192171D01*
X126702670Y-112206421D01*
X126682153Y-112218718D01*
X126660529Y-112228946D01*
X126638007Y-112237004D01*
X126614803Y-112242816D01*
X126591142Y-112246326D01*
X126567250Y-112247500D01*
X125654750Y-112247500D01*
X125630858Y-112246326D01*
X125607197Y-112242816D01*
X125583993Y-112237004D01*
X125561471Y-112228946D01*
X125539847Y-112218718D01*
X125519330Y-112206421D01*
X125500117Y-112192171D01*
X125482393Y-112176107D01*
X125466329Y-112158383D01*
X125452079Y-112139170D01*
X125439782Y-112118653D01*
X125429554Y-112097029D01*
X125421496Y-112074507D01*
X125415684Y-112051303D01*
X125412174Y-112027642D01*
X125411000Y-112003750D01*
X125411000Y-111516250D01*
X125412174Y-111492358D01*
X125415684Y-111468697D01*
X125421496Y-111445493D01*
X125429554Y-111422971D01*
X125439782Y-111401347D01*
X125452079Y-111380830D01*
X125466329Y-111361617D01*
X125482393Y-111343893D01*
X125500117Y-111327829D01*
X125519330Y-111313579D01*
X125539847Y-111301282D01*
X125561471Y-111291054D01*
X125583993Y-111282996D01*
X125607197Y-111277184D01*
X125630858Y-111273674D01*
X125654750Y-111272500D01*
X126567250Y-111272500D01*
X126591142Y-111273674D01*
X126591142Y-111273674D01*
G37*
D15*
G04 #@! TD*
G04 #@! TO.P,R3,1*
G04 #@! TO.N,+3V3*
X126111000Y-111760000D03*
D14*
G04 #@! TO.N,+3V3*
G04 #@! TO.C,R4*
G36*
X129004142Y-111273674D02*
X129027803Y-111277184D01*
X129051007Y-111282996D01*
X129073529Y-111291054D01*
X129095153Y-111301282D01*
X129115670Y-111313579D01*
X129134883Y-111327829D01*
X129152607Y-111343893D01*
X129168671Y-111361617D01*
X129182921Y-111380830D01*
X129195218Y-111401347D01*
X129205446Y-111422971D01*
X129213504Y-111445493D01*
X129219316Y-111468697D01*
X129222826Y-111492358D01*
X129224000Y-111516250D01*
X129224000Y-112003750D01*
X129222826Y-112027642D01*
X129219316Y-112051303D01*
X129213504Y-112074507D01*
X129205446Y-112097029D01*
X129195218Y-112118653D01*
X129182921Y-112139170D01*
X129168671Y-112158383D01*
X129152607Y-112176107D01*
X129134883Y-112192171D01*
X129115670Y-112206421D01*
X129095153Y-112218718D01*
X129073529Y-112228946D01*
X129051007Y-112237004D01*
X129027803Y-112242816D01*
X129004142Y-112246326D01*
X128980250Y-112247500D01*
X128067750Y-112247500D01*
X128043858Y-112246326D01*
X128020197Y-112242816D01*
X127996993Y-112237004D01*
X127974471Y-112228946D01*
X127952847Y-112218718D01*
X127932330Y-112206421D01*
X127913117Y-112192171D01*
X127895393Y-112176107D01*
X127879329Y-112158383D01*
X127865079Y-112139170D01*
X127852782Y-112118653D01*
X127842554Y-112097029D01*
X127834496Y-112074507D01*
X127828684Y-112051303D01*
X127825174Y-112027642D01*
X127824000Y-112003750D01*
X127824000Y-111516250D01*
X127825174Y-111492358D01*
X127828684Y-111468697D01*
X127834496Y-111445493D01*
X127842554Y-111422971D01*
X127852782Y-111401347D01*
X127865079Y-111380830D01*
X127879329Y-111361617D01*
X127895393Y-111343893D01*
X127913117Y-111327829D01*
X127932330Y-111313579D01*
X127952847Y-111301282D01*
X127974471Y-111291054D01*
X127996993Y-111282996D01*
X128020197Y-111277184D01*
X128043858Y-111273674D01*
X128067750Y-111272500D01*
X128980250Y-111272500D01*
X129004142Y-111273674D01*
X129004142Y-111273674D01*
G37*
D15*
G04 #@! TD*
G04 #@! TO.P,R4,1*
G04 #@! TO.N,+3V3*
X128524000Y-111760000D03*
D14*
G04 #@! TO.N,/CSDA*
G04 #@! TO.C,R4*
G36*
X129004142Y-113148674D02*
X129027803Y-113152184D01*
X129051007Y-113157996D01*
X129073529Y-113166054D01*
X129095153Y-113176282D01*
X129115670Y-113188579D01*
X129134883Y-113202829D01*
X129152607Y-113218893D01*
X129168671Y-113236617D01*
X129182921Y-113255830D01*
X129195218Y-113276347D01*
X129205446Y-113297971D01*
X129213504Y-113320493D01*
X129219316Y-113343697D01*
X129222826Y-113367358D01*
X129224000Y-113391250D01*
X129224000Y-113878750D01*
X129222826Y-113902642D01*
X129219316Y-113926303D01*
X129213504Y-113949507D01*
X129205446Y-113972029D01*
X129195218Y-113993653D01*
X129182921Y-114014170D01*
X129168671Y-114033383D01*
X129152607Y-114051107D01*
X129134883Y-114067171D01*
X129115670Y-114081421D01*
X129095153Y-114093718D01*
X129073529Y-114103946D01*
X129051007Y-114112004D01*
X129027803Y-114117816D01*
X129004142Y-114121326D01*
X128980250Y-114122500D01*
X128067750Y-114122500D01*
X128043858Y-114121326D01*
X128020197Y-114117816D01*
X127996993Y-114112004D01*
X127974471Y-114103946D01*
X127952847Y-114093718D01*
X127932330Y-114081421D01*
X127913117Y-114067171D01*
X127895393Y-114051107D01*
X127879329Y-114033383D01*
X127865079Y-114014170D01*
X127852782Y-113993653D01*
X127842554Y-113972029D01*
X127834496Y-113949507D01*
X127828684Y-113926303D01*
X127825174Y-113902642D01*
X127824000Y-113878750D01*
X127824000Y-113391250D01*
X127825174Y-113367358D01*
X127828684Y-113343697D01*
X127834496Y-113320493D01*
X127842554Y-113297971D01*
X127852782Y-113276347D01*
X127865079Y-113255830D01*
X127879329Y-113236617D01*
X127895393Y-113218893D01*
X127913117Y-113202829D01*
X127932330Y-113188579D01*
X127952847Y-113176282D01*
X127974471Y-113166054D01*
X127996993Y-113157996D01*
X128020197Y-113152184D01*
X128043858Y-113148674D01*
X128067750Y-113147500D01*
X128980250Y-113147500D01*
X129004142Y-113148674D01*
X129004142Y-113148674D01*
G37*
D15*
G04 #@! TD*
G04 #@! TO.P,R4,2*
G04 #@! TO.N,/CSDA*
X128524000Y-113635000D03*
D14*
G04 #@! TO.N,Net-(D3-Pad1)*
G04 #@! TO.C,R5*
G36*
X117770342Y-123380174D02*
X117794003Y-123383684D01*
X117817207Y-123389496D01*
X117839729Y-123397554D01*
X117861353Y-123407782D01*
X117881870Y-123420079D01*
X117901083Y-123434329D01*
X117918807Y-123450393D01*
X117934871Y-123468117D01*
X117949121Y-123487330D01*
X117961418Y-123507847D01*
X117971646Y-123529471D01*
X117979704Y-123551993D01*
X117985516Y-123575197D01*
X117989026Y-123598858D01*
X117990200Y-123622750D01*
X117990200Y-124535250D01*
X117989026Y-124559142D01*
X117985516Y-124582803D01*
X117979704Y-124606007D01*
X117971646Y-124628529D01*
X117961418Y-124650153D01*
X117949121Y-124670670D01*
X117934871Y-124689883D01*
X117918807Y-124707607D01*
X117901083Y-124723671D01*
X117881870Y-124737921D01*
X117861353Y-124750218D01*
X117839729Y-124760446D01*
X117817207Y-124768504D01*
X117794003Y-124774316D01*
X117770342Y-124777826D01*
X117746450Y-124779000D01*
X117258950Y-124779000D01*
X117235058Y-124777826D01*
X117211397Y-124774316D01*
X117188193Y-124768504D01*
X117165671Y-124760446D01*
X117144047Y-124750218D01*
X117123530Y-124737921D01*
X117104317Y-124723671D01*
X117086593Y-124707607D01*
X117070529Y-124689883D01*
X117056279Y-124670670D01*
X117043982Y-124650153D01*
X117033754Y-124628529D01*
X117025696Y-124606007D01*
X117019884Y-124582803D01*
X117016374Y-124559142D01*
X117015200Y-124535250D01*
X117015200Y-123622750D01*
X117016374Y-123598858D01*
X117019884Y-123575197D01*
X117025696Y-123551993D01*
X117033754Y-123529471D01*
X117043982Y-123507847D01*
X117056279Y-123487330D01*
X117070529Y-123468117D01*
X117086593Y-123450393D01*
X117104317Y-123434329D01*
X117123530Y-123420079D01*
X117144047Y-123407782D01*
X117165671Y-123397554D01*
X117188193Y-123389496D01*
X117211397Y-123383684D01*
X117235058Y-123380174D01*
X117258950Y-123379000D01*
X117746450Y-123379000D01*
X117770342Y-123380174D01*
X117770342Y-123380174D01*
G37*
D15*
G04 #@! TD*
G04 #@! TO.P,R5,1*
G04 #@! TO.N,Net-(D3-Pad1)*
X117502700Y-124079000D03*
D14*
G04 #@! TO.N,GND*
G04 #@! TO.C,R5*
G36*
X119645342Y-123380174D02*
X119669003Y-123383684D01*
X119692207Y-123389496D01*
X119714729Y-123397554D01*
X119736353Y-123407782D01*
X119756870Y-123420079D01*
X119776083Y-123434329D01*
X119793807Y-123450393D01*
X119809871Y-123468117D01*
X119824121Y-123487330D01*
X119836418Y-123507847D01*
X119846646Y-123529471D01*
X119854704Y-123551993D01*
X119860516Y-123575197D01*
X119864026Y-123598858D01*
X119865200Y-123622750D01*
X119865200Y-124535250D01*
X119864026Y-124559142D01*
X119860516Y-124582803D01*
X119854704Y-124606007D01*
X119846646Y-124628529D01*
X119836418Y-124650153D01*
X119824121Y-124670670D01*
X119809871Y-124689883D01*
X119793807Y-124707607D01*
X119776083Y-124723671D01*
X119756870Y-124737921D01*
X119736353Y-124750218D01*
X119714729Y-124760446D01*
X119692207Y-124768504D01*
X119669003Y-124774316D01*
X119645342Y-124777826D01*
X119621450Y-124779000D01*
X119133950Y-124779000D01*
X119110058Y-124777826D01*
X119086397Y-124774316D01*
X119063193Y-124768504D01*
X119040671Y-124760446D01*
X119019047Y-124750218D01*
X118998530Y-124737921D01*
X118979317Y-124723671D01*
X118961593Y-124707607D01*
X118945529Y-124689883D01*
X118931279Y-124670670D01*
X118918982Y-124650153D01*
X118908754Y-124628529D01*
X118900696Y-124606007D01*
X118894884Y-124582803D01*
X118891374Y-124559142D01*
X118890200Y-124535250D01*
X118890200Y-123622750D01*
X118891374Y-123598858D01*
X118894884Y-123575197D01*
X118900696Y-123551993D01*
X118908754Y-123529471D01*
X118918982Y-123507847D01*
X118931279Y-123487330D01*
X118945529Y-123468117D01*
X118961593Y-123450393D01*
X118979317Y-123434329D01*
X118998530Y-123420079D01*
X119019047Y-123407782D01*
X119040671Y-123397554D01*
X119063193Y-123389496D01*
X119086397Y-123383684D01*
X119110058Y-123380174D01*
X119133950Y-123379000D01*
X119621450Y-123379000D01*
X119645342Y-123380174D01*
X119645342Y-123380174D01*
G37*
D15*
G04 #@! TD*
G04 #@! TO.P,R5,2*
G04 #@! TO.N,GND*
X119377700Y-124079000D03*
D14*
G04 #@! TO.N,Net-(D4-Pad1)*
G04 #@! TO.C,R6*
G36*
X117772642Y-120332174D02*
X117796303Y-120335684D01*
X117819507Y-120341496D01*
X117842029Y-120349554D01*
X117863653Y-120359782D01*
X117884170Y-120372079D01*
X117903383Y-120386329D01*
X117921107Y-120402393D01*
X117937171Y-120420117D01*
X117951421Y-120439330D01*
X117963718Y-120459847D01*
X117973946Y-120481471D01*
X117982004Y-120503993D01*
X117987816Y-120527197D01*
X117991326Y-120550858D01*
X117992500Y-120574750D01*
X117992500Y-121487250D01*
X117991326Y-121511142D01*
X117987816Y-121534803D01*
X117982004Y-121558007D01*
X117973946Y-121580529D01*
X117963718Y-121602153D01*
X117951421Y-121622670D01*
X117937171Y-121641883D01*
X117921107Y-121659607D01*
X117903383Y-121675671D01*
X117884170Y-121689921D01*
X117863653Y-121702218D01*
X117842029Y-121712446D01*
X117819507Y-121720504D01*
X117796303Y-121726316D01*
X117772642Y-121729826D01*
X117748750Y-121731000D01*
X117261250Y-121731000D01*
X117237358Y-121729826D01*
X117213697Y-121726316D01*
X117190493Y-121720504D01*
X117167971Y-121712446D01*
X117146347Y-121702218D01*
X117125830Y-121689921D01*
X117106617Y-121675671D01*
X117088893Y-121659607D01*
X117072829Y-121641883D01*
X117058579Y-121622670D01*
X117046282Y-121602153D01*
X117036054Y-121580529D01*
X117027996Y-121558007D01*
X117022184Y-121534803D01*
X117018674Y-121511142D01*
X117017500Y-121487250D01*
X117017500Y-120574750D01*
X117018674Y-120550858D01*
X117022184Y-120527197D01*
X117027996Y-120503993D01*
X117036054Y-120481471D01*
X117046282Y-120459847D01*
X117058579Y-120439330D01*
X117072829Y-120420117D01*
X117088893Y-120402393D01*
X117106617Y-120386329D01*
X117125830Y-120372079D01*
X117146347Y-120359782D01*
X117167971Y-120349554D01*
X117190493Y-120341496D01*
X117213697Y-120335684D01*
X117237358Y-120332174D01*
X117261250Y-120331000D01*
X117748750Y-120331000D01*
X117772642Y-120332174D01*
X117772642Y-120332174D01*
G37*
D15*
G04 #@! TD*
G04 #@! TO.P,R6,2*
G04 #@! TO.N,Net-(D4-Pad1)*
X117505000Y-121031000D03*
D14*
G04 #@! TO.N,GND*
G04 #@! TO.C,R6*
G36*
X119647642Y-120332174D02*
X119671303Y-120335684D01*
X119694507Y-120341496D01*
X119717029Y-120349554D01*
X119738653Y-120359782D01*
X119759170Y-120372079D01*
X119778383Y-120386329D01*
X119796107Y-120402393D01*
X119812171Y-120420117D01*
X119826421Y-120439330D01*
X119838718Y-120459847D01*
X119848946Y-120481471D01*
X119857004Y-120503993D01*
X119862816Y-120527197D01*
X119866326Y-120550858D01*
X119867500Y-120574750D01*
X119867500Y-121487250D01*
X119866326Y-121511142D01*
X119862816Y-121534803D01*
X119857004Y-121558007D01*
X119848946Y-121580529D01*
X119838718Y-121602153D01*
X119826421Y-121622670D01*
X119812171Y-121641883D01*
X119796107Y-121659607D01*
X119778383Y-121675671D01*
X119759170Y-121689921D01*
X119738653Y-121702218D01*
X119717029Y-121712446D01*
X119694507Y-121720504D01*
X119671303Y-121726316D01*
X119647642Y-121729826D01*
X119623750Y-121731000D01*
X119136250Y-121731000D01*
X119112358Y-121729826D01*
X119088697Y-121726316D01*
X119065493Y-121720504D01*
X119042971Y-121712446D01*
X119021347Y-121702218D01*
X119000830Y-121689921D01*
X118981617Y-121675671D01*
X118963893Y-121659607D01*
X118947829Y-121641883D01*
X118933579Y-121622670D01*
X118921282Y-121602153D01*
X118911054Y-121580529D01*
X118902996Y-121558007D01*
X118897184Y-121534803D01*
X118893674Y-121511142D01*
X118892500Y-121487250D01*
X118892500Y-120574750D01*
X118893674Y-120550858D01*
X118897184Y-120527197D01*
X118902996Y-120503993D01*
X118911054Y-120481471D01*
X118921282Y-120459847D01*
X118933579Y-120439330D01*
X118947829Y-120420117D01*
X118963893Y-120402393D01*
X118981617Y-120386329D01*
X119000830Y-120372079D01*
X119021347Y-120359782D01*
X119042971Y-120349554D01*
X119065493Y-120341496D01*
X119088697Y-120335684D01*
X119112358Y-120332174D01*
X119136250Y-120331000D01*
X119623750Y-120331000D01*
X119647642Y-120332174D01*
X119647642Y-120332174D01*
G37*
D15*
G04 #@! TD*
G04 #@! TO.P,R6,1*
G04 #@! TO.N,GND*
X119380000Y-121031000D03*
D16*
G04 #@! TO.P,SW1,2*
G04 #@! TO.N,/~RESET*
X159730000Y-137630000D03*
X159730000Y-145580000D03*
G04 #@! TO.P,SW1,1*
G04 #@! TO.N,GND*
X155230000Y-137630000D03*
X155230000Y-145580000D03*
G04 #@! TD*
D17*
G04 #@! TO.P,U1,2*
G04 #@! TO.N,+5V*
X134112000Y-159868000D03*
D18*
X134112000Y-153568000D03*
G04 #@! TO.P,U1,3*
G04 #@! TO.N,/USB_VIN*
X131812000Y-153568000D03*
G04 #@! TO.P,U1,1*
G04 #@! TO.N,GND*
X136412000Y-153568000D03*
G04 #@! TD*
D19*
G04 #@! TO.P,U2,1*
G04 #@! TO.N,GND*
X153314000Y-149274500D03*
G04 #@! TO.P,U2,3*
G04 #@! TO.N,/USB_VIN*
X153314000Y-153874500D03*
G04 #@! TO.P,U2,2*
G04 #@! TO.N,+3V3*
X153314000Y-151574500D03*
D20*
X159614000Y-151574500D03*
G04 #@! TD*
D17*
G04 #@! TO.P,U3,2*
G04 #@! TO.N,+1V2*
X143065500Y-159931500D03*
D18*
X143065500Y-153631500D03*
G04 #@! TO.P,U3,3*
G04 #@! TO.N,/USB_VIN*
X140765500Y-153631500D03*
G04 #@! TO.P,U3,1*
G04 #@! TO.N,GND*
X145365500Y-153631500D03*
G04 #@! TD*
D21*
G04 #@! TO.P,J1,6*
G04 #@! TO.N,GND*
X156723000Y-159506500D03*
X151243000Y-159506500D03*
D22*
X151023000Y-158756500D03*
X156973000Y-158756500D03*
D19*
X151123000Y-157456500D03*
X156873000Y-157436500D03*
D23*
G04 #@! TO.P,J1,1*
G04 #@! TO.N,/USB_VIN*
X152673000Y-157556500D03*
G04 #@! TO.P,J1,2*
G04 #@! TO.N,/USB1_D-*
X153323000Y-157556500D03*
G04 #@! TO.P,J1,3*
G04 #@! TO.N,/USB1_D+*
X153973000Y-157556500D03*
G04 #@! TO.P,J1,4*
G04 #@! TO.N,Net-(J1-Pad4)*
X154623000Y-157556500D03*
G04 #@! TO.P,J1,5*
G04 #@! TO.N,GND*
X155273000Y-157556500D03*
D24*
G04 #@! TO.P,J1,6*
X151553000Y-157436500D03*
X156393000Y-157436500D03*
D25*
X151243000Y-160436500D03*
X156703000Y-160436500D03*
D26*
X153013000Y-160706500D03*
X154933000Y-160706500D03*
G04 #@! TD*
D27*
G04 #@! TO.P,J3,1*
G04 #@! TO.N,/~RESET*
X120269000Y-112537000D03*
G04 #@! TO.P,J3,2*
G04 #@! TO.N,/SWCLK*
X120269000Y-117587000D03*
G04 #@! TO.P,J3,3*
G04 #@! TO.N,Net-(J3-Pad3)*
X117729000Y-112537000D03*
G04 #@! TO.P,J3,4*
G04 #@! TO.N,/SWDIO*
X117729000Y-117587000D03*
G04 #@! TO.P,J3,5*
G04 #@! TO.N,GND*
X115189000Y-112537000D03*
G04 #@! TO.P,J3,6*
X115189000Y-117587000D03*
G04 #@! TD*
D28*
G04 #@! TO.P,USB VIN,1*
G04 #@! TO.N,/USB_VIN*
X148082000Y-159766000D03*
G04 #@! TD*
G04 #@! TO.P,USB D+,1*
G04 #@! TO.N,/USB1_D+*
X158750000Y-134366000D03*
G04 #@! TD*
G04 #@! TO.P,USB D-,1*
G04 #@! TO.N,/USB1_D-*
X153289000Y-146812000D03*
G04 #@! TD*
G04 #@! TO.P,+5V,1*
G04 #@! TO.N,+5V*
X138430000Y-157226000D03*
G04 #@! TD*
G04 #@! TO.P,+3V3,1*
G04 #@! TO.N,+3V3*
X159766000Y-156718000D03*
G04 #@! TD*
G04 #@! TO.P,R Cr 7,1*
G04 #@! TO.N,/R_CR_7*
X148336000Y-142621000D03*
G04 #@! TD*
G04 #@! TO.P,+1V2,1*
G04 #@! TO.N,+1V2*
X147828000Y-157099000D03*
G04 #@! TD*
G04 #@! TO.P,CSCL,1*
G04 #@! TO.N,/CSCL*
X124079000Y-113665000D03*
G04 #@! TD*
G04 #@! TO.P,CSDA,1*
G04 #@! TO.N,/CSDA*
X130429000Y-113665000D03*
G04 #@! TD*
G04 #@! TO.P,R Cr 0,1*
G04 #@! TO.N,/R_CR_0*
X142748000Y-138430000D03*
G04 #@! TD*
G04 #@! TO.P,G Y 7,1*
G04 #@! TO.N,/G_Y_7*
X136017000Y-139446000D03*
G04 #@! TD*
G04 #@! TO.P,G Y 0,1*
G04 #@! TO.N,/G_Y_0*
X131445000Y-132334000D03*
G04 #@! TD*
G04 #@! TO.P,B Cb 7,1*
G04 #@! TO.N,/B_CB_7*
X131445000Y-128524000D03*
G04 #@! TD*
G04 #@! TO.P,OSC,1*
G04 #@! TO.N,/OSC_IN*
X124079000Y-122174000D03*
G04 #@! TD*
G04 #@! TO.P,B Cb 0,1*
G04 #@! TO.N,/B_CB_0*
X121539000Y-130429000D03*
G04 #@! TD*
G04 #@! TO.P,OSC 32,1*
G04 #@! TO.N,/OSC32_IN*
X126111000Y-116967000D03*
G04 #@! TD*
G04 #@! TO.P,SCL,1*
G04 #@! TO.N,/SCL*
X113665000Y-145986500D03*
G04 #@! TD*
G04 #@! TO.P,SDA,1*
G04 #@! TO.N,/SDA*
X112014000Y-147066000D03*
G04 #@! TD*
G04 #@! TO.P,DE,1*
G04 #@! TO.N,/DE*
X129476500Y-116840000D03*
G04 #@! TD*
G04 #@! TO.P,HSYNC,1*
G04 #@! TO.N,/HSYNC*
X132080000Y-115062000D03*
G04 #@! TD*
G04 #@! TO.P,VSYNC,1*
G04 #@! TO.N,/VSYNC*
X132143500Y-112776000D03*
G04 #@! TD*
G04 #@! TO.P,IDCK,1*
G04 #@! TO.N,/IDCK*
X130619500Y-120777000D03*
G04 #@! TD*
D29*
G04 #@! TO.P,U4,1*
G04 #@! TO.N,/IOVCC_SII*
X129698000Y-132508000D03*
G04 #@! TO.P,U4,2*
G04 #@! TO.N,GND*
X129198000Y-132508000D03*
G04 #@! TO.P,U4,3*
X128698000Y-132508000D03*
G04 #@! TO.P,U4,4*
X128198000Y-132508000D03*
G04 #@! TO.P,U4,5*
G04 #@! TO.N,/CVCC12_SII*
X127698000Y-132508000D03*
G04 #@! TO.P,U4,6*
G04 #@! TO.N,GND*
X127198000Y-132508000D03*
G04 #@! TO.P,U4,7*
G04 #@! TO.N,/B_CB_7*
X126698000Y-132508000D03*
G04 #@! TO.P,U4,8*
G04 #@! TO.N,/B_CB_6*
X126198000Y-132508000D03*
G04 #@! TO.P,U4,9*
G04 #@! TO.N,/B_CB_5*
X125698000Y-132508000D03*
G04 #@! TO.P,U4,10*
G04 #@! TO.N,/B_CB_4*
X125198000Y-132508000D03*
G04 #@! TO.P,U4,11*
G04 #@! TO.N,/B_CB_3*
X124698000Y-132508000D03*
G04 #@! TO.P,U4,12*
G04 #@! TO.N,/IOVCC_SII*
X124198000Y-132508000D03*
G04 #@! TO.P,U4,13*
G04 #@! TO.N,/B_CB_2*
X123698000Y-132508000D03*
G04 #@! TO.P,U4,14*
G04 #@! TO.N,/B_CB_1*
X123198000Y-132508000D03*
G04 #@! TO.P,U4,15*
G04 #@! TO.N,/B_CB_0*
X122698000Y-132508000D03*
G04 #@! TO.P,U4,16*
G04 #@! TO.N,/CVCC12_SII*
X122198000Y-132508000D03*
G04 #@! TO.P,U4,17*
G04 #@! TO.N,GND*
X121698000Y-132508000D03*
G04 #@! TO.P,U4,18*
X121198000Y-132508000D03*
G04 #@! TO.P,U4,19*
X120698000Y-132508000D03*
G04 #@! TO.P,U4,20*
X120198000Y-132508000D03*
G04 #@! TO.P,U4,21*
G04 #@! TO.N,/CVCC12_SII*
X119698000Y-132508000D03*
G04 #@! TO.P,U4,22*
G04 #@! TO.N,/IDCK*
X119198000Y-132508000D03*
G04 #@! TO.P,U4,23*
G04 #@! TO.N,/VSYNC*
X118698000Y-132508000D03*
G04 #@! TO.P,U4,24*
G04 #@! TO.N,/HSYNC*
X118198000Y-132508000D03*
G04 #@! TO.P,U4,25*
G04 #@! TO.N,/DE*
X117698000Y-132508000D03*
D30*
G04 #@! TO.P,U4,26*
G04 #@! TO.N,Net-(U4-Pad26)*
X115998000Y-134208000D03*
G04 #@! TO.P,U4,27*
G04 #@! TO.N,Net-(U4-Pad27)*
X115998000Y-134708000D03*
G04 #@! TO.P,U4,28*
G04 #@! TO.N,Net-(U4-Pad28)*
X115998000Y-135208000D03*
G04 #@! TO.P,U4,29*
G04 #@! TO.N,Net-(U4-Pad29)*
X115998000Y-135708000D03*
G04 #@! TO.P,U4,30*
G04 #@! TO.N,Net-(U4-Pad30)*
X115998000Y-136208000D03*
G04 #@! TO.P,U4,31*
G04 #@! TO.N,Net-(U4-Pad31)*
X115998000Y-136708000D03*
G04 #@! TO.P,U4,32*
G04 #@! TO.N,Net-(U4-Pad32)*
X115998000Y-137208000D03*
G04 #@! TO.P,U4,33*
G04 #@! TO.N,Net-(U4-Pad33)*
X115998000Y-137708000D03*
G04 #@! TO.P,U4,34*
G04 #@! TO.N,Net-(U4-Pad34)*
X115998000Y-138208000D03*
G04 #@! TO.P,U4,35*
G04 #@! TO.N,Net-(U4-Pad35)*
X115998000Y-138708000D03*
G04 #@! TO.P,U4,36*
G04 #@! TO.N,Net-(U4-Pad36)*
X115998000Y-139208000D03*
G04 #@! TO.P,U4,37*
G04 #@! TO.N,/IOVCC_SII*
X115998000Y-139708000D03*
G04 #@! TO.P,U4,38*
G04 #@! TO.N,/CVCC12_SII*
X115998000Y-140208000D03*
G04 #@! TO.P,U4,39*
G04 #@! TO.N,Net-(U4-Pad39)*
X115998000Y-140708000D03*
G04 #@! TO.P,U4,40*
G04 #@! TO.N,/CEC*
X115998000Y-141208000D03*
G04 #@! TO.P,U4,41*
G04 #@! TO.N,/SDA*
X115998000Y-141708000D03*
G04 #@! TO.P,U4,42*
G04 #@! TO.N,/SCL*
X115998000Y-142208000D03*
G04 #@! TO.P,U4,43*
G04 #@! TO.N,/CI2CA*
X115998000Y-142708000D03*
G04 #@! TO.P,U4,44*
G04 #@! TO.N,/CSDA*
X115998000Y-143208000D03*
G04 #@! TO.P,U4,45*
G04 #@! TO.N,/CSCL*
X115998000Y-143708000D03*
G04 #@! TO.P,U4,46*
G04 #@! TO.N,/INT_SII*
X115998000Y-144208000D03*
G04 #@! TO.P,U4,47*
G04 #@! TO.N,/~RESET*
X115998000Y-144708000D03*
G04 #@! TO.P,U4,48*
G04 #@! TO.N,GND*
X115998000Y-145208000D03*
G04 #@! TO.P,U4,49*
G04 #@! TO.N,Net-(U4-Pad49)*
X115998000Y-145708000D03*
G04 #@! TO.P,U4,50*
G04 #@! TO.N,Net-(U4-Pad50)*
X115998000Y-146208000D03*
D29*
G04 #@! TO.P,U4,51*
G04 #@! TO.N,Net-(U4-Pad51)*
X117698000Y-147908000D03*
G04 #@! TO.P,U4,52*
G04 #@! TO.N,Net-(R7-Pad1)*
X118198000Y-147908000D03*
G04 #@! TO.P,U4,53*
G04 #@! TO.N,GND*
X118698000Y-147908000D03*
G04 #@! TO.P,U4,54*
G04 #@! TO.N,/CLK-*
X119198000Y-147908000D03*
G04 #@! TO.P,U4,55*
G04 #@! TO.N,/CLK+*
X119698000Y-147908000D03*
G04 #@! TO.P,U4,56*
G04 #@! TO.N,/AVCC_SII*
X120198000Y-147908000D03*
G04 #@! TO.P,U4,57*
G04 #@! TO.N,/D0-*
X120698000Y-147908000D03*
G04 #@! TO.P,U4,58*
G04 #@! TO.N,/D0+*
X121198000Y-147908000D03*
G04 #@! TO.P,U4,59*
G04 #@! TO.N,/D1-*
X121698000Y-147908000D03*
G04 #@! TO.P,U4,60*
G04 #@! TO.N,/D1+*
X122198000Y-147908000D03*
G04 #@! TO.P,U4,61*
G04 #@! TO.N,/AVCC_SII*
X122698000Y-147908000D03*
G04 #@! TO.P,U4,62*
G04 #@! TO.N,/D2-*
X123198000Y-147908000D03*
G04 #@! TO.P,U4,63*
G04 #@! TO.N,/D2+*
X123698000Y-147908000D03*
G04 #@! TO.P,U4,64*
G04 #@! TO.N,Net-(U4-Pad64)*
X124198000Y-147908000D03*
G04 #@! TO.P,U4,65*
G04 #@! TO.N,Net-(U4-Pad65)*
X124698000Y-147908000D03*
G04 #@! TO.P,U4,66*
G04 #@! TO.N,Net-(U4-Pad66)*
X125198000Y-147908000D03*
G04 #@! TO.P,U4,67*
G04 #@! TO.N,Net-(U4-Pad67)*
X125698000Y-147908000D03*
G04 #@! TO.P,U4,68*
G04 #@! TO.N,Net-(U4-Pad68)*
X126198000Y-147908000D03*
G04 #@! TO.P,U4,69*
G04 #@! TO.N,Net-(U4-Pad69)*
X126698000Y-147908000D03*
G04 #@! TO.P,U4,70*
G04 #@! TO.N,Net-(U4-Pad70)*
X127198000Y-147908000D03*
G04 #@! TO.P,U4,71*
G04 #@! TO.N,Net-(U4-Pad71)*
X127698000Y-147908000D03*
G04 #@! TO.P,U4,72*
G04 #@! TO.N,Net-(U4-Pad72)*
X128198000Y-147908000D03*
G04 #@! TO.P,U4,73*
G04 #@! TO.N,Net-(U4-Pad73)*
X128698000Y-147908000D03*
G04 #@! TO.P,U4,74*
G04 #@! TO.N,Net-(U4-Pad74)*
X129198000Y-147908000D03*
G04 #@! TO.P,U4,75*
G04 #@! TO.N,Net-(U4-Pad75)*
X129698000Y-147908000D03*
D30*
G04 #@! TO.P,U4,76*
G04 #@! TO.N,/HPD*
X131398000Y-146208000D03*
G04 #@! TO.P,U4,77*
G04 #@! TO.N,Net-(U4-Pad77)*
X131398000Y-145708000D03*
G04 #@! TO.P,U4,78*
G04 #@! TO.N,/R_CR_7*
X131398000Y-145208000D03*
G04 #@! TO.P,U4,79*
G04 #@! TO.N,/R_CR_6*
X131398000Y-144708000D03*
G04 #@! TO.P,U4,80*
G04 #@! TO.N,/R_CR_5*
X131398000Y-144208000D03*
G04 #@! TO.P,U4,81*
G04 #@! TO.N,/R_CR_4*
X131398000Y-143708000D03*
G04 #@! TO.P,U4,82*
G04 #@! TO.N,/R_CR_3*
X131398000Y-143208000D03*
G04 #@! TO.P,U4,83*
G04 #@! TO.N,/R_CR_2*
X131398000Y-142708000D03*
G04 #@! TO.P,U4,84*
G04 #@! TO.N,/R_CR_1*
X131398000Y-142208000D03*
G04 #@! TO.P,U4,85*
G04 #@! TO.N,/R_CR_0*
X131398000Y-141708000D03*
G04 #@! TO.P,U4,86*
G04 #@! TO.N,GND*
X131398000Y-141208000D03*
G04 #@! TO.P,U4,87*
X131398000Y-140708000D03*
G04 #@! TO.P,U4,88*
G04 #@! TO.N,/CVCC12_SII*
X131398000Y-140208000D03*
G04 #@! TO.P,U4,89*
G04 #@! TO.N,GND*
X131398000Y-139708000D03*
G04 #@! TO.P,U4,90*
X131398000Y-139208000D03*
G04 #@! TO.P,U4,91*
G04 #@! TO.N,/IOVCC_SII*
X131398000Y-138708000D03*
G04 #@! TO.P,U4,92*
G04 #@! TO.N,/G_Y_7*
X131398000Y-138208000D03*
G04 #@! TO.P,U4,93*
G04 #@! TO.N,/G_Y_6*
X131398000Y-137708000D03*
G04 #@! TO.P,U4,94*
G04 #@! TO.N,/G_Y_5*
X131398000Y-137208000D03*
G04 #@! TO.P,U4,95*
G04 #@! TO.N,/G_Y_4*
X131398000Y-136708000D03*
G04 #@! TO.P,U4,96*
G04 #@! TO.N,/G_Y_3*
X131398000Y-136208000D03*
G04 #@! TO.P,U4,97*
G04 #@! TO.N,/G_Y_2*
X131398000Y-135708000D03*
G04 #@! TO.P,U4,98*
G04 #@! TO.N,/G_Y_1*
X131398000Y-135208000D03*
G04 #@! TO.P,U4,99*
G04 #@! TO.N,/G_Y_0*
X131398000Y-134708000D03*
G04 #@! TO.P,U4,100*
G04 #@! TO.N,GND*
X131398000Y-134208000D03*
D31*
G04 #@! TO.P,U4,101*
X123698000Y-140208000D03*
G04 #@! TD*
D14*
G04 #@! TO.N,+3V3*
G04 #@! TO.C,R9*
G36*
X147460642Y-144208174D02*
X147484303Y-144211684D01*
X147507507Y-144217496D01*
X147530029Y-144225554D01*
X147551653Y-144235782D01*
X147572170Y-144248079D01*
X147591383Y-144262329D01*
X147609107Y-144278393D01*
X147625171Y-144296117D01*
X147639421Y-144315330D01*
X147651718Y-144335847D01*
X147661946Y-144357471D01*
X147670004Y-144379993D01*
X147675816Y-144403197D01*
X147679326Y-144426858D01*
X147680500Y-144450750D01*
X147680500Y-145363250D01*
X147679326Y-145387142D01*
X147675816Y-145410803D01*
X147670004Y-145434007D01*
X147661946Y-145456529D01*
X147651718Y-145478153D01*
X147639421Y-145498670D01*
X147625171Y-145517883D01*
X147609107Y-145535607D01*
X147591383Y-145551671D01*
X147572170Y-145565921D01*
X147551653Y-145578218D01*
X147530029Y-145588446D01*
X147507507Y-145596504D01*
X147484303Y-145602316D01*
X147460642Y-145605826D01*
X147436750Y-145607000D01*
X146949250Y-145607000D01*
X146925358Y-145605826D01*
X146901697Y-145602316D01*
X146878493Y-145596504D01*
X146855971Y-145588446D01*
X146834347Y-145578218D01*
X146813830Y-145565921D01*
X146794617Y-145551671D01*
X146776893Y-145535607D01*
X146760829Y-145517883D01*
X146746579Y-145498670D01*
X146734282Y-145478153D01*
X146724054Y-145456529D01*
X146715996Y-145434007D01*
X146710184Y-145410803D01*
X146706674Y-145387142D01*
X146705500Y-145363250D01*
X146705500Y-144450750D01*
X146706674Y-144426858D01*
X146710184Y-144403197D01*
X146715996Y-144379993D01*
X146724054Y-144357471D01*
X146734282Y-144335847D01*
X146746579Y-144315330D01*
X146760829Y-144296117D01*
X146776893Y-144278393D01*
X146794617Y-144262329D01*
X146813830Y-144248079D01*
X146834347Y-144235782D01*
X146855971Y-144225554D01*
X146878493Y-144217496D01*
X146901697Y-144211684D01*
X146925358Y-144208174D01*
X146949250Y-144207000D01*
X147436750Y-144207000D01*
X147460642Y-144208174D01*
X147460642Y-144208174D01*
G37*
D15*
G04 #@! TD*
G04 #@! TO.P,R9,1*
G04 #@! TO.N,+3V3*
X147193000Y-144907000D03*
D14*
G04 #@! TO.N,/~RESET*
G04 #@! TO.C,R9*
G36*
X149335642Y-144208174D02*
X149359303Y-144211684D01*
X149382507Y-144217496D01*
X149405029Y-144225554D01*
X149426653Y-144235782D01*
X149447170Y-144248079D01*
X149466383Y-144262329D01*
X149484107Y-144278393D01*
X149500171Y-144296117D01*
X149514421Y-144315330D01*
X149526718Y-144335847D01*
X149536946Y-144357471D01*
X149545004Y-144379993D01*
X149550816Y-144403197D01*
X149554326Y-144426858D01*
X149555500Y-144450750D01*
X149555500Y-145363250D01*
X149554326Y-145387142D01*
X149550816Y-145410803D01*
X149545004Y-145434007D01*
X149536946Y-145456529D01*
X149526718Y-145478153D01*
X149514421Y-145498670D01*
X149500171Y-145517883D01*
X149484107Y-145535607D01*
X149466383Y-145551671D01*
X149447170Y-145565921D01*
X149426653Y-145578218D01*
X149405029Y-145588446D01*
X149382507Y-145596504D01*
X149359303Y-145602316D01*
X149335642Y-145605826D01*
X149311750Y-145607000D01*
X148824250Y-145607000D01*
X148800358Y-145605826D01*
X148776697Y-145602316D01*
X148753493Y-145596504D01*
X148730971Y-145588446D01*
X148709347Y-145578218D01*
X148688830Y-145565921D01*
X148669617Y-145551671D01*
X148651893Y-145535607D01*
X148635829Y-145517883D01*
X148621579Y-145498670D01*
X148609282Y-145478153D01*
X148599054Y-145456529D01*
X148590996Y-145434007D01*
X148585184Y-145410803D01*
X148581674Y-145387142D01*
X148580500Y-145363250D01*
X148580500Y-144450750D01*
X148581674Y-144426858D01*
X148585184Y-144403197D01*
X148590996Y-144379993D01*
X148599054Y-144357471D01*
X148609282Y-144335847D01*
X148621579Y-144315330D01*
X148635829Y-144296117D01*
X148651893Y-144278393D01*
X148669617Y-144262329D01*
X148688830Y-144248079D01*
X148709347Y-144235782D01*
X148730971Y-144225554D01*
X148753493Y-144217496D01*
X148776697Y-144211684D01*
X148800358Y-144208174D01*
X148824250Y-144207000D01*
X149311750Y-144207000D01*
X149335642Y-144208174D01*
X149335642Y-144208174D01*
G37*
D15*
G04 #@! TD*
G04 #@! TO.P,R9,2*
G04 #@! TO.N,/~RESET*
X149068000Y-144907000D03*
D32*
G04 #@! TO.N,GND*
X123698000Y-140208000D03*
D33*
X131699000Y-133731000D03*
X119372082Y-143009918D03*
X145288000Y-155025000D03*
X155067000Y-149225000D03*
X136525000Y-155025000D03*
X140716000Y-147193000D03*
X127889000Y-119507000D03*
X115189000Y-115062000D03*
X137414000Y-122555000D03*
X147193000Y-133858000D03*
X125095000Y-126492000D03*
X129032000Y-130937000D03*
X118881829Y-146766831D03*
X121793000Y-154432000D03*
X159521010Y-115433990D03*
X152908000Y-141605000D03*
X145064000Y-125603000D03*
X141224000Y-115824000D03*
X153543000Y-125349000D03*
X114554000Y-145542000D03*
X128462510Y-144234350D03*
X136274279Y-134097587D03*
X142367000Y-133985000D03*
X149860000Y-112141000D03*
X135255000Y-130937000D03*
X119380000Y-128016000D03*
X121031000Y-133794500D03*
X132842000Y-140271500D03*
G04 #@! TO.N,+3V3*
X137033000Y-133731000D03*
X135382000Y-129667000D03*
X135509000Y-123825000D03*
X135382000Y-118364000D03*
X143510000Y-133985000D03*
X148590000Y-133985000D03*
X157988000Y-151638000D03*
X147193000Y-149479000D03*
X146939000Y-125603000D03*
X142480000Y-115181091D03*
X144526000Y-116586000D03*
X154305000Y-127635000D03*
X154265623Y-122320631D03*
X156083000Y-151511016D03*
X135509000Y-131572000D03*
X147193000Y-146177000D03*
G04 #@! TO.N,+1V2*
X143129000Y-156125000D03*
X143129000Y-155025000D03*
X135509000Y-148505010D03*
X112776000Y-122555000D03*
G04 #@! TO.N,/CVCC12_SII*
X117347996Y-140208000D03*
X130048000Y-140462000D03*
X127635000Y-133731000D03*
X122174000Y-133604000D03*
X119761000Y-133731000D03*
X125857000Y-143637000D03*
X127574981Y-135371182D03*
G04 #@! TO.N,/IOVCC_SII*
X117631009Y-139475009D03*
X130175000Y-138684000D03*
X129641421Y-133724606D03*
X124206000Y-133731000D03*
X141224000Y-146050000D03*
G04 #@! TO.N,/AVCC_SII*
X120396000Y-146685000D03*
X122917114Y-146753654D03*
G04 #@! TO.N,+5V*
X134112000Y-156125000D03*
X134112000Y-155025000D03*
X112318515Y-130810000D03*
X112268000Y-149732994D03*
G04 #@! TO.N,/~RESET*
X153916091Y-144787909D03*
X159766000Y-141732000D03*
X135255000Y-127889000D03*
X121412000Y-114046000D03*
X114531935Y-144792802D03*
G04 #@! TO.N,/OSC_IN*
X132587525Y-126870621D03*
X124079000Y-123317000D03*
G04 #@! TO.N,/OSC32_IN*
X127508000Y-116162011D03*
X132335538Y-119139113D03*
G04 #@! TO.N,/OSC32_OUT*
X132325421Y-119789047D03*
G04 #@! TO.N,Net-(D1-Pad1)*
X115951000Y-129413000D03*
G04 #@! TO.N,Net-(D4-Pad2)*
X150622000Y-111636020D03*
X112776000Y-119634000D03*
G04 #@! TO.N,/CSCL*
X139954000Y-115062000D03*
X126238000Y-114935000D03*
X113284000Y-144335500D03*
G04 #@! TO.N,/CSDA*
X113418516Y-143661089D03*
X139573000Y-112649000D03*
X131191000Y-113665000D03*
G04 #@! TO.N,Net-(R7-Pad1)*
X118237000Y-146685000D03*
G04 #@! TO.N,/OSC_OUT*
X132715000Y-127508000D03*
G04 #@! TO.N,/CI2CA*
X113456599Y-142972219D03*
G04 #@! TO.N,/INT_SII*
X113540321Y-145006584D03*
X137571241Y-112114076D03*
G04 #@! TO.N,/SWCLK*
X154432000Y-113538000D03*
X120269000Y-114935000D03*
G04 #@! TO.N,/SWDIO*
X156718000Y-117387000D03*
X117729000Y-115062000D03*
G04 #@! TO.N,/HPD*
X132715000Y-146203644D03*
X116078000Y-150876000D03*
G04 #@! TO.N,/CLK-*
X118491000Y-149479000D03*
G04 #@! TO.N,/CLK+*
X120173001Y-149526114D03*
G04 #@! TO.N,/D2-*
X122723000Y-149479000D03*
G04 #@! TO.N,/D2+*
X124460000Y-149479000D03*
G04 #@! TD*
D34*
G04 #@! TO.N,GND*
X156433000Y-160706500D02*
X156703000Y-160436500D01*
X153013000Y-160706500D02*
X156433000Y-160706500D01*
X156723000Y-157766500D02*
X156393000Y-157436500D01*
X156723000Y-159506500D02*
X156723000Y-157766500D01*
X156753000Y-157556500D02*
X156873000Y-157436500D01*
X155273000Y-157556500D02*
X156753000Y-157556500D01*
X151243000Y-157576500D02*
X151123000Y-157456500D01*
X151243000Y-159506500D02*
X151243000Y-157576500D01*
X151513000Y-160706500D02*
X151243000Y-160436500D01*
X153013000Y-160706500D02*
X151513000Y-160706500D01*
X145893000Y-153104000D02*
X145365500Y-153631500D01*
X145893000Y-151130000D02*
X145893000Y-153104000D01*
X148795500Y-151447500D02*
X148859000Y-151384000D01*
X148795500Y-153924000D02*
X148795500Y-151447500D01*
X143858990Y-147703010D02*
X143304237Y-148257763D01*
X148031490Y-147703010D02*
X143858990Y-147703010D01*
X143304237Y-148257763D02*
X142748000Y-148814000D01*
X148844000Y-146890500D02*
X148031490Y-147703010D01*
X136412000Y-153568000D02*
X136906000Y-153074000D01*
X136906000Y-153074000D02*
X136906000Y-151115000D01*
X136906000Y-151115000D02*
X136954500Y-151066500D01*
X131398000Y-134032000D02*
X131699000Y-133731000D01*
X131398000Y-134208000D02*
X131398000Y-134032000D01*
X134414237Y-148384763D02*
X133858000Y-148941000D01*
X138711990Y-147878510D02*
X134920490Y-147878510D01*
X134920490Y-147878510D02*
X134414237Y-148384763D01*
X139573000Y-147017500D02*
X138711990Y-147878510D01*
X145365500Y-154947500D02*
X145288000Y-155025000D01*
X145365500Y-153631500D02*
X145365500Y-154947500D01*
X150968500Y-149274500D02*
X153314000Y-149274500D01*
X148859000Y-151384000D02*
X150968500Y-149274500D01*
X155017500Y-149274500D02*
X155067000Y-149225000D01*
X153314000Y-149274500D02*
X155017500Y-149274500D01*
X136412000Y-154912000D02*
X136525000Y-155025000D01*
X136412000Y-153568000D02*
X136412000Y-154912000D01*
X133346500Y-148941000D02*
X133858000Y-148941000D01*
X131221000Y-151066500D02*
X133346500Y-148941000D01*
X140174500Y-151066500D02*
X140238000Y-151130000D01*
X136954500Y-151066500D02*
X140174500Y-151066500D01*
X151228000Y-149274500D02*
X153314000Y-149274500D01*
X148844000Y-146890500D02*
X151228000Y-149274500D01*
X140540500Y-147017500D02*
X140716000Y-147193000D01*
X139573000Y-147017500D02*
X140540500Y-147017500D01*
X115189000Y-112537000D02*
X115189000Y-115062000D01*
X115189000Y-115762000D02*
X115189000Y-115062000D01*
X115189000Y-117587000D02*
X115189000Y-115762000D01*
X135964998Y-122555000D02*
X137414000Y-122555000D01*
X135182998Y-123337000D02*
X135964998Y-122555000D01*
X134080000Y-123337000D02*
X135182998Y-123337000D01*
X147626000Y-133858000D02*
X147193000Y-133858000D01*
X148030000Y-134262000D02*
X147626000Y-133858000D01*
X148030000Y-135287000D02*
X148030000Y-134262000D01*
X143030000Y-112415500D02*
X143030000Y-113887000D01*
X143685500Y-111760000D02*
X143030000Y-112415500D01*
X148030000Y-112447000D02*
X148030000Y-113887000D01*
X148717000Y-111760000D02*
X148030000Y-112447000D01*
X156505000Y-116337000D02*
X155480000Y-116337000D01*
X157574000Y-116337000D02*
X156505000Y-116337000D01*
X157696000Y-116459000D02*
X157574000Y-116337000D01*
X158496000Y-116459000D02*
X157696000Y-116459000D01*
X159521010Y-113704010D02*
X159521010Y-115433990D01*
X158496000Y-112679000D02*
X159521010Y-113704010D01*
X157889000Y-122837000D02*
X155480000Y-122837000D01*
X158496000Y-123444000D02*
X157889000Y-122837000D01*
X157879500Y-128337000D02*
X158496000Y-128953500D01*
X155480000Y-128337000D02*
X157879500Y-128337000D01*
X152908000Y-143002000D02*
X152908000Y-142414500D01*
X152908000Y-140077000D02*
X152908000Y-140081000D01*
X155230000Y-137755000D02*
X152908000Y-140077000D01*
X155230000Y-137630000D02*
X155230000Y-137755000D01*
X155230000Y-145324000D02*
X155230000Y-145580000D01*
X152908000Y-143002000D02*
X155230000Y-145324000D01*
X129476500Y-130492500D02*
X129032000Y-130937000D01*
X130126500Y-130492500D02*
X129476500Y-130492500D01*
X118881829Y-146854173D02*
X118881829Y-146766831D01*
X118698000Y-147038002D02*
X118881829Y-146854173D01*
X118698000Y-147908000D02*
X118698000Y-147038002D01*
X117341998Y-154432000D02*
X120327000Y-154432000D01*
X121793000Y-154398000D02*
X121793000Y-154432000D01*
X123180002Y-154432000D02*
X121793000Y-154432000D01*
X121793000Y-154432000D02*
X120327000Y-154432000D01*
X116511000Y-153601002D02*
X117341998Y-154432000D01*
X116511000Y-152416000D02*
X116511000Y-153601002D01*
X119511000Y-153616000D02*
X119511000Y-152416000D01*
X120327000Y-154432000D02*
X119511000Y-153616000D01*
X122511000Y-153714000D02*
X122511000Y-152416000D01*
X121793000Y-154432000D02*
X122511000Y-153714000D01*
X124011000Y-153601002D02*
X123180002Y-154432000D01*
X124011000Y-152416000D02*
X124011000Y-153601002D01*
X121011000Y-152416000D02*
X121011000Y-153616000D01*
X121011000Y-153616000D02*
X121793000Y-154398000D01*
X158496000Y-116459000D02*
X159521010Y-115433990D01*
X152908000Y-142414500D02*
X152908000Y-141605000D01*
X152908000Y-141605000D02*
X152908000Y-140081000D01*
X141542198Y-115824000D02*
X141224000Y-115824000D01*
X143030000Y-115415000D02*
X142621000Y-115824000D01*
X142621000Y-115824000D02*
X141542198Y-115824000D01*
X143030000Y-113887000D02*
X143030000Y-115415000D01*
X153543000Y-125030802D02*
X153543000Y-125349000D01*
X155480000Y-122837000D02*
X154455000Y-122837000D01*
X153543000Y-123749000D02*
X153543000Y-125030802D01*
X154455000Y-122837000D02*
X153543000Y-123749000D01*
X153543000Y-127762000D02*
X153543000Y-125667198D01*
X153543000Y-125667198D02*
X153543000Y-125349000D01*
X154118000Y-128337000D02*
X153543000Y-127762000D01*
X155480000Y-128337000D02*
X154118000Y-128337000D01*
X140905802Y-115824000D02*
X141224000Y-115824000D01*
X139573000Y-115824000D02*
X140905802Y-115824000D01*
X139030000Y-115281000D02*
X139573000Y-115824000D01*
X139030000Y-113887000D02*
X139030000Y-115281000D01*
X138527000Y-111760000D02*
X138527000Y-112359000D01*
X138527000Y-112359000D02*
X139030000Y-112862000D01*
X139030000Y-112862000D02*
X139030000Y-113887000D01*
X115998000Y-145208000D02*
X114930739Y-145208000D01*
X114821738Y-145317001D02*
X114778999Y-145317001D01*
X114930739Y-145208000D02*
X114821738Y-145317001D01*
X114778999Y-145317001D02*
X114554000Y-145542000D01*
X136530000Y-134353308D02*
X136274279Y-134097587D01*
X136530000Y-135287000D02*
X136530000Y-134353308D01*
X142753000Y-133985000D02*
X142367000Y-133985000D01*
X143030000Y-134262000D02*
X142753000Y-133985000D01*
X143030000Y-135287000D02*
X143030000Y-134262000D01*
X149606000Y-112141000D02*
X149860000Y-112141000D01*
X149098000Y-112141000D02*
X149606000Y-112141000D01*
X148717000Y-111760000D02*
X149098000Y-112141000D01*
X135155000Y-130837000D02*
X135255000Y-130937000D01*
X134080000Y-130837000D02*
X135155000Y-130837000D01*
X119380000Y-124076700D02*
X119377700Y-124079000D01*
X119380000Y-121031000D02*
X119380000Y-124076700D01*
X119380000Y-124081300D02*
X119377700Y-124079000D01*
X119380000Y-126746000D02*
X119380000Y-124081300D01*
X119380000Y-126746000D02*
X119380000Y-128016000D01*
X120698000Y-132508000D02*
X121198000Y-132508000D01*
X121698000Y-132508000D02*
X121198000Y-132508000D01*
X121198000Y-133644000D02*
X121198000Y-132508000D01*
X121031000Y-133794500D02*
X121198000Y-133644000D01*
X128122999Y-131432999D02*
X128198000Y-131508000D01*
X127273001Y-131432999D02*
X128122999Y-131432999D01*
X127198000Y-131508000D02*
X127273001Y-131432999D01*
X128198000Y-131508000D02*
X128198000Y-132508000D01*
X127198000Y-132508000D02*
X127198000Y-131508000D01*
X129198000Y-132508000D02*
X128198000Y-132508000D01*
X128651000Y-131445000D02*
X129032000Y-130937000D01*
X128122999Y-131432999D02*
X128651000Y-131445000D01*
X131398000Y-139208000D02*
X131398000Y-139708000D01*
X131398000Y-140708000D02*
X131398000Y-141208000D01*
X132278500Y-139708000D02*
X131398000Y-139708000D01*
X132842000Y-140271500D02*
X132278500Y-139708000D01*
X132405500Y-140708000D02*
X131398000Y-140708000D01*
X132842000Y-140271500D02*
X132405500Y-140708000D01*
X120198000Y-132508000D02*
X120698000Y-132508000D01*
G04 #@! TO.N,+3V3*
X150924500Y-151574500D02*
X150734000Y-151384000D01*
X153314000Y-151574500D02*
X150924500Y-151574500D01*
X137033000Y-135284000D02*
X137030000Y-135287000D01*
X137033000Y-133731000D02*
X137033000Y-135284000D01*
X132846000Y-131337000D02*
X134080000Y-131337000D01*
X132001500Y-130492500D02*
X132846000Y-131337000D01*
X134091000Y-131826000D02*
X134080000Y-131837000D01*
X135382000Y-130060000D02*
X135382000Y-129667000D01*
X135105000Y-130337000D02*
X135382000Y-130060000D01*
X134080000Y-130337000D02*
X135105000Y-130337000D01*
X134092000Y-123825000D02*
X134080000Y-123837000D01*
X135509000Y-123825000D02*
X134092000Y-123825000D01*
X135355000Y-118337000D02*
X134080000Y-118337000D01*
X135382000Y-118364000D02*
X135355000Y-118337000D01*
X143510000Y-135267000D02*
X143530000Y-135287000D01*
X143510000Y-133985000D02*
X143510000Y-135267000D01*
X148530000Y-134045000D02*
X148530000Y-135287000D01*
X148590000Y-133985000D02*
X148530000Y-134045000D01*
X136030000Y-113887000D02*
X136530000Y-113887000D01*
X136530000Y-111882000D02*
X136652000Y-111760000D01*
X136530000Y-113887000D02*
X136530000Y-111882000D01*
X142530000Y-112479500D02*
X142530000Y-113887000D01*
X141810500Y-111760000D02*
X142530000Y-112479500D01*
X147530000Y-112448000D02*
X147530000Y-113887000D01*
X146842000Y-111760000D02*
X147530000Y-112448000D01*
X157213000Y-115837000D02*
X155480000Y-115837000D01*
X158496000Y-114554000D02*
X157213000Y-115837000D01*
X157728000Y-122337000D02*
X155480000Y-122337000D01*
X158496000Y-121569000D02*
X157728000Y-122337000D01*
X157737500Y-127837000D02*
X155480000Y-127837000D01*
X158496000Y-127078500D02*
X157737500Y-127837000D01*
X112806000Y-126746000D02*
X112806000Y-126843000D01*
X158051500Y-151574500D02*
X157988000Y-151638000D01*
X159614000Y-151574500D02*
X158051500Y-151574500D01*
X147193000Y-148765500D02*
X147193000Y-149479000D01*
X148844000Y-148765500D02*
X147193000Y-148765500D01*
X147193000Y-148765500D02*
X145732500Y-148765500D01*
X159766000Y-151726500D02*
X159614000Y-151574500D01*
X159766000Y-156718000D02*
X159766000Y-151726500D01*
X136530000Y-114912000D02*
X136530000Y-113887000D01*
X138204000Y-116586000D02*
X136530000Y-114912000D01*
X144526000Y-116586000D02*
X138204000Y-116586000D01*
X142530000Y-115131091D02*
X142480000Y-115181091D01*
X142530000Y-113887000D02*
X142530000Y-115131091D01*
X148908198Y-133985000D02*
X148590000Y-133985000D01*
X153253000Y-133985000D02*
X148908198Y-133985000D01*
X153530000Y-134262000D02*
X153253000Y-133985000D01*
X153530000Y-135287000D02*
X153530000Y-134262000D01*
X154507000Y-127837000D02*
X154305000Y-127635000D01*
X155480000Y-127837000D02*
X154507000Y-127837000D01*
X155463631Y-122320631D02*
X155480000Y-122337000D01*
X154265623Y-122320631D02*
X155463631Y-122320631D01*
X154265623Y-122002433D02*
X154265623Y-122320631D01*
X154265623Y-116026377D02*
X154265623Y-122002433D01*
X154455000Y-115837000D02*
X154265623Y-116026377D01*
X155480000Y-115837000D02*
X154455000Y-115837000D01*
X144526000Y-116586000D02*
X146558000Y-116586000D01*
X147530000Y-115614000D02*
X147530000Y-113887000D01*
X146558000Y-116586000D02*
X147530000Y-115614000D01*
X130048000Y-111760000D02*
X136652000Y-111760000D01*
X126111000Y-111760000D02*
X130048000Y-111760000D01*
X153314000Y-151574500D02*
X156019516Y-151574500D01*
X156019516Y-151574500D02*
X156083000Y-151511016D01*
X125554763Y-111203763D02*
X126111000Y-111760000D01*
X124987010Y-110636010D02*
X125554763Y-111203763D01*
X114153990Y-110636010D02*
X124987010Y-110636010D01*
X112041990Y-112748010D02*
X114153990Y-110636010D01*
X112041990Y-125181990D02*
X112041990Y-112748010D01*
X112806000Y-125946000D02*
X112041990Y-125181990D01*
X112806000Y-126746000D02*
X112806000Y-125946000D01*
X135244000Y-131837000D02*
X135509000Y-131572000D01*
X134080000Y-131837000D02*
X135244000Y-131837000D01*
X134080000Y-131837000D02*
X134080000Y-131337000D01*
X147193000Y-144907000D02*
X147193000Y-146177000D01*
G04 #@! TO.N,+1V2*
X144018000Y-152400000D02*
X143065500Y-153352500D01*
X143065500Y-153352500D02*
X143065500Y-153631500D01*
X144018000Y-151130000D02*
X144018000Y-152400000D01*
X136827500Y-148892500D02*
X136779000Y-148941000D01*
X139573000Y-148892500D02*
X136827500Y-148892500D01*
X143065500Y-156188500D02*
X143129000Y-156125000D01*
X143065500Y-159931500D02*
X143065500Y-156188500D01*
X143129000Y-153695000D02*
X143065500Y-153631500D01*
X143129000Y-155025000D02*
X143129000Y-153695000D01*
X136779000Y-148941000D02*
X135944990Y-148941000D01*
X135944990Y-148941000D02*
X135733999Y-148730009D01*
X135733999Y-148730009D02*
X135509000Y-148505010D01*
X143891000Y-151003000D02*
X144018000Y-151130000D01*
X143891000Y-150368000D02*
X143891000Y-151003000D01*
X143383000Y-149860000D02*
X143891000Y-150368000D01*
X140540500Y-149860000D02*
X143383000Y-149860000D01*
X139573000Y-148892500D02*
X140540500Y-149860000D01*
X144995500Y-159931500D02*
X143065500Y-159931500D01*
X147828000Y-157099000D02*
X144995500Y-159931500D01*
X112776000Y-123985500D02*
X112869500Y-124079000D01*
X112776000Y-122555000D02*
X112776000Y-123985500D01*
G04 #@! TO.N,/CVCC12_SII*
X115998000Y-140208000D02*
X117347996Y-140208000D01*
X130302000Y-140208000D02*
X131398000Y-140208000D01*
X130048000Y-140462000D02*
X130302000Y-140208000D01*
X127698000Y-133668000D02*
X127698000Y-132508000D01*
X127635000Y-133731000D02*
X127698000Y-133668000D01*
X122174000Y-132532000D02*
X122198000Y-132508000D01*
X122174000Y-133604000D02*
X122174000Y-132532000D01*
X119698000Y-133668000D02*
X119698000Y-132508000D01*
X119761000Y-133731000D02*
X119698000Y-133668000D01*
X117572995Y-140432999D02*
X117347996Y-140208000D01*
X120776996Y-143637000D02*
X117572995Y-140432999D01*
X125857000Y-143637000D02*
X120776996Y-143637000D01*
X130048000Y-140462000D02*
X127574981Y-137988981D01*
X127574981Y-137988981D02*
X127574981Y-135689380D01*
X127574981Y-135689380D02*
X127574981Y-135371182D01*
X123941182Y-135371182D02*
X122174000Y-133604000D01*
X127574981Y-135371182D02*
X123941182Y-135371182D01*
G04 #@! TO.N,/IOVCC_SII*
X142796500Y-146890500D02*
X142748000Y-146939000D01*
X145732500Y-146890500D02*
X142796500Y-146890500D01*
X117312811Y-139475009D02*
X117631009Y-139475009D01*
X117191991Y-139475009D02*
X117312811Y-139475009D01*
X116959000Y-139708000D02*
X117191991Y-139475009D01*
X115998000Y-139708000D02*
X116959000Y-139708000D01*
X131374000Y-138684000D02*
X131398000Y-138708000D01*
X130175000Y-138684000D02*
X131374000Y-138684000D01*
X129698000Y-133668027D02*
X129698000Y-132508000D01*
X129641421Y-133724606D02*
X129698000Y-133668027D01*
X124206000Y-132516000D02*
X124198000Y-132508000D01*
X124206000Y-133731000D02*
X124206000Y-132516000D01*
X129416422Y-133949605D02*
X129641421Y-133724606D01*
X129085026Y-134281001D02*
X129416422Y-133949605D01*
X124756001Y-134281001D02*
X129085026Y-134281001D01*
X124206000Y-133731000D02*
X124756001Y-134281001D01*
X129641421Y-138150421D02*
X129641421Y-133724606D01*
X130175000Y-138684000D02*
X129641421Y-138150421D01*
X142113000Y-146939000D02*
X141224000Y-146050000D01*
X142748000Y-146939000D02*
X142113000Y-146939000D01*
G04 #@! TO.N,/AVCC_SII*
X135979000Y-147066000D02*
X133858000Y-147066000D01*
X136779000Y-147066000D02*
X135979000Y-147066000D01*
X120198000Y-146883000D02*
X120198000Y-147908000D01*
X120396000Y-146685000D02*
X120198000Y-146883000D01*
X122698000Y-146972768D02*
X122698000Y-147908000D01*
X122917114Y-146753654D02*
X122698000Y-146972768D01*
X123235312Y-146753654D02*
X122917114Y-146753654D01*
X133545654Y-146753654D02*
X123235312Y-146753654D01*
X133858000Y-147066000D02*
X133545654Y-146753654D01*
G04 #@! TO.N,/USB_VIN*
X152673000Y-154515500D02*
X153314000Y-153874500D01*
X152673000Y-157556500D02*
X152673000Y-154515500D01*
X142459000Y-155575000D02*
X140765500Y-153881500D01*
X140765500Y-153881500D02*
X140765500Y-153631500D01*
X152673000Y-156671498D02*
X151576502Y-155575000D01*
X152673000Y-157556500D02*
X152673000Y-156671498D01*
X131812000Y-153945000D02*
X133442000Y-155575000D01*
X131812000Y-153695000D02*
X131812000Y-153945000D01*
X133442000Y-155575000D02*
X143256000Y-155575000D01*
X143256000Y-155575000D02*
X142459000Y-155575000D01*
X153264500Y-153924000D02*
X153314000Y-153874500D01*
X150670500Y-153924000D02*
X153264500Y-153924000D01*
X133096000Y-152034000D02*
X131812000Y-153318000D01*
X131812000Y-153318000D02*
X131812000Y-153568000D01*
X133096000Y-151066500D02*
X133096000Y-152034000D01*
X140765500Y-153366500D02*
X140765500Y-153631500D01*
X142113000Y-152019000D02*
X140765500Y-153366500D01*
X142113000Y-151130000D02*
X142113000Y-152019000D01*
X149352000Y-155575000D02*
X143256000Y-155575000D01*
X149352000Y-158496000D02*
X149352000Y-155575000D01*
X148082000Y-159766000D02*
X149352000Y-158496000D01*
X151576502Y-155575000D02*
X149352000Y-155575000D01*
G04 #@! TO.N,+5V*
X134112000Y-153162000D02*
X134112000Y-153568000D01*
X135079500Y-152194500D02*
X134112000Y-153162000D01*
X135079500Y-151066500D02*
X135079500Y-152194500D01*
X134112000Y-159868000D02*
X134112000Y-156125000D01*
X134112000Y-155025000D02*
X134112000Y-153568000D01*
X134112000Y-158618000D02*
X134112000Y-159868000D01*
X135504000Y-157226000D02*
X134112000Y-158618000D01*
X138430000Y-157226000D02*
X135504000Y-157226000D01*
X134112000Y-158618000D02*
X130476001Y-154982001D01*
X130476001Y-154982001D02*
X117255589Y-154982001D01*
X117255589Y-154982001D02*
X115986001Y-153712413D01*
X115986001Y-153712413D02*
X115986001Y-152440999D01*
X115986001Y-152440999D02*
X116011000Y-152416000D01*
X112318515Y-129900485D02*
X112806000Y-129413000D01*
X112318515Y-130810000D02*
X112318515Y-129900485D01*
X112268000Y-150051192D02*
X112268000Y-149732994D01*
X116120001Y-154982001D02*
X112268000Y-151130000D01*
X112268000Y-151130000D02*
X112268000Y-150051192D01*
X117255589Y-154982001D02*
X116120001Y-154982001D01*
G04 #@! TO.N,Net-(C37-Pad1)*
X153030000Y-137496500D02*
X153030000Y-136312000D01*
X152908000Y-137618500D02*
X153030000Y-137496500D01*
X153030000Y-136312000D02*
X153030000Y-135287000D01*
X152908000Y-138206000D02*
X152908000Y-137618500D01*
G04 #@! TO.N,Net-(C38-Pad1)*
X156999000Y-116837000D02*
X155480000Y-116837000D01*
X158496000Y-118334000D02*
X156999000Y-116837000D01*
G04 #@! TO.N,/~RESET*
X153827000Y-144877000D02*
X153916091Y-144787909D01*
X152908000Y-144877000D02*
X153827000Y-144877000D01*
X159766000Y-145544000D02*
X159730000Y-145580000D01*
X159766000Y-141732000D02*
X159766000Y-145544000D01*
X159766000Y-137666000D02*
X159730000Y-137630000D01*
X159766000Y-141732000D02*
X159766000Y-137666000D01*
X135203000Y-127837000D02*
X134080000Y-127837000D01*
X135255000Y-127889000D02*
X135203000Y-127837000D01*
X121412000Y-113680000D02*
X120269000Y-112537000D01*
X121412000Y-114046000D02*
X121412000Y-113680000D01*
X114616737Y-144708000D02*
X114531935Y-144792802D01*
X115998000Y-144708000D02*
X114616737Y-144708000D01*
X149098000Y-144877000D02*
X149068000Y-144907000D01*
X152908000Y-144877000D02*
X149098000Y-144877000D01*
G04 #@! TO.N,/OSC_IN*
X132621146Y-126837000D02*
X134080000Y-126837000D01*
X132587525Y-126870621D02*
X132621146Y-126837000D01*
X124079000Y-122174000D02*
X124079000Y-123317000D01*
G04 #@! TO.N,/OSC32_IN*
X127189802Y-116162011D02*
X127508000Y-116162011D01*
X126915989Y-116162011D02*
X127189802Y-116162011D01*
X126111000Y-116967000D02*
X126915989Y-116162011D01*
X134080000Y-119337000D02*
X132687378Y-119337000D01*
X132687378Y-119337000D02*
X132489491Y-119139113D01*
X132489491Y-119139113D02*
X132335538Y-119139113D01*
G04 #@! TO.N,/OSC32_OUT*
X134080000Y-119837000D02*
X132373374Y-119837000D01*
X132373374Y-119837000D02*
X132325421Y-119789047D01*
G04 #@! TO.N,Net-(D1-Pad1)*
X114681000Y-129413000D02*
X115951000Y-129413000D01*
G04 #@! TO.N,Net-(D2-Pad1)*
X114681000Y-126746000D02*
X117378000Y-126746000D01*
G04 #@! TO.N,Net-(D3-Pad1)*
X116915200Y-124079000D02*
X114744500Y-124079000D01*
X117502700Y-124079000D02*
X116915200Y-124079000D01*
G04 #@! TO.N,Net-(D4-Pad2)*
X151030000Y-112044020D02*
X150622000Y-111636020D01*
X151030000Y-113887000D02*
X151030000Y-112044020D01*
X112776000Y-120952500D02*
X112854500Y-121031000D01*
X112776000Y-119634000D02*
X112776000Y-120952500D01*
D35*
G04 #@! TO.N,/USB1_D-*
X153323000Y-157556500D02*
X153323000Y-156318999D01*
X156747000Y-137955800D02*
X156747000Y-132715000D01*
X153323000Y-156318999D02*
X156747000Y-152894999D01*
D34*
X156747000Y-132579000D02*
X156747000Y-132715000D01*
X156505000Y-132337000D02*
X156747000Y-132579000D01*
X155480000Y-132337000D02*
X156505000Y-132337000D01*
D35*
X156747000Y-152894999D02*
X156747000Y-146304000D01*
D34*
X156008002Y-146812000D02*
X156747000Y-146073002D01*
X153289000Y-146812000D02*
X156008002Y-146812000D01*
D35*
X156747000Y-145923000D02*
X156747000Y-137955800D01*
D34*
X156747000Y-146073002D02*
X156747000Y-145923000D01*
D35*
X156747000Y-146304000D02*
X156747000Y-145923000D01*
D34*
G04 #@! TO.N,/CSCL*
X115998000Y-143708000D02*
X114149438Y-143708000D01*
X140030000Y-114986000D02*
X139954000Y-115062000D01*
X140030000Y-113887000D02*
X140030000Y-114986000D01*
X126238000Y-113762000D02*
X126111000Y-113635000D01*
X126238000Y-114935000D02*
X126238000Y-113762000D01*
X126081000Y-113665000D02*
X126111000Y-113635000D01*
X124079000Y-113665000D02*
X126081000Y-113665000D01*
X113646348Y-144211090D02*
X114149438Y-143708000D01*
X113408410Y-144211090D02*
X113646348Y-144211090D01*
X113284000Y-144335500D02*
X113408410Y-144211090D01*
G04 #@! TO.N,/CSDA*
X114013028Y-143208000D02*
X113559939Y-143661089D01*
X113559939Y-143661089D02*
X113418516Y-143661089D01*
X115998000Y-143208000D02*
X114013028Y-143208000D01*
X139530000Y-113887000D02*
X139530000Y-112692000D01*
X139530000Y-112692000D02*
X139573000Y-112649000D01*
X129540000Y-113635000D02*
X131161000Y-113635000D01*
X131161000Y-113635000D02*
X131191000Y-113665000D01*
X129540000Y-113635000D02*
X128524000Y-113635000D01*
G04 #@! TO.N,Net-(R7-Pad1)*
X118198000Y-146724000D02*
X118198000Y-147908000D01*
X118237000Y-146685000D02*
X118198000Y-146724000D01*
G04 #@! TO.N,/OSC_OUT*
X132886000Y-127337000D02*
X134080000Y-127337000D01*
X132715000Y-127508000D02*
X132886000Y-127337000D01*
G04 #@! TO.N,/B_CB_7*
X133055000Y-124837000D02*
X134080000Y-124837000D01*
X126698000Y-132508000D02*
X126698000Y-131194000D01*
X130683000Y-127762000D02*
X130130000Y-127762000D01*
X131445000Y-128524000D02*
X130683000Y-127762000D01*
X130130000Y-127762000D02*
X133055000Y-124837000D01*
X126698000Y-131194000D02*
X130130000Y-127762000D01*
G04 #@! TO.N,/B_CB_6*
X132918590Y-124337000D02*
X134080000Y-124337000D01*
X126198000Y-131057590D02*
X132918590Y-124337000D01*
X126198000Y-132508000D02*
X126198000Y-131057590D01*
G04 #@! TO.N,/B_CB_5*
X125698000Y-131508000D02*
X125698000Y-132508000D01*
X133055000Y-122837000D02*
X125698000Y-130194000D01*
X125698000Y-130194000D02*
X125698000Y-131508000D01*
X134080000Y-122837000D02*
X133055000Y-122837000D01*
G04 #@! TO.N,/B_CB_4*
X133055000Y-122337000D02*
X134080000Y-122337000D01*
X132918590Y-122337000D02*
X133055000Y-122337000D01*
X125198000Y-130057590D02*
X132918590Y-122337000D01*
X125198000Y-132508000D02*
X125198000Y-130057590D01*
G04 #@! TO.N,/B_CB_3*
X124698000Y-129921180D02*
X132782180Y-121837000D01*
X133055000Y-121837000D02*
X134080000Y-121837000D01*
X132782180Y-121837000D02*
X133055000Y-121837000D01*
X124698000Y-132508000D02*
X124698000Y-129921180D01*
G04 #@! TO.N,/B_CB_2*
X133055000Y-121337000D02*
X133053977Y-121338023D01*
X134080000Y-121337000D02*
X133055000Y-121337000D01*
X123698000Y-131508000D02*
X123698000Y-132508000D01*
X123698000Y-130284770D02*
X123698000Y-131508000D01*
X133053977Y-121338023D02*
X132644747Y-121338023D01*
X132644747Y-121338023D02*
X123698000Y-130284770D01*
G04 #@! TO.N,/B_CB_1*
X133055000Y-120837000D02*
X134080000Y-120837000D01*
X132509360Y-120837000D02*
X133055000Y-120837000D01*
X123198000Y-130148360D02*
X132509360Y-120837000D01*
X123198000Y-132508000D02*
X123198000Y-130148360D01*
G04 #@! TO.N,/B_CB_0*
X122698000Y-131508000D02*
X122698000Y-132508000D01*
X122500106Y-130683000D02*
X122698000Y-130683000D01*
X122246106Y-130429000D02*
X122500106Y-130683000D01*
X122698000Y-130683000D02*
X122698000Y-131508000D01*
X121539000Y-130429000D02*
X122246106Y-130429000D01*
X122698000Y-130011950D02*
X122698000Y-130683000D01*
X132372950Y-120337000D02*
X122698000Y-130011950D01*
X134080000Y-120337000D02*
X132372950Y-120337000D01*
G04 #@! TO.N,/IDCK*
X119198000Y-132508000D02*
X119198000Y-131247410D01*
X133108410Y-117337000D02*
X134080000Y-117337000D01*
X130557410Y-119888000D02*
X133108410Y-117337000D01*
X119198000Y-131247410D02*
X129858910Y-120586500D01*
X129858910Y-120586500D02*
X130557410Y-119888000D01*
X130554590Y-120777000D02*
X130619500Y-120777000D01*
X130111500Y-120333910D02*
X130554590Y-120777000D01*
X129858910Y-120586500D02*
X130111500Y-120333910D01*
G04 #@! TO.N,/VSYNC*
X118698000Y-131508000D02*
X118698000Y-132508000D01*
X132972000Y-116837000D02*
X118698000Y-131111000D01*
X118698000Y-131111000D02*
X118698000Y-131508000D01*
X134080000Y-116837000D02*
X132972000Y-116837000D01*
X133286500Y-112776000D02*
X132143500Y-112776000D01*
X135890000Y-115379500D02*
X133286500Y-112776000D01*
X135890000Y-116332000D02*
X135890000Y-115379500D01*
X135385000Y-116837000D02*
X135890000Y-116332000D01*
X134080000Y-116837000D02*
X135385000Y-116837000D01*
G04 #@! TO.N,/HSYNC*
X132835590Y-116337000D02*
X133055000Y-116337000D01*
X133055000Y-116337000D02*
X134080000Y-116337000D01*
X118198000Y-130974590D02*
X132835590Y-116337000D01*
X118198000Y-132508000D02*
X118198000Y-130974590D01*
X135180001Y-115426999D02*
X134815002Y-115062000D01*
X135180001Y-116261999D02*
X135180001Y-115426999D01*
X135105000Y-116337000D02*
X135180001Y-116261999D01*
X134080000Y-116337000D02*
X135105000Y-116337000D01*
X134815002Y-115062000D02*
X132080000Y-115062000D01*
G04 #@! TO.N,/DE*
X117698000Y-131508000D02*
X117698000Y-132508000D01*
X117698000Y-130714000D02*
X117698000Y-131508000D01*
X134080000Y-115837000D02*
X132575000Y-115837000D01*
X130556000Y-117856000D02*
X129667000Y-118745000D01*
X129667000Y-118745000D02*
X117698000Y-130714000D01*
X132575000Y-115837000D02*
X129857500Y-118554500D01*
X129857500Y-118554500D02*
X129667000Y-118745000D01*
X129857500Y-117221000D02*
X129476500Y-116840000D01*
X129857500Y-118554500D02*
X129857500Y-117221000D01*
G04 #@! TO.N,/CI2CA*
X113720818Y-142708000D02*
X113456599Y-142972219D01*
X115998000Y-142708000D02*
X113720818Y-142708000D01*
G04 #@! TO.N,/INT_SII*
X113765320Y-144781585D02*
X113540321Y-145006584D01*
X114338905Y-144208000D02*
X113765320Y-144781585D01*
X115998000Y-144208000D02*
X114338905Y-144208000D01*
X138030000Y-112884000D02*
X138030000Y-113887000D01*
X137571241Y-112425241D02*
X138030000Y-112884000D01*
X137571241Y-112114076D02*
X137571241Y-112425241D01*
G04 #@! TO.N,/R_CR_7*
X151530000Y-136312000D02*
X151530000Y-135287000D01*
X151530000Y-136994050D02*
X151530000Y-136312000D01*
X131398000Y-145208000D02*
X143316050Y-145208000D01*
X143316050Y-145208000D02*
X146538050Y-141986000D01*
X146538050Y-141986000D02*
X151530000Y-136994050D01*
X147701000Y-141986000D02*
X148336000Y-142621000D01*
X146538050Y-141986000D02*
X147701000Y-141986000D01*
G04 #@! TO.N,/R_CR_6*
X151005001Y-136882639D02*
X151005001Y-135311999D01*
X143179640Y-144708000D02*
X151005001Y-136882639D01*
X151005001Y-135311999D02*
X151030000Y-135287000D01*
X131398000Y-144708000D02*
X143179640Y-144708000D01*
G04 #@! TO.N,/R_CR_5*
X143043230Y-144208000D02*
X150530000Y-136721230D01*
X150530000Y-136312000D02*
X150530000Y-135287000D01*
X150530000Y-136721230D02*
X150530000Y-136312000D01*
X131398000Y-144208000D02*
X143043230Y-144208000D01*
G04 #@! TO.N,/R_CR_4*
X150030000Y-136312000D02*
X150030000Y-135287000D01*
X150030000Y-136584820D02*
X150030000Y-136312000D01*
X142906820Y-143708000D02*
X150030000Y-136584820D01*
X131398000Y-143708000D02*
X142906820Y-143708000D01*
G04 #@! TO.N,/R_CR_3*
X142770410Y-143208000D02*
X149530000Y-136448410D01*
X149530000Y-136312000D02*
X149530000Y-135287000D01*
X149530000Y-136448410D02*
X149530000Y-136312000D01*
X131398000Y-143208000D02*
X142770410Y-143208000D01*
G04 #@! TO.N,/R_CR_2*
X149030000Y-136312000D02*
X149030000Y-135287000D01*
X142634000Y-142708000D02*
X149030000Y-136312000D01*
X131398000Y-142708000D02*
X142634000Y-142708000D01*
G04 #@! TO.N,/R_CR_1*
X147530000Y-136312000D02*
X147530000Y-135287000D01*
X147530000Y-136448410D02*
X147530000Y-136312000D01*
X141770410Y-142208000D02*
X147530000Y-136448410D01*
X131398000Y-142208000D02*
X141770410Y-142208000D01*
G04 #@! TO.N,/R_CR_0*
X147030000Y-136312000D02*
X147030000Y-135287000D01*
X131398000Y-141708000D02*
X141634000Y-141708000D01*
X143383000Y-139959000D02*
X143383000Y-139065000D01*
X141634000Y-141708000D02*
X143383000Y-139959000D01*
X143383000Y-139959000D02*
X147030000Y-136312000D01*
X143383000Y-139065000D02*
X142748000Y-138430000D01*
G04 #@! TO.N,/G_Y_7*
X139030000Y-136312000D02*
X139030000Y-135287000D01*
X139030000Y-136721230D02*
X139030000Y-136312000D01*
X137543230Y-138208000D02*
X139030000Y-136721230D01*
X134779000Y-138208000D02*
X134366000Y-138208000D01*
X136017000Y-139446000D02*
X134779000Y-138208000D01*
X134366000Y-138208000D02*
X137543230Y-138208000D01*
X131398000Y-138208000D02*
X134366000Y-138208000D01*
G04 #@! TO.N,/G_Y_6*
X138530000Y-136312000D02*
X138530000Y-135287000D01*
X138530000Y-136584820D02*
X138530000Y-136312000D01*
X137406820Y-137708000D02*
X138530000Y-136584820D01*
X131398000Y-137708000D02*
X137406820Y-137708000D01*
G04 #@! TO.N,/G_Y_5*
X138030000Y-136312000D02*
X138030000Y-135287000D01*
X138030000Y-136448410D02*
X138030000Y-136312000D01*
X137270410Y-137208000D02*
X138030000Y-136448410D01*
X131398000Y-137208000D02*
X137270410Y-137208000D01*
G04 #@! TO.N,/G_Y_4*
X137530000Y-136312000D02*
X137530000Y-135287000D01*
X137134000Y-136708000D02*
X137530000Y-136312000D01*
X131398000Y-136708000D02*
X137134000Y-136708000D01*
G04 #@! TO.N,/G_Y_3*
X135109000Y-136208000D02*
X136030000Y-135287000D01*
X131398000Y-136208000D02*
X135109000Y-136208000D01*
G04 #@! TO.N,/G_Y_2*
X132582322Y-135708000D02*
X134080000Y-134210322D01*
X134080000Y-134210322D02*
X134080000Y-133737000D01*
X131398000Y-135708000D02*
X132582322Y-135708000D01*
X134080000Y-133737000D02*
X134080000Y-133337000D01*
G04 #@! TO.N,/G_Y_1*
X131398000Y-135208000D02*
X132445911Y-135208000D01*
X132445911Y-135208000D02*
X132979999Y-134673912D01*
X132979999Y-134673912D02*
X132979999Y-132912001D01*
X133055000Y-132837000D02*
X134080000Y-132837000D01*
X132979999Y-132912001D02*
X133055000Y-132837000D01*
G04 #@! TO.N,/G_Y_0*
X134080000Y-132337000D02*
X132918589Y-132337000D01*
X132485695Y-132667589D02*
X132588000Y-132667589D01*
X132152106Y-132334000D02*
X132485695Y-132667589D01*
X131445000Y-132334000D02*
X132152106Y-132334000D01*
X132918589Y-132337000D02*
X132588000Y-132667589D01*
X132529988Y-134487512D02*
X132309500Y-134708000D01*
X132529988Y-133933401D02*
X132529988Y-134487512D01*
X132264989Y-133668402D02*
X132529988Y-133933401D01*
X132588000Y-132667589D02*
X132264989Y-132990600D01*
X132264989Y-132990600D02*
X132264989Y-133668402D01*
X132309500Y-134708000D02*
X131398000Y-134708000D01*
D35*
G04 #@! TO.N,/USB1_D+*
X153973000Y-157556500D02*
X153973000Y-156318999D01*
X153973000Y-156318999D02*
X157197000Y-153094999D01*
D34*
X157197000Y-133520106D02*
X157197000Y-133096000D01*
X158750000Y-134366000D02*
X158042894Y-134366000D01*
X158042894Y-134366000D02*
X157197000Y-133520106D01*
D35*
X157197000Y-153094999D02*
X157197000Y-133096000D01*
D34*
X156856000Y-131837000D02*
X155480000Y-131837000D01*
X157197000Y-132178000D02*
X156856000Y-131837000D01*
X157197000Y-133096000D02*
X157197000Y-132178000D01*
G04 #@! TO.N,/SWCLK*
X153530000Y-113887000D02*
X154083000Y-113887000D01*
X154083000Y-113887000D02*
X154432000Y-113538000D01*
X120269000Y-114935000D02*
X120269000Y-117587000D01*
G04 #@! TO.N,/SWDIO*
X156668000Y-117337000D02*
X156718000Y-117387000D01*
X155480000Y-117337000D02*
X156668000Y-117337000D01*
X117729000Y-115062000D02*
X117729000Y-117587000D01*
G04 #@! TO.N,/HPD*
X131398000Y-146208000D02*
X132710644Y-146208000D01*
X132710644Y-146208000D02*
X132715000Y-146203644D01*
X115851000Y-150876000D02*
X116078000Y-150876000D01*
X115511000Y-151216000D02*
X115851000Y-150876000D01*
X115511000Y-152416000D02*
X115511000Y-151216000D01*
G04 #@! TO.N,/SDA*
X117011000Y-152416000D02*
X117011000Y-150922822D01*
X112156987Y-142857602D02*
X113306589Y-141708000D01*
X112156987Y-146065988D02*
X112156987Y-142857602D01*
X114998000Y-141708000D02*
X115998000Y-141708000D01*
X113306589Y-141708000D02*
X114998000Y-141708000D01*
X116322977Y-150234799D02*
X116322977Y-150231978D01*
X117011000Y-150922822D02*
X116322977Y-150234799D01*
X112513999Y-146423000D02*
X112267999Y-146177000D01*
X112513999Y-146566001D02*
X112513999Y-146423000D01*
X112014000Y-147066000D02*
X112513999Y-146566001D01*
X112267999Y-146177000D02*
X112156987Y-146065988D01*
X116322977Y-150231978D02*
X112267999Y-146177000D01*
G04 #@! TO.N,/SCL*
X117511000Y-152416000D02*
X117511000Y-150786410D01*
X117511000Y-150786410D02*
X116772988Y-150048399D01*
X116772988Y-150048399D02*
X116772988Y-150045578D01*
X113538000Y-146113500D02*
X113538000Y-145796000D01*
X113443000Y-142208000D02*
X114998000Y-142208000D01*
X112606998Y-143044002D02*
X113443000Y-142208000D01*
X112606998Y-145879588D02*
X112606998Y-143044002D01*
X114998000Y-142208000D02*
X115998000Y-142208000D01*
X113031410Y-146304000D02*
X112606998Y-145879588D01*
X113221910Y-146429590D02*
X113665000Y-145986500D01*
X116772988Y-150045578D02*
X113221910Y-146494500D01*
X113221910Y-146494500D02*
X113221910Y-146429590D01*
X113221910Y-146494500D02*
X113031410Y-146304000D01*
G04 #@! TO.N,/CEC*
X116967000Y-141208000D02*
X115998000Y-141208000D01*
X117222999Y-146897999D02*
X117221000Y-146896000D01*
X117221000Y-141462000D02*
X116967000Y-141208000D01*
X117221000Y-146896000D02*
X117221000Y-141462000D01*
X117222999Y-149861999D02*
X117222999Y-146897999D01*
X118511000Y-151150000D02*
X117222999Y-149861999D01*
X118511000Y-152416000D02*
X118511000Y-151150000D01*
D36*
G04 #@! TO.N,/CLK-*
X119011000Y-151166000D02*
X119198000Y-150979000D01*
X119198000Y-148958000D02*
X119198000Y-147908000D01*
X119011000Y-152416000D02*
X119011000Y-151166000D01*
X119198000Y-149542500D02*
X118554500Y-149542500D01*
X118554500Y-149542500D02*
X118491000Y-149479000D01*
X119198000Y-150979000D02*
X119198000Y-149542500D01*
X119198000Y-149542500D02*
X119198000Y-148958000D01*
G04 #@! TO.N,/CLK+*
X120011001Y-152415999D02*
X120011000Y-152416000D01*
X120011001Y-151185999D02*
X120011001Y-152415999D01*
X119698000Y-150872998D02*
X120011001Y-151185999D01*
X120156615Y-149542500D02*
X120173001Y-149526114D01*
X119698000Y-149542500D02*
X120156615Y-149542500D01*
X119698000Y-147908000D02*
X119698000Y-149542500D01*
X119698000Y-149542500D02*
X119698000Y-150872998D01*
G04 #@! TO.N,/D0-*
X120511000Y-151269000D02*
X120698001Y-151081999D01*
X120698001Y-151081999D02*
X120698001Y-147908000D01*
X120511000Y-152416000D02*
X120511000Y-151269000D01*
G04 #@! TO.N,/D0+*
X121198000Y-148958000D02*
X121198000Y-147908000D01*
X121511000Y-151166000D02*
X121198000Y-150853000D01*
X121198000Y-150853000D02*
X121198000Y-148958000D01*
X121511000Y-152416000D02*
X121511000Y-151166000D01*
G04 #@! TO.N,/D1-*
X122011000Y-150459000D02*
X122011000Y-152416000D01*
X121698000Y-150146000D02*
X122011000Y-150459000D01*
X121698000Y-147908000D02*
X121698000Y-150146000D01*
G04 #@! TO.N,/D1+*
X123011001Y-150697001D02*
X123011001Y-152415999D01*
X122198000Y-149884000D02*
X123011001Y-150697001D01*
X123011001Y-152415999D02*
X123011000Y-152416000D01*
X122198000Y-147908000D02*
X122198000Y-149884000D01*
G04 #@! TO.N,/D2-*
X123511000Y-150181000D02*
X123198000Y-149868000D01*
X123511000Y-152416000D02*
X123511000Y-150181000D01*
X123198000Y-149606000D02*
X122850000Y-149606000D01*
X122850000Y-149606000D02*
X122723000Y-149479000D01*
X123198000Y-149868000D02*
X123198000Y-149606000D01*
X123198000Y-149606000D02*
X123198000Y-147908000D01*
G04 #@! TO.N,/D2+*
X124511000Y-151166000D02*
X124511000Y-152416000D01*
X124511000Y-150419000D02*
X124511000Y-151166000D01*
X123698000Y-147908000D02*
X123698000Y-149606000D01*
X123698000Y-149606000D02*
X124511000Y-150419000D01*
X124333000Y-149606000D02*
X124460000Y-149479000D01*
X123698000Y-149606000D02*
X124333000Y-149606000D01*
D34*
G04 #@! TO.N,Net-(D4-Pad1)*
X114729500Y-121031000D02*
X117505000Y-121031000D01*
G04 #@! TD*
M02*
