M48
;DRILL file {KiCad (5.0.1-3-g963ef8bb5)} date Saturday, April 18, 2020 at 02:46:39 pm
;FORMAT={-:-/ absolute / inch / decimal}
FMAT,2
INCH,TZ
T1C0.0079
T2C0.0256
T3C0.0276
T4C0.0512
T5C0.0787
%
G90
G05
M72
T1
X4.42Y-5.895
X4.422Y-5.15
X4.44Y-4.71
X4.44Y-4.825
X4.46Y-5.6825
X4.4653Y-5.6559
X4.4668Y-5.6288
X4.4701Y-5.7089
X4.5091Y-5.7005
X4.51Y-5.73
X4.535Y-4.53
X4.565Y-5.095
X4.57Y-5.94
X4.62Y-5.52
X4.6311Y-5.4911
X4.635Y-4.53
X4.655Y-5.775
X4.665Y-5.885
X4.6804Y-5.7782
X4.6997Y-5.6303
X4.7Y-5.04
X4.715Y-5.265
X4.7312Y-5.8869
X4.735Y-4.525
X4.74Y-5.775
X4.765Y-5.2675
X4.78Y-4.49
X4.795Y-6.08
X4.81Y-5.26
X4.8316Y-5.885
X4.8393Y-5.7777
X4.885Y-4.855
X4.89Y-5.265
X4.9Y-5.885
X4.925Y-4.98
X4.955Y-5.655
X4.97Y-4.525
X5.02Y-4.5733
X5.0226Y-5.3296
X5.025Y-5.265
X5.035Y-4.705
X5.0576Y-5.6785
X5.08Y-5.155
X5.104Y-5.2647
X5.12Y-5.53
X5.125Y-5.46
X5.165Y-4.475
X5.185Y-5.265
X5.2097Y-4.7161
X5.2101Y-4.6905
X5.22Y-4.9949
X5.225Y-5.02
X5.225Y-5.756
X5.23Y-5.5225
X5.28Y-6.1033
X5.28Y-6.1467
X5.325Y-5.035
X5.325Y-5.155
X5.33Y-4.66
X5.33Y-5.105
X5.335Y-4.875
X5.335Y-5.18
X5.335Y-5.8467
X5.3651Y-5.2794
X5.375Y-6.1033
X5.395Y-5.265
X5.41Y-4.825
X5.4162Y-4.4139
X5.495Y-4.435
X5.51Y-4.53
X5.54Y-5.795
X5.56Y-4.56
X5.56Y-5.75
X5.605Y-5.275
X5.6094Y-4.5347
X5.635Y-6.1033
X5.635Y-6.1467
X5.65Y-5.275
X5.69Y-4.59
X5.7112Y-4.945
X5.72Y-6.1033
X5.785Y-4.945
X5.795Y-5.27
X5.795Y-5.755
X5.795Y-5.885
X5.85Y-5.275
X5.9Y-4.415
X5.93Y-4.3951
X6.02Y-5.575
X6.045Y-4.935
X6.0597Y-5.7003
X6.0734Y-4.8158
X6.075Y-5.025
X6.08Y-4.47
X6.105Y-5.875
X6.145Y-5.965
X6.17Y-4.6215
X6.22Y-5.97
X6.2804Y-4.5446
X6.29Y-5.58
T4
X4.4059Y-6.2329
X4.4296Y-6.04
X5.0004Y-6.04
X5.0241Y-6.2329
T5
X4.87Y-5.52
T2
X5.9667Y-6.2062G85X5.9667Y-6.1904
G05
X6.1572Y-6.2062G85X6.1572Y-6.1904
G05
T3
X5.9544Y-6.3262G85X5.9544Y-6.3066
G05
X6.1694Y-6.3262G85X6.1694Y-6.3066
G05
T0
M30
