G04 #@! TF.GenerationSoftware,KiCad,Pcbnew,(5.0.1-3-g963ef8bb5)*
G04 #@! TF.CreationDate,2020-04-18T14:55:13-02:30*
G04 #@! TF.ProjectId,graphics-card,67726170686963732D636172642E6B69,rev?*
G04 #@! TF.SameCoordinates,Original*
G04 #@! TF.FileFunction,Copper,L3,Inr,Plane*
G04 #@! TF.FilePolarity,Positive*
%FSLAX46Y46*%
G04 Gerber Fmt 4.6, Leading zero omitted, Abs format (unit mm)*
G04 Created by KiCad (PCBNEW (5.0.1-3-g963ef8bb5)) date Saturday, April 18, 2020 at 02:55:13 pm*
%MOMM*%
%LPD*%
G01*
G04 APERTURE LIST*
G04 #@! TA.AperFunction,ViaPad*
%ADD10C,1.950000*%
G04 #@! TD*
G04 #@! TA.AperFunction,ViaPad*
%ADD11O,1.100000X1.500000*%
G04 #@! TD*
G04 #@! TA.AperFunction,ViaPad*
%ADD12O,1.350000X1.700000*%
G04 #@! TD*
G04 #@! TA.AperFunction,ViaPad*
%ADD13C,3.000000*%
G04 #@! TD*
G04 #@! TA.AperFunction,ViaPad*
%ADD14C,0.450000*%
G04 #@! TD*
G04 #@! TA.AperFunction,Conductor*
%ADD15C,0.254000*%
G04 #@! TD*
G04 APERTURE END LIST*
D10*
G04 #@! TO.N,GND*
G04 #@! TO.C,J2*
X127611000Y-158316000D03*
X111911000Y-158316000D03*
X127011000Y-153416000D03*
X112511000Y-153416000D03*
G04 #@! TD*
D11*
G04 #@! TO.N,GND*
G04 #@! TO.C,J1*
X151553000Y-157436500D03*
X156393000Y-157436500D03*
D12*
X151243000Y-160436500D03*
X156703000Y-160436500D03*
G04 #@! TD*
D13*
G04 #@! TO.N,GND*
X123698000Y-140208000D03*
D14*
X131699000Y-133731000D03*
X119372082Y-143009918D03*
X145288000Y-155025000D03*
X155067000Y-149225000D03*
X136525000Y-155025000D03*
X140716000Y-147193000D03*
X127889000Y-119507000D03*
X115189000Y-115062000D03*
X137414000Y-122555000D03*
X147193000Y-133858000D03*
X125095000Y-126492000D03*
X129032000Y-130937000D03*
X118881829Y-146766831D03*
X121793000Y-154432000D03*
X159521010Y-115433990D03*
X152908000Y-141605000D03*
X145064000Y-125603000D03*
X141224000Y-115824000D03*
X153543000Y-125349000D03*
X114554000Y-145542000D03*
X128462510Y-144234350D03*
X136274279Y-134097587D03*
X142367000Y-133985000D03*
X149860000Y-112141000D03*
X135255000Y-130937000D03*
X119380000Y-128016000D03*
X121031000Y-133794500D03*
X132842000Y-140271500D03*
G04 #@! TO.N,+3V3*
X137033000Y-133731000D03*
X135382000Y-129667000D03*
X135509000Y-123825000D03*
X135382000Y-118364000D03*
X143510000Y-133985000D03*
X148590000Y-133985000D03*
X157988000Y-151638000D03*
X147193000Y-149479000D03*
X146939000Y-125603000D03*
X142480000Y-115181091D03*
X144526000Y-116586000D03*
X154305000Y-127635000D03*
X154265623Y-122320631D03*
X156083000Y-151511016D03*
X135509000Y-131572000D03*
X147193000Y-146177000D03*
G04 #@! TO.N,+1V2*
X143129000Y-156125000D03*
X143129000Y-155025000D03*
X135509000Y-148505010D03*
X112776000Y-122555000D03*
G04 #@! TO.N,/CVCC12_SII*
X117347996Y-140208000D03*
X130048000Y-140462000D03*
X127635000Y-133731000D03*
X122174000Y-133604000D03*
X119761000Y-133731000D03*
X125857000Y-143637000D03*
X127574981Y-135371182D03*
G04 #@! TO.N,/IOVCC_SII*
X117631009Y-139475009D03*
X130175000Y-138684000D03*
X129641421Y-133724606D03*
X124206000Y-133731000D03*
X141224000Y-146050000D03*
G04 #@! TO.N,/AVCC_SII*
X120396000Y-146685000D03*
X122917114Y-146753654D03*
G04 #@! TO.N,+5V*
X134112000Y-156125000D03*
X134112000Y-155025000D03*
X112318515Y-130810000D03*
X112268000Y-149732994D03*
G04 #@! TO.N,/~RESET*
X153916091Y-144787909D03*
X159766000Y-141732000D03*
X135255000Y-127889000D03*
X121412000Y-114046000D03*
X114531935Y-144792802D03*
G04 #@! TO.N,/OSC_IN*
X132587525Y-126870621D03*
X124079000Y-123317000D03*
G04 #@! TO.N,/OSC32_IN*
X127508000Y-116162011D03*
X132335538Y-119139113D03*
G04 #@! TO.N,/OSC32_OUT*
X132325421Y-119789047D03*
G04 #@! TO.N,Net-(D1-Pad1)*
X115951000Y-129413000D03*
G04 #@! TO.N,Net-(D4-Pad2)*
X150622000Y-111636020D03*
X112776000Y-119634000D03*
G04 #@! TO.N,/CSCL*
X139954000Y-115062000D03*
X126238000Y-114935000D03*
X113284000Y-144335500D03*
G04 #@! TO.N,/CSDA*
X113418516Y-143661089D03*
X139573000Y-112649000D03*
X131191000Y-113665000D03*
G04 #@! TO.N,Net-(R7-Pad1)*
X118237000Y-146685000D03*
G04 #@! TO.N,/OSC_OUT*
X132715000Y-127508000D03*
G04 #@! TO.N,/CI2CA*
X113456599Y-142972219D03*
G04 #@! TO.N,/INT_SII*
X113540321Y-145006584D03*
X137571241Y-112114076D03*
G04 #@! TO.N,/SWCLK*
X154432000Y-113538000D03*
X120269000Y-114935000D03*
G04 #@! TO.N,/SWDIO*
X156718000Y-117387000D03*
X117729000Y-115062000D03*
G04 #@! TO.N,/HPD*
X132715000Y-146203644D03*
X116078000Y-150876000D03*
G04 #@! TO.N,/CLK-*
X118491000Y-149479000D03*
G04 #@! TO.N,/CLK+*
X120173001Y-149526114D03*
G04 #@! TO.N,/D2-*
X122723000Y-149479000D03*
G04 #@! TO.N,/D2+*
X124460000Y-149479000D03*
G04 #@! TD*
D15*
G04 #@! TO.N,GND*
G36*
X149892928Y-111148869D02*
X149762000Y-111464955D01*
X149762000Y-111807085D01*
X149892928Y-112123171D01*
X150134849Y-112365092D01*
X150450935Y-112496020D01*
X150793065Y-112496020D01*
X151109151Y-112365092D01*
X151351072Y-112123171D01*
X151482000Y-111807085D01*
X151482000Y-111464955D01*
X151351072Y-111148869D01*
X151148203Y-110946000D01*
X159334419Y-110946000D01*
X159754009Y-111006090D01*
X160093352Y-111160381D01*
X160375752Y-111403712D01*
X160578506Y-111716523D01*
X160692348Y-112097184D01*
X160707000Y-112294350D01*
X160707001Y-159969412D01*
X160646910Y-160389009D01*
X160492619Y-160728352D01*
X160249288Y-161010752D01*
X159936479Y-161213506D01*
X159555815Y-161327348D01*
X159358649Y-161342000D01*
X157773385Y-161342000D01*
X157847018Y-161256259D01*
X158006673Y-160769383D01*
X157856571Y-160563500D01*
X156830000Y-160563500D01*
X156830000Y-160583500D01*
X156576000Y-160583500D01*
X156576000Y-160563500D01*
X155549429Y-160563500D01*
X155399327Y-160769383D01*
X155558982Y-161256259D01*
X155632615Y-161342000D01*
X152313385Y-161342000D01*
X152387018Y-161256259D01*
X152546673Y-160769383D01*
X152396571Y-160563500D01*
X151370000Y-160563500D01*
X151370000Y-160583500D01*
X151116000Y-160583500D01*
X151116000Y-160563500D01*
X150089429Y-160563500D01*
X149939327Y-160769383D01*
X150098982Y-161256259D01*
X150172615Y-161342000D01*
X112318581Y-161342000D01*
X111898991Y-161281910D01*
X111559648Y-161127619D01*
X111277248Y-160884288D01*
X111074494Y-160571479D01*
X110960652Y-160190815D01*
X110954173Y-160103617D01*
X149939327Y-160103617D01*
X150089429Y-160309500D01*
X151116000Y-160309500D01*
X151116000Y-159117276D01*
X151370000Y-159117276D01*
X151370000Y-160309500D01*
X152396571Y-160309500D01*
X152546673Y-160103617D01*
X155399327Y-160103617D01*
X155549429Y-160309500D01*
X156576000Y-160309500D01*
X156576000Y-159117276D01*
X156830000Y-159117276D01*
X156830000Y-160309500D01*
X157856571Y-160309500D01*
X158006673Y-160103617D01*
X157847018Y-159616741D01*
X157513196Y-159228024D01*
X157056029Y-158996644D01*
X157032400Y-158993590D01*
X156830000Y-159117276D01*
X156576000Y-159117276D01*
X156373600Y-158993590D01*
X156349971Y-158996644D01*
X155892804Y-159228024D01*
X155558982Y-159616741D01*
X155399327Y-160103617D01*
X152546673Y-160103617D01*
X152387018Y-159616741D01*
X152053196Y-159228024D01*
X151596029Y-158996644D01*
X151572400Y-158993590D01*
X151370000Y-159117276D01*
X151116000Y-159117276D01*
X150913600Y-158993590D01*
X150889971Y-158996644D01*
X150432804Y-159228024D01*
X150098982Y-159616741D01*
X149939327Y-160103617D01*
X110954173Y-160103617D01*
X110946000Y-159993649D01*
X110946000Y-159460608D01*
X110956164Y-159450444D01*
X111051763Y-159714704D01*
X111652429Y-159937049D01*
X112292461Y-159912605D01*
X112770237Y-159714704D01*
X112865837Y-159450442D01*
X126656163Y-159450442D01*
X126751763Y-159714704D01*
X127352429Y-159937049D01*
X127992461Y-159912605D01*
X128470237Y-159714704D01*
X128565837Y-159450442D01*
X127611000Y-158495605D01*
X126656163Y-159450442D01*
X112865837Y-159450442D01*
X111911000Y-158495605D01*
X111896858Y-158509748D01*
X111717253Y-158330143D01*
X111731395Y-158316000D01*
X112090605Y-158316000D01*
X113045442Y-159270837D01*
X113309704Y-159175237D01*
X113532049Y-158574571D01*
X113512299Y-158057429D01*
X125989951Y-158057429D01*
X126014395Y-158697461D01*
X126212296Y-159175237D01*
X126476558Y-159270837D01*
X127431395Y-158316000D01*
X127790605Y-158316000D01*
X128745442Y-159270837D01*
X129009704Y-159175237D01*
X129232049Y-158574571D01*
X129207605Y-157934539D01*
X129131326Y-157750383D01*
X150367320Y-157750383D01*
X150501156Y-158195454D01*
X150795125Y-158555429D01*
X151204474Y-158775506D01*
X151243256Y-158780303D01*
X151426000Y-158654861D01*
X151426000Y-157563500D01*
X151680000Y-157563500D01*
X151680000Y-158654861D01*
X151862744Y-158780303D01*
X151901526Y-158775506D01*
X152310875Y-158555429D01*
X152604844Y-158195454D01*
X152738680Y-157750383D01*
X155207320Y-157750383D01*
X155341156Y-158195454D01*
X155635125Y-158555429D01*
X156044474Y-158775506D01*
X156083256Y-158780303D01*
X156266000Y-158654861D01*
X156266000Y-157563500D01*
X156520000Y-157563500D01*
X156520000Y-158654861D01*
X156702744Y-158780303D01*
X156741526Y-158775506D01*
X157150875Y-158555429D01*
X157444844Y-158195454D01*
X157578680Y-157750383D01*
X157423148Y-157563500D01*
X156520000Y-157563500D01*
X156266000Y-157563500D01*
X155362852Y-157563500D01*
X155207320Y-157750383D01*
X152738680Y-157750383D01*
X152583148Y-157563500D01*
X151680000Y-157563500D01*
X151426000Y-157563500D01*
X150522852Y-157563500D01*
X150367320Y-157750383D01*
X129131326Y-157750383D01*
X129009704Y-157456763D01*
X128745442Y-157361163D01*
X127790605Y-158316000D01*
X127431395Y-158316000D01*
X126476558Y-157361163D01*
X126212296Y-157456763D01*
X125989951Y-158057429D01*
X113512299Y-158057429D01*
X113507605Y-157934539D01*
X113309704Y-157456763D01*
X113045442Y-157361163D01*
X112090605Y-158316000D01*
X111731395Y-158316000D01*
X111717253Y-158301858D01*
X111896858Y-158122253D01*
X111911000Y-158136395D01*
X112865837Y-157181558D01*
X126656163Y-157181558D01*
X127611000Y-158136395D01*
X128565837Y-157181558D01*
X128544515Y-157122617D01*
X150367320Y-157122617D01*
X150522852Y-157309500D01*
X151426000Y-157309500D01*
X151426000Y-156218139D01*
X151680000Y-156218139D01*
X151680000Y-157309500D01*
X152583148Y-157309500D01*
X152738680Y-157122617D01*
X155207320Y-157122617D01*
X155362852Y-157309500D01*
X156266000Y-157309500D01*
X156266000Y-156218139D01*
X156520000Y-156218139D01*
X156520000Y-157309500D01*
X157423148Y-157309500D01*
X157578680Y-157122617D01*
X157444844Y-156677546D01*
X157150875Y-156317571D01*
X156741526Y-156097494D01*
X156702744Y-156092697D01*
X156520000Y-156218139D01*
X156266000Y-156218139D01*
X156083256Y-156092697D01*
X156044474Y-156097494D01*
X155635125Y-156317571D01*
X155341156Y-156677546D01*
X155207320Y-157122617D01*
X152738680Y-157122617D01*
X152604844Y-156677546D01*
X152310875Y-156317571D01*
X151901526Y-156097494D01*
X151862744Y-156092697D01*
X151680000Y-156218139D01*
X151426000Y-156218139D01*
X151243256Y-156092697D01*
X151204474Y-156097494D01*
X150795125Y-156317571D01*
X150501156Y-156677546D01*
X150367320Y-157122617D01*
X128544515Y-157122617D01*
X128470237Y-156917296D01*
X127869571Y-156694951D01*
X127229539Y-156719395D01*
X126751763Y-156917296D01*
X126656163Y-157181558D01*
X112865837Y-157181558D01*
X112770237Y-156917296D01*
X112169571Y-156694951D01*
X111529539Y-156719395D01*
X111051763Y-156917296D01*
X110956164Y-157181556D01*
X110946000Y-157171392D01*
X110946000Y-154550442D01*
X111556163Y-154550442D01*
X111651763Y-154814704D01*
X112252429Y-155037049D01*
X112892461Y-155012605D01*
X113370237Y-154814704D01*
X113465837Y-154550442D01*
X126056163Y-154550442D01*
X126151763Y-154814704D01*
X126752429Y-155037049D01*
X127392461Y-155012605D01*
X127775524Y-154853935D01*
X133252000Y-154853935D01*
X133252000Y-155196065D01*
X133382928Y-155512151D01*
X133445777Y-155575000D01*
X133382928Y-155637849D01*
X133252000Y-155953935D01*
X133252000Y-156296065D01*
X133382928Y-156612151D01*
X133624849Y-156854072D01*
X133940935Y-156985000D01*
X134283065Y-156985000D01*
X134599151Y-156854072D01*
X134841072Y-156612151D01*
X134972000Y-156296065D01*
X134972000Y-155953935D01*
X134841072Y-155637849D01*
X134778223Y-155575000D01*
X134841072Y-155512151D01*
X134972000Y-155196065D01*
X134972000Y-154853935D01*
X142269000Y-154853935D01*
X142269000Y-155196065D01*
X142399928Y-155512151D01*
X142462777Y-155575000D01*
X142399928Y-155637849D01*
X142269000Y-155953935D01*
X142269000Y-156296065D01*
X142399928Y-156612151D01*
X142641849Y-156854072D01*
X142957935Y-156985000D01*
X143300065Y-156985000D01*
X143616151Y-156854072D01*
X143858072Y-156612151D01*
X143989000Y-156296065D01*
X143989000Y-155953935D01*
X143858072Y-155637849D01*
X143795223Y-155575000D01*
X143858072Y-155512151D01*
X143989000Y-155196065D01*
X143989000Y-154853935D01*
X143858072Y-154537849D01*
X143616151Y-154295928D01*
X143300065Y-154165000D01*
X142957935Y-154165000D01*
X142641849Y-154295928D01*
X142399928Y-154537849D01*
X142269000Y-154853935D01*
X134972000Y-154853935D01*
X134841072Y-154537849D01*
X134599151Y-154295928D01*
X134283065Y-154165000D01*
X133940935Y-154165000D01*
X133624849Y-154295928D01*
X133382928Y-154537849D01*
X133252000Y-154853935D01*
X127775524Y-154853935D01*
X127870237Y-154814704D01*
X127965837Y-154550442D01*
X127011000Y-153595605D01*
X126056163Y-154550442D01*
X113465837Y-154550442D01*
X112511000Y-153595605D01*
X111556163Y-154550442D01*
X110946000Y-154550442D01*
X110946000Y-153873762D01*
X111112296Y-154275237D01*
X111376558Y-154370837D01*
X112331395Y-153416000D01*
X112690605Y-153416000D01*
X113645442Y-154370837D01*
X113909704Y-154275237D01*
X114132049Y-153674571D01*
X114112299Y-153157429D01*
X125389951Y-153157429D01*
X125414395Y-153797461D01*
X125612296Y-154275237D01*
X125876558Y-154370837D01*
X126831395Y-153416000D01*
X127190605Y-153416000D01*
X128145442Y-154370837D01*
X128409704Y-154275237D01*
X128632049Y-153674571D01*
X128607605Y-153034539D01*
X128409704Y-152556763D01*
X128145442Y-152461163D01*
X127190605Y-153416000D01*
X126831395Y-153416000D01*
X125876558Y-152461163D01*
X125612296Y-152556763D01*
X125389951Y-153157429D01*
X114112299Y-153157429D01*
X114107605Y-153034539D01*
X113909704Y-152556763D01*
X113645442Y-152461163D01*
X112690605Y-153416000D01*
X112331395Y-153416000D01*
X111376558Y-152461163D01*
X111112296Y-152556763D01*
X110946000Y-153006012D01*
X110946000Y-152281558D01*
X111556163Y-152281558D01*
X112511000Y-153236395D01*
X113465837Y-152281558D01*
X126056163Y-152281558D01*
X127011000Y-153236395D01*
X127965837Y-152281558D01*
X127870237Y-152017296D01*
X127269571Y-151794951D01*
X126629539Y-151819395D01*
X126151763Y-152017296D01*
X126056163Y-152281558D01*
X113465837Y-152281558D01*
X113370237Y-152017296D01*
X112769571Y-151794951D01*
X112129539Y-151819395D01*
X111651763Y-152017296D01*
X111556163Y-152281558D01*
X110946000Y-152281558D01*
X110946000Y-150704935D01*
X115218000Y-150704935D01*
X115218000Y-151047065D01*
X115348928Y-151363151D01*
X115590849Y-151605072D01*
X115906935Y-151736000D01*
X116249065Y-151736000D01*
X116565151Y-151605072D01*
X116807072Y-151363151D01*
X116816681Y-151339951D01*
X155223000Y-151339951D01*
X155223000Y-151682081D01*
X155353928Y-151998167D01*
X155595849Y-152240088D01*
X155911935Y-152371016D01*
X156254065Y-152371016D01*
X156570151Y-152240088D01*
X156812072Y-151998167D01*
X156943000Y-151682081D01*
X156943000Y-151466935D01*
X157128000Y-151466935D01*
X157128000Y-151809065D01*
X157258928Y-152125151D01*
X157500849Y-152367072D01*
X157816935Y-152498000D01*
X158159065Y-152498000D01*
X158475151Y-152367072D01*
X158717072Y-152125151D01*
X158848000Y-151809065D01*
X158848000Y-151466935D01*
X158717072Y-151150849D01*
X158475151Y-150908928D01*
X158159065Y-150778000D01*
X157816935Y-150778000D01*
X157500849Y-150908928D01*
X157258928Y-151150849D01*
X157128000Y-151466935D01*
X156943000Y-151466935D01*
X156943000Y-151339951D01*
X156812072Y-151023865D01*
X156570151Y-150781944D01*
X156254065Y-150651016D01*
X155911935Y-150651016D01*
X155595849Y-150781944D01*
X155353928Y-151023865D01*
X155223000Y-151339951D01*
X116816681Y-151339951D01*
X116938000Y-151047065D01*
X116938000Y-150704935D01*
X116807072Y-150388849D01*
X116565151Y-150146928D01*
X116249065Y-150016000D01*
X115906935Y-150016000D01*
X115590849Y-150146928D01*
X115348928Y-150388849D01*
X115218000Y-150704935D01*
X110946000Y-150704935D01*
X110946000Y-149561929D01*
X111408000Y-149561929D01*
X111408000Y-149904059D01*
X111538928Y-150220145D01*
X111780849Y-150462066D01*
X112096935Y-150592994D01*
X112439065Y-150592994D01*
X112755151Y-150462066D01*
X112997072Y-150220145D01*
X113128000Y-149904059D01*
X113128000Y-149561929D01*
X113022792Y-149307935D01*
X117631000Y-149307935D01*
X117631000Y-149650065D01*
X117761928Y-149966151D01*
X118003849Y-150208072D01*
X118319935Y-150339000D01*
X118662065Y-150339000D01*
X118978151Y-150208072D01*
X119220072Y-149966151D01*
X119322243Y-149719491D01*
X119443929Y-150013265D01*
X119685850Y-150255186D01*
X120001936Y-150386114D01*
X120344066Y-150386114D01*
X120660152Y-150255186D01*
X120902073Y-150013265D01*
X121033001Y-149697179D01*
X121033001Y-149355049D01*
X121013486Y-149307935D01*
X121863000Y-149307935D01*
X121863000Y-149650065D01*
X121993928Y-149966151D01*
X122235849Y-150208072D01*
X122551935Y-150339000D01*
X122894065Y-150339000D01*
X123210151Y-150208072D01*
X123452072Y-149966151D01*
X123583000Y-149650065D01*
X123583000Y-149307935D01*
X123600000Y-149307935D01*
X123600000Y-149650065D01*
X123730928Y-149966151D01*
X123972849Y-150208072D01*
X124288935Y-150339000D01*
X124631065Y-150339000D01*
X124947151Y-150208072D01*
X125189072Y-149966151D01*
X125320000Y-149650065D01*
X125320000Y-149307935D01*
X125189072Y-148991849D01*
X124947151Y-148749928D01*
X124631065Y-148619000D01*
X124288935Y-148619000D01*
X123972849Y-148749928D01*
X123730928Y-148991849D01*
X123600000Y-149307935D01*
X123583000Y-149307935D01*
X123452072Y-148991849D01*
X123210151Y-148749928D01*
X122894065Y-148619000D01*
X122551935Y-148619000D01*
X122235849Y-148749928D01*
X121993928Y-148991849D01*
X121863000Y-149307935D01*
X121013486Y-149307935D01*
X120902073Y-149038963D01*
X120660152Y-148797042D01*
X120344066Y-148666114D01*
X120001936Y-148666114D01*
X119685850Y-148797042D01*
X119443929Y-149038963D01*
X119341758Y-149285623D01*
X119220072Y-148991849D01*
X118978151Y-148749928D01*
X118662065Y-148619000D01*
X118319935Y-148619000D01*
X118003849Y-148749928D01*
X117761928Y-148991849D01*
X117631000Y-149307935D01*
X113022792Y-149307935D01*
X112997072Y-149245843D01*
X112755151Y-149003922D01*
X112439065Y-148872994D01*
X112096935Y-148872994D01*
X111780849Y-149003922D01*
X111538928Y-149245843D01*
X111408000Y-149561929D01*
X110946000Y-149561929D01*
X110946000Y-148333945D01*
X134649000Y-148333945D01*
X134649000Y-148676075D01*
X134779928Y-148992161D01*
X135021849Y-149234082D01*
X135337935Y-149365010D01*
X135680065Y-149365010D01*
X135817855Y-149307935D01*
X146333000Y-149307935D01*
X146333000Y-149650065D01*
X146463928Y-149966151D01*
X146705849Y-150208072D01*
X147021935Y-150339000D01*
X147364065Y-150339000D01*
X147680151Y-150208072D01*
X147922072Y-149966151D01*
X148053000Y-149650065D01*
X148053000Y-149307935D01*
X147922072Y-148991849D01*
X147680151Y-148749928D01*
X147364065Y-148619000D01*
X147021935Y-148619000D01*
X146705849Y-148749928D01*
X146463928Y-148991849D01*
X146333000Y-149307935D01*
X135817855Y-149307935D01*
X135996151Y-149234082D01*
X136238072Y-148992161D01*
X136369000Y-148676075D01*
X136369000Y-148333945D01*
X136238072Y-148017859D01*
X135996151Y-147775938D01*
X135680065Y-147645010D01*
X135337935Y-147645010D01*
X135021849Y-147775938D01*
X134779928Y-148017859D01*
X134649000Y-148333945D01*
X110946000Y-148333945D01*
X110946000Y-146513935D01*
X117377000Y-146513935D01*
X117377000Y-146856065D01*
X117507928Y-147172151D01*
X117749849Y-147414072D01*
X118065935Y-147545000D01*
X118408065Y-147545000D01*
X118724151Y-147414072D01*
X118966072Y-147172151D01*
X119097000Y-146856065D01*
X119097000Y-146513935D01*
X119536000Y-146513935D01*
X119536000Y-146856065D01*
X119666928Y-147172151D01*
X119908849Y-147414072D01*
X120224935Y-147545000D01*
X120567065Y-147545000D01*
X120883151Y-147414072D01*
X121125072Y-147172151D01*
X121256000Y-146856065D01*
X121256000Y-146582589D01*
X122057114Y-146582589D01*
X122057114Y-146924719D01*
X122188042Y-147240805D01*
X122429963Y-147482726D01*
X122746049Y-147613654D01*
X123088179Y-147613654D01*
X123404265Y-147482726D01*
X123646186Y-147240805D01*
X123777114Y-146924719D01*
X123777114Y-146582589D01*
X123646186Y-146266503D01*
X123412262Y-146032579D01*
X131855000Y-146032579D01*
X131855000Y-146374709D01*
X131985928Y-146690795D01*
X132227849Y-146932716D01*
X132543935Y-147063644D01*
X132886065Y-147063644D01*
X133202151Y-146932716D01*
X133444072Y-146690795D01*
X133575000Y-146374709D01*
X133575000Y-146032579D01*
X133511359Y-145878935D01*
X140364000Y-145878935D01*
X140364000Y-146221065D01*
X140494928Y-146537151D01*
X140736849Y-146779072D01*
X141052935Y-146910000D01*
X141395065Y-146910000D01*
X141711151Y-146779072D01*
X141953072Y-146537151D01*
X142084000Y-146221065D01*
X142084000Y-146005935D01*
X146333000Y-146005935D01*
X146333000Y-146348065D01*
X146463928Y-146664151D01*
X146705849Y-146906072D01*
X147021935Y-147037000D01*
X147364065Y-147037000D01*
X147680151Y-146906072D01*
X147922072Y-146664151D01*
X148053000Y-146348065D01*
X148053000Y-146005935D01*
X147922072Y-145689849D01*
X147680151Y-145447928D01*
X147364065Y-145317000D01*
X147021935Y-145317000D01*
X146705849Y-145447928D01*
X146463928Y-145689849D01*
X146333000Y-146005935D01*
X142084000Y-146005935D01*
X142084000Y-145878935D01*
X141953072Y-145562849D01*
X141711151Y-145320928D01*
X141395065Y-145190000D01*
X141052935Y-145190000D01*
X140736849Y-145320928D01*
X140494928Y-145562849D01*
X140364000Y-145878935D01*
X133511359Y-145878935D01*
X133444072Y-145716493D01*
X133202151Y-145474572D01*
X132886065Y-145343644D01*
X132543935Y-145343644D01*
X132227849Y-145474572D01*
X131985928Y-145716493D01*
X131855000Y-146032579D01*
X123412262Y-146032579D01*
X123404265Y-146024582D01*
X123088179Y-145893654D01*
X122746049Y-145893654D01*
X122429963Y-146024582D01*
X122188042Y-146266503D01*
X122057114Y-146582589D01*
X121256000Y-146582589D01*
X121256000Y-146513935D01*
X121125072Y-146197849D01*
X120883151Y-145955928D01*
X120567065Y-145825000D01*
X120224935Y-145825000D01*
X119908849Y-145955928D01*
X119666928Y-146197849D01*
X119536000Y-146513935D01*
X119097000Y-146513935D01*
X118966072Y-146197849D01*
X118724151Y-145955928D01*
X118408065Y-145825000D01*
X118065935Y-145825000D01*
X117749849Y-145955928D01*
X117507928Y-146197849D01*
X117377000Y-146513935D01*
X110946000Y-146513935D01*
X110946000Y-144164435D01*
X112424000Y-144164435D01*
X112424000Y-144506565D01*
X112554928Y-144822651D01*
X112680321Y-144948044D01*
X112680321Y-145177649D01*
X112811249Y-145493735D01*
X113053170Y-145735656D01*
X113369256Y-145866584D01*
X113711386Y-145866584D01*
X114027472Y-145735656D01*
X114183709Y-145579419D01*
X114360870Y-145652802D01*
X114703000Y-145652802D01*
X115019086Y-145521874D01*
X115261007Y-145279953D01*
X115391935Y-144963867D01*
X115391935Y-144621737D01*
X115389909Y-144616844D01*
X153056091Y-144616844D01*
X153056091Y-144958974D01*
X153187019Y-145275060D01*
X153428940Y-145516981D01*
X153745026Y-145647909D01*
X154087156Y-145647909D01*
X154403242Y-145516981D01*
X154645163Y-145275060D01*
X154776091Y-144958974D01*
X154776091Y-144616844D01*
X154645163Y-144300758D01*
X154403242Y-144058837D01*
X154087156Y-143927909D01*
X153745026Y-143927909D01*
X153428940Y-144058837D01*
X153187019Y-144300758D01*
X153056091Y-144616844D01*
X115389909Y-144616844D01*
X115261007Y-144305651D01*
X115019086Y-144063730D01*
X114703000Y-143932802D01*
X114360870Y-143932802D01*
X114211135Y-143994825D01*
X114278516Y-143832154D01*
X114278516Y-143490024D01*
X114268538Y-143465935D01*
X124997000Y-143465935D01*
X124997000Y-143808065D01*
X125127928Y-144124151D01*
X125369849Y-144366072D01*
X125685935Y-144497000D01*
X126028065Y-144497000D01*
X126344151Y-144366072D01*
X126586072Y-144124151D01*
X126717000Y-143808065D01*
X126717000Y-143465935D01*
X126586072Y-143149849D01*
X126344151Y-142907928D01*
X126028065Y-142777000D01*
X125685935Y-142777000D01*
X125369849Y-142907928D01*
X125127928Y-143149849D01*
X124997000Y-143465935D01*
X114268538Y-143465935D01*
X114225745Y-143362624D01*
X114316599Y-143143284D01*
X114316599Y-142801154D01*
X114185671Y-142485068D01*
X113943750Y-142243147D01*
X113627664Y-142112219D01*
X113285534Y-142112219D01*
X112969448Y-142243147D01*
X112727527Y-142485068D01*
X112596599Y-142801154D01*
X112596599Y-143143284D01*
X112649370Y-143270684D01*
X112558516Y-143490024D01*
X112558516Y-143832154D01*
X112562209Y-143841068D01*
X112554928Y-143848349D01*
X112424000Y-144164435D01*
X110946000Y-144164435D01*
X110946000Y-141560935D01*
X158906000Y-141560935D01*
X158906000Y-141903065D01*
X159036928Y-142219151D01*
X159278849Y-142461072D01*
X159594935Y-142592000D01*
X159937065Y-142592000D01*
X160253151Y-142461072D01*
X160495072Y-142219151D01*
X160626000Y-141903065D01*
X160626000Y-141560935D01*
X160495072Y-141244849D01*
X160253151Y-141002928D01*
X159937065Y-140872000D01*
X159594935Y-140872000D01*
X159278849Y-141002928D01*
X159036928Y-141244849D01*
X158906000Y-141560935D01*
X110946000Y-141560935D01*
X110946000Y-140036935D01*
X116487996Y-140036935D01*
X116487996Y-140379065D01*
X116618924Y-140695151D01*
X116860845Y-140937072D01*
X117176931Y-141068000D01*
X117519061Y-141068000D01*
X117835147Y-140937072D01*
X118077068Y-140695151D01*
X118207996Y-140379065D01*
X118207996Y-140290935D01*
X129188000Y-140290935D01*
X129188000Y-140633065D01*
X129318928Y-140949151D01*
X129560849Y-141191072D01*
X129876935Y-141322000D01*
X130219065Y-141322000D01*
X130535151Y-141191072D01*
X130777072Y-140949151D01*
X130908000Y-140633065D01*
X130908000Y-140290935D01*
X130777072Y-139974849D01*
X130535151Y-139732928D01*
X130219065Y-139602000D01*
X129876935Y-139602000D01*
X129560849Y-139732928D01*
X129318928Y-139974849D01*
X129188000Y-140290935D01*
X118207996Y-140290935D01*
X118207996Y-140114245D01*
X118360081Y-139962160D01*
X118491009Y-139646074D01*
X118491009Y-139303944D01*
X118360081Y-138987858D01*
X118118160Y-138745937D01*
X117802074Y-138615009D01*
X117459944Y-138615009D01*
X117143858Y-138745937D01*
X116901937Y-138987858D01*
X116771009Y-139303944D01*
X116771009Y-139568764D01*
X116618924Y-139720849D01*
X116487996Y-140036935D01*
X110946000Y-140036935D01*
X110946000Y-138512935D01*
X129315000Y-138512935D01*
X129315000Y-138855065D01*
X129445928Y-139171151D01*
X129687849Y-139413072D01*
X130003935Y-139544000D01*
X130346065Y-139544000D01*
X130662151Y-139413072D01*
X130904072Y-139171151D01*
X131035000Y-138855065D01*
X131035000Y-138512935D01*
X130904072Y-138196849D01*
X130662151Y-137954928D01*
X130346065Y-137824000D01*
X130003935Y-137824000D01*
X129687849Y-137954928D01*
X129445928Y-138196849D01*
X129315000Y-138512935D01*
X110946000Y-138512935D01*
X110946000Y-135200117D01*
X126714981Y-135200117D01*
X126714981Y-135542247D01*
X126845909Y-135858333D01*
X127087830Y-136100254D01*
X127403916Y-136231182D01*
X127746046Y-136231182D01*
X128062132Y-136100254D01*
X128304053Y-135858333D01*
X128434981Y-135542247D01*
X128434981Y-135200117D01*
X128304053Y-134884031D01*
X128062132Y-134642110D01*
X127872404Y-134563521D01*
X128122151Y-134460072D01*
X128364072Y-134218151D01*
X128495000Y-133902065D01*
X128495000Y-133559935D01*
X128492352Y-133553541D01*
X128781421Y-133553541D01*
X128781421Y-133895671D01*
X128912349Y-134211757D01*
X129154270Y-134453678D01*
X129470356Y-134584606D01*
X129812486Y-134584606D01*
X130128572Y-134453678D01*
X130370493Y-134211757D01*
X130501421Y-133895671D01*
X130501421Y-133559935D01*
X136173000Y-133559935D01*
X136173000Y-133902065D01*
X136303928Y-134218151D01*
X136545849Y-134460072D01*
X136861935Y-134591000D01*
X137204065Y-134591000D01*
X137520151Y-134460072D01*
X137762072Y-134218151D01*
X137893000Y-133902065D01*
X137893000Y-133813935D01*
X142650000Y-133813935D01*
X142650000Y-134156065D01*
X142780928Y-134472151D01*
X143022849Y-134714072D01*
X143338935Y-134845000D01*
X143681065Y-134845000D01*
X143997151Y-134714072D01*
X144239072Y-134472151D01*
X144370000Y-134156065D01*
X144370000Y-133813935D01*
X147730000Y-133813935D01*
X147730000Y-134156065D01*
X147860928Y-134472151D01*
X148102849Y-134714072D01*
X148418935Y-134845000D01*
X148761065Y-134845000D01*
X149077151Y-134714072D01*
X149319072Y-134472151D01*
X149450000Y-134156065D01*
X149450000Y-133813935D01*
X149319072Y-133497849D01*
X149077151Y-133255928D01*
X148761065Y-133125000D01*
X148418935Y-133125000D01*
X148102849Y-133255928D01*
X147860928Y-133497849D01*
X147730000Y-133813935D01*
X144370000Y-133813935D01*
X144239072Y-133497849D01*
X143997151Y-133255928D01*
X143681065Y-133125000D01*
X143338935Y-133125000D01*
X143022849Y-133255928D01*
X142780928Y-133497849D01*
X142650000Y-133813935D01*
X137893000Y-133813935D01*
X137893000Y-133559935D01*
X137762072Y-133243849D01*
X137520151Y-133001928D01*
X137204065Y-132871000D01*
X136861935Y-132871000D01*
X136545849Y-133001928D01*
X136303928Y-133243849D01*
X136173000Y-133559935D01*
X130501421Y-133559935D01*
X130501421Y-133553541D01*
X130370493Y-133237455D01*
X130128572Y-132995534D01*
X129812486Y-132864606D01*
X129470356Y-132864606D01*
X129154270Y-132995534D01*
X128912349Y-133237455D01*
X128781421Y-133553541D01*
X128492352Y-133553541D01*
X128364072Y-133243849D01*
X128122151Y-133001928D01*
X127806065Y-132871000D01*
X127463935Y-132871000D01*
X127147849Y-133001928D01*
X126905928Y-133243849D01*
X126775000Y-133559935D01*
X126775000Y-133902065D01*
X126905928Y-134218151D01*
X127147849Y-134460072D01*
X127337577Y-134538661D01*
X127087830Y-134642110D01*
X126845909Y-134884031D01*
X126714981Y-135200117D01*
X110946000Y-135200117D01*
X110946000Y-133559935D01*
X118901000Y-133559935D01*
X118901000Y-133902065D01*
X119031928Y-134218151D01*
X119273849Y-134460072D01*
X119589935Y-134591000D01*
X119932065Y-134591000D01*
X120248151Y-134460072D01*
X120490072Y-134218151D01*
X120621000Y-133902065D01*
X120621000Y-133559935D01*
X120568395Y-133432935D01*
X121314000Y-133432935D01*
X121314000Y-133775065D01*
X121444928Y-134091151D01*
X121686849Y-134333072D01*
X122002935Y-134464000D01*
X122345065Y-134464000D01*
X122661151Y-134333072D01*
X122903072Y-134091151D01*
X123034000Y-133775065D01*
X123034000Y-133559935D01*
X123346000Y-133559935D01*
X123346000Y-133902065D01*
X123476928Y-134218151D01*
X123718849Y-134460072D01*
X124034935Y-134591000D01*
X124377065Y-134591000D01*
X124693151Y-134460072D01*
X124935072Y-134218151D01*
X125066000Y-133902065D01*
X125066000Y-133559935D01*
X124935072Y-133243849D01*
X124693151Y-133001928D01*
X124377065Y-132871000D01*
X124034935Y-132871000D01*
X123718849Y-133001928D01*
X123476928Y-133243849D01*
X123346000Y-133559935D01*
X123034000Y-133559935D01*
X123034000Y-133432935D01*
X122903072Y-133116849D01*
X122661151Y-132874928D01*
X122345065Y-132744000D01*
X122002935Y-132744000D01*
X121686849Y-132874928D01*
X121444928Y-133116849D01*
X121314000Y-133432935D01*
X120568395Y-133432935D01*
X120490072Y-133243849D01*
X120248151Y-133001928D01*
X119932065Y-132871000D01*
X119589935Y-132871000D01*
X119273849Y-133001928D01*
X119031928Y-133243849D01*
X118901000Y-133559935D01*
X110946000Y-133559935D01*
X110946000Y-130638935D01*
X111458515Y-130638935D01*
X111458515Y-130981065D01*
X111589443Y-131297151D01*
X111831364Y-131539072D01*
X112147450Y-131670000D01*
X112489580Y-131670000D01*
X112805666Y-131539072D01*
X112943803Y-131400935D01*
X134649000Y-131400935D01*
X134649000Y-131743065D01*
X134779928Y-132059151D01*
X135021849Y-132301072D01*
X135337935Y-132432000D01*
X135680065Y-132432000D01*
X135996151Y-132301072D01*
X136238072Y-132059151D01*
X136369000Y-131743065D01*
X136369000Y-131400935D01*
X136238072Y-131084849D01*
X135996151Y-130842928D01*
X135680065Y-130712000D01*
X135337935Y-130712000D01*
X135021849Y-130842928D01*
X134779928Y-131084849D01*
X134649000Y-131400935D01*
X112943803Y-131400935D01*
X113047587Y-131297151D01*
X113178515Y-130981065D01*
X113178515Y-130638935D01*
X113047587Y-130322849D01*
X112805666Y-130080928D01*
X112489580Y-129950000D01*
X112147450Y-129950000D01*
X111831364Y-130080928D01*
X111589443Y-130322849D01*
X111458515Y-130638935D01*
X110946000Y-130638935D01*
X110946000Y-129241935D01*
X115091000Y-129241935D01*
X115091000Y-129584065D01*
X115221928Y-129900151D01*
X115463849Y-130142072D01*
X115779935Y-130273000D01*
X116122065Y-130273000D01*
X116438151Y-130142072D01*
X116680072Y-129900151D01*
X116811000Y-129584065D01*
X116811000Y-129495935D01*
X134522000Y-129495935D01*
X134522000Y-129838065D01*
X134652928Y-130154151D01*
X134894849Y-130396072D01*
X135210935Y-130527000D01*
X135553065Y-130527000D01*
X135869151Y-130396072D01*
X136111072Y-130154151D01*
X136242000Y-129838065D01*
X136242000Y-129495935D01*
X136111072Y-129179849D01*
X135869151Y-128937928D01*
X135553065Y-128807000D01*
X135210935Y-128807000D01*
X134894849Y-128937928D01*
X134652928Y-129179849D01*
X134522000Y-129495935D01*
X116811000Y-129495935D01*
X116811000Y-129241935D01*
X116680072Y-128925849D01*
X116438151Y-128683928D01*
X116122065Y-128553000D01*
X115779935Y-128553000D01*
X115463849Y-128683928D01*
X115221928Y-128925849D01*
X115091000Y-129241935D01*
X110946000Y-129241935D01*
X110946000Y-126699556D01*
X131727525Y-126699556D01*
X131727525Y-127041686D01*
X131855000Y-127349436D01*
X131855000Y-127679065D01*
X131985928Y-127995151D01*
X132227849Y-128237072D01*
X132543935Y-128368000D01*
X132886065Y-128368000D01*
X133202151Y-128237072D01*
X133444072Y-127995151D01*
X133558899Y-127717935D01*
X134395000Y-127717935D01*
X134395000Y-128060065D01*
X134525928Y-128376151D01*
X134767849Y-128618072D01*
X135083935Y-128749000D01*
X135426065Y-128749000D01*
X135742151Y-128618072D01*
X135984072Y-128376151D01*
X136115000Y-128060065D01*
X136115000Y-127717935D01*
X136009790Y-127463935D01*
X153445000Y-127463935D01*
X153445000Y-127806065D01*
X153575928Y-128122151D01*
X153817849Y-128364072D01*
X154133935Y-128495000D01*
X154476065Y-128495000D01*
X154792151Y-128364072D01*
X155034072Y-128122151D01*
X155165000Y-127806065D01*
X155165000Y-127463935D01*
X155034072Y-127147849D01*
X154792151Y-126905928D01*
X154476065Y-126775000D01*
X154133935Y-126775000D01*
X153817849Y-126905928D01*
X153575928Y-127147849D01*
X153445000Y-127463935D01*
X136009790Y-127463935D01*
X135984072Y-127401849D01*
X135742151Y-127159928D01*
X135426065Y-127029000D01*
X135083935Y-127029000D01*
X134767849Y-127159928D01*
X134525928Y-127401849D01*
X134395000Y-127717935D01*
X133558899Y-127717935D01*
X133575000Y-127679065D01*
X133575000Y-127336935D01*
X133447525Y-127029185D01*
X133447525Y-126699556D01*
X133316597Y-126383470D01*
X133074676Y-126141549D01*
X132758590Y-126010621D01*
X132416460Y-126010621D01*
X132100374Y-126141549D01*
X131858453Y-126383470D01*
X131727525Y-126699556D01*
X110946000Y-126699556D01*
X110946000Y-125431935D01*
X146079000Y-125431935D01*
X146079000Y-125774065D01*
X146209928Y-126090151D01*
X146451849Y-126332072D01*
X146767935Y-126463000D01*
X147110065Y-126463000D01*
X147426151Y-126332072D01*
X147668072Y-126090151D01*
X147799000Y-125774065D01*
X147799000Y-125431935D01*
X147668072Y-125115849D01*
X147426151Y-124873928D01*
X147110065Y-124743000D01*
X146767935Y-124743000D01*
X146451849Y-124873928D01*
X146209928Y-125115849D01*
X146079000Y-125431935D01*
X110946000Y-125431935D01*
X110946000Y-122383935D01*
X111916000Y-122383935D01*
X111916000Y-122726065D01*
X112046928Y-123042151D01*
X112288849Y-123284072D01*
X112604935Y-123415000D01*
X112947065Y-123415000D01*
X113263151Y-123284072D01*
X113401288Y-123145935D01*
X123219000Y-123145935D01*
X123219000Y-123488065D01*
X123349928Y-123804151D01*
X123591849Y-124046072D01*
X123907935Y-124177000D01*
X124250065Y-124177000D01*
X124566151Y-124046072D01*
X124808072Y-123804151D01*
X124870293Y-123653935D01*
X134649000Y-123653935D01*
X134649000Y-123996065D01*
X134779928Y-124312151D01*
X135021849Y-124554072D01*
X135337935Y-124685000D01*
X135680065Y-124685000D01*
X135996151Y-124554072D01*
X136238072Y-124312151D01*
X136369000Y-123996065D01*
X136369000Y-123653935D01*
X136238072Y-123337849D01*
X135996151Y-123095928D01*
X135680065Y-122965000D01*
X135337935Y-122965000D01*
X135021849Y-123095928D01*
X134779928Y-123337849D01*
X134649000Y-123653935D01*
X124870293Y-123653935D01*
X124939000Y-123488065D01*
X124939000Y-123145935D01*
X124808072Y-122829849D01*
X124566151Y-122587928D01*
X124250065Y-122457000D01*
X123907935Y-122457000D01*
X123591849Y-122587928D01*
X123349928Y-122829849D01*
X123219000Y-123145935D01*
X113401288Y-123145935D01*
X113505072Y-123042151D01*
X113636000Y-122726065D01*
X113636000Y-122383935D01*
X113538921Y-122149566D01*
X153405623Y-122149566D01*
X153405623Y-122491696D01*
X153536551Y-122807782D01*
X153778472Y-123049703D01*
X154094558Y-123180631D01*
X154436688Y-123180631D01*
X154752774Y-123049703D01*
X154994695Y-122807782D01*
X155125623Y-122491696D01*
X155125623Y-122149566D01*
X154994695Y-121833480D01*
X154752774Y-121591559D01*
X154436688Y-121460631D01*
X154094558Y-121460631D01*
X153778472Y-121591559D01*
X153536551Y-121833480D01*
X153405623Y-122149566D01*
X113538921Y-122149566D01*
X113505072Y-122067849D01*
X113263151Y-121825928D01*
X112947065Y-121695000D01*
X112604935Y-121695000D01*
X112288849Y-121825928D01*
X112046928Y-122067849D01*
X111916000Y-122383935D01*
X110946000Y-122383935D01*
X110946000Y-119462935D01*
X111916000Y-119462935D01*
X111916000Y-119805065D01*
X112046928Y-120121151D01*
X112288849Y-120363072D01*
X112604935Y-120494000D01*
X112947065Y-120494000D01*
X113263151Y-120363072D01*
X113505072Y-120121151D01*
X113636000Y-119805065D01*
X113636000Y-119617982D01*
X131465421Y-119617982D01*
X131465421Y-119960112D01*
X131596349Y-120276198D01*
X131838270Y-120518119D01*
X132154356Y-120649047D01*
X132496486Y-120649047D01*
X132812572Y-120518119D01*
X133054493Y-120276198D01*
X133185421Y-119960112D01*
X133185421Y-119617982D01*
X133126731Y-119476292D01*
X133195538Y-119310178D01*
X133195538Y-118968048D01*
X133064610Y-118651962D01*
X132822689Y-118410041D01*
X132506603Y-118279113D01*
X132164473Y-118279113D01*
X131848387Y-118410041D01*
X131606466Y-118651962D01*
X131475538Y-118968048D01*
X131475538Y-119310178D01*
X131534228Y-119451868D01*
X131465421Y-119617982D01*
X113636000Y-119617982D01*
X113636000Y-119462935D01*
X113505072Y-119146849D01*
X113263151Y-118904928D01*
X112947065Y-118774000D01*
X112604935Y-118774000D01*
X112288849Y-118904928D01*
X112046928Y-119146849D01*
X111916000Y-119462935D01*
X110946000Y-119462935D01*
X110946000Y-118192935D01*
X134522000Y-118192935D01*
X134522000Y-118535065D01*
X134652928Y-118851151D01*
X134894849Y-119093072D01*
X135210935Y-119224000D01*
X135553065Y-119224000D01*
X135869151Y-119093072D01*
X136111072Y-118851151D01*
X136242000Y-118535065D01*
X136242000Y-118192935D01*
X136111072Y-117876849D01*
X135869151Y-117634928D01*
X135553065Y-117504000D01*
X135210935Y-117504000D01*
X134894849Y-117634928D01*
X134652928Y-117876849D01*
X134522000Y-118192935D01*
X110946000Y-118192935D01*
X110946000Y-115990946D01*
X126648000Y-115990946D01*
X126648000Y-116333076D01*
X126778928Y-116649162D01*
X127020849Y-116891083D01*
X127336935Y-117022011D01*
X127679065Y-117022011D01*
X127995151Y-116891083D01*
X128237072Y-116649162D01*
X128334092Y-116414935D01*
X143666000Y-116414935D01*
X143666000Y-116757065D01*
X143796928Y-117073151D01*
X144038849Y-117315072D01*
X144354935Y-117446000D01*
X144697065Y-117446000D01*
X145013151Y-117315072D01*
X145112288Y-117215935D01*
X155858000Y-117215935D01*
X155858000Y-117558065D01*
X155988928Y-117874151D01*
X156230849Y-118116072D01*
X156546935Y-118247000D01*
X156889065Y-118247000D01*
X157205151Y-118116072D01*
X157447072Y-117874151D01*
X157578000Y-117558065D01*
X157578000Y-117215935D01*
X157447072Y-116899849D01*
X157205151Y-116657928D01*
X156889065Y-116527000D01*
X156546935Y-116527000D01*
X156230849Y-116657928D01*
X155988928Y-116899849D01*
X155858000Y-117215935D01*
X145112288Y-117215935D01*
X145255072Y-117073151D01*
X145386000Y-116757065D01*
X145386000Y-116414935D01*
X145255072Y-116098849D01*
X145013151Y-115856928D01*
X144697065Y-115726000D01*
X144354935Y-115726000D01*
X144038849Y-115856928D01*
X143796928Y-116098849D01*
X143666000Y-116414935D01*
X128334092Y-116414935D01*
X128368000Y-116333076D01*
X128368000Y-115990946D01*
X128237072Y-115674860D01*
X127995151Y-115432939D01*
X127679065Y-115302011D01*
X127336935Y-115302011D01*
X127020849Y-115432939D01*
X126778928Y-115674860D01*
X126648000Y-115990946D01*
X110946000Y-115990946D01*
X110946000Y-114890935D01*
X116869000Y-114890935D01*
X116869000Y-115233065D01*
X116999928Y-115549151D01*
X117241849Y-115791072D01*
X117557935Y-115922000D01*
X117900065Y-115922000D01*
X118216151Y-115791072D01*
X118458072Y-115549151D01*
X118589000Y-115233065D01*
X118589000Y-114890935D01*
X118536395Y-114763935D01*
X119409000Y-114763935D01*
X119409000Y-115106065D01*
X119539928Y-115422151D01*
X119781849Y-115664072D01*
X120097935Y-115795000D01*
X120440065Y-115795000D01*
X120756151Y-115664072D01*
X120998072Y-115422151D01*
X121129000Y-115106065D01*
X121129000Y-114859635D01*
X121240935Y-114906000D01*
X121583065Y-114906000D01*
X121899151Y-114775072D01*
X121910288Y-114763935D01*
X125378000Y-114763935D01*
X125378000Y-115106065D01*
X125508928Y-115422151D01*
X125750849Y-115664072D01*
X126066935Y-115795000D01*
X126409065Y-115795000D01*
X126725151Y-115664072D01*
X126967072Y-115422151D01*
X127098000Y-115106065D01*
X127098000Y-114890935D01*
X139094000Y-114890935D01*
X139094000Y-115233065D01*
X139224928Y-115549151D01*
X139466849Y-115791072D01*
X139782935Y-115922000D01*
X140125065Y-115922000D01*
X140441151Y-115791072D01*
X140683072Y-115549151D01*
X140814000Y-115233065D01*
X140814000Y-115010026D01*
X141620000Y-115010026D01*
X141620000Y-115352156D01*
X141750928Y-115668242D01*
X141992849Y-115910163D01*
X142308935Y-116041091D01*
X142651065Y-116041091D01*
X142967151Y-115910163D01*
X143209072Y-115668242D01*
X143340000Y-115352156D01*
X143340000Y-115010026D01*
X143209072Y-114693940D01*
X142967151Y-114452019D01*
X142651065Y-114321091D01*
X142308935Y-114321091D01*
X141992849Y-114452019D01*
X141750928Y-114693940D01*
X141620000Y-115010026D01*
X140814000Y-115010026D01*
X140814000Y-114890935D01*
X140683072Y-114574849D01*
X140441151Y-114332928D01*
X140125065Y-114202000D01*
X139782935Y-114202000D01*
X139466849Y-114332928D01*
X139224928Y-114574849D01*
X139094000Y-114890935D01*
X127098000Y-114890935D01*
X127098000Y-114763935D01*
X126967072Y-114447849D01*
X126725151Y-114205928D01*
X126409065Y-114075000D01*
X126066935Y-114075000D01*
X125750849Y-114205928D01*
X125508928Y-114447849D01*
X125378000Y-114763935D01*
X121910288Y-114763935D01*
X122141072Y-114533151D01*
X122272000Y-114217065D01*
X122272000Y-113874935D01*
X122141072Y-113558849D01*
X122076158Y-113493935D01*
X130331000Y-113493935D01*
X130331000Y-113836065D01*
X130461928Y-114152151D01*
X130703849Y-114394072D01*
X131019935Y-114525000D01*
X131362065Y-114525000D01*
X131678151Y-114394072D01*
X131920072Y-114152151D01*
X132051000Y-113836065D01*
X132051000Y-113493935D01*
X131920072Y-113177849D01*
X131678151Y-112935928D01*
X131362065Y-112805000D01*
X131019935Y-112805000D01*
X130703849Y-112935928D01*
X130461928Y-113177849D01*
X130331000Y-113493935D01*
X122076158Y-113493935D01*
X121899151Y-113316928D01*
X121583065Y-113186000D01*
X121240935Y-113186000D01*
X120924849Y-113316928D01*
X120682928Y-113558849D01*
X120552000Y-113874935D01*
X120552000Y-114121365D01*
X120440065Y-114075000D01*
X120097935Y-114075000D01*
X119781849Y-114205928D01*
X119539928Y-114447849D01*
X119409000Y-114763935D01*
X118536395Y-114763935D01*
X118458072Y-114574849D01*
X118216151Y-114332928D01*
X117900065Y-114202000D01*
X117557935Y-114202000D01*
X117241849Y-114332928D01*
X116999928Y-114574849D01*
X116869000Y-114890935D01*
X110946000Y-114890935D01*
X110946000Y-112318581D01*
X110999785Y-111943011D01*
X136711241Y-111943011D01*
X136711241Y-112285141D01*
X136842169Y-112601227D01*
X137084090Y-112843148D01*
X137400176Y-112974076D01*
X137742306Y-112974076D01*
X138058392Y-112843148D01*
X138300313Y-112601227D01*
X138351382Y-112477935D01*
X138713000Y-112477935D01*
X138713000Y-112820065D01*
X138843928Y-113136151D01*
X139085849Y-113378072D01*
X139401935Y-113509000D01*
X139744065Y-113509000D01*
X140060151Y-113378072D01*
X140071288Y-113366935D01*
X153572000Y-113366935D01*
X153572000Y-113709065D01*
X153702928Y-114025151D01*
X153944849Y-114267072D01*
X154260935Y-114398000D01*
X154603065Y-114398000D01*
X154919151Y-114267072D01*
X155161072Y-114025151D01*
X155292000Y-113709065D01*
X155292000Y-113366935D01*
X155161072Y-113050849D01*
X154919151Y-112808928D01*
X154603065Y-112678000D01*
X154260935Y-112678000D01*
X153944849Y-112808928D01*
X153702928Y-113050849D01*
X153572000Y-113366935D01*
X140071288Y-113366935D01*
X140302072Y-113136151D01*
X140433000Y-112820065D01*
X140433000Y-112477935D01*
X140302072Y-112161849D01*
X140060151Y-111919928D01*
X139744065Y-111789000D01*
X139401935Y-111789000D01*
X139085849Y-111919928D01*
X138843928Y-112161849D01*
X138713000Y-112477935D01*
X138351382Y-112477935D01*
X138431241Y-112285141D01*
X138431241Y-111943011D01*
X138300313Y-111626925D01*
X138058392Y-111385004D01*
X137742306Y-111254076D01*
X137400176Y-111254076D01*
X137084090Y-111385004D01*
X136842169Y-111626925D01*
X136711241Y-111943011D01*
X110999785Y-111943011D01*
X111006090Y-111898991D01*
X111160381Y-111559648D01*
X111403712Y-111277248D01*
X111716523Y-111074494D01*
X112097184Y-110960652D01*
X112294350Y-110946000D01*
X150095797Y-110946000D01*
X149892928Y-111148869D01*
X149892928Y-111148869D01*
G37*
X149892928Y-111148869D02*
X149762000Y-111464955D01*
X149762000Y-111807085D01*
X149892928Y-112123171D01*
X150134849Y-112365092D01*
X150450935Y-112496020D01*
X150793065Y-112496020D01*
X151109151Y-112365092D01*
X151351072Y-112123171D01*
X151482000Y-111807085D01*
X151482000Y-111464955D01*
X151351072Y-111148869D01*
X151148203Y-110946000D01*
X159334419Y-110946000D01*
X159754009Y-111006090D01*
X160093352Y-111160381D01*
X160375752Y-111403712D01*
X160578506Y-111716523D01*
X160692348Y-112097184D01*
X160707000Y-112294350D01*
X160707001Y-159969412D01*
X160646910Y-160389009D01*
X160492619Y-160728352D01*
X160249288Y-161010752D01*
X159936479Y-161213506D01*
X159555815Y-161327348D01*
X159358649Y-161342000D01*
X157773385Y-161342000D01*
X157847018Y-161256259D01*
X158006673Y-160769383D01*
X157856571Y-160563500D01*
X156830000Y-160563500D01*
X156830000Y-160583500D01*
X156576000Y-160583500D01*
X156576000Y-160563500D01*
X155549429Y-160563500D01*
X155399327Y-160769383D01*
X155558982Y-161256259D01*
X155632615Y-161342000D01*
X152313385Y-161342000D01*
X152387018Y-161256259D01*
X152546673Y-160769383D01*
X152396571Y-160563500D01*
X151370000Y-160563500D01*
X151370000Y-160583500D01*
X151116000Y-160583500D01*
X151116000Y-160563500D01*
X150089429Y-160563500D01*
X149939327Y-160769383D01*
X150098982Y-161256259D01*
X150172615Y-161342000D01*
X112318581Y-161342000D01*
X111898991Y-161281910D01*
X111559648Y-161127619D01*
X111277248Y-160884288D01*
X111074494Y-160571479D01*
X110960652Y-160190815D01*
X110954173Y-160103617D01*
X149939327Y-160103617D01*
X150089429Y-160309500D01*
X151116000Y-160309500D01*
X151116000Y-159117276D01*
X151370000Y-159117276D01*
X151370000Y-160309500D01*
X152396571Y-160309500D01*
X152546673Y-160103617D01*
X155399327Y-160103617D01*
X155549429Y-160309500D01*
X156576000Y-160309500D01*
X156576000Y-159117276D01*
X156830000Y-159117276D01*
X156830000Y-160309500D01*
X157856571Y-160309500D01*
X158006673Y-160103617D01*
X157847018Y-159616741D01*
X157513196Y-159228024D01*
X157056029Y-158996644D01*
X157032400Y-158993590D01*
X156830000Y-159117276D01*
X156576000Y-159117276D01*
X156373600Y-158993590D01*
X156349971Y-158996644D01*
X155892804Y-159228024D01*
X155558982Y-159616741D01*
X155399327Y-160103617D01*
X152546673Y-160103617D01*
X152387018Y-159616741D01*
X152053196Y-159228024D01*
X151596029Y-158996644D01*
X151572400Y-158993590D01*
X151370000Y-159117276D01*
X151116000Y-159117276D01*
X150913600Y-158993590D01*
X150889971Y-158996644D01*
X150432804Y-159228024D01*
X150098982Y-159616741D01*
X149939327Y-160103617D01*
X110954173Y-160103617D01*
X110946000Y-159993649D01*
X110946000Y-159460608D01*
X110956164Y-159450444D01*
X111051763Y-159714704D01*
X111652429Y-159937049D01*
X112292461Y-159912605D01*
X112770237Y-159714704D01*
X112865837Y-159450442D01*
X126656163Y-159450442D01*
X126751763Y-159714704D01*
X127352429Y-159937049D01*
X127992461Y-159912605D01*
X128470237Y-159714704D01*
X128565837Y-159450442D01*
X127611000Y-158495605D01*
X126656163Y-159450442D01*
X112865837Y-159450442D01*
X111911000Y-158495605D01*
X111896858Y-158509748D01*
X111717253Y-158330143D01*
X111731395Y-158316000D01*
X112090605Y-158316000D01*
X113045442Y-159270837D01*
X113309704Y-159175237D01*
X113532049Y-158574571D01*
X113512299Y-158057429D01*
X125989951Y-158057429D01*
X126014395Y-158697461D01*
X126212296Y-159175237D01*
X126476558Y-159270837D01*
X127431395Y-158316000D01*
X127790605Y-158316000D01*
X128745442Y-159270837D01*
X129009704Y-159175237D01*
X129232049Y-158574571D01*
X129207605Y-157934539D01*
X129131326Y-157750383D01*
X150367320Y-157750383D01*
X150501156Y-158195454D01*
X150795125Y-158555429D01*
X151204474Y-158775506D01*
X151243256Y-158780303D01*
X151426000Y-158654861D01*
X151426000Y-157563500D01*
X151680000Y-157563500D01*
X151680000Y-158654861D01*
X151862744Y-158780303D01*
X151901526Y-158775506D01*
X152310875Y-158555429D01*
X152604844Y-158195454D01*
X152738680Y-157750383D01*
X155207320Y-157750383D01*
X155341156Y-158195454D01*
X155635125Y-158555429D01*
X156044474Y-158775506D01*
X156083256Y-158780303D01*
X156266000Y-158654861D01*
X156266000Y-157563500D01*
X156520000Y-157563500D01*
X156520000Y-158654861D01*
X156702744Y-158780303D01*
X156741526Y-158775506D01*
X157150875Y-158555429D01*
X157444844Y-158195454D01*
X157578680Y-157750383D01*
X157423148Y-157563500D01*
X156520000Y-157563500D01*
X156266000Y-157563500D01*
X155362852Y-157563500D01*
X155207320Y-157750383D01*
X152738680Y-157750383D01*
X152583148Y-157563500D01*
X151680000Y-157563500D01*
X151426000Y-157563500D01*
X150522852Y-157563500D01*
X150367320Y-157750383D01*
X129131326Y-157750383D01*
X129009704Y-157456763D01*
X128745442Y-157361163D01*
X127790605Y-158316000D01*
X127431395Y-158316000D01*
X126476558Y-157361163D01*
X126212296Y-157456763D01*
X125989951Y-158057429D01*
X113512299Y-158057429D01*
X113507605Y-157934539D01*
X113309704Y-157456763D01*
X113045442Y-157361163D01*
X112090605Y-158316000D01*
X111731395Y-158316000D01*
X111717253Y-158301858D01*
X111896858Y-158122253D01*
X111911000Y-158136395D01*
X112865837Y-157181558D01*
X126656163Y-157181558D01*
X127611000Y-158136395D01*
X128565837Y-157181558D01*
X128544515Y-157122617D01*
X150367320Y-157122617D01*
X150522852Y-157309500D01*
X151426000Y-157309500D01*
X151426000Y-156218139D01*
X151680000Y-156218139D01*
X151680000Y-157309500D01*
X152583148Y-157309500D01*
X152738680Y-157122617D01*
X155207320Y-157122617D01*
X155362852Y-157309500D01*
X156266000Y-157309500D01*
X156266000Y-156218139D01*
X156520000Y-156218139D01*
X156520000Y-157309500D01*
X157423148Y-157309500D01*
X157578680Y-157122617D01*
X157444844Y-156677546D01*
X157150875Y-156317571D01*
X156741526Y-156097494D01*
X156702744Y-156092697D01*
X156520000Y-156218139D01*
X156266000Y-156218139D01*
X156083256Y-156092697D01*
X156044474Y-156097494D01*
X155635125Y-156317571D01*
X155341156Y-156677546D01*
X155207320Y-157122617D01*
X152738680Y-157122617D01*
X152604844Y-156677546D01*
X152310875Y-156317571D01*
X151901526Y-156097494D01*
X151862744Y-156092697D01*
X151680000Y-156218139D01*
X151426000Y-156218139D01*
X151243256Y-156092697D01*
X151204474Y-156097494D01*
X150795125Y-156317571D01*
X150501156Y-156677546D01*
X150367320Y-157122617D01*
X128544515Y-157122617D01*
X128470237Y-156917296D01*
X127869571Y-156694951D01*
X127229539Y-156719395D01*
X126751763Y-156917296D01*
X126656163Y-157181558D01*
X112865837Y-157181558D01*
X112770237Y-156917296D01*
X112169571Y-156694951D01*
X111529539Y-156719395D01*
X111051763Y-156917296D01*
X110956164Y-157181556D01*
X110946000Y-157171392D01*
X110946000Y-154550442D01*
X111556163Y-154550442D01*
X111651763Y-154814704D01*
X112252429Y-155037049D01*
X112892461Y-155012605D01*
X113370237Y-154814704D01*
X113465837Y-154550442D01*
X126056163Y-154550442D01*
X126151763Y-154814704D01*
X126752429Y-155037049D01*
X127392461Y-155012605D01*
X127775524Y-154853935D01*
X133252000Y-154853935D01*
X133252000Y-155196065D01*
X133382928Y-155512151D01*
X133445777Y-155575000D01*
X133382928Y-155637849D01*
X133252000Y-155953935D01*
X133252000Y-156296065D01*
X133382928Y-156612151D01*
X133624849Y-156854072D01*
X133940935Y-156985000D01*
X134283065Y-156985000D01*
X134599151Y-156854072D01*
X134841072Y-156612151D01*
X134972000Y-156296065D01*
X134972000Y-155953935D01*
X134841072Y-155637849D01*
X134778223Y-155575000D01*
X134841072Y-155512151D01*
X134972000Y-155196065D01*
X134972000Y-154853935D01*
X142269000Y-154853935D01*
X142269000Y-155196065D01*
X142399928Y-155512151D01*
X142462777Y-155575000D01*
X142399928Y-155637849D01*
X142269000Y-155953935D01*
X142269000Y-156296065D01*
X142399928Y-156612151D01*
X142641849Y-156854072D01*
X142957935Y-156985000D01*
X143300065Y-156985000D01*
X143616151Y-156854072D01*
X143858072Y-156612151D01*
X143989000Y-156296065D01*
X143989000Y-155953935D01*
X143858072Y-155637849D01*
X143795223Y-155575000D01*
X143858072Y-155512151D01*
X143989000Y-155196065D01*
X143989000Y-154853935D01*
X143858072Y-154537849D01*
X143616151Y-154295928D01*
X143300065Y-154165000D01*
X142957935Y-154165000D01*
X142641849Y-154295928D01*
X142399928Y-154537849D01*
X142269000Y-154853935D01*
X134972000Y-154853935D01*
X134841072Y-154537849D01*
X134599151Y-154295928D01*
X134283065Y-154165000D01*
X133940935Y-154165000D01*
X133624849Y-154295928D01*
X133382928Y-154537849D01*
X133252000Y-154853935D01*
X127775524Y-154853935D01*
X127870237Y-154814704D01*
X127965837Y-154550442D01*
X127011000Y-153595605D01*
X126056163Y-154550442D01*
X113465837Y-154550442D01*
X112511000Y-153595605D01*
X111556163Y-154550442D01*
X110946000Y-154550442D01*
X110946000Y-153873762D01*
X111112296Y-154275237D01*
X111376558Y-154370837D01*
X112331395Y-153416000D01*
X112690605Y-153416000D01*
X113645442Y-154370837D01*
X113909704Y-154275237D01*
X114132049Y-153674571D01*
X114112299Y-153157429D01*
X125389951Y-153157429D01*
X125414395Y-153797461D01*
X125612296Y-154275237D01*
X125876558Y-154370837D01*
X126831395Y-153416000D01*
X127190605Y-153416000D01*
X128145442Y-154370837D01*
X128409704Y-154275237D01*
X128632049Y-153674571D01*
X128607605Y-153034539D01*
X128409704Y-152556763D01*
X128145442Y-152461163D01*
X127190605Y-153416000D01*
X126831395Y-153416000D01*
X125876558Y-152461163D01*
X125612296Y-152556763D01*
X125389951Y-153157429D01*
X114112299Y-153157429D01*
X114107605Y-153034539D01*
X113909704Y-152556763D01*
X113645442Y-152461163D01*
X112690605Y-153416000D01*
X112331395Y-153416000D01*
X111376558Y-152461163D01*
X111112296Y-152556763D01*
X110946000Y-153006012D01*
X110946000Y-152281558D01*
X111556163Y-152281558D01*
X112511000Y-153236395D01*
X113465837Y-152281558D01*
X126056163Y-152281558D01*
X127011000Y-153236395D01*
X127965837Y-152281558D01*
X127870237Y-152017296D01*
X127269571Y-151794951D01*
X126629539Y-151819395D01*
X126151763Y-152017296D01*
X126056163Y-152281558D01*
X113465837Y-152281558D01*
X113370237Y-152017296D01*
X112769571Y-151794951D01*
X112129539Y-151819395D01*
X111651763Y-152017296D01*
X111556163Y-152281558D01*
X110946000Y-152281558D01*
X110946000Y-150704935D01*
X115218000Y-150704935D01*
X115218000Y-151047065D01*
X115348928Y-151363151D01*
X115590849Y-151605072D01*
X115906935Y-151736000D01*
X116249065Y-151736000D01*
X116565151Y-151605072D01*
X116807072Y-151363151D01*
X116816681Y-151339951D01*
X155223000Y-151339951D01*
X155223000Y-151682081D01*
X155353928Y-151998167D01*
X155595849Y-152240088D01*
X155911935Y-152371016D01*
X156254065Y-152371016D01*
X156570151Y-152240088D01*
X156812072Y-151998167D01*
X156943000Y-151682081D01*
X156943000Y-151466935D01*
X157128000Y-151466935D01*
X157128000Y-151809065D01*
X157258928Y-152125151D01*
X157500849Y-152367072D01*
X157816935Y-152498000D01*
X158159065Y-152498000D01*
X158475151Y-152367072D01*
X158717072Y-152125151D01*
X158848000Y-151809065D01*
X158848000Y-151466935D01*
X158717072Y-151150849D01*
X158475151Y-150908928D01*
X158159065Y-150778000D01*
X157816935Y-150778000D01*
X157500849Y-150908928D01*
X157258928Y-151150849D01*
X157128000Y-151466935D01*
X156943000Y-151466935D01*
X156943000Y-151339951D01*
X156812072Y-151023865D01*
X156570151Y-150781944D01*
X156254065Y-150651016D01*
X155911935Y-150651016D01*
X155595849Y-150781944D01*
X155353928Y-151023865D01*
X155223000Y-151339951D01*
X116816681Y-151339951D01*
X116938000Y-151047065D01*
X116938000Y-150704935D01*
X116807072Y-150388849D01*
X116565151Y-150146928D01*
X116249065Y-150016000D01*
X115906935Y-150016000D01*
X115590849Y-150146928D01*
X115348928Y-150388849D01*
X115218000Y-150704935D01*
X110946000Y-150704935D01*
X110946000Y-149561929D01*
X111408000Y-149561929D01*
X111408000Y-149904059D01*
X111538928Y-150220145D01*
X111780849Y-150462066D01*
X112096935Y-150592994D01*
X112439065Y-150592994D01*
X112755151Y-150462066D01*
X112997072Y-150220145D01*
X113128000Y-149904059D01*
X113128000Y-149561929D01*
X113022792Y-149307935D01*
X117631000Y-149307935D01*
X117631000Y-149650065D01*
X117761928Y-149966151D01*
X118003849Y-150208072D01*
X118319935Y-150339000D01*
X118662065Y-150339000D01*
X118978151Y-150208072D01*
X119220072Y-149966151D01*
X119322243Y-149719491D01*
X119443929Y-150013265D01*
X119685850Y-150255186D01*
X120001936Y-150386114D01*
X120344066Y-150386114D01*
X120660152Y-150255186D01*
X120902073Y-150013265D01*
X121033001Y-149697179D01*
X121033001Y-149355049D01*
X121013486Y-149307935D01*
X121863000Y-149307935D01*
X121863000Y-149650065D01*
X121993928Y-149966151D01*
X122235849Y-150208072D01*
X122551935Y-150339000D01*
X122894065Y-150339000D01*
X123210151Y-150208072D01*
X123452072Y-149966151D01*
X123583000Y-149650065D01*
X123583000Y-149307935D01*
X123600000Y-149307935D01*
X123600000Y-149650065D01*
X123730928Y-149966151D01*
X123972849Y-150208072D01*
X124288935Y-150339000D01*
X124631065Y-150339000D01*
X124947151Y-150208072D01*
X125189072Y-149966151D01*
X125320000Y-149650065D01*
X125320000Y-149307935D01*
X125189072Y-148991849D01*
X124947151Y-148749928D01*
X124631065Y-148619000D01*
X124288935Y-148619000D01*
X123972849Y-148749928D01*
X123730928Y-148991849D01*
X123600000Y-149307935D01*
X123583000Y-149307935D01*
X123452072Y-148991849D01*
X123210151Y-148749928D01*
X122894065Y-148619000D01*
X122551935Y-148619000D01*
X122235849Y-148749928D01*
X121993928Y-148991849D01*
X121863000Y-149307935D01*
X121013486Y-149307935D01*
X120902073Y-149038963D01*
X120660152Y-148797042D01*
X120344066Y-148666114D01*
X120001936Y-148666114D01*
X119685850Y-148797042D01*
X119443929Y-149038963D01*
X119341758Y-149285623D01*
X119220072Y-148991849D01*
X118978151Y-148749928D01*
X118662065Y-148619000D01*
X118319935Y-148619000D01*
X118003849Y-148749928D01*
X117761928Y-148991849D01*
X117631000Y-149307935D01*
X113022792Y-149307935D01*
X112997072Y-149245843D01*
X112755151Y-149003922D01*
X112439065Y-148872994D01*
X112096935Y-148872994D01*
X111780849Y-149003922D01*
X111538928Y-149245843D01*
X111408000Y-149561929D01*
X110946000Y-149561929D01*
X110946000Y-148333945D01*
X134649000Y-148333945D01*
X134649000Y-148676075D01*
X134779928Y-148992161D01*
X135021849Y-149234082D01*
X135337935Y-149365010D01*
X135680065Y-149365010D01*
X135817855Y-149307935D01*
X146333000Y-149307935D01*
X146333000Y-149650065D01*
X146463928Y-149966151D01*
X146705849Y-150208072D01*
X147021935Y-150339000D01*
X147364065Y-150339000D01*
X147680151Y-150208072D01*
X147922072Y-149966151D01*
X148053000Y-149650065D01*
X148053000Y-149307935D01*
X147922072Y-148991849D01*
X147680151Y-148749928D01*
X147364065Y-148619000D01*
X147021935Y-148619000D01*
X146705849Y-148749928D01*
X146463928Y-148991849D01*
X146333000Y-149307935D01*
X135817855Y-149307935D01*
X135996151Y-149234082D01*
X136238072Y-148992161D01*
X136369000Y-148676075D01*
X136369000Y-148333945D01*
X136238072Y-148017859D01*
X135996151Y-147775938D01*
X135680065Y-147645010D01*
X135337935Y-147645010D01*
X135021849Y-147775938D01*
X134779928Y-148017859D01*
X134649000Y-148333945D01*
X110946000Y-148333945D01*
X110946000Y-146513935D01*
X117377000Y-146513935D01*
X117377000Y-146856065D01*
X117507928Y-147172151D01*
X117749849Y-147414072D01*
X118065935Y-147545000D01*
X118408065Y-147545000D01*
X118724151Y-147414072D01*
X118966072Y-147172151D01*
X119097000Y-146856065D01*
X119097000Y-146513935D01*
X119536000Y-146513935D01*
X119536000Y-146856065D01*
X119666928Y-147172151D01*
X119908849Y-147414072D01*
X120224935Y-147545000D01*
X120567065Y-147545000D01*
X120883151Y-147414072D01*
X121125072Y-147172151D01*
X121256000Y-146856065D01*
X121256000Y-146582589D01*
X122057114Y-146582589D01*
X122057114Y-146924719D01*
X122188042Y-147240805D01*
X122429963Y-147482726D01*
X122746049Y-147613654D01*
X123088179Y-147613654D01*
X123404265Y-147482726D01*
X123646186Y-147240805D01*
X123777114Y-146924719D01*
X123777114Y-146582589D01*
X123646186Y-146266503D01*
X123412262Y-146032579D01*
X131855000Y-146032579D01*
X131855000Y-146374709D01*
X131985928Y-146690795D01*
X132227849Y-146932716D01*
X132543935Y-147063644D01*
X132886065Y-147063644D01*
X133202151Y-146932716D01*
X133444072Y-146690795D01*
X133575000Y-146374709D01*
X133575000Y-146032579D01*
X133511359Y-145878935D01*
X140364000Y-145878935D01*
X140364000Y-146221065D01*
X140494928Y-146537151D01*
X140736849Y-146779072D01*
X141052935Y-146910000D01*
X141395065Y-146910000D01*
X141711151Y-146779072D01*
X141953072Y-146537151D01*
X142084000Y-146221065D01*
X142084000Y-146005935D01*
X146333000Y-146005935D01*
X146333000Y-146348065D01*
X146463928Y-146664151D01*
X146705849Y-146906072D01*
X147021935Y-147037000D01*
X147364065Y-147037000D01*
X147680151Y-146906072D01*
X147922072Y-146664151D01*
X148053000Y-146348065D01*
X148053000Y-146005935D01*
X147922072Y-145689849D01*
X147680151Y-145447928D01*
X147364065Y-145317000D01*
X147021935Y-145317000D01*
X146705849Y-145447928D01*
X146463928Y-145689849D01*
X146333000Y-146005935D01*
X142084000Y-146005935D01*
X142084000Y-145878935D01*
X141953072Y-145562849D01*
X141711151Y-145320928D01*
X141395065Y-145190000D01*
X141052935Y-145190000D01*
X140736849Y-145320928D01*
X140494928Y-145562849D01*
X140364000Y-145878935D01*
X133511359Y-145878935D01*
X133444072Y-145716493D01*
X133202151Y-145474572D01*
X132886065Y-145343644D01*
X132543935Y-145343644D01*
X132227849Y-145474572D01*
X131985928Y-145716493D01*
X131855000Y-146032579D01*
X123412262Y-146032579D01*
X123404265Y-146024582D01*
X123088179Y-145893654D01*
X122746049Y-145893654D01*
X122429963Y-146024582D01*
X122188042Y-146266503D01*
X122057114Y-146582589D01*
X121256000Y-146582589D01*
X121256000Y-146513935D01*
X121125072Y-146197849D01*
X120883151Y-145955928D01*
X120567065Y-145825000D01*
X120224935Y-145825000D01*
X119908849Y-145955928D01*
X119666928Y-146197849D01*
X119536000Y-146513935D01*
X119097000Y-146513935D01*
X118966072Y-146197849D01*
X118724151Y-145955928D01*
X118408065Y-145825000D01*
X118065935Y-145825000D01*
X117749849Y-145955928D01*
X117507928Y-146197849D01*
X117377000Y-146513935D01*
X110946000Y-146513935D01*
X110946000Y-144164435D01*
X112424000Y-144164435D01*
X112424000Y-144506565D01*
X112554928Y-144822651D01*
X112680321Y-144948044D01*
X112680321Y-145177649D01*
X112811249Y-145493735D01*
X113053170Y-145735656D01*
X113369256Y-145866584D01*
X113711386Y-145866584D01*
X114027472Y-145735656D01*
X114183709Y-145579419D01*
X114360870Y-145652802D01*
X114703000Y-145652802D01*
X115019086Y-145521874D01*
X115261007Y-145279953D01*
X115391935Y-144963867D01*
X115391935Y-144621737D01*
X115389909Y-144616844D01*
X153056091Y-144616844D01*
X153056091Y-144958974D01*
X153187019Y-145275060D01*
X153428940Y-145516981D01*
X153745026Y-145647909D01*
X154087156Y-145647909D01*
X154403242Y-145516981D01*
X154645163Y-145275060D01*
X154776091Y-144958974D01*
X154776091Y-144616844D01*
X154645163Y-144300758D01*
X154403242Y-144058837D01*
X154087156Y-143927909D01*
X153745026Y-143927909D01*
X153428940Y-144058837D01*
X153187019Y-144300758D01*
X153056091Y-144616844D01*
X115389909Y-144616844D01*
X115261007Y-144305651D01*
X115019086Y-144063730D01*
X114703000Y-143932802D01*
X114360870Y-143932802D01*
X114211135Y-143994825D01*
X114278516Y-143832154D01*
X114278516Y-143490024D01*
X114268538Y-143465935D01*
X124997000Y-143465935D01*
X124997000Y-143808065D01*
X125127928Y-144124151D01*
X125369849Y-144366072D01*
X125685935Y-144497000D01*
X126028065Y-144497000D01*
X126344151Y-144366072D01*
X126586072Y-144124151D01*
X126717000Y-143808065D01*
X126717000Y-143465935D01*
X126586072Y-143149849D01*
X126344151Y-142907928D01*
X126028065Y-142777000D01*
X125685935Y-142777000D01*
X125369849Y-142907928D01*
X125127928Y-143149849D01*
X124997000Y-143465935D01*
X114268538Y-143465935D01*
X114225745Y-143362624D01*
X114316599Y-143143284D01*
X114316599Y-142801154D01*
X114185671Y-142485068D01*
X113943750Y-142243147D01*
X113627664Y-142112219D01*
X113285534Y-142112219D01*
X112969448Y-142243147D01*
X112727527Y-142485068D01*
X112596599Y-142801154D01*
X112596599Y-143143284D01*
X112649370Y-143270684D01*
X112558516Y-143490024D01*
X112558516Y-143832154D01*
X112562209Y-143841068D01*
X112554928Y-143848349D01*
X112424000Y-144164435D01*
X110946000Y-144164435D01*
X110946000Y-141560935D01*
X158906000Y-141560935D01*
X158906000Y-141903065D01*
X159036928Y-142219151D01*
X159278849Y-142461072D01*
X159594935Y-142592000D01*
X159937065Y-142592000D01*
X160253151Y-142461072D01*
X160495072Y-142219151D01*
X160626000Y-141903065D01*
X160626000Y-141560935D01*
X160495072Y-141244849D01*
X160253151Y-141002928D01*
X159937065Y-140872000D01*
X159594935Y-140872000D01*
X159278849Y-141002928D01*
X159036928Y-141244849D01*
X158906000Y-141560935D01*
X110946000Y-141560935D01*
X110946000Y-140036935D01*
X116487996Y-140036935D01*
X116487996Y-140379065D01*
X116618924Y-140695151D01*
X116860845Y-140937072D01*
X117176931Y-141068000D01*
X117519061Y-141068000D01*
X117835147Y-140937072D01*
X118077068Y-140695151D01*
X118207996Y-140379065D01*
X118207996Y-140290935D01*
X129188000Y-140290935D01*
X129188000Y-140633065D01*
X129318928Y-140949151D01*
X129560849Y-141191072D01*
X129876935Y-141322000D01*
X130219065Y-141322000D01*
X130535151Y-141191072D01*
X130777072Y-140949151D01*
X130908000Y-140633065D01*
X130908000Y-140290935D01*
X130777072Y-139974849D01*
X130535151Y-139732928D01*
X130219065Y-139602000D01*
X129876935Y-139602000D01*
X129560849Y-139732928D01*
X129318928Y-139974849D01*
X129188000Y-140290935D01*
X118207996Y-140290935D01*
X118207996Y-140114245D01*
X118360081Y-139962160D01*
X118491009Y-139646074D01*
X118491009Y-139303944D01*
X118360081Y-138987858D01*
X118118160Y-138745937D01*
X117802074Y-138615009D01*
X117459944Y-138615009D01*
X117143858Y-138745937D01*
X116901937Y-138987858D01*
X116771009Y-139303944D01*
X116771009Y-139568764D01*
X116618924Y-139720849D01*
X116487996Y-140036935D01*
X110946000Y-140036935D01*
X110946000Y-138512935D01*
X129315000Y-138512935D01*
X129315000Y-138855065D01*
X129445928Y-139171151D01*
X129687849Y-139413072D01*
X130003935Y-139544000D01*
X130346065Y-139544000D01*
X130662151Y-139413072D01*
X130904072Y-139171151D01*
X131035000Y-138855065D01*
X131035000Y-138512935D01*
X130904072Y-138196849D01*
X130662151Y-137954928D01*
X130346065Y-137824000D01*
X130003935Y-137824000D01*
X129687849Y-137954928D01*
X129445928Y-138196849D01*
X129315000Y-138512935D01*
X110946000Y-138512935D01*
X110946000Y-135200117D01*
X126714981Y-135200117D01*
X126714981Y-135542247D01*
X126845909Y-135858333D01*
X127087830Y-136100254D01*
X127403916Y-136231182D01*
X127746046Y-136231182D01*
X128062132Y-136100254D01*
X128304053Y-135858333D01*
X128434981Y-135542247D01*
X128434981Y-135200117D01*
X128304053Y-134884031D01*
X128062132Y-134642110D01*
X127872404Y-134563521D01*
X128122151Y-134460072D01*
X128364072Y-134218151D01*
X128495000Y-133902065D01*
X128495000Y-133559935D01*
X128492352Y-133553541D01*
X128781421Y-133553541D01*
X128781421Y-133895671D01*
X128912349Y-134211757D01*
X129154270Y-134453678D01*
X129470356Y-134584606D01*
X129812486Y-134584606D01*
X130128572Y-134453678D01*
X130370493Y-134211757D01*
X130501421Y-133895671D01*
X130501421Y-133559935D01*
X136173000Y-133559935D01*
X136173000Y-133902065D01*
X136303928Y-134218151D01*
X136545849Y-134460072D01*
X136861935Y-134591000D01*
X137204065Y-134591000D01*
X137520151Y-134460072D01*
X137762072Y-134218151D01*
X137893000Y-133902065D01*
X137893000Y-133813935D01*
X142650000Y-133813935D01*
X142650000Y-134156065D01*
X142780928Y-134472151D01*
X143022849Y-134714072D01*
X143338935Y-134845000D01*
X143681065Y-134845000D01*
X143997151Y-134714072D01*
X144239072Y-134472151D01*
X144370000Y-134156065D01*
X144370000Y-133813935D01*
X147730000Y-133813935D01*
X147730000Y-134156065D01*
X147860928Y-134472151D01*
X148102849Y-134714072D01*
X148418935Y-134845000D01*
X148761065Y-134845000D01*
X149077151Y-134714072D01*
X149319072Y-134472151D01*
X149450000Y-134156065D01*
X149450000Y-133813935D01*
X149319072Y-133497849D01*
X149077151Y-133255928D01*
X148761065Y-133125000D01*
X148418935Y-133125000D01*
X148102849Y-133255928D01*
X147860928Y-133497849D01*
X147730000Y-133813935D01*
X144370000Y-133813935D01*
X144239072Y-133497849D01*
X143997151Y-133255928D01*
X143681065Y-133125000D01*
X143338935Y-133125000D01*
X143022849Y-133255928D01*
X142780928Y-133497849D01*
X142650000Y-133813935D01*
X137893000Y-133813935D01*
X137893000Y-133559935D01*
X137762072Y-133243849D01*
X137520151Y-133001928D01*
X137204065Y-132871000D01*
X136861935Y-132871000D01*
X136545849Y-133001928D01*
X136303928Y-133243849D01*
X136173000Y-133559935D01*
X130501421Y-133559935D01*
X130501421Y-133553541D01*
X130370493Y-133237455D01*
X130128572Y-132995534D01*
X129812486Y-132864606D01*
X129470356Y-132864606D01*
X129154270Y-132995534D01*
X128912349Y-133237455D01*
X128781421Y-133553541D01*
X128492352Y-133553541D01*
X128364072Y-133243849D01*
X128122151Y-133001928D01*
X127806065Y-132871000D01*
X127463935Y-132871000D01*
X127147849Y-133001928D01*
X126905928Y-133243849D01*
X126775000Y-133559935D01*
X126775000Y-133902065D01*
X126905928Y-134218151D01*
X127147849Y-134460072D01*
X127337577Y-134538661D01*
X127087830Y-134642110D01*
X126845909Y-134884031D01*
X126714981Y-135200117D01*
X110946000Y-135200117D01*
X110946000Y-133559935D01*
X118901000Y-133559935D01*
X118901000Y-133902065D01*
X119031928Y-134218151D01*
X119273849Y-134460072D01*
X119589935Y-134591000D01*
X119932065Y-134591000D01*
X120248151Y-134460072D01*
X120490072Y-134218151D01*
X120621000Y-133902065D01*
X120621000Y-133559935D01*
X120568395Y-133432935D01*
X121314000Y-133432935D01*
X121314000Y-133775065D01*
X121444928Y-134091151D01*
X121686849Y-134333072D01*
X122002935Y-134464000D01*
X122345065Y-134464000D01*
X122661151Y-134333072D01*
X122903072Y-134091151D01*
X123034000Y-133775065D01*
X123034000Y-133559935D01*
X123346000Y-133559935D01*
X123346000Y-133902065D01*
X123476928Y-134218151D01*
X123718849Y-134460072D01*
X124034935Y-134591000D01*
X124377065Y-134591000D01*
X124693151Y-134460072D01*
X124935072Y-134218151D01*
X125066000Y-133902065D01*
X125066000Y-133559935D01*
X124935072Y-133243849D01*
X124693151Y-133001928D01*
X124377065Y-132871000D01*
X124034935Y-132871000D01*
X123718849Y-133001928D01*
X123476928Y-133243849D01*
X123346000Y-133559935D01*
X123034000Y-133559935D01*
X123034000Y-133432935D01*
X122903072Y-133116849D01*
X122661151Y-132874928D01*
X122345065Y-132744000D01*
X122002935Y-132744000D01*
X121686849Y-132874928D01*
X121444928Y-133116849D01*
X121314000Y-133432935D01*
X120568395Y-133432935D01*
X120490072Y-133243849D01*
X120248151Y-133001928D01*
X119932065Y-132871000D01*
X119589935Y-132871000D01*
X119273849Y-133001928D01*
X119031928Y-133243849D01*
X118901000Y-133559935D01*
X110946000Y-133559935D01*
X110946000Y-130638935D01*
X111458515Y-130638935D01*
X111458515Y-130981065D01*
X111589443Y-131297151D01*
X111831364Y-131539072D01*
X112147450Y-131670000D01*
X112489580Y-131670000D01*
X112805666Y-131539072D01*
X112943803Y-131400935D01*
X134649000Y-131400935D01*
X134649000Y-131743065D01*
X134779928Y-132059151D01*
X135021849Y-132301072D01*
X135337935Y-132432000D01*
X135680065Y-132432000D01*
X135996151Y-132301072D01*
X136238072Y-132059151D01*
X136369000Y-131743065D01*
X136369000Y-131400935D01*
X136238072Y-131084849D01*
X135996151Y-130842928D01*
X135680065Y-130712000D01*
X135337935Y-130712000D01*
X135021849Y-130842928D01*
X134779928Y-131084849D01*
X134649000Y-131400935D01*
X112943803Y-131400935D01*
X113047587Y-131297151D01*
X113178515Y-130981065D01*
X113178515Y-130638935D01*
X113047587Y-130322849D01*
X112805666Y-130080928D01*
X112489580Y-129950000D01*
X112147450Y-129950000D01*
X111831364Y-130080928D01*
X111589443Y-130322849D01*
X111458515Y-130638935D01*
X110946000Y-130638935D01*
X110946000Y-129241935D01*
X115091000Y-129241935D01*
X115091000Y-129584065D01*
X115221928Y-129900151D01*
X115463849Y-130142072D01*
X115779935Y-130273000D01*
X116122065Y-130273000D01*
X116438151Y-130142072D01*
X116680072Y-129900151D01*
X116811000Y-129584065D01*
X116811000Y-129495935D01*
X134522000Y-129495935D01*
X134522000Y-129838065D01*
X134652928Y-130154151D01*
X134894849Y-130396072D01*
X135210935Y-130527000D01*
X135553065Y-130527000D01*
X135869151Y-130396072D01*
X136111072Y-130154151D01*
X136242000Y-129838065D01*
X136242000Y-129495935D01*
X136111072Y-129179849D01*
X135869151Y-128937928D01*
X135553065Y-128807000D01*
X135210935Y-128807000D01*
X134894849Y-128937928D01*
X134652928Y-129179849D01*
X134522000Y-129495935D01*
X116811000Y-129495935D01*
X116811000Y-129241935D01*
X116680072Y-128925849D01*
X116438151Y-128683928D01*
X116122065Y-128553000D01*
X115779935Y-128553000D01*
X115463849Y-128683928D01*
X115221928Y-128925849D01*
X115091000Y-129241935D01*
X110946000Y-129241935D01*
X110946000Y-126699556D01*
X131727525Y-126699556D01*
X131727525Y-127041686D01*
X131855000Y-127349436D01*
X131855000Y-127679065D01*
X131985928Y-127995151D01*
X132227849Y-128237072D01*
X132543935Y-128368000D01*
X132886065Y-128368000D01*
X133202151Y-128237072D01*
X133444072Y-127995151D01*
X133558899Y-127717935D01*
X134395000Y-127717935D01*
X134395000Y-128060065D01*
X134525928Y-128376151D01*
X134767849Y-128618072D01*
X135083935Y-128749000D01*
X135426065Y-128749000D01*
X135742151Y-128618072D01*
X135984072Y-128376151D01*
X136115000Y-128060065D01*
X136115000Y-127717935D01*
X136009790Y-127463935D01*
X153445000Y-127463935D01*
X153445000Y-127806065D01*
X153575928Y-128122151D01*
X153817849Y-128364072D01*
X154133935Y-128495000D01*
X154476065Y-128495000D01*
X154792151Y-128364072D01*
X155034072Y-128122151D01*
X155165000Y-127806065D01*
X155165000Y-127463935D01*
X155034072Y-127147849D01*
X154792151Y-126905928D01*
X154476065Y-126775000D01*
X154133935Y-126775000D01*
X153817849Y-126905928D01*
X153575928Y-127147849D01*
X153445000Y-127463935D01*
X136009790Y-127463935D01*
X135984072Y-127401849D01*
X135742151Y-127159928D01*
X135426065Y-127029000D01*
X135083935Y-127029000D01*
X134767849Y-127159928D01*
X134525928Y-127401849D01*
X134395000Y-127717935D01*
X133558899Y-127717935D01*
X133575000Y-127679065D01*
X133575000Y-127336935D01*
X133447525Y-127029185D01*
X133447525Y-126699556D01*
X133316597Y-126383470D01*
X133074676Y-126141549D01*
X132758590Y-126010621D01*
X132416460Y-126010621D01*
X132100374Y-126141549D01*
X131858453Y-126383470D01*
X131727525Y-126699556D01*
X110946000Y-126699556D01*
X110946000Y-125431935D01*
X146079000Y-125431935D01*
X146079000Y-125774065D01*
X146209928Y-126090151D01*
X146451849Y-126332072D01*
X146767935Y-126463000D01*
X147110065Y-126463000D01*
X147426151Y-126332072D01*
X147668072Y-126090151D01*
X147799000Y-125774065D01*
X147799000Y-125431935D01*
X147668072Y-125115849D01*
X147426151Y-124873928D01*
X147110065Y-124743000D01*
X146767935Y-124743000D01*
X146451849Y-124873928D01*
X146209928Y-125115849D01*
X146079000Y-125431935D01*
X110946000Y-125431935D01*
X110946000Y-122383935D01*
X111916000Y-122383935D01*
X111916000Y-122726065D01*
X112046928Y-123042151D01*
X112288849Y-123284072D01*
X112604935Y-123415000D01*
X112947065Y-123415000D01*
X113263151Y-123284072D01*
X113401288Y-123145935D01*
X123219000Y-123145935D01*
X123219000Y-123488065D01*
X123349928Y-123804151D01*
X123591849Y-124046072D01*
X123907935Y-124177000D01*
X124250065Y-124177000D01*
X124566151Y-124046072D01*
X124808072Y-123804151D01*
X124870293Y-123653935D01*
X134649000Y-123653935D01*
X134649000Y-123996065D01*
X134779928Y-124312151D01*
X135021849Y-124554072D01*
X135337935Y-124685000D01*
X135680065Y-124685000D01*
X135996151Y-124554072D01*
X136238072Y-124312151D01*
X136369000Y-123996065D01*
X136369000Y-123653935D01*
X136238072Y-123337849D01*
X135996151Y-123095928D01*
X135680065Y-122965000D01*
X135337935Y-122965000D01*
X135021849Y-123095928D01*
X134779928Y-123337849D01*
X134649000Y-123653935D01*
X124870293Y-123653935D01*
X124939000Y-123488065D01*
X124939000Y-123145935D01*
X124808072Y-122829849D01*
X124566151Y-122587928D01*
X124250065Y-122457000D01*
X123907935Y-122457000D01*
X123591849Y-122587928D01*
X123349928Y-122829849D01*
X123219000Y-123145935D01*
X113401288Y-123145935D01*
X113505072Y-123042151D01*
X113636000Y-122726065D01*
X113636000Y-122383935D01*
X113538921Y-122149566D01*
X153405623Y-122149566D01*
X153405623Y-122491696D01*
X153536551Y-122807782D01*
X153778472Y-123049703D01*
X154094558Y-123180631D01*
X154436688Y-123180631D01*
X154752774Y-123049703D01*
X154994695Y-122807782D01*
X155125623Y-122491696D01*
X155125623Y-122149566D01*
X154994695Y-121833480D01*
X154752774Y-121591559D01*
X154436688Y-121460631D01*
X154094558Y-121460631D01*
X153778472Y-121591559D01*
X153536551Y-121833480D01*
X153405623Y-122149566D01*
X113538921Y-122149566D01*
X113505072Y-122067849D01*
X113263151Y-121825928D01*
X112947065Y-121695000D01*
X112604935Y-121695000D01*
X112288849Y-121825928D01*
X112046928Y-122067849D01*
X111916000Y-122383935D01*
X110946000Y-122383935D01*
X110946000Y-119462935D01*
X111916000Y-119462935D01*
X111916000Y-119805065D01*
X112046928Y-120121151D01*
X112288849Y-120363072D01*
X112604935Y-120494000D01*
X112947065Y-120494000D01*
X113263151Y-120363072D01*
X113505072Y-120121151D01*
X113636000Y-119805065D01*
X113636000Y-119617982D01*
X131465421Y-119617982D01*
X131465421Y-119960112D01*
X131596349Y-120276198D01*
X131838270Y-120518119D01*
X132154356Y-120649047D01*
X132496486Y-120649047D01*
X132812572Y-120518119D01*
X133054493Y-120276198D01*
X133185421Y-119960112D01*
X133185421Y-119617982D01*
X133126731Y-119476292D01*
X133195538Y-119310178D01*
X133195538Y-118968048D01*
X133064610Y-118651962D01*
X132822689Y-118410041D01*
X132506603Y-118279113D01*
X132164473Y-118279113D01*
X131848387Y-118410041D01*
X131606466Y-118651962D01*
X131475538Y-118968048D01*
X131475538Y-119310178D01*
X131534228Y-119451868D01*
X131465421Y-119617982D01*
X113636000Y-119617982D01*
X113636000Y-119462935D01*
X113505072Y-119146849D01*
X113263151Y-118904928D01*
X112947065Y-118774000D01*
X112604935Y-118774000D01*
X112288849Y-118904928D01*
X112046928Y-119146849D01*
X111916000Y-119462935D01*
X110946000Y-119462935D01*
X110946000Y-118192935D01*
X134522000Y-118192935D01*
X134522000Y-118535065D01*
X134652928Y-118851151D01*
X134894849Y-119093072D01*
X135210935Y-119224000D01*
X135553065Y-119224000D01*
X135869151Y-119093072D01*
X136111072Y-118851151D01*
X136242000Y-118535065D01*
X136242000Y-118192935D01*
X136111072Y-117876849D01*
X135869151Y-117634928D01*
X135553065Y-117504000D01*
X135210935Y-117504000D01*
X134894849Y-117634928D01*
X134652928Y-117876849D01*
X134522000Y-118192935D01*
X110946000Y-118192935D01*
X110946000Y-115990946D01*
X126648000Y-115990946D01*
X126648000Y-116333076D01*
X126778928Y-116649162D01*
X127020849Y-116891083D01*
X127336935Y-117022011D01*
X127679065Y-117022011D01*
X127995151Y-116891083D01*
X128237072Y-116649162D01*
X128334092Y-116414935D01*
X143666000Y-116414935D01*
X143666000Y-116757065D01*
X143796928Y-117073151D01*
X144038849Y-117315072D01*
X144354935Y-117446000D01*
X144697065Y-117446000D01*
X145013151Y-117315072D01*
X145112288Y-117215935D01*
X155858000Y-117215935D01*
X155858000Y-117558065D01*
X155988928Y-117874151D01*
X156230849Y-118116072D01*
X156546935Y-118247000D01*
X156889065Y-118247000D01*
X157205151Y-118116072D01*
X157447072Y-117874151D01*
X157578000Y-117558065D01*
X157578000Y-117215935D01*
X157447072Y-116899849D01*
X157205151Y-116657928D01*
X156889065Y-116527000D01*
X156546935Y-116527000D01*
X156230849Y-116657928D01*
X155988928Y-116899849D01*
X155858000Y-117215935D01*
X145112288Y-117215935D01*
X145255072Y-117073151D01*
X145386000Y-116757065D01*
X145386000Y-116414935D01*
X145255072Y-116098849D01*
X145013151Y-115856928D01*
X144697065Y-115726000D01*
X144354935Y-115726000D01*
X144038849Y-115856928D01*
X143796928Y-116098849D01*
X143666000Y-116414935D01*
X128334092Y-116414935D01*
X128368000Y-116333076D01*
X128368000Y-115990946D01*
X128237072Y-115674860D01*
X127995151Y-115432939D01*
X127679065Y-115302011D01*
X127336935Y-115302011D01*
X127020849Y-115432939D01*
X126778928Y-115674860D01*
X126648000Y-115990946D01*
X110946000Y-115990946D01*
X110946000Y-114890935D01*
X116869000Y-114890935D01*
X116869000Y-115233065D01*
X116999928Y-115549151D01*
X117241849Y-115791072D01*
X117557935Y-115922000D01*
X117900065Y-115922000D01*
X118216151Y-115791072D01*
X118458072Y-115549151D01*
X118589000Y-115233065D01*
X118589000Y-114890935D01*
X118536395Y-114763935D01*
X119409000Y-114763935D01*
X119409000Y-115106065D01*
X119539928Y-115422151D01*
X119781849Y-115664072D01*
X120097935Y-115795000D01*
X120440065Y-115795000D01*
X120756151Y-115664072D01*
X120998072Y-115422151D01*
X121129000Y-115106065D01*
X121129000Y-114859635D01*
X121240935Y-114906000D01*
X121583065Y-114906000D01*
X121899151Y-114775072D01*
X121910288Y-114763935D01*
X125378000Y-114763935D01*
X125378000Y-115106065D01*
X125508928Y-115422151D01*
X125750849Y-115664072D01*
X126066935Y-115795000D01*
X126409065Y-115795000D01*
X126725151Y-115664072D01*
X126967072Y-115422151D01*
X127098000Y-115106065D01*
X127098000Y-114890935D01*
X139094000Y-114890935D01*
X139094000Y-115233065D01*
X139224928Y-115549151D01*
X139466849Y-115791072D01*
X139782935Y-115922000D01*
X140125065Y-115922000D01*
X140441151Y-115791072D01*
X140683072Y-115549151D01*
X140814000Y-115233065D01*
X140814000Y-115010026D01*
X141620000Y-115010026D01*
X141620000Y-115352156D01*
X141750928Y-115668242D01*
X141992849Y-115910163D01*
X142308935Y-116041091D01*
X142651065Y-116041091D01*
X142967151Y-115910163D01*
X143209072Y-115668242D01*
X143340000Y-115352156D01*
X143340000Y-115010026D01*
X143209072Y-114693940D01*
X142967151Y-114452019D01*
X142651065Y-114321091D01*
X142308935Y-114321091D01*
X141992849Y-114452019D01*
X141750928Y-114693940D01*
X141620000Y-115010026D01*
X140814000Y-115010026D01*
X140814000Y-114890935D01*
X140683072Y-114574849D01*
X140441151Y-114332928D01*
X140125065Y-114202000D01*
X139782935Y-114202000D01*
X139466849Y-114332928D01*
X139224928Y-114574849D01*
X139094000Y-114890935D01*
X127098000Y-114890935D01*
X127098000Y-114763935D01*
X126967072Y-114447849D01*
X126725151Y-114205928D01*
X126409065Y-114075000D01*
X126066935Y-114075000D01*
X125750849Y-114205928D01*
X125508928Y-114447849D01*
X125378000Y-114763935D01*
X121910288Y-114763935D01*
X122141072Y-114533151D01*
X122272000Y-114217065D01*
X122272000Y-113874935D01*
X122141072Y-113558849D01*
X122076158Y-113493935D01*
X130331000Y-113493935D01*
X130331000Y-113836065D01*
X130461928Y-114152151D01*
X130703849Y-114394072D01*
X131019935Y-114525000D01*
X131362065Y-114525000D01*
X131678151Y-114394072D01*
X131920072Y-114152151D01*
X132051000Y-113836065D01*
X132051000Y-113493935D01*
X131920072Y-113177849D01*
X131678151Y-112935928D01*
X131362065Y-112805000D01*
X131019935Y-112805000D01*
X130703849Y-112935928D01*
X130461928Y-113177849D01*
X130331000Y-113493935D01*
X122076158Y-113493935D01*
X121899151Y-113316928D01*
X121583065Y-113186000D01*
X121240935Y-113186000D01*
X120924849Y-113316928D01*
X120682928Y-113558849D01*
X120552000Y-113874935D01*
X120552000Y-114121365D01*
X120440065Y-114075000D01*
X120097935Y-114075000D01*
X119781849Y-114205928D01*
X119539928Y-114447849D01*
X119409000Y-114763935D01*
X118536395Y-114763935D01*
X118458072Y-114574849D01*
X118216151Y-114332928D01*
X117900065Y-114202000D01*
X117557935Y-114202000D01*
X117241849Y-114332928D01*
X116999928Y-114574849D01*
X116869000Y-114890935D01*
X110946000Y-114890935D01*
X110946000Y-112318581D01*
X110999785Y-111943011D01*
X136711241Y-111943011D01*
X136711241Y-112285141D01*
X136842169Y-112601227D01*
X137084090Y-112843148D01*
X137400176Y-112974076D01*
X137742306Y-112974076D01*
X138058392Y-112843148D01*
X138300313Y-112601227D01*
X138351382Y-112477935D01*
X138713000Y-112477935D01*
X138713000Y-112820065D01*
X138843928Y-113136151D01*
X139085849Y-113378072D01*
X139401935Y-113509000D01*
X139744065Y-113509000D01*
X140060151Y-113378072D01*
X140071288Y-113366935D01*
X153572000Y-113366935D01*
X153572000Y-113709065D01*
X153702928Y-114025151D01*
X153944849Y-114267072D01*
X154260935Y-114398000D01*
X154603065Y-114398000D01*
X154919151Y-114267072D01*
X155161072Y-114025151D01*
X155292000Y-113709065D01*
X155292000Y-113366935D01*
X155161072Y-113050849D01*
X154919151Y-112808928D01*
X154603065Y-112678000D01*
X154260935Y-112678000D01*
X153944849Y-112808928D01*
X153702928Y-113050849D01*
X153572000Y-113366935D01*
X140071288Y-113366935D01*
X140302072Y-113136151D01*
X140433000Y-112820065D01*
X140433000Y-112477935D01*
X140302072Y-112161849D01*
X140060151Y-111919928D01*
X139744065Y-111789000D01*
X139401935Y-111789000D01*
X139085849Y-111919928D01*
X138843928Y-112161849D01*
X138713000Y-112477935D01*
X138351382Y-112477935D01*
X138431241Y-112285141D01*
X138431241Y-111943011D01*
X138300313Y-111626925D01*
X138058392Y-111385004D01*
X137742306Y-111254076D01*
X137400176Y-111254076D01*
X137084090Y-111385004D01*
X136842169Y-111626925D01*
X136711241Y-111943011D01*
X110999785Y-111943011D01*
X111006090Y-111898991D01*
X111160381Y-111559648D01*
X111403712Y-111277248D01*
X111716523Y-111074494D01*
X112097184Y-110960652D01*
X112294350Y-110946000D01*
X150095797Y-110946000D01*
X149892928Y-111148869D01*
G04 #@! TD*
M02*
