G04 #@! TF.GenerationSoftware,KiCad,Pcbnew,(5.0.1-3-g963ef8bb5)*
G04 #@! TF.CreationDate,2020-04-18T14:55:13-02:30*
G04 #@! TF.ProjectId,graphics-card,67726170686963732D636172642E6B69,rev?*
G04 #@! TF.SameCoordinates,Original*
G04 #@! TF.FileFunction,Legend,Bot*
G04 #@! TF.FilePolarity,Positive*
%FSLAX46Y46*%
G04 Gerber Fmt 4.6, Leading zero omitted, Abs format (unit mm)*
G04 Created by KiCad (PCBNEW (5.0.1-3-g963ef8bb5)) date Saturday, April 18, 2020 at 02:55:13 pm*
%MOMM*%
%LPD*%
G01*
G04 APERTURE LIST*
%ADD10C,0.200000*%
%ADD11C,0.450000*%
%ADD12C,0.120000*%
%ADD13C,0.125000*%
G04 APERTURE END LIST*
D10*
X143230988Y-145103833D02*
X142850035Y-145103833D01*
X143335750Y-145332404D02*
X142969083Y-144532404D01*
X142802416Y-145332404D01*
X142469083Y-144799071D02*
X142569083Y-145599071D01*
X142473845Y-144837166D02*
X142392892Y-144799071D01*
X142240511Y-144799071D01*
X142169083Y-144837166D01*
X142135750Y-144875261D01*
X142107178Y-144951452D01*
X142135750Y-145180023D01*
X142183369Y-145256214D01*
X142226226Y-145294309D01*
X142307178Y-145332404D01*
X142459559Y-145332404D01*
X142530988Y-145294309D01*
X141811940Y-145332404D02*
X141745273Y-144799071D01*
X141764321Y-144951452D02*
X141716702Y-144875261D01*
X141673845Y-144837166D01*
X141592892Y-144799071D01*
X141516702Y-144799071D01*
X141316702Y-145332404D02*
X141250035Y-144799071D01*
X141216702Y-144532404D02*
X141259559Y-144570500D01*
X141226226Y-144608595D01*
X141183369Y-144570500D01*
X141216702Y-144532404D01*
X141226226Y-144608595D01*
X140821464Y-145332404D02*
X140892892Y-145294309D01*
X140921464Y-145218119D01*
X140835750Y-144532404D01*
X139854797Y-144608595D02*
X139811940Y-144570500D01*
X139730988Y-144532404D01*
X139540511Y-144532404D01*
X139469083Y-144570500D01*
X139435750Y-144608595D01*
X139407178Y-144684785D01*
X139416702Y-144760976D01*
X139469083Y-144875261D01*
X139983369Y-145332404D01*
X139488130Y-145332404D01*
X138892892Y-144532404D02*
X138816702Y-144532404D01*
X138745273Y-144570500D01*
X138711940Y-144608595D01*
X138683369Y-144684785D01*
X138664321Y-144837166D01*
X138688130Y-145027642D01*
X138745273Y-145180023D01*
X138792892Y-145256214D01*
X138835750Y-145294309D01*
X138916702Y-145332404D01*
X138992892Y-145332404D01*
X139064321Y-145294309D01*
X139097654Y-145256214D01*
X139126226Y-145180023D01*
X139145273Y-145027642D01*
X139121464Y-144837166D01*
X139064321Y-144684785D01*
X139016702Y-144608595D01*
X138973845Y-144570500D01*
X138892892Y-144532404D01*
X138330988Y-144608595D02*
X138288130Y-144570500D01*
X138207178Y-144532404D01*
X138016702Y-144532404D01*
X137945273Y-144570500D01*
X137911940Y-144608595D01*
X137883369Y-144684785D01*
X137892892Y-144760976D01*
X137945273Y-144875261D01*
X138459559Y-145332404D01*
X137964321Y-145332404D01*
X137369083Y-144532404D02*
X137292892Y-144532404D01*
X137221464Y-144570500D01*
X137188130Y-144608595D01*
X137159559Y-144684785D01*
X137140511Y-144837166D01*
X137164321Y-145027642D01*
X137221464Y-145180023D01*
X137269083Y-145256214D01*
X137311940Y-145294309D01*
X137392892Y-145332404D01*
X137469083Y-145332404D01*
X137540511Y-145294309D01*
X137573845Y-145256214D01*
X137602416Y-145180023D01*
X137621464Y-145027642D01*
X137597654Y-144837166D01*
X137540511Y-144684785D01*
X137492892Y-144608595D01*
X137450035Y-144570500D01*
X137369083Y-144532404D01*
D11*
X156031000Y-138536285D02*
X155602428Y-140336285D01*
X155259571Y-139050571D01*
X154916714Y-140336285D01*
X154488142Y-138536285D01*
X153545285Y-140336285D02*
X153716714Y-140250571D01*
X153802428Y-140164857D01*
X153888142Y-139993428D01*
X153888142Y-139479142D01*
X153802428Y-139307714D01*
X153716714Y-139222000D01*
X153545285Y-139136285D01*
X153288142Y-139136285D01*
X153116714Y-139222000D01*
X153031000Y-139307714D01*
X152945285Y-139479142D01*
X152945285Y-139993428D01*
X153031000Y-140164857D01*
X153116714Y-140250571D01*
X153288142Y-140336285D01*
X153545285Y-140336285D01*
X152173857Y-140336285D02*
X152173857Y-139136285D01*
X152173857Y-139479142D02*
X152088142Y-139307714D01*
X152002428Y-139222000D01*
X151831000Y-139136285D01*
X151659571Y-139136285D01*
X150802428Y-140336285D02*
X150973857Y-140250571D01*
X151059571Y-140079142D01*
X151059571Y-138536285D01*
X149345285Y-140336285D02*
X149345285Y-138536285D01*
X149345285Y-140250571D02*
X149516714Y-140336285D01*
X149859571Y-140336285D01*
X150031000Y-140250571D01*
X150116714Y-140164857D01*
X150202428Y-139993428D01*
X150202428Y-139479142D01*
X150116714Y-139307714D01*
X150031000Y-139222000D01*
X149859571Y-139136285D01*
X149516714Y-139136285D01*
X149345285Y-139222000D01*
X148402428Y-138536285D02*
X148402428Y-138622000D01*
X148488142Y-138793428D01*
X148573857Y-138879142D01*
X147716714Y-140250571D02*
X147545285Y-140336285D01*
X147202428Y-140336285D01*
X147031000Y-140250571D01*
X146945285Y-140079142D01*
X146945285Y-139993428D01*
X147031000Y-139822000D01*
X147202428Y-139736285D01*
X147459571Y-139736285D01*
X147631000Y-139650571D01*
X147716714Y-139479142D01*
X147716714Y-139393428D01*
X147631000Y-139222000D01*
X147459571Y-139136285D01*
X147202428Y-139136285D01*
X147031000Y-139222000D01*
X144973857Y-138536285D02*
X144545285Y-140336285D01*
X144202428Y-139050571D01*
X143859571Y-140336285D01*
X143431000Y-138536285D01*
X142488142Y-140336285D02*
X142659571Y-140250571D01*
X142745285Y-140164857D01*
X142831000Y-139993428D01*
X142831000Y-139479142D01*
X142745285Y-139307714D01*
X142659571Y-139222000D01*
X142488142Y-139136285D01*
X142231000Y-139136285D01*
X142059571Y-139222000D01*
X141973857Y-139307714D01*
X141888142Y-139479142D01*
X141888142Y-139993428D01*
X141973857Y-140164857D01*
X142059571Y-140250571D01*
X142231000Y-140336285D01*
X142488142Y-140336285D01*
X141116714Y-140336285D02*
X141116714Y-139136285D01*
X141116714Y-139479142D02*
X141031000Y-139307714D01*
X140945285Y-139222000D01*
X140773857Y-139136285D01*
X140602428Y-139136285D01*
X140088142Y-140250571D02*
X139916714Y-140336285D01*
X139573857Y-140336285D01*
X139402428Y-140250571D01*
X139316714Y-140079142D01*
X139316714Y-139993428D01*
X139402428Y-139822000D01*
X139573857Y-139736285D01*
X139831000Y-139736285D01*
X140002428Y-139650571D01*
X140088142Y-139479142D01*
X140088142Y-139393428D01*
X140002428Y-139222000D01*
X139831000Y-139136285D01*
X139573857Y-139136285D01*
X139402428Y-139222000D01*
X138802428Y-139136285D02*
X138116714Y-139136285D01*
X138545285Y-138536285D02*
X138545285Y-140079142D01*
X138459571Y-140250571D01*
X138288142Y-140336285D01*
X138116714Y-140336285D01*
X154659571Y-141772000D02*
X154831000Y-141686285D01*
X155088142Y-141686285D01*
X155345285Y-141772000D01*
X155516714Y-141943428D01*
X155602428Y-142114857D01*
X155688142Y-142457714D01*
X155688142Y-142714857D01*
X155602428Y-143057714D01*
X155516714Y-143229142D01*
X155345285Y-143400571D01*
X155088142Y-143486285D01*
X154916714Y-143486285D01*
X154659571Y-143400571D01*
X154573857Y-143314857D01*
X154573857Y-142714857D01*
X154916714Y-142714857D01*
X153802428Y-143486285D02*
X153802428Y-142286285D01*
X153802428Y-142629142D02*
X153716714Y-142457714D01*
X153631000Y-142372000D01*
X153459571Y-142286285D01*
X153288142Y-142286285D01*
X151916714Y-143486285D02*
X151916714Y-142543428D01*
X152002428Y-142372000D01*
X152173857Y-142286285D01*
X152516714Y-142286285D01*
X152688142Y-142372000D01*
X151916714Y-143400571D02*
X152088142Y-143486285D01*
X152516714Y-143486285D01*
X152688142Y-143400571D01*
X152773857Y-143229142D01*
X152773857Y-143057714D01*
X152688142Y-142886285D01*
X152516714Y-142800571D01*
X152088142Y-142800571D01*
X151916714Y-142714857D01*
X151059571Y-142286285D02*
X151059571Y-144086285D01*
X151059571Y-142372000D02*
X150888142Y-142286285D01*
X150545285Y-142286285D01*
X150373857Y-142372000D01*
X150288142Y-142457714D01*
X150202428Y-142629142D01*
X150202428Y-143143428D01*
X150288142Y-143314857D01*
X150373857Y-143400571D01*
X150545285Y-143486285D01*
X150888142Y-143486285D01*
X151059571Y-143400571D01*
X149431000Y-143486285D02*
X149431000Y-141686285D01*
X148659571Y-143486285D02*
X148659571Y-142543428D01*
X148745285Y-142372000D01*
X148916714Y-142286285D01*
X149173857Y-142286285D01*
X149345285Y-142372000D01*
X149431000Y-142457714D01*
X147802428Y-143486285D02*
X147802428Y-142286285D01*
X147802428Y-141686285D02*
X147888142Y-141772000D01*
X147802428Y-141857714D01*
X147716714Y-141772000D01*
X147802428Y-141686285D01*
X147802428Y-141857714D01*
X146173857Y-143400571D02*
X146345285Y-143486285D01*
X146688142Y-143486285D01*
X146859571Y-143400571D01*
X146945285Y-143314857D01*
X147031000Y-143143428D01*
X147031000Y-142629142D01*
X146945285Y-142457714D01*
X146859571Y-142372000D01*
X146688142Y-142286285D01*
X146345285Y-142286285D01*
X146173857Y-142372000D01*
X145488142Y-143400571D02*
X145316714Y-143486285D01*
X144973857Y-143486285D01*
X144802428Y-143400571D01*
X144716714Y-143229142D01*
X144716714Y-143143428D01*
X144802428Y-142972000D01*
X144973857Y-142886285D01*
X145231000Y-142886285D01*
X145402428Y-142800571D01*
X145488142Y-142629142D01*
X145488142Y-142543428D01*
X145402428Y-142372000D01*
X145231000Y-142286285D01*
X144973857Y-142286285D01*
X144802428Y-142372000D01*
X141545285Y-143314857D02*
X141631000Y-143400571D01*
X141888142Y-143486285D01*
X142059571Y-143486285D01*
X142316714Y-143400571D01*
X142488142Y-143229142D01*
X142573857Y-143057714D01*
X142659571Y-142714857D01*
X142659571Y-142457714D01*
X142573857Y-142114857D01*
X142488142Y-141943428D01*
X142316714Y-141772000D01*
X142059571Y-141686285D01*
X141888142Y-141686285D01*
X141631000Y-141772000D01*
X141545285Y-141857714D01*
X140002428Y-143486285D02*
X140002428Y-142543428D01*
X140088142Y-142372000D01*
X140259571Y-142286285D01*
X140602428Y-142286285D01*
X140773857Y-142372000D01*
X140002428Y-143400571D02*
X140173857Y-143486285D01*
X140602428Y-143486285D01*
X140773857Y-143400571D01*
X140859571Y-143229142D01*
X140859571Y-143057714D01*
X140773857Y-142886285D01*
X140602428Y-142800571D01*
X140173857Y-142800571D01*
X140002428Y-142714857D01*
X139145285Y-143486285D02*
X139145285Y-142286285D01*
X139145285Y-142629142D02*
X139059571Y-142457714D01*
X138973857Y-142372000D01*
X138802428Y-142286285D01*
X138631000Y-142286285D01*
X137259571Y-143486285D02*
X137259571Y-141686285D01*
X137259571Y-143400571D02*
X137431000Y-143486285D01*
X137773857Y-143486285D01*
X137945285Y-143400571D01*
X138031000Y-143314857D01*
X138116714Y-143143428D01*
X138116714Y-142629142D01*
X138031000Y-142457714D01*
X137945285Y-142372000D01*
X137773857Y-142286285D01*
X137431000Y-142286285D01*
X137259571Y-142372000D01*
D10*
X156094321Y-137229809D02*
X155984797Y-137267904D01*
X155794321Y-137267904D01*
X155713369Y-137229809D01*
X155670511Y-137191714D01*
X155622892Y-137115523D01*
X155613369Y-137039333D01*
X155641940Y-136963142D01*
X155675273Y-136925047D01*
X155746702Y-136886952D01*
X155894321Y-136848857D01*
X155965750Y-136810761D01*
X155999083Y-136772666D01*
X156027654Y-136696476D01*
X156018130Y-136620285D01*
X155970511Y-136544095D01*
X155927654Y-136506000D01*
X155846702Y-136467904D01*
X155656226Y-136467904D01*
X155546702Y-136506000D01*
X155299083Y-137267904D02*
X155199083Y-136467904D01*
X154956226Y-137267904D02*
X154903845Y-136848857D01*
X154932416Y-136772666D01*
X155003845Y-136734571D01*
X155118130Y-136734571D01*
X155199083Y-136772666D01*
X155241940Y-136810761D01*
X154232416Y-137267904D02*
X154180035Y-136848857D01*
X154208607Y-136772666D01*
X154280035Y-136734571D01*
X154432416Y-136734571D01*
X154513369Y-136772666D01*
X154227654Y-137229809D02*
X154308607Y-137267904D01*
X154499083Y-137267904D01*
X154570511Y-137229809D01*
X154599083Y-137153619D01*
X154589559Y-137077428D01*
X154541940Y-137001238D01*
X154460988Y-136963142D01*
X154270511Y-136963142D01*
X154189559Y-136925047D01*
X153784797Y-136734571D02*
X153851464Y-137267904D01*
X153794321Y-136810761D02*
X153751464Y-136772666D01*
X153670511Y-136734571D01*
X153556226Y-136734571D01*
X153484797Y-136772666D01*
X153456226Y-136848857D01*
X153508607Y-137267904D01*
X152818130Y-137229809D02*
X152899083Y-137267904D01*
X153051464Y-137267904D01*
X153122892Y-137229809D01*
X153151464Y-137153619D01*
X153113369Y-136848857D01*
X153065750Y-136772666D01*
X152984797Y-136734571D01*
X152832416Y-136734571D01*
X152760988Y-136772666D01*
X152732416Y-136848857D01*
X152741940Y-136925047D01*
X153132416Y-137001238D01*
X151808607Y-136467904D02*
X151718130Y-137267904D01*
X151494321Y-136696476D01*
X151413369Y-137267904D01*
X151122892Y-136467904D01*
X150918130Y-137267904D02*
X150851464Y-136734571D01*
X150818130Y-136467904D02*
X150860988Y-136506000D01*
X150827654Y-136544095D01*
X150784797Y-136506000D01*
X150818130Y-136467904D01*
X150827654Y-136544095D01*
X150422892Y-137267904D02*
X150494321Y-137229809D01*
X150522892Y-137153619D01*
X150437178Y-136467904D01*
X150003845Y-137267904D02*
X150075273Y-137229809D01*
X150103845Y-137153619D01*
X150018130Y-136467904D01*
X149699083Y-137267904D02*
X149632416Y-136734571D01*
X149599083Y-136467904D02*
X149641940Y-136506000D01*
X149608607Y-136544095D01*
X149565750Y-136506000D01*
X149599083Y-136467904D01*
X149608607Y-136544095D01*
X148975273Y-137267904D02*
X148922892Y-136848857D01*
X148951464Y-136772666D01*
X149022892Y-136734571D01*
X149175273Y-136734571D01*
X149256226Y-136772666D01*
X148970511Y-137229809D02*
X149051464Y-137267904D01*
X149241940Y-137267904D01*
X149313369Y-137229809D01*
X149341940Y-137153619D01*
X149332416Y-137077428D01*
X149284797Y-137001238D01*
X149203845Y-136963142D01*
X149013369Y-136963142D01*
X148932416Y-136925047D01*
X148594321Y-137267904D02*
X148527654Y-136734571D01*
X148537178Y-136810761D02*
X148494321Y-136772666D01*
X148413369Y-136734571D01*
X148299083Y-136734571D01*
X148227654Y-136772666D01*
X148199083Y-136848857D01*
X148251464Y-137267904D01*
X148199083Y-136848857D02*
X148151464Y-136772666D01*
X148070511Y-136734571D01*
X147956226Y-136734571D01*
X147884797Y-136772666D01*
X147856226Y-136848857D01*
X147908607Y-137267904D01*
X147560988Y-137229809D02*
X147489559Y-137267904D01*
X147337178Y-137267904D01*
X147256226Y-137229809D01*
X147208607Y-137153619D01*
X147203845Y-137115523D01*
X147232416Y-137039333D01*
X147303845Y-137001238D01*
X147418130Y-137001238D01*
X147489559Y-136963142D01*
X147518130Y-136886952D01*
X147513369Y-136848857D01*
X147465750Y-136772666D01*
X147384797Y-136734571D01*
X147270511Y-136734571D01*
X147199083Y-136772666D01*
D12*
G04 #@! TO.C,CLK+*
X121096000Y-149526114D02*
G75*
G03X121096000Y-149526114I-700000J0D01*
G01*
G04 #@! TO.C,C20*
X146260078Y-124662000D02*
X145742922Y-124662000D01*
X146260078Y-123242000D02*
X145742922Y-123242000D01*
G04 #@! TO.C,C44*
X124789000Y-125217422D02*
X124789000Y-125734578D01*
X123369000Y-125217422D02*
X123369000Y-125734578D01*
G04 #@! TO.C,C45*
X124789000Y-129163578D02*
X124789000Y-128646422D01*
X123369000Y-129163578D02*
X123369000Y-128646422D01*
G04 #@! TO.C,C46*
X128576000Y-117724422D02*
X128576000Y-118241578D01*
X129996000Y-117724422D02*
X129996000Y-118241578D01*
G04 #@! TO.C,C47*
X128576000Y-121670578D02*
X128576000Y-121153422D01*
X129996000Y-121670578D02*
X129996000Y-121153422D01*
G04 #@! TO.C,R8*
X130853922Y-127814000D02*
X131371078Y-127814000D01*
X130853922Y-129234000D02*
X131371078Y-129234000D01*
G04 #@! TO.C,Y1*
X125376526Y-124074783D02*
X125376526Y-130074783D01*
X129096526Y-124074783D02*
X129096526Y-130074783D01*
G04 #@! TO.C,Y2*
X130575258Y-120382585D02*
X130575258Y-119032585D01*
X132325258Y-120382585D02*
X132325258Y-119032585D01*
G04 #@! TO.C,C1*
X146260078Y-121106000D02*
X145742922Y-121106000D01*
X146260078Y-119686000D02*
X145742922Y-119686000D01*
G04 #@! TO.C,C2*
X137203922Y-117654000D02*
X137721078Y-117654000D01*
X137203922Y-119074000D02*
X137721078Y-119074000D01*
G04 #@! TO.C,C3*
X137233922Y-123115000D02*
X137751078Y-123115000D01*
X137233922Y-124535000D02*
X137751078Y-124535000D01*
G04 #@! TO.C,C4*
X137218922Y-129742000D02*
X137736078Y-129742000D01*
X137218922Y-128322000D02*
X137736078Y-128322000D01*
G04 #@! TO.C,C5*
X139172422Y-132513000D02*
X139689578Y-132513000D01*
X139172422Y-133933000D02*
X139689578Y-133933000D01*
G04 #@! TO.C,C6*
X144220000Y-132290078D02*
X144220000Y-131772922D01*
X142800000Y-132290078D02*
X142800000Y-131772922D01*
G04 #@! TO.C,C7*
X147880000Y-132211578D02*
X147880000Y-131694422D01*
X149300000Y-132211578D02*
X149300000Y-131694422D01*
G04 #@! TO.C,C13*
X133869500Y-144558278D02*
X133869500Y-144041122D01*
X132449500Y-144558278D02*
X132449500Y-144041122D01*
G04 #@! TO.C,C14*
X126798000Y-144041122D02*
X126798000Y-144558278D01*
X128218000Y-144041122D02*
X128218000Y-144558278D01*
G04 #@! TO.C,C15*
X118585722Y-140260000D02*
X119102878Y-140260000D01*
X118585722Y-141680000D02*
X119102878Y-141680000D01*
G04 #@! TO.C,C16*
X119051000Y-135074922D02*
X119051000Y-135592078D01*
X120471000Y-135074922D02*
X120471000Y-135592078D01*
G04 #@! TO.C,C17*
X122884000Y-135074922D02*
X122884000Y-135592078D01*
X121464000Y-135074922D02*
X121464000Y-135592078D01*
G04 #@! TO.C,C18*
X126036000Y-135074922D02*
X126036000Y-135592078D01*
X127456000Y-135074922D02*
X127456000Y-135592078D01*
G04 #@! TO.C,C19*
X128704078Y-141883200D02*
X128186922Y-141883200D01*
X128704078Y-140463200D02*
X128186922Y-140463200D01*
G04 #@! TO.C,C21*
X137203922Y-131837500D02*
X137721078Y-131837500D01*
X137203922Y-130417500D02*
X137721078Y-130417500D01*
G04 #@! TO.C,C22*
X146260078Y-128091000D02*
X145742922Y-128091000D01*
X146260078Y-126671000D02*
X145742922Y-126671000D01*
G04 #@! TO.C,C27*
X123750000Y-135044922D02*
X123750000Y-135562078D01*
X125170000Y-135044922D02*
X125170000Y-135562078D01*
G04 #@! TO.C,C28*
X128655578Y-139394000D02*
X128138422Y-139394000D01*
X128655578Y-137974000D02*
X128138422Y-137974000D01*
G04 #@! TO.C,C29*
X128576000Y-135123422D02*
X128576000Y-135640578D01*
X129996000Y-135123422D02*
X129996000Y-135640578D01*
G04 #@! TO.C,C30*
X118613422Y-137720000D02*
X119130578Y-137720000D01*
X118613422Y-139140000D02*
X119130578Y-139140000D01*
G04 #@! TO.C,C33*
X124408000Y-145087078D02*
X124408000Y-144569922D01*
X122988000Y-145087078D02*
X122988000Y-144569922D01*
G04 #@! TO.C,C34*
X120194000Y-145087078D02*
X120194000Y-144569922D01*
X121614000Y-145087078D02*
X121614000Y-144569922D01*
G04 #@! TO.C,FB1*
X129782500Y-143998422D02*
X129782500Y-144515578D01*
X131202500Y-143998422D02*
X131202500Y-144515578D01*
G04 #@! TO.C,R1*
X118056922Y-130123000D02*
X118574078Y-130123000D01*
X118056922Y-128703000D02*
X118574078Y-128703000D01*
G04 #@! TO.C,R7*
X118947000Y-145038578D02*
X118947000Y-144521422D01*
X117527000Y-145038578D02*
X117527000Y-144521422D01*
G04 #@! TO.C,D2+*
X125160000Y-149479000D02*
G75*
G03X125160000Y-149479000I-700000J0D01*
G01*
G04 #@! TO.C,D2-*
X123128000Y-149479000D02*
G75*
G03X123128000Y-149479000I-700000J0D01*
G01*
G04 #@! TO.C,CLK-*
X119191000Y-149479000D02*
G75*
G03X119191000Y-149479000I-700000J0D01*
G01*
G04 #@! TO.C,C48*
X116534000Y-145361922D02*
X116534000Y-145879078D01*
X115114000Y-145361922D02*
X115114000Y-145879078D01*
G04 #@! TO.C,C49*
X133402000Y-129740922D02*
X133402000Y-130258078D01*
X134822000Y-129740922D02*
X134822000Y-130258078D01*
G04 #@! TO.C,R10*
X115780078Y-142165000D02*
X115262922Y-142165000D01*
X115780078Y-143585000D02*
X115262922Y-143585000D01*
G04 #@! TO.C,CLK+*
D13*
X120952342Y-151054571D02*
X120976152Y-151078380D01*
X121047580Y-151102190D01*
X121095200Y-151102190D01*
X121166628Y-151078380D01*
X121214247Y-151030761D01*
X121238057Y-150983142D01*
X121261866Y-150887904D01*
X121261866Y-150816476D01*
X121238057Y-150721238D01*
X121214247Y-150673619D01*
X121166628Y-150626000D01*
X121095200Y-150602190D01*
X121047580Y-150602190D01*
X120976152Y-150626000D01*
X120952342Y-150649809D01*
X120499961Y-151102190D02*
X120738057Y-151102190D01*
X120738057Y-150602190D01*
X120333295Y-151102190D02*
X120333295Y-150602190D01*
X120047580Y-151102190D02*
X120261866Y-150816476D01*
X120047580Y-150602190D02*
X120333295Y-150887904D01*
X119833295Y-150911714D02*
X119452342Y-150911714D01*
X119642819Y-151102190D02*
X119642819Y-150721238D01*
G04 #@! TO.C,C20*
X146320628Y-122809771D02*
X146344438Y-122833580D01*
X146415866Y-122857390D01*
X146463485Y-122857390D01*
X146534914Y-122833580D01*
X146582533Y-122785961D01*
X146606342Y-122738342D01*
X146630152Y-122643104D01*
X146630152Y-122571676D01*
X146606342Y-122476438D01*
X146582533Y-122428819D01*
X146534914Y-122381200D01*
X146463485Y-122357390D01*
X146415866Y-122357390D01*
X146344438Y-122381200D01*
X146320628Y-122405009D01*
X146130152Y-122405009D02*
X146106342Y-122381200D01*
X146058723Y-122357390D01*
X145939676Y-122357390D01*
X145892057Y-122381200D01*
X145868247Y-122405009D01*
X145844438Y-122452628D01*
X145844438Y-122500247D01*
X145868247Y-122571676D01*
X146153961Y-122857390D01*
X145844438Y-122857390D01*
X145534914Y-122357390D02*
X145487295Y-122357390D01*
X145439676Y-122381200D01*
X145415866Y-122405009D01*
X145392057Y-122452628D01*
X145368247Y-122547866D01*
X145368247Y-122666914D01*
X145392057Y-122762152D01*
X145415866Y-122809771D01*
X145439676Y-122833580D01*
X145487295Y-122857390D01*
X145534914Y-122857390D01*
X145582533Y-122833580D01*
X145606342Y-122809771D01*
X145630152Y-122762152D01*
X145653961Y-122666914D01*
X145653961Y-122547866D01*
X145630152Y-122452628D01*
X145606342Y-122405009D01*
X145582533Y-122381200D01*
X145534914Y-122357390D01*
G04 #@! TO.C,C44*
X122750428Y-125654571D02*
X122774238Y-125678380D01*
X122845666Y-125702190D01*
X122893285Y-125702190D01*
X122964714Y-125678380D01*
X123012333Y-125630761D01*
X123036142Y-125583142D01*
X123059952Y-125487904D01*
X123059952Y-125416476D01*
X123036142Y-125321238D01*
X123012333Y-125273619D01*
X122964714Y-125226000D01*
X122893285Y-125202190D01*
X122845666Y-125202190D01*
X122774238Y-125226000D01*
X122750428Y-125249809D01*
X122321857Y-125368857D02*
X122321857Y-125702190D01*
X122440904Y-125178380D02*
X122559952Y-125535523D01*
X122250428Y-125535523D01*
X121845666Y-125368857D02*
X121845666Y-125702190D01*
X121964714Y-125178380D02*
X122083761Y-125535523D01*
X121774238Y-125535523D01*
G04 #@! TO.C,C45*
X122749428Y-129058171D02*
X122773238Y-129081980D01*
X122844666Y-129105790D01*
X122892285Y-129105790D01*
X122963714Y-129081980D01*
X123011333Y-129034361D01*
X123035142Y-128986742D01*
X123058952Y-128891504D01*
X123058952Y-128820076D01*
X123035142Y-128724838D01*
X123011333Y-128677219D01*
X122963714Y-128629600D01*
X122892285Y-128605790D01*
X122844666Y-128605790D01*
X122773238Y-128629600D01*
X122749428Y-128653409D01*
X122320857Y-128772457D02*
X122320857Y-129105790D01*
X122439904Y-128581980D02*
X122558952Y-128939123D01*
X122249428Y-128939123D01*
X121820857Y-128605790D02*
X122058952Y-128605790D01*
X122082761Y-128843885D01*
X122058952Y-128820076D01*
X122011333Y-128796266D01*
X121892285Y-128796266D01*
X121844666Y-128820076D01*
X121820857Y-128843885D01*
X121797047Y-128891504D01*
X121797047Y-129010552D01*
X121820857Y-129058171D01*
X121844666Y-129081980D01*
X121892285Y-129105790D01*
X122011333Y-129105790D01*
X122058952Y-129081980D01*
X122082761Y-129058171D01*
G04 #@! TO.C,C46*
X127957428Y-118161571D02*
X127981238Y-118185380D01*
X128052666Y-118209190D01*
X128100285Y-118209190D01*
X128171714Y-118185380D01*
X128219333Y-118137761D01*
X128243142Y-118090142D01*
X128266952Y-117994904D01*
X128266952Y-117923476D01*
X128243142Y-117828238D01*
X128219333Y-117780619D01*
X128171714Y-117733000D01*
X128100285Y-117709190D01*
X128052666Y-117709190D01*
X127981238Y-117733000D01*
X127957428Y-117756809D01*
X127528857Y-117875857D02*
X127528857Y-118209190D01*
X127647904Y-117685380D02*
X127766952Y-118042523D01*
X127457428Y-118042523D01*
X127052666Y-117709190D02*
X127147904Y-117709190D01*
X127195523Y-117733000D01*
X127219333Y-117756809D01*
X127266952Y-117828238D01*
X127290761Y-117923476D01*
X127290761Y-118113952D01*
X127266952Y-118161571D01*
X127243142Y-118185380D01*
X127195523Y-118209190D01*
X127100285Y-118209190D01*
X127052666Y-118185380D01*
X127028857Y-118161571D01*
X127005047Y-118113952D01*
X127005047Y-117994904D01*
X127028857Y-117947285D01*
X127052666Y-117923476D01*
X127100285Y-117899666D01*
X127195523Y-117899666D01*
X127243142Y-117923476D01*
X127266952Y-117947285D01*
X127290761Y-117994904D01*
G04 #@! TO.C,C47*
X127981828Y-121590571D02*
X128005638Y-121614380D01*
X128077066Y-121638190D01*
X128124685Y-121638190D01*
X128196114Y-121614380D01*
X128243733Y-121566761D01*
X128267542Y-121519142D01*
X128291352Y-121423904D01*
X128291352Y-121352476D01*
X128267542Y-121257238D01*
X128243733Y-121209619D01*
X128196114Y-121162000D01*
X128124685Y-121138190D01*
X128077066Y-121138190D01*
X128005638Y-121162000D01*
X127981828Y-121185809D01*
X127553257Y-121304857D02*
X127553257Y-121638190D01*
X127672304Y-121114380D02*
X127791352Y-121471523D01*
X127481828Y-121471523D01*
X127338971Y-121138190D02*
X127005638Y-121138190D01*
X127219923Y-121638190D01*
G04 #@! TO.C,R8*
X131198133Y-130070990D02*
X131364800Y-129832895D01*
X131483847Y-130070990D02*
X131483847Y-129570990D01*
X131293371Y-129570990D01*
X131245752Y-129594800D01*
X131221942Y-129618609D01*
X131198133Y-129666228D01*
X131198133Y-129737657D01*
X131221942Y-129785276D01*
X131245752Y-129809085D01*
X131293371Y-129832895D01*
X131483847Y-129832895D01*
X130912419Y-129785276D02*
X130960038Y-129761466D01*
X130983847Y-129737657D01*
X131007657Y-129690038D01*
X131007657Y-129666228D01*
X130983847Y-129618609D01*
X130960038Y-129594800D01*
X130912419Y-129570990D01*
X130817180Y-129570990D01*
X130769561Y-129594800D01*
X130745752Y-129618609D01*
X130721942Y-129666228D01*
X130721942Y-129690038D01*
X130745752Y-129737657D01*
X130769561Y-129761466D01*
X130817180Y-129785276D01*
X130912419Y-129785276D01*
X130960038Y-129809085D01*
X130983847Y-129832895D01*
X131007657Y-129880514D01*
X131007657Y-129975752D01*
X130983847Y-130023371D01*
X130960038Y-130047180D01*
X130912419Y-130070990D01*
X130817180Y-130070990D01*
X130769561Y-130047180D01*
X130745752Y-130023371D01*
X130721942Y-129975752D01*
X130721942Y-129880514D01*
X130745752Y-129832895D01*
X130769561Y-129809085D01*
X130817180Y-129785276D01*
G04 #@! TO.C,Y1*
X127441295Y-130848895D02*
X127441295Y-131086990D01*
X127607961Y-130586990D02*
X127441295Y-130848895D01*
X127274628Y-130586990D01*
X126846057Y-131086990D02*
X127131771Y-131086990D01*
X126988914Y-131086990D02*
X126988914Y-130586990D01*
X127036533Y-130658419D01*
X127084152Y-130706038D01*
X127131771Y-130729847D01*
G04 #@! TO.C,Y2*
X133435695Y-119723695D02*
X133435695Y-119961790D01*
X133602361Y-119461790D02*
X133435695Y-119723695D01*
X133269028Y-119461790D01*
X133126171Y-119509409D02*
X133102361Y-119485600D01*
X133054742Y-119461790D01*
X132935695Y-119461790D01*
X132888076Y-119485600D01*
X132864266Y-119509409D01*
X132840457Y-119557028D01*
X132840457Y-119604647D01*
X132864266Y-119676076D01*
X133149980Y-119961790D01*
X132840457Y-119961790D01*
G04 #@! TO.C,C1*
X146082533Y-119202971D02*
X146106342Y-119226780D01*
X146177771Y-119250590D01*
X146225390Y-119250590D01*
X146296819Y-119226780D01*
X146344438Y-119179161D01*
X146368247Y-119131542D01*
X146392057Y-119036304D01*
X146392057Y-118964876D01*
X146368247Y-118869638D01*
X146344438Y-118822019D01*
X146296819Y-118774400D01*
X146225390Y-118750590D01*
X146177771Y-118750590D01*
X146106342Y-118774400D01*
X146082533Y-118798209D01*
X145606342Y-119250590D02*
X145892057Y-119250590D01*
X145749200Y-119250590D02*
X145749200Y-118750590D01*
X145796819Y-118822019D01*
X145844438Y-118869638D01*
X145892057Y-118893447D01*
G04 #@! TO.C,C2*
X137598933Y-119863371D02*
X137622742Y-119887180D01*
X137694171Y-119910990D01*
X137741790Y-119910990D01*
X137813219Y-119887180D01*
X137860838Y-119839561D01*
X137884647Y-119791942D01*
X137908457Y-119696704D01*
X137908457Y-119625276D01*
X137884647Y-119530038D01*
X137860838Y-119482419D01*
X137813219Y-119434800D01*
X137741790Y-119410990D01*
X137694171Y-119410990D01*
X137622742Y-119434800D01*
X137598933Y-119458609D01*
X137408457Y-119458609D02*
X137384647Y-119434800D01*
X137337028Y-119410990D01*
X137217980Y-119410990D01*
X137170361Y-119434800D01*
X137146552Y-119458609D01*
X137122742Y-119506228D01*
X137122742Y-119553847D01*
X137146552Y-119625276D01*
X137432266Y-119910990D01*
X137122742Y-119910990D01*
G04 #@! TO.C,C3*
X137598933Y-125400571D02*
X137622742Y-125424380D01*
X137694171Y-125448190D01*
X137741790Y-125448190D01*
X137813219Y-125424380D01*
X137860838Y-125376761D01*
X137884647Y-125329142D01*
X137908457Y-125233904D01*
X137908457Y-125162476D01*
X137884647Y-125067238D01*
X137860838Y-125019619D01*
X137813219Y-124972000D01*
X137741790Y-124948190D01*
X137694171Y-124948190D01*
X137622742Y-124972000D01*
X137598933Y-124995809D01*
X137432266Y-124948190D02*
X137122742Y-124948190D01*
X137289409Y-125138666D01*
X137217980Y-125138666D01*
X137170361Y-125162476D01*
X137146552Y-125186285D01*
X137122742Y-125233904D01*
X137122742Y-125352952D01*
X137146552Y-125400571D01*
X137170361Y-125424380D01*
X137217980Y-125448190D01*
X137360838Y-125448190D01*
X137408457Y-125424380D01*
X137432266Y-125400571D01*
G04 #@! TO.C,C4*
X139834133Y-129261371D02*
X139857942Y-129285180D01*
X139929371Y-129308990D01*
X139976990Y-129308990D01*
X140048419Y-129285180D01*
X140096038Y-129237561D01*
X140119847Y-129189942D01*
X140143657Y-129094704D01*
X140143657Y-129023276D01*
X140119847Y-128928038D01*
X140096038Y-128880419D01*
X140048419Y-128832800D01*
X139976990Y-128808990D01*
X139929371Y-128808990D01*
X139857942Y-128832800D01*
X139834133Y-128856609D01*
X139405561Y-128975657D02*
X139405561Y-129308990D01*
X139524609Y-128785180D02*
X139643657Y-129142323D01*
X139334133Y-129142323D01*
G04 #@! TO.C,C5*
X139529333Y-134747771D02*
X139553142Y-134771580D01*
X139624571Y-134795390D01*
X139672190Y-134795390D01*
X139743619Y-134771580D01*
X139791238Y-134723961D01*
X139815047Y-134676342D01*
X139838857Y-134581104D01*
X139838857Y-134509676D01*
X139815047Y-134414438D01*
X139791238Y-134366819D01*
X139743619Y-134319200D01*
X139672190Y-134295390D01*
X139624571Y-134295390D01*
X139553142Y-134319200D01*
X139529333Y-134343009D01*
X139076952Y-134295390D02*
X139315047Y-134295390D01*
X139338857Y-134533485D01*
X139315047Y-134509676D01*
X139267428Y-134485866D01*
X139148380Y-134485866D01*
X139100761Y-134509676D01*
X139076952Y-134533485D01*
X139053142Y-134581104D01*
X139053142Y-134700152D01*
X139076952Y-134747771D01*
X139100761Y-134771580D01*
X139148380Y-134795390D01*
X139267428Y-134795390D01*
X139315047Y-134771580D01*
X139338857Y-134747771D01*
G04 #@! TO.C,C6*
X143593333Y-130277371D02*
X143617142Y-130301180D01*
X143688571Y-130324990D01*
X143736190Y-130324990D01*
X143807619Y-130301180D01*
X143855238Y-130253561D01*
X143879047Y-130205942D01*
X143902857Y-130110704D01*
X143902857Y-130039276D01*
X143879047Y-129944038D01*
X143855238Y-129896419D01*
X143807619Y-129848800D01*
X143736190Y-129824990D01*
X143688571Y-129824990D01*
X143617142Y-129848800D01*
X143593333Y-129872609D01*
X143164761Y-129824990D02*
X143260000Y-129824990D01*
X143307619Y-129848800D01*
X143331428Y-129872609D01*
X143379047Y-129944038D01*
X143402857Y-130039276D01*
X143402857Y-130229752D01*
X143379047Y-130277371D01*
X143355238Y-130301180D01*
X143307619Y-130324990D01*
X143212380Y-130324990D01*
X143164761Y-130301180D01*
X143140952Y-130277371D01*
X143117142Y-130229752D01*
X143117142Y-130110704D01*
X143140952Y-130063085D01*
X143164761Y-130039276D01*
X143212380Y-130015466D01*
X143307619Y-130015466D01*
X143355238Y-130039276D01*
X143379047Y-130063085D01*
X143402857Y-130110704D01*
G04 #@! TO.C,C7*
X148673333Y-130226571D02*
X148697142Y-130250380D01*
X148768571Y-130274190D01*
X148816190Y-130274190D01*
X148887619Y-130250380D01*
X148935238Y-130202761D01*
X148959047Y-130155142D01*
X148982857Y-130059904D01*
X148982857Y-129988476D01*
X148959047Y-129893238D01*
X148935238Y-129845619D01*
X148887619Y-129798000D01*
X148816190Y-129774190D01*
X148768571Y-129774190D01*
X148697142Y-129798000D01*
X148673333Y-129821809D01*
X148506666Y-129774190D02*
X148173333Y-129774190D01*
X148387619Y-130274190D01*
G04 #@! TO.C,C13*
X135195428Y-144501371D02*
X135219238Y-144525180D01*
X135290666Y-144548990D01*
X135338285Y-144548990D01*
X135409714Y-144525180D01*
X135457333Y-144477561D01*
X135481142Y-144429942D01*
X135504952Y-144334704D01*
X135504952Y-144263276D01*
X135481142Y-144168038D01*
X135457333Y-144120419D01*
X135409714Y-144072800D01*
X135338285Y-144048990D01*
X135290666Y-144048990D01*
X135219238Y-144072800D01*
X135195428Y-144096609D01*
X134719238Y-144548990D02*
X135004952Y-144548990D01*
X134862095Y-144548990D02*
X134862095Y-144048990D01*
X134909714Y-144120419D01*
X134957333Y-144168038D01*
X135004952Y-144191847D01*
X134552571Y-144048990D02*
X134243047Y-144048990D01*
X134409714Y-144239466D01*
X134338285Y-144239466D01*
X134290666Y-144263276D01*
X134266857Y-144287085D01*
X134243047Y-144334704D01*
X134243047Y-144453752D01*
X134266857Y-144501371D01*
X134290666Y-144525180D01*
X134338285Y-144548990D01*
X134481142Y-144548990D01*
X134528761Y-144525180D01*
X134552571Y-144501371D01*
G04 #@! TO.C,C14*
X127829428Y-146482571D02*
X127853238Y-146506380D01*
X127924666Y-146530190D01*
X127972285Y-146530190D01*
X128043714Y-146506380D01*
X128091333Y-146458761D01*
X128115142Y-146411142D01*
X128138952Y-146315904D01*
X128138952Y-146244476D01*
X128115142Y-146149238D01*
X128091333Y-146101619D01*
X128043714Y-146054000D01*
X127972285Y-146030190D01*
X127924666Y-146030190D01*
X127853238Y-146054000D01*
X127829428Y-146077809D01*
X127353238Y-146530190D02*
X127638952Y-146530190D01*
X127496095Y-146530190D02*
X127496095Y-146030190D01*
X127543714Y-146101619D01*
X127591333Y-146149238D01*
X127638952Y-146173047D01*
X126924666Y-146196857D02*
X126924666Y-146530190D01*
X127043714Y-146006380D02*
X127162761Y-146363523D01*
X126853238Y-146363523D01*
G04 #@! TO.C,C15*
X121652628Y-141224771D02*
X121676438Y-141248580D01*
X121747866Y-141272390D01*
X121795485Y-141272390D01*
X121866914Y-141248580D01*
X121914533Y-141200961D01*
X121938342Y-141153342D01*
X121962152Y-141058104D01*
X121962152Y-140986676D01*
X121938342Y-140891438D01*
X121914533Y-140843819D01*
X121866914Y-140796200D01*
X121795485Y-140772390D01*
X121747866Y-140772390D01*
X121676438Y-140796200D01*
X121652628Y-140820009D01*
X121176438Y-141272390D02*
X121462152Y-141272390D01*
X121319295Y-141272390D02*
X121319295Y-140772390D01*
X121366914Y-140843819D01*
X121414533Y-140891438D01*
X121462152Y-140915247D01*
X120724057Y-140772390D02*
X120962152Y-140772390D01*
X120985961Y-141010485D01*
X120962152Y-140986676D01*
X120914533Y-140962866D01*
X120795485Y-140962866D01*
X120747866Y-140986676D01*
X120724057Y-141010485D01*
X120700247Y-141058104D01*
X120700247Y-141177152D01*
X120724057Y-141224771D01*
X120747866Y-141248580D01*
X120795485Y-141272390D01*
X120914533Y-141272390D01*
X120962152Y-141248580D01*
X120985961Y-141224771D01*
G04 #@! TO.C,C16*
X120107828Y-133376171D02*
X120131638Y-133399980D01*
X120203066Y-133423790D01*
X120250685Y-133423790D01*
X120322114Y-133399980D01*
X120369733Y-133352361D01*
X120393542Y-133304742D01*
X120417352Y-133209504D01*
X120417352Y-133138076D01*
X120393542Y-133042838D01*
X120369733Y-132995219D01*
X120322114Y-132947600D01*
X120250685Y-132923790D01*
X120203066Y-132923790D01*
X120131638Y-132947600D01*
X120107828Y-132971409D01*
X119631638Y-133423790D02*
X119917352Y-133423790D01*
X119774495Y-133423790D02*
X119774495Y-132923790D01*
X119822114Y-132995219D01*
X119869733Y-133042838D01*
X119917352Y-133066647D01*
X119203066Y-132923790D02*
X119298304Y-132923790D01*
X119345923Y-132947600D01*
X119369733Y-132971409D01*
X119417352Y-133042838D01*
X119441161Y-133138076D01*
X119441161Y-133328552D01*
X119417352Y-133376171D01*
X119393542Y-133399980D01*
X119345923Y-133423790D01*
X119250685Y-133423790D01*
X119203066Y-133399980D01*
X119179257Y-133376171D01*
X119155447Y-133328552D01*
X119155447Y-133209504D01*
X119179257Y-133161885D01*
X119203066Y-133138076D01*
X119250685Y-133114266D01*
X119345923Y-133114266D01*
X119393542Y-133138076D01*
X119417352Y-133161885D01*
X119441161Y-133209504D01*
G04 #@! TO.C,C17*
X122495428Y-133376171D02*
X122519238Y-133399980D01*
X122590666Y-133423790D01*
X122638285Y-133423790D01*
X122709714Y-133399980D01*
X122757333Y-133352361D01*
X122781142Y-133304742D01*
X122804952Y-133209504D01*
X122804952Y-133138076D01*
X122781142Y-133042838D01*
X122757333Y-132995219D01*
X122709714Y-132947600D01*
X122638285Y-132923790D01*
X122590666Y-132923790D01*
X122519238Y-132947600D01*
X122495428Y-132971409D01*
X122019238Y-133423790D02*
X122304952Y-133423790D01*
X122162095Y-133423790D02*
X122162095Y-132923790D01*
X122209714Y-132995219D01*
X122257333Y-133042838D01*
X122304952Y-133066647D01*
X121852571Y-132923790D02*
X121519238Y-132923790D01*
X121733523Y-133423790D01*
G04 #@! TO.C,C18*
X127067428Y-133426971D02*
X127091238Y-133450780D01*
X127162666Y-133474590D01*
X127210285Y-133474590D01*
X127281714Y-133450780D01*
X127329333Y-133403161D01*
X127353142Y-133355542D01*
X127376952Y-133260304D01*
X127376952Y-133188876D01*
X127353142Y-133093638D01*
X127329333Y-133046019D01*
X127281714Y-132998400D01*
X127210285Y-132974590D01*
X127162666Y-132974590D01*
X127091238Y-132998400D01*
X127067428Y-133022209D01*
X126591238Y-133474590D02*
X126876952Y-133474590D01*
X126734095Y-133474590D02*
X126734095Y-132974590D01*
X126781714Y-133046019D01*
X126829333Y-133093638D01*
X126876952Y-133117447D01*
X126305523Y-133188876D02*
X126353142Y-133165066D01*
X126376952Y-133141257D01*
X126400761Y-133093638D01*
X126400761Y-133069828D01*
X126376952Y-133022209D01*
X126353142Y-132998400D01*
X126305523Y-132974590D01*
X126210285Y-132974590D01*
X126162666Y-132998400D01*
X126138857Y-133022209D01*
X126115047Y-133069828D01*
X126115047Y-133093638D01*
X126138857Y-133141257D01*
X126162666Y-133165066D01*
X126210285Y-133188876D01*
X126305523Y-133188876D01*
X126353142Y-133212685D01*
X126376952Y-133236495D01*
X126400761Y-133284114D01*
X126400761Y-133379352D01*
X126376952Y-133426971D01*
X126353142Y-133450780D01*
X126305523Y-133474590D01*
X126210285Y-133474590D01*
X126162666Y-133450780D01*
X126138857Y-133426971D01*
X126115047Y-133379352D01*
X126115047Y-133284114D01*
X126138857Y-133236495D01*
X126162666Y-133212685D01*
X126210285Y-133188876D01*
G04 #@! TO.C,C19*
X126305428Y-141351771D02*
X126329238Y-141375580D01*
X126400666Y-141399390D01*
X126448285Y-141399390D01*
X126519714Y-141375580D01*
X126567333Y-141327961D01*
X126591142Y-141280342D01*
X126614952Y-141185104D01*
X126614952Y-141113676D01*
X126591142Y-141018438D01*
X126567333Y-140970819D01*
X126519714Y-140923200D01*
X126448285Y-140899390D01*
X126400666Y-140899390D01*
X126329238Y-140923200D01*
X126305428Y-140947009D01*
X125829238Y-141399390D02*
X126114952Y-141399390D01*
X125972095Y-141399390D02*
X125972095Y-140899390D01*
X126019714Y-140970819D01*
X126067333Y-141018438D01*
X126114952Y-141042247D01*
X125591142Y-141399390D02*
X125495904Y-141399390D01*
X125448285Y-141375580D01*
X125424476Y-141351771D01*
X125376857Y-141280342D01*
X125353047Y-141185104D01*
X125353047Y-140994628D01*
X125376857Y-140947009D01*
X125400666Y-140923200D01*
X125448285Y-140899390D01*
X125543523Y-140899390D01*
X125591142Y-140923200D01*
X125614952Y-140947009D01*
X125638761Y-140994628D01*
X125638761Y-141113676D01*
X125614952Y-141161295D01*
X125591142Y-141185104D01*
X125543523Y-141208914D01*
X125448285Y-141208914D01*
X125400666Y-141185104D01*
X125376857Y-141161295D01*
X125353047Y-141113676D01*
G04 #@! TO.C,C21*
X140173828Y-131344171D02*
X140197638Y-131367980D01*
X140269066Y-131391790D01*
X140316685Y-131391790D01*
X140388114Y-131367980D01*
X140435733Y-131320361D01*
X140459542Y-131272742D01*
X140483352Y-131177504D01*
X140483352Y-131106076D01*
X140459542Y-131010838D01*
X140435733Y-130963219D01*
X140388114Y-130915600D01*
X140316685Y-130891790D01*
X140269066Y-130891790D01*
X140197638Y-130915600D01*
X140173828Y-130939409D01*
X139983352Y-130939409D02*
X139959542Y-130915600D01*
X139911923Y-130891790D01*
X139792876Y-130891790D01*
X139745257Y-130915600D01*
X139721447Y-130939409D01*
X139697638Y-130987028D01*
X139697638Y-131034647D01*
X139721447Y-131106076D01*
X140007161Y-131391790D01*
X139697638Y-131391790D01*
X139221447Y-131391790D02*
X139507161Y-131391790D01*
X139364304Y-131391790D02*
X139364304Y-130891790D01*
X139411923Y-130963219D01*
X139459542Y-131010838D01*
X139507161Y-131034647D01*
G04 #@! TO.C,C22*
X146322928Y-126213371D02*
X146346738Y-126237180D01*
X146418166Y-126260990D01*
X146465785Y-126260990D01*
X146537214Y-126237180D01*
X146584833Y-126189561D01*
X146608642Y-126141942D01*
X146632452Y-126046704D01*
X146632452Y-125975276D01*
X146608642Y-125880038D01*
X146584833Y-125832419D01*
X146537214Y-125784800D01*
X146465785Y-125760990D01*
X146418166Y-125760990D01*
X146346738Y-125784800D01*
X146322928Y-125808609D01*
X146132452Y-125808609D02*
X146108642Y-125784800D01*
X146061023Y-125760990D01*
X145941976Y-125760990D01*
X145894357Y-125784800D01*
X145870547Y-125808609D01*
X145846738Y-125856228D01*
X145846738Y-125903847D01*
X145870547Y-125975276D01*
X146156261Y-126260990D01*
X145846738Y-126260990D01*
X145656261Y-125808609D02*
X145632452Y-125784800D01*
X145584833Y-125760990D01*
X145465785Y-125760990D01*
X145418166Y-125784800D01*
X145394357Y-125808609D01*
X145370547Y-125856228D01*
X145370547Y-125903847D01*
X145394357Y-125975276D01*
X145680071Y-126260990D01*
X145370547Y-126260990D01*
G04 #@! TO.C,C27*
X124679828Y-133426971D02*
X124703638Y-133450780D01*
X124775066Y-133474590D01*
X124822685Y-133474590D01*
X124894114Y-133450780D01*
X124941733Y-133403161D01*
X124965542Y-133355542D01*
X124989352Y-133260304D01*
X124989352Y-133188876D01*
X124965542Y-133093638D01*
X124941733Y-133046019D01*
X124894114Y-132998400D01*
X124822685Y-132974590D01*
X124775066Y-132974590D01*
X124703638Y-132998400D01*
X124679828Y-133022209D01*
X124489352Y-133022209D02*
X124465542Y-132998400D01*
X124417923Y-132974590D01*
X124298876Y-132974590D01*
X124251257Y-132998400D01*
X124227447Y-133022209D01*
X124203638Y-133069828D01*
X124203638Y-133117447D01*
X124227447Y-133188876D01*
X124513161Y-133474590D01*
X124203638Y-133474590D01*
X124036971Y-132974590D02*
X123703638Y-132974590D01*
X123917923Y-133474590D01*
G04 #@! TO.C,C28*
X126254628Y-138913371D02*
X126278438Y-138937180D01*
X126349866Y-138960990D01*
X126397485Y-138960990D01*
X126468914Y-138937180D01*
X126516533Y-138889561D01*
X126540342Y-138841942D01*
X126564152Y-138746704D01*
X126564152Y-138675276D01*
X126540342Y-138580038D01*
X126516533Y-138532419D01*
X126468914Y-138484800D01*
X126397485Y-138460990D01*
X126349866Y-138460990D01*
X126278438Y-138484800D01*
X126254628Y-138508609D01*
X126064152Y-138508609D02*
X126040342Y-138484800D01*
X125992723Y-138460990D01*
X125873676Y-138460990D01*
X125826057Y-138484800D01*
X125802247Y-138508609D01*
X125778438Y-138556228D01*
X125778438Y-138603847D01*
X125802247Y-138675276D01*
X126087961Y-138960990D01*
X125778438Y-138960990D01*
X125492723Y-138675276D02*
X125540342Y-138651466D01*
X125564152Y-138627657D01*
X125587961Y-138580038D01*
X125587961Y-138556228D01*
X125564152Y-138508609D01*
X125540342Y-138484800D01*
X125492723Y-138460990D01*
X125397485Y-138460990D01*
X125349866Y-138484800D01*
X125326057Y-138508609D01*
X125302247Y-138556228D01*
X125302247Y-138580038D01*
X125326057Y-138627657D01*
X125349866Y-138651466D01*
X125397485Y-138675276D01*
X125492723Y-138675276D01*
X125540342Y-138699085D01*
X125564152Y-138722895D01*
X125587961Y-138770514D01*
X125587961Y-138865752D01*
X125564152Y-138913371D01*
X125540342Y-138937180D01*
X125492723Y-138960990D01*
X125397485Y-138960990D01*
X125349866Y-138937180D01*
X125326057Y-138913371D01*
X125302247Y-138865752D01*
X125302247Y-138770514D01*
X125326057Y-138722895D01*
X125349866Y-138699085D01*
X125397485Y-138675276D01*
G04 #@! TO.C,C29*
X129607428Y-133426971D02*
X129631238Y-133450780D01*
X129702666Y-133474590D01*
X129750285Y-133474590D01*
X129821714Y-133450780D01*
X129869333Y-133403161D01*
X129893142Y-133355542D01*
X129916952Y-133260304D01*
X129916952Y-133188876D01*
X129893142Y-133093638D01*
X129869333Y-133046019D01*
X129821714Y-132998400D01*
X129750285Y-132974590D01*
X129702666Y-132974590D01*
X129631238Y-132998400D01*
X129607428Y-133022209D01*
X129416952Y-133022209D02*
X129393142Y-132998400D01*
X129345523Y-132974590D01*
X129226476Y-132974590D01*
X129178857Y-132998400D01*
X129155047Y-133022209D01*
X129131238Y-133069828D01*
X129131238Y-133117447D01*
X129155047Y-133188876D01*
X129440761Y-133474590D01*
X129131238Y-133474590D01*
X128893142Y-133474590D02*
X128797904Y-133474590D01*
X128750285Y-133450780D01*
X128726476Y-133426971D01*
X128678857Y-133355542D01*
X128655047Y-133260304D01*
X128655047Y-133069828D01*
X128678857Y-133022209D01*
X128702666Y-132998400D01*
X128750285Y-132974590D01*
X128845523Y-132974590D01*
X128893142Y-132998400D01*
X128916952Y-133022209D01*
X128940761Y-133069828D01*
X128940761Y-133188876D01*
X128916952Y-133236495D01*
X128893142Y-133260304D01*
X128845523Y-133284114D01*
X128750285Y-133284114D01*
X128702666Y-133260304D01*
X128678857Y-133236495D01*
X128655047Y-133188876D01*
G04 #@! TO.C,C30*
X121581028Y-138710171D02*
X121604838Y-138733980D01*
X121676266Y-138757790D01*
X121723885Y-138757790D01*
X121795314Y-138733980D01*
X121842933Y-138686361D01*
X121866742Y-138638742D01*
X121890552Y-138543504D01*
X121890552Y-138472076D01*
X121866742Y-138376838D01*
X121842933Y-138329219D01*
X121795314Y-138281600D01*
X121723885Y-138257790D01*
X121676266Y-138257790D01*
X121604838Y-138281600D01*
X121581028Y-138305409D01*
X121414361Y-138257790D02*
X121104838Y-138257790D01*
X121271504Y-138448266D01*
X121200076Y-138448266D01*
X121152457Y-138472076D01*
X121128647Y-138495885D01*
X121104838Y-138543504D01*
X121104838Y-138662552D01*
X121128647Y-138710171D01*
X121152457Y-138733980D01*
X121200076Y-138757790D01*
X121342933Y-138757790D01*
X121390552Y-138733980D01*
X121414361Y-138710171D01*
X120795314Y-138257790D02*
X120747695Y-138257790D01*
X120700076Y-138281600D01*
X120676266Y-138305409D01*
X120652457Y-138353028D01*
X120628647Y-138448266D01*
X120628647Y-138567314D01*
X120652457Y-138662552D01*
X120676266Y-138710171D01*
X120700076Y-138733980D01*
X120747695Y-138757790D01*
X120795314Y-138757790D01*
X120842933Y-138733980D01*
X120866742Y-138710171D01*
X120890552Y-138662552D01*
X120914361Y-138567314D01*
X120914361Y-138448266D01*
X120890552Y-138353028D01*
X120866742Y-138305409D01*
X120842933Y-138281600D01*
X120795314Y-138257790D01*
G04 #@! TO.C,C33*
X124019428Y-142977371D02*
X124043238Y-143001180D01*
X124114666Y-143024990D01*
X124162285Y-143024990D01*
X124233714Y-143001180D01*
X124281333Y-142953561D01*
X124305142Y-142905942D01*
X124328952Y-142810704D01*
X124328952Y-142739276D01*
X124305142Y-142644038D01*
X124281333Y-142596419D01*
X124233714Y-142548800D01*
X124162285Y-142524990D01*
X124114666Y-142524990D01*
X124043238Y-142548800D01*
X124019428Y-142572609D01*
X123852761Y-142524990D02*
X123543238Y-142524990D01*
X123709904Y-142715466D01*
X123638476Y-142715466D01*
X123590857Y-142739276D01*
X123567047Y-142763085D01*
X123543238Y-142810704D01*
X123543238Y-142929752D01*
X123567047Y-142977371D01*
X123590857Y-143001180D01*
X123638476Y-143024990D01*
X123781333Y-143024990D01*
X123828952Y-143001180D01*
X123852761Y-142977371D01*
X123376571Y-142524990D02*
X123067047Y-142524990D01*
X123233714Y-142715466D01*
X123162285Y-142715466D01*
X123114666Y-142739276D01*
X123090857Y-142763085D01*
X123067047Y-142810704D01*
X123067047Y-142929752D01*
X123090857Y-142977371D01*
X123114666Y-143001180D01*
X123162285Y-143024990D01*
X123305142Y-143024990D01*
X123352761Y-143001180D01*
X123376571Y-142977371D01*
G04 #@! TO.C,C34*
X121276228Y-142977371D02*
X121300038Y-143001180D01*
X121371466Y-143024990D01*
X121419085Y-143024990D01*
X121490514Y-143001180D01*
X121538133Y-142953561D01*
X121561942Y-142905942D01*
X121585752Y-142810704D01*
X121585752Y-142739276D01*
X121561942Y-142644038D01*
X121538133Y-142596419D01*
X121490514Y-142548800D01*
X121419085Y-142524990D01*
X121371466Y-142524990D01*
X121300038Y-142548800D01*
X121276228Y-142572609D01*
X121109561Y-142524990D02*
X120800038Y-142524990D01*
X120966704Y-142715466D01*
X120895276Y-142715466D01*
X120847657Y-142739276D01*
X120823847Y-142763085D01*
X120800038Y-142810704D01*
X120800038Y-142929752D01*
X120823847Y-142977371D01*
X120847657Y-143001180D01*
X120895276Y-143024990D01*
X121038133Y-143024990D01*
X121085752Y-143001180D01*
X121109561Y-142977371D01*
X120371466Y-142691657D02*
X120371466Y-143024990D01*
X120490514Y-142501180D02*
X120609561Y-142858323D01*
X120300038Y-142858323D01*
G04 #@! TO.C,FB1*
X130871066Y-146217485D02*
X131037733Y-146217485D01*
X131037733Y-146479390D02*
X131037733Y-145979390D01*
X130799638Y-145979390D01*
X130442495Y-146217485D02*
X130371066Y-146241295D01*
X130347257Y-146265104D01*
X130323447Y-146312723D01*
X130323447Y-146384152D01*
X130347257Y-146431771D01*
X130371066Y-146455580D01*
X130418685Y-146479390D01*
X130609161Y-146479390D01*
X130609161Y-145979390D01*
X130442495Y-145979390D01*
X130394876Y-146003200D01*
X130371066Y-146027009D01*
X130347257Y-146074628D01*
X130347257Y-146122247D01*
X130371066Y-146169866D01*
X130394876Y-146193676D01*
X130442495Y-146217485D01*
X130609161Y-146217485D01*
X129847257Y-146479390D02*
X130132971Y-146479390D01*
X129990114Y-146479390D02*
X129990114Y-145979390D01*
X130037733Y-146050819D01*
X130085352Y-146098438D01*
X130132971Y-146122247D01*
G04 #@! TO.C,R1*
X118345733Y-130985390D02*
X118512400Y-130747295D01*
X118631447Y-130985390D02*
X118631447Y-130485390D01*
X118440971Y-130485390D01*
X118393352Y-130509200D01*
X118369542Y-130533009D01*
X118345733Y-130580628D01*
X118345733Y-130652057D01*
X118369542Y-130699676D01*
X118393352Y-130723485D01*
X118440971Y-130747295D01*
X118631447Y-130747295D01*
X117869542Y-130985390D02*
X118155257Y-130985390D01*
X118012400Y-130985390D02*
X118012400Y-130485390D01*
X118060019Y-130556819D01*
X118107638Y-130604438D01*
X118155257Y-130628247D01*
G04 #@! TO.C,R7*
X118345733Y-143024990D02*
X118512400Y-142786895D01*
X118631447Y-143024990D02*
X118631447Y-142524990D01*
X118440971Y-142524990D01*
X118393352Y-142548800D01*
X118369542Y-142572609D01*
X118345733Y-142620228D01*
X118345733Y-142691657D01*
X118369542Y-142739276D01*
X118393352Y-142763085D01*
X118440971Y-142786895D01*
X118631447Y-142786895D01*
X118179066Y-142524990D02*
X117845733Y-142524990D01*
X118060019Y-143024990D01*
G04 #@! TO.C,D2+*
X124986171Y-151102190D02*
X124986171Y-150602190D01*
X124867123Y-150602190D01*
X124795695Y-150626000D01*
X124748076Y-150673619D01*
X124724266Y-150721238D01*
X124700457Y-150816476D01*
X124700457Y-150887904D01*
X124724266Y-150983142D01*
X124748076Y-151030761D01*
X124795695Y-151078380D01*
X124867123Y-151102190D01*
X124986171Y-151102190D01*
X124509980Y-150649809D02*
X124486171Y-150626000D01*
X124438552Y-150602190D01*
X124319504Y-150602190D01*
X124271885Y-150626000D01*
X124248076Y-150649809D01*
X124224266Y-150697428D01*
X124224266Y-150745047D01*
X124248076Y-150816476D01*
X124533790Y-151102190D01*
X124224266Y-151102190D01*
X124009980Y-150911714D02*
X123629028Y-150911714D01*
X123819504Y-151102190D02*
X123819504Y-150721238D01*
G04 #@! TO.C,D2-*
X122903371Y-151102190D02*
X122903371Y-150602190D01*
X122784323Y-150602190D01*
X122712895Y-150626000D01*
X122665276Y-150673619D01*
X122641466Y-150721238D01*
X122617657Y-150816476D01*
X122617657Y-150887904D01*
X122641466Y-150983142D01*
X122665276Y-151030761D01*
X122712895Y-151078380D01*
X122784323Y-151102190D01*
X122903371Y-151102190D01*
X122427180Y-150649809D02*
X122403371Y-150626000D01*
X122355752Y-150602190D01*
X122236704Y-150602190D01*
X122189085Y-150626000D01*
X122165276Y-150649809D01*
X122141466Y-150697428D01*
X122141466Y-150745047D01*
X122165276Y-150816476D01*
X122450990Y-151102190D01*
X122141466Y-151102190D01*
X121927180Y-150911714D02*
X121546228Y-150911714D01*
G04 #@! TO.C,CLK-*
X118666342Y-151054571D02*
X118690152Y-151078380D01*
X118761580Y-151102190D01*
X118809200Y-151102190D01*
X118880628Y-151078380D01*
X118928247Y-151030761D01*
X118952057Y-150983142D01*
X118975866Y-150887904D01*
X118975866Y-150816476D01*
X118952057Y-150721238D01*
X118928247Y-150673619D01*
X118880628Y-150626000D01*
X118809200Y-150602190D01*
X118761580Y-150602190D01*
X118690152Y-150626000D01*
X118666342Y-150649809D01*
X118213961Y-151102190D02*
X118452057Y-151102190D01*
X118452057Y-150602190D01*
X118047295Y-151102190D02*
X118047295Y-150602190D01*
X117761580Y-151102190D02*
X117975866Y-150816476D01*
X117761580Y-150602190D02*
X118047295Y-150887904D01*
X117547295Y-150911714D02*
X117166342Y-150911714D01*
G04 #@! TO.C,C48*
X116196228Y-147854171D02*
X116220038Y-147877980D01*
X116291466Y-147901790D01*
X116339085Y-147901790D01*
X116410514Y-147877980D01*
X116458133Y-147830361D01*
X116481942Y-147782742D01*
X116505752Y-147687504D01*
X116505752Y-147616076D01*
X116481942Y-147520838D01*
X116458133Y-147473219D01*
X116410514Y-147425600D01*
X116339085Y-147401790D01*
X116291466Y-147401790D01*
X116220038Y-147425600D01*
X116196228Y-147449409D01*
X115767657Y-147568457D02*
X115767657Y-147901790D01*
X115886704Y-147377980D02*
X116005752Y-147735123D01*
X115696228Y-147735123D01*
X115434323Y-147616076D02*
X115481942Y-147592266D01*
X115505752Y-147568457D01*
X115529561Y-147520838D01*
X115529561Y-147497028D01*
X115505752Y-147449409D01*
X115481942Y-147425600D01*
X115434323Y-147401790D01*
X115339085Y-147401790D01*
X115291466Y-147425600D01*
X115267657Y-147449409D01*
X115243847Y-147497028D01*
X115243847Y-147520838D01*
X115267657Y-147568457D01*
X115291466Y-147592266D01*
X115339085Y-147616076D01*
X115434323Y-147616076D01*
X115481942Y-147639885D01*
X115505752Y-147663695D01*
X115529561Y-147711314D01*
X115529561Y-147806552D01*
X115505752Y-147854171D01*
X115481942Y-147877980D01*
X115434323Y-147901790D01*
X115339085Y-147901790D01*
X115291466Y-147877980D01*
X115267657Y-147854171D01*
X115243847Y-147806552D01*
X115243847Y-147711314D01*
X115267657Y-147663695D01*
X115291466Y-147639885D01*
X115339085Y-147616076D01*
G04 #@! TO.C,C49*
X134484228Y-132106171D02*
X134508038Y-132129980D01*
X134579466Y-132153790D01*
X134627085Y-132153790D01*
X134698514Y-132129980D01*
X134746133Y-132082361D01*
X134769942Y-132034742D01*
X134793752Y-131939504D01*
X134793752Y-131868076D01*
X134769942Y-131772838D01*
X134746133Y-131725219D01*
X134698514Y-131677600D01*
X134627085Y-131653790D01*
X134579466Y-131653790D01*
X134508038Y-131677600D01*
X134484228Y-131701409D01*
X134055657Y-131820457D02*
X134055657Y-132153790D01*
X134174704Y-131629980D02*
X134293752Y-131987123D01*
X133984228Y-131987123D01*
X133769942Y-132153790D02*
X133674704Y-132153790D01*
X133627085Y-132129980D01*
X133603276Y-132106171D01*
X133555657Y-132034742D01*
X133531847Y-131939504D01*
X133531847Y-131749028D01*
X133555657Y-131701409D01*
X133579466Y-131677600D01*
X133627085Y-131653790D01*
X133722323Y-131653790D01*
X133769942Y-131677600D01*
X133793752Y-131701409D01*
X133817561Y-131749028D01*
X133817561Y-131868076D01*
X133793752Y-131915695D01*
X133769942Y-131939504D01*
X133722323Y-131963314D01*
X133627085Y-131963314D01*
X133579466Y-131939504D01*
X133555657Y-131915695D01*
X133531847Y-131868076D01*
G04 #@! TO.C,R10*
X115840628Y-141754990D02*
X116007295Y-141516895D01*
X116126342Y-141754990D02*
X116126342Y-141254990D01*
X115935866Y-141254990D01*
X115888247Y-141278800D01*
X115864438Y-141302609D01*
X115840628Y-141350228D01*
X115840628Y-141421657D01*
X115864438Y-141469276D01*
X115888247Y-141493085D01*
X115935866Y-141516895D01*
X116126342Y-141516895D01*
X115364438Y-141754990D02*
X115650152Y-141754990D01*
X115507295Y-141754990D02*
X115507295Y-141254990D01*
X115554914Y-141326419D01*
X115602533Y-141374038D01*
X115650152Y-141397847D01*
X115054914Y-141254990D02*
X115007295Y-141254990D01*
X114959676Y-141278800D01*
X114935866Y-141302609D01*
X114912057Y-141350228D01*
X114888247Y-141445466D01*
X114888247Y-141564514D01*
X114912057Y-141659752D01*
X114935866Y-141707371D01*
X114959676Y-141731180D01*
X115007295Y-141754990D01*
X115054914Y-141754990D01*
X115102533Y-141731180D01*
X115126342Y-141707371D01*
X115150152Y-141659752D01*
X115173961Y-141564514D01*
X115173961Y-141445466D01*
X115150152Y-141350228D01*
X115126342Y-141302609D01*
X115102533Y-141278800D01*
X115054914Y-141254990D01*
G04 #@! TD*
M02*
