%TF.GenerationSoftware,KiCad,Pcbnew,(5.1.6)-1*%
%TF.CreationDate,2020-12-19T20:46:54-03:30*%
%TF.ProjectId,graphics-card-rev-2,67726170-6869-4637-932d-636172642d72,rev?*%
%TF.SameCoordinates,Original*%
%TF.FileFunction,Copper,L3,Inr*%
%TF.FilePolarity,Positive*%
%FSLAX46Y46*%
G04 Gerber Fmt 4.6, Leading zero omitted, Abs format (unit mm)*
G04 Created by KiCad (PCBNEW (5.1.6)-1) date 2020-12-19 20:46:54*
%MOMM*%
%LPD*%
G01*
G04 APERTURE LIST*
%TA.AperFunction,ViaPad*%
%ADD10O,1.350000X1.700000*%
%TD*%
%TA.AperFunction,ViaPad*%
%ADD11O,1.100000X1.500000*%
%TD*%
%TA.AperFunction,ViaPad*%
%ADD12C,1.950000*%
%TD*%
%TA.AperFunction,ViaPad*%
%ADD13C,0.500000*%
%TD*%
%TA.AperFunction,ViaPad*%
%ADD14C,3.000000*%
%TD*%
%TA.AperFunction,Conductor*%
%ADD15C,0.250000*%
%TD*%
%TA.AperFunction,Conductor*%
%ADD16C,0.400000*%
%TD*%
G04 APERTURE END LIST*
D10*
%TO.N,GND*%
%TO.C,J1*%
X103670000Y-165715000D03*
X98210000Y-165715000D03*
D11*
X103360000Y-162715000D03*
X98520000Y-162715000D03*
%TD*%
%TO.N,GND*%
%TO.C,J2*%
X116555000Y-162707000D03*
X121395000Y-162707000D03*
D10*
X116245000Y-165707000D03*
X121705000Y-165707000D03*
%TD*%
D12*
%TO.N,GND*%
%TO.C,J3*%
X60060000Y-159766000D03*
X74560000Y-159766000D03*
X59460000Y-164666000D03*
X75160000Y-164666000D03*
%TD*%
D13*
%TO.N,GND*%
X117094000Y-128270000D03*
D14*
X71628000Y-146685000D03*
D13*
X67818000Y-152654000D03*
X80264000Y-109873000D03*
X83566000Y-132851000D03*
X107500000Y-139000000D03*
X64973914Y-160223914D03*
X66875000Y-160375000D03*
X110500000Y-159000000D03*
X85250000Y-162250000D03*
X87950000Y-154250000D03*
X79250000Y-158750000D03*
X59436000Y-144916000D03*
X97000000Y-113500000D03*
X111000000Y-110750000D03*
X105250000Y-123000000D03*
X125250000Y-126750000D03*
X129480000Y-126253000D03*
X101400000Y-152600000D03*
X107600000Y-151700000D03*
X103525000Y-156500000D03*
X78045000Y-133250000D03*
X68000000Y-113500000D03*
X67900000Y-120900000D03*
X122500000Y-146750000D03*
X122250000Y-158250000D03*
X122250000Y-153250000D03*
X86050000Y-139500000D03*
X93500000Y-107750000D03*
X93250000Y-114250000D03*
X78750000Y-139250000D03*
X71755000Y-134348000D03*
X91750000Y-135750000D03*
X79000000Y-125475000D03*
X79000000Y-121720702D03*
X116500000Y-133250000D03*
X83312000Y-115688000D03*
X126800000Y-137000000D03*
X83693000Y-145415000D03*
X98230000Y-138430000D03*
X104750000Y-142100000D03*
%TO.N,+3V3*%
X117094000Y-132334000D03*
X117094000Y-126305000D03*
X106000000Y-137250000D03*
X101000000Y-138550000D03*
X79823000Y-134000000D03*
X85250000Y-114250000D03*
X92500000Y-113109497D03*
X107500000Y-112275000D03*
X100500000Y-113700000D03*
X102500000Y-113700000D03*
X98500000Y-113700000D03*
X89281000Y-114808000D03*
X79000000Y-123750000D03*
X72500000Y-118550000D03*
X100823000Y-148242000D03*
X88250000Y-139500000D03*
X84000000Y-139500000D03*
X79000000Y-127525000D03*
X95250000Y-139500000D03*
X113900000Y-154000000D03*
X110500000Y-137250000D03*
X124750000Y-137000000D03*
X129500000Y-133250000D03*
X129420001Y-128549588D03*
X129420001Y-124224000D03*
X129159000Y-114164000D03*
X107000000Y-164500000D03*
X59563000Y-150858000D03*
X86374978Y-148000000D03*
X99029990Y-138531590D03*
%TO.N,/USB_VIN*%
X99640000Y-160360000D03*
X107225000Y-159000000D03*
%TO.N,+1V2*%
X110200000Y-147000000D03*
X98800000Y-159600000D03*
%TO.N,/CVCC12_SII*%
X68834000Y-137668000D03*
X74422000Y-134112000D03*
X79250000Y-155250000D03*
X65281587Y-146718413D03*
X71750000Y-141533978D03*
X81700000Y-148000000D03*
%TO.N,/IOVCC_SII*%
X82500000Y-139750000D03*
X78620001Y-138030499D03*
X72103010Y-136853010D03*
X65250000Y-146000000D03*
X74750000Y-145250000D03*
%TO.N,/AVCC_SII*%
X69977000Y-152409000D03*
X79250000Y-162275000D03*
%TO.N,+5V*%
X63500000Y-160250000D03*
X103600000Y-153600000D03*
%TO.N,/~RESET*%
X88805000Y-112963000D03*
X65687039Y-151790150D03*
X72500000Y-108859000D03*
X127500000Y-153250000D03*
X62000000Y-110750000D03*
%TO.N,/USB_D+*%
X117750000Y-160500000D03*
X118975010Y-160524990D03*
%TO.N,/CSDA*%
X102739994Y-123003010D03*
X73914000Y-149635012D03*
X89589413Y-149389413D03*
%TO.N,/CSCL*%
X103485379Y-122992191D03*
X74422000Y-150494992D03*
X89681999Y-150110000D03*
%TO.N,/DSDA*%
X65913000Y-144653000D03*
%TO.N,/DSCL*%
X67945000Y-144653000D03*
%TO.N,/HSYNC*%
X66000000Y-140250000D03*
X99730000Y-138670004D03*
%TO.N,/IDCK*%
X68500000Y-140335000D03*
X97400000Y-138600000D03*
%TO.N,/DE*%
X82042000Y-112522000D03*
X89916000Y-113538000D03*
%TO.N,/B_CB_7*%
X101283895Y-123000000D03*
X74676000Y-136398000D03*
%TO.N,/B_CB_6*%
X102039991Y-123003010D03*
X74059411Y-137092990D03*
%TO.N,/B_CB_5*%
X79845999Y-114210001D03*
X73359398Y-137092990D03*
%TO.N,/B_CB_4*%
X103124000Y-139700016D03*
X74422000Y-141986000D03*
%TO.N,/B_CB_3*%
X72898000Y-141588213D03*
X101346000Y-139700000D03*
%TO.N,/HPD*%
X63627000Y-157099000D03*
X80772000Y-153797000D03*
%TO.N,/R_CR_7*%
X80772000Y-152146000D03*
X96604501Y-138604495D03*
%TO.N,/R_CR_6*%
X77978000Y-150809000D03*
X77399994Y-132200000D03*
%TO.N,/R_CR_5*%
X102133587Y-139725587D03*
X83224990Y-150685000D03*
%TO.N,/R_CR_4*%
X75438000Y-148336000D03*
X75200339Y-132222633D03*
%TO.N,/R_CR_3*%
X76707997Y-148336003D03*
X76699987Y-132199993D03*
%TO.N,/G_Y_7*%
X93285702Y-138938000D03*
X80518000Y-144780000D03*
%TO.N,/G_Y_6*%
X92583000Y-138684000D03*
X81661000Y-144144996D03*
%TO.N,/G_Y_3*%
X90170000Y-138684000D03*
X80751911Y-142589901D03*
%TO.N,/G_Y_2*%
X75946000Y-143002000D03*
X75900350Y-132222505D03*
%TO.N,/RAM_A4*%
X112268000Y-114299990D03*
X95750000Y-114250000D03*
%TO.N,/RAM_A5*%
X112242408Y-115087596D03*
X94234000Y-113792000D03*
%TO.N,/~RAM_CS*%
X124968000Y-121158000D03*
X91406500Y-121445500D03*
%TO.N,/RAM_CKE*%
X113284000Y-120836990D03*
X89916000Y-120904000D03*
%TO.N,/~RAM_WE*%
X124992017Y-122963170D03*
X93218005Y-122173995D03*
%TO.N,/~RAM_RAS*%
X83252802Y-120053823D03*
X128224979Y-120904000D03*
%TO.N,/RAM_A6*%
X113538000Y-116586000D03*
X83642977Y-120635000D03*
%TO.N,/RAM_A7*%
X113538000Y-117348000D03*
X84263946Y-121135000D03*
%TO.N,/RAM_A8*%
X113538000Y-118110000D03*
X84963949Y-121635000D03*
%TO.N,/RAM_A9*%
X113538000Y-118872000D03*
X85603468Y-122127673D03*
%TO.N,/RAM_A10*%
X124968000Y-118110000D03*
X86106000Y-122614990D03*
%TO.N,/RAM_D4*%
X82835750Y-124423187D03*
X127762008Y-129286000D03*
%TO.N,/RAM_D5*%
X82998950Y-125103899D03*
X127787000Y-127660000D03*
%TO.N,/RAM_D6*%
X83312000Y-125730000D03*
X127859016Y-126111000D03*
%TO.N,/RAM_D7*%
X83820000Y-126492000D03*
X124714000Y-125797010D03*
%TO.N,/RAM_D8*%
X84074016Y-127254000D03*
X112250000Y-126500000D03*
%TO.N,/RAM_D9*%
X84387055Y-127880110D03*
X113547921Y-127286245D03*
%TO.N,/RAM_D10*%
X84680898Y-128515463D03*
X113603655Y-127984035D03*
%TO.N,/RAM_D11*%
X85022206Y-129126630D03*
X113580582Y-129240265D03*
%TO.N,/RAM_D12*%
X85450772Y-129680116D03*
X113575010Y-130047881D03*
%TO.N,/RAM_D13*%
X84511912Y-134041912D03*
X113575065Y-131821315D03*
%TO.N,/RAM_D14*%
X84525415Y-134879412D03*
X113575065Y-132582977D03*
%TO.N,/RAM_D15*%
X84582000Y-135636000D03*
X113575065Y-133282990D03*
%TO.N,/RAM_D0*%
X125222000Y-134366000D03*
X88138000Y-134366000D03*
%TO.N,/RAM_D1*%
X125222000Y-132588000D03*
X89408000Y-133790990D03*
%TO.N,/RAM_BA0*%
X95504000Y-135890000D03*
X123698000Y-135128000D03*
%TO.N,/RAM_BA1*%
X122936000Y-134941000D03*
X96281330Y-135822990D03*
%TO.N,/RAM_CLK*%
X117348000Y-135128000D03*
X98472014Y-135128000D03*
%TO.N,/RAM_D2*%
X125222000Y-131318000D03*
X107842914Y-130382194D03*
%TO.N,/RAM_D3*%
X125222000Y-130302000D03*
X108458000Y-130000000D03*
%TO.N,/~RAM_CAS*%
X124968000Y-122174000D03*
X109727997Y-122174003D03*
%TO.N,/INT_SII*%
X104206589Y-123003010D03*
X69088000Y-151384000D03*
%TO.N,/RAM_NBL0*%
X128016000Y-122682000D03*
X105429113Y-113451257D03*
%TO.N,/RAM_A11*%
X86614000Y-123190000D03*
X113538000Y-120142006D03*
%TO.N,/~USR_BTN*%
X83294000Y-117729000D03*
X72495000Y-116495000D03*
%TO.N,Net-(R6-Pad1)*%
X67797406Y-148610594D03*
%TO.N,Net-(R18-Pad1)*%
X65994717Y-153229010D03*
%TO.N,Net-(C52-Pad1)*%
X83500000Y-130725000D03*
%TD*%
D15*
%TO.N,+3V3*%
X84000000Y-138177000D02*
X79823000Y-134000000D01*
X84000000Y-139500000D02*
X84000000Y-138177000D01*
X113900000Y-140650000D02*
X110500000Y-137250000D01*
X117500000Y-137000000D02*
X124750000Y-137000000D01*
D16*
X113900000Y-154000000D02*
X113900000Y-140650000D01*
X113900000Y-140600000D02*
X117500000Y-137000000D01*
X113900000Y-140650000D02*
X113900000Y-140600000D01*
X124750000Y-137000000D02*
X117576990Y-137000000D01*
X87674999Y-140075001D02*
X88250000Y-139500000D01*
X87250000Y-140500000D02*
X87674999Y-140075001D01*
X84000000Y-139500000D02*
X85000000Y-140500000D01*
X85000000Y-140500000D02*
X87250000Y-140500000D01*
D15*
%TO.N,+1V2*%
X110200000Y-148200000D02*
X98800000Y-159600000D01*
X110200000Y-147000000D02*
X110200000Y-148200000D01*
%TO.N,/CVCC12_SII*%
X66718413Y-146718413D02*
X65281587Y-146718413D01*
X79250000Y-155250000D02*
X75250000Y-155250000D01*
X75250000Y-155250000D02*
X66718413Y-146718413D01*
X71750000Y-140584000D02*
X68834000Y-137668000D01*
X71750000Y-141533978D02*
X71750000Y-140584000D01*
%TO.N,/IOVCC_SII*%
X69449002Y-144000000D02*
X73500000Y-144000000D01*
X67449002Y-146000000D02*
X69449002Y-144000000D01*
X73500000Y-144000000D02*
X74750000Y-145250000D01*
X65250000Y-146000000D02*
X67449002Y-146000000D01*
%TO.N,/AVCC_SII*%
X76750000Y-159750000D02*
X79250000Y-162250000D01*
X76750000Y-158000000D02*
X76750000Y-159750000D01*
X79250000Y-162250000D02*
X79250000Y-162275000D01*
X69977000Y-152409000D02*
X71159000Y-152409000D01*
X71159000Y-152409000D02*
X76750000Y-158000000D01*
%TO.N,+5V*%
X94200000Y-163000000D02*
X103600000Y-153600000D01*
X63500000Y-160250000D02*
X66250000Y-163000000D01*
X66250000Y-163000000D02*
X94200000Y-163000000D01*
%TO.N,/~RESET*%
X65687039Y-151790150D02*
X62000000Y-148103111D01*
X62000000Y-148103111D02*
X62000000Y-110750000D01*
%TO.N,/DE*%
X83058000Y-113538000D02*
X89916000Y-113538000D01*
X82042000Y-112522000D02*
X83058000Y-113538000D01*
%TO.N,/B_CB_5*%
X79845999Y-114210001D02*
X73359398Y-120696602D01*
X73359398Y-120696602D02*
X73359398Y-137092990D01*
%TO.N,/R_CR_7*%
X92318000Y-140600000D02*
X95153553Y-140600000D01*
X96604501Y-139149052D02*
X96604501Y-138604495D01*
X95153553Y-140600000D02*
X96604501Y-139149052D01*
X80772000Y-152146000D02*
X92318000Y-140600000D01*
%TO.N,/R_CR_6*%
X77978000Y-150809000D02*
X77399994Y-150230994D01*
X77399994Y-150230994D02*
X77399994Y-132200000D01*
%TO.N,/R_CR_5*%
X91174174Y-150685000D02*
X83224990Y-150685000D01*
X102133587Y-139725587D02*
X91174174Y-150685000D01*
%TO.N,/R_CR_4*%
X75438000Y-147982447D02*
X75335911Y-147880358D01*
X75335911Y-147880358D02*
X75335911Y-132358205D01*
X75335911Y-132358205D02*
X75200339Y-132222633D01*
X75438000Y-148336000D02*
X75438000Y-147982447D01*
%TO.N,/R_CR_3*%
X76707997Y-132208003D02*
X76699987Y-132199993D01*
X76707997Y-148336003D02*
X76707997Y-132208003D01*
%TO.N,/G_Y_7*%
X80518000Y-144780000D02*
X87443702Y-144780000D01*
X87443702Y-144780000D02*
X93285702Y-138938000D01*
%TO.N,/G_Y_6*%
X92583000Y-138684000D02*
X87122004Y-144144996D01*
X87122004Y-144144996D02*
X81661000Y-144144996D01*
%TO.N,/G_Y_3*%
X86614000Y-142240000D02*
X90170000Y-138684000D01*
X80751911Y-142589901D02*
X86264099Y-142589901D01*
X86264099Y-142589901D02*
X86614000Y-142240000D01*
%TO.N,/G_Y_2*%
X75946000Y-143002000D02*
X75946000Y-132268155D01*
X75946000Y-132268155D02*
X75900350Y-132222505D01*
%TO.N,/RAM_A4*%
X112268000Y-114299990D02*
X95799990Y-114299990D01*
X95799990Y-114299990D02*
X95750000Y-114250000D01*
%TO.N,/RAM_A5*%
X94292000Y-113792000D02*
X94234000Y-113792000D01*
X112242408Y-115087596D02*
X95587596Y-115087596D01*
X95587596Y-115087596D02*
X94292000Y-113792000D01*
%TO.N,/~RAM_CS*%
X124680500Y-121445500D02*
X91406500Y-121445500D01*
X124968000Y-121158000D02*
X124680500Y-121445500D01*
%TO.N,/RAM_CKE*%
X89983010Y-120836990D02*
X89916000Y-120904000D01*
X113284000Y-120836990D02*
X89983010Y-120836990D01*
%TO.N,/~RAM_WE*%
X108993170Y-122963170D02*
X108203995Y-122173995D01*
X108203995Y-122173995D02*
X93218005Y-122173995D01*
X124992017Y-122963170D02*
X108993170Y-122963170D01*
%TO.N,/~RAM_RAS*%
X128224979Y-120550447D02*
X128224979Y-120904000D01*
X123685531Y-116010999D02*
X128224979Y-120550447D01*
X87295626Y-116010999D02*
X123685531Y-116010999D01*
X83252802Y-120053823D02*
X87295626Y-116010999D01*
%TO.N,/RAM_A6*%
X87691977Y-116586000D02*
X113538000Y-116586000D01*
X83642977Y-120635000D02*
X87691977Y-116586000D01*
%TO.N,/RAM_A7*%
X88050946Y-117348000D02*
X84263946Y-121135000D01*
X113538000Y-117348000D02*
X88050946Y-117348000D01*
%TO.N,/RAM_A8*%
X88488949Y-118110000D02*
X113538000Y-118110000D01*
X84963949Y-121635000D02*
X88488949Y-118110000D01*
%TO.N,/RAM_A9*%
X113538000Y-118872000D02*
X88859141Y-118872000D01*
X88859141Y-118872000D02*
X85603468Y-122127673D01*
%TO.N,/RAM_A10*%
X124968000Y-118110000D02*
X123510995Y-119567005D01*
X123510995Y-119567005D02*
X89153985Y-119567005D01*
X89153985Y-119567005D02*
X86106000Y-122614990D01*
%TO.N,/RAM_D4*%
X128905000Y-125170672D02*
X128905000Y-128143008D01*
X83306937Y-123952000D02*
X127686328Y-123952000D01*
X127686328Y-123952000D02*
X128905000Y-125170672D01*
X128905000Y-128143008D02*
X127762008Y-129286000D01*
X82835750Y-124423187D02*
X83306937Y-123952000D01*
%TO.N,/RAM_D5*%
X83642849Y-124460000D02*
X127509411Y-124460000D01*
X128454989Y-125405578D02*
X128454989Y-126992011D01*
X128454989Y-126992011D02*
X127787000Y-127660000D01*
X82998950Y-125103899D02*
X83642849Y-124460000D01*
X127509411Y-124460000D02*
X128454989Y-125405578D01*
%TO.N,/RAM_D6*%
X127859016Y-125446016D02*
X127859016Y-126111000D01*
X127381000Y-124968000D02*
X127859016Y-125446016D01*
X84074000Y-124968000D02*
X127381000Y-124968000D01*
X83312000Y-125730000D02*
X84074000Y-124968000D01*
%TO.N,/RAM_D7*%
X124646990Y-125730000D02*
X124714000Y-125797010D01*
X83820000Y-126492000D02*
X84582000Y-125730000D01*
X84582000Y-125730000D02*
X124646990Y-125730000D01*
%TO.N,/RAM_D8*%
X84074016Y-127254000D02*
X84828016Y-126500000D01*
X84828016Y-126500000D02*
X112250000Y-126500000D01*
%TO.N,/RAM_D9*%
X84980920Y-127286245D02*
X113547921Y-127286245D01*
X84387055Y-127880110D02*
X84980920Y-127286245D01*
%TO.N,/RAM_D10*%
X113571690Y-128016000D02*
X113603655Y-127984035D01*
X84680898Y-128515463D02*
X85180361Y-128016000D01*
X85180361Y-128016000D02*
X113571690Y-128016000D01*
%TO.N,/RAM_D11*%
X113059894Y-128719577D02*
X113580582Y-129240265D01*
X85022206Y-129126630D02*
X85429259Y-128719577D01*
X85429259Y-128719577D02*
X113059894Y-128719577D01*
%TO.N,/RAM_D12*%
X85844893Y-129285995D02*
X112813124Y-129285995D01*
X85450772Y-129680116D02*
X85844893Y-129285995D01*
X112813124Y-129285995D02*
X113575010Y-130047881D01*
%TO.N,/RAM_D13*%
X86732509Y-131821315D02*
X113575065Y-131821315D01*
X84511912Y-134041912D02*
X86732509Y-131821315D01*
%TO.N,/RAM_D14*%
X84525415Y-134879412D02*
X86821850Y-132582977D01*
X86821850Y-132582977D02*
X113575065Y-132582977D01*
%TO.N,/RAM_D15*%
X113508064Y-133215989D02*
X113575065Y-133282990D01*
X87002011Y-133215989D02*
X113508064Y-133215989D01*
X84582000Y-135636000D02*
X87002011Y-133215989D01*
%TO.N,/RAM_D0*%
X125222000Y-134366000D02*
X88138000Y-134366000D01*
%TO.N,/RAM_D1*%
X89475010Y-133858000D02*
X89408000Y-133790990D01*
X123952000Y-133858000D02*
X89475010Y-133858000D01*
X125222000Y-132588000D02*
X123952000Y-133858000D01*
%TO.N,/RAM_BA0*%
X122428000Y-136398000D02*
X123698000Y-135128000D01*
X95504000Y-135890000D02*
X96012000Y-136398000D01*
X96012000Y-136398000D02*
X122428000Y-136398000D01*
%TO.N,/RAM_BA1*%
X122936000Y-134941000D02*
X122054010Y-135822990D01*
X122054010Y-135822990D02*
X96281330Y-135822990D01*
%TO.N,/RAM_CLK*%
X117348000Y-135128000D02*
X98472014Y-135128000D01*
%TO.N,/RAM_D2*%
X108707033Y-131246313D02*
X108092913Y-130632193D01*
X108092913Y-130632193D02*
X107842914Y-130382194D01*
X113903235Y-131318000D02*
X113831548Y-131246313D01*
X113831548Y-131246313D02*
X108707033Y-131246313D01*
X125222000Y-131318000D02*
X113903235Y-131318000D01*
%TO.N,/RAM_D3*%
X125222000Y-130302000D02*
X124900999Y-130623001D01*
X124900999Y-130623001D02*
X109081001Y-130623001D01*
X109081001Y-130623001D02*
X108458000Y-130000000D01*
%TO.N,/~RAM_CAS*%
X124968000Y-122174000D02*
X109728000Y-122174000D01*
X109728000Y-122174000D02*
X109727997Y-122174003D01*
%TO.N,/RAM_A11*%
X89661994Y-120142006D02*
X86614000Y-123190000D01*
X113538000Y-120142006D02*
X89661994Y-120142006D01*
%TD*%
M02*
