%TF.GenerationSoftware,KiCad,Pcbnew,(5.1.6)-1*%
%TF.CreationDate,2020-12-19T20:46:55-03:30*%
%TF.ProjectId,graphics-card-rev-2,67726170-6869-4637-932d-636172642d72,rev?*%
%TF.SameCoordinates,Original*%
%TF.FileFunction,Soldermask,Top*%
%TF.FilePolarity,Negative*%
%FSLAX46Y46*%
G04 Gerber Fmt 4.6, Leading zero omitted, Abs format (unit mm)*
G04 Created by KiCad (PCBNEW (5.1.6)-1) date 2020-12-19 20:46:55*
%MOMM*%
%LPD*%
G01*
G04 APERTURE LIST*
%ADD10R,5.100000X5.100000*%
%ADD11C,1.100000*%
%ADD12R,1.530000X2.600000*%
%ADD13O,1.450000X1.800000*%
%ADD14O,1.200000X1.600000*%
%ADD15R,0.500000X1.750000*%
%ADD16R,2.100000X1.600000*%
%ADD17R,1.925000X0.800000*%
%ADD18R,1.450000X2.100000*%
%ADD19R,0.400000X2.000000*%
%ADD20C,2.050000*%
%ADD21R,1.160000X0.750000*%
%ADD22R,2.100000X3.900000*%
%ADD23R,1.610000X0.558000*%
%ADD24R,3.600000X2.500000*%
%ADD25R,1.650000X1.400000*%
%ADD26R,1.100000X3.250000*%
%ADD27R,1.000000X0.900000*%
G04 APERTURE END LIST*
%TO.C,U6*%
G36*
G01*
X105955000Y-113510000D02*
X107355000Y-113510000D01*
G75*
G02*
X107455000Y-113610000I0J-100000D01*
G01*
X107455000Y-113810000D01*
G75*
G02*
X107355000Y-113910000I-100000J0D01*
G01*
X105955000Y-113910000D01*
G75*
G02*
X105855000Y-113810000I0J100000D01*
G01*
X105855000Y-113610000D01*
G75*
G02*
X105955000Y-113510000I100000J0D01*
G01*
G37*
G36*
G01*
X105955000Y-114010000D02*
X107355000Y-114010000D01*
G75*
G02*
X107455000Y-114110000I0J-100000D01*
G01*
X107455000Y-114310000D01*
G75*
G02*
X107355000Y-114410000I-100000J0D01*
G01*
X105955000Y-114410000D01*
G75*
G02*
X105855000Y-114310000I0J100000D01*
G01*
X105855000Y-114110000D01*
G75*
G02*
X105955000Y-114010000I100000J0D01*
G01*
G37*
G36*
G01*
X105955000Y-114510000D02*
X107355000Y-114510000D01*
G75*
G02*
X107455000Y-114610000I0J-100000D01*
G01*
X107455000Y-114810000D01*
G75*
G02*
X107355000Y-114910000I-100000J0D01*
G01*
X105955000Y-114910000D01*
G75*
G02*
X105855000Y-114810000I0J100000D01*
G01*
X105855000Y-114610000D01*
G75*
G02*
X105955000Y-114510000I100000J0D01*
G01*
G37*
G36*
G01*
X105955000Y-115010000D02*
X107355000Y-115010000D01*
G75*
G02*
X107455000Y-115110000I0J-100000D01*
G01*
X107455000Y-115310000D01*
G75*
G02*
X107355000Y-115410000I-100000J0D01*
G01*
X105955000Y-115410000D01*
G75*
G02*
X105855000Y-115310000I0J100000D01*
G01*
X105855000Y-115110000D01*
G75*
G02*
X105955000Y-115010000I100000J0D01*
G01*
G37*
G36*
G01*
X105955000Y-115510000D02*
X107355000Y-115510000D01*
G75*
G02*
X107455000Y-115610000I0J-100000D01*
G01*
X107455000Y-115810000D01*
G75*
G02*
X107355000Y-115910000I-100000J0D01*
G01*
X105955000Y-115910000D01*
G75*
G02*
X105855000Y-115810000I0J100000D01*
G01*
X105855000Y-115610000D01*
G75*
G02*
X105955000Y-115510000I100000J0D01*
G01*
G37*
G36*
G01*
X105955000Y-116010000D02*
X107355000Y-116010000D01*
G75*
G02*
X107455000Y-116110000I0J-100000D01*
G01*
X107455000Y-116310000D01*
G75*
G02*
X107355000Y-116410000I-100000J0D01*
G01*
X105955000Y-116410000D01*
G75*
G02*
X105855000Y-116310000I0J100000D01*
G01*
X105855000Y-116110000D01*
G75*
G02*
X105955000Y-116010000I100000J0D01*
G01*
G37*
G36*
G01*
X105955000Y-116510000D02*
X107355000Y-116510000D01*
G75*
G02*
X107455000Y-116610000I0J-100000D01*
G01*
X107455000Y-116810000D01*
G75*
G02*
X107355000Y-116910000I-100000J0D01*
G01*
X105955000Y-116910000D01*
G75*
G02*
X105855000Y-116810000I0J100000D01*
G01*
X105855000Y-116610000D01*
G75*
G02*
X105955000Y-116510000I100000J0D01*
G01*
G37*
G36*
G01*
X105955000Y-117010000D02*
X107355000Y-117010000D01*
G75*
G02*
X107455000Y-117110000I0J-100000D01*
G01*
X107455000Y-117310000D01*
G75*
G02*
X107355000Y-117410000I-100000J0D01*
G01*
X105955000Y-117410000D01*
G75*
G02*
X105855000Y-117310000I0J100000D01*
G01*
X105855000Y-117110000D01*
G75*
G02*
X105955000Y-117010000I100000J0D01*
G01*
G37*
G36*
G01*
X105955000Y-117510000D02*
X107355000Y-117510000D01*
G75*
G02*
X107455000Y-117610000I0J-100000D01*
G01*
X107455000Y-117810000D01*
G75*
G02*
X107355000Y-117910000I-100000J0D01*
G01*
X105955000Y-117910000D01*
G75*
G02*
X105855000Y-117810000I0J100000D01*
G01*
X105855000Y-117610000D01*
G75*
G02*
X105955000Y-117510000I100000J0D01*
G01*
G37*
G36*
G01*
X105955000Y-118010000D02*
X107355000Y-118010000D01*
G75*
G02*
X107455000Y-118110000I0J-100000D01*
G01*
X107455000Y-118310000D01*
G75*
G02*
X107355000Y-118410000I-100000J0D01*
G01*
X105955000Y-118410000D01*
G75*
G02*
X105855000Y-118310000I0J100000D01*
G01*
X105855000Y-118110000D01*
G75*
G02*
X105955000Y-118010000I100000J0D01*
G01*
G37*
G36*
G01*
X105955000Y-118510000D02*
X107355000Y-118510000D01*
G75*
G02*
X107455000Y-118610000I0J-100000D01*
G01*
X107455000Y-118810000D01*
G75*
G02*
X107355000Y-118910000I-100000J0D01*
G01*
X105955000Y-118910000D01*
G75*
G02*
X105855000Y-118810000I0J100000D01*
G01*
X105855000Y-118610000D01*
G75*
G02*
X105955000Y-118510000I100000J0D01*
G01*
G37*
G36*
G01*
X105955000Y-119010000D02*
X107355000Y-119010000D01*
G75*
G02*
X107455000Y-119110000I0J-100000D01*
G01*
X107455000Y-119310000D01*
G75*
G02*
X107355000Y-119410000I-100000J0D01*
G01*
X105955000Y-119410000D01*
G75*
G02*
X105855000Y-119310000I0J100000D01*
G01*
X105855000Y-119110000D01*
G75*
G02*
X105955000Y-119010000I100000J0D01*
G01*
G37*
G36*
G01*
X105955000Y-119510000D02*
X107355000Y-119510000D01*
G75*
G02*
X107455000Y-119610000I0J-100000D01*
G01*
X107455000Y-119810000D01*
G75*
G02*
X107355000Y-119910000I-100000J0D01*
G01*
X105955000Y-119910000D01*
G75*
G02*
X105855000Y-119810000I0J100000D01*
G01*
X105855000Y-119610000D01*
G75*
G02*
X105955000Y-119510000I100000J0D01*
G01*
G37*
G36*
G01*
X105955000Y-120010000D02*
X107355000Y-120010000D01*
G75*
G02*
X107455000Y-120110000I0J-100000D01*
G01*
X107455000Y-120310000D01*
G75*
G02*
X107355000Y-120410000I-100000J0D01*
G01*
X105955000Y-120410000D01*
G75*
G02*
X105855000Y-120310000I0J100000D01*
G01*
X105855000Y-120110000D01*
G75*
G02*
X105955000Y-120010000I100000J0D01*
G01*
G37*
G36*
G01*
X105955000Y-120510000D02*
X107355000Y-120510000D01*
G75*
G02*
X107455000Y-120610000I0J-100000D01*
G01*
X107455000Y-120810000D01*
G75*
G02*
X107355000Y-120910000I-100000J0D01*
G01*
X105955000Y-120910000D01*
G75*
G02*
X105855000Y-120810000I0J100000D01*
G01*
X105855000Y-120610000D01*
G75*
G02*
X105955000Y-120510000I100000J0D01*
G01*
G37*
G36*
G01*
X105955000Y-121010000D02*
X107355000Y-121010000D01*
G75*
G02*
X107455000Y-121110000I0J-100000D01*
G01*
X107455000Y-121310000D01*
G75*
G02*
X107355000Y-121410000I-100000J0D01*
G01*
X105955000Y-121410000D01*
G75*
G02*
X105855000Y-121310000I0J100000D01*
G01*
X105855000Y-121110000D01*
G75*
G02*
X105955000Y-121010000I100000J0D01*
G01*
G37*
G36*
G01*
X105955000Y-121510000D02*
X107355000Y-121510000D01*
G75*
G02*
X107455000Y-121610000I0J-100000D01*
G01*
X107455000Y-121810000D01*
G75*
G02*
X107355000Y-121910000I-100000J0D01*
G01*
X105955000Y-121910000D01*
G75*
G02*
X105855000Y-121810000I0J100000D01*
G01*
X105855000Y-121610000D01*
G75*
G02*
X105955000Y-121510000I100000J0D01*
G01*
G37*
G36*
G01*
X105955000Y-122010000D02*
X107355000Y-122010000D01*
G75*
G02*
X107455000Y-122110000I0J-100000D01*
G01*
X107455000Y-122310000D01*
G75*
G02*
X107355000Y-122410000I-100000J0D01*
G01*
X105955000Y-122410000D01*
G75*
G02*
X105855000Y-122310000I0J100000D01*
G01*
X105855000Y-122110000D01*
G75*
G02*
X105955000Y-122010000I100000J0D01*
G01*
G37*
G36*
G01*
X105955000Y-122510000D02*
X107355000Y-122510000D01*
G75*
G02*
X107455000Y-122610000I0J-100000D01*
G01*
X107455000Y-122810000D01*
G75*
G02*
X107355000Y-122910000I-100000J0D01*
G01*
X105955000Y-122910000D01*
G75*
G02*
X105855000Y-122810000I0J100000D01*
G01*
X105855000Y-122610000D01*
G75*
G02*
X105955000Y-122510000I100000J0D01*
G01*
G37*
G36*
G01*
X105955000Y-123010000D02*
X107355000Y-123010000D01*
G75*
G02*
X107455000Y-123110000I0J-100000D01*
G01*
X107455000Y-123310000D01*
G75*
G02*
X107355000Y-123410000I-100000J0D01*
G01*
X105955000Y-123410000D01*
G75*
G02*
X105855000Y-123310000I0J100000D01*
G01*
X105855000Y-123110000D01*
G75*
G02*
X105955000Y-123010000I100000J0D01*
G01*
G37*
G36*
G01*
X105955000Y-123510000D02*
X107355000Y-123510000D01*
G75*
G02*
X107455000Y-123610000I0J-100000D01*
G01*
X107455000Y-123810000D01*
G75*
G02*
X107355000Y-123910000I-100000J0D01*
G01*
X105955000Y-123910000D01*
G75*
G02*
X105855000Y-123810000I0J100000D01*
G01*
X105855000Y-123610000D01*
G75*
G02*
X105955000Y-123510000I100000J0D01*
G01*
G37*
G36*
G01*
X105955000Y-124010000D02*
X107355000Y-124010000D01*
G75*
G02*
X107455000Y-124110000I0J-100000D01*
G01*
X107455000Y-124310000D01*
G75*
G02*
X107355000Y-124410000I-100000J0D01*
G01*
X105955000Y-124410000D01*
G75*
G02*
X105855000Y-124310000I0J100000D01*
G01*
X105855000Y-124110000D01*
G75*
G02*
X105955000Y-124010000I100000J0D01*
G01*
G37*
G36*
G01*
X105955000Y-124510000D02*
X107355000Y-124510000D01*
G75*
G02*
X107455000Y-124610000I0J-100000D01*
G01*
X107455000Y-124810000D01*
G75*
G02*
X107355000Y-124910000I-100000J0D01*
G01*
X105955000Y-124910000D01*
G75*
G02*
X105855000Y-124810000I0J100000D01*
G01*
X105855000Y-124610000D01*
G75*
G02*
X105955000Y-124510000I100000J0D01*
G01*
G37*
G36*
G01*
X105955000Y-125010000D02*
X107355000Y-125010000D01*
G75*
G02*
X107455000Y-125110000I0J-100000D01*
G01*
X107455000Y-125310000D01*
G75*
G02*
X107355000Y-125410000I-100000J0D01*
G01*
X105955000Y-125410000D01*
G75*
G02*
X105855000Y-125310000I0J100000D01*
G01*
X105855000Y-125110000D01*
G75*
G02*
X105955000Y-125010000I100000J0D01*
G01*
G37*
G36*
G01*
X105955000Y-125510000D02*
X107355000Y-125510000D01*
G75*
G02*
X107455000Y-125610000I0J-100000D01*
G01*
X107455000Y-125810000D01*
G75*
G02*
X107355000Y-125910000I-100000J0D01*
G01*
X105955000Y-125910000D01*
G75*
G02*
X105855000Y-125810000I0J100000D01*
G01*
X105855000Y-125610000D01*
G75*
G02*
X105955000Y-125510000I100000J0D01*
G01*
G37*
G36*
G01*
X105955000Y-126010000D02*
X107355000Y-126010000D01*
G75*
G02*
X107455000Y-126110000I0J-100000D01*
G01*
X107455000Y-126310000D01*
G75*
G02*
X107355000Y-126410000I-100000J0D01*
G01*
X105955000Y-126410000D01*
G75*
G02*
X105855000Y-126310000I0J100000D01*
G01*
X105855000Y-126110000D01*
G75*
G02*
X105955000Y-126010000I100000J0D01*
G01*
G37*
G36*
G01*
X105955000Y-126510000D02*
X107355000Y-126510000D01*
G75*
G02*
X107455000Y-126610000I0J-100000D01*
G01*
X107455000Y-126810000D01*
G75*
G02*
X107355000Y-126910000I-100000J0D01*
G01*
X105955000Y-126910000D01*
G75*
G02*
X105855000Y-126810000I0J100000D01*
G01*
X105855000Y-126610000D01*
G75*
G02*
X105955000Y-126510000I100000J0D01*
G01*
G37*
G36*
G01*
X105955000Y-127010000D02*
X107355000Y-127010000D01*
G75*
G02*
X107455000Y-127110000I0J-100000D01*
G01*
X107455000Y-127310000D01*
G75*
G02*
X107355000Y-127410000I-100000J0D01*
G01*
X105955000Y-127410000D01*
G75*
G02*
X105855000Y-127310000I0J100000D01*
G01*
X105855000Y-127110000D01*
G75*
G02*
X105955000Y-127010000I100000J0D01*
G01*
G37*
G36*
G01*
X105955000Y-127510000D02*
X107355000Y-127510000D01*
G75*
G02*
X107455000Y-127610000I0J-100000D01*
G01*
X107455000Y-127810000D01*
G75*
G02*
X107355000Y-127910000I-100000J0D01*
G01*
X105955000Y-127910000D01*
G75*
G02*
X105855000Y-127810000I0J100000D01*
G01*
X105855000Y-127610000D01*
G75*
G02*
X105955000Y-127510000I100000J0D01*
G01*
G37*
G36*
G01*
X105955000Y-128010000D02*
X107355000Y-128010000D01*
G75*
G02*
X107455000Y-128110000I0J-100000D01*
G01*
X107455000Y-128310000D01*
G75*
G02*
X107355000Y-128410000I-100000J0D01*
G01*
X105955000Y-128410000D01*
G75*
G02*
X105855000Y-128310000I0J100000D01*
G01*
X105855000Y-128110000D01*
G75*
G02*
X105955000Y-128010000I100000J0D01*
G01*
G37*
G36*
G01*
X105955000Y-128510000D02*
X107355000Y-128510000D01*
G75*
G02*
X107455000Y-128610000I0J-100000D01*
G01*
X107455000Y-128810000D01*
G75*
G02*
X107355000Y-128910000I-100000J0D01*
G01*
X105955000Y-128910000D01*
G75*
G02*
X105855000Y-128810000I0J100000D01*
G01*
X105855000Y-128610000D01*
G75*
G02*
X105955000Y-128510000I100000J0D01*
G01*
G37*
G36*
G01*
X105955000Y-129010000D02*
X107355000Y-129010000D01*
G75*
G02*
X107455000Y-129110000I0J-100000D01*
G01*
X107455000Y-129310000D01*
G75*
G02*
X107355000Y-129410000I-100000J0D01*
G01*
X105955000Y-129410000D01*
G75*
G02*
X105855000Y-129310000I0J100000D01*
G01*
X105855000Y-129110000D01*
G75*
G02*
X105955000Y-129010000I100000J0D01*
G01*
G37*
G36*
G01*
X105955000Y-129510000D02*
X107355000Y-129510000D01*
G75*
G02*
X107455000Y-129610000I0J-100000D01*
G01*
X107455000Y-129810000D01*
G75*
G02*
X107355000Y-129910000I-100000J0D01*
G01*
X105955000Y-129910000D01*
G75*
G02*
X105855000Y-129810000I0J100000D01*
G01*
X105855000Y-129610000D01*
G75*
G02*
X105955000Y-129510000I100000J0D01*
G01*
G37*
G36*
G01*
X105955000Y-130010000D02*
X107355000Y-130010000D01*
G75*
G02*
X107455000Y-130110000I0J-100000D01*
G01*
X107455000Y-130310000D01*
G75*
G02*
X107355000Y-130410000I-100000J0D01*
G01*
X105955000Y-130410000D01*
G75*
G02*
X105855000Y-130310000I0J100000D01*
G01*
X105855000Y-130110000D01*
G75*
G02*
X105955000Y-130010000I100000J0D01*
G01*
G37*
G36*
G01*
X105955000Y-130510000D02*
X107355000Y-130510000D01*
G75*
G02*
X107455000Y-130610000I0J-100000D01*
G01*
X107455000Y-130810000D01*
G75*
G02*
X107355000Y-130910000I-100000J0D01*
G01*
X105955000Y-130910000D01*
G75*
G02*
X105855000Y-130810000I0J100000D01*
G01*
X105855000Y-130610000D01*
G75*
G02*
X105955000Y-130510000I100000J0D01*
G01*
G37*
G36*
G01*
X105955000Y-131010000D02*
X107355000Y-131010000D01*
G75*
G02*
X107455000Y-131110000I0J-100000D01*
G01*
X107455000Y-131310000D01*
G75*
G02*
X107355000Y-131410000I-100000J0D01*
G01*
X105955000Y-131410000D01*
G75*
G02*
X105855000Y-131310000I0J100000D01*
G01*
X105855000Y-131110000D01*
G75*
G02*
X105955000Y-131010000I100000J0D01*
G01*
G37*
G36*
G01*
X105955000Y-131510000D02*
X107355000Y-131510000D01*
G75*
G02*
X107455000Y-131610000I0J-100000D01*
G01*
X107455000Y-131810000D01*
G75*
G02*
X107355000Y-131910000I-100000J0D01*
G01*
X105955000Y-131910000D01*
G75*
G02*
X105855000Y-131810000I0J100000D01*
G01*
X105855000Y-131610000D01*
G75*
G02*
X105955000Y-131510000I100000J0D01*
G01*
G37*
G36*
G01*
X105955000Y-132010000D02*
X107355000Y-132010000D01*
G75*
G02*
X107455000Y-132110000I0J-100000D01*
G01*
X107455000Y-132310000D01*
G75*
G02*
X107355000Y-132410000I-100000J0D01*
G01*
X105955000Y-132410000D01*
G75*
G02*
X105855000Y-132310000I0J100000D01*
G01*
X105855000Y-132110000D01*
G75*
G02*
X105955000Y-132010000I100000J0D01*
G01*
G37*
G36*
G01*
X105955000Y-132510000D02*
X107355000Y-132510000D01*
G75*
G02*
X107455000Y-132610000I0J-100000D01*
G01*
X107455000Y-132810000D01*
G75*
G02*
X107355000Y-132910000I-100000J0D01*
G01*
X105955000Y-132910000D01*
G75*
G02*
X105855000Y-132810000I0J100000D01*
G01*
X105855000Y-132610000D01*
G75*
G02*
X105955000Y-132510000I100000J0D01*
G01*
G37*
G36*
G01*
X105955000Y-133010000D02*
X107355000Y-133010000D01*
G75*
G02*
X107455000Y-133110000I0J-100000D01*
G01*
X107455000Y-133310000D01*
G75*
G02*
X107355000Y-133410000I-100000J0D01*
G01*
X105955000Y-133410000D01*
G75*
G02*
X105855000Y-133310000I0J100000D01*
G01*
X105855000Y-133110000D01*
G75*
G02*
X105955000Y-133010000I100000J0D01*
G01*
G37*
G36*
G01*
X105955000Y-133510000D02*
X107355000Y-133510000D01*
G75*
G02*
X107455000Y-133610000I0J-100000D01*
G01*
X107455000Y-133810000D01*
G75*
G02*
X107355000Y-133910000I-100000J0D01*
G01*
X105955000Y-133910000D01*
G75*
G02*
X105855000Y-133810000I0J100000D01*
G01*
X105855000Y-133610000D01*
G75*
G02*
X105955000Y-133510000I100000J0D01*
G01*
G37*
G36*
G01*
X105955000Y-134010000D02*
X107355000Y-134010000D01*
G75*
G02*
X107455000Y-134110000I0J-100000D01*
G01*
X107455000Y-134310000D01*
G75*
G02*
X107355000Y-134410000I-100000J0D01*
G01*
X105955000Y-134410000D01*
G75*
G02*
X105855000Y-134310000I0J100000D01*
G01*
X105855000Y-134110000D01*
G75*
G02*
X105955000Y-134010000I100000J0D01*
G01*
G37*
G36*
G01*
X105955000Y-134510000D02*
X107355000Y-134510000D01*
G75*
G02*
X107455000Y-134610000I0J-100000D01*
G01*
X107455000Y-134810000D01*
G75*
G02*
X107355000Y-134910000I-100000J0D01*
G01*
X105955000Y-134910000D01*
G75*
G02*
X105855000Y-134810000I0J100000D01*
G01*
X105855000Y-134610000D01*
G75*
G02*
X105955000Y-134510000I100000J0D01*
G01*
G37*
G36*
G01*
X105955000Y-135010000D02*
X107355000Y-135010000D01*
G75*
G02*
X107455000Y-135110000I0J-100000D01*
G01*
X107455000Y-135310000D01*
G75*
G02*
X107355000Y-135410000I-100000J0D01*
G01*
X105955000Y-135410000D01*
G75*
G02*
X105855000Y-135310000I0J100000D01*
G01*
X105855000Y-135110000D01*
G75*
G02*
X105955000Y-135010000I100000J0D01*
G01*
G37*
G36*
G01*
X104630000Y-136335000D02*
X104830000Y-136335000D01*
G75*
G02*
X104930000Y-136435000I0J-100000D01*
G01*
X104930000Y-137835000D01*
G75*
G02*
X104830000Y-137935000I-100000J0D01*
G01*
X104630000Y-137935000D01*
G75*
G02*
X104530000Y-137835000I0J100000D01*
G01*
X104530000Y-136435000D01*
G75*
G02*
X104630000Y-136335000I100000J0D01*
G01*
G37*
G36*
G01*
X104130000Y-136335000D02*
X104330000Y-136335000D01*
G75*
G02*
X104430000Y-136435000I0J-100000D01*
G01*
X104430000Y-137835000D01*
G75*
G02*
X104330000Y-137935000I-100000J0D01*
G01*
X104130000Y-137935000D01*
G75*
G02*
X104030000Y-137835000I0J100000D01*
G01*
X104030000Y-136435000D01*
G75*
G02*
X104130000Y-136335000I100000J0D01*
G01*
G37*
G36*
G01*
X103630000Y-136335000D02*
X103830000Y-136335000D01*
G75*
G02*
X103930000Y-136435000I0J-100000D01*
G01*
X103930000Y-137835000D01*
G75*
G02*
X103830000Y-137935000I-100000J0D01*
G01*
X103630000Y-137935000D01*
G75*
G02*
X103530000Y-137835000I0J100000D01*
G01*
X103530000Y-136435000D01*
G75*
G02*
X103630000Y-136335000I100000J0D01*
G01*
G37*
G36*
G01*
X103130000Y-136335000D02*
X103330000Y-136335000D01*
G75*
G02*
X103430000Y-136435000I0J-100000D01*
G01*
X103430000Y-137835000D01*
G75*
G02*
X103330000Y-137935000I-100000J0D01*
G01*
X103130000Y-137935000D01*
G75*
G02*
X103030000Y-137835000I0J100000D01*
G01*
X103030000Y-136435000D01*
G75*
G02*
X103130000Y-136335000I100000J0D01*
G01*
G37*
G36*
G01*
X102630000Y-136335000D02*
X102830000Y-136335000D01*
G75*
G02*
X102930000Y-136435000I0J-100000D01*
G01*
X102930000Y-137835000D01*
G75*
G02*
X102830000Y-137935000I-100000J0D01*
G01*
X102630000Y-137935000D01*
G75*
G02*
X102530000Y-137835000I0J100000D01*
G01*
X102530000Y-136435000D01*
G75*
G02*
X102630000Y-136335000I100000J0D01*
G01*
G37*
G36*
G01*
X102130000Y-136335000D02*
X102330000Y-136335000D01*
G75*
G02*
X102430000Y-136435000I0J-100000D01*
G01*
X102430000Y-137835000D01*
G75*
G02*
X102330000Y-137935000I-100000J0D01*
G01*
X102130000Y-137935000D01*
G75*
G02*
X102030000Y-137835000I0J100000D01*
G01*
X102030000Y-136435000D01*
G75*
G02*
X102130000Y-136335000I100000J0D01*
G01*
G37*
G36*
G01*
X101630000Y-136335000D02*
X101830000Y-136335000D01*
G75*
G02*
X101930000Y-136435000I0J-100000D01*
G01*
X101930000Y-137835000D01*
G75*
G02*
X101830000Y-137935000I-100000J0D01*
G01*
X101630000Y-137935000D01*
G75*
G02*
X101530000Y-137835000I0J100000D01*
G01*
X101530000Y-136435000D01*
G75*
G02*
X101630000Y-136335000I100000J0D01*
G01*
G37*
G36*
G01*
X101130000Y-136335000D02*
X101330000Y-136335000D01*
G75*
G02*
X101430000Y-136435000I0J-100000D01*
G01*
X101430000Y-137835000D01*
G75*
G02*
X101330000Y-137935000I-100000J0D01*
G01*
X101130000Y-137935000D01*
G75*
G02*
X101030000Y-137835000I0J100000D01*
G01*
X101030000Y-136435000D01*
G75*
G02*
X101130000Y-136335000I100000J0D01*
G01*
G37*
G36*
G01*
X100630000Y-136335000D02*
X100830000Y-136335000D01*
G75*
G02*
X100930000Y-136435000I0J-100000D01*
G01*
X100930000Y-137835000D01*
G75*
G02*
X100830000Y-137935000I-100000J0D01*
G01*
X100630000Y-137935000D01*
G75*
G02*
X100530000Y-137835000I0J100000D01*
G01*
X100530000Y-136435000D01*
G75*
G02*
X100630000Y-136335000I100000J0D01*
G01*
G37*
G36*
G01*
X100130000Y-136335000D02*
X100330000Y-136335000D01*
G75*
G02*
X100430000Y-136435000I0J-100000D01*
G01*
X100430000Y-137835000D01*
G75*
G02*
X100330000Y-137935000I-100000J0D01*
G01*
X100130000Y-137935000D01*
G75*
G02*
X100030000Y-137835000I0J100000D01*
G01*
X100030000Y-136435000D01*
G75*
G02*
X100130000Y-136335000I100000J0D01*
G01*
G37*
G36*
G01*
X99630000Y-136335000D02*
X99830000Y-136335000D01*
G75*
G02*
X99930000Y-136435000I0J-100000D01*
G01*
X99930000Y-137835000D01*
G75*
G02*
X99830000Y-137935000I-100000J0D01*
G01*
X99630000Y-137935000D01*
G75*
G02*
X99530000Y-137835000I0J100000D01*
G01*
X99530000Y-136435000D01*
G75*
G02*
X99630000Y-136335000I100000J0D01*
G01*
G37*
G36*
G01*
X99130000Y-136335000D02*
X99330000Y-136335000D01*
G75*
G02*
X99430000Y-136435000I0J-100000D01*
G01*
X99430000Y-137835000D01*
G75*
G02*
X99330000Y-137935000I-100000J0D01*
G01*
X99130000Y-137935000D01*
G75*
G02*
X99030000Y-137835000I0J100000D01*
G01*
X99030000Y-136435000D01*
G75*
G02*
X99130000Y-136335000I100000J0D01*
G01*
G37*
G36*
G01*
X98630000Y-136335000D02*
X98830000Y-136335000D01*
G75*
G02*
X98930000Y-136435000I0J-100000D01*
G01*
X98930000Y-137835000D01*
G75*
G02*
X98830000Y-137935000I-100000J0D01*
G01*
X98630000Y-137935000D01*
G75*
G02*
X98530000Y-137835000I0J100000D01*
G01*
X98530000Y-136435000D01*
G75*
G02*
X98630000Y-136335000I100000J0D01*
G01*
G37*
G36*
G01*
X98130000Y-136335000D02*
X98330000Y-136335000D01*
G75*
G02*
X98430000Y-136435000I0J-100000D01*
G01*
X98430000Y-137835000D01*
G75*
G02*
X98330000Y-137935000I-100000J0D01*
G01*
X98130000Y-137935000D01*
G75*
G02*
X98030000Y-137835000I0J100000D01*
G01*
X98030000Y-136435000D01*
G75*
G02*
X98130000Y-136335000I100000J0D01*
G01*
G37*
G36*
G01*
X97630000Y-136335000D02*
X97830000Y-136335000D01*
G75*
G02*
X97930000Y-136435000I0J-100000D01*
G01*
X97930000Y-137835000D01*
G75*
G02*
X97830000Y-137935000I-100000J0D01*
G01*
X97630000Y-137935000D01*
G75*
G02*
X97530000Y-137835000I0J100000D01*
G01*
X97530000Y-136435000D01*
G75*
G02*
X97630000Y-136335000I100000J0D01*
G01*
G37*
G36*
G01*
X97130000Y-136335000D02*
X97330000Y-136335000D01*
G75*
G02*
X97430000Y-136435000I0J-100000D01*
G01*
X97430000Y-137835000D01*
G75*
G02*
X97330000Y-137935000I-100000J0D01*
G01*
X97130000Y-137935000D01*
G75*
G02*
X97030000Y-137835000I0J100000D01*
G01*
X97030000Y-136435000D01*
G75*
G02*
X97130000Y-136335000I100000J0D01*
G01*
G37*
G36*
G01*
X96630000Y-136335000D02*
X96830000Y-136335000D01*
G75*
G02*
X96930000Y-136435000I0J-100000D01*
G01*
X96930000Y-137835000D01*
G75*
G02*
X96830000Y-137935000I-100000J0D01*
G01*
X96630000Y-137935000D01*
G75*
G02*
X96530000Y-137835000I0J100000D01*
G01*
X96530000Y-136435000D01*
G75*
G02*
X96630000Y-136335000I100000J0D01*
G01*
G37*
G36*
G01*
X96130000Y-136335000D02*
X96330000Y-136335000D01*
G75*
G02*
X96430000Y-136435000I0J-100000D01*
G01*
X96430000Y-137835000D01*
G75*
G02*
X96330000Y-137935000I-100000J0D01*
G01*
X96130000Y-137935000D01*
G75*
G02*
X96030000Y-137835000I0J100000D01*
G01*
X96030000Y-136435000D01*
G75*
G02*
X96130000Y-136335000I100000J0D01*
G01*
G37*
G36*
G01*
X95630000Y-136335000D02*
X95830000Y-136335000D01*
G75*
G02*
X95930000Y-136435000I0J-100000D01*
G01*
X95930000Y-137835000D01*
G75*
G02*
X95830000Y-137935000I-100000J0D01*
G01*
X95630000Y-137935000D01*
G75*
G02*
X95530000Y-137835000I0J100000D01*
G01*
X95530000Y-136435000D01*
G75*
G02*
X95630000Y-136335000I100000J0D01*
G01*
G37*
G36*
G01*
X95130000Y-136335000D02*
X95330000Y-136335000D01*
G75*
G02*
X95430000Y-136435000I0J-100000D01*
G01*
X95430000Y-137835000D01*
G75*
G02*
X95330000Y-137935000I-100000J0D01*
G01*
X95130000Y-137935000D01*
G75*
G02*
X95030000Y-137835000I0J100000D01*
G01*
X95030000Y-136435000D01*
G75*
G02*
X95130000Y-136335000I100000J0D01*
G01*
G37*
G36*
G01*
X94630000Y-136335000D02*
X94830000Y-136335000D01*
G75*
G02*
X94930000Y-136435000I0J-100000D01*
G01*
X94930000Y-137835000D01*
G75*
G02*
X94830000Y-137935000I-100000J0D01*
G01*
X94630000Y-137935000D01*
G75*
G02*
X94530000Y-137835000I0J100000D01*
G01*
X94530000Y-136435000D01*
G75*
G02*
X94630000Y-136335000I100000J0D01*
G01*
G37*
G36*
G01*
X94130000Y-136335000D02*
X94330000Y-136335000D01*
G75*
G02*
X94430000Y-136435000I0J-100000D01*
G01*
X94430000Y-137835000D01*
G75*
G02*
X94330000Y-137935000I-100000J0D01*
G01*
X94130000Y-137935000D01*
G75*
G02*
X94030000Y-137835000I0J100000D01*
G01*
X94030000Y-136435000D01*
G75*
G02*
X94130000Y-136335000I100000J0D01*
G01*
G37*
G36*
G01*
X93630000Y-136335000D02*
X93830000Y-136335000D01*
G75*
G02*
X93930000Y-136435000I0J-100000D01*
G01*
X93930000Y-137835000D01*
G75*
G02*
X93830000Y-137935000I-100000J0D01*
G01*
X93630000Y-137935000D01*
G75*
G02*
X93530000Y-137835000I0J100000D01*
G01*
X93530000Y-136435000D01*
G75*
G02*
X93630000Y-136335000I100000J0D01*
G01*
G37*
G36*
G01*
X93130000Y-136335000D02*
X93330000Y-136335000D01*
G75*
G02*
X93430000Y-136435000I0J-100000D01*
G01*
X93430000Y-137835000D01*
G75*
G02*
X93330000Y-137935000I-100000J0D01*
G01*
X93130000Y-137935000D01*
G75*
G02*
X93030000Y-137835000I0J100000D01*
G01*
X93030000Y-136435000D01*
G75*
G02*
X93130000Y-136335000I100000J0D01*
G01*
G37*
G36*
G01*
X92630000Y-136335000D02*
X92830000Y-136335000D01*
G75*
G02*
X92930000Y-136435000I0J-100000D01*
G01*
X92930000Y-137835000D01*
G75*
G02*
X92830000Y-137935000I-100000J0D01*
G01*
X92630000Y-137935000D01*
G75*
G02*
X92530000Y-137835000I0J100000D01*
G01*
X92530000Y-136435000D01*
G75*
G02*
X92630000Y-136335000I100000J0D01*
G01*
G37*
G36*
G01*
X92130000Y-136335000D02*
X92330000Y-136335000D01*
G75*
G02*
X92430000Y-136435000I0J-100000D01*
G01*
X92430000Y-137835000D01*
G75*
G02*
X92330000Y-137935000I-100000J0D01*
G01*
X92130000Y-137935000D01*
G75*
G02*
X92030000Y-137835000I0J100000D01*
G01*
X92030000Y-136435000D01*
G75*
G02*
X92130000Y-136335000I100000J0D01*
G01*
G37*
G36*
G01*
X91630000Y-136335000D02*
X91830000Y-136335000D01*
G75*
G02*
X91930000Y-136435000I0J-100000D01*
G01*
X91930000Y-137835000D01*
G75*
G02*
X91830000Y-137935000I-100000J0D01*
G01*
X91630000Y-137935000D01*
G75*
G02*
X91530000Y-137835000I0J100000D01*
G01*
X91530000Y-136435000D01*
G75*
G02*
X91630000Y-136335000I100000J0D01*
G01*
G37*
G36*
G01*
X91130000Y-136335000D02*
X91330000Y-136335000D01*
G75*
G02*
X91430000Y-136435000I0J-100000D01*
G01*
X91430000Y-137835000D01*
G75*
G02*
X91330000Y-137935000I-100000J0D01*
G01*
X91130000Y-137935000D01*
G75*
G02*
X91030000Y-137835000I0J100000D01*
G01*
X91030000Y-136435000D01*
G75*
G02*
X91130000Y-136335000I100000J0D01*
G01*
G37*
G36*
G01*
X90630000Y-136335000D02*
X90830000Y-136335000D01*
G75*
G02*
X90930000Y-136435000I0J-100000D01*
G01*
X90930000Y-137835000D01*
G75*
G02*
X90830000Y-137935000I-100000J0D01*
G01*
X90630000Y-137935000D01*
G75*
G02*
X90530000Y-137835000I0J100000D01*
G01*
X90530000Y-136435000D01*
G75*
G02*
X90630000Y-136335000I100000J0D01*
G01*
G37*
G36*
G01*
X90130000Y-136335000D02*
X90330000Y-136335000D01*
G75*
G02*
X90430000Y-136435000I0J-100000D01*
G01*
X90430000Y-137835000D01*
G75*
G02*
X90330000Y-137935000I-100000J0D01*
G01*
X90130000Y-137935000D01*
G75*
G02*
X90030000Y-137835000I0J100000D01*
G01*
X90030000Y-136435000D01*
G75*
G02*
X90130000Y-136335000I100000J0D01*
G01*
G37*
G36*
G01*
X89630000Y-136335000D02*
X89830000Y-136335000D01*
G75*
G02*
X89930000Y-136435000I0J-100000D01*
G01*
X89930000Y-137835000D01*
G75*
G02*
X89830000Y-137935000I-100000J0D01*
G01*
X89630000Y-137935000D01*
G75*
G02*
X89530000Y-137835000I0J100000D01*
G01*
X89530000Y-136435000D01*
G75*
G02*
X89630000Y-136335000I100000J0D01*
G01*
G37*
G36*
G01*
X89130000Y-136335000D02*
X89330000Y-136335000D01*
G75*
G02*
X89430000Y-136435000I0J-100000D01*
G01*
X89430000Y-137835000D01*
G75*
G02*
X89330000Y-137935000I-100000J0D01*
G01*
X89130000Y-137935000D01*
G75*
G02*
X89030000Y-137835000I0J100000D01*
G01*
X89030000Y-136435000D01*
G75*
G02*
X89130000Y-136335000I100000J0D01*
G01*
G37*
G36*
G01*
X88630000Y-136335000D02*
X88830000Y-136335000D01*
G75*
G02*
X88930000Y-136435000I0J-100000D01*
G01*
X88930000Y-137835000D01*
G75*
G02*
X88830000Y-137935000I-100000J0D01*
G01*
X88630000Y-137935000D01*
G75*
G02*
X88530000Y-137835000I0J100000D01*
G01*
X88530000Y-136435000D01*
G75*
G02*
X88630000Y-136335000I100000J0D01*
G01*
G37*
G36*
G01*
X88130000Y-136335000D02*
X88330000Y-136335000D01*
G75*
G02*
X88430000Y-136435000I0J-100000D01*
G01*
X88430000Y-137835000D01*
G75*
G02*
X88330000Y-137935000I-100000J0D01*
G01*
X88130000Y-137935000D01*
G75*
G02*
X88030000Y-137835000I0J100000D01*
G01*
X88030000Y-136435000D01*
G75*
G02*
X88130000Y-136335000I100000J0D01*
G01*
G37*
G36*
G01*
X87630000Y-136335000D02*
X87830000Y-136335000D01*
G75*
G02*
X87930000Y-136435000I0J-100000D01*
G01*
X87930000Y-137835000D01*
G75*
G02*
X87830000Y-137935000I-100000J0D01*
G01*
X87630000Y-137935000D01*
G75*
G02*
X87530000Y-137835000I0J100000D01*
G01*
X87530000Y-136435000D01*
G75*
G02*
X87630000Y-136335000I100000J0D01*
G01*
G37*
G36*
G01*
X87130000Y-136335000D02*
X87330000Y-136335000D01*
G75*
G02*
X87430000Y-136435000I0J-100000D01*
G01*
X87430000Y-137835000D01*
G75*
G02*
X87330000Y-137935000I-100000J0D01*
G01*
X87130000Y-137935000D01*
G75*
G02*
X87030000Y-137835000I0J100000D01*
G01*
X87030000Y-136435000D01*
G75*
G02*
X87130000Y-136335000I100000J0D01*
G01*
G37*
G36*
G01*
X86630000Y-136335000D02*
X86830000Y-136335000D01*
G75*
G02*
X86930000Y-136435000I0J-100000D01*
G01*
X86930000Y-137835000D01*
G75*
G02*
X86830000Y-137935000I-100000J0D01*
G01*
X86630000Y-137935000D01*
G75*
G02*
X86530000Y-137835000I0J100000D01*
G01*
X86530000Y-136435000D01*
G75*
G02*
X86630000Y-136335000I100000J0D01*
G01*
G37*
G36*
G01*
X86130000Y-136335000D02*
X86330000Y-136335000D01*
G75*
G02*
X86430000Y-136435000I0J-100000D01*
G01*
X86430000Y-137835000D01*
G75*
G02*
X86330000Y-137935000I-100000J0D01*
G01*
X86130000Y-137935000D01*
G75*
G02*
X86030000Y-137835000I0J100000D01*
G01*
X86030000Y-136435000D01*
G75*
G02*
X86130000Y-136335000I100000J0D01*
G01*
G37*
G36*
G01*
X85630000Y-136335000D02*
X85830000Y-136335000D01*
G75*
G02*
X85930000Y-136435000I0J-100000D01*
G01*
X85930000Y-137835000D01*
G75*
G02*
X85830000Y-137935000I-100000J0D01*
G01*
X85630000Y-137935000D01*
G75*
G02*
X85530000Y-137835000I0J100000D01*
G01*
X85530000Y-136435000D01*
G75*
G02*
X85630000Y-136335000I100000J0D01*
G01*
G37*
G36*
G01*
X85130000Y-136335000D02*
X85330000Y-136335000D01*
G75*
G02*
X85430000Y-136435000I0J-100000D01*
G01*
X85430000Y-137835000D01*
G75*
G02*
X85330000Y-137935000I-100000J0D01*
G01*
X85130000Y-137935000D01*
G75*
G02*
X85030000Y-137835000I0J100000D01*
G01*
X85030000Y-136435000D01*
G75*
G02*
X85130000Y-136335000I100000J0D01*
G01*
G37*
G36*
G01*
X84630000Y-136335000D02*
X84830000Y-136335000D01*
G75*
G02*
X84930000Y-136435000I0J-100000D01*
G01*
X84930000Y-137835000D01*
G75*
G02*
X84830000Y-137935000I-100000J0D01*
G01*
X84630000Y-137935000D01*
G75*
G02*
X84530000Y-137835000I0J100000D01*
G01*
X84530000Y-136435000D01*
G75*
G02*
X84630000Y-136335000I100000J0D01*
G01*
G37*
G36*
G01*
X84130000Y-136335000D02*
X84330000Y-136335000D01*
G75*
G02*
X84430000Y-136435000I0J-100000D01*
G01*
X84430000Y-137835000D01*
G75*
G02*
X84330000Y-137935000I-100000J0D01*
G01*
X84130000Y-137935000D01*
G75*
G02*
X84030000Y-137835000I0J100000D01*
G01*
X84030000Y-136435000D01*
G75*
G02*
X84130000Y-136335000I100000J0D01*
G01*
G37*
G36*
G01*
X83630000Y-136335000D02*
X83830000Y-136335000D01*
G75*
G02*
X83930000Y-136435000I0J-100000D01*
G01*
X83930000Y-137835000D01*
G75*
G02*
X83830000Y-137935000I-100000J0D01*
G01*
X83630000Y-137935000D01*
G75*
G02*
X83530000Y-137835000I0J100000D01*
G01*
X83530000Y-136435000D01*
G75*
G02*
X83630000Y-136335000I100000J0D01*
G01*
G37*
G36*
G01*
X83130000Y-136335000D02*
X83330000Y-136335000D01*
G75*
G02*
X83430000Y-136435000I0J-100000D01*
G01*
X83430000Y-137835000D01*
G75*
G02*
X83330000Y-137935000I-100000J0D01*
G01*
X83130000Y-137935000D01*
G75*
G02*
X83030000Y-137835000I0J100000D01*
G01*
X83030000Y-136435000D01*
G75*
G02*
X83130000Y-136335000I100000J0D01*
G01*
G37*
G36*
G01*
X80605000Y-135010000D02*
X82005000Y-135010000D01*
G75*
G02*
X82105000Y-135110000I0J-100000D01*
G01*
X82105000Y-135310000D01*
G75*
G02*
X82005000Y-135410000I-100000J0D01*
G01*
X80605000Y-135410000D01*
G75*
G02*
X80505000Y-135310000I0J100000D01*
G01*
X80505000Y-135110000D01*
G75*
G02*
X80605000Y-135010000I100000J0D01*
G01*
G37*
G36*
G01*
X80605000Y-134510000D02*
X82005000Y-134510000D01*
G75*
G02*
X82105000Y-134610000I0J-100000D01*
G01*
X82105000Y-134810000D01*
G75*
G02*
X82005000Y-134910000I-100000J0D01*
G01*
X80605000Y-134910000D01*
G75*
G02*
X80505000Y-134810000I0J100000D01*
G01*
X80505000Y-134610000D01*
G75*
G02*
X80605000Y-134510000I100000J0D01*
G01*
G37*
G36*
G01*
X80605000Y-134010000D02*
X82005000Y-134010000D01*
G75*
G02*
X82105000Y-134110000I0J-100000D01*
G01*
X82105000Y-134310000D01*
G75*
G02*
X82005000Y-134410000I-100000J0D01*
G01*
X80605000Y-134410000D01*
G75*
G02*
X80505000Y-134310000I0J100000D01*
G01*
X80505000Y-134110000D01*
G75*
G02*
X80605000Y-134010000I100000J0D01*
G01*
G37*
G36*
G01*
X80605000Y-133510000D02*
X82005000Y-133510000D01*
G75*
G02*
X82105000Y-133610000I0J-100000D01*
G01*
X82105000Y-133810000D01*
G75*
G02*
X82005000Y-133910000I-100000J0D01*
G01*
X80605000Y-133910000D01*
G75*
G02*
X80505000Y-133810000I0J100000D01*
G01*
X80505000Y-133610000D01*
G75*
G02*
X80605000Y-133510000I100000J0D01*
G01*
G37*
G36*
G01*
X80605000Y-133010000D02*
X82005000Y-133010000D01*
G75*
G02*
X82105000Y-133110000I0J-100000D01*
G01*
X82105000Y-133310000D01*
G75*
G02*
X82005000Y-133410000I-100000J0D01*
G01*
X80605000Y-133410000D01*
G75*
G02*
X80505000Y-133310000I0J100000D01*
G01*
X80505000Y-133110000D01*
G75*
G02*
X80605000Y-133010000I100000J0D01*
G01*
G37*
G36*
G01*
X80605000Y-132510000D02*
X82005000Y-132510000D01*
G75*
G02*
X82105000Y-132610000I0J-100000D01*
G01*
X82105000Y-132810000D01*
G75*
G02*
X82005000Y-132910000I-100000J0D01*
G01*
X80605000Y-132910000D01*
G75*
G02*
X80505000Y-132810000I0J100000D01*
G01*
X80505000Y-132610000D01*
G75*
G02*
X80605000Y-132510000I100000J0D01*
G01*
G37*
G36*
G01*
X80605000Y-132010000D02*
X82005000Y-132010000D01*
G75*
G02*
X82105000Y-132110000I0J-100000D01*
G01*
X82105000Y-132310000D01*
G75*
G02*
X82005000Y-132410000I-100000J0D01*
G01*
X80605000Y-132410000D01*
G75*
G02*
X80505000Y-132310000I0J100000D01*
G01*
X80505000Y-132110000D01*
G75*
G02*
X80605000Y-132010000I100000J0D01*
G01*
G37*
G36*
G01*
X80605000Y-131510000D02*
X82005000Y-131510000D01*
G75*
G02*
X82105000Y-131610000I0J-100000D01*
G01*
X82105000Y-131810000D01*
G75*
G02*
X82005000Y-131910000I-100000J0D01*
G01*
X80605000Y-131910000D01*
G75*
G02*
X80505000Y-131810000I0J100000D01*
G01*
X80505000Y-131610000D01*
G75*
G02*
X80605000Y-131510000I100000J0D01*
G01*
G37*
G36*
G01*
X80605000Y-131010000D02*
X82005000Y-131010000D01*
G75*
G02*
X82105000Y-131110000I0J-100000D01*
G01*
X82105000Y-131310000D01*
G75*
G02*
X82005000Y-131410000I-100000J0D01*
G01*
X80605000Y-131410000D01*
G75*
G02*
X80505000Y-131310000I0J100000D01*
G01*
X80505000Y-131110000D01*
G75*
G02*
X80605000Y-131010000I100000J0D01*
G01*
G37*
G36*
G01*
X80605000Y-130510000D02*
X82005000Y-130510000D01*
G75*
G02*
X82105000Y-130610000I0J-100000D01*
G01*
X82105000Y-130810000D01*
G75*
G02*
X82005000Y-130910000I-100000J0D01*
G01*
X80605000Y-130910000D01*
G75*
G02*
X80505000Y-130810000I0J100000D01*
G01*
X80505000Y-130610000D01*
G75*
G02*
X80605000Y-130510000I100000J0D01*
G01*
G37*
G36*
G01*
X80605000Y-130010000D02*
X82005000Y-130010000D01*
G75*
G02*
X82105000Y-130110000I0J-100000D01*
G01*
X82105000Y-130310000D01*
G75*
G02*
X82005000Y-130410000I-100000J0D01*
G01*
X80605000Y-130410000D01*
G75*
G02*
X80505000Y-130310000I0J100000D01*
G01*
X80505000Y-130110000D01*
G75*
G02*
X80605000Y-130010000I100000J0D01*
G01*
G37*
G36*
G01*
X80605000Y-129510000D02*
X82005000Y-129510000D01*
G75*
G02*
X82105000Y-129610000I0J-100000D01*
G01*
X82105000Y-129810000D01*
G75*
G02*
X82005000Y-129910000I-100000J0D01*
G01*
X80605000Y-129910000D01*
G75*
G02*
X80505000Y-129810000I0J100000D01*
G01*
X80505000Y-129610000D01*
G75*
G02*
X80605000Y-129510000I100000J0D01*
G01*
G37*
G36*
G01*
X80605000Y-129010000D02*
X82005000Y-129010000D01*
G75*
G02*
X82105000Y-129110000I0J-100000D01*
G01*
X82105000Y-129310000D01*
G75*
G02*
X82005000Y-129410000I-100000J0D01*
G01*
X80605000Y-129410000D01*
G75*
G02*
X80505000Y-129310000I0J100000D01*
G01*
X80505000Y-129110000D01*
G75*
G02*
X80605000Y-129010000I100000J0D01*
G01*
G37*
G36*
G01*
X80605000Y-128510000D02*
X82005000Y-128510000D01*
G75*
G02*
X82105000Y-128610000I0J-100000D01*
G01*
X82105000Y-128810000D01*
G75*
G02*
X82005000Y-128910000I-100000J0D01*
G01*
X80605000Y-128910000D01*
G75*
G02*
X80505000Y-128810000I0J100000D01*
G01*
X80505000Y-128610000D01*
G75*
G02*
X80605000Y-128510000I100000J0D01*
G01*
G37*
G36*
G01*
X80605000Y-128010000D02*
X82005000Y-128010000D01*
G75*
G02*
X82105000Y-128110000I0J-100000D01*
G01*
X82105000Y-128310000D01*
G75*
G02*
X82005000Y-128410000I-100000J0D01*
G01*
X80605000Y-128410000D01*
G75*
G02*
X80505000Y-128310000I0J100000D01*
G01*
X80505000Y-128110000D01*
G75*
G02*
X80605000Y-128010000I100000J0D01*
G01*
G37*
G36*
G01*
X80605000Y-127510000D02*
X82005000Y-127510000D01*
G75*
G02*
X82105000Y-127610000I0J-100000D01*
G01*
X82105000Y-127810000D01*
G75*
G02*
X82005000Y-127910000I-100000J0D01*
G01*
X80605000Y-127910000D01*
G75*
G02*
X80505000Y-127810000I0J100000D01*
G01*
X80505000Y-127610000D01*
G75*
G02*
X80605000Y-127510000I100000J0D01*
G01*
G37*
G36*
G01*
X80605000Y-127010000D02*
X82005000Y-127010000D01*
G75*
G02*
X82105000Y-127110000I0J-100000D01*
G01*
X82105000Y-127310000D01*
G75*
G02*
X82005000Y-127410000I-100000J0D01*
G01*
X80605000Y-127410000D01*
G75*
G02*
X80505000Y-127310000I0J100000D01*
G01*
X80505000Y-127110000D01*
G75*
G02*
X80605000Y-127010000I100000J0D01*
G01*
G37*
G36*
G01*
X80605000Y-126510000D02*
X82005000Y-126510000D01*
G75*
G02*
X82105000Y-126610000I0J-100000D01*
G01*
X82105000Y-126810000D01*
G75*
G02*
X82005000Y-126910000I-100000J0D01*
G01*
X80605000Y-126910000D01*
G75*
G02*
X80505000Y-126810000I0J100000D01*
G01*
X80505000Y-126610000D01*
G75*
G02*
X80605000Y-126510000I100000J0D01*
G01*
G37*
G36*
G01*
X80605000Y-126010000D02*
X82005000Y-126010000D01*
G75*
G02*
X82105000Y-126110000I0J-100000D01*
G01*
X82105000Y-126310000D01*
G75*
G02*
X82005000Y-126410000I-100000J0D01*
G01*
X80605000Y-126410000D01*
G75*
G02*
X80505000Y-126310000I0J100000D01*
G01*
X80505000Y-126110000D01*
G75*
G02*
X80605000Y-126010000I100000J0D01*
G01*
G37*
G36*
G01*
X80605000Y-125510000D02*
X82005000Y-125510000D01*
G75*
G02*
X82105000Y-125610000I0J-100000D01*
G01*
X82105000Y-125810000D01*
G75*
G02*
X82005000Y-125910000I-100000J0D01*
G01*
X80605000Y-125910000D01*
G75*
G02*
X80505000Y-125810000I0J100000D01*
G01*
X80505000Y-125610000D01*
G75*
G02*
X80605000Y-125510000I100000J0D01*
G01*
G37*
G36*
G01*
X80605000Y-125010000D02*
X82005000Y-125010000D01*
G75*
G02*
X82105000Y-125110000I0J-100000D01*
G01*
X82105000Y-125310000D01*
G75*
G02*
X82005000Y-125410000I-100000J0D01*
G01*
X80605000Y-125410000D01*
G75*
G02*
X80505000Y-125310000I0J100000D01*
G01*
X80505000Y-125110000D01*
G75*
G02*
X80605000Y-125010000I100000J0D01*
G01*
G37*
G36*
G01*
X80605000Y-124510000D02*
X82005000Y-124510000D01*
G75*
G02*
X82105000Y-124610000I0J-100000D01*
G01*
X82105000Y-124810000D01*
G75*
G02*
X82005000Y-124910000I-100000J0D01*
G01*
X80605000Y-124910000D01*
G75*
G02*
X80505000Y-124810000I0J100000D01*
G01*
X80505000Y-124610000D01*
G75*
G02*
X80605000Y-124510000I100000J0D01*
G01*
G37*
G36*
G01*
X80605000Y-124010000D02*
X82005000Y-124010000D01*
G75*
G02*
X82105000Y-124110000I0J-100000D01*
G01*
X82105000Y-124310000D01*
G75*
G02*
X82005000Y-124410000I-100000J0D01*
G01*
X80605000Y-124410000D01*
G75*
G02*
X80505000Y-124310000I0J100000D01*
G01*
X80505000Y-124110000D01*
G75*
G02*
X80605000Y-124010000I100000J0D01*
G01*
G37*
G36*
G01*
X80605000Y-123510000D02*
X82005000Y-123510000D01*
G75*
G02*
X82105000Y-123610000I0J-100000D01*
G01*
X82105000Y-123810000D01*
G75*
G02*
X82005000Y-123910000I-100000J0D01*
G01*
X80605000Y-123910000D01*
G75*
G02*
X80505000Y-123810000I0J100000D01*
G01*
X80505000Y-123610000D01*
G75*
G02*
X80605000Y-123510000I100000J0D01*
G01*
G37*
G36*
G01*
X80605000Y-123010000D02*
X82005000Y-123010000D01*
G75*
G02*
X82105000Y-123110000I0J-100000D01*
G01*
X82105000Y-123310000D01*
G75*
G02*
X82005000Y-123410000I-100000J0D01*
G01*
X80605000Y-123410000D01*
G75*
G02*
X80505000Y-123310000I0J100000D01*
G01*
X80505000Y-123110000D01*
G75*
G02*
X80605000Y-123010000I100000J0D01*
G01*
G37*
G36*
G01*
X80605000Y-122510000D02*
X82005000Y-122510000D01*
G75*
G02*
X82105000Y-122610000I0J-100000D01*
G01*
X82105000Y-122810000D01*
G75*
G02*
X82005000Y-122910000I-100000J0D01*
G01*
X80605000Y-122910000D01*
G75*
G02*
X80505000Y-122810000I0J100000D01*
G01*
X80505000Y-122610000D01*
G75*
G02*
X80605000Y-122510000I100000J0D01*
G01*
G37*
G36*
G01*
X80605000Y-122010000D02*
X82005000Y-122010000D01*
G75*
G02*
X82105000Y-122110000I0J-100000D01*
G01*
X82105000Y-122310000D01*
G75*
G02*
X82005000Y-122410000I-100000J0D01*
G01*
X80605000Y-122410000D01*
G75*
G02*
X80505000Y-122310000I0J100000D01*
G01*
X80505000Y-122110000D01*
G75*
G02*
X80605000Y-122010000I100000J0D01*
G01*
G37*
G36*
G01*
X80605000Y-121510000D02*
X82005000Y-121510000D01*
G75*
G02*
X82105000Y-121610000I0J-100000D01*
G01*
X82105000Y-121810000D01*
G75*
G02*
X82005000Y-121910000I-100000J0D01*
G01*
X80605000Y-121910000D01*
G75*
G02*
X80505000Y-121810000I0J100000D01*
G01*
X80505000Y-121610000D01*
G75*
G02*
X80605000Y-121510000I100000J0D01*
G01*
G37*
G36*
G01*
X80605000Y-121010000D02*
X82005000Y-121010000D01*
G75*
G02*
X82105000Y-121110000I0J-100000D01*
G01*
X82105000Y-121310000D01*
G75*
G02*
X82005000Y-121410000I-100000J0D01*
G01*
X80605000Y-121410000D01*
G75*
G02*
X80505000Y-121310000I0J100000D01*
G01*
X80505000Y-121110000D01*
G75*
G02*
X80605000Y-121010000I100000J0D01*
G01*
G37*
G36*
G01*
X80605000Y-120510000D02*
X82005000Y-120510000D01*
G75*
G02*
X82105000Y-120610000I0J-100000D01*
G01*
X82105000Y-120810000D01*
G75*
G02*
X82005000Y-120910000I-100000J0D01*
G01*
X80605000Y-120910000D01*
G75*
G02*
X80505000Y-120810000I0J100000D01*
G01*
X80505000Y-120610000D01*
G75*
G02*
X80605000Y-120510000I100000J0D01*
G01*
G37*
G36*
G01*
X80605000Y-120010000D02*
X82005000Y-120010000D01*
G75*
G02*
X82105000Y-120110000I0J-100000D01*
G01*
X82105000Y-120310000D01*
G75*
G02*
X82005000Y-120410000I-100000J0D01*
G01*
X80605000Y-120410000D01*
G75*
G02*
X80505000Y-120310000I0J100000D01*
G01*
X80505000Y-120110000D01*
G75*
G02*
X80605000Y-120010000I100000J0D01*
G01*
G37*
G36*
G01*
X80605000Y-119510000D02*
X82005000Y-119510000D01*
G75*
G02*
X82105000Y-119610000I0J-100000D01*
G01*
X82105000Y-119810000D01*
G75*
G02*
X82005000Y-119910000I-100000J0D01*
G01*
X80605000Y-119910000D01*
G75*
G02*
X80505000Y-119810000I0J100000D01*
G01*
X80505000Y-119610000D01*
G75*
G02*
X80605000Y-119510000I100000J0D01*
G01*
G37*
G36*
G01*
X80605000Y-119010000D02*
X82005000Y-119010000D01*
G75*
G02*
X82105000Y-119110000I0J-100000D01*
G01*
X82105000Y-119310000D01*
G75*
G02*
X82005000Y-119410000I-100000J0D01*
G01*
X80605000Y-119410000D01*
G75*
G02*
X80505000Y-119310000I0J100000D01*
G01*
X80505000Y-119110000D01*
G75*
G02*
X80605000Y-119010000I100000J0D01*
G01*
G37*
G36*
G01*
X80605000Y-118510000D02*
X82005000Y-118510000D01*
G75*
G02*
X82105000Y-118610000I0J-100000D01*
G01*
X82105000Y-118810000D01*
G75*
G02*
X82005000Y-118910000I-100000J0D01*
G01*
X80605000Y-118910000D01*
G75*
G02*
X80505000Y-118810000I0J100000D01*
G01*
X80505000Y-118610000D01*
G75*
G02*
X80605000Y-118510000I100000J0D01*
G01*
G37*
G36*
G01*
X80605000Y-118010000D02*
X82005000Y-118010000D01*
G75*
G02*
X82105000Y-118110000I0J-100000D01*
G01*
X82105000Y-118310000D01*
G75*
G02*
X82005000Y-118410000I-100000J0D01*
G01*
X80605000Y-118410000D01*
G75*
G02*
X80505000Y-118310000I0J100000D01*
G01*
X80505000Y-118110000D01*
G75*
G02*
X80605000Y-118010000I100000J0D01*
G01*
G37*
G36*
G01*
X80605000Y-117510000D02*
X82005000Y-117510000D01*
G75*
G02*
X82105000Y-117610000I0J-100000D01*
G01*
X82105000Y-117810000D01*
G75*
G02*
X82005000Y-117910000I-100000J0D01*
G01*
X80605000Y-117910000D01*
G75*
G02*
X80505000Y-117810000I0J100000D01*
G01*
X80505000Y-117610000D01*
G75*
G02*
X80605000Y-117510000I100000J0D01*
G01*
G37*
G36*
G01*
X80605000Y-117010000D02*
X82005000Y-117010000D01*
G75*
G02*
X82105000Y-117110000I0J-100000D01*
G01*
X82105000Y-117310000D01*
G75*
G02*
X82005000Y-117410000I-100000J0D01*
G01*
X80605000Y-117410000D01*
G75*
G02*
X80505000Y-117310000I0J100000D01*
G01*
X80505000Y-117110000D01*
G75*
G02*
X80605000Y-117010000I100000J0D01*
G01*
G37*
G36*
G01*
X80605000Y-116510000D02*
X82005000Y-116510000D01*
G75*
G02*
X82105000Y-116610000I0J-100000D01*
G01*
X82105000Y-116810000D01*
G75*
G02*
X82005000Y-116910000I-100000J0D01*
G01*
X80605000Y-116910000D01*
G75*
G02*
X80505000Y-116810000I0J100000D01*
G01*
X80505000Y-116610000D01*
G75*
G02*
X80605000Y-116510000I100000J0D01*
G01*
G37*
G36*
G01*
X80605000Y-116010000D02*
X82005000Y-116010000D01*
G75*
G02*
X82105000Y-116110000I0J-100000D01*
G01*
X82105000Y-116310000D01*
G75*
G02*
X82005000Y-116410000I-100000J0D01*
G01*
X80605000Y-116410000D01*
G75*
G02*
X80505000Y-116310000I0J100000D01*
G01*
X80505000Y-116110000D01*
G75*
G02*
X80605000Y-116010000I100000J0D01*
G01*
G37*
G36*
G01*
X80605000Y-115510000D02*
X82005000Y-115510000D01*
G75*
G02*
X82105000Y-115610000I0J-100000D01*
G01*
X82105000Y-115810000D01*
G75*
G02*
X82005000Y-115910000I-100000J0D01*
G01*
X80605000Y-115910000D01*
G75*
G02*
X80505000Y-115810000I0J100000D01*
G01*
X80505000Y-115610000D01*
G75*
G02*
X80605000Y-115510000I100000J0D01*
G01*
G37*
G36*
G01*
X80605000Y-115010000D02*
X82005000Y-115010000D01*
G75*
G02*
X82105000Y-115110000I0J-100000D01*
G01*
X82105000Y-115310000D01*
G75*
G02*
X82005000Y-115410000I-100000J0D01*
G01*
X80605000Y-115410000D01*
G75*
G02*
X80505000Y-115310000I0J100000D01*
G01*
X80505000Y-115110000D01*
G75*
G02*
X80605000Y-115010000I100000J0D01*
G01*
G37*
G36*
G01*
X80605000Y-114510000D02*
X82005000Y-114510000D01*
G75*
G02*
X82105000Y-114610000I0J-100000D01*
G01*
X82105000Y-114810000D01*
G75*
G02*
X82005000Y-114910000I-100000J0D01*
G01*
X80605000Y-114910000D01*
G75*
G02*
X80505000Y-114810000I0J100000D01*
G01*
X80505000Y-114610000D01*
G75*
G02*
X80605000Y-114510000I100000J0D01*
G01*
G37*
G36*
G01*
X80605000Y-114010000D02*
X82005000Y-114010000D01*
G75*
G02*
X82105000Y-114110000I0J-100000D01*
G01*
X82105000Y-114310000D01*
G75*
G02*
X82005000Y-114410000I-100000J0D01*
G01*
X80605000Y-114410000D01*
G75*
G02*
X80505000Y-114310000I0J100000D01*
G01*
X80505000Y-114110000D01*
G75*
G02*
X80605000Y-114010000I100000J0D01*
G01*
G37*
G36*
G01*
X80605000Y-113510000D02*
X82005000Y-113510000D01*
G75*
G02*
X82105000Y-113610000I0J-100000D01*
G01*
X82105000Y-113810000D01*
G75*
G02*
X82005000Y-113910000I-100000J0D01*
G01*
X80605000Y-113910000D01*
G75*
G02*
X80505000Y-113810000I0J100000D01*
G01*
X80505000Y-113610000D01*
G75*
G02*
X80605000Y-113510000I100000J0D01*
G01*
G37*
G36*
G01*
X83130000Y-110985000D02*
X83330000Y-110985000D01*
G75*
G02*
X83430000Y-111085000I0J-100000D01*
G01*
X83430000Y-112485000D01*
G75*
G02*
X83330000Y-112585000I-100000J0D01*
G01*
X83130000Y-112585000D01*
G75*
G02*
X83030000Y-112485000I0J100000D01*
G01*
X83030000Y-111085000D01*
G75*
G02*
X83130000Y-110985000I100000J0D01*
G01*
G37*
G36*
G01*
X83630000Y-110985000D02*
X83830000Y-110985000D01*
G75*
G02*
X83930000Y-111085000I0J-100000D01*
G01*
X83930000Y-112485000D01*
G75*
G02*
X83830000Y-112585000I-100000J0D01*
G01*
X83630000Y-112585000D01*
G75*
G02*
X83530000Y-112485000I0J100000D01*
G01*
X83530000Y-111085000D01*
G75*
G02*
X83630000Y-110985000I100000J0D01*
G01*
G37*
G36*
G01*
X84130000Y-110985000D02*
X84330000Y-110985000D01*
G75*
G02*
X84430000Y-111085000I0J-100000D01*
G01*
X84430000Y-112485000D01*
G75*
G02*
X84330000Y-112585000I-100000J0D01*
G01*
X84130000Y-112585000D01*
G75*
G02*
X84030000Y-112485000I0J100000D01*
G01*
X84030000Y-111085000D01*
G75*
G02*
X84130000Y-110985000I100000J0D01*
G01*
G37*
G36*
G01*
X84630000Y-110985000D02*
X84830000Y-110985000D01*
G75*
G02*
X84930000Y-111085000I0J-100000D01*
G01*
X84930000Y-112485000D01*
G75*
G02*
X84830000Y-112585000I-100000J0D01*
G01*
X84630000Y-112585000D01*
G75*
G02*
X84530000Y-112485000I0J100000D01*
G01*
X84530000Y-111085000D01*
G75*
G02*
X84630000Y-110985000I100000J0D01*
G01*
G37*
G36*
G01*
X85130000Y-110985000D02*
X85330000Y-110985000D01*
G75*
G02*
X85430000Y-111085000I0J-100000D01*
G01*
X85430000Y-112485000D01*
G75*
G02*
X85330000Y-112585000I-100000J0D01*
G01*
X85130000Y-112585000D01*
G75*
G02*
X85030000Y-112485000I0J100000D01*
G01*
X85030000Y-111085000D01*
G75*
G02*
X85130000Y-110985000I100000J0D01*
G01*
G37*
G36*
G01*
X85630000Y-110985000D02*
X85830000Y-110985000D01*
G75*
G02*
X85930000Y-111085000I0J-100000D01*
G01*
X85930000Y-112485000D01*
G75*
G02*
X85830000Y-112585000I-100000J0D01*
G01*
X85630000Y-112585000D01*
G75*
G02*
X85530000Y-112485000I0J100000D01*
G01*
X85530000Y-111085000D01*
G75*
G02*
X85630000Y-110985000I100000J0D01*
G01*
G37*
G36*
G01*
X86130000Y-110985000D02*
X86330000Y-110985000D01*
G75*
G02*
X86430000Y-111085000I0J-100000D01*
G01*
X86430000Y-112485000D01*
G75*
G02*
X86330000Y-112585000I-100000J0D01*
G01*
X86130000Y-112585000D01*
G75*
G02*
X86030000Y-112485000I0J100000D01*
G01*
X86030000Y-111085000D01*
G75*
G02*
X86130000Y-110985000I100000J0D01*
G01*
G37*
G36*
G01*
X86630000Y-110985000D02*
X86830000Y-110985000D01*
G75*
G02*
X86930000Y-111085000I0J-100000D01*
G01*
X86930000Y-112485000D01*
G75*
G02*
X86830000Y-112585000I-100000J0D01*
G01*
X86630000Y-112585000D01*
G75*
G02*
X86530000Y-112485000I0J100000D01*
G01*
X86530000Y-111085000D01*
G75*
G02*
X86630000Y-110985000I100000J0D01*
G01*
G37*
G36*
G01*
X87130000Y-110985000D02*
X87330000Y-110985000D01*
G75*
G02*
X87430000Y-111085000I0J-100000D01*
G01*
X87430000Y-112485000D01*
G75*
G02*
X87330000Y-112585000I-100000J0D01*
G01*
X87130000Y-112585000D01*
G75*
G02*
X87030000Y-112485000I0J100000D01*
G01*
X87030000Y-111085000D01*
G75*
G02*
X87130000Y-110985000I100000J0D01*
G01*
G37*
G36*
G01*
X87630000Y-110985000D02*
X87830000Y-110985000D01*
G75*
G02*
X87930000Y-111085000I0J-100000D01*
G01*
X87930000Y-112485000D01*
G75*
G02*
X87830000Y-112585000I-100000J0D01*
G01*
X87630000Y-112585000D01*
G75*
G02*
X87530000Y-112485000I0J100000D01*
G01*
X87530000Y-111085000D01*
G75*
G02*
X87630000Y-110985000I100000J0D01*
G01*
G37*
G36*
G01*
X88130000Y-110985000D02*
X88330000Y-110985000D01*
G75*
G02*
X88430000Y-111085000I0J-100000D01*
G01*
X88430000Y-112485000D01*
G75*
G02*
X88330000Y-112585000I-100000J0D01*
G01*
X88130000Y-112585000D01*
G75*
G02*
X88030000Y-112485000I0J100000D01*
G01*
X88030000Y-111085000D01*
G75*
G02*
X88130000Y-110985000I100000J0D01*
G01*
G37*
G36*
G01*
X88630000Y-110985000D02*
X88830000Y-110985000D01*
G75*
G02*
X88930000Y-111085000I0J-100000D01*
G01*
X88930000Y-112485000D01*
G75*
G02*
X88830000Y-112585000I-100000J0D01*
G01*
X88630000Y-112585000D01*
G75*
G02*
X88530000Y-112485000I0J100000D01*
G01*
X88530000Y-111085000D01*
G75*
G02*
X88630000Y-110985000I100000J0D01*
G01*
G37*
G36*
G01*
X89130000Y-110985000D02*
X89330000Y-110985000D01*
G75*
G02*
X89430000Y-111085000I0J-100000D01*
G01*
X89430000Y-112485000D01*
G75*
G02*
X89330000Y-112585000I-100000J0D01*
G01*
X89130000Y-112585000D01*
G75*
G02*
X89030000Y-112485000I0J100000D01*
G01*
X89030000Y-111085000D01*
G75*
G02*
X89130000Y-110985000I100000J0D01*
G01*
G37*
G36*
G01*
X89630000Y-110985000D02*
X89830000Y-110985000D01*
G75*
G02*
X89930000Y-111085000I0J-100000D01*
G01*
X89930000Y-112485000D01*
G75*
G02*
X89830000Y-112585000I-100000J0D01*
G01*
X89630000Y-112585000D01*
G75*
G02*
X89530000Y-112485000I0J100000D01*
G01*
X89530000Y-111085000D01*
G75*
G02*
X89630000Y-110985000I100000J0D01*
G01*
G37*
G36*
G01*
X90130000Y-110985000D02*
X90330000Y-110985000D01*
G75*
G02*
X90430000Y-111085000I0J-100000D01*
G01*
X90430000Y-112485000D01*
G75*
G02*
X90330000Y-112585000I-100000J0D01*
G01*
X90130000Y-112585000D01*
G75*
G02*
X90030000Y-112485000I0J100000D01*
G01*
X90030000Y-111085000D01*
G75*
G02*
X90130000Y-110985000I100000J0D01*
G01*
G37*
G36*
G01*
X90630000Y-110985000D02*
X90830000Y-110985000D01*
G75*
G02*
X90930000Y-111085000I0J-100000D01*
G01*
X90930000Y-112485000D01*
G75*
G02*
X90830000Y-112585000I-100000J0D01*
G01*
X90630000Y-112585000D01*
G75*
G02*
X90530000Y-112485000I0J100000D01*
G01*
X90530000Y-111085000D01*
G75*
G02*
X90630000Y-110985000I100000J0D01*
G01*
G37*
G36*
G01*
X91130000Y-110985000D02*
X91330000Y-110985000D01*
G75*
G02*
X91430000Y-111085000I0J-100000D01*
G01*
X91430000Y-112485000D01*
G75*
G02*
X91330000Y-112585000I-100000J0D01*
G01*
X91130000Y-112585000D01*
G75*
G02*
X91030000Y-112485000I0J100000D01*
G01*
X91030000Y-111085000D01*
G75*
G02*
X91130000Y-110985000I100000J0D01*
G01*
G37*
G36*
G01*
X91630000Y-110985000D02*
X91830000Y-110985000D01*
G75*
G02*
X91930000Y-111085000I0J-100000D01*
G01*
X91930000Y-112485000D01*
G75*
G02*
X91830000Y-112585000I-100000J0D01*
G01*
X91630000Y-112585000D01*
G75*
G02*
X91530000Y-112485000I0J100000D01*
G01*
X91530000Y-111085000D01*
G75*
G02*
X91630000Y-110985000I100000J0D01*
G01*
G37*
G36*
G01*
X92130000Y-110985000D02*
X92330000Y-110985000D01*
G75*
G02*
X92430000Y-111085000I0J-100000D01*
G01*
X92430000Y-112485000D01*
G75*
G02*
X92330000Y-112585000I-100000J0D01*
G01*
X92130000Y-112585000D01*
G75*
G02*
X92030000Y-112485000I0J100000D01*
G01*
X92030000Y-111085000D01*
G75*
G02*
X92130000Y-110985000I100000J0D01*
G01*
G37*
G36*
G01*
X92630000Y-110985000D02*
X92830000Y-110985000D01*
G75*
G02*
X92930000Y-111085000I0J-100000D01*
G01*
X92930000Y-112485000D01*
G75*
G02*
X92830000Y-112585000I-100000J0D01*
G01*
X92630000Y-112585000D01*
G75*
G02*
X92530000Y-112485000I0J100000D01*
G01*
X92530000Y-111085000D01*
G75*
G02*
X92630000Y-110985000I100000J0D01*
G01*
G37*
G36*
G01*
X93130000Y-110985000D02*
X93330000Y-110985000D01*
G75*
G02*
X93430000Y-111085000I0J-100000D01*
G01*
X93430000Y-112485000D01*
G75*
G02*
X93330000Y-112585000I-100000J0D01*
G01*
X93130000Y-112585000D01*
G75*
G02*
X93030000Y-112485000I0J100000D01*
G01*
X93030000Y-111085000D01*
G75*
G02*
X93130000Y-110985000I100000J0D01*
G01*
G37*
G36*
G01*
X93630000Y-110985000D02*
X93830000Y-110985000D01*
G75*
G02*
X93930000Y-111085000I0J-100000D01*
G01*
X93930000Y-112485000D01*
G75*
G02*
X93830000Y-112585000I-100000J0D01*
G01*
X93630000Y-112585000D01*
G75*
G02*
X93530000Y-112485000I0J100000D01*
G01*
X93530000Y-111085000D01*
G75*
G02*
X93630000Y-110985000I100000J0D01*
G01*
G37*
G36*
G01*
X94130000Y-110985000D02*
X94330000Y-110985000D01*
G75*
G02*
X94430000Y-111085000I0J-100000D01*
G01*
X94430000Y-112485000D01*
G75*
G02*
X94330000Y-112585000I-100000J0D01*
G01*
X94130000Y-112585000D01*
G75*
G02*
X94030000Y-112485000I0J100000D01*
G01*
X94030000Y-111085000D01*
G75*
G02*
X94130000Y-110985000I100000J0D01*
G01*
G37*
G36*
G01*
X94630000Y-110985000D02*
X94830000Y-110985000D01*
G75*
G02*
X94930000Y-111085000I0J-100000D01*
G01*
X94930000Y-112485000D01*
G75*
G02*
X94830000Y-112585000I-100000J0D01*
G01*
X94630000Y-112585000D01*
G75*
G02*
X94530000Y-112485000I0J100000D01*
G01*
X94530000Y-111085000D01*
G75*
G02*
X94630000Y-110985000I100000J0D01*
G01*
G37*
G36*
G01*
X95130000Y-110985000D02*
X95330000Y-110985000D01*
G75*
G02*
X95430000Y-111085000I0J-100000D01*
G01*
X95430000Y-112485000D01*
G75*
G02*
X95330000Y-112585000I-100000J0D01*
G01*
X95130000Y-112585000D01*
G75*
G02*
X95030000Y-112485000I0J100000D01*
G01*
X95030000Y-111085000D01*
G75*
G02*
X95130000Y-110985000I100000J0D01*
G01*
G37*
G36*
G01*
X95630000Y-110985000D02*
X95830000Y-110985000D01*
G75*
G02*
X95930000Y-111085000I0J-100000D01*
G01*
X95930000Y-112485000D01*
G75*
G02*
X95830000Y-112585000I-100000J0D01*
G01*
X95630000Y-112585000D01*
G75*
G02*
X95530000Y-112485000I0J100000D01*
G01*
X95530000Y-111085000D01*
G75*
G02*
X95630000Y-110985000I100000J0D01*
G01*
G37*
G36*
G01*
X96130000Y-110985000D02*
X96330000Y-110985000D01*
G75*
G02*
X96430000Y-111085000I0J-100000D01*
G01*
X96430000Y-112485000D01*
G75*
G02*
X96330000Y-112585000I-100000J0D01*
G01*
X96130000Y-112585000D01*
G75*
G02*
X96030000Y-112485000I0J100000D01*
G01*
X96030000Y-111085000D01*
G75*
G02*
X96130000Y-110985000I100000J0D01*
G01*
G37*
G36*
G01*
X96630000Y-110985000D02*
X96830000Y-110985000D01*
G75*
G02*
X96930000Y-111085000I0J-100000D01*
G01*
X96930000Y-112485000D01*
G75*
G02*
X96830000Y-112585000I-100000J0D01*
G01*
X96630000Y-112585000D01*
G75*
G02*
X96530000Y-112485000I0J100000D01*
G01*
X96530000Y-111085000D01*
G75*
G02*
X96630000Y-110985000I100000J0D01*
G01*
G37*
G36*
G01*
X97130000Y-110985000D02*
X97330000Y-110985000D01*
G75*
G02*
X97430000Y-111085000I0J-100000D01*
G01*
X97430000Y-112485000D01*
G75*
G02*
X97330000Y-112585000I-100000J0D01*
G01*
X97130000Y-112585000D01*
G75*
G02*
X97030000Y-112485000I0J100000D01*
G01*
X97030000Y-111085000D01*
G75*
G02*
X97130000Y-110985000I100000J0D01*
G01*
G37*
G36*
G01*
X97630000Y-110985000D02*
X97830000Y-110985000D01*
G75*
G02*
X97930000Y-111085000I0J-100000D01*
G01*
X97930000Y-112485000D01*
G75*
G02*
X97830000Y-112585000I-100000J0D01*
G01*
X97630000Y-112585000D01*
G75*
G02*
X97530000Y-112485000I0J100000D01*
G01*
X97530000Y-111085000D01*
G75*
G02*
X97630000Y-110985000I100000J0D01*
G01*
G37*
G36*
G01*
X98130000Y-110985000D02*
X98330000Y-110985000D01*
G75*
G02*
X98430000Y-111085000I0J-100000D01*
G01*
X98430000Y-112485000D01*
G75*
G02*
X98330000Y-112585000I-100000J0D01*
G01*
X98130000Y-112585000D01*
G75*
G02*
X98030000Y-112485000I0J100000D01*
G01*
X98030000Y-111085000D01*
G75*
G02*
X98130000Y-110985000I100000J0D01*
G01*
G37*
G36*
G01*
X98630000Y-110985000D02*
X98830000Y-110985000D01*
G75*
G02*
X98930000Y-111085000I0J-100000D01*
G01*
X98930000Y-112485000D01*
G75*
G02*
X98830000Y-112585000I-100000J0D01*
G01*
X98630000Y-112585000D01*
G75*
G02*
X98530000Y-112485000I0J100000D01*
G01*
X98530000Y-111085000D01*
G75*
G02*
X98630000Y-110985000I100000J0D01*
G01*
G37*
G36*
G01*
X99130000Y-110985000D02*
X99330000Y-110985000D01*
G75*
G02*
X99430000Y-111085000I0J-100000D01*
G01*
X99430000Y-112485000D01*
G75*
G02*
X99330000Y-112585000I-100000J0D01*
G01*
X99130000Y-112585000D01*
G75*
G02*
X99030000Y-112485000I0J100000D01*
G01*
X99030000Y-111085000D01*
G75*
G02*
X99130000Y-110985000I100000J0D01*
G01*
G37*
G36*
G01*
X99630000Y-110985000D02*
X99830000Y-110985000D01*
G75*
G02*
X99930000Y-111085000I0J-100000D01*
G01*
X99930000Y-112485000D01*
G75*
G02*
X99830000Y-112585000I-100000J0D01*
G01*
X99630000Y-112585000D01*
G75*
G02*
X99530000Y-112485000I0J100000D01*
G01*
X99530000Y-111085000D01*
G75*
G02*
X99630000Y-110985000I100000J0D01*
G01*
G37*
G36*
G01*
X100130000Y-110985000D02*
X100330000Y-110985000D01*
G75*
G02*
X100430000Y-111085000I0J-100000D01*
G01*
X100430000Y-112485000D01*
G75*
G02*
X100330000Y-112585000I-100000J0D01*
G01*
X100130000Y-112585000D01*
G75*
G02*
X100030000Y-112485000I0J100000D01*
G01*
X100030000Y-111085000D01*
G75*
G02*
X100130000Y-110985000I100000J0D01*
G01*
G37*
G36*
G01*
X100630000Y-110985000D02*
X100830000Y-110985000D01*
G75*
G02*
X100930000Y-111085000I0J-100000D01*
G01*
X100930000Y-112485000D01*
G75*
G02*
X100830000Y-112585000I-100000J0D01*
G01*
X100630000Y-112585000D01*
G75*
G02*
X100530000Y-112485000I0J100000D01*
G01*
X100530000Y-111085000D01*
G75*
G02*
X100630000Y-110985000I100000J0D01*
G01*
G37*
G36*
G01*
X101130000Y-110985000D02*
X101330000Y-110985000D01*
G75*
G02*
X101430000Y-111085000I0J-100000D01*
G01*
X101430000Y-112485000D01*
G75*
G02*
X101330000Y-112585000I-100000J0D01*
G01*
X101130000Y-112585000D01*
G75*
G02*
X101030000Y-112485000I0J100000D01*
G01*
X101030000Y-111085000D01*
G75*
G02*
X101130000Y-110985000I100000J0D01*
G01*
G37*
G36*
G01*
X101630000Y-110985000D02*
X101830000Y-110985000D01*
G75*
G02*
X101930000Y-111085000I0J-100000D01*
G01*
X101930000Y-112485000D01*
G75*
G02*
X101830000Y-112585000I-100000J0D01*
G01*
X101630000Y-112585000D01*
G75*
G02*
X101530000Y-112485000I0J100000D01*
G01*
X101530000Y-111085000D01*
G75*
G02*
X101630000Y-110985000I100000J0D01*
G01*
G37*
G36*
G01*
X102130000Y-110985000D02*
X102330000Y-110985000D01*
G75*
G02*
X102430000Y-111085000I0J-100000D01*
G01*
X102430000Y-112485000D01*
G75*
G02*
X102330000Y-112585000I-100000J0D01*
G01*
X102130000Y-112585000D01*
G75*
G02*
X102030000Y-112485000I0J100000D01*
G01*
X102030000Y-111085000D01*
G75*
G02*
X102130000Y-110985000I100000J0D01*
G01*
G37*
G36*
G01*
X102630000Y-110985000D02*
X102830000Y-110985000D01*
G75*
G02*
X102930000Y-111085000I0J-100000D01*
G01*
X102930000Y-112485000D01*
G75*
G02*
X102830000Y-112585000I-100000J0D01*
G01*
X102630000Y-112585000D01*
G75*
G02*
X102530000Y-112485000I0J100000D01*
G01*
X102530000Y-111085000D01*
G75*
G02*
X102630000Y-110985000I100000J0D01*
G01*
G37*
G36*
G01*
X103130000Y-110985000D02*
X103330000Y-110985000D01*
G75*
G02*
X103430000Y-111085000I0J-100000D01*
G01*
X103430000Y-112485000D01*
G75*
G02*
X103330000Y-112585000I-100000J0D01*
G01*
X103130000Y-112585000D01*
G75*
G02*
X103030000Y-112485000I0J100000D01*
G01*
X103030000Y-111085000D01*
G75*
G02*
X103130000Y-110985000I100000J0D01*
G01*
G37*
G36*
G01*
X103630000Y-110985000D02*
X103830000Y-110985000D01*
G75*
G02*
X103930000Y-111085000I0J-100000D01*
G01*
X103930000Y-112485000D01*
G75*
G02*
X103830000Y-112585000I-100000J0D01*
G01*
X103630000Y-112585000D01*
G75*
G02*
X103530000Y-112485000I0J100000D01*
G01*
X103530000Y-111085000D01*
G75*
G02*
X103630000Y-110985000I100000J0D01*
G01*
G37*
G36*
G01*
X104130000Y-110985000D02*
X104330000Y-110985000D01*
G75*
G02*
X104430000Y-111085000I0J-100000D01*
G01*
X104430000Y-112485000D01*
G75*
G02*
X104330000Y-112585000I-100000J0D01*
G01*
X104130000Y-112585000D01*
G75*
G02*
X104030000Y-112485000I0J100000D01*
G01*
X104030000Y-111085000D01*
G75*
G02*
X104130000Y-110985000I100000J0D01*
G01*
G37*
G36*
G01*
X104630000Y-110985000D02*
X104830000Y-110985000D01*
G75*
G02*
X104930000Y-111085000I0J-100000D01*
G01*
X104930000Y-112485000D01*
G75*
G02*
X104830000Y-112585000I-100000J0D01*
G01*
X104630000Y-112585000D01*
G75*
G02*
X104530000Y-112485000I0J100000D01*
G01*
X104530000Y-111085000D01*
G75*
G02*
X104630000Y-110985000I100000J0D01*
G01*
G37*
%TD*%
D10*
%TO.C,U5*%
X71628000Y-146685000D03*
G36*
G01*
X78603000Y-140485000D02*
X79978000Y-140485000D01*
G75*
G02*
X80078000Y-140585000I0J-100000D01*
G01*
X80078000Y-140785000D01*
G75*
G02*
X79978000Y-140885000I-100000J0D01*
G01*
X78603000Y-140885000D01*
G75*
G02*
X78503000Y-140785000I0J100000D01*
G01*
X78503000Y-140585000D01*
G75*
G02*
X78603000Y-140485000I100000J0D01*
G01*
G37*
G36*
G01*
X78603000Y-140985000D02*
X79978000Y-140985000D01*
G75*
G02*
X80078000Y-141085000I0J-100000D01*
G01*
X80078000Y-141285000D01*
G75*
G02*
X79978000Y-141385000I-100000J0D01*
G01*
X78603000Y-141385000D01*
G75*
G02*
X78503000Y-141285000I0J100000D01*
G01*
X78503000Y-141085000D01*
G75*
G02*
X78603000Y-140985000I100000J0D01*
G01*
G37*
G36*
G01*
X78603000Y-141485000D02*
X79978000Y-141485000D01*
G75*
G02*
X80078000Y-141585000I0J-100000D01*
G01*
X80078000Y-141785000D01*
G75*
G02*
X79978000Y-141885000I-100000J0D01*
G01*
X78603000Y-141885000D01*
G75*
G02*
X78503000Y-141785000I0J100000D01*
G01*
X78503000Y-141585000D01*
G75*
G02*
X78603000Y-141485000I100000J0D01*
G01*
G37*
G36*
G01*
X78603000Y-141985000D02*
X79978000Y-141985000D01*
G75*
G02*
X80078000Y-142085000I0J-100000D01*
G01*
X80078000Y-142285000D01*
G75*
G02*
X79978000Y-142385000I-100000J0D01*
G01*
X78603000Y-142385000D01*
G75*
G02*
X78503000Y-142285000I0J100000D01*
G01*
X78503000Y-142085000D01*
G75*
G02*
X78603000Y-141985000I100000J0D01*
G01*
G37*
G36*
G01*
X78603000Y-142485000D02*
X79978000Y-142485000D01*
G75*
G02*
X80078000Y-142585000I0J-100000D01*
G01*
X80078000Y-142785000D01*
G75*
G02*
X79978000Y-142885000I-100000J0D01*
G01*
X78603000Y-142885000D01*
G75*
G02*
X78503000Y-142785000I0J100000D01*
G01*
X78503000Y-142585000D01*
G75*
G02*
X78603000Y-142485000I100000J0D01*
G01*
G37*
G36*
G01*
X78603000Y-142985000D02*
X79978000Y-142985000D01*
G75*
G02*
X80078000Y-143085000I0J-100000D01*
G01*
X80078000Y-143285000D01*
G75*
G02*
X79978000Y-143385000I-100000J0D01*
G01*
X78603000Y-143385000D01*
G75*
G02*
X78503000Y-143285000I0J100000D01*
G01*
X78503000Y-143085000D01*
G75*
G02*
X78603000Y-142985000I100000J0D01*
G01*
G37*
G36*
G01*
X78603000Y-143485000D02*
X79978000Y-143485000D01*
G75*
G02*
X80078000Y-143585000I0J-100000D01*
G01*
X80078000Y-143785000D01*
G75*
G02*
X79978000Y-143885000I-100000J0D01*
G01*
X78603000Y-143885000D01*
G75*
G02*
X78503000Y-143785000I0J100000D01*
G01*
X78503000Y-143585000D01*
G75*
G02*
X78603000Y-143485000I100000J0D01*
G01*
G37*
G36*
G01*
X78603000Y-143985000D02*
X79978000Y-143985000D01*
G75*
G02*
X80078000Y-144085000I0J-100000D01*
G01*
X80078000Y-144285000D01*
G75*
G02*
X79978000Y-144385000I-100000J0D01*
G01*
X78603000Y-144385000D01*
G75*
G02*
X78503000Y-144285000I0J100000D01*
G01*
X78503000Y-144085000D01*
G75*
G02*
X78603000Y-143985000I100000J0D01*
G01*
G37*
G36*
G01*
X78603000Y-144485000D02*
X79978000Y-144485000D01*
G75*
G02*
X80078000Y-144585000I0J-100000D01*
G01*
X80078000Y-144785000D01*
G75*
G02*
X79978000Y-144885000I-100000J0D01*
G01*
X78603000Y-144885000D01*
G75*
G02*
X78503000Y-144785000I0J100000D01*
G01*
X78503000Y-144585000D01*
G75*
G02*
X78603000Y-144485000I100000J0D01*
G01*
G37*
G36*
G01*
X78603000Y-144985000D02*
X79978000Y-144985000D01*
G75*
G02*
X80078000Y-145085000I0J-100000D01*
G01*
X80078000Y-145285000D01*
G75*
G02*
X79978000Y-145385000I-100000J0D01*
G01*
X78603000Y-145385000D01*
G75*
G02*
X78503000Y-145285000I0J100000D01*
G01*
X78503000Y-145085000D01*
G75*
G02*
X78603000Y-144985000I100000J0D01*
G01*
G37*
G36*
G01*
X78603000Y-145485000D02*
X79978000Y-145485000D01*
G75*
G02*
X80078000Y-145585000I0J-100000D01*
G01*
X80078000Y-145785000D01*
G75*
G02*
X79978000Y-145885000I-100000J0D01*
G01*
X78603000Y-145885000D01*
G75*
G02*
X78503000Y-145785000I0J100000D01*
G01*
X78503000Y-145585000D01*
G75*
G02*
X78603000Y-145485000I100000J0D01*
G01*
G37*
G36*
G01*
X78603000Y-145985000D02*
X79978000Y-145985000D01*
G75*
G02*
X80078000Y-146085000I0J-100000D01*
G01*
X80078000Y-146285000D01*
G75*
G02*
X79978000Y-146385000I-100000J0D01*
G01*
X78603000Y-146385000D01*
G75*
G02*
X78503000Y-146285000I0J100000D01*
G01*
X78503000Y-146085000D01*
G75*
G02*
X78603000Y-145985000I100000J0D01*
G01*
G37*
G36*
G01*
X78603000Y-146485000D02*
X79978000Y-146485000D01*
G75*
G02*
X80078000Y-146585000I0J-100000D01*
G01*
X80078000Y-146785000D01*
G75*
G02*
X79978000Y-146885000I-100000J0D01*
G01*
X78603000Y-146885000D01*
G75*
G02*
X78503000Y-146785000I0J100000D01*
G01*
X78503000Y-146585000D01*
G75*
G02*
X78603000Y-146485000I100000J0D01*
G01*
G37*
G36*
G01*
X78603000Y-146985000D02*
X79978000Y-146985000D01*
G75*
G02*
X80078000Y-147085000I0J-100000D01*
G01*
X80078000Y-147285000D01*
G75*
G02*
X79978000Y-147385000I-100000J0D01*
G01*
X78603000Y-147385000D01*
G75*
G02*
X78503000Y-147285000I0J100000D01*
G01*
X78503000Y-147085000D01*
G75*
G02*
X78603000Y-146985000I100000J0D01*
G01*
G37*
G36*
G01*
X78603000Y-147485000D02*
X79978000Y-147485000D01*
G75*
G02*
X80078000Y-147585000I0J-100000D01*
G01*
X80078000Y-147785000D01*
G75*
G02*
X79978000Y-147885000I-100000J0D01*
G01*
X78603000Y-147885000D01*
G75*
G02*
X78503000Y-147785000I0J100000D01*
G01*
X78503000Y-147585000D01*
G75*
G02*
X78603000Y-147485000I100000J0D01*
G01*
G37*
G36*
G01*
X78603000Y-147985000D02*
X79978000Y-147985000D01*
G75*
G02*
X80078000Y-148085000I0J-100000D01*
G01*
X80078000Y-148285000D01*
G75*
G02*
X79978000Y-148385000I-100000J0D01*
G01*
X78603000Y-148385000D01*
G75*
G02*
X78503000Y-148285000I0J100000D01*
G01*
X78503000Y-148085000D01*
G75*
G02*
X78603000Y-147985000I100000J0D01*
G01*
G37*
G36*
G01*
X78603000Y-148485000D02*
X79978000Y-148485000D01*
G75*
G02*
X80078000Y-148585000I0J-100000D01*
G01*
X80078000Y-148785000D01*
G75*
G02*
X79978000Y-148885000I-100000J0D01*
G01*
X78603000Y-148885000D01*
G75*
G02*
X78503000Y-148785000I0J100000D01*
G01*
X78503000Y-148585000D01*
G75*
G02*
X78603000Y-148485000I100000J0D01*
G01*
G37*
G36*
G01*
X78603000Y-148985000D02*
X79978000Y-148985000D01*
G75*
G02*
X80078000Y-149085000I0J-100000D01*
G01*
X80078000Y-149285000D01*
G75*
G02*
X79978000Y-149385000I-100000J0D01*
G01*
X78603000Y-149385000D01*
G75*
G02*
X78503000Y-149285000I0J100000D01*
G01*
X78503000Y-149085000D01*
G75*
G02*
X78603000Y-148985000I100000J0D01*
G01*
G37*
G36*
G01*
X78603000Y-149485000D02*
X79978000Y-149485000D01*
G75*
G02*
X80078000Y-149585000I0J-100000D01*
G01*
X80078000Y-149785000D01*
G75*
G02*
X79978000Y-149885000I-100000J0D01*
G01*
X78603000Y-149885000D01*
G75*
G02*
X78503000Y-149785000I0J100000D01*
G01*
X78503000Y-149585000D01*
G75*
G02*
X78603000Y-149485000I100000J0D01*
G01*
G37*
G36*
G01*
X78603000Y-149985000D02*
X79978000Y-149985000D01*
G75*
G02*
X80078000Y-150085000I0J-100000D01*
G01*
X80078000Y-150285000D01*
G75*
G02*
X79978000Y-150385000I-100000J0D01*
G01*
X78603000Y-150385000D01*
G75*
G02*
X78503000Y-150285000I0J100000D01*
G01*
X78503000Y-150085000D01*
G75*
G02*
X78603000Y-149985000I100000J0D01*
G01*
G37*
G36*
G01*
X78603000Y-150485000D02*
X79978000Y-150485000D01*
G75*
G02*
X80078000Y-150585000I0J-100000D01*
G01*
X80078000Y-150785000D01*
G75*
G02*
X79978000Y-150885000I-100000J0D01*
G01*
X78603000Y-150885000D01*
G75*
G02*
X78503000Y-150785000I0J100000D01*
G01*
X78503000Y-150585000D01*
G75*
G02*
X78603000Y-150485000I100000J0D01*
G01*
G37*
G36*
G01*
X78603000Y-150985000D02*
X79978000Y-150985000D01*
G75*
G02*
X80078000Y-151085000I0J-100000D01*
G01*
X80078000Y-151285000D01*
G75*
G02*
X79978000Y-151385000I-100000J0D01*
G01*
X78603000Y-151385000D01*
G75*
G02*
X78503000Y-151285000I0J100000D01*
G01*
X78503000Y-151085000D01*
G75*
G02*
X78603000Y-150985000I100000J0D01*
G01*
G37*
G36*
G01*
X78603000Y-151485000D02*
X79978000Y-151485000D01*
G75*
G02*
X80078000Y-151585000I0J-100000D01*
G01*
X80078000Y-151785000D01*
G75*
G02*
X79978000Y-151885000I-100000J0D01*
G01*
X78603000Y-151885000D01*
G75*
G02*
X78503000Y-151785000I0J100000D01*
G01*
X78503000Y-151585000D01*
G75*
G02*
X78603000Y-151485000I100000J0D01*
G01*
G37*
G36*
G01*
X78603000Y-151985000D02*
X79978000Y-151985000D01*
G75*
G02*
X80078000Y-152085000I0J-100000D01*
G01*
X80078000Y-152285000D01*
G75*
G02*
X79978000Y-152385000I-100000J0D01*
G01*
X78603000Y-152385000D01*
G75*
G02*
X78503000Y-152285000I0J100000D01*
G01*
X78503000Y-152085000D01*
G75*
G02*
X78603000Y-151985000I100000J0D01*
G01*
G37*
G36*
G01*
X78603000Y-152485000D02*
X79978000Y-152485000D01*
G75*
G02*
X80078000Y-152585000I0J-100000D01*
G01*
X80078000Y-152785000D01*
G75*
G02*
X79978000Y-152885000I-100000J0D01*
G01*
X78603000Y-152885000D01*
G75*
G02*
X78503000Y-152785000I0J100000D01*
G01*
X78503000Y-152585000D01*
G75*
G02*
X78603000Y-152485000I100000J0D01*
G01*
G37*
G36*
G01*
X77528000Y-153560000D02*
X77728000Y-153560000D01*
G75*
G02*
X77828000Y-153660000I0J-100000D01*
G01*
X77828000Y-155035000D01*
G75*
G02*
X77728000Y-155135000I-100000J0D01*
G01*
X77528000Y-155135000D01*
G75*
G02*
X77428000Y-155035000I0J100000D01*
G01*
X77428000Y-153660000D01*
G75*
G02*
X77528000Y-153560000I100000J0D01*
G01*
G37*
G36*
G01*
X77028000Y-153560000D02*
X77228000Y-153560000D01*
G75*
G02*
X77328000Y-153660000I0J-100000D01*
G01*
X77328000Y-155035000D01*
G75*
G02*
X77228000Y-155135000I-100000J0D01*
G01*
X77028000Y-155135000D01*
G75*
G02*
X76928000Y-155035000I0J100000D01*
G01*
X76928000Y-153660000D01*
G75*
G02*
X77028000Y-153560000I100000J0D01*
G01*
G37*
G36*
G01*
X76528000Y-153560000D02*
X76728000Y-153560000D01*
G75*
G02*
X76828000Y-153660000I0J-100000D01*
G01*
X76828000Y-155035000D01*
G75*
G02*
X76728000Y-155135000I-100000J0D01*
G01*
X76528000Y-155135000D01*
G75*
G02*
X76428000Y-155035000I0J100000D01*
G01*
X76428000Y-153660000D01*
G75*
G02*
X76528000Y-153560000I100000J0D01*
G01*
G37*
G36*
G01*
X76028000Y-153560000D02*
X76228000Y-153560000D01*
G75*
G02*
X76328000Y-153660000I0J-100000D01*
G01*
X76328000Y-155035000D01*
G75*
G02*
X76228000Y-155135000I-100000J0D01*
G01*
X76028000Y-155135000D01*
G75*
G02*
X75928000Y-155035000I0J100000D01*
G01*
X75928000Y-153660000D01*
G75*
G02*
X76028000Y-153560000I100000J0D01*
G01*
G37*
G36*
G01*
X75528000Y-153560000D02*
X75728000Y-153560000D01*
G75*
G02*
X75828000Y-153660000I0J-100000D01*
G01*
X75828000Y-155035000D01*
G75*
G02*
X75728000Y-155135000I-100000J0D01*
G01*
X75528000Y-155135000D01*
G75*
G02*
X75428000Y-155035000I0J100000D01*
G01*
X75428000Y-153660000D01*
G75*
G02*
X75528000Y-153560000I100000J0D01*
G01*
G37*
G36*
G01*
X75028000Y-153560000D02*
X75228000Y-153560000D01*
G75*
G02*
X75328000Y-153660000I0J-100000D01*
G01*
X75328000Y-155035000D01*
G75*
G02*
X75228000Y-155135000I-100000J0D01*
G01*
X75028000Y-155135000D01*
G75*
G02*
X74928000Y-155035000I0J100000D01*
G01*
X74928000Y-153660000D01*
G75*
G02*
X75028000Y-153560000I100000J0D01*
G01*
G37*
G36*
G01*
X74528000Y-153560000D02*
X74728000Y-153560000D01*
G75*
G02*
X74828000Y-153660000I0J-100000D01*
G01*
X74828000Y-155035000D01*
G75*
G02*
X74728000Y-155135000I-100000J0D01*
G01*
X74528000Y-155135000D01*
G75*
G02*
X74428000Y-155035000I0J100000D01*
G01*
X74428000Y-153660000D01*
G75*
G02*
X74528000Y-153560000I100000J0D01*
G01*
G37*
G36*
G01*
X74028000Y-153560000D02*
X74228000Y-153560000D01*
G75*
G02*
X74328000Y-153660000I0J-100000D01*
G01*
X74328000Y-155035000D01*
G75*
G02*
X74228000Y-155135000I-100000J0D01*
G01*
X74028000Y-155135000D01*
G75*
G02*
X73928000Y-155035000I0J100000D01*
G01*
X73928000Y-153660000D01*
G75*
G02*
X74028000Y-153560000I100000J0D01*
G01*
G37*
G36*
G01*
X73528000Y-153560000D02*
X73728000Y-153560000D01*
G75*
G02*
X73828000Y-153660000I0J-100000D01*
G01*
X73828000Y-155035000D01*
G75*
G02*
X73728000Y-155135000I-100000J0D01*
G01*
X73528000Y-155135000D01*
G75*
G02*
X73428000Y-155035000I0J100000D01*
G01*
X73428000Y-153660000D01*
G75*
G02*
X73528000Y-153560000I100000J0D01*
G01*
G37*
G36*
G01*
X73028000Y-153560000D02*
X73228000Y-153560000D01*
G75*
G02*
X73328000Y-153660000I0J-100000D01*
G01*
X73328000Y-155035000D01*
G75*
G02*
X73228000Y-155135000I-100000J0D01*
G01*
X73028000Y-155135000D01*
G75*
G02*
X72928000Y-155035000I0J100000D01*
G01*
X72928000Y-153660000D01*
G75*
G02*
X73028000Y-153560000I100000J0D01*
G01*
G37*
G36*
G01*
X72528000Y-153560000D02*
X72728000Y-153560000D01*
G75*
G02*
X72828000Y-153660000I0J-100000D01*
G01*
X72828000Y-155035000D01*
G75*
G02*
X72728000Y-155135000I-100000J0D01*
G01*
X72528000Y-155135000D01*
G75*
G02*
X72428000Y-155035000I0J100000D01*
G01*
X72428000Y-153660000D01*
G75*
G02*
X72528000Y-153560000I100000J0D01*
G01*
G37*
G36*
G01*
X72028000Y-153560000D02*
X72228000Y-153560000D01*
G75*
G02*
X72328000Y-153660000I0J-100000D01*
G01*
X72328000Y-155035000D01*
G75*
G02*
X72228000Y-155135000I-100000J0D01*
G01*
X72028000Y-155135000D01*
G75*
G02*
X71928000Y-155035000I0J100000D01*
G01*
X71928000Y-153660000D01*
G75*
G02*
X72028000Y-153560000I100000J0D01*
G01*
G37*
G36*
G01*
X71528000Y-153560000D02*
X71728000Y-153560000D01*
G75*
G02*
X71828000Y-153660000I0J-100000D01*
G01*
X71828000Y-155035000D01*
G75*
G02*
X71728000Y-155135000I-100000J0D01*
G01*
X71528000Y-155135000D01*
G75*
G02*
X71428000Y-155035000I0J100000D01*
G01*
X71428000Y-153660000D01*
G75*
G02*
X71528000Y-153560000I100000J0D01*
G01*
G37*
G36*
G01*
X71028000Y-153560000D02*
X71228000Y-153560000D01*
G75*
G02*
X71328000Y-153660000I0J-100000D01*
G01*
X71328000Y-155035000D01*
G75*
G02*
X71228000Y-155135000I-100000J0D01*
G01*
X71028000Y-155135000D01*
G75*
G02*
X70928000Y-155035000I0J100000D01*
G01*
X70928000Y-153660000D01*
G75*
G02*
X71028000Y-153560000I100000J0D01*
G01*
G37*
G36*
G01*
X70528000Y-153560000D02*
X70728000Y-153560000D01*
G75*
G02*
X70828000Y-153660000I0J-100000D01*
G01*
X70828000Y-155035000D01*
G75*
G02*
X70728000Y-155135000I-100000J0D01*
G01*
X70528000Y-155135000D01*
G75*
G02*
X70428000Y-155035000I0J100000D01*
G01*
X70428000Y-153660000D01*
G75*
G02*
X70528000Y-153560000I100000J0D01*
G01*
G37*
G36*
G01*
X70028000Y-153560000D02*
X70228000Y-153560000D01*
G75*
G02*
X70328000Y-153660000I0J-100000D01*
G01*
X70328000Y-155035000D01*
G75*
G02*
X70228000Y-155135000I-100000J0D01*
G01*
X70028000Y-155135000D01*
G75*
G02*
X69928000Y-155035000I0J100000D01*
G01*
X69928000Y-153660000D01*
G75*
G02*
X70028000Y-153560000I100000J0D01*
G01*
G37*
G36*
G01*
X69528000Y-153560000D02*
X69728000Y-153560000D01*
G75*
G02*
X69828000Y-153660000I0J-100000D01*
G01*
X69828000Y-155035000D01*
G75*
G02*
X69728000Y-155135000I-100000J0D01*
G01*
X69528000Y-155135000D01*
G75*
G02*
X69428000Y-155035000I0J100000D01*
G01*
X69428000Y-153660000D01*
G75*
G02*
X69528000Y-153560000I100000J0D01*
G01*
G37*
G36*
G01*
X69028000Y-153560000D02*
X69228000Y-153560000D01*
G75*
G02*
X69328000Y-153660000I0J-100000D01*
G01*
X69328000Y-155035000D01*
G75*
G02*
X69228000Y-155135000I-100000J0D01*
G01*
X69028000Y-155135000D01*
G75*
G02*
X68928000Y-155035000I0J100000D01*
G01*
X68928000Y-153660000D01*
G75*
G02*
X69028000Y-153560000I100000J0D01*
G01*
G37*
G36*
G01*
X68528000Y-153560000D02*
X68728000Y-153560000D01*
G75*
G02*
X68828000Y-153660000I0J-100000D01*
G01*
X68828000Y-155035000D01*
G75*
G02*
X68728000Y-155135000I-100000J0D01*
G01*
X68528000Y-155135000D01*
G75*
G02*
X68428000Y-155035000I0J100000D01*
G01*
X68428000Y-153660000D01*
G75*
G02*
X68528000Y-153560000I100000J0D01*
G01*
G37*
G36*
G01*
X68028000Y-153560000D02*
X68228000Y-153560000D01*
G75*
G02*
X68328000Y-153660000I0J-100000D01*
G01*
X68328000Y-155035000D01*
G75*
G02*
X68228000Y-155135000I-100000J0D01*
G01*
X68028000Y-155135000D01*
G75*
G02*
X67928000Y-155035000I0J100000D01*
G01*
X67928000Y-153660000D01*
G75*
G02*
X68028000Y-153560000I100000J0D01*
G01*
G37*
G36*
G01*
X67528000Y-153560000D02*
X67728000Y-153560000D01*
G75*
G02*
X67828000Y-153660000I0J-100000D01*
G01*
X67828000Y-155035000D01*
G75*
G02*
X67728000Y-155135000I-100000J0D01*
G01*
X67528000Y-155135000D01*
G75*
G02*
X67428000Y-155035000I0J100000D01*
G01*
X67428000Y-153660000D01*
G75*
G02*
X67528000Y-153560000I100000J0D01*
G01*
G37*
G36*
G01*
X67028000Y-153560000D02*
X67228000Y-153560000D01*
G75*
G02*
X67328000Y-153660000I0J-100000D01*
G01*
X67328000Y-155035000D01*
G75*
G02*
X67228000Y-155135000I-100000J0D01*
G01*
X67028000Y-155135000D01*
G75*
G02*
X66928000Y-155035000I0J100000D01*
G01*
X66928000Y-153660000D01*
G75*
G02*
X67028000Y-153560000I100000J0D01*
G01*
G37*
G36*
G01*
X66528000Y-153560000D02*
X66728000Y-153560000D01*
G75*
G02*
X66828000Y-153660000I0J-100000D01*
G01*
X66828000Y-155035000D01*
G75*
G02*
X66728000Y-155135000I-100000J0D01*
G01*
X66528000Y-155135000D01*
G75*
G02*
X66428000Y-155035000I0J100000D01*
G01*
X66428000Y-153660000D01*
G75*
G02*
X66528000Y-153560000I100000J0D01*
G01*
G37*
G36*
G01*
X66028000Y-153560000D02*
X66228000Y-153560000D01*
G75*
G02*
X66328000Y-153660000I0J-100000D01*
G01*
X66328000Y-155035000D01*
G75*
G02*
X66228000Y-155135000I-100000J0D01*
G01*
X66028000Y-155135000D01*
G75*
G02*
X65928000Y-155035000I0J100000D01*
G01*
X65928000Y-153660000D01*
G75*
G02*
X66028000Y-153560000I100000J0D01*
G01*
G37*
G36*
G01*
X65528000Y-153560000D02*
X65728000Y-153560000D01*
G75*
G02*
X65828000Y-153660000I0J-100000D01*
G01*
X65828000Y-155035000D01*
G75*
G02*
X65728000Y-155135000I-100000J0D01*
G01*
X65528000Y-155135000D01*
G75*
G02*
X65428000Y-155035000I0J100000D01*
G01*
X65428000Y-153660000D01*
G75*
G02*
X65528000Y-153560000I100000J0D01*
G01*
G37*
G36*
G01*
X63278000Y-152485000D02*
X64653000Y-152485000D01*
G75*
G02*
X64753000Y-152585000I0J-100000D01*
G01*
X64753000Y-152785000D01*
G75*
G02*
X64653000Y-152885000I-100000J0D01*
G01*
X63278000Y-152885000D01*
G75*
G02*
X63178000Y-152785000I0J100000D01*
G01*
X63178000Y-152585000D01*
G75*
G02*
X63278000Y-152485000I100000J0D01*
G01*
G37*
G36*
G01*
X63278000Y-151985000D02*
X64653000Y-151985000D01*
G75*
G02*
X64753000Y-152085000I0J-100000D01*
G01*
X64753000Y-152285000D01*
G75*
G02*
X64653000Y-152385000I-100000J0D01*
G01*
X63278000Y-152385000D01*
G75*
G02*
X63178000Y-152285000I0J100000D01*
G01*
X63178000Y-152085000D01*
G75*
G02*
X63278000Y-151985000I100000J0D01*
G01*
G37*
G36*
G01*
X63278000Y-151485000D02*
X64653000Y-151485000D01*
G75*
G02*
X64753000Y-151585000I0J-100000D01*
G01*
X64753000Y-151785000D01*
G75*
G02*
X64653000Y-151885000I-100000J0D01*
G01*
X63278000Y-151885000D01*
G75*
G02*
X63178000Y-151785000I0J100000D01*
G01*
X63178000Y-151585000D01*
G75*
G02*
X63278000Y-151485000I100000J0D01*
G01*
G37*
G36*
G01*
X63278000Y-150985000D02*
X64653000Y-150985000D01*
G75*
G02*
X64753000Y-151085000I0J-100000D01*
G01*
X64753000Y-151285000D01*
G75*
G02*
X64653000Y-151385000I-100000J0D01*
G01*
X63278000Y-151385000D01*
G75*
G02*
X63178000Y-151285000I0J100000D01*
G01*
X63178000Y-151085000D01*
G75*
G02*
X63278000Y-150985000I100000J0D01*
G01*
G37*
G36*
G01*
X63278000Y-150485000D02*
X64653000Y-150485000D01*
G75*
G02*
X64753000Y-150585000I0J-100000D01*
G01*
X64753000Y-150785000D01*
G75*
G02*
X64653000Y-150885000I-100000J0D01*
G01*
X63278000Y-150885000D01*
G75*
G02*
X63178000Y-150785000I0J100000D01*
G01*
X63178000Y-150585000D01*
G75*
G02*
X63278000Y-150485000I100000J0D01*
G01*
G37*
G36*
G01*
X63278000Y-149985000D02*
X64653000Y-149985000D01*
G75*
G02*
X64753000Y-150085000I0J-100000D01*
G01*
X64753000Y-150285000D01*
G75*
G02*
X64653000Y-150385000I-100000J0D01*
G01*
X63278000Y-150385000D01*
G75*
G02*
X63178000Y-150285000I0J100000D01*
G01*
X63178000Y-150085000D01*
G75*
G02*
X63278000Y-149985000I100000J0D01*
G01*
G37*
G36*
G01*
X63278000Y-149485000D02*
X64653000Y-149485000D01*
G75*
G02*
X64753000Y-149585000I0J-100000D01*
G01*
X64753000Y-149785000D01*
G75*
G02*
X64653000Y-149885000I-100000J0D01*
G01*
X63278000Y-149885000D01*
G75*
G02*
X63178000Y-149785000I0J100000D01*
G01*
X63178000Y-149585000D01*
G75*
G02*
X63278000Y-149485000I100000J0D01*
G01*
G37*
G36*
G01*
X63278000Y-148985000D02*
X64653000Y-148985000D01*
G75*
G02*
X64753000Y-149085000I0J-100000D01*
G01*
X64753000Y-149285000D01*
G75*
G02*
X64653000Y-149385000I-100000J0D01*
G01*
X63278000Y-149385000D01*
G75*
G02*
X63178000Y-149285000I0J100000D01*
G01*
X63178000Y-149085000D01*
G75*
G02*
X63278000Y-148985000I100000J0D01*
G01*
G37*
G36*
G01*
X63278000Y-148485000D02*
X64653000Y-148485000D01*
G75*
G02*
X64753000Y-148585000I0J-100000D01*
G01*
X64753000Y-148785000D01*
G75*
G02*
X64653000Y-148885000I-100000J0D01*
G01*
X63278000Y-148885000D01*
G75*
G02*
X63178000Y-148785000I0J100000D01*
G01*
X63178000Y-148585000D01*
G75*
G02*
X63278000Y-148485000I100000J0D01*
G01*
G37*
G36*
G01*
X63278000Y-147985000D02*
X64653000Y-147985000D01*
G75*
G02*
X64753000Y-148085000I0J-100000D01*
G01*
X64753000Y-148285000D01*
G75*
G02*
X64653000Y-148385000I-100000J0D01*
G01*
X63278000Y-148385000D01*
G75*
G02*
X63178000Y-148285000I0J100000D01*
G01*
X63178000Y-148085000D01*
G75*
G02*
X63278000Y-147985000I100000J0D01*
G01*
G37*
G36*
G01*
X63278000Y-147485000D02*
X64653000Y-147485000D01*
G75*
G02*
X64753000Y-147585000I0J-100000D01*
G01*
X64753000Y-147785000D01*
G75*
G02*
X64653000Y-147885000I-100000J0D01*
G01*
X63278000Y-147885000D01*
G75*
G02*
X63178000Y-147785000I0J100000D01*
G01*
X63178000Y-147585000D01*
G75*
G02*
X63278000Y-147485000I100000J0D01*
G01*
G37*
G36*
G01*
X63278000Y-146985000D02*
X64653000Y-146985000D01*
G75*
G02*
X64753000Y-147085000I0J-100000D01*
G01*
X64753000Y-147285000D01*
G75*
G02*
X64653000Y-147385000I-100000J0D01*
G01*
X63278000Y-147385000D01*
G75*
G02*
X63178000Y-147285000I0J100000D01*
G01*
X63178000Y-147085000D01*
G75*
G02*
X63278000Y-146985000I100000J0D01*
G01*
G37*
G36*
G01*
X63278000Y-146485000D02*
X64653000Y-146485000D01*
G75*
G02*
X64753000Y-146585000I0J-100000D01*
G01*
X64753000Y-146785000D01*
G75*
G02*
X64653000Y-146885000I-100000J0D01*
G01*
X63278000Y-146885000D01*
G75*
G02*
X63178000Y-146785000I0J100000D01*
G01*
X63178000Y-146585000D01*
G75*
G02*
X63278000Y-146485000I100000J0D01*
G01*
G37*
G36*
G01*
X63278000Y-145985000D02*
X64653000Y-145985000D01*
G75*
G02*
X64753000Y-146085000I0J-100000D01*
G01*
X64753000Y-146285000D01*
G75*
G02*
X64653000Y-146385000I-100000J0D01*
G01*
X63278000Y-146385000D01*
G75*
G02*
X63178000Y-146285000I0J100000D01*
G01*
X63178000Y-146085000D01*
G75*
G02*
X63278000Y-145985000I100000J0D01*
G01*
G37*
G36*
G01*
X63278000Y-145485000D02*
X64653000Y-145485000D01*
G75*
G02*
X64753000Y-145585000I0J-100000D01*
G01*
X64753000Y-145785000D01*
G75*
G02*
X64653000Y-145885000I-100000J0D01*
G01*
X63278000Y-145885000D01*
G75*
G02*
X63178000Y-145785000I0J100000D01*
G01*
X63178000Y-145585000D01*
G75*
G02*
X63278000Y-145485000I100000J0D01*
G01*
G37*
G36*
G01*
X63278000Y-144985000D02*
X64653000Y-144985000D01*
G75*
G02*
X64753000Y-145085000I0J-100000D01*
G01*
X64753000Y-145285000D01*
G75*
G02*
X64653000Y-145385000I-100000J0D01*
G01*
X63278000Y-145385000D01*
G75*
G02*
X63178000Y-145285000I0J100000D01*
G01*
X63178000Y-145085000D01*
G75*
G02*
X63278000Y-144985000I100000J0D01*
G01*
G37*
G36*
G01*
X63278000Y-144485000D02*
X64653000Y-144485000D01*
G75*
G02*
X64753000Y-144585000I0J-100000D01*
G01*
X64753000Y-144785000D01*
G75*
G02*
X64653000Y-144885000I-100000J0D01*
G01*
X63278000Y-144885000D01*
G75*
G02*
X63178000Y-144785000I0J100000D01*
G01*
X63178000Y-144585000D01*
G75*
G02*
X63278000Y-144485000I100000J0D01*
G01*
G37*
G36*
G01*
X63278000Y-143985000D02*
X64653000Y-143985000D01*
G75*
G02*
X64753000Y-144085000I0J-100000D01*
G01*
X64753000Y-144285000D01*
G75*
G02*
X64653000Y-144385000I-100000J0D01*
G01*
X63278000Y-144385000D01*
G75*
G02*
X63178000Y-144285000I0J100000D01*
G01*
X63178000Y-144085000D01*
G75*
G02*
X63278000Y-143985000I100000J0D01*
G01*
G37*
G36*
G01*
X63278000Y-143485000D02*
X64653000Y-143485000D01*
G75*
G02*
X64753000Y-143585000I0J-100000D01*
G01*
X64753000Y-143785000D01*
G75*
G02*
X64653000Y-143885000I-100000J0D01*
G01*
X63278000Y-143885000D01*
G75*
G02*
X63178000Y-143785000I0J100000D01*
G01*
X63178000Y-143585000D01*
G75*
G02*
X63278000Y-143485000I100000J0D01*
G01*
G37*
G36*
G01*
X63278000Y-142985000D02*
X64653000Y-142985000D01*
G75*
G02*
X64753000Y-143085000I0J-100000D01*
G01*
X64753000Y-143285000D01*
G75*
G02*
X64653000Y-143385000I-100000J0D01*
G01*
X63278000Y-143385000D01*
G75*
G02*
X63178000Y-143285000I0J100000D01*
G01*
X63178000Y-143085000D01*
G75*
G02*
X63278000Y-142985000I100000J0D01*
G01*
G37*
G36*
G01*
X63278000Y-142485000D02*
X64653000Y-142485000D01*
G75*
G02*
X64753000Y-142585000I0J-100000D01*
G01*
X64753000Y-142785000D01*
G75*
G02*
X64653000Y-142885000I-100000J0D01*
G01*
X63278000Y-142885000D01*
G75*
G02*
X63178000Y-142785000I0J100000D01*
G01*
X63178000Y-142585000D01*
G75*
G02*
X63278000Y-142485000I100000J0D01*
G01*
G37*
G36*
G01*
X63278000Y-141985000D02*
X64653000Y-141985000D01*
G75*
G02*
X64753000Y-142085000I0J-100000D01*
G01*
X64753000Y-142285000D01*
G75*
G02*
X64653000Y-142385000I-100000J0D01*
G01*
X63278000Y-142385000D01*
G75*
G02*
X63178000Y-142285000I0J100000D01*
G01*
X63178000Y-142085000D01*
G75*
G02*
X63278000Y-141985000I100000J0D01*
G01*
G37*
G36*
G01*
X63278000Y-141485000D02*
X64653000Y-141485000D01*
G75*
G02*
X64753000Y-141585000I0J-100000D01*
G01*
X64753000Y-141785000D01*
G75*
G02*
X64653000Y-141885000I-100000J0D01*
G01*
X63278000Y-141885000D01*
G75*
G02*
X63178000Y-141785000I0J100000D01*
G01*
X63178000Y-141585000D01*
G75*
G02*
X63278000Y-141485000I100000J0D01*
G01*
G37*
G36*
G01*
X63278000Y-140985000D02*
X64653000Y-140985000D01*
G75*
G02*
X64753000Y-141085000I0J-100000D01*
G01*
X64753000Y-141285000D01*
G75*
G02*
X64653000Y-141385000I-100000J0D01*
G01*
X63278000Y-141385000D01*
G75*
G02*
X63178000Y-141285000I0J100000D01*
G01*
X63178000Y-141085000D01*
G75*
G02*
X63278000Y-140985000I100000J0D01*
G01*
G37*
G36*
G01*
X63278000Y-140485000D02*
X64653000Y-140485000D01*
G75*
G02*
X64753000Y-140585000I0J-100000D01*
G01*
X64753000Y-140785000D01*
G75*
G02*
X64653000Y-140885000I-100000J0D01*
G01*
X63278000Y-140885000D01*
G75*
G02*
X63178000Y-140785000I0J100000D01*
G01*
X63178000Y-140585000D01*
G75*
G02*
X63278000Y-140485000I100000J0D01*
G01*
G37*
G36*
G01*
X65528000Y-138235000D02*
X65728000Y-138235000D01*
G75*
G02*
X65828000Y-138335000I0J-100000D01*
G01*
X65828000Y-139710000D01*
G75*
G02*
X65728000Y-139810000I-100000J0D01*
G01*
X65528000Y-139810000D01*
G75*
G02*
X65428000Y-139710000I0J100000D01*
G01*
X65428000Y-138335000D01*
G75*
G02*
X65528000Y-138235000I100000J0D01*
G01*
G37*
G36*
G01*
X66028000Y-138235000D02*
X66228000Y-138235000D01*
G75*
G02*
X66328000Y-138335000I0J-100000D01*
G01*
X66328000Y-139710000D01*
G75*
G02*
X66228000Y-139810000I-100000J0D01*
G01*
X66028000Y-139810000D01*
G75*
G02*
X65928000Y-139710000I0J100000D01*
G01*
X65928000Y-138335000D01*
G75*
G02*
X66028000Y-138235000I100000J0D01*
G01*
G37*
G36*
G01*
X66528000Y-138235000D02*
X66728000Y-138235000D01*
G75*
G02*
X66828000Y-138335000I0J-100000D01*
G01*
X66828000Y-139710000D01*
G75*
G02*
X66728000Y-139810000I-100000J0D01*
G01*
X66528000Y-139810000D01*
G75*
G02*
X66428000Y-139710000I0J100000D01*
G01*
X66428000Y-138335000D01*
G75*
G02*
X66528000Y-138235000I100000J0D01*
G01*
G37*
G36*
G01*
X67028000Y-138235000D02*
X67228000Y-138235000D01*
G75*
G02*
X67328000Y-138335000I0J-100000D01*
G01*
X67328000Y-139710000D01*
G75*
G02*
X67228000Y-139810000I-100000J0D01*
G01*
X67028000Y-139810000D01*
G75*
G02*
X66928000Y-139710000I0J100000D01*
G01*
X66928000Y-138335000D01*
G75*
G02*
X67028000Y-138235000I100000J0D01*
G01*
G37*
G36*
G01*
X67528000Y-138235000D02*
X67728000Y-138235000D01*
G75*
G02*
X67828000Y-138335000I0J-100000D01*
G01*
X67828000Y-139710000D01*
G75*
G02*
X67728000Y-139810000I-100000J0D01*
G01*
X67528000Y-139810000D01*
G75*
G02*
X67428000Y-139710000I0J100000D01*
G01*
X67428000Y-138335000D01*
G75*
G02*
X67528000Y-138235000I100000J0D01*
G01*
G37*
G36*
G01*
X68028000Y-138235000D02*
X68228000Y-138235000D01*
G75*
G02*
X68328000Y-138335000I0J-100000D01*
G01*
X68328000Y-139710000D01*
G75*
G02*
X68228000Y-139810000I-100000J0D01*
G01*
X68028000Y-139810000D01*
G75*
G02*
X67928000Y-139710000I0J100000D01*
G01*
X67928000Y-138335000D01*
G75*
G02*
X68028000Y-138235000I100000J0D01*
G01*
G37*
G36*
G01*
X68528000Y-138235000D02*
X68728000Y-138235000D01*
G75*
G02*
X68828000Y-138335000I0J-100000D01*
G01*
X68828000Y-139710000D01*
G75*
G02*
X68728000Y-139810000I-100000J0D01*
G01*
X68528000Y-139810000D01*
G75*
G02*
X68428000Y-139710000I0J100000D01*
G01*
X68428000Y-138335000D01*
G75*
G02*
X68528000Y-138235000I100000J0D01*
G01*
G37*
G36*
G01*
X69028000Y-138235000D02*
X69228000Y-138235000D01*
G75*
G02*
X69328000Y-138335000I0J-100000D01*
G01*
X69328000Y-139710000D01*
G75*
G02*
X69228000Y-139810000I-100000J0D01*
G01*
X69028000Y-139810000D01*
G75*
G02*
X68928000Y-139710000I0J100000D01*
G01*
X68928000Y-138335000D01*
G75*
G02*
X69028000Y-138235000I100000J0D01*
G01*
G37*
G36*
G01*
X69528000Y-138235000D02*
X69728000Y-138235000D01*
G75*
G02*
X69828000Y-138335000I0J-100000D01*
G01*
X69828000Y-139710000D01*
G75*
G02*
X69728000Y-139810000I-100000J0D01*
G01*
X69528000Y-139810000D01*
G75*
G02*
X69428000Y-139710000I0J100000D01*
G01*
X69428000Y-138335000D01*
G75*
G02*
X69528000Y-138235000I100000J0D01*
G01*
G37*
G36*
G01*
X70028000Y-138235000D02*
X70228000Y-138235000D01*
G75*
G02*
X70328000Y-138335000I0J-100000D01*
G01*
X70328000Y-139710000D01*
G75*
G02*
X70228000Y-139810000I-100000J0D01*
G01*
X70028000Y-139810000D01*
G75*
G02*
X69928000Y-139710000I0J100000D01*
G01*
X69928000Y-138335000D01*
G75*
G02*
X70028000Y-138235000I100000J0D01*
G01*
G37*
G36*
G01*
X70528000Y-138235000D02*
X70728000Y-138235000D01*
G75*
G02*
X70828000Y-138335000I0J-100000D01*
G01*
X70828000Y-139710000D01*
G75*
G02*
X70728000Y-139810000I-100000J0D01*
G01*
X70528000Y-139810000D01*
G75*
G02*
X70428000Y-139710000I0J100000D01*
G01*
X70428000Y-138335000D01*
G75*
G02*
X70528000Y-138235000I100000J0D01*
G01*
G37*
G36*
G01*
X71028000Y-138235000D02*
X71228000Y-138235000D01*
G75*
G02*
X71328000Y-138335000I0J-100000D01*
G01*
X71328000Y-139710000D01*
G75*
G02*
X71228000Y-139810000I-100000J0D01*
G01*
X71028000Y-139810000D01*
G75*
G02*
X70928000Y-139710000I0J100000D01*
G01*
X70928000Y-138335000D01*
G75*
G02*
X71028000Y-138235000I100000J0D01*
G01*
G37*
G36*
G01*
X71528000Y-138235000D02*
X71728000Y-138235000D01*
G75*
G02*
X71828000Y-138335000I0J-100000D01*
G01*
X71828000Y-139710000D01*
G75*
G02*
X71728000Y-139810000I-100000J0D01*
G01*
X71528000Y-139810000D01*
G75*
G02*
X71428000Y-139710000I0J100000D01*
G01*
X71428000Y-138335000D01*
G75*
G02*
X71528000Y-138235000I100000J0D01*
G01*
G37*
G36*
G01*
X72028000Y-138235000D02*
X72228000Y-138235000D01*
G75*
G02*
X72328000Y-138335000I0J-100000D01*
G01*
X72328000Y-139710000D01*
G75*
G02*
X72228000Y-139810000I-100000J0D01*
G01*
X72028000Y-139810000D01*
G75*
G02*
X71928000Y-139710000I0J100000D01*
G01*
X71928000Y-138335000D01*
G75*
G02*
X72028000Y-138235000I100000J0D01*
G01*
G37*
G36*
G01*
X72528000Y-138235000D02*
X72728000Y-138235000D01*
G75*
G02*
X72828000Y-138335000I0J-100000D01*
G01*
X72828000Y-139710000D01*
G75*
G02*
X72728000Y-139810000I-100000J0D01*
G01*
X72528000Y-139810000D01*
G75*
G02*
X72428000Y-139710000I0J100000D01*
G01*
X72428000Y-138335000D01*
G75*
G02*
X72528000Y-138235000I100000J0D01*
G01*
G37*
G36*
G01*
X73028000Y-138235000D02*
X73228000Y-138235000D01*
G75*
G02*
X73328000Y-138335000I0J-100000D01*
G01*
X73328000Y-139710000D01*
G75*
G02*
X73228000Y-139810000I-100000J0D01*
G01*
X73028000Y-139810000D01*
G75*
G02*
X72928000Y-139710000I0J100000D01*
G01*
X72928000Y-138335000D01*
G75*
G02*
X73028000Y-138235000I100000J0D01*
G01*
G37*
G36*
G01*
X73528000Y-138235000D02*
X73728000Y-138235000D01*
G75*
G02*
X73828000Y-138335000I0J-100000D01*
G01*
X73828000Y-139710000D01*
G75*
G02*
X73728000Y-139810000I-100000J0D01*
G01*
X73528000Y-139810000D01*
G75*
G02*
X73428000Y-139710000I0J100000D01*
G01*
X73428000Y-138335000D01*
G75*
G02*
X73528000Y-138235000I100000J0D01*
G01*
G37*
G36*
G01*
X74028000Y-138235000D02*
X74228000Y-138235000D01*
G75*
G02*
X74328000Y-138335000I0J-100000D01*
G01*
X74328000Y-139710000D01*
G75*
G02*
X74228000Y-139810000I-100000J0D01*
G01*
X74028000Y-139810000D01*
G75*
G02*
X73928000Y-139710000I0J100000D01*
G01*
X73928000Y-138335000D01*
G75*
G02*
X74028000Y-138235000I100000J0D01*
G01*
G37*
G36*
G01*
X74528000Y-138235000D02*
X74728000Y-138235000D01*
G75*
G02*
X74828000Y-138335000I0J-100000D01*
G01*
X74828000Y-139710000D01*
G75*
G02*
X74728000Y-139810000I-100000J0D01*
G01*
X74528000Y-139810000D01*
G75*
G02*
X74428000Y-139710000I0J100000D01*
G01*
X74428000Y-138335000D01*
G75*
G02*
X74528000Y-138235000I100000J0D01*
G01*
G37*
G36*
G01*
X75028000Y-138235000D02*
X75228000Y-138235000D01*
G75*
G02*
X75328000Y-138335000I0J-100000D01*
G01*
X75328000Y-139710000D01*
G75*
G02*
X75228000Y-139810000I-100000J0D01*
G01*
X75028000Y-139810000D01*
G75*
G02*
X74928000Y-139710000I0J100000D01*
G01*
X74928000Y-138335000D01*
G75*
G02*
X75028000Y-138235000I100000J0D01*
G01*
G37*
G36*
G01*
X75528000Y-138235000D02*
X75728000Y-138235000D01*
G75*
G02*
X75828000Y-138335000I0J-100000D01*
G01*
X75828000Y-139710000D01*
G75*
G02*
X75728000Y-139810000I-100000J0D01*
G01*
X75528000Y-139810000D01*
G75*
G02*
X75428000Y-139710000I0J100000D01*
G01*
X75428000Y-138335000D01*
G75*
G02*
X75528000Y-138235000I100000J0D01*
G01*
G37*
G36*
G01*
X76028000Y-138235000D02*
X76228000Y-138235000D01*
G75*
G02*
X76328000Y-138335000I0J-100000D01*
G01*
X76328000Y-139710000D01*
G75*
G02*
X76228000Y-139810000I-100000J0D01*
G01*
X76028000Y-139810000D01*
G75*
G02*
X75928000Y-139710000I0J100000D01*
G01*
X75928000Y-138335000D01*
G75*
G02*
X76028000Y-138235000I100000J0D01*
G01*
G37*
G36*
G01*
X76528000Y-138235000D02*
X76728000Y-138235000D01*
G75*
G02*
X76828000Y-138335000I0J-100000D01*
G01*
X76828000Y-139710000D01*
G75*
G02*
X76728000Y-139810000I-100000J0D01*
G01*
X76528000Y-139810000D01*
G75*
G02*
X76428000Y-139710000I0J100000D01*
G01*
X76428000Y-138335000D01*
G75*
G02*
X76528000Y-138235000I100000J0D01*
G01*
G37*
G36*
G01*
X77028000Y-138235000D02*
X77228000Y-138235000D01*
G75*
G02*
X77328000Y-138335000I0J-100000D01*
G01*
X77328000Y-139710000D01*
G75*
G02*
X77228000Y-139810000I-100000J0D01*
G01*
X77028000Y-139810000D01*
G75*
G02*
X76928000Y-139710000I0J100000D01*
G01*
X76928000Y-138335000D01*
G75*
G02*
X77028000Y-138235000I100000J0D01*
G01*
G37*
G36*
G01*
X77528000Y-138235000D02*
X77728000Y-138235000D01*
G75*
G02*
X77828000Y-138335000I0J-100000D01*
G01*
X77828000Y-139710000D01*
G75*
G02*
X77728000Y-139810000I-100000J0D01*
G01*
X77528000Y-139810000D01*
G75*
G02*
X77428000Y-139710000I0J100000D01*
G01*
X77428000Y-138335000D01*
G75*
G02*
X77528000Y-138235000I100000J0D01*
G01*
G37*
%TD*%
D11*
%TO.C,CSCL*%
X91000000Y-148000000D03*
%TD*%
%TO.C,CSDA*%
X91000000Y-144800000D03*
%TD*%
%TO.C,C2*%
G36*
G01*
X91775000Y-150721738D02*
X91775000Y-151678262D01*
G75*
G02*
X91503262Y-151950000I-271738J0D01*
G01*
X90796738Y-151950000D01*
G75*
G02*
X90525000Y-151678262I0J271738D01*
G01*
X90525000Y-150721738D01*
G75*
G02*
X90796738Y-150450000I271738J0D01*
G01*
X91503262Y-150450000D01*
G75*
G02*
X91775000Y-150721738I0J-271738D01*
G01*
G37*
G36*
G01*
X93825000Y-150721738D02*
X93825000Y-151678262D01*
G75*
G02*
X93553262Y-151950000I-271738J0D01*
G01*
X92846738Y-151950000D01*
G75*
G02*
X92575000Y-151678262I0J271738D01*
G01*
X92575000Y-150721738D01*
G75*
G02*
X92846738Y-150450000I271738J0D01*
G01*
X93553262Y-150450000D01*
G75*
G02*
X93825000Y-150721738I0J-271738D01*
G01*
G37*
%TD*%
%TO.C,C3*%
G36*
G01*
X79478262Y-124375000D02*
X78521738Y-124375000D01*
G75*
G02*
X78250000Y-124103262I0J271738D01*
G01*
X78250000Y-123396738D01*
G75*
G02*
X78521738Y-123125000I271738J0D01*
G01*
X79478262Y-123125000D01*
G75*
G02*
X79750000Y-123396738I0J-271738D01*
G01*
X79750000Y-124103262D01*
G75*
G02*
X79478262Y-124375000I-271738J0D01*
G01*
G37*
G36*
G01*
X79478262Y-122325000D02*
X78521738Y-122325000D01*
G75*
G02*
X78250000Y-122053262I0J271738D01*
G01*
X78250000Y-121346738D01*
G75*
G02*
X78521738Y-121075000I271738J0D01*
G01*
X79478262Y-121075000D01*
G75*
G02*
X79750000Y-121346738I0J-271738D01*
G01*
X79750000Y-122053262D01*
G75*
G02*
X79478262Y-122325000I-271738J0D01*
G01*
G37*
%TD*%
%TO.C,C4*%
G36*
G01*
X79478262Y-128150000D02*
X78521738Y-128150000D01*
G75*
G02*
X78250000Y-127878262I0J271738D01*
G01*
X78250000Y-127171738D01*
G75*
G02*
X78521738Y-126900000I271738J0D01*
G01*
X79478262Y-126900000D01*
G75*
G02*
X79750000Y-127171738I0J-271738D01*
G01*
X79750000Y-127878262D01*
G75*
G02*
X79478262Y-128150000I-271738J0D01*
G01*
G37*
G36*
G01*
X79478262Y-126100000D02*
X78521738Y-126100000D01*
G75*
G02*
X78250000Y-125828262I0J271738D01*
G01*
X78250000Y-125121738D01*
G75*
G02*
X78521738Y-124850000I271738J0D01*
G01*
X79478262Y-124850000D01*
G75*
G02*
X79750000Y-125121738I0J-271738D01*
G01*
X79750000Y-125828262D01*
G75*
G02*
X79478262Y-126100000I-271738J0D01*
G01*
G37*
%TD*%
%TO.C,C8*%
G36*
G01*
X94771738Y-138875000D02*
X95728262Y-138875000D01*
G75*
G02*
X96000000Y-139146738I0J-271738D01*
G01*
X96000000Y-139853262D01*
G75*
G02*
X95728262Y-140125000I-271738J0D01*
G01*
X94771738Y-140125000D01*
G75*
G02*
X94500000Y-139853262I0J271738D01*
G01*
X94500000Y-139146738D01*
G75*
G02*
X94771738Y-138875000I271738J0D01*
G01*
G37*
G36*
G01*
X94771738Y-140925000D02*
X95728262Y-140925000D01*
G75*
G02*
X96000000Y-141196738I0J-271738D01*
G01*
X96000000Y-141903262D01*
G75*
G02*
X95728262Y-142175000I-271738J0D01*
G01*
X94771738Y-142175000D01*
G75*
G02*
X94500000Y-141903262I0J271738D01*
G01*
X94500000Y-141196738D01*
G75*
G02*
X94771738Y-140925000I271738J0D01*
G01*
G37*
%TD*%
%TO.C,C9*%
G36*
G01*
X91021738Y-140925000D02*
X91978262Y-140925000D01*
G75*
G02*
X92250000Y-141196738I0J-271738D01*
G01*
X92250000Y-141903262D01*
G75*
G02*
X91978262Y-142175000I-271738J0D01*
G01*
X91021738Y-142175000D01*
G75*
G02*
X90750000Y-141903262I0J271738D01*
G01*
X90750000Y-141196738D01*
G75*
G02*
X91021738Y-140925000I271738J0D01*
G01*
G37*
G36*
G01*
X91021738Y-138875000D02*
X91978262Y-138875000D01*
G75*
G02*
X92250000Y-139146738I0J-271738D01*
G01*
X92250000Y-139853262D01*
G75*
G02*
X91978262Y-140125000I-271738J0D01*
G01*
X91021738Y-140125000D01*
G75*
G02*
X90750000Y-139853262I0J271738D01*
G01*
X90750000Y-139146738D01*
G75*
G02*
X91021738Y-138875000I271738J0D01*
G01*
G37*
%TD*%
%TO.C,C10*%
G36*
G01*
X87771738Y-138850000D02*
X88728262Y-138850000D01*
G75*
G02*
X89000000Y-139121738I0J-271738D01*
G01*
X89000000Y-139828262D01*
G75*
G02*
X88728262Y-140100000I-271738J0D01*
G01*
X87771738Y-140100000D01*
G75*
G02*
X87500000Y-139828262I0J271738D01*
G01*
X87500000Y-139121738D01*
G75*
G02*
X87771738Y-138850000I271738J0D01*
G01*
G37*
G36*
G01*
X87771738Y-140900000D02*
X88728262Y-140900000D01*
G75*
G02*
X89000000Y-141171738I0J-271738D01*
G01*
X89000000Y-141878262D01*
G75*
G02*
X88728262Y-142150000I-271738J0D01*
G01*
X87771738Y-142150000D01*
G75*
G02*
X87500000Y-141878262I0J271738D01*
G01*
X87500000Y-141171738D01*
G75*
G02*
X87771738Y-140900000I271738J0D01*
G01*
G37*
%TD*%
%TO.C,C11*%
G36*
G01*
X83375000Y-139978262D02*
X83375000Y-139021738D01*
G75*
G02*
X83646738Y-138750000I271738J0D01*
G01*
X84353262Y-138750000D01*
G75*
G02*
X84625000Y-139021738I0J-271738D01*
G01*
X84625000Y-139978262D01*
G75*
G02*
X84353262Y-140250000I-271738J0D01*
G01*
X83646738Y-140250000D01*
G75*
G02*
X83375000Y-139978262I0J271738D01*
G01*
G37*
G36*
G01*
X85425000Y-139978262D02*
X85425000Y-139021738D01*
G75*
G02*
X85696738Y-138750000I271738J0D01*
G01*
X86403262Y-138750000D01*
G75*
G02*
X86675000Y-139021738I0J-271738D01*
G01*
X86675000Y-139978262D01*
G75*
G02*
X86403262Y-140250000I-271738J0D01*
G01*
X85696738Y-140250000D01*
G75*
G02*
X85425000Y-139978262I0J271738D01*
G01*
G37*
%TD*%
%TO.C,C29*%
G36*
G01*
X110150000Y-125978262D02*
X110150000Y-125021738D01*
G75*
G02*
X110421738Y-124750000I271738J0D01*
G01*
X111128262Y-124750000D01*
G75*
G02*
X111400000Y-125021738I0J-271738D01*
G01*
X111400000Y-125978262D01*
G75*
G02*
X111128262Y-126250000I-271738J0D01*
G01*
X110421738Y-126250000D01*
G75*
G02*
X110150000Y-125978262I0J271738D01*
G01*
G37*
G36*
G01*
X108100000Y-125978262D02*
X108100000Y-125021738D01*
G75*
G02*
X108371738Y-124750000I271738J0D01*
G01*
X109078262Y-124750000D01*
G75*
G02*
X109350000Y-125021738I0J-271738D01*
G01*
X109350000Y-125978262D01*
G75*
G02*
X109078262Y-126250000I-271738J0D01*
G01*
X108371738Y-126250000D01*
G75*
G02*
X108100000Y-125978262I0J271738D01*
G01*
G37*
%TD*%
%TO.C,C30*%
G36*
G01*
X108100000Y-123978262D02*
X108100000Y-123021738D01*
G75*
G02*
X108371738Y-122750000I271738J0D01*
G01*
X109078262Y-122750000D01*
G75*
G02*
X109350000Y-123021738I0J-271738D01*
G01*
X109350000Y-123978262D01*
G75*
G02*
X109078262Y-124250000I-271738J0D01*
G01*
X108371738Y-124250000D01*
G75*
G02*
X108100000Y-123978262I0J271738D01*
G01*
G37*
G36*
G01*
X110150000Y-123978262D02*
X110150000Y-123021738D01*
G75*
G02*
X110421738Y-122750000I271738J0D01*
G01*
X111128262Y-122750000D01*
G75*
G02*
X111400000Y-123021738I0J-271738D01*
G01*
X111400000Y-123978262D01*
G75*
G02*
X111128262Y-124250000I-271738J0D01*
G01*
X110421738Y-124250000D01*
G75*
G02*
X110150000Y-123978262I0J271738D01*
G01*
G37*
%TD*%
%TO.C,C32*%
G36*
G01*
X107978262Y-112900000D02*
X107021738Y-112900000D01*
G75*
G02*
X106750000Y-112628262I0J271738D01*
G01*
X106750000Y-111921738D01*
G75*
G02*
X107021738Y-111650000I271738J0D01*
G01*
X107978262Y-111650000D01*
G75*
G02*
X108250000Y-111921738I0J-271738D01*
G01*
X108250000Y-112628262D01*
G75*
G02*
X107978262Y-112900000I-271738J0D01*
G01*
G37*
G36*
G01*
X107978262Y-110850000D02*
X107021738Y-110850000D01*
G75*
G02*
X106750000Y-110578262I0J271738D01*
G01*
X106750000Y-109871738D01*
G75*
G02*
X107021738Y-109600000I271738J0D01*
G01*
X107978262Y-109600000D01*
G75*
G02*
X108250000Y-109871738I0J-271738D01*
G01*
X108250000Y-110578262D01*
G75*
G02*
X107978262Y-110850000I-271738J0D01*
G01*
G37*
%TD*%
%TO.C,C33*%
G36*
G01*
X109978262Y-110850000D02*
X109021738Y-110850000D01*
G75*
G02*
X108750000Y-110578262I0J271738D01*
G01*
X108750000Y-109871738D01*
G75*
G02*
X109021738Y-109600000I271738J0D01*
G01*
X109978262Y-109600000D01*
G75*
G02*
X110250000Y-109871738I0J-271738D01*
G01*
X110250000Y-110578262D01*
G75*
G02*
X109978262Y-110850000I-271738J0D01*
G01*
G37*
G36*
G01*
X109978262Y-112900000D02*
X109021738Y-112900000D01*
G75*
G02*
X108750000Y-112628262I0J271738D01*
G01*
X108750000Y-111921738D01*
G75*
G02*
X109021738Y-111650000I271738J0D01*
G01*
X109978262Y-111650000D01*
G75*
G02*
X110250000Y-111921738I0J-271738D01*
G01*
X110250000Y-112628262D01*
G75*
G02*
X109978262Y-112900000I-271738J0D01*
G01*
G37*
%TD*%
%TO.C,C1*%
G36*
G01*
X102875000Y-159978262D02*
X102875000Y-159021738D01*
G75*
G02*
X103146738Y-158750000I271738J0D01*
G01*
X103853262Y-158750000D01*
G75*
G02*
X104125000Y-159021738I0J-271738D01*
G01*
X104125000Y-159978262D01*
G75*
G02*
X103853262Y-160250000I-271738J0D01*
G01*
X103146738Y-160250000D01*
G75*
G02*
X102875000Y-159978262I0J271738D01*
G01*
G37*
G36*
G01*
X100825000Y-159978262D02*
X100825000Y-159021738D01*
G75*
G02*
X101096738Y-158750000I271738J0D01*
G01*
X101803262Y-158750000D01*
G75*
G02*
X102075000Y-159021738I0J-271738D01*
G01*
X102075000Y-159978262D01*
G75*
G02*
X101803262Y-160250000I-271738J0D01*
G01*
X101096738Y-160250000D01*
G75*
G02*
X100825000Y-159978262I0J271738D01*
G01*
G37*
%TD*%
%TO.C,C53*%
G36*
G01*
X107021738Y-136125000D02*
X107978262Y-136125000D01*
G75*
G02*
X108250000Y-136396738I0J-271738D01*
G01*
X108250000Y-137103262D01*
G75*
G02*
X107978262Y-137375000I-271738J0D01*
G01*
X107021738Y-137375000D01*
G75*
G02*
X106750000Y-137103262I0J271738D01*
G01*
X106750000Y-136396738D01*
G75*
G02*
X107021738Y-136125000I271738J0D01*
G01*
G37*
G36*
G01*
X107021738Y-138175000D02*
X107978262Y-138175000D01*
G75*
G02*
X108250000Y-138446738I0J-271738D01*
G01*
X108250000Y-139153262D01*
G75*
G02*
X107978262Y-139425000I-271738J0D01*
G01*
X107021738Y-139425000D01*
G75*
G02*
X106750000Y-139153262I0J271738D01*
G01*
X106750000Y-138446738D01*
G75*
G02*
X107021738Y-138175000I271738J0D01*
G01*
G37*
%TD*%
%TO.C,C21*%
G36*
G01*
X85728262Y-155928000D02*
X84771738Y-155928000D01*
G75*
G02*
X84500000Y-155656262I0J271738D01*
G01*
X84500000Y-154949738D01*
G75*
G02*
X84771738Y-154678000I271738J0D01*
G01*
X85728262Y-154678000D01*
G75*
G02*
X86000000Y-154949738I0J-271738D01*
G01*
X86000000Y-155656262D01*
G75*
G02*
X85728262Y-155928000I-271738J0D01*
G01*
G37*
G36*
G01*
X85728262Y-157978000D02*
X84771738Y-157978000D01*
G75*
G02*
X84500000Y-157706262I0J271738D01*
G01*
X84500000Y-156999738D01*
G75*
G02*
X84771738Y-156728000I271738J0D01*
G01*
X85728262Y-156728000D01*
G75*
G02*
X86000000Y-156999738I0J-271738D01*
G01*
X86000000Y-157706262D01*
G75*
G02*
X85728262Y-157978000I-271738J0D01*
G01*
G37*
%TD*%
%TO.C,C22*%
G36*
G01*
X78771738Y-154678000D02*
X79728262Y-154678000D01*
G75*
G02*
X80000000Y-154949738I0J-271738D01*
G01*
X80000000Y-155656262D01*
G75*
G02*
X79728262Y-155928000I-271738J0D01*
G01*
X78771738Y-155928000D01*
G75*
G02*
X78500000Y-155656262I0J271738D01*
G01*
X78500000Y-154949738D01*
G75*
G02*
X78771738Y-154678000I271738J0D01*
G01*
G37*
G36*
G01*
X78771738Y-156728000D02*
X79728262Y-156728000D01*
G75*
G02*
X80000000Y-156999738I0J-271738D01*
G01*
X80000000Y-157706262D01*
G75*
G02*
X79728262Y-157978000I-271738J0D01*
G01*
X78771738Y-157978000D01*
G75*
G02*
X78500000Y-157706262I0J271738D01*
G01*
X78500000Y-156999738D01*
G75*
G02*
X78771738Y-156728000I271738J0D01*
G01*
G37*
%TD*%
%TO.C,C23*%
G36*
G01*
X60061000Y-146460738D02*
X60061000Y-147417262D01*
G75*
G02*
X59789262Y-147689000I-271738J0D01*
G01*
X59082738Y-147689000D01*
G75*
G02*
X58811000Y-147417262I0J271738D01*
G01*
X58811000Y-146460738D01*
G75*
G02*
X59082738Y-146189000I271738J0D01*
G01*
X59789262Y-146189000D01*
G75*
G02*
X60061000Y-146460738I0J-271738D01*
G01*
G37*
G36*
G01*
X62111000Y-146460738D02*
X62111000Y-147417262D01*
G75*
G02*
X61839262Y-147689000I-271738J0D01*
G01*
X61132738Y-147689000D01*
G75*
G02*
X60861000Y-147417262I0J271738D01*
G01*
X60861000Y-146460738D01*
G75*
G02*
X61132738Y-146189000I271738J0D01*
G01*
X61839262Y-146189000D01*
G75*
G02*
X62111000Y-146460738I0J-271738D01*
G01*
G37*
%TD*%
%TO.C,C24*%
G36*
G01*
X68169262Y-137041000D02*
X67212738Y-137041000D01*
G75*
G02*
X66941000Y-136769262I0J271738D01*
G01*
X66941000Y-136062738D01*
G75*
G02*
X67212738Y-135791000I271738J0D01*
G01*
X68169262Y-135791000D01*
G75*
G02*
X68441000Y-136062738I0J-271738D01*
G01*
X68441000Y-136769262D01*
G75*
G02*
X68169262Y-137041000I-271738J0D01*
G01*
G37*
G36*
G01*
X68169262Y-134991000D02*
X67212738Y-134991000D01*
G75*
G02*
X66941000Y-134719262I0J271738D01*
G01*
X66941000Y-134012738D01*
G75*
G02*
X67212738Y-133741000I271738J0D01*
G01*
X68169262Y-133741000D01*
G75*
G02*
X68441000Y-134012738I0J-271738D01*
G01*
X68441000Y-134719262D01*
G75*
G02*
X68169262Y-134991000I-271738J0D01*
G01*
G37*
%TD*%
%TO.C,C25*%
G36*
G01*
X70201262Y-134991000D02*
X69244738Y-134991000D01*
G75*
G02*
X68973000Y-134719262I0J271738D01*
G01*
X68973000Y-134012738D01*
G75*
G02*
X69244738Y-133741000I271738J0D01*
G01*
X70201262Y-133741000D01*
G75*
G02*
X70473000Y-134012738I0J-271738D01*
G01*
X70473000Y-134719262D01*
G75*
G02*
X70201262Y-134991000I-271738J0D01*
G01*
G37*
G36*
G01*
X70201262Y-137041000D02*
X69244738Y-137041000D01*
G75*
G02*
X68973000Y-136769262I0J271738D01*
G01*
X68973000Y-136062738D01*
G75*
G02*
X69244738Y-135791000I271738J0D01*
G01*
X70201262Y-135791000D01*
G75*
G02*
X70473000Y-136062738I0J-271738D01*
G01*
X70473000Y-136769262D01*
G75*
G02*
X70201262Y-137041000I-271738J0D01*
G01*
G37*
%TD*%
%TO.C,C26*%
G36*
G01*
X76335000Y-135157738D02*
X76335000Y-136114262D01*
G75*
G02*
X76063262Y-136386000I-271738J0D01*
G01*
X75356738Y-136386000D01*
G75*
G02*
X75085000Y-136114262I0J271738D01*
G01*
X75085000Y-135157738D01*
G75*
G02*
X75356738Y-134886000I271738J0D01*
G01*
X76063262Y-134886000D01*
G75*
G02*
X76335000Y-135157738I0J-271738D01*
G01*
G37*
G36*
G01*
X74285000Y-135157738D02*
X74285000Y-136114262D01*
G75*
G02*
X74013262Y-136386000I-271738J0D01*
G01*
X73306738Y-136386000D01*
G75*
G02*
X73035000Y-136114262I0J271738D01*
G01*
X73035000Y-135157738D01*
G75*
G02*
X73306738Y-134886000I271738J0D01*
G01*
X74013262Y-134886000D01*
G75*
G02*
X74285000Y-135157738I0J-271738D01*
G01*
G37*
%TD*%
%TO.C,C27*%
G36*
G01*
X83068000Y-148478262D02*
X83068000Y-147521738D01*
G75*
G02*
X83339738Y-147250000I271738J0D01*
G01*
X84046262Y-147250000D01*
G75*
G02*
X84318000Y-147521738I0J-271738D01*
G01*
X84318000Y-148478262D01*
G75*
G02*
X84046262Y-148750000I-271738J0D01*
G01*
X83339738Y-148750000D01*
G75*
G02*
X83068000Y-148478262I0J271738D01*
G01*
G37*
G36*
G01*
X81018000Y-148478262D02*
X81018000Y-147521738D01*
G75*
G02*
X81289738Y-147250000I271738J0D01*
G01*
X81996262Y-147250000D01*
G75*
G02*
X82268000Y-147521738I0J-271738D01*
G01*
X82268000Y-148478262D01*
G75*
G02*
X81996262Y-148750000I-271738J0D01*
G01*
X81289738Y-148750000D01*
G75*
G02*
X81018000Y-148478262I0J271738D01*
G01*
G37*
%TD*%
%TO.C,C13*%
G36*
G01*
X124125000Y-137478262D02*
X124125000Y-136521738D01*
G75*
G02*
X124396738Y-136250000I271738J0D01*
G01*
X125103262Y-136250000D01*
G75*
G02*
X125375000Y-136521738I0J-271738D01*
G01*
X125375000Y-137478262D01*
G75*
G02*
X125103262Y-137750000I-271738J0D01*
G01*
X124396738Y-137750000D01*
G75*
G02*
X124125000Y-137478262I0J271738D01*
G01*
G37*
G36*
G01*
X126175000Y-137478262D02*
X126175000Y-136521738D01*
G75*
G02*
X126446738Y-136250000I271738J0D01*
G01*
X127153262Y-136250000D01*
G75*
G02*
X127425000Y-136521738I0J-271738D01*
G01*
X127425000Y-137478262D01*
G75*
G02*
X127153262Y-137750000I-271738J0D01*
G01*
X126446738Y-137750000D01*
G75*
G02*
X126175000Y-137478262I0J271738D01*
G01*
G37*
%TD*%
%TO.C,C14*%
G36*
G01*
X129637262Y-131816000D02*
X128680738Y-131816000D01*
G75*
G02*
X128409000Y-131544262I0J271738D01*
G01*
X128409000Y-130837738D01*
G75*
G02*
X128680738Y-130566000I271738J0D01*
G01*
X129637262Y-130566000D01*
G75*
G02*
X129909000Y-130837738I0J-271738D01*
G01*
X129909000Y-131544262D01*
G75*
G02*
X129637262Y-131816000I-271738J0D01*
G01*
G37*
G36*
G01*
X129637262Y-133866000D02*
X128680738Y-133866000D01*
G75*
G02*
X128409000Y-133594262I0J271738D01*
G01*
X128409000Y-132887738D01*
G75*
G02*
X128680738Y-132616000I271738J0D01*
G01*
X129637262Y-132616000D01*
G75*
G02*
X129909000Y-132887738I0J-271738D01*
G01*
X129909000Y-133594262D01*
G75*
G02*
X129637262Y-133866000I-271738J0D01*
G01*
G37*
%TD*%
%TO.C,C15*%
G36*
G01*
X129637262Y-124849000D02*
X128680738Y-124849000D01*
G75*
G02*
X128409000Y-124577262I0J271738D01*
G01*
X128409000Y-123870738D01*
G75*
G02*
X128680738Y-123599000I271738J0D01*
G01*
X129637262Y-123599000D01*
G75*
G02*
X129909000Y-123870738I0J-271738D01*
G01*
X129909000Y-124577262D01*
G75*
G02*
X129637262Y-124849000I-271738J0D01*
G01*
G37*
G36*
G01*
X129637262Y-122799000D02*
X128680738Y-122799000D01*
G75*
G02*
X128409000Y-122527262I0J271738D01*
G01*
X128409000Y-121820738D01*
G75*
G02*
X128680738Y-121549000I271738J0D01*
G01*
X129637262Y-121549000D01*
G75*
G02*
X129909000Y-121820738I0J-271738D01*
G01*
X129909000Y-122527262D01*
G75*
G02*
X129637262Y-122799000I-271738J0D01*
G01*
G37*
%TD*%
%TO.C,C16*%
G36*
G01*
X128680738Y-113539000D02*
X129637262Y-113539000D01*
G75*
G02*
X129909000Y-113810738I0J-271738D01*
G01*
X129909000Y-114517262D01*
G75*
G02*
X129637262Y-114789000I-271738J0D01*
G01*
X128680738Y-114789000D01*
G75*
G02*
X128409000Y-114517262I0J271738D01*
G01*
X128409000Y-113810738D01*
G75*
G02*
X128680738Y-113539000I271738J0D01*
G01*
G37*
G36*
G01*
X128680738Y-115589000D02*
X129637262Y-115589000D01*
G75*
G02*
X129909000Y-115860738I0J-271738D01*
G01*
X129909000Y-116567262D01*
G75*
G02*
X129637262Y-116839000I-271738J0D01*
G01*
X128680738Y-116839000D01*
G75*
G02*
X128409000Y-116567262I0J271738D01*
G01*
X128409000Y-115860738D01*
G75*
G02*
X128680738Y-115589000I271738J0D01*
G01*
G37*
%TD*%
%TO.C,C18*%
G36*
G01*
X128680738Y-134575000D02*
X129637262Y-134575000D01*
G75*
G02*
X129909000Y-134846738I0J-271738D01*
G01*
X129909000Y-135553262D01*
G75*
G02*
X129637262Y-135825000I-271738J0D01*
G01*
X128680738Y-135825000D01*
G75*
G02*
X128409000Y-135553262I0J271738D01*
G01*
X128409000Y-134846738D01*
G75*
G02*
X128680738Y-134575000I271738J0D01*
G01*
G37*
G36*
G01*
X128680738Y-136625000D02*
X129637262Y-136625000D01*
G75*
G02*
X129909000Y-136896738I0J-271738D01*
G01*
X129909000Y-137603262D01*
G75*
G02*
X129637262Y-137875000I-271738J0D01*
G01*
X128680738Y-137875000D01*
G75*
G02*
X128409000Y-137603262I0J271738D01*
G01*
X128409000Y-136896738D01*
G75*
G02*
X128680738Y-136625000I271738J0D01*
G01*
G37*
%TD*%
%TO.C,C19*%
G36*
G01*
X129637262Y-126972000D02*
X128680738Y-126972000D01*
G75*
G02*
X128409000Y-126700262I0J271738D01*
G01*
X128409000Y-125993738D01*
G75*
G02*
X128680738Y-125722000I271738J0D01*
G01*
X129637262Y-125722000D01*
G75*
G02*
X129909000Y-125993738I0J-271738D01*
G01*
X129909000Y-126700262D01*
G75*
G02*
X129637262Y-126972000I-271738J0D01*
G01*
G37*
G36*
G01*
X129637262Y-129022000D02*
X128680738Y-129022000D01*
G75*
G02*
X128409000Y-128750262I0J271738D01*
G01*
X128409000Y-128043738D01*
G75*
G02*
X128680738Y-127772000I271738J0D01*
G01*
X129637262Y-127772000D01*
G75*
G02*
X129909000Y-128043738I0J-271738D01*
G01*
X129909000Y-128750262D01*
G75*
G02*
X129637262Y-129022000I-271738J0D01*
G01*
G37*
%TD*%
%TO.C,C38*%
G36*
G01*
X85775000Y-151678262D02*
X85775000Y-150721738D01*
G75*
G02*
X86046738Y-150450000I271738J0D01*
G01*
X86753262Y-150450000D01*
G75*
G02*
X87025000Y-150721738I0J-271738D01*
G01*
X87025000Y-151678262D01*
G75*
G02*
X86753262Y-151950000I-271738J0D01*
G01*
X86046738Y-151950000D01*
G75*
G02*
X85775000Y-151678262I0J271738D01*
G01*
G37*
G36*
G01*
X87825000Y-151678262D02*
X87825000Y-150721738D01*
G75*
G02*
X88096738Y-150450000I271738J0D01*
G01*
X88803262Y-150450000D01*
G75*
G02*
X89075000Y-150721738I0J-271738D01*
G01*
X89075000Y-151678262D01*
G75*
G02*
X88803262Y-151950000I-271738J0D01*
G01*
X88096738Y-151950000D01*
G75*
G02*
X87825000Y-151678262I0J271738D01*
G01*
G37*
%TD*%
%TO.C,C39*%
G36*
G01*
X87025000Y-144321738D02*
X87025000Y-145278262D01*
G75*
G02*
X86753262Y-145550000I-271738J0D01*
G01*
X86046738Y-145550000D01*
G75*
G02*
X85775000Y-145278262I0J271738D01*
G01*
X85775000Y-144321738D01*
G75*
G02*
X86046738Y-144050000I271738J0D01*
G01*
X86753262Y-144050000D01*
G75*
G02*
X87025000Y-144321738I0J-271738D01*
G01*
G37*
G36*
G01*
X89075000Y-144321738D02*
X89075000Y-145278262D01*
G75*
G02*
X88803262Y-145550000I-271738J0D01*
G01*
X88096738Y-145550000D01*
G75*
G02*
X87825000Y-145278262I0J271738D01*
G01*
X87825000Y-144321738D01*
G75*
G02*
X88096738Y-144050000I271738J0D01*
G01*
X88803262Y-144050000D01*
G75*
G02*
X89075000Y-144321738I0J-271738D01*
G01*
G37*
%TD*%
%TO.C,C40*%
G36*
G01*
X72233262Y-137023000D02*
X71276738Y-137023000D01*
G75*
G02*
X71005000Y-136751262I0J271738D01*
G01*
X71005000Y-136044738D01*
G75*
G02*
X71276738Y-135773000I271738J0D01*
G01*
X72233262Y-135773000D01*
G75*
G02*
X72505000Y-136044738I0J-271738D01*
G01*
X72505000Y-136751262D01*
G75*
G02*
X72233262Y-137023000I-271738J0D01*
G01*
G37*
G36*
G01*
X72233262Y-134973000D02*
X71276738Y-134973000D01*
G75*
G02*
X71005000Y-134701262I0J271738D01*
G01*
X71005000Y-133994738D01*
G75*
G02*
X71276738Y-133723000I271738J0D01*
G01*
X72233262Y-133723000D01*
G75*
G02*
X72505000Y-133994738I0J-271738D01*
G01*
X72505000Y-134701262D01*
G75*
G02*
X72233262Y-134973000I-271738J0D01*
G01*
G37*
%TD*%
%TO.C,C41*%
G36*
G01*
X78075262Y-134973000D02*
X77118738Y-134973000D01*
G75*
G02*
X76847000Y-134701262I0J271738D01*
G01*
X76847000Y-133994738D01*
G75*
G02*
X77118738Y-133723000I271738J0D01*
G01*
X78075262Y-133723000D01*
G75*
G02*
X78347000Y-133994738I0J-271738D01*
G01*
X78347000Y-134701262D01*
G75*
G02*
X78075262Y-134973000I-271738J0D01*
G01*
G37*
G36*
G01*
X78075262Y-137023000D02*
X77118738Y-137023000D01*
G75*
G02*
X76847000Y-136751262I0J271738D01*
G01*
X76847000Y-136044738D01*
G75*
G02*
X77118738Y-135773000I271738J0D01*
G01*
X78075262Y-135773000D01*
G75*
G02*
X78347000Y-136044738I0J-271738D01*
G01*
X78347000Y-136751262D01*
G75*
G02*
X78075262Y-137023000I-271738J0D01*
G01*
G37*
%TD*%
%TO.C,C42*%
G36*
G01*
X81018000Y-145893262D02*
X81018000Y-144936738D01*
G75*
G02*
X81289738Y-144665000I271738J0D01*
G01*
X81996262Y-144665000D01*
G75*
G02*
X82268000Y-144936738I0J-271738D01*
G01*
X82268000Y-145893262D01*
G75*
G02*
X81996262Y-146165000I-271738J0D01*
G01*
X81289738Y-146165000D01*
G75*
G02*
X81018000Y-145893262I0J271738D01*
G01*
G37*
G36*
G01*
X83068000Y-145893262D02*
X83068000Y-144936738D01*
G75*
G02*
X83339738Y-144665000I271738J0D01*
G01*
X84046262Y-144665000D01*
G75*
G02*
X84318000Y-144936738I0J-271738D01*
G01*
X84318000Y-145893262D01*
G75*
G02*
X84046262Y-146165000I-271738J0D01*
G01*
X83339738Y-146165000D01*
G75*
G02*
X83068000Y-145893262I0J271738D01*
G01*
G37*
%TD*%
%TO.C,C43*%
G36*
G01*
X60052000Y-144428738D02*
X60052000Y-145385262D01*
G75*
G02*
X59780262Y-145657000I-271738J0D01*
G01*
X59073738Y-145657000D01*
G75*
G02*
X58802000Y-145385262I0J271738D01*
G01*
X58802000Y-144428738D01*
G75*
G02*
X59073738Y-144157000I271738J0D01*
G01*
X59780262Y-144157000D01*
G75*
G02*
X60052000Y-144428738I0J-271738D01*
G01*
G37*
G36*
G01*
X62102000Y-144428738D02*
X62102000Y-145385262D01*
G75*
G02*
X61830262Y-145657000I-271738J0D01*
G01*
X61123738Y-145657000D01*
G75*
G02*
X60852000Y-145385262I0J271738D01*
G01*
X60852000Y-144428738D01*
G75*
G02*
X61123738Y-144157000I271738J0D01*
G01*
X61830262Y-144157000D01*
G75*
G02*
X62102000Y-144428738I0J-271738D01*
G01*
G37*
%TD*%
%TO.C,C44*%
G36*
G01*
X84771738Y-159575000D02*
X85728262Y-159575000D01*
G75*
G02*
X86000000Y-159846738I0J-271738D01*
G01*
X86000000Y-160553262D01*
G75*
G02*
X85728262Y-160825000I-271738J0D01*
G01*
X84771738Y-160825000D01*
G75*
G02*
X84500000Y-160553262I0J271738D01*
G01*
X84500000Y-159846738D01*
G75*
G02*
X84771738Y-159575000I271738J0D01*
G01*
G37*
G36*
G01*
X84771738Y-161625000D02*
X85728262Y-161625000D01*
G75*
G02*
X86000000Y-161896738I0J-271738D01*
G01*
X86000000Y-162603262D01*
G75*
G02*
X85728262Y-162875000I-271738J0D01*
G01*
X84771738Y-162875000D01*
G75*
G02*
X84500000Y-162603262I0J271738D01*
G01*
X84500000Y-161896738D01*
G75*
G02*
X84771738Y-161625000I271738J0D01*
G01*
G37*
%TD*%
%TO.C,C45*%
G36*
G01*
X79728262Y-160850000D02*
X78771738Y-160850000D01*
G75*
G02*
X78500000Y-160578262I0J271738D01*
G01*
X78500000Y-159871738D01*
G75*
G02*
X78771738Y-159600000I271738J0D01*
G01*
X79728262Y-159600000D01*
G75*
G02*
X80000000Y-159871738I0J-271738D01*
G01*
X80000000Y-160578262D01*
G75*
G02*
X79728262Y-160850000I-271738J0D01*
G01*
G37*
G36*
G01*
X79728262Y-162900000D02*
X78771738Y-162900000D01*
G75*
G02*
X78500000Y-162628262I0J271738D01*
G01*
X78500000Y-161921738D01*
G75*
G02*
X78771738Y-161650000I271738J0D01*
G01*
X79728262Y-161650000D01*
G75*
G02*
X80000000Y-161921738I0J-271738D01*
G01*
X80000000Y-162628262D01*
G75*
G02*
X79728262Y-162900000I-271738J0D01*
G01*
G37*
%TD*%
%TO.C,C56*%
G36*
G01*
X102900000Y-156978262D02*
X102900000Y-156021738D01*
G75*
G02*
X103171738Y-155750000I271738J0D01*
G01*
X103878262Y-155750000D01*
G75*
G02*
X104150000Y-156021738I0J-271738D01*
G01*
X104150000Y-156978262D01*
G75*
G02*
X103878262Y-157250000I-271738J0D01*
G01*
X103171738Y-157250000D01*
G75*
G02*
X102900000Y-156978262I0J271738D01*
G01*
G37*
G36*
G01*
X100850000Y-156978262D02*
X100850000Y-156021738D01*
G75*
G02*
X101121738Y-155750000I271738J0D01*
G01*
X101828262Y-155750000D01*
G75*
G02*
X102100000Y-156021738I0J-271738D01*
G01*
X102100000Y-156978262D01*
G75*
G02*
X101828262Y-157250000I-271738J0D01*
G01*
X101121738Y-157250000D01*
G75*
G02*
X100850000Y-156978262I0J271738D01*
G01*
G37*
%TD*%
%TO.C,C57*%
G36*
G01*
X108650000Y-159478262D02*
X108650000Y-158521738D01*
G75*
G02*
X108921738Y-158250000I271738J0D01*
G01*
X109628262Y-158250000D01*
G75*
G02*
X109900000Y-158521738I0J-271738D01*
G01*
X109900000Y-159478262D01*
G75*
G02*
X109628262Y-159750000I-271738J0D01*
G01*
X108921738Y-159750000D01*
G75*
G02*
X108650000Y-159478262I0J271738D01*
G01*
G37*
G36*
G01*
X106600000Y-159478262D02*
X106600000Y-158521738D01*
G75*
G02*
X106871738Y-158250000I271738J0D01*
G01*
X107578262Y-158250000D01*
G75*
G02*
X107850000Y-158521738I0J-271738D01*
G01*
X107850000Y-159478262D01*
G75*
G02*
X107578262Y-159750000I-271738J0D01*
G01*
X106871738Y-159750000D01*
G75*
G02*
X106600000Y-159478262I0J271738D01*
G01*
G37*
%TD*%
%TO.C,C58*%
G36*
G01*
X114650000Y-158521738D02*
X114650000Y-159478262D01*
G75*
G02*
X114378262Y-159750000I-271738J0D01*
G01*
X113671738Y-159750000D01*
G75*
G02*
X113400000Y-159478262I0J271738D01*
G01*
X113400000Y-158521738D01*
G75*
G02*
X113671738Y-158250000I271738J0D01*
G01*
X114378262Y-158250000D01*
G75*
G02*
X114650000Y-158521738I0J-271738D01*
G01*
G37*
G36*
G01*
X112600000Y-158521738D02*
X112600000Y-159478262D01*
G75*
G02*
X112328262Y-159750000I-271738J0D01*
G01*
X111621738Y-159750000D01*
G75*
G02*
X111350000Y-159478262I0J271738D01*
G01*
X111350000Y-158521738D01*
G75*
G02*
X111621738Y-158250000I271738J0D01*
G01*
X112328262Y-158250000D01*
G75*
G02*
X112600000Y-158521738I0J-271738D01*
G01*
G37*
%TD*%
%TO.C,C59*%
G36*
G01*
X93350000Y-153771738D02*
X93350000Y-154728262D01*
G75*
G02*
X93078262Y-155000000I-271738J0D01*
G01*
X92371738Y-155000000D01*
G75*
G02*
X92100000Y-154728262I0J271738D01*
G01*
X92100000Y-153771738D01*
G75*
G02*
X92371738Y-153500000I271738J0D01*
G01*
X93078262Y-153500000D01*
G75*
G02*
X93350000Y-153771738I0J-271738D01*
G01*
G37*
G36*
G01*
X95400000Y-153771738D02*
X95400000Y-154728262D01*
G75*
G02*
X95128262Y-155000000I-271738J0D01*
G01*
X94421738Y-155000000D01*
G75*
G02*
X94150000Y-154728262I0J271738D01*
G01*
X94150000Y-153771738D01*
G75*
G02*
X94421738Y-153500000I271738J0D01*
G01*
X95128262Y-153500000D01*
G75*
G02*
X95400000Y-153771738I0J-271738D01*
G01*
G37*
%TD*%
%TO.C,C60*%
G36*
G01*
X90825000Y-153771738D02*
X90825000Y-154728262D01*
G75*
G02*
X90553262Y-155000000I-271738J0D01*
G01*
X89846738Y-155000000D01*
G75*
G02*
X89575000Y-154728262I0J271738D01*
G01*
X89575000Y-153771738D01*
G75*
G02*
X89846738Y-153500000I271738J0D01*
G01*
X90553262Y-153500000D01*
G75*
G02*
X90825000Y-153771738I0J-271738D01*
G01*
G37*
G36*
G01*
X88775000Y-153771738D02*
X88775000Y-154728262D01*
G75*
G02*
X88503262Y-155000000I-271738J0D01*
G01*
X87796738Y-155000000D01*
G75*
G02*
X87525000Y-154728262I0J271738D01*
G01*
X87525000Y-153771738D01*
G75*
G02*
X87796738Y-153500000I271738J0D01*
G01*
X88503262Y-153500000D01*
G75*
G02*
X88775000Y-153771738I0J-271738D01*
G01*
G37*
%TD*%
%TO.C,C65*%
G36*
G01*
X69771738Y-108234000D02*
X70728262Y-108234000D01*
G75*
G02*
X71000000Y-108505738I0J-271738D01*
G01*
X71000000Y-109212262D01*
G75*
G02*
X70728262Y-109484000I-271738J0D01*
G01*
X69771738Y-109484000D01*
G75*
G02*
X69500000Y-109212262I0J271738D01*
G01*
X69500000Y-108505738D01*
G75*
G02*
X69771738Y-108234000I271738J0D01*
G01*
G37*
G36*
G01*
X69771738Y-110284000D02*
X70728262Y-110284000D01*
G75*
G02*
X71000000Y-110555738I0J-271738D01*
G01*
X71000000Y-111262262D01*
G75*
G02*
X70728262Y-111534000I-271738J0D01*
G01*
X69771738Y-111534000D01*
G75*
G02*
X69500000Y-111262262I0J271738D01*
G01*
X69500000Y-110555738D01*
G75*
G02*
X69771738Y-110284000I271738J0D01*
G01*
G37*
%TD*%
%TO.C,C63*%
G36*
G01*
X69771738Y-117925000D02*
X70728262Y-117925000D01*
G75*
G02*
X71000000Y-118196738I0J-271738D01*
G01*
X71000000Y-118903262D01*
G75*
G02*
X70728262Y-119175000I-271738J0D01*
G01*
X69771738Y-119175000D01*
G75*
G02*
X69500000Y-118903262I0J271738D01*
G01*
X69500000Y-118196738D01*
G75*
G02*
X69771738Y-117925000I271738J0D01*
G01*
G37*
G36*
G01*
X69771738Y-115875000D02*
X70728262Y-115875000D01*
G75*
G02*
X71000000Y-116146738I0J-271738D01*
G01*
X71000000Y-116853262D01*
G75*
G02*
X70728262Y-117125000I-271738J0D01*
G01*
X69771738Y-117125000D01*
G75*
G02*
X69500000Y-116853262I0J271738D01*
G01*
X69500000Y-116146738D01*
G75*
G02*
X69771738Y-115875000I271738J0D01*
G01*
G37*
%TD*%
%TO.C,C61*%
G36*
G01*
X94077262Y-110498000D02*
X93120738Y-110498000D01*
G75*
G02*
X92849000Y-110226262I0J271738D01*
G01*
X92849000Y-109519738D01*
G75*
G02*
X93120738Y-109248000I271738J0D01*
G01*
X94077262Y-109248000D01*
G75*
G02*
X94349000Y-109519738I0J-271738D01*
G01*
X94349000Y-110226262D01*
G75*
G02*
X94077262Y-110498000I-271738J0D01*
G01*
G37*
G36*
G01*
X94077262Y-108448000D02*
X93120738Y-108448000D01*
G75*
G02*
X92849000Y-108176262I0J271738D01*
G01*
X92849000Y-107469738D01*
G75*
G02*
X93120738Y-107198000I271738J0D01*
G01*
X94077262Y-107198000D01*
G75*
G02*
X94349000Y-107469738I0J-271738D01*
G01*
X94349000Y-108176262D01*
G75*
G02*
X94077262Y-108448000I-271738J0D01*
G01*
G37*
%TD*%
%TO.C,C62*%
G36*
G01*
X79785738Y-109248000D02*
X80742262Y-109248000D01*
G75*
G02*
X81014000Y-109519738I0J-271738D01*
G01*
X81014000Y-110226262D01*
G75*
G02*
X80742262Y-110498000I-271738J0D01*
G01*
X79785738Y-110498000D01*
G75*
G02*
X79514000Y-110226262I0J271738D01*
G01*
X79514000Y-109519738D01*
G75*
G02*
X79785738Y-109248000I271738J0D01*
G01*
G37*
G36*
G01*
X79785738Y-107198000D02*
X80742262Y-107198000D01*
G75*
G02*
X81014000Y-107469738I0J-271738D01*
G01*
X81014000Y-108176262D01*
G75*
G02*
X80742262Y-108448000I-271738J0D01*
G01*
X79785738Y-108448000D01*
G75*
G02*
X79514000Y-108176262I0J271738D01*
G01*
X79514000Y-107469738D01*
G75*
G02*
X79785738Y-107198000I271738J0D01*
G01*
G37*
%TD*%
%TO.C,D1*%
G36*
G01*
X97677738Y-145567000D02*
X98634262Y-145567000D01*
G75*
G02*
X98906000Y-145838738I0J-271738D01*
G01*
X98906000Y-146545262D01*
G75*
G02*
X98634262Y-146817000I-271738J0D01*
G01*
X97677738Y-146817000D01*
G75*
G02*
X97406000Y-146545262I0J271738D01*
G01*
X97406000Y-145838738D01*
G75*
G02*
X97677738Y-145567000I271738J0D01*
G01*
G37*
G36*
G01*
X97677738Y-147617000D02*
X98634262Y-147617000D01*
G75*
G02*
X98906000Y-147888738I0J-271738D01*
G01*
X98906000Y-148595262D01*
G75*
G02*
X98634262Y-148867000I-271738J0D01*
G01*
X97677738Y-148867000D01*
G75*
G02*
X97406000Y-148595262I0J271738D01*
G01*
X97406000Y-147888738D01*
G75*
G02*
X97677738Y-147617000I271738J0D01*
G01*
G37*
%TD*%
%TO.C,D2*%
G36*
G01*
X100344738Y-147617000D02*
X101301262Y-147617000D01*
G75*
G02*
X101573000Y-147888738I0J-271738D01*
G01*
X101573000Y-148595262D01*
G75*
G02*
X101301262Y-148867000I-271738J0D01*
G01*
X100344738Y-148867000D01*
G75*
G02*
X100073000Y-148595262I0J271738D01*
G01*
X100073000Y-147888738D01*
G75*
G02*
X100344738Y-147617000I271738J0D01*
G01*
G37*
G36*
G01*
X100344738Y-145567000D02*
X101301262Y-145567000D01*
G75*
G02*
X101573000Y-145838738I0J-271738D01*
G01*
X101573000Y-146545262D01*
G75*
G02*
X101301262Y-146817000I-271738J0D01*
G01*
X100344738Y-146817000D01*
G75*
G02*
X100073000Y-146545262I0J271738D01*
G01*
X100073000Y-145838738D01*
G75*
G02*
X100344738Y-145567000I271738J0D01*
G01*
G37*
%TD*%
%TO.C,D7*%
G36*
G01*
X103138738Y-145567000D02*
X104095262Y-145567000D01*
G75*
G02*
X104367000Y-145838738I0J-271738D01*
G01*
X104367000Y-146545262D01*
G75*
G02*
X104095262Y-146817000I-271738J0D01*
G01*
X103138738Y-146817000D01*
G75*
G02*
X102867000Y-146545262I0J271738D01*
G01*
X102867000Y-145838738D01*
G75*
G02*
X103138738Y-145567000I271738J0D01*
G01*
G37*
G36*
G01*
X103138738Y-147617000D02*
X104095262Y-147617000D01*
G75*
G02*
X104367000Y-147888738I0J-271738D01*
G01*
X104367000Y-148595262D01*
G75*
G02*
X104095262Y-148867000I-271738J0D01*
G01*
X103138738Y-148867000D01*
G75*
G02*
X102867000Y-148595262I0J271738D01*
G01*
X102867000Y-147888738D01*
G75*
G02*
X103138738Y-147617000I271738J0D01*
G01*
G37*
%TD*%
%TO.C,D3*%
G36*
G01*
X115921262Y-141353000D02*
X114964738Y-141353000D01*
G75*
G02*
X114693000Y-141081262I0J271738D01*
G01*
X114693000Y-140374738D01*
G75*
G02*
X114964738Y-140103000I271738J0D01*
G01*
X115921262Y-140103000D01*
G75*
G02*
X116193000Y-140374738I0J-271738D01*
G01*
X116193000Y-141081262D01*
G75*
G02*
X115921262Y-141353000I-271738J0D01*
G01*
G37*
G36*
G01*
X115921262Y-143403000D02*
X114964738Y-143403000D01*
G75*
G02*
X114693000Y-143131262I0J271738D01*
G01*
X114693000Y-142424738D01*
G75*
G02*
X114964738Y-142153000I271738J0D01*
G01*
X115921262Y-142153000D01*
G75*
G02*
X116193000Y-142424738I0J-271738D01*
G01*
X116193000Y-143131262D01*
G75*
G02*
X115921262Y-143403000I-271738J0D01*
G01*
G37*
%TD*%
%TO.C,D4*%
G36*
G01*
X118715262Y-143403000D02*
X117758738Y-143403000D01*
G75*
G02*
X117487000Y-143131262I0J271738D01*
G01*
X117487000Y-142424738D01*
G75*
G02*
X117758738Y-142153000I271738J0D01*
G01*
X118715262Y-142153000D01*
G75*
G02*
X118987000Y-142424738I0J-271738D01*
G01*
X118987000Y-143131262D01*
G75*
G02*
X118715262Y-143403000I-271738J0D01*
G01*
G37*
G36*
G01*
X118715262Y-141353000D02*
X117758738Y-141353000D01*
G75*
G02*
X117487000Y-141081262I0J271738D01*
G01*
X117487000Y-140374738D01*
G75*
G02*
X117758738Y-140103000I271738J0D01*
G01*
X118715262Y-140103000D01*
G75*
G02*
X118987000Y-140374738I0J-271738D01*
G01*
X118987000Y-141081262D01*
G75*
G02*
X118715262Y-141353000I-271738J0D01*
G01*
G37*
%TD*%
%TO.C,D5*%
G36*
G01*
X121509262Y-141353000D02*
X120552738Y-141353000D01*
G75*
G02*
X120281000Y-141081262I0J271738D01*
G01*
X120281000Y-140374738D01*
G75*
G02*
X120552738Y-140103000I271738J0D01*
G01*
X121509262Y-140103000D01*
G75*
G02*
X121781000Y-140374738I0J-271738D01*
G01*
X121781000Y-141081262D01*
G75*
G02*
X121509262Y-141353000I-271738J0D01*
G01*
G37*
G36*
G01*
X121509262Y-143403000D02*
X120552738Y-143403000D01*
G75*
G02*
X120281000Y-143131262I0J271738D01*
G01*
X120281000Y-142424738D01*
G75*
G02*
X120552738Y-142153000I271738J0D01*
G01*
X121509262Y-142153000D01*
G75*
G02*
X121781000Y-142424738I0J-271738D01*
G01*
X121781000Y-143131262D01*
G75*
G02*
X121509262Y-143403000I-271738J0D01*
G01*
G37*
%TD*%
%TO.C,D6*%
G36*
G01*
X124303262Y-143394000D02*
X123346738Y-143394000D01*
G75*
G02*
X123075000Y-143122262I0J271738D01*
G01*
X123075000Y-142415738D01*
G75*
G02*
X123346738Y-142144000I271738J0D01*
G01*
X124303262Y-142144000D01*
G75*
G02*
X124575000Y-142415738I0J-271738D01*
G01*
X124575000Y-143122262D01*
G75*
G02*
X124303262Y-143394000I-271738J0D01*
G01*
G37*
G36*
G01*
X124303262Y-141344000D02*
X123346738Y-141344000D01*
G75*
G02*
X123075000Y-141072262I0J271738D01*
G01*
X123075000Y-140365738D01*
G75*
G02*
X123346738Y-140094000I271738J0D01*
G01*
X124303262Y-140094000D01*
G75*
G02*
X124575000Y-140365738I0J-271738D01*
G01*
X124575000Y-141072262D01*
G75*
G02*
X124303262Y-141344000I-271738J0D01*
G01*
G37*
%TD*%
%TO.C,D8*%
G36*
G01*
X126970262Y-141353000D02*
X126013738Y-141353000D01*
G75*
G02*
X125742000Y-141081262I0J271738D01*
G01*
X125742000Y-140374738D01*
G75*
G02*
X126013738Y-140103000I271738J0D01*
G01*
X126970262Y-140103000D01*
G75*
G02*
X127242000Y-140374738I0J-271738D01*
G01*
X127242000Y-141081262D01*
G75*
G02*
X126970262Y-141353000I-271738J0D01*
G01*
G37*
G36*
G01*
X126970262Y-143403000D02*
X126013738Y-143403000D01*
G75*
G02*
X125742000Y-143131262I0J271738D01*
G01*
X125742000Y-142424738D01*
G75*
G02*
X126013738Y-142153000I271738J0D01*
G01*
X126970262Y-142153000D01*
G75*
G02*
X127242000Y-142424738I0J-271738D01*
G01*
X127242000Y-143131262D01*
G75*
G02*
X126970262Y-143403000I-271738J0D01*
G01*
G37*
%TD*%
%TO.C,D9*%
G36*
G01*
X129637262Y-141353000D02*
X128680738Y-141353000D01*
G75*
G02*
X128409000Y-141081262I0J271738D01*
G01*
X128409000Y-140374738D01*
G75*
G02*
X128680738Y-140103000I271738J0D01*
G01*
X129637262Y-140103000D01*
G75*
G02*
X129909000Y-140374738I0J-271738D01*
G01*
X129909000Y-141081262D01*
G75*
G02*
X129637262Y-141353000I-271738J0D01*
G01*
G37*
G36*
G01*
X129637262Y-143403000D02*
X128680738Y-143403000D01*
G75*
G02*
X128409000Y-143131262I0J271738D01*
G01*
X128409000Y-142424738D01*
G75*
G02*
X128680738Y-142153000I271738J0D01*
G01*
X129637262Y-142153000D01*
G75*
G02*
X129909000Y-142424738I0J-271738D01*
G01*
X129909000Y-143131262D01*
G75*
G02*
X129637262Y-143403000I-271738J0D01*
G01*
G37*
%TD*%
%TO.C,FB1*%
G36*
G01*
X81771738Y-154678000D02*
X82728262Y-154678000D01*
G75*
G02*
X83000000Y-154949738I0J-271738D01*
G01*
X83000000Y-155656262D01*
G75*
G02*
X82728262Y-155928000I-271738J0D01*
G01*
X81771738Y-155928000D01*
G75*
G02*
X81500000Y-155656262I0J271738D01*
G01*
X81500000Y-154949738D01*
G75*
G02*
X81771738Y-154678000I271738J0D01*
G01*
G37*
G36*
G01*
X81771738Y-156728000D02*
X82728262Y-156728000D01*
G75*
G02*
X83000000Y-156999738I0J-271738D01*
G01*
X83000000Y-157706262D01*
G75*
G02*
X82728262Y-157978000I-271738J0D01*
G01*
X81771738Y-157978000D01*
G75*
G02*
X81500000Y-157706262I0J271738D01*
G01*
X81500000Y-156999738D01*
G75*
G02*
X81771738Y-156728000I271738J0D01*
G01*
G37*
%TD*%
%TO.C,FB2*%
G36*
G01*
X87000000Y-147521738D02*
X87000000Y-148478262D01*
G75*
G02*
X86728262Y-148750000I-271738J0D01*
G01*
X86021738Y-148750000D01*
G75*
G02*
X85750000Y-148478262I0J271738D01*
G01*
X85750000Y-147521738D01*
G75*
G02*
X86021738Y-147250000I271738J0D01*
G01*
X86728262Y-147250000D01*
G75*
G02*
X87000000Y-147521738I0J-271738D01*
G01*
G37*
G36*
G01*
X89050000Y-147521738D02*
X89050000Y-148478262D01*
G75*
G02*
X88778262Y-148750000I-271738J0D01*
G01*
X88071738Y-148750000D01*
G75*
G02*
X87800000Y-148478262I0J271738D01*
G01*
X87800000Y-147521738D01*
G75*
G02*
X88071738Y-147250000I271738J0D01*
G01*
X88778262Y-147250000D01*
G75*
G02*
X89050000Y-147521738I0J-271738D01*
G01*
G37*
%TD*%
%TO.C,FB3*%
G36*
G01*
X82770262Y-160825000D02*
X81813738Y-160825000D01*
G75*
G02*
X81542000Y-160553262I0J271738D01*
G01*
X81542000Y-159846738D01*
G75*
G02*
X81813738Y-159575000I271738J0D01*
G01*
X82770262Y-159575000D01*
G75*
G02*
X83042000Y-159846738I0J-271738D01*
G01*
X83042000Y-160553262D01*
G75*
G02*
X82770262Y-160825000I-271738J0D01*
G01*
G37*
G36*
G01*
X82770262Y-162875000D02*
X81813738Y-162875000D01*
G75*
G02*
X81542000Y-162603262I0J271738D01*
G01*
X81542000Y-161896738D01*
G75*
G02*
X81813738Y-161625000I271738J0D01*
G01*
X82770262Y-161625000D01*
G75*
G02*
X83042000Y-161896738I0J-271738D01*
G01*
X83042000Y-162603262D01*
G75*
G02*
X82770262Y-162875000I-271738J0D01*
G01*
G37*
%TD*%
D12*
%TO.C,J1*%
X101900000Y-165985000D03*
X99980000Y-165985000D03*
D13*
X103670000Y-165715000D03*
X98210000Y-165715000D03*
D14*
X103360000Y-162715000D03*
X98520000Y-162715000D03*
D15*
X102240000Y-162835000D03*
X101590000Y-162835000D03*
X100940000Y-162835000D03*
X100290000Y-162835000D03*
X99640000Y-162835000D03*
D16*
X103840000Y-162715000D03*
X98090000Y-162735000D03*
D17*
X103940000Y-164035000D03*
X97990000Y-164035000D03*
D18*
X98210000Y-164785000D03*
X103690000Y-164785000D03*
%TD*%
%TO.C,J2*%
X121725000Y-164777000D03*
X116245000Y-164777000D03*
D17*
X116025000Y-164027000D03*
X121975000Y-164027000D03*
D16*
X116125000Y-162727000D03*
X121875000Y-162707000D03*
D15*
X117675000Y-162827000D03*
X118325000Y-162827000D03*
X118975000Y-162827000D03*
X119625000Y-162827000D03*
X120275000Y-162827000D03*
D14*
X116555000Y-162707000D03*
X121395000Y-162707000D03*
D13*
X116245000Y-165707000D03*
X121705000Y-165707000D03*
D12*
X118015000Y-165977000D03*
X119935000Y-165977000D03*
%TD*%
D19*
%TO.C,J3*%
X72060000Y-158766000D03*
X71560000Y-158766000D03*
X71060000Y-158766000D03*
X70560000Y-158766000D03*
X70060000Y-158766000D03*
X69560000Y-158766000D03*
X69060000Y-158766000D03*
X68560000Y-158766000D03*
X68060000Y-158766000D03*
X67560000Y-158766000D03*
X67060000Y-158766000D03*
X66560000Y-158766000D03*
X66060000Y-158766000D03*
X65560000Y-158766000D03*
X65060000Y-158766000D03*
X64560000Y-158766000D03*
X64060000Y-158766000D03*
X63560000Y-158766000D03*
X63060000Y-158766000D03*
D20*
X60060000Y-159766000D03*
X74560000Y-159766000D03*
X59460000Y-164666000D03*
X75160000Y-164666000D03*
%TD*%
%TO.C,L1*%
G36*
G01*
X98728262Y-153325000D02*
X97771738Y-153325000D01*
G75*
G02*
X97500000Y-153053262I0J271738D01*
G01*
X97500000Y-152346738D01*
G75*
G02*
X97771738Y-152075000I271738J0D01*
G01*
X98728262Y-152075000D01*
G75*
G02*
X99000000Y-152346738I0J-271738D01*
G01*
X99000000Y-153053262D01*
G75*
G02*
X98728262Y-153325000I-271738J0D01*
G01*
G37*
G36*
G01*
X98728262Y-155375000D02*
X97771738Y-155375000D01*
G75*
G02*
X97500000Y-155103262I0J271738D01*
G01*
X97500000Y-154396738D01*
G75*
G02*
X97771738Y-154125000I271738J0D01*
G01*
X98728262Y-154125000D01*
G75*
G02*
X99000000Y-154396738I0J-271738D01*
G01*
X99000000Y-155103262D01*
G75*
G02*
X98728262Y-155375000I-271738J0D01*
G01*
G37*
%TD*%
%TO.C,R1*%
G36*
G01*
X98634262Y-142744000D02*
X97677738Y-142744000D01*
G75*
G02*
X97406000Y-142472262I0J271738D01*
G01*
X97406000Y-141765738D01*
G75*
G02*
X97677738Y-141494000I271738J0D01*
G01*
X98634262Y-141494000D01*
G75*
G02*
X98906000Y-141765738I0J-271738D01*
G01*
X98906000Y-142472262D01*
G75*
G02*
X98634262Y-142744000I-271738J0D01*
G01*
G37*
G36*
G01*
X98634262Y-144794000D02*
X97677738Y-144794000D01*
G75*
G02*
X97406000Y-144522262I0J271738D01*
G01*
X97406000Y-143815738D01*
G75*
G02*
X97677738Y-143544000I271738J0D01*
G01*
X98634262Y-143544000D01*
G75*
G02*
X98906000Y-143815738I0J-271738D01*
G01*
X98906000Y-144522262D01*
G75*
G02*
X98634262Y-144794000I-271738J0D01*
G01*
G37*
%TD*%
%TO.C,R2*%
G36*
G01*
X108223092Y-119567457D02*
X108899456Y-118891092D01*
G75*
G02*
X109283752Y-118891092I192148J-192148D01*
G01*
X109783340Y-119390680D01*
G75*
G02*
X109783340Y-119774976I-192148J-192148D01*
G01*
X109106976Y-120451340D01*
G75*
G02*
X108722680Y-120451340I-192148J192148D01*
G01*
X108223092Y-119951752D01*
G75*
G02*
X108223092Y-119567456I192148J192148D01*
G01*
G37*
G36*
G01*
X109672660Y-121017025D02*
X110349024Y-120340660D01*
G75*
G02*
X110733320Y-120340660I192148J-192148D01*
G01*
X111232908Y-120840248D01*
G75*
G02*
X111232908Y-121224544I-192148J-192148D01*
G01*
X110556544Y-121900908D01*
G75*
G02*
X110172248Y-121900908I-192148J192148D01*
G01*
X109672660Y-121401320D01*
G75*
G02*
X109672660Y-121017024I192148J192148D01*
G01*
G37*
%TD*%
%TO.C,R7*%
G36*
G01*
X101301262Y-142753000D02*
X100344738Y-142753000D01*
G75*
G02*
X100073000Y-142481262I0J271738D01*
G01*
X100073000Y-141774738D01*
G75*
G02*
X100344738Y-141503000I271738J0D01*
G01*
X101301262Y-141503000D01*
G75*
G02*
X101573000Y-141774738I0J-271738D01*
G01*
X101573000Y-142481262D01*
G75*
G02*
X101301262Y-142753000I-271738J0D01*
G01*
G37*
G36*
G01*
X101301262Y-144803000D02*
X100344738Y-144803000D01*
G75*
G02*
X100073000Y-144531262I0J271738D01*
G01*
X100073000Y-143824738D01*
G75*
G02*
X100344738Y-143553000I271738J0D01*
G01*
X101301262Y-143553000D01*
G75*
G02*
X101573000Y-143824738I0J-271738D01*
G01*
X101573000Y-144531262D01*
G75*
G02*
X101301262Y-144803000I-271738J0D01*
G01*
G37*
%TD*%
%TO.C,R3*%
G36*
G01*
X96275000Y-144321738D02*
X96275000Y-145278262D01*
G75*
G02*
X96003262Y-145550000I-271738J0D01*
G01*
X95296738Y-145550000D01*
G75*
G02*
X95025000Y-145278262I0J271738D01*
G01*
X95025000Y-144321738D01*
G75*
G02*
X95296738Y-144050000I271738J0D01*
G01*
X96003262Y-144050000D01*
G75*
G02*
X96275000Y-144321738I0J-271738D01*
G01*
G37*
G36*
G01*
X94225000Y-144321738D02*
X94225000Y-145278262D01*
G75*
G02*
X93953262Y-145550000I-271738J0D01*
G01*
X93246738Y-145550000D01*
G75*
G02*
X92975000Y-145278262I0J271738D01*
G01*
X92975000Y-144321738D01*
G75*
G02*
X93246738Y-144050000I271738J0D01*
G01*
X93953262Y-144050000D01*
G75*
G02*
X94225000Y-144321738I0J-271738D01*
G01*
G37*
%TD*%
%TO.C,R4*%
G36*
G01*
X96275000Y-147521738D02*
X96275000Y-148478262D01*
G75*
G02*
X96003262Y-148750000I-271738J0D01*
G01*
X95296738Y-148750000D01*
G75*
G02*
X95025000Y-148478262I0J271738D01*
G01*
X95025000Y-147521738D01*
G75*
G02*
X95296738Y-147250000I271738J0D01*
G01*
X96003262Y-147250000D01*
G75*
G02*
X96275000Y-147521738I0J-271738D01*
G01*
G37*
G36*
G01*
X94225000Y-147521738D02*
X94225000Y-148478262D01*
G75*
G02*
X93953262Y-148750000I-271738J0D01*
G01*
X93246738Y-148750000D01*
G75*
G02*
X92975000Y-148478262I0J271738D01*
G01*
X92975000Y-147521738D01*
G75*
G02*
X93246738Y-147250000I271738J0D01*
G01*
X93953262Y-147250000D01*
G75*
G02*
X94225000Y-147521738I0J-271738D01*
G01*
G37*
%TD*%
%TO.C,R5*%
G36*
G01*
X59084738Y-152283000D02*
X60041262Y-152283000D01*
G75*
G02*
X60313000Y-152554738I0J-271738D01*
G01*
X60313000Y-153261262D01*
G75*
G02*
X60041262Y-153533000I-271738J0D01*
G01*
X59084738Y-153533000D01*
G75*
G02*
X58813000Y-153261262I0J271738D01*
G01*
X58813000Y-152554738D01*
G75*
G02*
X59084738Y-152283000I271738J0D01*
G01*
G37*
G36*
G01*
X59084738Y-150233000D02*
X60041262Y-150233000D01*
G75*
G02*
X60313000Y-150504738I0J-271738D01*
G01*
X60313000Y-151211262D01*
G75*
G02*
X60041262Y-151483000I-271738J0D01*
G01*
X59084738Y-151483000D01*
G75*
G02*
X58813000Y-151211262I0J271738D01*
G01*
X58813000Y-150504738D01*
G75*
G02*
X59084738Y-150233000I271738J0D01*
G01*
G37*
%TD*%
%TO.C,R15*%
G36*
G01*
X104095262Y-144785000D02*
X103138738Y-144785000D01*
G75*
G02*
X102867000Y-144513262I0J271738D01*
G01*
X102867000Y-143806738D01*
G75*
G02*
X103138738Y-143535000I271738J0D01*
G01*
X104095262Y-143535000D01*
G75*
G02*
X104367000Y-143806738I0J-271738D01*
G01*
X104367000Y-144513262D01*
G75*
G02*
X104095262Y-144785000I-271738J0D01*
G01*
G37*
G36*
G01*
X104095262Y-142735000D02*
X103138738Y-142735000D01*
G75*
G02*
X102867000Y-142463262I0J271738D01*
G01*
X102867000Y-141756738D01*
G75*
G02*
X103138738Y-141485000I271738J0D01*
G01*
X104095262Y-141485000D01*
G75*
G02*
X104367000Y-141756738I0J-271738D01*
G01*
X104367000Y-142463262D01*
G75*
G02*
X104095262Y-142735000I-271738J0D01*
G01*
G37*
%TD*%
%TO.C,R20*%
G36*
G01*
X72978262Y-111534000D02*
X72021738Y-111534000D01*
G75*
G02*
X71750000Y-111262262I0J271738D01*
G01*
X71750000Y-110555738D01*
G75*
G02*
X72021738Y-110284000I271738J0D01*
G01*
X72978262Y-110284000D01*
G75*
G02*
X73250000Y-110555738I0J-271738D01*
G01*
X73250000Y-111262262D01*
G75*
G02*
X72978262Y-111534000I-271738J0D01*
G01*
G37*
G36*
G01*
X72978262Y-109484000D02*
X72021738Y-109484000D01*
G75*
G02*
X71750000Y-109212262I0J271738D01*
G01*
X71750000Y-108505738D01*
G75*
G02*
X72021738Y-108234000I271738J0D01*
G01*
X72978262Y-108234000D01*
G75*
G02*
X73250000Y-108505738I0J-271738D01*
G01*
X73250000Y-109212262D01*
G75*
G02*
X72978262Y-109484000I-271738J0D01*
G01*
G37*
%TD*%
%TO.C,R10*%
G36*
G01*
X115921262Y-145417000D02*
X114964738Y-145417000D01*
G75*
G02*
X114693000Y-145145262I0J271738D01*
G01*
X114693000Y-144438738D01*
G75*
G02*
X114964738Y-144167000I271738J0D01*
G01*
X115921262Y-144167000D01*
G75*
G02*
X116193000Y-144438738I0J-271738D01*
G01*
X116193000Y-145145262D01*
G75*
G02*
X115921262Y-145417000I-271738J0D01*
G01*
G37*
G36*
G01*
X115921262Y-147467000D02*
X114964738Y-147467000D01*
G75*
G02*
X114693000Y-147195262I0J271738D01*
G01*
X114693000Y-146488738D01*
G75*
G02*
X114964738Y-146217000I271738J0D01*
G01*
X115921262Y-146217000D01*
G75*
G02*
X116193000Y-146488738I0J-271738D01*
G01*
X116193000Y-147195262D01*
G75*
G02*
X115921262Y-147467000I-271738J0D01*
G01*
G37*
%TD*%
%TO.C,R11*%
G36*
G01*
X118715262Y-147458000D02*
X117758738Y-147458000D01*
G75*
G02*
X117487000Y-147186262I0J271738D01*
G01*
X117487000Y-146479738D01*
G75*
G02*
X117758738Y-146208000I271738J0D01*
G01*
X118715262Y-146208000D01*
G75*
G02*
X118987000Y-146479738I0J-271738D01*
G01*
X118987000Y-147186262D01*
G75*
G02*
X118715262Y-147458000I-271738J0D01*
G01*
G37*
G36*
G01*
X118715262Y-145408000D02*
X117758738Y-145408000D01*
G75*
G02*
X117487000Y-145136262I0J271738D01*
G01*
X117487000Y-144429738D01*
G75*
G02*
X117758738Y-144158000I271738J0D01*
G01*
X118715262Y-144158000D01*
G75*
G02*
X118987000Y-144429738I0J-271738D01*
G01*
X118987000Y-145136262D01*
G75*
G02*
X118715262Y-145408000I-271738J0D01*
G01*
G37*
%TD*%
%TO.C,R12*%
G36*
G01*
X121509262Y-145417000D02*
X120552738Y-145417000D01*
G75*
G02*
X120281000Y-145145262I0J271738D01*
G01*
X120281000Y-144438738D01*
G75*
G02*
X120552738Y-144167000I271738J0D01*
G01*
X121509262Y-144167000D01*
G75*
G02*
X121781000Y-144438738I0J-271738D01*
G01*
X121781000Y-145145262D01*
G75*
G02*
X121509262Y-145417000I-271738J0D01*
G01*
G37*
G36*
G01*
X121509262Y-147467000D02*
X120552738Y-147467000D01*
G75*
G02*
X120281000Y-147195262I0J271738D01*
G01*
X120281000Y-146488738D01*
G75*
G02*
X120552738Y-146217000I271738J0D01*
G01*
X121509262Y-146217000D01*
G75*
G02*
X121781000Y-146488738I0J-271738D01*
G01*
X121781000Y-147195262D01*
G75*
G02*
X121509262Y-147467000I-271738J0D01*
G01*
G37*
%TD*%
%TO.C,R13*%
G36*
G01*
X124303262Y-145417000D02*
X123346738Y-145417000D01*
G75*
G02*
X123075000Y-145145262I0J271738D01*
G01*
X123075000Y-144438738D01*
G75*
G02*
X123346738Y-144167000I271738J0D01*
G01*
X124303262Y-144167000D01*
G75*
G02*
X124575000Y-144438738I0J-271738D01*
G01*
X124575000Y-145145262D01*
G75*
G02*
X124303262Y-145417000I-271738J0D01*
G01*
G37*
G36*
G01*
X124303262Y-147467000D02*
X123346738Y-147467000D01*
G75*
G02*
X123075000Y-147195262I0J271738D01*
G01*
X123075000Y-146488738D01*
G75*
G02*
X123346738Y-146217000I271738J0D01*
G01*
X124303262Y-146217000D01*
G75*
G02*
X124575000Y-146488738I0J-271738D01*
G01*
X124575000Y-147195262D01*
G75*
G02*
X124303262Y-147467000I-271738J0D01*
G01*
G37*
%TD*%
%TO.C,R14*%
G36*
G01*
X126970262Y-147458000D02*
X126013738Y-147458000D01*
G75*
G02*
X125742000Y-147186262I0J271738D01*
G01*
X125742000Y-146479738D01*
G75*
G02*
X126013738Y-146208000I271738J0D01*
G01*
X126970262Y-146208000D01*
G75*
G02*
X127242000Y-146479738I0J-271738D01*
G01*
X127242000Y-147186262D01*
G75*
G02*
X126970262Y-147458000I-271738J0D01*
G01*
G37*
G36*
G01*
X126970262Y-145408000D02*
X126013738Y-145408000D01*
G75*
G02*
X125742000Y-145136262I0J271738D01*
G01*
X125742000Y-144429738D01*
G75*
G02*
X126013738Y-144158000I271738J0D01*
G01*
X126970262Y-144158000D01*
G75*
G02*
X127242000Y-144429738I0J-271738D01*
G01*
X127242000Y-145136262D01*
G75*
G02*
X126970262Y-145408000I-271738J0D01*
G01*
G37*
%TD*%
%TO.C,R16*%
G36*
G01*
X129637262Y-145417000D02*
X128680738Y-145417000D01*
G75*
G02*
X128409000Y-145145262I0J271738D01*
G01*
X128409000Y-144438738D01*
G75*
G02*
X128680738Y-144167000I271738J0D01*
G01*
X129637262Y-144167000D01*
G75*
G02*
X129909000Y-144438738I0J-271738D01*
G01*
X129909000Y-145145262D01*
G75*
G02*
X129637262Y-145417000I-271738J0D01*
G01*
G37*
G36*
G01*
X129637262Y-147467000D02*
X128680738Y-147467000D01*
G75*
G02*
X128409000Y-147195262I0J271738D01*
G01*
X128409000Y-146488738D01*
G75*
G02*
X128680738Y-146217000I271738J0D01*
G01*
X129637262Y-146217000D01*
G75*
G02*
X129909000Y-146488738I0J-271738D01*
G01*
X129909000Y-147195262D01*
G75*
G02*
X129637262Y-147467000I-271738J0D01*
G01*
G37*
%TD*%
%TO.C,R19*%
G36*
G01*
X72978262Y-119175000D02*
X72021738Y-119175000D01*
G75*
G02*
X71750000Y-118903262I0J271738D01*
G01*
X71750000Y-118196738D01*
G75*
G02*
X72021738Y-117925000I271738J0D01*
G01*
X72978262Y-117925000D01*
G75*
G02*
X73250000Y-118196738I0J-271738D01*
G01*
X73250000Y-118903262D01*
G75*
G02*
X72978262Y-119175000I-271738J0D01*
G01*
G37*
G36*
G01*
X72978262Y-117125000D02*
X72021738Y-117125000D01*
G75*
G02*
X71750000Y-116853262I0J271738D01*
G01*
X71750000Y-116146738D01*
G75*
G02*
X72021738Y-115875000I271738J0D01*
G01*
X72978262Y-115875000D01*
G75*
G02*
X73250000Y-116146738I0J-271738D01*
G01*
X73250000Y-116853262D01*
G75*
G02*
X72978262Y-117125000I-271738J0D01*
G01*
G37*
%TD*%
%TO.C,R17*%
G36*
G01*
X82774262Y-110480000D02*
X81817738Y-110480000D01*
G75*
G02*
X81546000Y-110208262I0J271738D01*
G01*
X81546000Y-109501738D01*
G75*
G02*
X81817738Y-109230000I271738J0D01*
G01*
X82774262Y-109230000D01*
G75*
G02*
X83046000Y-109501738I0J-271738D01*
G01*
X83046000Y-110208262D01*
G75*
G02*
X82774262Y-110480000I-271738J0D01*
G01*
G37*
G36*
G01*
X82774262Y-108430000D02*
X81817738Y-108430000D01*
G75*
G02*
X81546000Y-108158262I0J271738D01*
G01*
X81546000Y-107451738D01*
G75*
G02*
X81817738Y-107180000I271738J0D01*
G01*
X82774262Y-107180000D01*
G75*
G02*
X83046000Y-107451738I0J-271738D01*
G01*
X83046000Y-108158262D01*
G75*
G02*
X82774262Y-108430000I-271738J0D01*
G01*
G37*
%TD*%
D11*
%TO.C,D+*%
X110000000Y-164500000D03*
%TD*%
%TO.C,D-*%
X113000000Y-164500000D03*
%TD*%
%TO.C,+5*%
X95400000Y-150900000D03*
%TD*%
%TO.C,VSYNC*%
X63750000Y-138500000D03*
%TD*%
%TO.C,+33*%
X107000000Y-164500000D03*
%TD*%
%TO.C,+12*%
X96750000Y-159600000D03*
%TD*%
%TO.C,CEC*%
X59563000Y-155194000D03*
%TD*%
%TO.C,DSCL*%
X64250000Y-155000000D03*
%TD*%
%TO.C,DSDA*%
X62357000Y-156337000D03*
%TD*%
%TO.C,HSYNC*%
X99800000Y-139400000D03*
%TD*%
%TO.C,IDCK*%
X97400000Y-139400000D03*
%TD*%
%TO.C,DE*%
X63750000Y-135500000D03*
%TD*%
D21*
%TO.C,U2*%
X103600000Y-151700000D03*
X103600000Y-153600000D03*
X101400000Y-153600000D03*
X101400000Y-152650000D03*
X101400000Y-151700000D03*
%TD*%
D16*
%TO.C,U3*%
X107600000Y-151700000D03*
X107600000Y-156300000D03*
X107600000Y-154000000D03*
D22*
X113900000Y-154000000D03*
%TD*%
D23*
%TO.C,U1*%
X115154000Y-134860000D03*
X115154000Y-134060000D03*
X115154000Y-133260000D03*
X115154000Y-132460000D03*
X115154000Y-131660000D03*
X115154000Y-130860000D03*
X115154000Y-130060000D03*
X115154000Y-129260000D03*
X115154000Y-128460000D03*
X115154000Y-127660000D03*
X115154000Y-126860000D03*
X115154000Y-126060000D03*
X115154000Y-125260000D03*
X115154000Y-124460000D03*
X115154000Y-123660000D03*
X115154000Y-122860000D03*
X115154000Y-122060000D03*
X115154000Y-121260000D03*
X115154000Y-120460000D03*
X115154000Y-119660000D03*
X115154000Y-118860000D03*
X115154000Y-118060000D03*
X115154000Y-117260000D03*
X115154000Y-116460000D03*
X115154000Y-115660000D03*
X115154000Y-114860000D03*
X115154000Y-114060000D03*
X126654000Y-114060000D03*
X126654000Y-114860000D03*
X126654000Y-115660000D03*
X126654000Y-116460000D03*
X126654000Y-117260000D03*
X126654000Y-118060000D03*
X126654000Y-118860000D03*
X126654000Y-119660000D03*
X126654000Y-120460000D03*
X126654000Y-121260000D03*
X126654000Y-122060000D03*
X126654000Y-122860000D03*
X126654000Y-123660000D03*
X126654000Y-124460000D03*
X126654000Y-125260000D03*
X126654000Y-126060000D03*
X126654000Y-126860000D03*
X126654000Y-127660000D03*
X126654000Y-128460000D03*
X126654000Y-129260000D03*
X126654000Y-130060000D03*
X126654000Y-130860000D03*
X126654000Y-131660000D03*
X126654000Y-132460000D03*
X126654000Y-133260000D03*
X126654000Y-134060000D03*
X126654000Y-134860000D03*
%TD*%
D22*
%TO.C,U4*%
X88100000Y-159500000D03*
D16*
X94400000Y-159500000D03*
X94400000Y-157200000D03*
X94400000Y-161800000D03*
%TD*%
D24*
%TO.C,Y1*%
X85351000Y-108712000D03*
X90551000Y-108712000D03*
%TD*%
D25*
%TO.C,SW1*%
X60033000Y-116495000D03*
X67983000Y-116495000D03*
X60033000Y-120995000D03*
X67983000Y-120995000D03*
%TD*%
%TO.C,SW2*%
X68021000Y-113375000D03*
X60071000Y-113375000D03*
X68021000Y-108875000D03*
X60071000Y-108875000D03*
%TD*%
D26*
%TO.C,J4*%
X122301000Y-158275000D03*
X122301000Y-153225000D03*
X124841000Y-158275000D03*
X124841000Y-153225000D03*
X127381000Y-158275000D03*
X127381000Y-153225000D03*
%TD*%
D11*
%TO.C,+VIN*%
X96750000Y-157200000D03*
%TD*%
%TO.C,C54*%
G36*
G01*
X110478262Y-115125000D02*
X109521738Y-115125000D01*
G75*
G02*
X109250000Y-114853262I0J271738D01*
G01*
X109250000Y-114146738D01*
G75*
G02*
X109521738Y-113875000I271738J0D01*
G01*
X110478262Y-113875000D01*
G75*
G02*
X110750000Y-114146738I0J-271738D01*
G01*
X110750000Y-114853262D01*
G75*
G02*
X110478262Y-115125000I-271738J0D01*
G01*
G37*
G36*
G01*
X110478262Y-117175000D02*
X109521738Y-117175000D01*
G75*
G02*
X109250000Y-116903262I0J271738D01*
G01*
X109250000Y-116196738D01*
G75*
G02*
X109521738Y-115925000I271738J0D01*
G01*
X110478262Y-115925000D01*
G75*
G02*
X110750000Y-116196738I0J-271738D01*
G01*
X110750000Y-116903262D01*
G75*
G02*
X110478262Y-117175000I-271738J0D01*
G01*
G37*
%TD*%
D27*
%TO.C,Q1*%
X107600000Y-147150000D03*
X107600000Y-145250000D03*
X105600000Y-146200000D03*
%TD*%
%TO.C,R21*%
G36*
G01*
X109721738Y-144375000D02*
X110678262Y-144375000D01*
G75*
G02*
X110950000Y-144646738I0J-271738D01*
G01*
X110950000Y-145353262D01*
G75*
G02*
X110678262Y-145625000I-271738J0D01*
G01*
X109721738Y-145625000D01*
G75*
G02*
X109450000Y-145353262I0J271738D01*
G01*
X109450000Y-144646738D01*
G75*
G02*
X109721738Y-144375000I271738J0D01*
G01*
G37*
G36*
G01*
X109721738Y-142325000D02*
X110678262Y-142325000D01*
G75*
G02*
X110950000Y-142596738I0J-271738D01*
G01*
X110950000Y-143303262D01*
G75*
G02*
X110678262Y-143575000I-271738J0D01*
G01*
X109721738Y-143575000D01*
G75*
G02*
X109450000Y-143303262I0J271738D01*
G01*
X109450000Y-142596738D01*
G75*
G02*
X109721738Y-142325000I271738J0D01*
G01*
G37*
%TD*%
%TO.C,R22*%
G36*
G01*
X109721738Y-146375000D02*
X110678262Y-146375000D01*
G75*
G02*
X110950000Y-146646738I0J-271738D01*
G01*
X110950000Y-147353262D01*
G75*
G02*
X110678262Y-147625000I-271738J0D01*
G01*
X109721738Y-147625000D01*
G75*
G02*
X109450000Y-147353262I0J271738D01*
G01*
X109450000Y-146646738D01*
G75*
G02*
X109721738Y-146375000I271738J0D01*
G01*
G37*
G36*
G01*
X109721738Y-148425000D02*
X110678262Y-148425000D01*
G75*
G02*
X110950000Y-148696738I0J-271738D01*
G01*
X110950000Y-149403262D01*
G75*
G02*
X110678262Y-149675000I-271738J0D01*
G01*
X109721738Y-149675000D01*
G75*
G02*
X109450000Y-149403262I0J271738D01*
G01*
X109450000Y-148696738D01*
G75*
G02*
X109721738Y-148425000I271738J0D01*
G01*
G37*
%TD*%
M02*
