%TF.GenerationSoftware,KiCad,Pcbnew,(5.1.6)-1*%
%TF.CreationDate,2020-12-19T20:46:54-03:30*%
%TF.ProjectId,graphics-card-rev-2,67726170-6869-4637-932d-636172642d72,rev?*%
%TF.SameCoordinates,Original*%
%TF.FileFunction,Paste,Bot*%
%TF.FilePolarity,Positive*%
%FSLAX46Y46*%
G04 Gerber Fmt 4.6, Leading zero omitted, Abs format (unit mm)*
G04 Created by KiCad (PCBNEW (5.1.6)-1) date 2020-12-19 20:46:54*
%MOMM*%
%LPD*%
G01*
G04 APERTURE LIST*
G04 APERTURE END LIST*
%TO.C,C5*%
G36*
G01*
X78925000Y-133450001D02*
X78925000Y-132549999D01*
G75*
G02*
X79174999Y-132300000I249999J0D01*
G01*
X79825001Y-132300000D01*
G75*
G02*
X80075000Y-132549999I0J-249999D01*
G01*
X80075000Y-133450001D01*
G75*
G02*
X79825001Y-133700000I-249999J0D01*
G01*
X79174999Y-133700000D01*
G75*
G02*
X78925000Y-133450001I0J249999D01*
G01*
G37*
G36*
G01*
X80975000Y-133450001D02*
X80975000Y-132549999D01*
G75*
G02*
X81224999Y-132300000I249999J0D01*
G01*
X81875001Y-132300000D01*
G75*
G02*
X82125000Y-132549999I0J-249999D01*
G01*
X82125000Y-133450001D01*
G75*
G02*
X81875001Y-133700000I-249999J0D01*
G01*
X81224999Y-133700000D01*
G75*
G02*
X80975000Y-133450001I0J249999D01*
G01*
G37*
%TD*%
%TO.C,C6*%
G36*
G01*
X80925000Y-135700001D02*
X80925000Y-134799999D01*
G75*
G02*
X81174999Y-134550000I249999J0D01*
G01*
X81825001Y-134550000D01*
G75*
G02*
X82075000Y-134799999I0J-249999D01*
G01*
X82075000Y-135700001D01*
G75*
G02*
X81825001Y-135950000I-249999J0D01*
G01*
X81174999Y-135950000D01*
G75*
G02*
X80925000Y-135700001I0J249999D01*
G01*
G37*
G36*
G01*
X78875000Y-135700001D02*
X78875000Y-134799999D01*
G75*
G02*
X79124999Y-134550000I249999J0D01*
G01*
X79775001Y-134550000D01*
G75*
G02*
X80025000Y-134799999I0J-249999D01*
G01*
X80025000Y-135700001D01*
G75*
G02*
X79775001Y-135950000I-249999J0D01*
G01*
X79124999Y-135950000D01*
G75*
G02*
X78875000Y-135700001I0J249999D01*
G01*
G37*
%TD*%
%TO.C,C7*%
G36*
G01*
X101450001Y-139125000D02*
X100549999Y-139125000D01*
G75*
G02*
X100300000Y-138875001I0J249999D01*
G01*
X100300000Y-138224999D01*
G75*
G02*
X100549999Y-137975000I249999J0D01*
G01*
X101450001Y-137975000D01*
G75*
G02*
X101700000Y-138224999I0J-249999D01*
G01*
X101700000Y-138875001D01*
G75*
G02*
X101450001Y-139125000I-249999J0D01*
G01*
G37*
G36*
G01*
X101450001Y-137075000D02*
X100549999Y-137075000D01*
G75*
G02*
X100300000Y-136825001I0J249999D01*
G01*
X100300000Y-136174999D01*
G75*
G02*
X100549999Y-135925000I249999J0D01*
G01*
X101450001Y-135925000D01*
G75*
G02*
X101700000Y-136174999I0J-249999D01*
G01*
X101700000Y-136825001D01*
G75*
G02*
X101450001Y-137075000I-249999J0D01*
G01*
G37*
%TD*%
%TO.C,C12*%
G36*
G01*
X109049999Y-136150000D02*
X109950001Y-136150000D01*
G75*
G02*
X110200000Y-136399999I0J-249999D01*
G01*
X110200000Y-137050001D01*
G75*
G02*
X109950001Y-137300000I-249999J0D01*
G01*
X109049999Y-137300000D01*
G75*
G02*
X108800000Y-137050001I0J249999D01*
G01*
X108800000Y-136399999D01*
G75*
G02*
X109049999Y-136150000I249999J0D01*
G01*
G37*
G36*
G01*
X109049999Y-138200000D02*
X109950001Y-138200000D01*
G75*
G02*
X110200000Y-138449999I0J-249999D01*
G01*
X110200000Y-139100001D01*
G75*
G02*
X109950001Y-139350000I-249999J0D01*
G01*
X109049999Y-139350000D01*
G75*
G02*
X108800000Y-139100001I0J249999D01*
G01*
X108800000Y-138449999D01*
G75*
G02*
X109049999Y-138200000I249999J0D01*
G01*
G37*
%TD*%
%TO.C,C28*%
G36*
G01*
X107049999Y-138225000D02*
X107950001Y-138225000D01*
G75*
G02*
X108200000Y-138474999I0J-249999D01*
G01*
X108200000Y-139125001D01*
G75*
G02*
X107950001Y-139375000I-249999J0D01*
G01*
X107049999Y-139375000D01*
G75*
G02*
X106800000Y-139125001I0J249999D01*
G01*
X106800000Y-138474999D01*
G75*
G02*
X107049999Y-138225000I249999J0D01*
G01*
G37*
G36*
G01*
X107049999Y-136175000D02*
X107950001Y-136175000D01*
G75*
G02*
X108200000Y-136424999I0J-249999D01*
G01*
X108200000Y-137075001D01*
G75*
G02*
X107950001Y-137325000I-249999J0D01*
G01*
X107049999Y-137325000D01*
G75*
G02*
X106800000Y-137075001I0J249999D01*
G01*
X106800000Y-136424999D01*
G75*
G02*
X107049999Y-136175000I249999J0D01*
G01*
G37*
%TD*%
%TO.C,C31*%
G36*
G01*
X104299999Y-114125000D02*
X105200001Y-114125000D01*
G75*
G02*
X105450000Y-114374999I0J-249999D01*
G01*
X105450000Y-115025001D01*
G75*
G02*
X105200001Y-115275000I-249999J0D01*
G01*
X104299999Y-115275000D01*
G75*
G02*
X104050000Y-115025001I0J249999D01*
G01*
X104050000Y-114374999D01*
G75*
G02*
X104299999Y-114125000I249999J0D01*
G01*
G37*
G36*
G01*
X104299999Y-116175000D02*
X105200001Y-116175000D01*
G75*
G02*
X105450000Y-116424999I0J-249999D01*
G01*
X105450000Y-117075001D01*
G75*
G02*
X105200001Y-117325000I-249999J0D01*
G01*
X104299999Y-117325000D01*
G75*
G02*
X104050000Y-117075001I0J249999D01*
G01*
X104050000Y-116424999D01*
G75*
G02*
X104299999Y-116175000I249999J0D01*
G01*
G37*
%TD*%
%TO.C,C34*%
G36*
G01*
X102049999Y-113125000D02*
X102950001Y-113125000D01*
G75*
G02*
X103200000Y-113374999I0J-249999D01*
G01*
X103200000Y-114025001D01*
G75*
G02*
X102950001Y-114275000I-249999J0D01*
G01*
X102049999Y-114275000D01*
G75*
G02*
X101800000Y-114025001I0J249999D01*
G01*
X101800000Y-113374999D01*
G75*
G02*
X102049999Y-113125000I249999J0D01*
G01*
G37*
G36*
G01*
X102049999Y-115175000D02*
X102950001Y-115175000D01*
G75*
G02*
X103200000Y-115424999I0J-249999D01*
G01*
X103200000Y-116075001D01*
G75*
G02*
X102950001Y-116325000I-249999J0D01*
G01*
X102049999Y-116325000D01*
G75*
G02*
X101800000Y-116075001I0J249999D01*
G01*
X101800000Y-115424999D01*
G75*
G02*
X102049999Y-115175000I249999J0D01*
G01*
G37*
%TD*%
%TO.C,C35*%
G36*
G01*
X100049999Y-113125000D02*
X100950001Y-113125000D01*
G75*
G02*
X101200000Y-113374999I0J-249999D01*
G01*
X101200000Y-114025001D01*
G75*
G02*
X100950001Y-114275000I-249999J0D01*
G01*
X100049999Y-114275000D01*
G75*
G02*
X99800000Y-114025001I0J249999D01*
G01*
X99800000Y-113374999D01*
G75*
G02*
X100049999Y-113125000I249999J0D01*
G01*
G37*
G36*
G01*
X100049999Y-115175000D02*
X100950001Y-115175000D01*
G75*
G02*
X101200000Y-115424999I0J-249999D01*
G01*
X101200000Y-116075001D01*
G75*
G02*
X100950001Y-116325000I-249999J0D01*
G01*
X100049999Y-116325000D01*
G75*
G02*
X99800000Y-116075001I0J249999D01*
G01*
X99800000Y-115424999D01*
G75*
G02*
X100049999Y-115175000I249999J0D01*
G01*
G37*
%TD*%
%TO.C,C36*%
G36*
G01*
X98049999Y-113125000D02*
X98950001Y-113125000D01*
G75*
G02*
X99200000Y-113374999I0J-249999D01*
G01*
X99200000Y-114025001D01*
G75*
G02*
X98950001Y-114275000I-249999J0D01*
G01*
X98049999Y-114275000D01*
G75*
G02*
X97800000Y-114025001I0J249999D01*
G01*
X97800000Y-113374999D01*
G75*
G02*
X98049999Y-113125000I249999J0D01*
G01*
G37*
G36*
G01*
X98049999Y-115175000D02*
X98950001Y-115175000D01*
G75*
G02*
X99200000Y-115424999I0J-249999D01*
G01*
X99200000Y-116075001D01*
G75*
G02*
X98950001Y-116325000I-249999J0D01*
G01*
X98049999Y-116325000D01*
G75*
G02*
X97800000Y-116075001I0J249999D01*
G01*
X97800000Y-115424999D01*
G75*
G02*
X98049999Y-115175000I249999J0D01*
G01*
G37*
%TD*%
%TO.C,C37*%
G36*
G01*
X94425000Y-113200001D02*
X94425000Y-112299999D01*
G75*
G02*
X94674999Y-112050000I249999J0D01*
G01*
X95325001Y-112050000D01*
G75*
G02*
X95575000Y-112299999I0J-249999D01*
G01*
X95575000Y-113200001D01*
G75*
G02*
X95325001Y-113450000I-249999J0D01*
G01*
X94674999Y-113450000D01*
G75*
G02*
X94425000Y-113200001I0J249999D01*
G01*
G37*
G36*
G01*
X92375000Y-113200001D02*
X92375000Y-112299999D01*
G75*
G02*
X92624999Y-112050000I249999J0D01*
G01*
X93275001Y-112050000D01*
G75*
G02*
X93525000Y-112299999I0J-249999D01*
G01*
X93525000Y-113200001D01*
G75*
G02*
X93275001Y-113450000I-249999J0D01*
G01*
X92624999Y-113450000D01*
G75*
G02*
X92375000Y-113200001I0J249999D01*
G01*
G37*
%TD*%
%TO.C,C48*%
G36*
G01*
X90747000Y-117290001D02*
X90747000Y-116389999D01*
G75*
G02*
X90996999Y-116140000I249999J0D01*
G01*
X91647001Y-116140000D01*
G75*
G02*
X91897000Y-116389999I0J-249999D01*
G01*
X91897000Y-117290001D01*
G75*
G02*
X91647001Y-117540000I-249999J0D01*
G01*
X90996999Y-117540000D01*
G75*
G02*
X90747000Y-117290001I0J249999D01*
G01*
G37*
G36*
G01*
X88697000Y-117290001D02*
X88697000Y-116389999D01*
G75*
G02*
X88946999Y-116140000I249999J0D01*
G01*
X89597001Y-116140000D01*
G75*
G02*
X89847000Y-116389999I0J-249999D01*
G01*
X89847000Y-117290001D01*
G75*
G02*
X89597001Y-117540000I-249999J0D01*
G01*
X88946999Y-117540000D01*
G75*
G02*
X88697000Y-117290001I0J249999D01*
G01*
G37*
%TD*%
%TO.C,C49*%
G36*
G01*
X86925999Y-113344000D02*
X87826001Y-113344000D01*
G75*
G02*
X88076000Y-113593999I0J-249999D01*
G01*
X88076000Y-114244001D01*
G75*
G02*
X87826001Y-114494000I-249999J0D01*
G01*
X86925999Y-114494000D01*
G75*
G02*
X86676000Y-114244001I0J249999D01*
G01*
X86676000Y-113593999D01*
G75*
G02*
X86925999Y-113344000I249999J0D01*
G01*
G37*
G36*
G01*
X86925999Y-115394000D02*
X87826001Y-115394000D01*
G75*
G02*
X88076000Y-115643999I0J-249999D01*
G01*
X88076000Y-116294001D01*
G75*
G02*
X87826001Y-116544000I-249999J0D01*
G01*
X86925999Y-116544000D01*
G75*
G02*
X86676000Y-116294001I0J249999D01*
G01*
X86676000Y-115643999D01*
G75*
G02*
X86925999Y-115394000I249999J0D01*
G01*
G37*
%TD*%
%TO.C,C50*%
G36*
G01*
X90756000Y-115258001D02*
X90756000Y-114357999D01*
G75*
G02*
X91005999Y-114108000I249999J0D01*
G01*
X91656001Y-114108000D01*
G75*
G02*
X91906000Y-114357999I0J-249999D01*
G01*
X91906000Y-115258001D01*
G75*
G02*
X91656001Y-115508000I-249999J0D01*
G01*
X91005999Y-115508000D01*
G75*
G02*
X90756000Y-115258001I0J249999D01*
G01*
G37*
G36*
G01*
X88706000Y-115258001D02*
X88706000Y-114357999D01*
G75*
G02*
X88955999Y-114108000I249999J0D01*
G01*
X89606001Y-114108000D01*
G75*
G02*
X89856000Y-114357999I0J-249999D01*
G01*
X89856000Y-115258001D01*
G75*
G02*
X89606001Y-115508000I-249999J0D01*
G01*
X88955999Y-115508000D01*
G75*
G02*
X88706000Y-115258001I0J249999D01*
G01*
G37*
%TD*%
%TO.C,C51*%
G36*
G01*
X84893999Y-113335000D02*
X85794001Y-113335000D01*
G75*
G02*
X86044000Y-113584999I0J-249999D01*
G01*
X86044000Y-114235001D01*
G75*
G02*
X85794001Y-114485000I-249999J0D01*
G01*
X84893999Y-114485000D01*
G75*
G02*
X84644000Y-114235001I0J249999D01*
G01*
X84644000Y-113584999D01*
G75*
G02*
X84893999Y-113335000I249999J0D01*
G01*
G37*
G36*
G01*
X84893999Y-115385000D02*
X85794001Y-115385000D01*
G75*
G02*
X86044000Y-115634999I0J-249999D01*
G01*
X86044000Y-116285001D01*
G75*
G02*
X85794001Y-116535000I-249999J0D01*
G01*
X84893999Y-116535000D01*
G75*
G02*
X84644000Y-116285001I0J249999D01*
G01*
X84644000Y-115634999D01*
G75*
G02*
X84893999Y-115385000I249999J0D01*
G01*
G37*
%TD*%
%TO.C,C52*%
G36*
G01*
X83049999Y-130150000D02*
X83950001Y-130150000D01*
G75*
G02*
X84200000Y-130399999I0J-249999D01*
G01*
X84200000Y-131050001D01*
G75*
G02*
X83950001Y-131300000I-249999J0D01*
G01*
X83049999Y-131300000D01*
G75*
G02*
X82800000Y-131050001I0J249999D01*
G01*
X82800000Y-130399999D01*
G75*
G02*
X83049999Y-130150000I249999J0D01*
G01*
G37*
G36*
G01*
X83049999Y-132200000D02*
X83950001Y-132200000D01*
G75*
G02*
X84200000Y-132449999I0J-249999D01*
G01*
X84200000Y-133100001D01*
G75*
G02*
X83950001Y-133350000I-249999J0D01*
G01*
X83049999Y-133350000D01*
G75*
G02*
X82800000Y-133100001I0J249999D01*
G01*
X82800000Y-132449999D01*
G75*
G02*
X83049999Y-132200000I249999J0D01*
G01*
G37*
%TD*%
%TO.C,C17*%
G36*
G01*
X116643999Y-124756000D02*
X117544001Y-124756000D01*
G75*
G02*
X117794000Y-125005999I0J-249999D01*
G01*
X117794000Y-125656001D01*
G75*
G02*
X117544001Y-125906000I-249999J0D01*
G01*
X116643999Y-125906000D01*
G75*
G02*
X116394000Y-125656001I0J249999D01*
G01*
X116394000Y-125005999D01*
G75*
G02*
X116643999Y-124756000I249999J0D01*
G01*
G37*
G36*
G01*
X116643999Y-126806000D02*
X117544001Y-126806000D01*
G75*
G02*
X117794000Y-127055999I0J-249999D01*
G01*
X117794000Y-127706001D01*
G75*
G02*
X117544001Y-127956000I-249999J0D01*
G01*
X116643999Y-127956000D01*
G75*
G02*
X116394000Y-127706001I0J249999D01*
G01*
X116394000Y-127055999D01*
G75*
G02*
X116643999Y-126806000I249999J0D01*
G01*
G37*
%TD*%
%TO.C,C20*%
G36*
G01*
X117544001Y-129734000D02*
X116643999Y-129734000D01*
G75*
G02*
X116394000Y-129484001I0J249999D01*
G01*
X116394000Y-128833999D01*
G75*
G02*
X116643999Y-128584000I249999J0D01*
G01*
X117544001Y-128584000D01*
G75*
G02*
X117794000Y-128833999I0J-249999D01*
G01*
X117794000Y-129484001D01*
G75*
G02*
X117544001Y-129734000I-249999J0D01*
G01*
G37*
G36*
G01*
X117544001Y-131784000D02*
X116643999Y-131784000D01*
G75*
G02*
X116394000Y-131534001I0J249999D01*
G01*
X116394000Y-130883999D01*
G75*
G02*
X116643999Y-130634000I249999J0D01*
G01*
X117544001Y-130634000D01*
G75*
G02*
X117794000Y-130883999I0J-249999D01*
G01*
X117794000Y-131534001D01*
G75*
G02*
X117544001Y-131784000I-249999J0D01*
G01*
G37*
%TD*%
%TO.C,C46*%
G36*
G01*
X70427001Y-150934000D02*
X69526999Y-150934000D01*
G75*
G02*
X69277000Y-150684001I0J249999D01*
G01*
X69277000Y-150033999D01*
G75*
G02*
X69526999Y-149784000I249999J0D01*
G01*
X70427001Y-149784000D01*
G75*
G02*
X70677000Y-150033999I0J-249999D01*
G01*
X70677000Y-150684001D01*
G75*
G02*
X70427001Y-150934000I-249999J0D01*
G01*
G37*
G36*
G01*
X70427001Y-152984000D02*
X69526999Y-152984000D01*
G75*
G02*
X69277000Y-152734001I0J249999D01*
G01*
X69277000Y-152083999D01*
G75*
G02*
X69526999Y-151834000I249999J0D01*
G01*
X70427001Y-151834000D01*
G75*
G02*
X70677000Y-152083999I0J-249999D01*
G01*
X70677000Y-152734001D01*
G75*
G02*
X70427001Y-152984000I-249999J0D01*
G01*
G37*
%TD*%
%TO.C,C47*%
G36*
G01*
X72459001Y-152993000D02*
X71558999Y-152993000D01*
G75*
G02*
X71309000Y-152743001I0J249999D01*
G01*
X71309000Y-152092999D01*
G75*
G02*
X71558999Y-151843000I249999J0D01*
G01*
X72459001Y-151843000D01*
G75*
G02*
X72709000Y-152092999I0J-249999D01*
G01*
X72709000Y-152743001D01*
G75*
G02*
X72459001Y-152993000I-249999J0D01*
G01*
G37*
G36*
G01*
X72459001Y-150943000D02*
X71558999Y-150943000D01*
G75*
G02*
X71309000Y-150693001I0J249999D01*
G01*
X71309000Y-150042999D01*
G75*
G02*
X71558999Y-149793000I249999J0D01*
G01*
X72459001Y-149793000D01*
G75*
G02*
X72709000Y-150042999I0J-249999D01*
G01*
X72709000Y-150693001D01*
G75*
G02*
X72459001Y-150943000I-249999J0D01*
G01*
G37*
%TD*%
%TO.C,C55*%
G36*
G01*
X62925000Y-160700001D02*
X62925000Y-159799999D01*
G75*
G02*
X63174999Y-159550000I249999J0D01*
G01*
X63825001Y-159550000D01*
G75*
G02*
X64075000Y-159799999I0J-249999D01*
G01*
X64075000Y-160700001D01*
G75*
G02*
X63825001Y-160950000I-249999J0D01*
G01*
X63174999Y-160950000D01*
G75*
G02*
X62925000Y-160700001I0J249999D01*
G01*
G37*
G36*
G01*
X64975000Y-160700001D02*
X64975000Y-159799999D01*
G75*
G02*
X65224999Y-159550000I249999J0D01*
G01*
X65875001Y-159550000D01*
G75*
G02*
X66125000Y-159799999I0J-249999D01*
G01*
X66125000Y-160700001D01*
G75*
G02*
X65875001Y-160950000I-249999J0D01*
G01*
X65224999Y-160950000D01*
G75*
G02*
X64975000Y-160700001I0J249999D01*
G01*
G37*
%TD*%
%TO.C,C66*%
G36*
G01*
X65193000Y-152088001D02*
X65193000Y-151187999D01*
G75*
G02*
X65442999Y-150938000I249999J0D01*
G01*
X66093001Y-150938000D01*
G75*
G02*
X66343000Y-151187999I0J-249999D01*
G01*
X66343000Y-152088001D01*
G75*
G02*
X66093001Y-152338000I-249999J0D01*
G01*
X65442999Y-152338000D01*
G75*
G02*
X65193000Y-152088001I0J249999D01*
G01*
G37*
G36*
G01*
X67243000Y-152088001D02*
X67243000Y-151187999D01*
G75*
G02*
X67492999Y-150938000I249999J0D01*
G01*
X68143001Y-150938000D01*
G75*
G02*
X68393000Y-151187999I0J-249999D01*
G01*
X68393000Y-152088001D01*
G75*
G02*
X68143001Y-152338000I-249999J0D01*
G01*
X67492999Y-152338000D01*
G75*
G02*
X67243000Y-152088001I0J249999D01*
G01*
G37*
%TD*%
%TO.C,C67*%
G36*
G01*
X88434000Y-112210001D02*
X88434000Y-111309999D01*
G75*
G02*
X88683999Y-111060000I249999J0D01*
G01*
X89334001Y-111060000D01*
G75*
G02*
X89584000Y-111309999I0J-249999D01*
G01*
X89584000Y-112210001D01*
G75*
G02*
X89334001Y-112460000I-249999J0D01*
G01*
X88683999Y-112460000D01*
G75*
G02*
X88434000Y-112210001I0J249999D01*
G01*
G37*
G36*
G01*
X90484000Y-112210001D02*
X90484000Y-111309999D01*
G75*
G02*
X90733999Y-111060000I249999J0D01*
G01*
X91384001Y-111060000D01*
G75*
G02*
X91634000Y-111309999I0J-249999D01*
G01*
X91634000Y-112210001D01*
G75*
G02*
X91384001Y-112460000I-249999J0D01*
G01*
X90733999Y-112460000D01*
G75*
G02*
X90484000Y-112210001I0J249999D01*
G01*
G37*
%TD*%
%TO.C,C64*%
G36*
G01*
X83762001Y-116263000D02*
X82861999Y-116263000D01*
G75*
G02*
X82612000Y-116013001I0J249999D01*
G01*
X82612000Y-115362999D01*
G75*
G02*
X82861999Y-115113000I249999J0D01*
G01*
X83762001Y-115113000D01*
G75*
G02*
X84012000Y-115362999I0J-249999D01*
G01*
X84012000Y-116013001D01*
G75*
G02*
X83762001Y-116263000I-249999J0D01*
G01*
G37*
G36*
G01*
X83762001Y-118313000D02*
X82861999Y-118313000D01*
G75*
G02*
X82612000Y-118063001I0J249999D01*
G01*
X82612000Y-117412999D01*
G75*
G02*
X82861999Y-117163000I249999J0D01*
G01*
X83762001Y-117163000D01*
G75*
G02*
X84012000Y-117412999I0J-249999D01*
G01*
X84012000Y-118063001D01*
G75*
G02*
X83762001Y-118313000I-249999J0D01*
G01*
G37*
%TD*%
%TO.C,R6*%
G36*
G01*
X68268001Y-149174000D02*
X67367999Y-149174000D01*
G75*
G02*
X67118000Y-148924001I0J249999D01*
G01*
X67118000Y-148273999D01*
G75*
G02*
X67367999Y-148024000I249999J0D01*
G01*
X68268001Y-148024000D01*
G75*
G02*
X68518000Y-148273999I0J-249999D01*
G01*
X68518000Y-148924001D01*
G75*
G02*
X68268001Y-149174000I-249999J0D01*
G01*
G37*
G36*
G01*
X68268001Y-147124000D02*
X67367999Y-147124000D01*
G75*
G02*
X67118000Y-146874001I0J249999D01*
G01*
X67118000Y-146223999D01*
G75*
G02*
X67367999Y-145974000I249999J0D01*
G01*
X68268001Y-145974000D01*
G75*
G02*
X68518000Y-146223999I0J-249999D01*
G01*
X68518000Y-146874001D01*
G75*
G02*
X68268001Y-147124000I-249999J0D01*
G01*
G37*
%TD*%
%TO.C,R8*%
G36*
G01*
X65462999Y-142028000D02*
X66363001Y-142028000D01*
G75*
G02*
X66613000Y-142277999I0J-249999D01*
G01*
X66613000Y-142928001D01*
G75*
G02*
X66363001Y-143178000I-249999J0D01*
G01*
X65462999Y-143178000D01*
G75*
G02*
X65213000Y-142928001I0J249999D01*
G01*
X65213000Y-142277999D01*
G75*
G02*
X65462999Y-142028000I249999J0D01*
G01*
G37*
G36*
G01*
X65462999Y-144078000D02*
X66363001Y-144078000D01*
G75*
G02*
X66613000Y-144327999I0J-249999D01*
G01*
X66613000Y-144978001D01*
G75*
G02*
X66363001Y-145228000I-249999J0D01*
G01*
X65462999Y-145228000D01*
G75*
G02*
X65213000Y-144978001I0J249999D01*
G01*
X65213000Y-144327999D01*
G75*
G02*
X65462999Y-144078000I249999J0D01*
G01*
G37*
%TD*%
%TO.C,R9*%
G36*
G01*
X67494999Y-144078000D02*
X68395001Y-144078000D01*
G75*
G02*
X68645000Y-144327999I0J-249999D01*
G01*
X68645000Y-144978001D01*
G75*
G02*
X68395001Y-145228000I-249999J0D01*
G01*
X67494999Y-145228000D01*
G75*
G02*
X67245000Y-144978001I0J249999D01*
G01*
X67245000Y-144327999D01*
G75*
G02*
X67494999Y-144078000I249999J0D01*
G01*
G37*
G36*
G01*
X67494999Y-142028000D02*
X68395001Y-142028000D01*
G75*
G02*
X68645000Y-142277999I0J-249999D01*
G01*
X68645000Y-142928001D01*
G75*
G02*
X68395001Y-143178000I-249999J0D01*
G01*
X67494999Y-143178000D01*
G75*
G02*
X67245000Y-142928001I0J249999D01*
G01*
X67245000Y-142277999D01*
G75*
G02*
X67494999Y-142028000I249999J0D01*
G01*
G37*
%TD*%
%TO.C,R18*%
G36*
G01*
X67252000Y-154120001D02*
X67252000Y-153219999D01*
G75*
G02*
X67501999Y-152970000I249999J0D01*
G01*
X68152001Y-152970000D01*
G75*
G02*
X68402000Y-153219999I0J-249999D01*
G01*
X68402000Y-154120001D01*
G75*
G02*
X68152001Y-154370000I-249999J0D01*
G01*
X67501999Y-154370000D01*
G75*
G02*
X67252000Y-154120001I0J249999D01*
G01*
G37*
G36*
G01*
X65202000Y-154120001D02*
X65202000Y-153219999D01*
G75*
G02*
X65451999Y-152970000I249999J0D01*
G01*
X66102001Y-152970000D01*
G75*
G02*
X66352000Y-153219999I0J-249999D01*
G01*
X66352000Y-154120001D01*
G75*
G02*
X66102001Y-154370000I-249999J0D01*
G01*
X65451999Y-154370000D01*
G75*
G02*
X65202000Y-154120001I0J249999D01*
G01*
G37*
%TD*%
M02*
