%TF.GenerationSoftware,KiCad,Pcbnew,(5.1.6)-1*%
%TF.CreationDate,2020-12-19T20:46:54-03:30*%
%TF.ProjectId,graphics-card-rev-2,67726170-6869-4637-932d-636172642d72,rev?*%
%TF.SameCoordinates,Original*%
%TF.FileFunction,Paste,Top*%
%TF.FilePolarity,Positive*%
%FSLAX46Y46*%
G04 Gerber Fmt 4.6, Leading zero omitted, Abs format (unit mm)*
G04 Created by KiCad (PCBNEW (5.1.6)-1) date 2020-12-19 20:46:54*
%MOMM*%
%LPD*%
G01*
G04 APERTURE LIST*
%ADD10R,1.430000X2.500000*%
%ADD11R,0.400000X1.650000*%
%ADD12R,2.000000X1.500000*%
%ADD13R,1.825000X0.700000*%
%ADD14R,1.350000X2.000000*%
%ADD15R,0.300000X1.900000*%
%ADD16R,1.060000X0.650000*%
%ADD17R,2.000000X3.800000*%
%ADD18R,1.510000X0.458000*%
%ADD19R,3.500000X2.400000*%
%ADD20R,1.550000X1.300000*%
%ADD21R,1.000000X3.150000*%
%ADD22R,0.900000X0.800000*%
G04 APERTURE END LIST*
%TO.C,U6*%
G36*
G01*
X105980000Y-113560000D02*
X107330000Y-113560000D01*
G75*
G02*
X107405000Y-113635000I0J-75000D01*
G01*
X107405000Y-113785000D01*
G75*
G02*
X107330000Y-113860000I-75000J0D01*
G01*
X105980000Y-113860000D01*
G75*
G02*
X105905000Y-113785000I0J75000D01*
G01*
X105905000Y-113635000D01*
G75*
G02*
X105980000Y-113560000I75000J0D01*
G01*
G37*
G36*
G01*
X105980000Y-114060000D02*
X107330000Y-114060000D01*
G75*
G02*
X107405000Y-114135000I0J-75000D01*
G01*
X107405000Y-114285000D01*
G75*
G02*
X107330000Y-114360000I-75000J0D01*
G01*
X105980000Y-114360000D01*
G75*
G02*
X105905000Y-114285000I0J75000D01*
G01*
X105905000Y-114135000D01*
G75*
G02*
X105980000Y-114060000I75000J0D01*
G01*
G37*
G36*
G01*
X105980000Y-114560000D02*
X107330000Y-114560000D01*
G75*
G02*
X107405000Y-114635000I0J-75000D01*
G01*
X107405000Y-114785000D01*
G75*
G02*
X107330000Y-114860000I-75000J0D01*
G01*
X105980000Y-114860000D01*
G75*
G02*
X105905000Y-114785000I0J75000D01*
G01*
X105905000Y-114635000D01*
G75*
G02*
X105980000Y-114560000I75000J0D01*
G01*
G37*
G36*
G01*
X105980000Y-115060000D02*
X107330000Y-115060000D01*
G75*
G02*
X107405000Y-115135000I0J-75000D01*
G01*
X107405000Y-115285000D01*
G75*
G02*
X107330000Y-115360000I-75000J0D01*
G01*
X105980000Y-115360000D01*
G75*
G02*
X105905000Y-115285000I0J75000D01*
G01*
X105905000Y-115135000D01*
G75*
G02*
X105980000Y-115060000I75000J0D01*
G01*
G37*
G36*
G01*
X105980000Y-115560000D02*
X107330000Y-115560000D01*
G75*
G02*
X107405000Y-115635000I0J-75000D01*
G01*
X107405000Y-115785000D01*
G75*
G02*
X107330000Y-115860000I-75000J0D01*
G01*
X105980000Y-115860000D01*
G75*
G02*
X105905000Y-115785000I0J75000D01*
G01*
X105905000Y-115635000D01*
G75*
G02*
X105980000Y-115560000I75000J0D01*
G01*
G37*
G36*
G01*
X105980000Y-116060000D02*
X107330000Y-116060000D01*
G75*
G02*
X107405000Y-116135000I0J-75000D01*
G01*
X107405000Y-116285000D01*
G75*
G02*
X107330000Y-116360000I-75000J0D01*
G01*
X105980000Y-116360000D01*
G75*
G02*
X105905000Y-116285000I0J75000D01*
G01*
X105905000Y-116135000D01*
G75*
G02*
X105980000Y-116060000I75000J0D01*
G01*
G37*
G36*
G01*
X105980000Y-116560000D02*
X107330000Y-116560000D01*
G75*
G02*
X107405000Y-116635000I0J-75000D01*
G01*
X107405000Y-116785000D01*
G75*
G02*
X107330000Y-116860000I-75000J0D01*
G01*
X105980000Y-116860000D01*
G75*
G02*
X105905000Y-116785000I0J75000D01*
G01*
X105905000Y-116635000D01*
G75*
G02*
X105980000Y-116560000I75000J0D01*
G01*
G37*
G36*
G01*
X105980000Y-117060000D02*
X107330000Y-117060000D01*
G75*
G02*
X107405000Y-117135000I0J-75000D01*
G01*
X107405000Y-117285000D01*
G75*
G02*
X107330000Y-117360000I-75000J0D01*
G01*
X105980000Y-117360000D01*
G75*
G02*
X105905000Y-117285000I0J75000D01*
G01*
X105905000Y-117135000D01*
G75*
G02*
X105980000Y-117060000I75000J0D01*
G01*
G37*
G36*
G01*
X105980000Y-117560000D02*
X107330000Y-117560000D01*
G75*
G02*
X107405000Y-117635000I0J-75000D01*
G01*
X107405000Y-117785000D01*
G75*
G02*
X107330000Y-117860000I-75000J0D01*
G01*
X105980000Y-117860000D01*
G75*
G02*
X105905000Y-117785000I0J75000D01*
G01*
X105905000Y-117635000D01*
G75*
G02*
X105980000Y-117560000I75000J0D01*
G01*
G37*
G36*
G01*
X105980000Y-118060000D02*
X107330000Y-118060000D01*
G75*
G02*
X107405000Y-118135000I0J-75000D01*
G01*
X107405000Y-118285000D01*
G75*
G02*
X107330000Y-118360000I-75000J0D01*
G01*
X105980000Y-118360000D01*
G75*
G02*
X105905000Y-118285000I0J75000D01*
G01*
X105905000Y-118135000D01*
G75*
G02*
X105980000Y-118060000I75000J0D01*
G01*
G37*
G36*
G01*
X105980000Y-118560000D02*
X107330000Y-118560000D01*
G75*
G02*
X107405000Y-118635000I0J-75000D01*
G01*
X107405000Y-118785000D01*
G75*
G02*
X107330000Y-118860000I-75000J0D01*
G01*
X105980000Y-118860000D01*
G75*
G02*
X105905000Y-118785000I0J75000D01*
G01*
X105905000Y-118635000D01*
G75*
G02*
X105980000Y-118560000I75000J0D01*
G01*
G37*
G36*
G01*
X105980000Y-119060000D02*
X107330000Y-119060000D01*
G75*
G02*
X107405000Y-119135000I0J-75000D01*
G01*
X107405000Y-119285000D01*
G75*
G02*
X107330000Y-119360000I-75000J0D01*
G01*
X105980000Y-119360000D01*
G75*
G02*
X105905000Y-119285000I0J75000D01*
G01*
X105905000Y-119135000D01*
G75*
G02*
X105980000Y-119060000I75000J0D01*
G01*
G37*
G36*
G01*
X105980000Y-119560000D02*
X107330000Y-119560000D01*
G75*
G02*
X107405000Y-119635000I0J-75000D01*
G01*
X107405000Y-119785000D01*
G75*
G02*
X107330000Y-119860000I-75000J0D01*
G01*
X105980000Y-119860000D01*
G75*
G02*
X105905000Y-119785000I0J75000D01*
G01*
X105905000Y-119635000D01*
G75*
G02*
X105980000Y-119560000I75000J0D01*
G01*
G37*
G36*
G01*
X105980000Y-120060000D02*
X107330000Y-120060000D01*
G75*
G02*
X107405000Y-120135000I0J-75000D01*
G01*
X107405000Y-120285000D01*
G75*
G02*
X107330000Y-120360000I-75000J0D01*
G01*
X105980000Y-120360000D01*
G75*
G02*
X105905000Y-120285000I0J75000D01*
G01*
X105905000Y-120135000D01*
G75*
G02*
X105980000Y-120060000I75000J0D01*
G01*
G37*
G36*
G01*
X105980000Y-120560000D02*
X107330000Y-120560000D01*
G75*
G02*
X107405000Y-120635000I0J-75000D01*
G01*
X107405000Y-120785000D01*
G75*
G02*
X107330000Y-120860000I-75000J0D01*
G01*
X105980000Y-120860000D01*
G75*
G02*
X105905000Y-120785000I0J75000D01*
G01*
X105905000Y-120635000D01*
G75*
G02*
X105980000Y-120560000I75000J0D01*
G01*
G37*
G36*
G01*
X105980000Y-121060000D02*
X107330000Y-121060000D01*
G75*
G02*
X107405000Y-121135000I0J-75000D01*
G01*
X107405000Y-121285000D01*
G75*
G02*
X107330000Y-121360000I-75000J0D01*
G01*
X105980000Y-121360000D01*
G75*
G02*
X105905000Y-121285000I0J75000D01*
G01*
X105905000Y-121135000D01*
G75*
G02*
X105980000Y-121060000I75000J0D01*
G01*
G37*
G36*
G01*
X105980000Y-121560000D02*
X107330000Y-121560000D01*
G75*
G02*
X107405000Y-121635000I0J-75000D01*
G01*
X107405000Y-121785000D01*
G75*
G02*
X107330000Y-121860000I-75000J0D01*
G01*
X105980000Y-121860000D01*
G75*
G02*
X105905000Y-121785000I0J75000D01*
G01*
X105905000Y-121635000D01*
G75*
G02*
X105980000Y-121560000I75000J0D01*
G01*
G37*
G36*
G01*
X105980000Y-122060000D02*
X107330000Y-122060000D01*
G75*
G02*
X107405000Y-122135000I0J-75000D01*
G01*
X107405000Y-122285000D01*
G75*
G02*
X107330000Y-122360000I-75000J0D01*
G01*
X105980000Y-122360000D01*
G75*
G02*
X105905000Y-122285000I0J75000D01*
G01*
X105905000Y-122135000D01*
G75*
G02*
X105980000Y-122060000I75000J0D01*
G01*
G37*
G36*
G01*
X105980000Y-122560000D02*
X107330000Y-122560000D01*
G75*
G02*
X107405000Y-122635000I0J-75000D01*
G01*
X107405000Y-122785000D01*
G75*
G02*
X107330000Y-122860000I-75000J0D01*
G01*
X105980000Y-122860000D01*
G75*
G02*
X105905000Y-122785000I0J75000D01*
G01*
X105905000Y-122635000D01*
G75*
G02*
X105980000Y-122560000I75000J0D01*
G01*
G37*
G36*
G01*
X105980000Y-123060000D02*
X107330000Y-123060000D01*
G75*
G02*
X107405000Y-123135000I0J-75000D01*
G01*
X107405000Y-123285000D01*
G75*
G02*
X107330000Y-123360000I-75000J0D01*
G01*
X105980000Y-123360000D01*
G75*
G02*
X105905000Y-123285000I0J75000D01*
G01*
X105905000Y-123135000D01*
G75*
G02*
X105980000Y-123060000I75000J0D01*
G01*
G37*
G36*
G01*
X105980000Y-123560000D02*
X107330000Y-123560000D01*
G75*
G02*
X107405000Y-123635000I0J-75000D01*
G01*
X107405000Y-123785000D01*
G75*
G02*
X107330000Y-123860000I-75000J0D01*
G01*
X105980000Y-123860000D01*
G75*
G02*
X105905000Y-123785000I0J75000D01*
G01*
X105905000Y-123635000D01*
G75*
G02*
X105980000Y-123560000I75000J0D01*
G01*
G37*
G36*
G01*
X105980000Y-124060000D02*
X107330000Y-124060000D01*
G75*
G02*
X107405000Y-124135000I0J-75000D01*
G01*
X107405000Y-124285000D01*
G75*
G02*
X107330000Y-124360000I-75000J0D01*
G01*
X105980000Y-124360000D01*
G75*
G02*
X105905000Y-124285000I0J75000D01*
G01*
X105905000Y-124135000D01*
G75*
G02*
X105980000Y-124060000I75000J0D01*
G01*
G37*
G36*
G01*
X105980000Y-124560000D02*
X107330000Y-124560000D01*
G75*
G02*
X107405000Y-124635000I0J-75000D01*
G01*
X107405000Y-124785000D01*
G75*
G02*
X107330000Y-124860000I-75000J0D01*
G01*
X105980000Y-124860000D01*
G75*
G02*
X105905000Y-124785000I0J75000D01*
G01*
X105905000Y-124635000D01*
G75*
G02*
X105980000Y-124560000I75000J0D01*
G01*
G37*
G36*
G01*
X105980000Y-125060000D02*
X107330000Y-125060000D01*
G75*
G02*
X107405000Y-125135000I0J-75000D01*
G01*
X107405000Y-125285000D01*
G75*
G02*
X107330000Y-125360000I-75000J0D01*
G01*
X105980000Y-125360000D01*
G75*
G02*
X105905000Y-125285000I0J75000D01*
G01*
X105905000Y-125135000D01*
G75*
G02*
X105980000Y-125060000I75000J0D01*
G01*
G37*
G36*
G01*
X105980000Y-125560000D02*
X107330000Y-125560000D01*
G75*
G02*
X107405000Y-125635000I0J-75000D01*
G01*
X107405000Y-125785000D01*
G75*
G02*
X107330000Y-125860000I-75000J0D01*
G01*
X105980000Y-125860000D01*
G75*
G02*
X105905000Y-125785000I0J75000D01*
G01*
X105905000Y-125635000D01*
G75*
G02*
X105980000Y-125560000I75000J0D01*
G01*
G37*
G36*
G01*
X105980000Y-126060000D02*
X107330000Y-126060000D01*
G75*
G02*
X107405000Y-126135000I0J-75000D01*
G01*
X107405000Y-126285000D01*
G75*
G02*
X107330000Y-126360000I-75000J0D01*
G01*
X105980000Y-126360000D01*
G75*
G02*
X105905000Y-126285000I0J75000D01*
G01*
X105905000Y-126135000D01*
G75*
G02*
X105980000Y-126060000I75000J0D01*
G01*
G37*
G36*
G01*
X105980000Y-126560000D02*
X107330000Y-126560000D01*
G75*
G02*
X107405000Y-126635000I0J-75000D01*
G01*
X107405000Y-126785000D01*
G75*
G02*
X107330000Y-126860000I-75000J0D01*
G01*
X105980000Y-126860000D01*
G75*
G02*
X105905000Y-126785000I0J75000D01*
G01*
X105905000Y-126635000D01*
G75*
G02*
X105980000Y-126560000I75000J0D01*
G01*
G37*
G36*
G01*
X105980000Y-127060000D02*
X107330000Y-127060000D01*
G75*
G02*
X107405000Y-127135000I0J-75000D01*
G01*
X107405000Y-127285000D01*
G75*
G02*
X107330000Y-127360000I-75000J0D01*
G01*
X105980000Y-127360000D01*
G75*
G02*
X105905000Y-127285000I0J75000D01*
G01*
X105905000Y-127135000D01*
G75*
G02*
X105980000Y-127060000I75000J0D01*
G01*
G37*
G36*
G01*
X105980000Y-127560000D02*
X107330000Y-127560000D01*
G75*
G02*
X107405000Y-127635000I0J-75000D01*
G01*
X107405000Y-127785000D01*
G75*
G02*
X107330000Y-127860000I-75000J0D01*
G01*
X105980000Y-127860000D01*
G75*
G02*
X105905000Y-127785000I0J75000D01*
G01*
X105905000Y-127635000D01*
G75*
G02*
X105980000Y-127560000I75000J0D01*
G01*
G37*
G36*
G01*
X105980000Y-128060000D02*
X107330000Y-128060000D01*
G75*
G02*
X107405000Y-128135000I0J-75000D01*
G01*
X107405000Y-128285000D01*
G75*
G02*
X107330000Y-128360000I-75000J0D01*
G01*
X105980000Y-128360000D01*
G75*
G02*
X105905000Y-128285000I0J75000D01*
G01*
X105905000Y-128135000D01*
G75*
G02*
X105980000Y-128060000I75000J0D01*
G01*
G37*
G36*
G01*
X105980000Y-128560000D02*
X107330000Y-128560000D01*
G75*
G02*
X107405000Y-128635000I0J-75000D01*
G01*
X107405000Y-128785000D01*
G75*
G02*
X107330000Y-128860000I-75000J0D01*
G01*
X105980000Y-128860000D01*
G75*
G02*
X105905000Y-128785000I0J75000D01*
G01*
X105905000Y-128635000D01*
G75*
G02*
X105980000Y-128560000I75000J0D01*
G01*
G37*
G36*
G01*
X105980000Y-129060000D02*
X107330000Y-129060000D01*
G75*
G02*
X107405000Y-129135000I0J-75000D01*
G01*
X107405000Y-129285000D01*
G75*
G02*
X107330000Y-129360000I-75000J0D01*
G01*
X105980000Y-129360000D01*
G75*
G02*
X105905000Y-129285000I0J75000D01*
G01*
X105905000Y-129135000D01*
G75*
G02*
X105980000Y-129060000I75000J0D01*
G01*
G37*
G36*
G01*
X105980000Y-129560000D02*
X107330000Y-129560000D01*
G75*
G02*
X107405000Y-129635000I0J-75000D01*
G01*
X107405000Y-129785000D01*
G75*
G02*
X107330000Y-129860000I-75000J0D01*
G01*
X105980000Y-129860000D01*
G75*
G02*
X105905000Y-129785000I0J75000D01*
G01*
X105905000Y-129635000D01*
G75*
G02*
X105980000Y-129560000I75000J0D01*
G01*
G37*
G36*
G01*
X105980000Y-130060000D02*
X107330000Y-130060000D01*
G75*
G02*
X107405000Y-130135000I0J-75000D01*
G01*
X107405000Y-130285000D01*
G75*
G02*
X107330000Y-130360000I-75000J0D01*
G01*
X105980000Y-130360000D01*
G75*
G02*
X105905000Y-130285000I0J75000D01*
G01*
X105905000Y-130135000D01*
G75*
G02*
X105980000Y-130060000I75000J0D01*
G01*
G37*
G36*
G01*
X105980000Y-130560000D02*
X107330000Y-130560000D01*
G75*
G02*
X107405000Y-130635000I0J-75000D01*
G01*
X107405000Y-130785000D01*
G75*
G02*
X107330000Y-130860000I-75000J0D01*
G01*
X105980000Y-130860000D01*
G75*
G02*
X105905000Y-130785000I0J75000D01*
G01*
X105905000Y-130635000D01*
G75*
G02*
X105980000Y-130560000I75000J0D01*
G01*
G37*
G36*
G01*
X105980000Y-131060000D02*
X107330000Y-131060000D01*
G75*
G02*
X107405000Y-131135000I0J-75000D01*
G01*
X107405000Y-131285000D01*
G75*
G02*
X107330000Y-131360000I-75000J0D01*
G01*
X105980000Y-131360000D01*
G75*
G02*
X105905000Y-131285000I0J75000D01*
G01*
X105905000Y-131135000D01*
G75*
G02*
X105980000Y-131060000I75000J0D01*
G01*
G37*
G36*
G01*
X105980000Y-131560000D02*
X107330000Y-131560000D01*
G75*
G02*
X107405000Y-131635000I0J-75000D01*
G01*
X107405000Y-131785000D01*
G75*
G02*
X107330000Y-131860000I-75000J0D01*
G01*
X105980000Y-131860000D01*
G75*
G02*
X105905000Y-131785000I0J75000D01*
G01*
X105905000Y-131635000D01*
G75*
G02*
X105980000Y-131560000I75000J0D01*
G01*
G37*
G36*
G01*
X105980000Y-132060000D02*
X107330000Y-132060000D01*
G75*
G02*
X107405000Y-132135000I0J-75000D01*
G01*
X107405000Y-132285000D01*
G75*
G02*
X107330000Y-132360000I-75000J0D01*
G01*
X105980000Y-132360000D01*
G75*
G02*
X105905000Y-132285000I0J75000D01*
G01*
X105905000Y-132135000D01*
G75*
G02*
X105980000Y-132060000I75000J0D01*
G01*
G37*
G36*
G01*
X105980000Y-132560000D02*
X107330000Y-132560000D01*
G75*
G02*
X107405000Y-132635000I0J-75000D01*
G01*
X107405000Y-132785000D01*
G75*
G02*
X107330000Y-132860000I-75000J0D01*
G01*
X105980000Y-132860000D01*
G75*
G02*
X105905000Y-132785000I0J75000D01*
G01*
X105905000Y-132635000D01*
G75*
G02*
X105980000Y-132560000I75000J0D01*
G01*
G37*
G36*
G01*
X105980000Y-133060000D02*
X107330000Y-133060000D01*
G75*
G02*
X107405000Y-133135000I0J-75000D01*
G01*
X107405000Y-133285000D01*
G75*
G02*
X107330000Y-133360000I-75000J0D01*
G01*
X105980000Y-133360000D01*
G75*
G02*
X105905000Y-133285000I0J75000D01*
G01*
X105905000Y-133135000D01*
G75*
G02*
X105980000Y-133060000I75000J0D01*
G01*
G37*
G36*
G01*
X105980000Y-133560000D02*
X107330000Y-133560000D01*
G75*
G02*
X107405000Y-133635000I0J-75000D01*
G01*
X107405000Y-133785000D01*
G75*
G02*
X107330000Y-133860000I-75000J0D01*
G01*
X105980000Y-133860000D01*
G75*
G02*
X105905000Y-133785000I0J75000D01*
G01*
X105905000Y-133635000D01*
G75*
G02*
X105980000Y-133560000I75000J0D01*
G01*
G37*
G36*
G01*
X105980000Y-134060000D02*
X107330000Y-134060000D01*
G75*
G02*
X107405000Y-134135000I0J-75000D01*
G01*
X107405000Y-134285000D01*
G75*
G02*
X107330000Y-134360000I-75000J0D01*
G01*
X105980000Y-134360000D01*
G75*
G02*
X105905000Y-134285000I0J75000D01*
G01*
X105905000Y-134135000D01*
G75*
G02*
X105980000Y-134060000I75000J0D01*
G01*
G37*
G36*
G01*
X105980000Y-134560000D02*
X107330000Y-134560000D01*
G75*
G02*
X107405000Y-134635000I0J-75000D01*
G01*
X107405000Y-134785000D01*
G75*
G02*
X107330000Y-134860000I-75000J0D01*
G01*
X105980000Y-134860000D01*
G75*
G02*
X105905000Y-134785000I0J75000D01*
G01*
X105905000Y-134635000D01*
G75*
G02*
X105980000Y-134560000I75000J0D01*
G01*
G37*
G36*
G01*
X105980000Y-135060000D02*
X107330000Y-135060000D01*
G75*
G02*
X107405000Y-135135000I0J-75000D01*
G01*
X107405000Y-135285000D01*
G75*
G02*
X107330000Y-135360000I-75000J0D01*
G01*
X105980000Y-135360000D01*
G75*
G02*
X105905000Y-135285000I0J75000D01*
G01*
X105905000Y-135135000D01*
G75*
G02*
X105980000Y-135060000I75000J0D01*
G01*
G37*
G36*
G01*
X104655000Y-136385000D02*
X104805000Y-136385000D01*
G75*
G02*
X104880000Y-136460000I0J-75000D01*
G01*
X104880000Y-137810000D01*
G75*
G02*
X104805000Y-137885000I-75000J0D01*
G01*
X104655000Y-137885000D01*
G75*
G02*
X104580000Y-137810000I0J75000D01*
G01*
X104580000Y-136460000D01*
G75*
G02*
X104655000Y-136385000I75000J0D01*
G01*
G37*
G36*
G01*
X104155000Y-136385000D02*
X104305000Y-136385000D01*
G75*
G02*
X104380000Y-136460000I0J-75000D01*
G01*
X104380000Y-137810000D01*
G75*
G02*
X104305000Y-137885000I-75000J0D01*
G01*
X104155000Y-137885000D01*
G75*
G02*
X104080000Y-137810000I0J75000D01*
G01*
X104080000Y-136460000D01*
G75*
G02*
X104155000Y-136385000I75000J0D01*
G01*
G37*
G36*
G01*
X103655000Y-136385000D02*
X103805000Y-136385000D01*
G75*
G02*
X103880000Y-136460000I0J-75000D01*
G01*
X103880000Y-137810000D01*
G75*
G02*
X103805000Y-137885000I-75000J0D01*
G01*
X103655000Y-137885000D01*
G75*
G02*
X103580000Y-137810000I0J75000D01*
G01*
X103580000Y-136460000D01*
G75*
G02*
X103655000Y-136385000I75000J0D01*
G01*
G37*
G36*
G01*
X103155000Y-136385000D02*
X103305000Y-136385000D01*
G75*
G02*
X103380000Y-136460000I0J-75000D01*
G01*
X103380000Y-137810000D01*
G75*
G02*
X103305000Y-137885000I-75000J0D01*
G01*
X103155000Y-137885000D01*
G75*
G02*
X103080000Y-137810000I0J75000D01*
G01*
X103080000Y-136460000D01*
G75*
G02*
X103155000Y-136385000I75000J0D01*
G01*
G37*
G36*
G01*
X102655000Y-136385000D02*
X102805000Y-136385000D01*
G75*
G02*
X102880000Y-136460000I0J-75000D01*
G01*
X102880000Y-137810000D01*
G75*
G02*
X102805000Y-137885000I-75000J0D01*
G01*
X102655000Y-137885000D01*
G75*
G02*
X102580000Y-137810000I0J75000D01*
G01*
X102580000Y-136460000D01*
G75*
G02*
X102655000Y-136385000I75000J0D01*
G01*
G37*
G36*
G01*
X102155000Y-136385000D02*
X102305000Y-136385000D01*
G75*
G02*
X102380000Y-136460000I0J-75000D01*
G01*
X102380000Y-137810000D01*
G75*
G02*
X102305000Y-137885000I-75000J0D01*
G01*
X102155000Y-137885000D01*
G75*
G02*
X102080000Y-137810000I0J75000D01*
G01*
X102080000Y-136460000D01*
G75*
G02*
X102155000Y-136385000I75000J0D01*
G01*
G37*
G36*
G01*
X101655000Y-136385000D02*
X101805000Y-136385000D01*
G75*
G02*
X101880000Y-136460000I0J-75000D01*
G01*
X101880000Y-137810000D01*
G75*
G02*
X101805000Y-137885000I-75000J0D01*
G01*
X101655000Y-137885000D01*
G75*
G02*
X101580000Y-137810000I0J75000D01*
G01*
X101580000Y-136460000D01*
G75*
G02*
X101655000Y-136385000I75000J0D01*
G01*
G37*
G36*
G01*
X101155000Y-136385000D02*
X101305000Y-136385000D01*
G75*
G02*
X101380000Y-136460000I0J-75000D01*
G01*
X101380000Y-137810000D01*
G75*
G02*
X101305000Y-137885000I-75000J0D01*
G01*
X101155000Y-137885000D01*
G75*
G02*
X101080000Y-137810000I0J75000D01*
G01*
X101080000Y-136460000D01*
G75*
G02*
X101155000Y-136385000I75000J0D01*
G01*
G37*
G36*
G01*
X100655000Y-136385000D02*
X100805000Y-136385000D01*
G75*
G02*
X100880000Y-136460000I0J-75000D01*
G01*
X100880000Y-137810000D01*
G75*
G02*
X100805000Y-137885000I-75000J0D01*
G01*
X100655000Y-137885000D01*
G75*
G02*
X100580000Y-137810000I0J75000D01*
G01*
X100580000Y-136460000D01*
G75*
G02*
X100655000Y-136385000I75000J0D01*
G01*
G37*
G36*
G01*
X100155000Y-136385000D02*
X100305000Y-136385000D01*
G75*
G02*
X100380000Y-136460000I0J-75000D01*
G01*
X100380000Y-137810000D01*
G75*
G02*
X100305000Y-137885000I-75000J0D01*
G01*
X100155000Y-137885000D01*
G75*
G02*
X100080000Y-137810000I0J75000D01*
G01*
X100080000Y-136460000D01*
G75*
G02*
X100155000Y-136385000I75000J0D01*
G01*
G37*
G36*
G01*
X99655000Y-136385000D02*
X99805000Y-136385000D01*
G75*
G02*
X99880000Y-136460000I0J-75000D01*
G01*
X99880000Y-137810000D01*
G75*
G02*
X99805000Y-137885000I-75000J0D01*
G01*
X99655000Y-137885000D01*
G75*
G02*
X99580000Y-137810000I0J75000D01*
G01*
X99580000Y-136460000D01*
G75*
G02*
X99655000Y-136385000I75000J0D01*
G01*
G37*
G36*
G01*
X99155000Y-136385000D02*
X99305000Y-136385000D01*
G75*
G02*
X99380000Y-136460000I0J-75000D01*
G01*
X99380000Y-137810000D01*
G75*
G02*
X99305000Y-137885000I-75000J0D01*
G01*
X99155000Y-137885000D01*
G75*
G02*
X99080000Y-137810000I0J75000D01*
G01*
X99080000Y-136460000D01*
G75*
G02*
X99155000Y-136385000I75000J0D01*
G01*
G37*
G36*
G01*
X98655000Y-136385000D02*
X98805000Y-136385000D01*
G75*
G02*
X98880000Y-136460000I0J-75000D01*
G01*
X98880000Y-137810000D01*
G75*
G02*
X98805000Y-137885000I-75000J0D01*
G01*
X98655000Y-137885000D01*
G75*
G02*
X98580000Y-137810000I0J75000D01*
G01*
X98580000Y-136460000D01*
G75*
G02*
X98655000Y-136385000I75000J0D01*
G01*
G37*
G36*
G01*
X98155000Y-136385000D02*
X98305000Y-136385000D01*
G75*
G02*
X98380000Y-136460000I0J-75000D01*
G01*
X98380000Y-137810000D01*
G75*
G02*
X98305000Y-137885000I-75000J0D01*
G01*
X98155000Y-137885000D01*
G75*
G02*
X98080000Y-137810000I0J75000D01*
G01*
X98080000Y-136460000D01*
G75*
G02*
X98155000Y-136385000I75000J0D01*
G01*
G37*
G36*
G01*
X97655000Y-136385000D02*
X97805000Y-136385000D01*
G75*
G02*
X97880000Y-136460000I0J-75000D01*
G01*
X97880000Y-137810000D01*
G75*
G02*
X97805000Y-137885000I-75000J0D01*
G01*
X97655000Y-137885000D01*
G75*
G02*
X97580000Y-137810000I0J75000D01*
G01*
X97580000Y-136460000D01*
G75*
G02*
X97655000Y-136385000I75000J0D01*
G01*
G37*
G36*
G01*
X97155000Y-136385000D02*
X97305000Y-136385000D01*
G75*
G02*
X97380000Y-136460000I0J-75000D01*
G01*
X97380000Y-137810000D01*
G75*
G02*
X97305000Y-137885000I-75000J0D01*
G01*
X97155000Y-137885000D01*
G75*
G02*
X97080000Y-137810000I0J75000D01*
G01*
X97080000Y-136460000D01*
G75*
G02*
X97155000Y-136385000I75000J0D01*
G01*
G37*
G36*
G01*
X96655000Y-136385000D02*
X96805000Y-136385000D01*
G75*
G02*
X96880000Y-136460000I0J-75000D01*
G01*
X96880000Y-137810000D01*
G75*
G02*
X96805000Y-137885000I-75000J0D01*
G01*
X96655000Y-137885000D01*
G75*
G02*
X96580000Y-137810000I0J75000D01*
G01*
X96580000Y-136460000D01*
G75*
G02*
X96655000Y-136385000I75000J0D01*
G01*
G37*
G36*
G01*
X96155000Y-136385000D02*
X96305000Y-136385000D01*
G75*
G02*
X96380000Y-136460000I0J-75000D01*
G01*
X96380000Y-137810000D01*
G75*
G02*
X96305000Y-137885000I-75000J0D01*
G01*
X96155000Y-137885000D01*
G75*
G02*
X96080000Y-137810000I0J75000D01*
G01*
X96080000Y-136460000D01*
G75*
G02*
X96155000Y-136385000I75000J0D01*
G01*
G37*
G36*
G01*
X95655000Y-136385000D02*
X95805000Y-136385000D01*
G75*
G02*
X95880000Y-136460000I0J-75000D01*
G01*
X95880000Y-137810000D01*
G75*
G02*
X95805000Y-137885000I-75000J0D01*
G01*
X95655000Y-137885000D01*
G75*
G02*
X95580000Y-137810000I0J75000D01*
G01*
X95580000Y-136460000D01*
G75*
G02*
X95655000Y-136385000I75000J0D01*
G01*
G37*
G36*
G01*
X95155000Y-136385000D02*
X95305000Y-136385000D01*
G75*
G02*
X95380000Y-136460000I0J-75000D01*
G01*
X95380000Y-137810000D01*
G75*
G02*
X95305000Y-137885000I-75000J0D01*
G01*
X95155000Y-137885000D01*
G75*
G02*
X95080000Y-137810000I0J75000D01*
G01*
X95080000Y-136460000D01*
G75*
G02*
X95155000Y-136385000I75000J0D01*
G01*
G37*
G36*
G01*
X94655000Y-136385000D02*
X94805000Y-136385000D01*
G75*
G02*
X94880000Y-136460000I0J-75000D01*
G01*
X94880000Y-137810000D01*
G75*
G02*
X94805000Y-137885000I-75000J0D01*
G01*
X94655000Y-137885000D01*
G75*
G02*
X94580000Y-137810000I0J75000D01*
G01*
X94580000Y-136460000D01*
G75*
G02*
X94655000Y-136385000I75000J0D01*
G01*
G37*
G36*
G01*
X94155000Y-136385000D02*
X94305000Y-136385000D01*
G75*
G02*
X94380000Y-136460000I0J-75000D01*
G01*
X94380000Y-137810000D01*
G75*
G02*
X94305000Y-137885000I-75000J0D01*
G01*
X94155000Y-137885000D01*
G75*
G02*
X94080000Y-137810000I0J75000D01*
G01*
X94080000Y-136460000D01*
G75*
G02*
X94155000Y-136385000I75000J0D01*
G01*
G37*
G36*
G01*
X93655000Y-136385000D02*
X93805000Y-136385000D01*
G75*
G02*
X93880000Y-136460000I0J-75000D01*
G01*
X93880000Y-137810000D01*
G75*
G02*
X93805000Y-137885000I-75000J0D01*
G01*
X93655000Y-137885000D01*
G75*
G02*
X93580000Y-137810000I0J75000D01*
G01*
X93580000Y-136460000D01*
G75*
G02*
X93655000Y-136385000I75000J0D01*
G01*
G37*
G36*
G01*
X93155000Y-136385000D02*
X93305000Y-136385000D01*
G75*
G02*
X93380000Y-136460000I0J-75000D01*
G01*
X93380000Y-137810000D01*
G75*
G02*
X93305000Y-137885000I-75000J0D01*
G01*
X93155000Y-137885000D01*
G75*
G02*
X93080000Y-137810000I0J75000D01*
G01*
X93080000Y-136460000D01*
G75*
G02*
X93155000Y-136385000I75000J0D01*
G01*
G37*
G36*
G01*
X92655000Y-136385000D02*
X92805000Y-136385000D01*
G75*
G02*
X92880000Y-136460000I0J-75000D01*
G01*
X92880000Y-137810000D01*
G75*
G02*
X92805000Y-137885000I-75000J0D01*
G01*
X92655000Y-137885000D01*
G75*
G02*
X92580000Y-137810000I0J75000D01*
G01*
X92580000Y-136460000D01*
G75*
G02*
X92655000Y-136385000I75000J0D01*
G01*
G37*
G36*
G01*
X92155000Y-136385000D02*
X92305000Y-136385000D01*
G75*
G02*
X92380000Y-136460000I0J-75000D01*
G01*
X92380000Y-137810000D01*
G75*
G02*
X92305000Y-137885000I-75000J0D01*
G01*
X92155000Y-137885000D01*
G75*
G02*
X92080000Y-137810000I0J75000D01*
G01*
X92080000Y-136460000D01*
G75*
G02*
X92155000Y-136385000I75000J0D01*
G01*
G37*
G36*
G01*
X91655000Y-136385000D02*
X91805000Y-136385000D01*
G75*
G02*
X91880000Y-136460000I0J-75000D01*
G01*
X91880000Y-137810000D01*
G75*
G02*
X91805000Y-137885000I-75000J0D01*
G01*
X91655000Y-137885000D01*
G75*
G02*
X91580000Y-137810000I0J75000D01*
G01*
X91580000Y-136460000D01*
G75*
G02*
X91655000Y-136385000I75000J0D01*
G01*
G37*
G36*
G01*
X91155000Y-136385000D02*
X91305000Y-136385000D01*
G75*
G02*
X91380000Y-136460000I0J-75000D01*
G01*
X91380000Y-137810000D01*
G75*
G02*
X91305000Y-137885000I-75000J0D01*
G01*
X91155000Y-137885000D01*
G75*
G02*
X91080000Y-137810000I0J75000D01*
G01*
X91080000Y-136460000D01*
G75*
G02*
X91155000Y-136385000I75000J0D01*
G01*
G37*
G36*
G01*
X90655000Y-136385000D02*
X90805000Y-136385000D01*
G75*
G02*
X90880000Y-136460000I0J-75000D01*
G01*
X90880000Y-137810000D01*
G75*
G02*
X90805000Y-137885000I-75000J0D01*
G01*
X90655000Y-137885000D01*
G75*
G02*
X90580000Y-137810000I0J75000D01*
G01*
X90580000Y-136460000D01*
G75*
G02*
X90655000Y-136385000I75000J0D01*
G01*
G37*
G36*
G01*
X90155000Y-136385000D02*
X90305000Y-136385000D01*
G75*
G02*
X90380000Y-136460000I0J-75000D01*
G01*
X90380000Y-137810000D01*
G75*
G02*
X90305000Y-137885000I-75000J0D01*
G01*
X90155000Y-137885000D01*
G75*
G02*
X90080000Y-137810000I0J75000D01*
G01*
X90080000Y-136460000D01*
G75*
G02*
X90155000Y-136385000I75000J0D01*
G01*
G37*
G36*
G01*
X89655000Y-136385000D02*
X89805000Y-136385000D01*
G75*
G02*
X89880000Y-136460000I0J-75000D01*
G01*
X89880000Y-137810000D01*
G75*
G02*
X89805000Y-137885000I-75000J0D01*
G01*
X89655000Y-137885000D01*
G75*
G02*
X89580000Y-137810000I0J75000D01*
G01*
X89580000Y-136460000D01*
G75*
G02*
X89655000Y-136385000I75000J0D01*
G01*
G37*
G36*
G01*
X89155000Y-136385000D02*
X89305000Y-136385000D01*
G75*
G02*
X89380000Y-136460000I0J-75000D01*
G01*
X89380000Y-137810000D01*
G75*
G02*
X89305000Y-137885000I-75000J0D01*
G01*
X89155000Y-137885000D01*
G75*
G02*
X89080000Y-137810000I0J75000D01*
G01*
X89080000Y-136460000D01*
G75*
G02*
X89155000Y-136385000I75000J0D01*
G01*
G37*
G36*
G01*
X88655000Y-136385000D02*
X88805000Y-136385000D01*
G75*
G02*
X88880000Y-136460000I0J-75000D01*
G01*
X88880000Y-137810000D01*
G75*
G02*
X88805000Y-137885000I-75000J0D01*
G01*
X88655000Y-137885000D01*
G75*
G02*
X88580000Y-137810000I0J75000D01*
G01*
X88580000Y-136460000D01*
G75*
G02*
X88655000Y-136385000I75000J0D01*
G01*
G37*
G36*
G01*
X88155000Y-136385000D02*
X88305000Y-136385000D01*
G75*
G02*
X88380000Y-136460000I0J-75000D01*
G01*
X88380000Y-137810000D01*
G75*
G02*
X88305000Y-137885000I-75000J0D01*
G01*
X88155000Y-137885000D01*
G75*
G02*
X88080000Y-137810000I0J75000D01*
G01*
X88080000Y-136460000D01*
G75*
G02*
X88155000Y-136385000I75000J0D01*
G01*
G37*
G36*
G01*
X87655000Y-136385000D02*
X87805000Y-136385000D01*
G75*
G02*
X87880000Y-136460000I0J-75000D01*
G01*
X87880000Y-137810000D01*
G75*
G02*
X87805000Y-137885000I-75000J0D01*
G01*
X87655000Y-137885000D01*
G75*
G02*
X87580000Y-137810000I0J75000D01*
G01*
X87580000Y-136460000D01*
G75*
G02*
X87655000Y-136385000I75000J0D01*
G01*
G37*
G36*
G01*
X87155000Y-136385000D02*
X87305000Y-136385000D01*
G75*
G02*
X87380000Y-136460000I0J-75000D01*
G01*
X87380000Y-137810000D01*
G75*
G02*
X87305000Y-137885000I-75000J0D01*
G01*
X87155000Y-137885000D01*
G75*
G02*
X87080000Y-137810000I0J75000D01*
G01*
X87080000Y-136460000D01*
G75*
G02*
X87155000Y-136385000I75000J0D01*
G01*
G37*
G36*
G01*
X86655000Y-136385000D02*
X86805000Y-136385000D01*
G75*
G02*
X86880000Y-136460000I0J-75000D01*
G01*
X86880000Y-137810000D01*
G75*
G02*
X86805000Y-137885000I-75000J0D01*
G01*
X86655000Y-137885000D01*
G75*
G02*
X86580000Y-137810000I0J75000D01*
G01*
X86580000Y-136460000D01*
G75*
G02*
X86655000Y-136385000I75000J0D01*
G01*
G37*
G36*
G01*
X86155000Y-136385000D02*
X86305000Y-136385000D01*
G75*
G02*
X86380000Y-136460000I0J-75000D01*
G01*
X86380000Y-137810000D01*
G75*
G02*
X86305000Y-137885000I-75000J0D01*
G01*
X86155000Y-137885000D01*
G75*
G02*
X86080000Y-137810000I0J75000D01*
G01*
X86080000Y-136460000D01*
G75*
G02*
X86155000Y-136385000I75000J0D01*
G01*
G37*
G36*
G01*
X85655000Y-136385000D02*
X85805000Y-136385000D01*
G75*
G02*
X85880000Y-136460000I0J-75000D01*
G01*
X85880000Y-137810000D01*
G75*
G02*
X85805000Y-137885000I-75000J0D01*
G01*
X85655000Y-137885000D01*
G75*
G02*
X85580000Y-137810000I0J75000D01*
G01*
X85580000Y-136460000D01*
G75*
G02*
X85655000Y-136385000I75000J0D01*
G01*
G37*
G36*
G01*
X85155000Y-136385000D02*
X85305000Y-136385000D01*
G75*
G02*
X85380000Y-136460000I0J-75000D01*
G01*
X85380000Y-137810000D01*
G75*
G02*
X85305000Y-137885000I-75000J0D01*
G01*
X85155000Y-137885000D01*
G75*
G02*
X85080000Y-137810000I0J75000D01*
G01*
X85080000Y-136460000D01*
G75*
G02*
X85155000Y-136385000I75000J0D01*
G01*
G37*
G36*
G01*
X84655000Y-136385000D02*
X84805000Y-136385000D01*
G75*
G02*
X84880000Y-136460000I0J-75000D01*
G01*
X84880000Y-137810000D01*
G75*
G02*
X84805000Y-137885000I-75000J0D01*
G01*
X84655000Y-137885000D01*
G75*
G02*
X84580000Y-137810000I0J75000D01*
G01*
X84580000Y-136460000D01*
G75*
G02*
X84655000Y-136385000I75000J0D01*
G01*
G37*
G36*
G01*
X84155000Y-136385000D02*
X84305000Y-136385000D01*
G75*
G02*
X84380000Y-136460000I0J-75000D01*
G01*
X84380000Y-137810000D01*
G75*
G02*
X84305000Y-137885000I-75000J0D01*
G01*
X84155000Y-137885000D01*
G75*
G02*
X84080000Y-137810000I0J75000D01*
G01*
X84080000Y-136460000D01*
G75*
G02*
X84155000Y-136385000I75000J0D01*
G01*
G37*
G36*
G01*
X83655000Y-136385000D02*
X83805000Y-136385000D01*
G75*
G02*
X83880000Y-136460000I0J-75000D01*
G01*
X83880000Y-137810000D01*
G75*
G02*
X83805000Y-137885000I-75000J0D01*
G01*
X83655000Y-137885000D01*
G75*
G02*
X83580000Y-137810000I0J75000D01*
G01*
X83580000Y-136460000D01*
G75*
G02*
X83655000Y-136385000I75000J0D01*
G01*
G37*
G36*
G01*
X83155000Y-136385000D02*
X83305000Y-136385000D01*
G75*
G02*
X83380000Y-136460000I0J-75000D01*
G01*
X83380000Y-137810000D01*
G75*
G02*
X83305000Y-137885000I-75000J0D01*
G01*
X83155000Y-137885000D01*
G75*
G02*
X83080000Y-137810000I0J75000D01*
G01*
X83080000Y-136460000D01*
G75*
G02*
X83155000Y-136385000I75000J0D01*
G01*
G37*
G36*
G01*
X80630000Y-135060000D02*
X81980000Y-135060000D01*
G75*
G02*
X82055000Y-135135000I0J-75000D01*
G01*
X82055000Y-135285000D01*
G75*
G02*
X81980000Y-135360000I-75000J0D01*
G01*
X80630000Y-135360000D01*
G75*
G02*
X80555000Y-135285000I0J75000D01*
G01*
X80555000Y-135135000D01*
G75*
G02*
X80630000Y-135060000I75000J0D01*
G01*
G37*
G36*
G01*
X80630000Y-134560000D02*
X81980000Y-134560000D01*
G75*
G02*
X82055000Y-134635000I0J-75000D01*
G01*
X82055000Y-134785000D01*
G75*
G02*
X81980000Y-134860000I-75000J0D01*
G01*
X80630000Y-134860000D01*
G75*
G02*
X80555000Y-134785000I0J75000D01*
G01*
X80555000Y-134635000D01*
G75*
G02*
X80630000Y-134560000I75000J0D01*
G01*
G37*
G36*
G01*
X80630000Y-134060000D02*
X81980000Y-134060000D01*
G75*
G02*
X82055000Y-134135000I0J-75000D01*
G01*
X82055000Y-134285000D01*
G75*
G02*
X81980000Y-134360000I-75000J0D01*
G01*
X80630000Y-134360000D01*
G75*
G02*
X80555000Y-134285000I0J75000D01*
G01*
X80555000Y-134135000D01*
G75*
G02*
X80630000Y-134060000I75000J0D01*
G01*
G37*
G36*
G01*
X80630000Y-133560000D02*
X81980000Y-133560000D01*
G75*
G02*
X82055000Y-133635000I0J-75000D01*
G01*
X82055000Y-133785000D01*
G75*
G02*
X81980000Y-133860000I-75000J0D01*
G01*
X80630000Y-133860000D01*
G75*
G02*
X80555000Y-133785000I0J75000D01*
G01*
X80555000Y-133635000D01*
G75*
G02*
X80630000Y-133560000I75000J0D01*
G01*
G37*
G36*
G01*
X80630000Y-133060000D02*
X81980000Y-133060000D01*
G75*
G02*
X82055000Y-133135000I0J-75000D01*
G01*
X82055000Y-133285000D01*
G75*
G02*
X81980000Y-133360000I-75000J0D01*
G01*
X80630000Y-133360000D01*
G75*
G02*
X80555000Y-133285000I0J75000D01*
G01*
X80555000Y-133135000D01*
G75*
G02*
X80630000Y-133060000I75000J0D01*
G01*
G37*
G36*
G01*
X80630000Y-132560000D02*
X81980000Y-132560000D01*
G75*
G02*
X82055000Y-132635000I0J-75000D01*
G01*
X82055000Y-132785000D01*
G75*
G02*
X81980000Y-132860000I-75000J0D01*
G01*
X80630000Y-132860000D01*
G75*
G02*
X80555000Y-132785000I0J75000D01*
G01*
X80555000Y-132635000D01*
G75*
G02*
X80630000Y-132560000I75000J0D01*
G01*
G37*
G36*
G01*
X80630000Y-132060000D02*
X81980000Y-132060000D01*
G75*
G02*
X82055000Y-132135000I0J-75000D01*
G01*
X82055000Y-132285000D01*
G75*
G02*
X81980000Y-132360000I-75000J0D01*
G01*
X80630000Y-132360000D01*
G75*
G02*
X80555000Y-132285000I0J75000D01*
G01*
X80555000Y-132135000D01*
G75*
G02*
X80630000Y-132060000I75000J0D01*
G01*
G37*
G36*
G01*
X80630000Y-131560000D02*
X81980000Y-131560000D01*
G75*
G02*
X82055000Y-131635000I0J-75000D01*
G01*
X82055000Y-131785000D01*
G75*
G02*
X81980000Y-131860000I-75000J0D01*
G01*
X80630000Y-131860000D01*
G75*
G02*
X80555000Y-131785000I0J75000D01*
G01*
X80555000Y-131635000D01*
G75*
G02*
X80630000Y-131560000I75000J0D01*
G01*
G37*
G36*
G01*
X80630000Y-131060000D02*
X81980000Y-131060000D01*
G75*
G02*
X82055000Y-131135000I0J-75000D01*
G01*
X82055000Y-131285000D01*
G75*
G02*
X81980000Y-131360000I-75000J0D01*
G01*
X80630000Y-131360000D01*
G75*
G02*
X80555000Y-131285000I0J75000D01*
G01*
X80555000Y-131135000D01*
G75*
G02*
X80630000Y-131060000I75000J0D01*
G01*
G37*
G36*
G01*
X80630000Y-130560000D02*
X81980000Y-130560000D01*
G75*
G02*
X82055000Y-130635000I0J-75000D01*
G01*
X82055000Y-130785000D01*
G75*
G02*
X81980000Y-130860000I-75000J0D01*
G01*
X80630000Y-130860000D01*
G75*
G02*
X80555000Y-130785000I0J75000D01*
G01*
X80555000Y-130635000D01*
G75*
G02*
X80630000Y-130560000I75000J0D01*
G01*
G37*
G36*
G01*
X80630000Y-130060000D02*
X81980000Y-130060000D01*
G75*
G02*
X82055000Y-130135000I0J-75000D01*
G01*
X82055000Y-130285000D01*
G75*
G02*
X81980000Y-130360000I-75000J0D01*
G01*
X80630000Y-130360000D01*
G75*
G02*
X80555000Y-130285000I0J75000D01*
G01*
X80555000Y-130135000D01*
G75*
G02*
X80630000Y-130060000I75000J0D01*
G01*
G37*
G36*
G01*
X80630000Y-129560000D02*
X81980000Y-129560000D01*
G75*
G02*
X82055000Y-129635000I0J-75000D01*
G01*
X82055000Y-129785000D01*
G75*
G02*
X81980000Y-129860000I-75000J0D01*
G01*
X80630000Y-129860000D01*
G75*
G02*
X80555000Y-129785000I0J75000D01*
G01*
X80555000Y-129635000D01*
G75*
G02*
X80630000Y-129560000I75000J0D01*
G01*
G37*
G36*
G01*
X80630000Y-129060000D02*
X81980000Y-129060000D01*
G75*
G02*
X82055000Y-129135000I0J-75000D01*
G01*
X82055000Y-129285000D01*
G75*
G02*
X81980000Y-129360000I-75000J0D01*
G01*
X80630000Y-129360000D01*
G75*
G02*
X80555000Y-129285000I0J75000D01*
G01*
X80555000Y-129135000D01*
G75*
G02*
X80630000Y-129060000I75000J0D01*
G01*
G37*
G36*
G01*
X80630000Y-128560000D02*
X81980000Y-128560000D01*
G75*
G02*
X82055000Y-128635000I0J-75000D01*
G01*
X82055000Y-128785000D01*
G75*
G02*
X81980000Y-128860000I-75000J0D01*
G01*
X80630000Y-128860000D01*
G75*
G02*
X80555000Y-128785000I0J75000D01*
G01*
X80555000Y-128635000D01*
G75*
G02*
X80630000Y-128560000I75000J0D01*
G01*
G37*
G36*
G01*
X80630000Y-128060000D02*
X81980000Y-128060000D01*
G75*
G02*
X82055000Y-128135000I0J-75000D01*
G01*
X82055000Y-128285000D01*
G75*
G02*
X81980000Y-128360000I-75000J0D01*
G01*
X80630000Y-128360000D01*
G75*
G02*
X80555000Y-128285000I0J75000D01*
G01*
X80555000Y-128135000D01*
G75*
G02*
X80630000Y-128060000I75000J0D01*
G01*
G37*
G36*
G01*
X80630000Y-127560000D02*
X81980000Y-127560000D01*
G75*
G02*
X82055000Y-127635000I0J-75000D01*
G01*
X82055000Y-127785000D01*
G75*
G02*
X81980000Y-127860000I-75000J0D01*
G01*
X80630000Y-127860000D01*
G75*
G02*
X80555000Y-127785000I0J75000D01*
G01*
X80555000Y-127635000D01*
G75*
G02*
X80630000Y-127560000I75000J0D01*
G01*
G37*
G36*
G01*
X80630000Y-127060000D02*
X81980000Y-127060000D01*
G75*
G02*
X82055000Y-127135000I0J-75000D01*
G01*
X82055000Y-127285000D01*
G75*
G02*
X81980000Y-127360000I-75000J0D01*
G01*
X80630000Y-127360000D01*
G75*
G02*
X80555000Y-127285000I0J75000D01*
G01*
X80555000Y-127135000D01*
G75*
G02*
X80630000Y-127060000I75000J0D01*
G01*
G37*
G36*
G01*
X80630000Y-126560000D02*
X81980000Y-126560000D01*
G75*
G02*
X82055000Y-126635000I0J-75000D01*
G01*
X82055000Y-126785000D01*
G75*
G02*
X81980000Y-126860000I-75000J0D01*
G01*
X80630000Y-126860000D01*
G75*
G02*
X80555000Y-126785000I0J75000D01*
G01*
X80555000Y-126635000D01*
G75*
G02*
X80630000Y-126560000I75000J0D01*
G01*
G37*
G36*
G01*
X80630000Y-126060000D02*
X81980000Y-126060000D01*
G75*
G02*
X82055000Y-126135000I0J-75000D01*
G01*
X82055000Y-126285000D01*
G75*
G02*
X81980000Y-126360000I-75000J0D01*
G01*
X80630000Y-126360000D01*
G75*
G02*
X80555000Y-126285000I0J75000D01*
G01*
X80555000Y-126135000D01*
G75*
G02*
X80630000Y-126060000I75000J0D01*
G01*
G37*
G36*
G01*
X80630000Y-125560000D02*
X81980000Y-125560000D01*
G75*
G02*
X82055000Y-125635000I0J-75000D01*
G01*
X82055000Y-125785000D01*
G75*
G02*
X81980000Y-125860000I-75000J0D01*
G01*
X80630000Y-125860000D01*
G75*
G02*
X80555000Y-125785000I0J75000D01*
G01*
X80555000Y-125635000D01*
G75*
G02*
X80630000Y-125560000I75000J0D01*
G01*
G37*
G36*
G01*
X80630000Y-125060000D02*
X81980000Y-125060000D01*
G75*
G02*
X82055000Y-125135000I0J-75000D01*
G01*
X82055000Y-125285000D01*
G75*
G02*
X81980000Y-125360000I-75000J0D01*
G01*
X80630000Y-125360000D01*
G75*
G02*
X80555000Y-125285000I0J75000D01*
G01*
X80555000Y-125135000D01*
G75*
G02*
X80630000Y-125060000I75000J0D01*
G01*
G37*
G36*
G01*
X80630000Y-124560000D02*
X81980000Y-124560000D01*
G75*
G02*
X82055000Y-124635000I0J-75000D01*
G01*
X82055000Y-124785000D01*
G75*
G02*
X81980000Y-124860000I-75000J0D01*
G01*
X80630000Y-124860000D01*
G75*
G02*
X80555000Y-124785000I0J75000D01*
G01*
X80555000Y-124635000D01*
G75*
G02*
X80630000Y-124560000I75000J0D01*
G01*
G37*
G36*
G01*
X80630000Y-124060000D02*
X81980000Y-124060000D01*
G75*
G02*
X82055000Y-124135000I0J-75000D01*
G01*
X82055000Y-124285000D01*
G75*
G02*
X81980000Y-124360000I-75000J0D01*
G01*
X80630000Y-124360000D01*
G75*
G02*
X80555000Y-124285000I0J75000D01*
G01*
X80555000Y-124135000D01*
G75*
G02*
X80630000Y-124060000I75000J0D01*
G01*
G37*
G36*
G01*
X80630000Y-123560000D02*
X81980000Y-123560000D01*
G75*
G02*
X82055000Y-123635000I0J-75000D01*
G01*
X82055000Y-123785000D01*
G75*
G02*
X81980000Y-123860000I-75000J0D01*
G01*
X80630000Y-123860000D01*
G75*
G02*
X80555000Y-123785000I0J75000D01*
G01*
X80555000Y-123635000D01*
G75*
G02*
X80630000Y-123560000I75000J0D01*
G01*
G37*
G36*
G01*
X80630000Y-123060000D02*
X81980000Y-123060000D01*
G75*
G02*
X82055000Y-123135000I0J-75000D01*
G01*
X82055000Y-123285000D01*
G75*
G02*
X81980000Y-123360000I-75000J0D01*
G01*
X80630000Y-123360000D01*
G75*
G02*
X80555000Y-123285000I0J75000D01*
G01*
X80555000Y-123135000D01*
G75*
G02*
X80630000Y-123060000I75000J0D01*
G01*
G37*
G36*
G01*
X80630000Y-122560000D02*
X81980000Y-122560000D01*
G75*
G02*
X82055000Y-122635000I0J-75000D01*
G01*
X82055000Y-122785000D01*
G75*
G02*
X81980000Y-122860000I-75000J0D01*
G01*
X80630000Y-122860000D01*
G75*
G02*
X80555000Y-122785000I0J75000D01*
G01*
X80555000Y-122635000D01*
G75*
G02*
X80630000Y-122560000I75000J0D01*
G01*
G37*
G36*
G01*
X80630000Y-122060000D02*
X81980000Y-122060000D01*
G75*
G02*
X82055000Y-122135000I0J-75000D01*
G01*
X82055000Y-122285000D01*
G75*
G02*
X81980000Y-122360000I-75000J0D01*
G01*
X80630000Y-122360000D01*
G75*
G02*
X80555000Y-122285000I0J75000D01*
G01*
X80555000Y-122135000D01*
G75*
G02*
X80630000Y-122060000I75000J0D01*
G01*
G37*
G36*
G01*
X80630000Y-121560000D02*
X81980000Y-121560000D01*
G75*
G02*
X82055000Y-121635000I0J-75000D01*
G01*
X82055000Y-121785000D01*
G75*
G02*
X81980000Y-121860000I-75000J0D01*
G01*
X80630000Y-121860000D01*
G75*
G02*
X80555000Y-121785000I0J75000D01*
G01*
X80555000Y-121635000D01*
G75*
G02*
X80630000Y-121560000I75000J0D01*
G01*
G37*
G36*
G01*
X80630000Y-121060000D02*
X81980000Y-121060000D01*
G75*
G02*
X82055000Y-121135000I0J-75000D01*
G01*
X82055000Y-121285000D01*
G75*
G02*
X81980000Y-121360000I-75000J0D01*
G01*
X80630000Y-121360000D01*
G75*
G02*
X80555000Y-121285000I0J75000D01*
G01*
X80555000Y-121135000D01*
G75*
G02*
X80630000Y-121060000I75000J0D01*
G01*
G37*
G36*
G01*
X80630000Y-120560000D02*
X81980000Y-120560000D01*
G75*
G02*
X82055000Y-120635000I0J-75000D01*
G01*
X82055000Y-120785000D01*
G75*
G02*
X81980000Y-120860000I-75000J0D01*
G01*
X80630000Y-120860000D01*
G75*
G02*
X80555000Y-120785000I0J75000D01*
G01*
X80555000Y-120635000D01*
G75*
G02*
X80630000Y-120560000I75000J0D01*
G01*
G37*
G36*
G01*
X80630000Y-120060000D02*
X81980000Y-120060000D01*
G75*
G02*
X82055000Y-120135000I0J-75000D01*
G01*
X82055000Y-120285000D01*
G75*
G02*
X81980000Y-120360000I-75000J0D01*
G01*
X80630000Y-120360000D01*
G75*
G02*
X80555000Y-120285000I0J75000D01*
G01*
X80555000Y-120135000D01*
G75*
G02*
X80630000Y-120060000I75000J0D01*
G01*
G37*
G36*
G01*
X80630000Y-119560000D02*
X81980000Y-119560000D01*
G75*
G02*
X82055000Y-119635000I0J-75000D01*
G01*
X82055000Y-119785000D01*
G75*
G02*
X81980000Y-119860000I-75000J0D01*
G01*
X80630000Y-119860000D01*
G75*
G02*
X80555000Y-119785000I0J75000D01*
G01*
X80555000Y-119635000D01*
G75*
G02*
X80630000Y-119560000I75000J0D01*
G01*
G37*
G36*
G01*
X80630000Y-119060000D02*
X81980000Y-119060000D01*
G75*
G02*
X82055000Y-119135000I0J-75000D01*
G01*
X82055000Y-119285000D01*
G75*
G02*
X81980000Y-119360000I-75000J0D01*
G01*
X80630000Y-119360000D01*
G75*
G02*
X80555000Y-119285000I0J75000D01*
G01*
X80555000Y-119135000D01*
G75*
G02*
X80630000Y-119060000I75000J0D01*
G01*
G37*
G36*
G01*
X80630000Y-118560000D02*
X81980000Y-118560000D01*
G75*
G02*
X82055000Y-118635000I0J-75000D01*
G01*
X82055000Y-118785000D01*
G75*
G02*
X81980000Y-118860000I-75000J0D01*
G01*
X80630000Y-118860000D01*
G75*
G02*
X80555000Y-118785000I0J75000D01*
G01*
X80555000Y-118635000D01*
G75*
G02*
X80630000Y-118560000I75000J0D01*
G01*
G37*
G36*
G01*
X80630000Y-118060000D02*
X81980000Y-118060000D01*
G75*
G02*
X82055000Y-118135000I0J-75000D01*
G01*
X82055000Y-118285000D01*
G75*
G02*
X81980000Y-118360000I-75000J0D01*
G01*
X80630000Y-118360000D01*
G75*
G02*
X80555000Y-118285000I0J75000D01*
G01*
X80555000Y-118135000D01*
G75*
G02*
X80630000Y-118060000I75000J0D01*
G01*
G37*
G36*
G01*
X80630000Y-117560000D02*
X81980000Y-117560000D01*
G75*
G02*
X82055000Y-117635000I0J-75000D01*
G01*
X82055000Y-117785000D01*
G75*
G02*
X81980000Y-117860000I-75000J0D01*
G01*
X80630000Y-117860000D01*
G75*
G02*
X80555000Y-117785000I0J75000D01*
G01*
X80555000Y-117635000D01*
G75*
G02*
X80630000Y-117560000I75000J0D01*
G01*
G37*
G36*
G01*
X80630000Y-117060000D02*
X81980000Y-117060000D01*
G75*
G02*
X82055000Y-117135000I0J-75000D01*
G01*
X82055000Y-117285000D01*
G75*
G02*
X81980000Y-117360000I-75000J0D01*
G01*
X80630000Y-117360000D01*
G75*
G02*
X80555000Y-117285000I0J75000D01*
G01*
X80555000Y-117135000D01*
G75*
G02*
X80630000Y-117060000I75000J0D01*
G01*
G37*
G36*
G01*
X80630000Y-116560000D02*
X81980000Y-116560000D01*
G75*
G02*
X82055000Y-116635000I0J-75000D01*
G01*
X82055000Y-116785000D01*
G75*
G02*
X81980000Y-116860000I-75000J0D01*
G01*
X80630000Y-116860000D01*
G75*
G02*
X80555000Y-116785000I0J75000D01*
G01*
X80555000Y-116635000D01*
G75*
G02*
X80630000Y-116560000I75000J0D01*
G01*
G37*
G36*
G01*
X80630000Y-116060000D02*
X81980000Y-116060000D01*
G75*
G02*
X82055000Y-116135000I0J-75000D01*
G01*
X82055000Y-116285000D01*
G75*
G02*
X81980000Y-116360000I-75000J0D01*
G01*
X80630000Y-116360000D01*
G75*
G02*
X80555000Y-116285000I0J75000D01*
G01*
X80555000Y-116135000D01*
G75*
G02*
X80630000Y-116060000I75000J0D01*
G01*
G37*
G36*
G01*
X80630000Y-115560000D02*
X81980000Y-115560000D01*
G75*
G02*
X82055000Y-115635000I0J-75000D01*
G01*
X82055000Y-115785000D01*
G75*
G02*
X81980000Y-115860000I-75000J0D01*
G01*
X80630000Y-115860000D01*
G75*
G02*
X80555000Y-115785000I0J75000D01*
G01*
X80555000Y-115635000D01*
G75*
G02*
X80630000Y-115560000I75000J0D01*
G01*
G37*
G36*
G01*
X80630000Y-115060000D02*
X81980000Y-115060000D01*
G75*
G02*
X82055000Y-115135000I0J-75000D01*
G01*
X82055000Y-115285000D01*
G75*
G02*
X81980000Y-115360000I-75000J0D01*
G01*
X80630000Y-115360000D01*
G75*
G02*
X80555000Y-115285000I0J75000D01*
G01*
X80555000Y-115135000D01*
G75*
G02*
X80630000Y-115060000I75000J0D01*
G01*
G37*
G36*
G01*
X80630000Y-114560000D02*
X81980000Y-114560000D01*
G75*
G02*
X82055000Y-114635000I0J-75000D01*
G01*
X82055000Y-114785000D01*
G75*
G02*
X81980000Y-114860000I-75000J0D01*
G01*
X80630000Y-114860000D01*
G75*
G02*
X80555000Y-114785000I0J75000D01*
G01*
X80555000Y-114635000D01*
G75*
G02*
X80630000Y-114560000I75000J0D01*
G01*
G37*
G36*
G01*
X80630000Y-114060000D02*
X81980000Y-114060000D01*
G75*
G02*
X82055000Y-114135000I0J-75000D01*
G01*
X82055000Y-114285000D01*
G75*
G02*
X81980000Y-114360000I-75000J0D01*
G01*
X80630000Y-114360000D01*
G75*
G02*
X80555000Y-114285000I0J75000D01*
G01*
X80555000Y-114135000D01*
G75*
G02*
X80630000Y-114060000I75000J0D01*
G01*
G37*
G36*
G01*
X80630000Y-113560000D02*
X81980000Y-113560000D01*
G75*
G02*
X82055000Y-113635000I0J-75000D01*
G01*
X82055000Y-113785000D01*
G75*
G02*
X81980000Y-113860000I-75000J0D01*
G01*
X80630000Y-113860000D01*
G75*
G02*
X80555000Y-113785000I0J75000D01*
G01*
X80555000Y-113635000D01*
G75*
G02*
X80630000Y-113560000I75000J0D01*
G01*
G37*
G36*
G01*
X83155000Y-111035000D02*
X83305000Y-111035000D01*
G75*
G02*
X83380000Y-111110000I0J-75000D01*
G01*
X83380000Y-112460000D01*
G75*
G02*
X83305000Y-112535000I-75000J0D01*
G01*
X83155000Y-112535000D01*
G75*
G02*
X83080000Y-112460000I0J75000D01*
G01*
X83080000Y-111110000D01*
G75*
G02*
X83155000Y-111035000I75000J0D01*
G01*
G37*
G36*
G01*
X83655000Y-111035000D02*
X83805000Y-111035000D01*
G75*
G02*
X83880000Y-111110000I0J-75000D01*
G01*
X83880000Y-112460000D01*
G75*
G02*
X83805000Y-112535000I-75000J0D01*
G01*
X83655000Y-112535000D01*
G75*
G02*
X83580000Y-112460000I0J75000D01*
G01*
X83580000Y-111110000D01*
G75*
G02*
X83655000Y-111035000I75000J0D01*
G01*
G37*
G36*
G01*
X84155000Y-111035000D02*
X84305000Y-111035000D01*
G75*
G02*
X84380000Y-111110000I0J-75000D01*
G01*
X84380000Y-112460000D01*
G75*
G02*
X84305000Y-112535000I-75000J0D01*
G01*
X84155000Y-112535000D01*
G75*
G02*
X84080000Y-112460000I0J75000D01*
G01*
X84080000Y-111110000D01*
G75*
G02*
X84155000Y-111035000I75000J0D01*
G01*
G37*
G36*
G01*
X84655000Y-111035000D02*
X84805000Y-111035000D01*
G75*
G02*
X84880000Y-111110000I0J-75000D01*
G01*
X84880000Y-112460000D01*
G75*
G02*
X84805000Y-112535000I-75000J0D01*
G01*
X84655000Y-112535000D01*
G75*
G02*
X84580000Y-112460000I0J75000D01*
G01*
X84580000Y-111110000D01*
G75*
G02*
X84655000Y-111035000I75000J0D01*
G01*
G37*
G36*
G01*
X85155000Y-111035000D02*
X85305000Y-111035000D01*
G75*
G02*
X85380000Y-111110000I0J-75000D01*
G01*
X85380000Y-112460000D01*
G75*
G02*
X85305000Y-112535000I-75000J0D01*
G01*
X85155000Y-112535000D01*
G75*
G02*
X85080000Y-112460000I0J75000D01*
G01*
X85080000Y-111110000D01*
G75*
G02*
X85155000Y-111035000I75000J0D01*
G01*
G37*
G36*
G01*
X85655000Y-111035000D02*
X85805000Y-111035000D01*
G75*
G02*
X85880000Y-111110000I0J-75000D01*
G01*
X85880000Y-112460000D01*
G75*
G02*
X85805000Y-112535000I-75000J0D01*
G01*
X85655000Y-112535000D01*
G75*
G02*
X85580000Y-112460000I0J75000D01*
G01*
X85580000Y-111110000D01*
G75*
G02*
X85655000Y-111035000I75000J0D01*
G01*
G37*
G36*
G01*
X86155000Y-111035000D02*
X86305000Y-111035000D01*
G75*
G02*
X86380000Y-111110000I0J-75000D01*
G01*
X86380000Y-112460000D01*
G75*
G02*
X86305000Y-112535000I-75000J0D01*
G01*
X86155000Y-112535000D01*
G75*
G02*
X86080000Y-112460000I0J75000D01*
G01*
X86080000Y-111110000D01*
G75*
G02*
X86155000Y-111035000I75000J0D01*
G01*
G37*
G36*
G01*
X86655000Y-111035000D02*
X86805000Y-111035000D01*
G75*
G02*
X86880000Y-111110000I0J-75000D01*
G01*
X86880000Y-112460000D01*
G75*
G02*
X86805000Y-112535000I-75000J0D01*
G01*
X86655000Y-112535000D01*
G75*
G02*
X86580000Y-112460000I0J75000D01*
G01*
X86580000Y-111110000D01*
G75*
G02*
X86655000Y-111035000I75000J0D01*
G01*
G37*
G36*
G01*
X87155000Y-111035000D02*
X87305000Y-111035000D01*
G75*
G02*
X87380000Y-111110000I0J-75000D01*
G01*
X87380000Y-112460000D01*
G75*
G02*
X87305000Y-112535000I-75000J0D01*
G01*
X87155000Y-112535000D01*
G75*
G02*
X87080000Y-112460000I0J75000D01*
G01*
X87080000Y-111110000D01*
G75*
G02*
X87155000Y-111035000I75000J0D01*
G01*
G37*
G36*
G01*
X87655000Y-111035000D02*
X87805000Y-111035000D01*
G75*
G02*
X87880000Y-111110000I0J-75000D01*
G01*
X87880000Y-112460000D01*
G75*
G02*
X87805000Y-112535000I-75000J0D01*
G01*
X87655000Y-112535000D01*
G75*
G02*
X87580000Y-112460000I0J75000D01*
G01*
X87580000Y-111110000D01*
G75*
G02*
X87655000Y-111035000I75000J0D01*
G01*
G37*
G36*
G01*
X88155000Y-111035000D02*
X88305000Y-111035000D01*
G75*
G02*
X88380000Y-111110000I0J-75000D01*
G01*
X88380000Y-112460000D01*
G75*
G02*
X88305000Y-112535000I-75000J0D01*
G01*
X88155000Y-112535000D01*
G75*
G02*
X88080000Y-112460000I0J75000D01*
G01*
X88080000Y-111110000D01*
G75*
G02*
X88155000Y-111035000I75000J0D01*
G01*
G37*
G36*
G01*
X88655000Y-111035000D02*
X88805000Y-111035000D01*
G75*
G02*
X88880000Y-111110000I0J-75000D01*
G01*
X88880000Y-112460000D01*
G75*
G02*
X88805000Y-112535000I-75000J0D01*
G01*
X88655000Y-112535000D01*
G75*
G02*
X88580000Y-112460000I0J75000D01*
G01*
X88580000Y-111110000D01*
G75*
G02*
X88655000Y-111035000I75000J0D01*
G01*
G37*
G36*
G01*
X89155000Y-111035000D02*
X89305000Y-111035000D01*
G75*
G02*
X89380000Y-111110000I0J-75000D01*
G01*
X89380000Y-112460000D01*
G75*
G02*
X89305000Y-112535000I-75000J0D01*
G01*
X89155000Y-112535000D01*
G75*
G02*
X89080000Y-112460000I0J75000D01*
G01*
X89080000Y-111110000D01*
G75*
G02*
X89155000Y-111035000I75000J0D01*
G01*
G37*
G36*
G01*
X89655000Y-111035000D02*
X89805000Y-111035000D01*
G75*
G02*
X89880000Y-111110000I0J-75000D01*
G01*
X89880000Y-112460000D01*
G75*
G02*
X89805000Y-112535000I-75000J0D01*
G01*
X89655000Y-112535000D01*
G75*
G02*
X89580000Y-112460000I0J75000D01*
G01*
X89580000Y-111110000D01*
G75*
G02*
X89655000Y-111035000I75000J0D01*
G01*
G37*
G36*
G01*
X90155000Y-111035000D02*
X90305000Y-111035000D01*
G75*
G02*
X90380000Y-111110000I0J-75000D01*
G01*
X90380000Y-112460000D01*
G75*
G02*
X90305000Y-112535000I-75000J0D01*
G01*
X90155000Y-112535000D01*
G75*
G02*
X90080000Y-112460000I0J75000D01*
G01*
X90080000Y-111110000D01*
G75*
G02*
X90155000Y-111035000I75000J0D01*
G01*
G37*
G36*
G01*
X90655000Y-111035000D02*
X90805000Y-111035000D01*
G75*
G02*
X90880000Y-111110000I0J-75000D01*
G01*
X90880000Y-112460000D01*
G75*
G02*
X90805000Y-112535000I-75000J0D01*
G01*
X90655000Y-112535000D01*
G75*
G02*
X90580000Y-112460000I0J75000D01*
G01*
X90580000Y-111110000D01*
G75*
G02*
X90655000Y-111035000I75000J0D01*
G01*
G37*
G36*
G01*
X91155000Y-111035000D02*
X91305000Y-111035000D01*
G75*
G02*
X91380000Y-111110000I0J-75000D01*
G01*
X91380000Y-112460000D01*
G75*
G02*
X91305000Y-112535000I-75000J0D01*
G01*
X91155000Y-112535000D01*
G75*
G02*
X91080000Y-112460000I0J75000D01*
G01*
X91080000Y-111110000D01*
G75*
G02*
X91155000Y-111035000I75000J0D01*
G01*
G37*
G36*
G01*
X91655000Y-111035000D02*
X91805000Y-111035000D01*
G75*
G02*
X91880000Y-111110000I0J-75000D01*
G01*
X91880000Y-112460000D01*
G75*
G02*
X91805000Y-112535000I-75000J0D01*
G01*
X91655000Y-112535000D01*
G75*
G02*
X91580000Y-112460000I0J75000D01*
G01*
X91580000Y-111110000D01*
G75*
G02*
X91655000Y-111035000I75000J0D01*
G01*
G37*
G36*
G01*
X92155000Y-111035000D02*
X92305000Y-111035000D01*
G75*
G02*
X92380000Y-111110000I0J-75000D01*
G01*
X92380000Y-112460000D01*
G75*
G02*
X92305000Y-112535000I-75000J0D01*
G01*
X92155000Y-112535000D01*
G75*
G02*
X92080000Y-112460000I0J75000D01*
G01*
X92080000Y-111110000D01*
G75*
G02*
X92155000Y-111035000I75000J0D01*
G01*
G37*
G36*
G01*
X92655000Y-111035000D02*
X92805000Y-111035000D01*
G75*
G02*
X92880000Y-111110000I0J-75000D01*
G01*
X92880000Y-112460000D01*
G75*
G02*
X92805000Y-112535000I-75000J0D01*
G01*
X92655000Y-112535000D01*
G75*
G02*
X92580000Y-112460000I0J75000D01*
G01*
X92580000Y-111110000D01*
G75*
G02*
X92655000Y-111035000I75000J0D01*
G01*
G37*
G36*
G01*
X93155000Y-111035000D02*
X93305000Y-111035000D01*
G75*
G02*
X93380000Y-111110000I0J-75000D01*
G01*
X93380000Y-112460000D01*
G75*
G02*
X93305000Y-112535000I-75000J0D01*
G01*
X93155000Y-112535000D01*
G75*
G02*
X93080000Y-112460000I0J75000D01*
G01*
X93080000Y-111110000D01*
G75*
G02*
X93155000Y-111035000I75000J0D01*
G01*
G37*
G36*
G01*
X93655000Y-111035000D02*
X93805000Y-111035000D01*
G75*
G02*
X93880000Y-111110000I0J-75000D01*
G01*
X93880000Y-112460000D01*
G75*
G02*
X93805000Y-112535000I-75000J0D01*
G01*
X93655000Y-112535000D01*
G75*
G02*
X93580000Y-112460000I0J75000D01*
G01*
X93580000Y-111110000D01*
G75*
G02*
X93655000Y-111035000I75000J0D01*
G01*
G37*
G36*
G01*
X94155000Y-111035000D02*
X94305000Y-111035000D01*
G75*
G02*
X94380000Y-111110000I0J-75000D01*
G01*
X94380000Y-112460000D01*
G75*
G02*
X94305000Y-112535000I-75000J0D01*
G01*
X94155000Y-112535000D01*
G75*
G02*
X94080000Y-112460000I0J75000D01*
G01*
X94080000Y-111110000D01*
G75*
G02*
X94155000Y-111035000I75000J0D01*
G01*
G37*
G36*
G01*
X94655000Y-111035000D02*
X94805000Y-111035000D01*
G75*
G02*
X94880000Y-111110000I0J-75000D01*
G01*
X94880000Y-112460000D01*
G75*
G02*
X94805000Y-112535000I-75000J0D01*
G01*
X94655000Y-112535000D01*
G75*
G02*
X94580000Y-112460000I0J75000D01*
G01*
X94580000Y-111110000D01*
G75*
G02*
X94655000Y-111035000I75000J0D01*
G01*
G37*
G36*
G01*
X95155000Y-111035000D02*
X95305000Y-111035000D01*
G75*
G02*
X95380000Y-111110000I0J-75000D01*
G01*
X95380000Y-112460000D01*
G75*
G02*
X95305000Y-112535000I-75000J0D01*
G01*
X95155000Y-112535000D01*
G75*
G02*
X95080000Y-112460000I0J75000D01*
G01*
X95080000Y-111110000D01*
G75*
G02*
X95155000Y-111035000I75000J0D01*
G01*
G37*
G36*
G01*
X95655000Y-111035000D02*
X95805000Y-111035000D01*
G75*
G02*
X95880000Y-111110000I0J-75000D01*
G01*
X95880000Y-112460000D01*
G75*
G02*
X95805000Y-112535000I-75000J0D01*
G01*
X95655000Y-112535000D01*
G75*
G02*
X95580000Y-112460000I0J75000D01*
G01*
X95580000Y-111110000D01*
G75*
G02*
X95655000Y-111035000I75000J0D01*
G01*
G37*
G36*
G01*
X96155000Y-111035000D02*
X96305000Y-111035000D01*
G75*
G02*
X96380000Y-111110000I0J-75000D01*
G01*
X96380000Y-112460000D01*
G75*
G02*
X96305000Y-112535000I-75000J0D01*
G01*
X96155000Y-112535000D01*
G75*
G02*
X96080000Y-112460000I0J75000D01*
G01*
X96080000Y-111110000D01*
G75*
G02*
X96155000Y-111035000I75000J0D01*
G01*
G37*
G36*
G01*
X96655000Y-111035000D02*
X96805000Y-111035000D01*
G75*
G02*
X96880000Y-111110000I0J-75000D01*
G01*
X96880000Y-112460000D01*
G75*
G02*
X96805000Y-112535000I-75000J0D01*
G01*
X96655000Y-112535000D01*
G75*
G02*
X96580000Y-112460000I0J75000D01*
G01*
X96580000Y-111110000D01*
G75*
G02*
X96655000Y-111035000I75000J0D01*
G01*
G37*
G36*
G01*
X97155000Y-111035000D02*
X97305000Y-111035000D01*
G75*
G02*
X97380000Y-111110000I0J-75000D01*
G01*
X97380000Y-112460000D01*
G75*
G02*
X97305000Y-112535000I-75000J0D01*
G01*
X97155000Y-112535000D01*
G75*
G02*
X97080000Y-112460000I0J75000D01*
G01*
X97080000Y-111110000D01*
G75*
G02*
X97155000Y-111035000I75000J0D01*
G01*
G37*
G36*
G01*
X97655000Y-111035000D02*
X97805000Y-111035000D01*
G75*
G02*
X97880000Y-111110000I0J-75000D01*
G01*
X97880000Y-112460000D01*
G75*
G02*
X97805000Y-112535000I-75000J0D01*
G01*
X97655000Y-112535000D01*
G75*
G02*
X97580000Y-112460000I0J75000D01*
G01*
X97580000Y-111110000D01*
G75*
G02*
X97655000Y-111035000I75000J0D01*
G01*
G37*
G36*
G01*
X98155000Y-111035000D02*
X98305000Y-111035000D01*
G75*
G02*
X98380000Y-111110000I0J-75000D01*
G01*
X98380000Y-112460000D01*
G75*
G02*
X98305000Y-112535000I-75000J0D01*
G01*
X98155000Y-112535000D01*
G75*
G02*
X98080000Y-112460000I0J75000D01*
G01*
X98080000Y-111110000D01*
G75*
G02*
X98155000Y-111035000I75000J0D01*
G01*
G37*
G36*
G01*
X98655000Y-111035000D02*
X98805000Y-111035000D01*
G75*
G02*
X98880000Y-111110000I0J-75000D01*
G01*
X98880000Y-112460000D01*
G75*
G02*
X98805000Y-112535000I-75000J0D01*
G01*
X98655000Y-112535000D01*
G75*
G02*
X98580000Y-112460000I0J75000D01*
G01*
X98580000Y-111110000D01*
G75*
G02*
X98655000Y-111035000I75000J0D01*
G01*
G37*
G36*
G01*
X99155000Y-111035000D02*
X99305000Y-111035000D01*
G75*
G02*
X99380000Y-111110000I0J-75000D01*
G01*
X99380000Y-112460000D01*
G75*
G02*
X99305000Y-112535000I-75000J0D01*
G01*
X99155000Y-112535000D01*
G75*
G02*
X99080000Y-112460000I0J75000D01*
G01*
X99080000Y-111110000D01*
G75*
G02*
X99155000Y-111035000I75000J0D01*
G01*
G37*
G36*
G01*
X99655000Y-111035000D02*
X99805000Y-111035000D01*
G75*
G02*
X99880000Y-111110000I0J-75000D01*
G01*
X99880000Y-112460000D01*
G75*
G02*
X99805000Y-112535000I-75000J0D01*
G01*
X99655000Y-112535000D01*
G75*
G02*
X99580000Y-112460000I0J75000D01*
G01*
X99580000Y-111110000D01*
G75*
G02*
X99655000Y-111035000I75000J0D01*
G01*
G37*
G36*
G01*
X100155000Y-111035000D02*
X100305000Y-111035000D01*
G75*
G02*
X100380000Y-111110000I0J-75000D01*
G01*
X100380000Y-112460000D01*
G75*
G02*
X100305000Y-112535000I-75000J0D01*
G01*
X100155000Y-112535000D01*
G75*
G02*
X100080000Y-112460000I0J75000D01*
G01*
X100080000Y-111110000D01*
G75*
G02*
X100155000Y-111035000I75000J0D01*
G01*
G37*
G36*
G01*
X100655000Y-111035000D02*
X100805000Y-111035000D01*
G75*
G02*
X100880000Y-111110000I0J-75000D01*
G01*
X100880000Y-112460000D01*
G75*
G02*
X100805000Y-112535000I-75000J0D01*
G01*
X100655000Y-112535000D01*
G75*
G02*
X100580000Y-112460000I0J75000D01*
G01*
X100580000Y-111110000D01*
G75*
G02*
X100655000Y-111035000I75000J0D01*
G01*
G37*
G36*
G01*
X101155000Y-111035000D02*
X101305000Y-111035000D01*
G75*
G02*
X101380000Y-111110000I0J-75000D01*
G01*
X101380000Y-112460000D01*
G75*
G02*
X101305000Y-112535000I-75000J0D01*
G01*
X101155000Y-112535000D01*
G75*
G02*
X101080000Y-112460000I0J75000D01*
G01*
X101080000Y-111110000D01*
G75*
G02*
X101155000Y-111035000I75000J0D01*
G01*
G37*
G36*
G01*
X101655000Y-111035000D02*
X101805000Y-111035000D01*
G75*
G02*
X101880000Y-111110000I0J-75000D01*
G01*
X101880000Y-112460000D01*
G75*
G02*
X101805000Y-112535000I-75000J0D01*
G01*
X101655000Y-112535000D01*
G75*
G02*
X101580000Y-112460000I0J75000D01*
G01*
X101580000Y-111110000D01*
G75*
G02*
X101655000Y-111035000I75000J0D01*
G01*
G37*
G36*
G01*
X102155000Y-111035000D02*
X102305000Y-111035000D01*
G75*
G02*
X102380000Y-111110000I0J-75000D01*
G01*
X102380000Y-112460000D01*
G75*
G02*
X102305000Y-112535000I-75000J0D01*
G01*
X102155000Y-112535000D01*
G75*
G02*
X102080000Y-112460000I0J75000D01*
G01*
X102080000Y-111110000D01*
G75*
G02*
X102155000Y-111035000I75000J0D01*
G01*
G37*
G36*
G01*
X102655000Y-111035000D02*
X102805000Y-111035000D01*
G75*
G02*
X102880000Y-111110000I0J-75000D01*
G01*
X102880000Y-112460000D01*
G75*
G02*
X102805000Y-112535000I-75000J0D01*
G01*
X102655000Y-112535000D01*
G75*
G02*
X102580000Y-112460000I0J75000D01*
G01*
X102580000Y-111110000D01*
G75*
G02*
X102655000Y-111035000I75000J0D01*
G01*
G37*
G36*
G01*
X103155000Y-111035000D02*
X103305000Y-111035000D01*
G75*
G02*
X103380000Y-111110000I0J-75000D01*
G01*
X103380000Y-112460000D01*
G75*
G02*
X103305000Y-112535000I-75000J0D01*
G01*
X103155000Y-112535000D01*
G75*
G02*
X103080000Y-112460000I0J75000D01*
G01*
X103080000Y-111110000D01*
G75*
G02*
X103155000Y-111035000I75000J0D01*
G01*
G37*
G36*
G01*
X103655000Y-111035000D02*
X103805000Y-111035000D01*
G75*
G02*
X103880000Y-111110000I0J-75000D01*
G01*
X103880000Y-112460000D01*
G75*
G02*
X103805000Y-112535000I-75000J0D01*
G01*
X103655000Y-112535000D01*
G75*
G02*
X103580000Y-112460000I0J75000D01*
G01*
X103580000Y-111110000D01*
G75*
G02*
X103655000Y-111035000I75000J0D01*
G01*
G37*
G36*
G01*
X104155000Y-111035000D02*
X104305000Y-111035000D01*
G75*
G02*
X104380000Y-111110000I0J-75000D01*
G01*
X104380000Y-112460000D01*
G75*
G02*
X104305000Y-112535000I-75000J0D01*
G01*
X104155000Y-112535000D01*
G75*
G02*
X104080000Y-112460000I0J75000D01*
G01*
X104080000Y-111110000D01*
G75*
G02*
X104155000Y-111035000I75000J0D01*
G01*
G37*
G36*
G01*
X104655000Y-111035000D02*
X104805000Y-111035000D01*
G75*
G02*
X104880000Y-111110000I0J-75000D01*
G01*
X104880000Y-112460000D01*
G75*
G02*
X104805000Y-112535000I-75000J0D01*
G01*
X104655000Y-112535000D01*
G75*
G02*
X104580000Y-112460000I0J75000D01*
G01*
X104580000Y-111110000D01*
G75*
G02*
X104655000Y-111035000I75000J0D01*
G01*
G37*
%TD*%
%TO.C,U5*%
G36*
G01*
X69498000Y-148055000D02*
X70008000Y-148055000D01*
G75*
G02*
X70258000Y-148305000I0J-250000D01*
G01*
X70258000Y-148815000D01*
G75*
G02*
X70008000Y-149065000I-250000J0D01*
G01*
X69498000Y-149065000D01*
G75*
G02*
X69248000Y-148815000I0J250000D01*
G01*
X69248000Y-148305000D01*
G75*
G02*
X69498000Y-148055000I250000J0D01*
G01*
G37*
G36*
G01*
X70748000Y-148055000D02*
X71258000Y-148055000D01*
G75*
G02*
X71508000Y-148305000I0J-250000D01*
G01*
X71508000Y-148815000D01*
G75*
G02*
X71258000Y-149065000I-250000J0D01*
G01*
X70748000Y-149065000D01*
G75*
G02*
X70498000Y-148815000I0J250000D01*
G01*
X70498000Y-148305000D01*
G75*
G02*
X70748000Y-148055000I250000J0D01*
G01*
G37*
G36*
G01*
X71998000Y-148055000D02*
X72508000Y-148055000D01*
G75*
G02*
X72758000Y-148305000I0J-250000D01*
G01*
X72758000Y-148815000D01*
G75*
G02*
X72508000Y-149065000I-250000J0D01*
G01*
X71998000Y-149065000D01*
G75*
G02*
X71748000Y-148815000I0J250000D01*
G01*
X71748000Y-148305000D01*
G75*
G02*
X71998000Y-148055000I250000J0D01*
G01*
G37*
G36*
G01*
X73248000Y-148055000D02*
X73758000Y-148055000D01*
G75*
G02*
X74008000Y-148305000I0J-250000D01*
G01*
X74008000Y-148815000D01*
G75*
G02*
X73758000Y-149065000I-250000J0D01*
G01*
X73248000Y-149065000D01*
G75*
G02*
X72998000Y-148815000I0J250000D01*
G01*
X72998000Y-148305000D01*
G75*
G02*
X73248000Y-148055000I250000J0D01*
G01*
G37*
G36*
G01*
X69498000Y-146805000D02*
X70008000Y-146805000D01*
G75*
G02*
X70258000Y-147055000I0J-250000D01*
G01*
X70258000Y-147565000D01*
G75*
G02*
X70008000Y-147815000I-250000J0D01*
G01*
X69498000Y-147815000D01*
G75*
G02*
X69248000Y-147565000I0J250000D01*
G01*
X69248000Y-147055000D01*
G75*
G02*
X69498000Y-146805000I250000J0D01*
G01*
G37*
G36*
G01*
X70748000Y-146805000D02*
X71258000Y-146805000D01*
G75*
G02*
X71508000Y-147055000I0J-250000D01*
G01*
X71508000Y-147565000D01*
G75*
G02*
X71258000Y-147815000I-250000J0D01*
G01*
X70748000Y-147815000D01*
G75*
G02*
X70498000Y-147565000I0J250000D01*
G01*
X70498000Y-147055000D01*
G75*
G02*
X70748000Y-146805000I250000J0D01*
G01*
G37*
G36*
G01*
X71998000Y-146805000D02*
X72508000Y-146805000D01*
G75*
G02*
X72758000Y-147055000I0J-250000D01*
G01*
X72758000Y-147565000D01*
G75*
G02*
X72508000Y-147815000I-250000J0D01*
G01*
X71998000Y-147815000D01*
G75*
G02*
X71748000Y-147565000I0J250000D01*
G01*
X71748000Y-147055000D01*
G75*
G02*
X71998000Y-146805000I250000J0D01*
G01*
G37*
G36*
G01*
X73248000Y-146805000D02*
X73758000Y-146805000D01*
G75*
G02*
X74008000Y-147055000I0J-250000D01*
G01*
X74008000Y-147565000D01*
G75*
G02*
X73758000Y-147815000I-250000J0D01*
G01*
X73248000Y-147815000D01*
G75*
G02*
X72998000Y-147565000I0J250000D01*
G01*
X72998000Y-147055000D01*
G75*
G02*
X73248000Y-146805000I250000J0D01*
G01*
G37*
G36*
G01*
X69498000Y-145555000D02*
X70008000Y-145555000D01*
G75*
G02*
X70258000Y-145805000I0J-250000D01*
G01*
X70258000Y-146315000D01*
G75*
G02*
X70008000Y-146565000I-250000J0D01*
G01*
X69498000Y-146565000D01*
G75*
G02*
X69248000Y-146315000I0J250000D01*
G01*
X69248000Y-145805000D01*
G75*
G02*
X69498000Y-145555000I250000J0D01*
G01*
G37*
G36*
G01*
X70748000Y-145555000D02*
X71258000Y-145555000D01*
G75*
G02*
X71508000Y-145805000I0J-250000D01*
G01*
X71508000Y-146315000D01*
G75*
G02*
X71258000Y-146565000I-250000J0D01*
G01*
X70748000Y-146565000D01*
G75*
G02*
X70498000Y-146315000I0J250000D01*
G01*
X70498000Y-145805000D01*
G75*
G02*
X70748000Y-145555000I250000J0D01*
G01*
G37*
G36*
G01*
X71998000Y-145555000D02*
X72508000Y-145555000D01*
G75*
G02*
X72758000Y-145805000I0J-250000D01*
G01*
X72758000Y-146315000D01*
G75*
G02*
X72508000Y-146565000I-250000J0D01*
G01*
X71998000Y-146565000D01*
G75*
G02*
X71748000Y-146315000I0J250000D01*
G01*
X71748000Y-145805000D01*
G75*
G02*
X71998000Y-145555000I250000J0D01*
G01*
G37*
G36*
G01*
X73248000Y-145555000D02*
X73758000Y-145555000D01*
G75*
G02*
X74008000Y-145805000I0J-250000D01*
G01*
X74008000Y-146315000D01*
G75*
G02*
X73758000Y-146565000I-250000J0D01*
G01*
X73248000Y-146565000D01*
G75*
G02*
X72998000Y-146315000I0J250000D01*
G01*
X72998000Y-145805000D01*
G75*
G02*
X73248000Y-145555000I250000J0D01*
G01*
G37*
G36*
G01*
X69498000Y-144305000D02*
X70008000Y-144305000D01*
G75*
G02*
X70258000Y-144555000I0J-250000D01*
G01*
X70258000Y-145065000D01*
G75*
G02*
X70008000Y-145315000I-250000J0D01*
G01*
X69498000Y-145315000D01*
G75*
G02*
X69248000Y-145065000I0J250000D01*
G01*
X69248000Y-144555000D01*
G75*
G02*
X69498000Y-144305000I250000J0D01*
G01*
G37*
G36*
G01*
X70748000Y-144305000D02*
X71258000Y-144305000D01*
G75*
G02*
X71508000Y-144555000I0J-250000D01*
G01*
X71508000Y-145065000D01*
G75*
G02*
X71258000Y-145315000I-250000J0D01*
G01*
X70748000Y-145315000D01*
G75*
G02*
X70498000Y-145065000I0J250000D01*
G01*
X70498000Y-144555000D01*
G75*
G02*
X70748000Y-144305000I250000J0D01*
G01*
G37*
G36*
G01*
X71998000Y-144305000D02*
X72508000Y-144305000D01*
G75*
G02*
X72758000Y-144555000I0J-250000D01*
G01*
X72758000Y-145065000D01*
G75*
G02*
X72508000Y-145315000I-250000J0D01*
G01*
X71998000Y-145315000D01*
G75*
G02*
X71748000Y-145065000I0J250000D01*
G01*
X71748000Y-144555000D01*
G75*
G02*
X71998000Y-144305000I250000J0D01*
G01*
G37*
G36*
G01*
X73248000Y-144305000D02*
X73758000Y-144305000D01*
G75*
G02*
X74008000Y-144555000I0J-250000D01*
G01*
X74008000Y-145065000D01*
G75*
G02*
X73758000Y-145315000I-250000J0D01*
G01*
X73248000Y-145315000D01*
G75*
G02*
X72998000Y-145065000I0J250000D01*
G01*
X72998000Y-144555000D01*
G75*
G02*
X73248000Y-144305000I250000J0D01*
G01*
G37*
G36*
G01*
X78628000Y-140535000D02*
X79953000Y-140535000D01*
G75*
G02*
X80028000Y-140610000I0J-75000D01*
G01*
X80028000Y-140760000D01*
G75*
G02*
X79953000Y-140835000I-75000J0D01*
G01*
X78628000Y-140835000D01*
G75*
G02*
X78553000Y-140760000I0J75000D01*
G01*
X78553000Y-140610000D01*
G75*
G02*
X78628000Y-140535000I75000J0D01*
G01*
G37*
G36*
G01*
X78628000Y-141035000D02*
X79953000Y-141035000D01*
G75*
G02*
X80028000Y-141110000I0J-75000D01*
G01*
X80028000Y-141260000D01*
G75*
G02*
X79953000Y-141335000I-75000J0D01*
G01*
X78628000Y-141335000D01*
G75*
G02*
X78553000Y-141260000I0J75000D01*
G01*
X78553000Y-141110000D01*
G75*
G02*
X78628000Y-141035000I75000J0D01*
G01*
G37*
G36*
G01*
X78628000Y-141535000D02*
X79953000Y-141535000D01*
G75*
G02*
X80028000Y-141610000I0J-75000D01*
G01*
X80028000Y-141760000D01*
G75*
G02*
X79953000Y-141835000I-75000J0D01*
G01*
X78628000Y-141835000D01*
G75*
G02*
X78553000Y-141760000I0J75000D01*
G01*
X78553000Y-141610000D01*
G75*
G02*
X78628000Y-141535000I75000J0D01*
G01*
G37*
G36*
G01*
X78628000Y-142035000D02*
X79953000Y-142035000D01*
G75*
G02*
X80028000Y-142110000I0J-75000D01*
G01*
X80028000Y-142260000D01*
G75*
G02*
X79953000Y-142335000I-75000J0D01*
G01*
X78628000Y-142335000D01*
G75*
G02*
X78553000Y-142260000I0J75000D01*
G01*
X78553000Y-142110000D01*
G75*
G02*
X78628000Y-142035000I75000J0D01*
G01*
G37*
G36*
G01*
X78628000Y-142535000D02*
X79953000Y-142535000D01*
G75*
G02*
X80028000Y-142610000I0J-75000D01*
G01*
X80028000Y-142760000D01*
G75*
G02*
X79953000Y-142835000I-75000J0D01*
G01*
X78628000Y-142835000D01*
G75*
G02*
X78553000Y-142760000I0J75000D01*
G01*
X78553000Y-142610000D01*
G75*
G02*
X78628000Y-142535000I75000J0D01*
G01*
G37*
G36*
G01*
X78628000Y-143035000D02*
X79953000Y-143035000D01*
G75*
G02*
X80028000Y-143110000I0J-75000D01*
G01*
X80028000Y-143260000D01*
G75*
G02*
X79953000Y-143335000I-75000J0D01*
G01*
X78628000Y-143335000D01*
G75*
G02*
X78553000Y-143260000I0J75000D01*
G01*
X78553000Y-143110000D01*
G75*
G02*
X78628000Y-143035000I75000J0D01*
G01*
G37*
G36*
G01*
X78628000Y-143535000D02*
X79953000Y-143535000D01*
G75*
G02*
X80028000Y-143610000I0J-75000D01*
G01*
X80028000Y-143760000D01*
G75*
G02*
X79953000Y-143835000I-75000J0D01*
G01*
X78628000Y-143835000D01*
G75*
G02*
X78553000Y-143760000I0J75000D01*
G01*
X78553000Y-143610000D01*
G75*
G02*
X78628000Y-143535000I75000J0D01*
G01*
G37*
G36*
G01*
X78628000Y-144035000D02*
X79953000Y-144035000D01*
G75*
G02*
X80028000Y-144110000I0J-75000D01*
G01*
X80028000Y-144260000D01*
G75*
G02*
X79953000Y-144335000I-75000J0D01*
G01*
X78628000Y-144335000D01*
G75*
G02*
X78553000Y-144260000I0J75000D01*
G01*
X78553000Y-144110000D01*
G75*
G02*
X78628000Y-144035000I75000J0D01*
G01*
G37*
G36*
G01*
X78628000Y-144535000D02*
X79953000Y-144535000D01*
G75*
G02*
X80028000Y-144610000I0J-75000D01*
G01*
X80028000Y-144760000D01*
G75*
G02*
X79953000Y-144835000I-75000J0D01*
G01*
X78628000Y-144835000D01*
G75*
G02*
X78553000Y-144760000I0J75000D01*
G01*
X78553000Y-144610000D01*
G75*
G02*
X78628000Y-144535000I75000J0D01*
G01*
G37*
G36*
G01*
X78628000Y-145035000D02*
X79953000Y-145035000D01*
G75*
G02*
X80028000Y-145110000I0J-75000D01*
G01*
X80028000Y-145260000D01*
G75*
G02*
X79953000Y-145335000I-75000J0D01*
G01*
X78628000Y-145335000D01*
G75*
G02*
X78553000Y-145260000I0J75000D01*
G01*
X78553000Y-145110000D01*
G75*
G02*
X78628000Y-145035000I75000J0D01*
G01*
G37*
G36*
G01*
X78628000Y-145535000D02*
X79953000Y-145535000D01*
G75*
G02*
X80028000Y-145610000I0J-75000D01*
G01*
X80028000Y-145760000D01*
G75*
G02*
X79953000Y-145835000I-75000J0D01*
G01*
X78628000Y-145835000D01*
G75*
G02*
X78553000Y-145760000I0J75000D01*
G01*
X78553000Y-145610000D01*
G75*
G02*
X78628000Y-145535000I75000J0D01*
G01*
G37*
G36*
G01*
X78628000Y-146035000D02*
X79953000Y-146035000D01*
G75*
G02*
X80028000Y-146110000I0J-75000D01*
G01*
X80028000Y-146260000D01*
G75*
G02*
X79953000Y-146335000I-75000J0D01*
G01*
X78628000Y-146335000D01*
G75*
G02*
X78553000Y-146260000I0J75000D01*
G01*
X78553000Y-146110000D01*
G75*
G02*
X78628000Y-146035000I75000J0D01*
G01*
G37*
G36*
G01*
X78628000Y-146535000D02*
X79953000Y-146535000D01*
G75*
G02*
X80028000Y-146610000I0J-75000D01*
G01*
X80028000Y-146760000D01*
G75*
G02*
X79953000Y-146835000I-75000J0D01*
G01*
X78628000Y-146835000D01*
G75*
G02*
X78553000Y-146760000I0J75000D01*
G01*
X78553000Y-146610000D01*
G75*
G02*
X78628000Y-146535000I75000J0D01*
G01*
G37*
G36*
G01*
X78628000Y-147035000D02*
X79953000Y-147035000D01*
G75*
G02*
X80028000Y-147110000I0J-75000D01*
G01*
X80028000Y-147260000D01*
G75*
G02*
X79953000Y-147335000I-75000J0D01*
G01*
X78628000Y-147335000D01*
G75*
G02*
X78553000Y-147260000I0J75000D01*
G01*
X78553000Y-147110000D01*
G75*
G02*
X78628000Y-147035000I75000J0D01*
G01*
G37*
G36*
G01*
X78628000Y-147535000D02*
X79953000Y-147535000D01*
G75*
G02*
X80028000Y-147610000I0J-75000D01*
G01*
X80028000Y-147760000D01*
G75*
G02*
X79953000Y-147835000I-75000J0D01*
G01*
X78628000Y-147835000D01*
G75*
G02*
X78553000Y-147760000I0J75000D01*
G01*
X78553000Y-147610000D01*
G75*
G02*
X78628000Y-147535000I75000J0D01*
G01*
G37*
G36*
G01*
X78628000Y-148035000D02*
X79953000Y-148035000D01*
G75*
G02*
X80028000Y-148110000I0J-75000D01*
G01*
X80028000Y-148260000D01*
G75*
G02*
X79953000Y-148335000I-75000J0D01*
G01*
X78628000Y-148335000D01*
G75*
G02*
X78553000Y-148260000I0J75000D01*
G01*
X78553000Y-148110000D01*
G75*
G02*
X78628000Y-148035000I75000J0D01*
G01*
G37*
G36*
G01*
X78628000Y-148535000D02*
X79953000Y-148535000D01*
G75*
G02*
X80028000Y-148610000I0J-75000D01*
G01*
X80028000Y-148760000D01*
G75*
G02*
X79953000Y-148835000I-75000J0D01*
G01*
X78628000Y-148835000D01*
G75*
G02*
X78553000Y-148760000I0J75000D01*
G01*
X78553000Y-148610000D01*
G75*
G02*
X78628000Y-148535000I75000J0D01*
G01*
G37*
G36*
G01*
X78628000Y-149035000D02*
X79953000Y-149035000D01*
G75*
G02*
X80028000Y-149110000I0J-75000D01*
G01*
X80028000Y-149260000D01*
G75*
G02*
X79953000Y-149335000I-75000J0D01*
G01*
X78628000Y-149335000D01*
G75*
G02*
X78553000Y-149260000I0J75000D01*
G01*
X78553000Y-149110000D01*
G75*
G02*
X78628000Y-149035000I75000J0D01*
G01*
G37*
G36*
G01*
X78628000Y-149535000D02*
X79953000Y-149535000D01*
G75*
G02*
X80028000Y-149610000I0J-75000D01*
G01*
X80028000Y-149760000D01*
G75*
G02*
X79953000Y-149835000I-75000J0D01*
G01*
X78628000Y-149835000D01*
G75*
G02*
X78553000Y-149760000I0J75000D01*
G01*
X78553000Y-149610000D01*
G75*
G02*
X78628000Y-149535000I75000J0D01*
G01*
G37*
G36*
G01*
X78628000Y-150035000D02*
X79953000Y-150035000D01*
G75*
G02*
X80028000Y-150110000I0J-75000D01*
G01*
X80028000Y-150260000D01*
G75*
G02*
X79953000Y-150335000I-75000J0D01*
G01*
X78628000Y-150335000D01*
G75*
G02*
X78553000Y-150260000I0J75000D01*
G01*
X78553000Y-150110000D01*
G75*
G02*
X78628000Y-150035000I75000J0D01*
G01*
G37*
G36*
G01*
X78628000Y-150535000D02*
X79953000Y-150535000D01*
G75*
G02*
X80028000Y-150610000I0J-75000D01*
G01*
X80028000Y-150760000D01*
G75*
G02*
X79953000Y-150835000I-75000J0D01*
G01*
X78628000Y-150835000D01*
G75*
G02*
X78553000Y-150760000I0J75000D01*
G01*
X78553000Y-150610000D01*
G75*
G02*
X78628000Y-150535000I75000J0D01*
G01*
G37*
G36*
G01*
X78628000Y-151035000D02*
X79953000Y-151035000D01*
G75*
G02*
X80028000Y-151110000I0J-75000D01*
G01*
X80028000Y-151260000D01*
G75*
G02*
X79953000Y-151335000I-75000J0D01*
G01*
X78628000Y-151335000D01*
G75*
G02*
X78553000Y-151260000I0J75000D01*
G01*
X78553000Y-151110000D01*
G75*
G02*
X78628000Y-151035000I75000J0D01*
G01*
G37*
G36*
G01*
X78628000Y-151535000D02*
X79953000Y-151535000D01*
G75*
G02*
X80028000Y-151610000I0J-75000D01*
G01*
X80028000Y-151760000D01*
G75*
G02*
X79953000Y-151835000I-75000J0D01*
G01*
X78628000Y-151835000D01*
G75*
G02*
X78553000Y-151760000I0J75000D01*
G01*
X78553000Y-151610000D01*
G75*
G02*
X78628000Y-151535000I75000J0D01*
G01*
G37*
G36*
G01*
X78628000Y-152035000D02*
X79953000Y-152035000D01*
G75*
G02*
X80028000Y-152110000I0J-75000D01*
G01*
X80028000Y-152260000D01*
G75*
G02*
X79953000Y-152335000I-75000J0D01*
G01*
X78628000Y-152335000D01*
G75*
G02*
X78553000Y-152260000I0J75000D01*
G01*
X78553000Y-152110000D01*
G75*
G02*
X78628000Y-152035000I75000J0D01*
G01*
G37*
G36*
G01*
X78628000Y-152535000D02*
X79953000Y-152535000D01*
G75*
G02*
X80028000Y-152610000I0J-75000D01*
G01*
X80028000Y-152760000D01*
G75*
G02*
X79953000Y-152835000I-75000J0D01*
G01*
X78628000Y-152835000D01*
G75*
G02*
X78553000Y-152760000I0J75000D01*
G01*
X78553000Y-152610000D01*
G75*
G02*
X78628000Y-152535000I75000J0D01*
G01*
G37*
G36*
G01*
X77553000Y-153610000D02*
X77703000Y-153610000D01*
G75*
G02*
X77778000Y-153685000I0J-75000D01*
G01*
X77778000Y-155010000D01*
G75*
G02*
X77703000Y-155085000I-75000J0D01*
G01*
X77553000Y-155085000D01*
G75*
G02*
X77478000Y-155010000I0J75000D01*
G01*
X77478000Y-153685000D01*
G75*
G02*
X77553000Y-153610000I75000J0D01*
G01*
G37*
G36*
G01*
X77053000Y-153610000D02*
X77203000Y-153610000D01*
G75*
G02*
X77278000Y-153685000I0J-75000D01*
G01*
X77278000Y-155010000D01*
G75*
G02*
X77203000Y-155085000I-75000J0D01*
G01*
X77053000Y-155085000D01*
G75*
G02*
X76978000Y-155010000I0J75000D01*
G01*
X76978000Y-153685000D01*
G75*
G02*
X77053000Y-153610000I75000J0D01*
G01*
G37*
G36*
G01*
X76553000Y-153610000D02*
X76703000Y-153610000D01*
G75*
G02*
X76778000Y-153685000I0J-75000D01*
G01*
X76778000Y-155010000D01*
G75*
G02*
X76703000Y-155085000I-75000J0D01*
G01*
X76553000Y-155085000D01*
G75*
G02*
X76478000Y-155010000I0J75000D01*
G01*
X76478000Y-153685000D01*
G75*
G02*
X76553000Y-153610000I75000J0D01*
G01*
G37*
G36*
G01*
X76053000Y-153610000D02*
X76203000Y-153610000D01*
G75*
G02*
X76278000Y-153685000I0J-75000D01*
G01*
X76278000Y-155010000D01*
G75*
G02*
X76203000Y-155085000I-75000J0D01*
G01*
X76053000Y-155085000D01*
G75*
G02*
X75978000Y-155010000I0J75000D01*
G01*
X75978000Y-153685000D01*
G75*
G02*
X76053000Y-153610000I75000J0D01*
G01*
G37*
G36*
G01*
X75553000Y-153610000D02*
X75703000Y-153610000D01*
G75*
G02*
X75778000Y-153685000I0J-75000D01*
G01*
X75778000Y-155010000D01*
G75*
G02*
X75703000Y-155085000I-75000J0D01*
G01*
X75553000Y-155085000D01*
G75*
G02*
X75478000Y-155010000I0J75000D01*
G01*
X75478000Y-153685000D01*
G75*
G02*
X75553000Y-153610000I75000J0D01*
G01*
G37*
G36*
G01*
X75053000Y-153610000D02*
X75203000Y-153610000D01*
G75*
G02*
X75278000Y-153685000I0J-75000D01*
G01*
X75278000Y-155010000D01*
G75*
G02*
X75203000Y-155085000I-75000J0D01*
G01*
X75053000Y-155085000D01*
G75*
G02*
X74978000Y-155010000I0J75000D01*
G01*
X74978000Y-153685000D01*
G75*
G02*
X75053000Y-153610000I75000J0D01*
G01*
G37*
G36*
G01*
X74553000Y-153610000D02*
X74703000Y-153610000D01*
G75*
G02*
X74778000Y-153685000I0J-75000D01*
G01*
X74778000Y-155010000D01*
G75*
G02*
X74703000Y-155085000I-75000J0D01*
G01*
X74553000Y-155085000D01*
G75*
G02*
X74478000Y-155010000I0J75000D01*
G01*
X74478000Y-153685000D01*
G75*
G02*
X74553000Y-153610000I75000J0D01*
G01*
G37*
G36*
G01*
X74053000Y-153610000D02*
X74203000Y-153610000D01*
G75*
G02*
X74278000Y-153685000I0J-75000D01*
G01*
X74278000Y-155010000D01*
G75*
G02*
X74203000Y-155085000I-75000J0D01*
G01*
X74053000Y-155085000D01*
G75*
G02*
X73978000Y-155010000I0J75000D01*
G01*
X73978000Y-153685000D01*
G75*
G02*
X74053000Y-153610000I75000J0D01*
G01*
G37*
G36*
G01*
X73553000Y-153610000D02*
X73703000Y-153610000D01*
G75*
G02*
X73778000Y-153685000I0J-75000D01*
G01*
X73778000Y-155010000D01*
G75*
G02*
X73703000Y-155085000I-75000J0D01*
G01*
X73553000Y-155085000D01*
G75*
G02*
X73478000Y-155010000I0J75000D01*
G01*
X73478000Y-153685000D01*
G75*
G02*
X73553000Y-153610000I75000J0D01*
G01*
G37*
G36*
G01*
X73053000Y-153610000D02*
X73203000Y-153610000D01*
G75*
G02*
X73278000Y-153685000I0J-75000D01*
G01*
X73278000Y-155010000D01*
G75*
G02*
X73203000Y-155085000I-75000J0D01*
G01*
X73053000Y-155085000D01*
G75*
G02*
X72978000Y-155010000I0J75000D01*
G01*
X72978000Y-153685000D01*
G75*
G02*
X73053000Y-153610000I75000J0D01*
G01*
G37*
G36*
G01*
X72553000Y-153610000D02*
X72703000Y-153610000D01*
G75*
G02*
X72778000Y-153685000I0J-75000D01*
G01*
X72778000Y-155010000D01*
G75*
G02*
X72703000Y-155085000I-75000J0D01*
G01*
X72553000Y-155085000D01*
G75*
G02*
X72478000Y-155010000I0J75000D01*
G01*
X72478000Y-153685000D01*
G75*
G02*
X72553000Y-153610000I75000J0D01*
G01*
G37*
G36*
G01*
X72053000Y-153610000D02*
X72203000Y-153610000D01*
G75*
G02*
X72278000Y-153685000I0J-75000D01*
G01*
X72278000Y-155010000D01*
G75*
G02*
X72203000Y-155085000I-75000J0D01*
G01*
X72053000Y-155085000D01*
G75*
G02*
X71978000Y-155010000I0J75000D01*
G01*
X71978000Y-153685000D01*
G75*
G02*
X72053000Y-153610000I75000J0D01*
G01*
G37*
G36*
G01*
X71553000Y-153610000D02*
X71703000Y-153610000D01*
G75*
G02*
X71778000Y-153685000I0J-75000D01*
G01*
X71778000Y-155010000D01*
G75*
G02*
X71703000Y-155085000I-75000J0D01*
G01*
X71553000Y-155085000D01*
G75*
G02*
X71478000Y-155010000I0J75000D01*
G01*
X71478000Y-153685000D01*
G75*
G02*
X71553000Y-153610000I75000J0D01*
G01*
G37*
G36*
G01*
X71053000Y-153610000D02*
X71203000Y-153610000D01*
G75*
G02*
X71278000Y-153685000I0J-75000D01*
G01*
X71278000Y-155010000D01*
G75*
G02*
X71203000Y-155085000I-75000J0D01*
G01*
X71053000Y-155085000D01*
G75*
G02*
X70978000Y-155010000I0J75000D01*
G01*
X70978000Y-153685000D01*
G75*
G02*
X71053000Y-153610000I75000J0D01*
G01*
G37*
G36*
G01*
X70553000Y-153610000D02*
X70703000Y-153610000D01*
G75*
G02*
X70778000Y-153685000I0J-75000D01*
G01*
X70778000Y-155010000D01*
G75*
G02*
X70703000Y-155085000I-75000J0D01*
G01*
X70553000Y-155085000D01*
G75*
G02*
X70478000Y-155010000I0J75000D01*
G01*
X70478000Y-153685000D01*
G75*
G02*
X70553000Y-153610000I75000J0D01*
G01*
G37*
G36*
G01*
X70053000Y-153610000D02*
X70203000Y-153610000D01*
G75*
G02*
X70278000Y-153685000I0J-75000D01*
G01*
X70278000Y-155010000D01*
G75*
G02*
X70203000Y-155085000I-75000J0D01*
G01*
X70053000Y-155085000D01*
G75*
G02*
X69978000Y-155010000I0J75000D01*
G01*
X69978000Y-153685000D01*
G75*
G02*
X70053000Y-153610000I75000J0D01*
G01*
G37*
G36*
G01*
X69553000Y-153610000D02*
X69703000Y-153610000D01*
G75*
G02*
X69778000Y-153685000I0J-75000D01*
G01*
X69778000Y-155010000D01*
G75*
G02*
X69703000Y-155085000I-75000J0D01*
G01*
X69553000Y-155085000D01*
G75*
G02*
X69478000Y-155010000I0J75000D01*
G01*
X69478000Y-153685000D01*
G75*
G02*
X69553000Y-153610000I75000J0D01*
G01*
G37*
G36*
G01*
X69053000Y-153610000D02*
X69203000Y-153610000D01*
G75*
G02*
X69278000Y-153685000I0J-75000D01*
G01*
X69278000Y-155010000D01*
G75*
G02*
X69203000Y-155085000I-75000J0D01*
G01*
X69053000Y-155085000D01*
G75*
G02*
X68978000Y-155010000I0J75000D01*
G01*
X68978000Y-153685000D01*
G75*
G02*
X69053000Y-153610000I75000J0D01*
G01*
G37*
G36*
G01*
X68553000Y-153610000D02*
X68703000Y-153610000D01*
G75*
G02*
X68778000Y-153685000I0J-75000D01*
G01*
X68778000Y-155010000D01*
G75*
G02*
X68703000Y-155085000I-75000J0D01*
G01*
X68553000Y-155085000D01*
G75*
G02*
X68478000Y-155010000I0J75000D01*
G01*
X68478000Y-153685000D01*
G75*
G02*
X68553000Y-153610000I75000J0D01*
G01*
G37*
G36*
G01*
X68053000Y-153610000D02*
X68203000Y-153610000D01*
G75*
G02*
X68278000Y-153685000I0J-75000D01*
G01*
X68278000Y-155010000D01*
G75*
G02*
X68203000Y-155085000I-75000J0D01*
G01*
X68053000Y-155085000D01*
G75*
G02*
X67978000Y-155010000I0J75000D01*
G01*
X67978000Y-153685000D01*
G75*
G02*
X68053000Y-153610000I75000J0D01*
G01*
G37*
G36*
G01*
X67553000Y-153610000D02*
X67703000Y-153610000D01*
G75*
G02*
X67778000Y-153685000I0J-75000D01*
G01*
X67778000Y-155010000D01*
G75*
G02*
X67703000Y-155085000I-75000J0D01*
G01*
X67553000Y-155085000D01*
G75*
G02*
X67478000Y-155010000I0J75000D01*
G01*
X67478000Y-153685000D01*
G75*
G02*
X67553000Y-153610000I75000J0D01*
G01*
G37*
G36*
G01*
X67053000Y-153610000D02*
X67203000Y-153610000D01*
G75*
G02*
X67278000Y-153685000I0J-75000D01*
G01*
X67278000Y-155010000D01*
G75*
G02*
X67203000Y-155085000I-75000J0D01*
G01*
X67053000Y-155085000D01*
G75*
G02*
X66978000Y-155010000I0J75000D01*
G01*
X66978000Y-153685000D01*
G75*
G02*
X67053000Y-153610000I75000J0D01*
G01*
G37*
G36*
G01*
X66553000Y-153610000D02*
X66703000Y-153610000D01*
G75*
G02*
X66778000Y-153685000I0J-75000D01*
G01*
X66778000Y-155010000D01*
G75*
G02*
X66703000Y-155085000I-75000J0D01*
G01*
X66553000Y-155085000D01*
G75*
G02*
X66478000Y-155010000I0J75000D01*
G01*
X66478000Y-153685000D01*
G75*
G02*
X66553000Y-153610000I75000J0D01*
G01*
G37*
G36*
G01*
X66053000Y-153610000D02*
X66203000Y-153610000D01*
G75*
G02*
X66278000Y-153685000I0J-75000D01*
G01*
X66278000Y-155010000D01*
G75*
G02*
X66203000Y-155085000I-75000J0D01*
G01*
X66053000Y-155085000D01*
G75*
G02*
X65978000Y-155010000I0J75000D01*
G01*
X65978000Y-153685000D01*
G75*
G02*
X66053000Y-153610000I75000J0D01*
G01*
G37*
G36*
G01*
X65553000Y-153610000D02*
X65703000Y-153610000D01*
G75*
G02*
X65778000Y-153685000I0J-75000D01*
G01*
X65778000Y-155010000D01*
G75*
G02*
X65703000Y-155085000I-75000J0D01*
G01*
X65553000Y-155085000D01*
G75*
G02*
X65478000Y-155010000I0J75000D01*
G01*
X65478000Y-153685000D01*
G75*
G02*
X65553000Y-153610000I75000J0D01*
G01*
G37*
G36*
G01*
X63303000Y-152535000D02*
X64628000Y-152535000D01*
G75*
G02*
X64703000Y-152610000I0J-75000D01*
G01*
X64703000Y-152760000D01*
G75*
G02*
X64628000Y-152835000I-75000J0D01*
G01*
X63303000Y-152835000D01*
G75*
G02*
X63228000Y-152760000I0J75000D01*
G01*
X63228000Y-152610000D01*
G75*
G02*
X63303000Y-152535000I75000J0D01*
G01*
G37*
G36*
G01*
X63303000Y-152035000D02*
X64628000Y-152035000D01*
G75*
G02*
X64703000Y-152110000I0J-75000D01*
G01*
X64703000Y-152260000D01*
G75*
G02*
X64628000Y-152335000I-75000J0D01*
G01*
X63303000Y-152335000D01*
G75*
G02*
X63228000Y-152260000I0J75000D01*
G01*
X63228000Y-152110000D01*
G75*
G02*
X63303000Y-152035000I75000J0D01*
G01*
G37*
G36*
G01*
X63303000Y-151535000D02*
X64628000Y-151535000D01*
G75*
G02*
X64703000Y-151610000I0J-75000D01*
G01*
X64703000Y-151760000D01*
G75*
G02*
X64628000Y-151835000I-75000J0D01*
G01*
X63303000Y-151835000D01*
G75*
G02*
X63228000Y-151760000I0J75000D01*
G01*
X63228000Y-151610000D01*
G75*
G02*
X63303000Y-151535000I75000J0D01*
G01*
G37*
G36*
G01*
X63303000Y-151035000D02*
X64628000Y-151035000D01*
G75*
G02*
X64703000Y-151110000I0J-75000D01*
G01*
X64703000Y-151260000D01*
G75*
G02*
X64628000Y-151335000I-75000J0D01*
G01*
X63303000Y-151335000D01*
G75*
G02*
X63228000Y-151260000I0J75000D01*
G01*
X63228000Y-151110000D01*
G75*
G02*
X63303000Y-151035000I75000J0D01*
G01*
G37*
G36*
G01*
X63303000Y-150535000D02*
X64628000Y-150535000D01*
G75*
G02*
X64703000Y-150610000I0J-75000D01*
G01*
X64703000Y-150760000D01*
G75*
G02*
X64628000Y-150835000I-75000J0D01*
G01*
X63303000Y-150835000D01*
G75*
G02*
X63228000Y-150760000I0J75000D01*
G01*
X63228000Y-150610000D01*
G75*
G02*
X63303000Y-150535000I75000J0D01*
G01*
G37*
G36*
G01*
X63303000Y-150035000D02*
X64628000Y-150035000D01*
G75*
G02*
X64703000Y-150110000I0J-75000D01*
G01*
X64703000Y-150260000D01*
G75*
G02*
X64628000Y-150335000I-75000J0D01*
G01*
X63303000Y-150335000D01*
G75*
G02*
X63228000Y-150260000I0J75000D01*
G01*
X63228000Y-150110000D01*
G75*
G02*
X63303000Y-150035000I75000J0D01*
G01*
G37*
G36*
G01*
X63303000Y-149535000D02*
X64628000Y-149535000D01*
G75*
G02*
X64703000Y-149610000I0J-75000D01*
G01*
X64703000Y-149760000D01*
G75*
G02*
X64628000Y-149835000I-75000J0D01*
G01*
X63303000Y-149835000D01*
G75*
G02*
X63228000Y-149760000I0J75000D01*
G01*
X63228000Y-149610000D01*
G75*
G02*
X63303000Y-149535000I75000J0D01*
G01*
G37*
G36*
G01*
X63303000Y-149035000D02*
X64628000Y-149035000D01*
G75*
G02*
X64703000Y-149110000I0J-75000D01*
G01*
X64703000Y-149260000D01*
G75*
G02*
X64628000Y-149335000I-75000J0D01*
G01*
X63303000Y-149335000D01*
G75*
G02*
X63228000Y-149260000I0J75000D01*
G01*
X63228000Y-149110000D01*
G75*
G02*
X63303000Y-149035000I75000J0D01*
G01*
G37*
G36*
G01*
X63303000Y-148535000D02*
X64628000Y-148535000D01*
G75*
G02*
X64703000Y-148610000I0J-75000D01*
G01*
X64703000Y-148760000D01*
G75*
G02*
X64628000Y-148835000I-75000J0D01*
G01*
X63303000Y-148835000D01*
G75*
G02*
X63228000Y-148760000I0J75000D01*
G01*
X63228000Y-148610000D01*
G75*
G02*
X63303000Y-148535000I75000J0D01*
G01*
G37*
G36*
G01*
X63303000Y-148035000D02*
X64628000Y-148035000D01*
G75*
G02*
X64703000Y-148110000I0J-75000D01*
G01*
X64703000Y-148260000D01*
G75*
G02*
X64628000Y-148335000I-75000J0D01*
G01*
X63303000Y-148335000D01*
G75*
G02*
X63228000Y-148260000I0J75000D01*
G01*
X63228000Y-148110000D01*
G75*
G02*
X63303000Y-148035000I75000J0D01*
G01*
G37*
G36*
G01*
X63303000Y-147535000D02*
X64628000Y-147535000D01*
G75*
G02*
X64703000Y-147610000I0J-75000D01*
G01*
X64703000Y-147760000D01*
G75*
G02*
X64628000Y-147835000I-75000J0D01*
G01*
X63303000Y-147835000D01*
G75*
G02*
X63228000Y-147760000I0J75000D01*
G01*
X63228000Y-147610000D01*
G75*
G02*
X63303000Y-147535000I75000J0D01*
G01*
G37*
G36*
G01*
X63303000Y-147035000D02*
X64628000Y-147035000D01*
G75*
G02*
X64703000Y-147110000I0J-75000D01*
G01*
X64703000Y-147260000D01*
G75*
G02*
X64628000Y-147335000I-75000J0D01*
G01*
X63303000Y-147335000D01*
G75*
G02*
X63228000Y-147260000I0J75000D01*
G01*
X63228000Y-147110000D01*
G75*
G02*
X63303000Y-147035000I75000J0D01*
G01*
G37*
G36*
G01*
X63303000Y-146535000D02*
X64628000Y-146535000D01*
G75*
G02*
X64703000Y-146610000I0J-75000D01*
G01*
X64703000Y-146760000D01*
G75*
G02*
X64628000Y-146835000I-75000J0D01*
G01*
X63303000Y-146835000D01*
G75*
G02*
X63228000Y-146760000I0J75000D01*
G01*
X63228000Y-146610000D01*
G75*
G02*
X63303000Y-146535000I75000J0D01*
G01*
G37*
G36*
G01*
X63303000Y-146035000D02*
X64628000Y-146035000D01*
G75*
G02*
X64703000Y-146110000I0J-75000D01*
G01*
X64703000Y-146260000D01*
G75*
G02*
X64628000Y-146335000I-75000J0D01*
G01*
X63303000Y-146335000D01*
G75*
G02*
X63228000Y-146260000I0J75000D01*
G01*
X63228000Y-146110000D01*
G75*
G02*
X63303000Y-146035000I75000J0D01*
G01*
G37*
G36*
G01*
X63303000Y-145535000D02*
X64628000Y-145535000D01*
G75*
G02*
X64703000Y-145610000I0J-75000D01*
G01*
X64703000Y-145760000D01*
G75*
G02*
X64628000Y-145835000I-75000J0D01*
G01*
X63303000Y-145835000D01*
G75*
G02*
X63228000Y-145760000I0J75000D01*
G01*
X63228000Y-145610000D01*
G75*
G02*
X63303000Y-145535000I75000J0D01*
G01*
G37*
G36*
G01*
X63303000Y-145035000D02*
X64628000Y-145035000D01*
G75*
G02*
X64703000Y-145110000I0J-75000D01*
G01*
X64703000Y-145260000D01*
G75*
G02*
X64628000Y-145335000I-75000J0D01*
G01*
X63303000Y-145335000D01*
G75*
G02*
X63228000Y-145260000I0J75000D01*
G01*
X63228000Y-145110000D01*
G75*
G02*
X63303000Y-145035000I75000J0D01*
G01*
G37*
G36*
G01*
X63303000Y-144535000D02*
X64628000Y-144535000D01*
G75*
G02*
X64703000Y-144610000I0J-75000D01*
G01*
X64703000Y-144760000D01*
G75*
G02*
X64628000Y-144835000I-75000J0D01*
G01*
X63303000Y-144835000D01*
G75*
G02*
X63228000Y-144760000I0J75000D01*
G01*
X63228000Y-144610000D01*
G75*
G02*
X63303000Y-144535000I75000J0D01*
G01*
G37*
G36*
G01*
X63303000Y-144035000D02*
X64628000Y-144035000D01*
G75*
G02*
X64703000Y-144110000I0J-75000D01*
G01*
X64703000Y-144260000D01*
G75*
G02*
X64628000Y-144335000I-75000J0D01*
G01*
X63303000Y-144335000D01*
G75*
G02*
X63228000Y-144260000I0J75000D01*
G01*
X63228000Y-144110000D01*
G75*
G02*
X63303000Y-144035000I75000J0D01*
G01*
G37*
G36*
G01*
X63303000Y-143535000D02*
X64628000Y-143535000D01*
G75*
G02*
X64703000Y-143610000I0J-75000D01*
G01*
X64703000Y-143760000D01*
G75*
G02*
X64628000Y-143835000I-75000J0D01*
G01*
X63303000Y-143835000D01*
G75*
G02*
X63228000Y-143760000I0J75000D01*
G01*
X63228000Y-143610000D01*
G75*
G02*
X63303000Y-143535000I75000J0D01*
G01*
G37*
G36*
G01*
X63303000Y-143035000D02*
X64628000Y-143035000D01*
G75*
G02*
X64703000Y-143110000I0J-75000D01*
G01*
X64703000Y-143260000D01*
G75*
G02*
X64628000Y-143335000I-75000J0D01*
G01*
X63303000Y-143335000D01*
G75*
G02*
X63228000Y-143260000I0J75000D01*
G01*
X63228000Y-143110000D01*
G75*
G02*
X63303000Y-143035000I75000J0D01*
G01*
G37*
G36*
G01*
X63303000Y-142535000D02*
X64628000Y-142535000D01*
G75*
G02*
X64703000Y-142610000I0J-75000D01*
G01*
X64703000Y-142760000D01*
G75*
G02*
X64628000Y-142835000I-75000J0D01*
G01*
X63303000Y-142835000D01*
G75*
G02*
X63228000Y-142760000I0J75000D01*
G01*
X63228000Y-142610000D01*
G75*
G02*
X63303000Y-142535000I75000J0D01*
G01*
G37*
G36*
G01*
X63303000Y-142035000D02*
X64628000Y-142035000D01*
G75*
G02*
X64703000Y-142110000I0J-75000D01*
G01*
X64703000Y-142260000D01*
G75*
G02*
X64628000Y-142335000I-75000J0D01*
G01*
X63303000Y-142335000D01*
G75*
G02*
X63228000Y-142260000I0J75000D01*
G01*
X63228000Y-142110000D01*
G75*
G02*
X63303000Y-142035000I75000J0D01*
G01*
G37*
G36*
G01*
X63303000Y-141535000D02*
X64628000Y-141535000D01*
G75*
G02*
X64703000Y-141610000I0J-75000D01*
G01*
X64703000Y-141760000D01*
G75*
G02*
X64628000Y-141835000I-75000J0D01*
G01*
X63303000Y-141835000D01*
G75*
G02*
X63228000Y-141760000I0J75000D01*
G01*
X63228000Y-141610000D01*
G75*
G02*
X63303000Y-141535000I75000J0D01*
G01*
G37*
G36*
G01*
X63303000Y-141035000D02*
X64628000Y-141035000D01*
G75*
G02*
X64703000Y-141110000I0J-75000D01*
G01*
X64703000Y-141260000D01*
G75*
G02*
X64628000Y-141335000I-75000J0D01*
G01*
X63303000Y-141335000D01*
G75*
G02*
X63228000Y-141260000I0J75000D01*
G01*
X63228000Y-141110000D01*
G75*
G02*
X63303000Y-141035000I75000J0D01*
G01*
G37*
G36*
G01*
X63303000Y-140535000D02*
X64628000Y-140535000D01*
G75*
G02*
X64703000Y-140610000I0J-75000D01*
G01*
X64703000Y-140760000D01*
G75*
G02*
X64628000Y-140835000I-75000J0D01*
G01*
X63303000Y-140835000D01*
G75*
G02*
X63228000Y-140760000I0J75000D01*
G01*
X63228000Y-140610000D01*
G75*
G02*
X63303000Y-140535000I75000J0D01*
G01*
G37*
G36*
G01*
X65553000Y-138285000D02*
X65703000Y-138285000D01*
G75*
G02*
X65778000Y-138360000I0J-75000D01*
G01*
X65778000Y-139685000D01*
G75*
G02*
X65703000Y-139760000I-75000J0D01*
G01*
X65553000Y-139760000D01*
G75*
G02*
X65478000Y-139685000I0J75000D01*
G01*
X65478000Y-138360000D01*
G75*
G02*
X65553000Y-138285000I75000J0D01*
G01*
G37*
G36*
G01*
X66053000Y-138285000D02*
X66203000Y-138285000D01*
G75*
G02*
X66278000Y-138360000I0J-75000D01*
G01*
X66278000Y-139685000D01*
G75*
G02*
X66203000Y-139760000I-75000J0D01*
G01*
X66053000Y-139760000D01*
G75*
G02*
X65978000Y-139685000I0J75000D01*
G01*
X65978000Y-138360000D01*
G75*
G02*
X66053000Y-138285000I75000J0D01*
G01*
G37*
G36*
G01*
X66553000Y-138285000D02*
X66703000Y-138285000D01*
G75*
G02*
X66778000Y-138360000I0J-75000D01*
G01*
X66778000Y-139685000D01*
G75*
G02*
X66703000Y-139760000I-75000J0D01*
G01*
X66553000Y-139760000D01*
G75*
G02*
X66478000Y-139685000I0J75000D01*
G01*
X66478000Y-138360000D01*
G75*
G02*
X66553000Y-138285000I75000J0D01*
G01*
G37*
G36*
G01*
X67053000Y-138285000D02*
X67203000Y-138285000D01*
G75*
G02*
X67278000Y-138360000I0J-75000D01*
G01*
X67278000Y-139685000D01*
G75*
G02*
X67203000Y-139760000I-75000J0D01*
G01*
X67053000Y-139760000D01*
G75*
G02*
X66978000Y-139685000I0J75000D01*
G01*
X66978000Y-138360000D01*
G75*
G02*
X67053000Y-138285000I75000J0D01*
G01*
G37*
G36*
G01*
X67553000Y-138285000D02*
X67703000Y-138285000D01*
G75*
G02*
X67778000Y-138360000I0J-75000D01*
G01*
X67778000Y-139685000D01*
G75*
G02*
X67703000Y-139760000I-75000J0D01*
G01*
X67553000Y-139760000D01*
G75*
G02*
X67478000Y-139685000I0J75000D01*
G01*
X67478000Y-138360000D01*
G75*
G02*
X67553000Y-138285000I75000J0D01*
G01*
G37*
G36*
G01*
X68053000Y-138285000D02*
X68203000Y-138285000D01*
G75*
G02*
X68278000Y-138360000I0J-75000D01*
G01*
X68278000Y-139685000D01*
G75*
G02*
X68203000Y-139760000I-75000J0D01*
G01*
X68053000Y-139760000D01*
G75*
G02*
X67978000Y-139685000I0J75000D01*
G01*
X67978000Y-138360000D01*
G75*
G02*
X68053000Y-138285000I75000J0D01*
G01*
G37*
G36*
G01*
X68553000Y-138285000D02*
X68703000Y-138285000D01*
G75*
G02*
X68778000Y-138360000I0J-75000D01*
G01*
X68778000Y-139685000D01*
G75*
G02*
X68703000Y-139760000I-75000J0D01*
G01*
X68553000Y-139760000D01*
G75*
G02*
X68478000Y-139685000I0J75000D01*
G01*
X68478000Y-138360000D01*
G75*
G02*
X68553000Y-138285000I75000J0D01*
G01*
G37*
G36*
G01*
X69053000Y-138285000D02*
X69203000Y-138285000D01*
G75*
G02*
X69278000Y-138360000I0J-75000D01*
G01*
X69278000Y-139685000D01*
G75*
G02*
X69203000Y-139760000I-75000J0D01*
G01*
X69053000Y-139760000D01*
G75*
G02*
X68978000Y-139685000I0J75000D01*
G01*
X68978000Y-138360000D01*
G75*
G02*
X69053000Y-138285000I75000J0D01*
G01*
G37*
G36*
G01*
X69553000Y-138285000D02*
X69703000Y-138285000D01*
G75*
G02*
X69778000Y-138360000I0J-75000D01*
G01*
X69778000Y-139685000D01*
G75*
G02*
X69703000Y-139760000I-75000J0D01*
G01*
X69553000Y-139760000D01*
G75*
G02*
X69478000Y-139685000I0J75000D01*
G01*
X69478000Y-138360000D01*
G75*
G02*
X69553000Y-138285000I75000J0D01*
G01*
G37*
G36*
G01*
X70053000Y-138285000D02*
X70203000Y-138285000D01*
G75*
G02*
X70278000Y-138360000I0J-75000D01*
G01*
X70278000Y-139685000D01*
G75*
G02*
X70203000Y-139760000I-75000J0D01*
G01*
X70053000Y-139760000D01*
G75*
G02*
X69978000Y-139685000I0J75000D01*
G01*
X69978000Y-138360000D01*
G75*
G02*
X70053000Y-138285000I75000J0D01*
G01*
G37*
G36*
G01*
X70553000Y-138285000D02*
X70703000Y-138285000D01*
G75*
G02*
X70778000Y-138360000I0J-75000D01*
G01*
X70778000Y-139685000D01*
G75*
G02*
X70703000Y-139760000I-75000J0D01*
G01*
X70553000Y-139760000D01*
G75*
G02*
X70478000Y-139685000I0J75000D01*
G01*
X70478000Y-138360000D01*
G75*
G02*
X70553000Y-138285000I75000J0D01*
G01*
G37*
G36*
G01*
X71053000Y-138285000D02*
X71203000Y-138285000D01*
G75*
G02*
X71278000Y-138360000I0J-75000D01*
G01*
X71278000Y-139685000D01*
G75*
G02*
X71203000Y-139760000I-75000J0D01*
G01*
X71053000Y-139760000D01*
G75*
G02*
X70978000Y-139685000I0J75000D01*
G01*
X70978000Y-138360000D01*
G75*
G02*
X71053000Y-138285000I75000J0D01*
G01*
G37*
G36*
G01*
X71553000Y-138285000D02*
X71703000Y-138285000D01*
G75*
G02*
X71778000Y-138360000I0J-75000D01*
G01*
X71778000Y-139685000D01*
G75*
G02*
X71703000Y-139760000I-75000J0D01*
G01*
X71553000Y-139760000D01*
G75*
G02*
X71478000Y-139685000I0J75000D01*
G01*
X71478000Y-138360000D01*
G75*
G02*
X71553000Y-138285000I75000J0D01*
G01*
G37*
G36*
G01*
X72053000Y-138285000D02*
X72203000Y-138285000D01*
G75*
G02*
X72278000Y-138360000I0J-75000D01*
G01*
X72278000Y-139685000D01*
G75*
G02*
X72203000Y-139760000I-75000J0D01*
G01*
X72053000Y-139760000D01*
G75*
G02*
X71978000Y-139685000I0J75000D01*
G01*
X71978000Y-138360000D01*
G75*
G02*
X72053000Y-138285000I75000J0D01*
G01*
G37*
G36*
G01*
X72553000Y-138285000D02*
X72703000Y-138285000D01*
G75*
G02*
X72778000Y-138360000I0J-75000D01*
G01*
X72778000Y-139685000D01*
G75*
G02*
X72703000Y-139760000I-75000J0D01*
G01*
X72553000Y-139760000D01*
G75*
G02*
X72478000Y-139685000I0J75000D01*
G01*
X72478000Y-138360000D01*
G75*
G02*
X72553000Y-138285000I75000J0D01*
G01*
G37*
G36*
G01*
X73053000Y-138285000D02*
X73203000Y-138285000D01*
G75*
G02*
X73278000Y-138360000I0J-75000D01*
G01*
X73278000Y-139685000D01*
G75*
G02*
X73203000Y-139760000I-75000J0D01*
G01*
X73053000Y-139760000D01*
G75*
G02*
X72978000Y-139685000I0J75000D01*
G01*
X72978000Y-138360000D01*
G75*
G02*
X73053000Y-138285000I75000J0D01*
G01*
G37*
G36*
G01*
X73553000Y-138285000D02*
X73703000Y-138285000D01*
G75*
G02*
X73778000Y-138360000I0J-75000D01*
G01*
X73778000Y-139685000D01*
G75*
G02*
X73703000Y-139760000I-75000J0D01*
G01*
X73553000Y-139760000D01*
G75*
G02*
X73478000Y-139685000I0J75000D01*
G01*
X73478000Y-138360000D01*
G75*
G02*
X73553000Y-138285000I75000J0D01*
G01*
G37*
G36*
G01*
X74053000Y-138285000D02*
X74203000Y-138285000D01*
G75*
G02*
X74278000Y-138360000I0J-75000D01*
G01*
X74278000Y-139685000D01*
G75*
G02*
X74203000Y-139760000I-75000J0D01*
G01*
X74053000Y-139760000D01*
G75*
G02*
X73978000Y-139685000I0J75000D01*
G01*
X73978000Y-138360000D01*
G75*
G02*
X74053000Y-138285000I75000J0D01*
G01*
G37*
G36*
G01*
X74553000Y-138285000D02*
X74703000Y-138285000D01*
G75*
G02*
X74778000Y-138360000I0J-75000D01*
G01*
X74778000Y-139685000D01*
G75*
G02*
X74703000Y-139760000I-75000J0D01*
G01*
X74553000Y-139760000D01*
G75*
G02*
X74478000Y-139685000I0J75000D01*
G01*
X74478000Y-138360000D01*
G75*
G02*
X74553000Y-138285000I75000J0D01*
G01*
G37*
G36*
G01*
X75053000Y-138285000D02*
X75203000Y-138285000D01*
G75*
G02*
X75278000Y-138360000I0J-75000D01*
G01*
X75278000Y-139685000D01*
G75*
G02*
X75203000Y-139760000I-75000J0D01*
G01*
X75053000Y-139760000D01*
G75*
G02*
X74978000Y-139685000I0J75000D01*
G01*
X74978000Y-138360000D01*
G75*
G02*
X75053000Y-138285000I75000J0D01*
G01*
G37*
G36*
G01*
X75553000Y-138285000D02*
X75703000Y-138285000D01*
G75*
G02*
X75778000Y-138360000I0J-75000D01*
G01*
X75778000Y-139685000D01*
G75*
G02*
X75703000Y-139760000I-75000J0D01*
G01*
X75553000Y-139760000D01*
G75*
G02*
X75478000Y-139685000I0J75000D01*
G01*
X75478000Y-138360000D01*
G75*
G02*
X75553000Y-138285000I75000J0D01*
G01*
G37*
G36*
G01*
X76053000Y-138285000D02*
X76203000Y-138285000D01*
G75*
G02*
X76278000Y-138360000I0J-75000D01*
G01*
X76278000Y-139685000D01*
G75*
G02*
X76203000Y-139760000I-75000J0D01*
G01*
X76053000Y-139760000D01*
G75*
G02*
X75978000Y-139685000I0J75000D01*
G01*
X75978000Y-138360000D01*
G75*
G02*
X76053000Y-138285000I75000J0D01*
G01*
G37*
G36*
G01*
X76553000Y-138285000D02*
X76703000Y-138285000D01*
G75*
G02*
X76778000Y-138360000I0J-75000D01*
G01*
X76778000Y-139685000D01*
G75*
G02*
X76703000Y-139760000I-75000J0D01*
G01*
X76553000Y-139760000D01*
G75*
G02*
X76478000Y-139685000I0J75000D01*
G01*
X76478000Y-138360000D01*
G75*
G02*
X76553000Y-138285000I75000J0D01*
G01*
G37*
G36*
G01*
X77053000Y-138285000D02*
X77203000Y-138285000D01*
G75*
G02*
X77278000Y-138360000I0J-75000D01*
G01*
X77278000Y-139685000D01*
G75*
G02*
X77203000Y-139760000I-75000J0D01*
G01*
X77053000Y-139760000D01*
G75*
G02*
X76978000Y-139685000I0J75000D01*
G01*
X76978000Y-138360000D01*
G75*
G02*
X77053000Y-138285000I75000J0D01*
G01*
G37*
G36*
G01*
X77553000Y-138285000D02*
X77703000Y-138285000D01*
G75*
G02*
X77778000Y-138360000I0J-75000D01*
G01*
X77778000Y-139685000D01*
G75*
G02*
X77703000Y-139760000I-75000J0D01*
G01*
X77553000Y-139760000D01*
G75*
G02*
X77478000Y-139685000I0J75000D01*
G01*
X77478000Y-138360000D01*
G75*
G02*
X77553000Y-138285000I75000J0D01*
G01*
G37*
%TD*%
%TO.C,C2*%
G36*
G01*
X91725000Y-150749999D02*
X91725000Y-151650001D01*
G75*
G02*
X91475001Y-151900000I-249999J0D01*
G01*
X90824999Y-151900000D01*
G75*
G02*
X90575000Y-151650001I0J249999D01*
G01*
X90575000Y-150749999D01*
G75*
G02*
X90824999Y-150500000I249999J0D01*
G01*
X91475001Y-150500000D01*
G75*
G02*
X91725000Y-150749999I0J-249999D01*
G01*
G37*
G36*
G01*
X93775000Y-150749999D02*
X93775000Y-151650001D01*
G75*
G02*
X93525001Y-151900000I-249999J0D01*
G01*
X92874999Y-151900000D01*
G75*
G02*
X92625000Y-151650001I0J249999D01*
G01*
X92625000Y-150749999D01*
G75*
G02*
X92874999Y-150500000I249999J0D01*
G01*
X93525001Y-150500000D01*
G75*
G02*
X93775000Y-150749999I0J-249999D01*
G01*
G37*
%TD*%
%TO.C,C3*%
G36*
G01*
X79450001Y-124325000D02*
X78549999Y-124325000D01*
G75*
G02*
X78300000Y-124075001I0J249999D01*
G01*
X78300000Y-123424999D01*
G75*
G02*
X78549999Y-123175000I249999J0D01*
G01*
X79450001Y-123175000D01*
G75*
G02*
X79700000Y-123424999I0J-249999D01*
G01*
X79700000Y-124075001D01*
G75*
G02*
X79450001Y-124325000I-249999J0D01*
G01*
G37*
G36*
G01*
X79450001Y-122275000D02*
X78549999Y-122275000D01*
G75*
G02*
X78300000Y-122025001I0J249999D01*
G01*
X78300000Y-121374999D01*
G75*
G02*
X78549999Y-121125000I249999J0D01*
G01*
X79450001Y-121125000D01*
G75*
G02*
X79700000Y-121374999I0J-249999D01*
G01*
X79700000Y-122025001D01*
G75*
G02*
X79450001Y-122275000I-249999J0D01*
G01*
G37*
%TD*%
%TO.C,C4*%
G36*
G01*
X79450001Y-128100000D02*
X78549999Y-128100000D01*
G75*
G02*
X78300000Y-127850001I0J249999D01*
G01*
X78300000Y-127199999D01*
G75*
G02*
X78549999Y-126950000I249999J0D01*
G01*
X79450001Y-126950000D01*
G75*
G02*
X79700000Y-127199999I0J-249999D01*
G01*
X79700000Y-127850001D01*
G75*
G02*
X79450001Y-128100000I-249999J0D01*
G01*
G37*
G36*
G01*
X79450001Y-126050000D02*
X78549999Y-126050000D01*
G75*
G02*
X78300000Y-125800001I0J249999D01*
G01*
X78300000Y-125149999D01*
G75*
G02*
X78549999Y-124900000I249999J0D01*
G01*
X79450001Y-124900000D01*
G75*
G02*
X79700000Y-125149999I0J-249999D01*
G01*
X79700000Y-125800001D01*
G75*
G02*
X79450001Y-126050000I-249999J0D01*
G01*
G37*
%TD*%
%TO.C,C8*%
G36*
G01*
X94799999Y-138925000D02*
X95700001Y-138925000D01*
G75*
G02*
X95950000Y-139174999I0J-249999D01*
G01*
X95950000Y-139825001D01*
G75*
G02*
X95700001Y-140075000I-249999J0D01*
G01*
X94799999Y-140075000D01*
G75*
G02*
X94550000Y-139825001I0J249999D01*
G01*
X94550000Y-139174999D01*
G75*
G02*
X94799999Y-138925000I249999J0D01*
G01*
G37*
G36*
G01*
X94799999Y-140975000D02*
X95700001Y-140975000D01*
G75*
G02*
X95950000Y-141224999I0J-249999D01*
G01*
X95950000Y-141875001D01*
G75*
G02*
X95700001Y-142125000I-249999J0D01*
G01*
X94799999Y-142125000D01*
G75*
G02*
X94550000Y-141875001I0J249999D01*
G01*
X94550000Y-141224999D01*
G75*
G02*
X94799999Y-140975000I249999J0D01*
G01*
G37*
%TD*%
%TO.C,C9*%
G36*
G01*
X91049999Y-140975000D02*
X91950001Y-140975000D01*
G75*
G02*
X92200000Y-141224999I0J-249999D01*
G01*
X92200000Y-141875001D01*
G75*
G02*
X91950001Y-142125000I-249999J0D01*
G01*
X91049999Y-142125000D01*
G75*
G02*
X90800000Y-141875001I0J249999D01*
G01*
X90800000Y-141224999D01*
G75*
G02*
X91049999Y-140975000I249999J0D01*
G01*
G37*
G36*
G01*
X91049999Y-138925000D02*
X91950001Y-138925000D01*
G75*
G02*
X92200000Y-139174999I0J-249999D01*
G01*
X92200000Y-139825001D01*
G75*
G02*
X91950001Y-140075000I-249999J0D01*
G01*
X91049999Y-140075000D01*
G75*
G02*
X90800000Y-139825001I0J249999D01*
G01*
X90800000Y-139174999D01*
G75*
G02*
X91049999Y-138925000I249999J0D01*
G01*
G37*
%TD*%
%TO.C,C10*%
G36*
G01*
X87799999Y-138900000D02*
X88700001Y-138900000D01*
G75*
G02*
X88950000Y-139149999I0J-249999D01*
G01*
X88950000Y-139800001D01*
G75*
G02*
X88700001Y-140050000I-249999J0D01*
G01*
X87799999Y-140050000D01*
G75*
G02*
X87550000Y-139800001I0J249999D01*
G01*
X87550000Y-139149999D01*
G75*
G02*
X87799999Y-138900000I249999J0D01*
G01*
G37*
G36*
G01*
X87799999Y-140950000D02*
X88700001Y-140950000D01*
G75*
G02*
X88950000Y-141199999I0J-249999D01*
G01*
X88950000Y-141850001D01*
G75*
G02*
X88700001Y-142100000I-249999J0D01*
G01*
X87799999Y-142100000D01*
G75*
G02*
X87550000Y-141850001I0J249999D01*
G01*
X87550000Y-141199999D01*
G75*
G02*
X87799999Y-140950000I249999J0D01*
G01*
G37*
%TD*%
%TO.C,C11*%
G36*
G01*
X83425000Y-139950001D02*
X83425000Y-139049999D01*
G75*
G02*
X83674999Y-138800000I249999J0D01*
G01*
X84325001Y-138800000D01*
G75*
G02*
X84575000Y-139049999I0J-249999D01*
G01*
X84575000Y-139950001D01*
G75*
G02*
X84325001Y-140200000I-249999J0D01*
G01*
X83674999Y-140200000D01*
G75*
G02*
X83425000Y-139950001I0J249999D01*
G01*
G37*
G36*
G01*
X85475000Y-139950001D02*
X85475000Y-139049999D01*
G75*
G02*
X85724999Y-138800000I249999J0D01*
G01*
X86375001Y-138800000D01*
G75*
G02*
X86625000Y-139049999I0J-249999D01*
G01*
X86625000Y-139950001D01*
G75*
G02*
X86375001Y-140200000I-249999J0D01*
G01*
X85724999Y-140200000D01*
G75*
G02*
X85475000Y-139950001I0J249999D01*
G01*
G37*
%TD*%
%TO.C,C29*%
G36*
G01*
X110200000Y-125950001D02*
X110200000Y-125049999D01*
G75*
G02*
X110449999Y-124800000I249999J0D01*
G01*
X111100001Y-124800000D01*
G75*
G02*
X111350000Y-125049999I0J-249999D01*
G01*
X111350000Y-125950001D01*
G75*
G02*
X111100001Y-126200000I-249999J0D01*
G01*
X110449999Y-126200000D01*
G75*
G02*
X110200000Y-125950001I0J249999D01*
G01*
G37*
G36*
G01*
X108150000Y-125950001D02*
X108150000Y-125049999D01*
G75*
G02*
X108399999Y-124800000I249999J0D01*
G01*
X109050001Y-124800000D01*
G75*
G02*
X109300000Y-125049999I0J-249999D01*
G01*
X109300000Y-125950001D01*
G75*
G02*
X109050001Y-126200000I-249999J0D01*
G01*
X108399999Y-126200000D01*
G75*
G02*
X108150000Y-125950001I0J249999D01*
G01*
G37*
%TD*%
%TO.C,C30*%
G36*
G01*
X108150000Y-123950001D02*
X108150000Y-123049999D01*
G75*
G02*
X108399999Y-122800000I249999J0D01*
G01*
X109050001Y-122800000D01*
G75*
G02*
X109300000Y-123049999I0J-249999D01*
G01*
X109300000Y-123950001D01*
G75*
G02*
X109050001Y-124200000I-249999J0D01*
G01*
X108399999Y-124200000D01*
G75*
G02*
X108150000Y-123950001I0J249999D01*
G01*
G37*
G36*
G01*
X110200000Y-123950001D02*
X110200000Y-123049999D01*
G75*
G02*
X110449999Y-122800000I249999J0D01*
G01*
X111100001Y-122800000D01*
G75*
G02*
X111350000Y-123049999I0J-249999D01*
G01*
X111350000Y-123950001D01*
G75*
G02*
X111100001Y-124200000I-249999J0D01*
G01*
X110449999Y-124200000D01*
G75*
G02*
X110200000Y-123950001I0J249999D01*
G01*
G37*
%TD*%
%TO.C,C32*%
G36*
G01*
X107950001Y-112850000D02*
X107049999Y-112850000D01*
G75*
G02*
X106800000Y-112600001I0J249999D01*
G01*
X106800000Y-111949999D01*
G75*
G02*
X107049999Y-111700000I249999J0D01*
G01*
X107950001Y-111700000D01*
G75*
G02*
X108200000Y-111949999I0J-249999D01*
G01*
X108200000Y-112600001D01*
G75*
G02*
X107950001Y-112850000I-249999J0D01*
G01*
G37*
G36*
G01*
X107950001Y-110800000D02*
X107049999Y-110800000D01*
G75*
G02*
X106800000Y-110550001I0J249999D01*
G01*
X106800000Y-109899999D01*
G75*
G02*
X107049999Y-109650000I249999J0D01*
G01*
X107950001Y-109650000D01*
G75*
G02*
X108200000Y-109899999I0J-249999D01*
G01*
X108200000Y-110550001D01*
G75*
G02*
X107950001Y-110800000I-249999J0D01*
G01*
G37*
%TD*%
%TO.C,C33*%
G36*
G01*
X109950001Y-110800000D02*
X109049999Y-110800000D01*
G75*
G02*
X108800000Y-110550001I0J249999D01*
G01*
X108800000Y-109899999D01*
G75*
G02*
X109049999Y-109650000I249999J0D01*
G01*
X109950001Y-109650000D01*
G75*
G02*
X110200000Y-109899999I0J-249999D01*
G01*
X110200000Y-110550001D01*
G75*
G02*
X109950001Y-110800000I-249999J0D01*
G01*
G37*
G36*
G01*
X109950001Y-112850000D02*
X109049999Y-112850000D01*
G75*
G02*
X108800000Y-112600001I0J249999D01*
G01*
X108800000Y-111949999D01*
G75*
G02*
X109049999Y-111700000I249999J0D01*
G01*
X109950001Y-111700000D01*
G75*
G02*
X110200000Y-111949999I0J-249999D01*
G01*
X110200000Y-112600001D01*
G75*
G02*
X109950001Y-112850000I-249999J0D01*
G01*
G37*
%TD*%
%TO.C,C1*%
G36*
G01*
X102925000Y-159950001D02*
X102925000Y-159049999D01*
G75*
G02*
X103174999Y-158800000I249999J0D01*
G01*
X103825001Y-158800000D01*
G75*
G02*
X104075000Y-159049999I0J-249999D01*
G01*
X104075000Y-159950001D01*
G75*
G02*
X103825001Y-160200000I-249999J0D01*
G01*
X103174999Y-160200000D01*
G75*
G02*
X102925000Y-159950001I0J249999D01*
G01*
G37*
G36*
G01*
X100875000Y-159950001D02*
X100875000Y-159049999D01*
G75*
G02*
X101124999Y-158800000I249999J0D01*
G01*
X101775001Y-158800000D01*
G75*
G02*
X102025000Y-159049999I0J-249999D01*
G01*
X102025000Y-159950001D01*
G75*
G02*
X101775001Y-160200000I-249999J0D01*
G01*
X101124999Y-160200000D01*
G75*
G02*
X100875000Y-159950001I0J249999D01*
G01*
G37*
%TD*%
%TO.C,C53*%
G36*
G01*
X107049999Y-136175000D02*
X107950001Y-136175000D01*
G75*
G02*
X108200000Y-136424999I0J-249999D01*
G01*
X108200000Y-137075001D01*
G75*
G02*
X107950001Y-137325000I-249999J0D01*
G01*
X107049999Y-137325000D01*
G75*
G02*
X106800000Y-137075001I0J249999D01*
G01*
X106800000Y-136424999D01*
G75*
G02*
X107049999Y-136175000I249999J0D01*
G01*
G37*
G36*
G01*
X107049999Y-138225000D02*
X107950001Y-138225000D01*
G75*
G02*
X108200000Y-138474999I0J-249999D01*
G01*
X108200000Y-139125001D01*
G75*
G02*
X107950001Y-139375000I-249999J0D01*
G01*
X107049999Y-139375000D01*
G75*
G02*
X106800000Y-139125001I0J249999D01*
G01*
X106800000Y-138474999D01*
G75*
G02*
X107049999Y-138225000I249999J0D01*
G01*
G37*
%TD*%
%TO.C,C21*%
G36*
G01*
X85700001Y-155878000D02*
X84799999Y-155878000D01*
G75*
G02*
X84550000Y-155628001I0J249999D01*
G01*
X84550000Y-154977999D01*
G75*
G02*
X84799999Y-154728000I249999J0D01*
G01*
X85700001Y-154728000D01*
G75*
G02*
X85950000Y-154977999I0J-249999D01*
G01*
X85950000Y-155628001D01*
G75*
G02*
X85700001Y-155878000I-249999J0D01*
G01*
G37*
G36*
G01*
X85700001Y-157928000D02*
X84799999Y-157928000D01*
G75*
G02*
X84550000Y-157678001I0J249999D01*
G01*
X84550000Y-157027999D01*
G75*
G02*
X84799999Y-156778000I249999J0D01*
G01*
X85700001Y-156778000D01*
G75*
G02*
X85950000Y-157027999I0J-249999D01*
G01*
X85950000Y-157678001D01*
G75*
G02*
X85700001Y-157928000I-249999J0D01*
G01*
G37*
%TD*%
%TO.C,C22*%
G36*
G01*
X78799999Y-154728000D02*
X79700001Y-154728000D01*
G75*
G02*
X79950000Y-154977999I0J-249999D01*
G01*
X79950000Y-155628001D01*
G75*
G02*
X79700001Y-155878000I-249999J0D01*
G01*
X78799999Y-155878000D01*
G75*
G02*
X78550000Y-155628001I0J249999D01*
G01*
X78550000Y-154977999D01*
G75*
G02*
X78799999Y-154728000I249999J0D01*
G01*
G37*
G36*
G01*
X78799999Y-156778000D02*
X79700001Y-156778000D01*
G75*
G02*
X79950000Y-157027999I0J-249999D01*
G01*
X79950000Y-157678001D01*
G75*
G02*
X79700001Y-157928000I-249999J0D01*
G01*
X78799999Y-157928000D01*
G75*
G02*
X78550000Y-157678001I0J249999D01*
G01*
X78550000Y-157027999D01*
G75*
G02*
X78799999Y-156778000I249999J0D01*
G01*
G37*
%TD*%
%TO.C,C23*%
G36*
G01*
X60011000Y-146488999D02*
X60011000Y-147389001D01*
G75*
G02*
X59761001Y-147639000I-249999J0D01*
G01*
X59110999Y-147639000D01*
G75*
G02*
X58861000Y-147389001I0J249999D01*
G01*
X58861000Y-146488999D01*
G75*
G02*
X59110999Y-146239000I249999J0D01*
G01*
X59761001Y-146239000D01*
G75*
G02*
X60011000Y-146488999I0J-249999D01*
G01*
G37*
G36*
G01*
X62061000Y-146488999D02*
X62061000Y-147389001D01*
G75*
G02*
X61811001Y-147639000I-249999J0D01*
G01*
X61160999Y-147639000D01*
G75*
G02*
X60911000Y-147389001I0J249999D01*
G01*
X60911000Y-146488999D01*
G75*
G02*
X61160999Y-146239000I249999J0D01*
G01*
X61811001Y-146239000D01*
G75*
G02*
X62061000Y-146488999I0J-249999D01*
G01*
G37*
%TD*%
%TO.C,C24*%
G36*
G01*
X68141001Y-136991000D02*
X67240999Y-136991000D01*
G75*
G02*
X66991000Y-136741001I0J249999D01*
G01*
X66991000Y-136090999D01*
G75*
G02*
X67240999Y-135841000I249999J0D01*
G01*
X68141001Y-135841000D01*
G75*
G02*
X68391000Y-136090999I0J-249999D01*
G01*
X68391000Y-136741001D01*
G75*
G02*
X68141001Y-136991000I-249999J0D01*
G01*
G37*
G36*
G01*
X68141001Y-134941000D02*
X67240999Y-134941000D01*
G75*
G02*
X66991000Y-134691001I0J249999D01*
G01*
X66991000Y-134040999D01*
G75*
G02*
X67240999Y-133791000I249999J0D01*
G01*
X68141001Y-133791000D01*
G75*
G02*
X68391000Y-134040999I0J-249999D01*
G01*
X68391000Y-134691001D01*
G75*
G02*
X68141001Y-134941000I-249999J0D01*
G01*
G37*
%TD*%
%TO.C,C25*%
G36*
G01*
X70173001Y-134941000D02*
X69272999Y-134941000D01*
G75*
G02*
X69023000Y-134691001I0J249999D01*
G01*
X69023000Y-134040999D01*
G75*
G02*
X69272999Y-133791000I249999J0D01*
G01*
X70173001Y-133791000D01*
G75*
G02*
X70423000Y-134040999I0J-249999D01*
G01*
X70423000Y-134691001D01*
G75*
G02*
X70173001Y-134941000I-249999J0D01*
G01*
G37*
G36*
G01*
X70173001Y-136991000D02*
X69272999Y-136991000D01*
G75*
G02*
X69023000Y-136741001I0J249999D01*
G01*
X69023000Y-136090999D01*
G75*
G02*
X69272999Y-135841000I249999J0D01*
G01*
X70173001Y-135841000D01*
G75*
G02*
X70423000Y-136090999I0J-249999D01*
G01*
X70423000Y-136741001D01*
G75*
G02*
X70173001Y-136991000I-249999J0D01*
G01*
G37*
%TD*%
%TO.C,C26*%
G36*
G01*
X76285000Y-135185999D02*
X76285000Y-136086001D01*
G75*
G02*
X76035001Y-136336000I-249999J0D01*
G01*
X75384999Y-136336000D01*
G75*
G02*
X75135000Y-136086001I0J249999D01*
G01*
X75135000Y-135185999D01*
G75*
G02*
X75384999Y-134936000I249999J0D01*
G01*
X76035001Y-134936000D01*
G75*
G02*
X76285000Y-135185999I0J-249999D01*
G01*
G37*
G36*
G01*
X74235000Y-135185999D02*
X74235000Y-136086001D01*
G75*
G02*
X73985001Y-136336000I-249999J0D01*
G01*
X73334999Y-136336000D01*
G75*
G02*
X73085000Y-136086001I0J249999D01*
G01*
X73085000Y-135185999D01*
G75*
G02*
X73334999Y-134936000I249999J0D01*
G01*
X73985001Y-134936000D01*
G75*
G02*
X74235000Y-135185999I0J-249999D01*
G01*
G37*
%TD*%
%TO.C,C27*%
G36*
G01*
X83118000Y-148450001D02*
X83118000Y-147549999D01*
G75*
G02*
X83367999Y-147300000I249999J0D01*
G01*
X84018001Y-147300000D01*
G75*
G02*
X84268000Y-147549999I0J-249999D01*
G01*
X84268000Y-148450001D01*
G75*
G02*
X84018001Y-148700000I-249999J0D01*
G01*
X83367999Y-148700000D01*
G75*
G02*
X83118000Y-148450001I0J249999D01*
G01*
G37*
G36*
G01*
X81068000Y-148450001D02*
X81068000Y-147549999D01*
G75*
G02*
X81317999Y-147300000I249999J0D01*
G01*
X81968001Y-147300000D01*
G75*
G02*
X82218000Y-147549999I0J-249999D01*
G01*
X82218000Y-148450001D01*
G75*
G02*
X81968001Y-148700000I-249999J0D01*
G01*
X81317999Y-148700000D01*
G75*
G02*
X81068000Y-148450001I0J249999D01*
G01*
G37*
%TD*%
%TO.C,C13*%
G36*
G01*
X124175000Y-137450001D02*
X124175000Y-136549999D01*
G75*
G02*
X124424999Y-136300000I249999J0D01*
G01*
X125075001Y-136300000D01*
G75*
G02*
X125325000Y-136549999I0J-249999D01*
G01*
X125325000Y-137450001D01*
G75*
G02*
X125075001Y-137700000I-249999J0D01*
G01*
X124424999Y-137700000D01*
G75*
G02*
X124175000Y-137450001I0J249999D01*
G01*
G37*
G36*
G01*
X126225000Y-137450001D02*
X126225000Y-136549999D01*
G75*
G02*
X126474999Y-136300000I249999J0D01*
G01*
X127125001Y-136300000D01*
G75*
G02*
X127375000Y-136549999I0J-249999D01*
G01*
X127375000Y-137450001D01*
G75*
G02*
X127125001Y-137700000I-249999J0D01*
G01*
X126474999Y-137700000D01*
G75*
G02*
X126225000Y-137450001I0J249999D01*
G01*
G37*
%TD*%
%TO.C,C14*%
G36*
G01*
X129609001Y-131766000D02*
X128708999Y-131766000D01*
G75*
G02*
X128459000Y-131516001I0J249999D01*
G01*
X128459000Y-130865999D01*
G75*
G02*
X128708999Y-130616000I249999J0D01*
G01*
X129609001Y-130616000D01*
G75*
G02*
X129859000Y-130865999I0J-249999D01*
G01*
X129859000Y-131516001D01*
G75*
G02*
X129609001Y-131766000I-249999J0D01*
G01*
G37*
G36*
G01*
X129609001Y-133816000D02*
X128708999Y-133816000D01*
G75*
G02*
X128459000Y-133566001I0J249999D01*
G01*
X128459000Y-132915999D01*
G75*
G02*
X128708999Y-132666000I249999J0D01*
G01*
X129609001Y-132666000D01*
G75*
G02*
X129859000Y-132915999I0J-249999D01*
G01*
X129859000Y-133566001D01*
G75*
G02*
X129609001Y-133816000I-249999J0D01*
G01*
G37*
%TD*%
%TO.C,C15*%
G36*
G01*
X129609001Y-124799000D02*
X128708999Y-124799000D01*
G75*
G02*
X128459000Y-124549001I0J249999D01*
G01*
X128459000Y-123898999D01*
G75*
G02*
X128708999Y-123649000I249999J0D01*
G01*
X129609001Y-123649000D01*
G75*
G02*
X129859000Y-123898999I0J-249999D01*
G01*
X129859000Y-124549001D01*
G75*
G02*
X129609001Y-124799000I-249999J0D01*
G01*
G37*
G36*
G01*
X129609001Y-122749000D02*
X128708999Y-122749000D01*
G75*
G02*
X128459000Y-122499001I0J249999D01*
G01*
X128459000Y-121848999D01*
G75*
G02*
X128708999Y-121599000I249999J0D01*
G01*
X129609001Y-121599000D01*
G75*
G02*
X129859000Y-121848999I0J-249999D01*
G01*
X129859000Y-122499001D01*
G75*
G02*
X129609001Y-122749000I-249999J0D01*
G01*
G37*
%TD*%
%TO.C,C16*%
G36*
G01*
X128708999Y-113589000D02*
X129609001Y-113589000D01*
G75*
G02*
X129859000Y-113838999I0J-249999D01*
G01*
X129859000Y-114489001D01*
G75*
G02*
X129609001Y-114739000I-249999J0D01*
G01*
X128708999Y-114739000D01*
G75*
G02*
X128459000Y-114489001I0J249999D01*
G01*
X128459000Y-113838999D01*
G75*
G02*
X128708999Y-113589000I249999J0D01*
G01*
G37*
G36*
G01*
X128708999Y-115639000D02*
X129609001Y-115639000D01*
G75*
G02*
X129859000Y-115888999I0J-249999D01*
G01*
X129859000Y-116539001D01*
G75*
G02*
X129609001Y-116789000I-249999J0D01*
G01*
X128708999Y-116789000D01*
G75*
G02*
X128459000Y-116539001I0J249999D01*
G01*
X128459000Y-115888999D01*
G75*
G02*
X128708999Y-115639000I249999J0D01*
G01*
G37*
%TD*%
%TO.C,C18*%
G36*
G01*
X128708999Y-134625000D02*
X129609001Y-134625000D01*
G75*
G02*
X129859000Y-134874999I0J-249999D01*
G01*
X129859000Y-135525001D01*
G75*
G02*
X129609001Y-135775000I-249999J0D01*
G01*
X128708999Y-135775000D01*
G75*
G02*
X128459000Y-135525001I0J249999D01*
G01*
X128459000Y-134874999D01*
G75*
G02*
X128708999Y-134625000I249999J0D01*
G01*
G37*
G36*
G01*
X128708999Y-136675000D02*
X129609001Y-136675000D01*
G75*
G02*
X129859000Y-136924999I0J-249999D01*
G01*
X129859000Y-137575001D01*
G75*
G02*
X129609001Y-137825000I-249999J0D01*
G01*
X128708999Y-137825000D01*
G75*
G02*
X128459000Y-137575001I0J249999D01*
G01*
X128459000Y-136924999D01*
G75*
G02*
X128708999Y-136675000I249999J0D01*
G01*
G37*
%TD*%
%TO.C,C19*%
G36*
G01*
X129609001Y-126922000D02*
X128708999Y-126922000D01*
G75*
G02*
X128459000Y-126672001I0J249999D01*
G01*
X128459000Y-126021999D01*
G75*
G02*
X128708999Y-125772000I249999J0D01*
G01*
X129609001Y-125772000D01*
G75*
G02*
X129859000Y-126021999I0J-249999D01*
G01*
X129859000Y-126672001D01*
G75*
G02*
X129609001Y-126922000I-249999J0D01*
G01*
G37*
G36*
G01*
X129609001Y-128972000D02*
X128708999Y-128972000D01*
G75*
G02*
X128459000Y-128722001I0J249999D01*
G01*
X128459000Y-128071999D01*
G75*
G02*
X128708999Y-127822000I249999J0D01*
G01*
X129609001Y-127822000D01*
G75*
G02*
X129859000Y-128071999I0J-249999D01*
G01*
X129859000Y-128722001D01*
G75*
G02*
X129609001Y-128972000I-249999J0D01*
G01*
G37*
%TD*%
%TO.C,C38*%
G36*
G01*
X85825000Y-151650001D02*
X85825000Y-150749999D01*
G75*
G02*
X86074999Y-150500000I249999J0D01*
G01*
X86725001Y-150500000D01*
G75*
G02*
X86975000Y-150749999I0J-249999D01*
G01*
X86975000Y-151650001D01*
G75*
G02*
X86725001Y-151900000I-249999J0D01*
G01*
X86074999Y-151900000D01*
G75*
G02*
X85825000Y-151650001I0J249999D01*
G01*
G37*
G36*
G01*
X87875000Y-151650001D02*
X87875000Y-150749999D01*
G75*
G02*
X88124999Y-150500000I249999J0D01*
G01*
X88775001Y-150500000D01*
G75*
G02*
X89025000Y-150749999I0J-249999D01*
G01*
X89025000Y-151650001D01*
G75*
G02*
X88775001Y-151900000I-249999J0D01*
G01*
X88124999Y-151900000D01*
G75*
G02*
X87875000Y-151650001I0J249999D01*
G01*
G37*
%TD*%
%TO.C,C39*%
G36*
G01*
X86975000Y-144349999D02*
X86975000Y-145250001D01*
G75*
G02*
X86725001Y-145500000I-249999J0D01*
G01*
X86074999Y-145500000D01*
G75*
G02*
X85825000Y-145250001I0J249999D01*
G01*
X85825000Y-144349999D01*
G75*
G02*
X86074999Y-144100000I249999J0D01*
G01*
X86725001Y-144100000D01*
G75*
G02*
X86975000Y-144349999I0J-249999D01*
G01*
G37*
G36*
G01*
X89025000Y-144349999D02*
X89025000Y-145250001D01*
G75*
G02*
X88775001Y-145500000I-249999J0D01*
G01*
X88124999Y-145500000D01*
G75*
G02*
X87875000Y-145250001I0J249999D01*
G01*
X87875000Y-144349999D01*
G75*
G02*
X88124999Y-144100000I249999J0D01*
G01*
X88775001Y-144100000D01*
G75*
G02*
X89025000Y-144349999I0J-249999D01*
G01*
G37*
%TD*%
%TO.C,C40*%
G36*
G01*
X72205001Y-136973000D02*
X71304999Y-136973000D01*
G75*
G02*
X71055000Y-136723001I0J249999D01*
G01*
X71055000Y-136072999D01*
G75*
G02*
X71304999Y-135823000I249999J0D01*
G01*
X72205001Y-135823000D01*
G75*
G02*
X72455000Y-136072999I0J-249999D01*
G01*
X72455000Y-136723001D01*
G75*
G02*
X72205001Y-136973000I-249999J0D01*
G01*
G37*
G36*
G01*
X72205001Y-134923000D02*
X71304999Y-134923000D01*
G75*
G02*
X71055000Y-134673001I0J249999D01*
G01*
X71055000Y-134022999D01*
G75*
G02*
X71304999Y-133773000I249999J0D01*
G01*
X72205001Y-133773000D01*
G75*
G02*
X72455000Y-134022999I0J-249999D01*
G01*
X72455000Y-134673001D01*
G75*
G02*
X72205001Y-134923000I-249999J0D01*
G01*
G37*
%TD*%
%TO.C,C41*%
G36*
G01*
X78047001Y-134923000D02*
X77146999Y-134923000D01*
G75*
G02*
X76897000Y-134673001I0J249999D01*
G01*
X76897000Y-134022999D01*
G75*
G02*
X77146999Y-133773000I249999J0D01*
G01*
X78047001Y-133773000D01*
G75*
G02*
X78297000Y-134022999I0J-249999D01*
G01*
X78297000Y-134673001D01*
G75*
G02*
X78047001Y-134923000I-249999J0D01*
G01*
G37*
G36*
G01*
X78047001Y-136973000D02*
X77146999Y-136973000D01*
G75*
G02*
X76897000Y-136723001I0J249999D01*
G01*
X76897000Y-136072999D01*
G75*
G02*
X77146999Y-135823000I249999J0D01*
G01*
X78047001Y-135823000D01*
G75*
G02*
X78297000Y-136072999I0J-249999D01*
G01*
X78297000Y-136723001D01*
G75*
G02*
X78047001Y-136973000I-249999J0D01*
G01*
G37*
%TD*%
%TO.C,C42*%
G36*
G01*
X81068000Y-145865001D02*
X81068000Y-144964999D01*
G75*
G02*
X81317999Y-144715000I249999J0D01*
G01*
X81968001Y-144715000D01*
G75*
G02*
X82218000Y-144964999I0J-249999D01*
G01*
X82218000Y-145865001D01*
G75*
G02*
X81968001Y-146115000I-249999J0D01*
G01*
X81317999Y-146115000D01*
G75*
G02*
X81068000Y-145865001I0J249999D01*
G01*
G37*
G36*
G01*
X83118000Y-145865001D02*
X83118000Y-144964999D01*
G75*
G02*
X83367999Y-144715000I249999J0D01*
G01*
X84018001Y-144715000D01*
G75*
G02*
X84268000Y-144964999I0J-249999D01*
G01*
X84268000Y-145865001D01*
G75*
G02*
X84018001Y-146115000I-249999J0D01*
G01*
X83367999Y-146115000D01*
G75*
G02*
X83118000Y-145865001I0J249999D01*
G01*
G37*
%TD*%
%TO.C,C43*%
G36*
G01*
X60002000Y-144456999D02*
X60002000Y-145357001D01*
G75*
G02*
X59752001Y-145607000I-249999J0D01*
G01*
X59101999Y-145607000D01*
G75*
G02*
X58852000Y-145357001I0J249999D01*
G01*
X58852000Y-144456999D01*
G75*
G02*
X59101999Y-144207000I249999J0D01*
G01*
X59752001Y-144207000D01*
G75*
G02*
X60002000Y-144456999I0J-249999D01*
G01*
G37*
G36*
G01*
X62052000Y-144456999D02*
X62052000Y-145357001D01*
G75*
G02*
X61802001Y-145607000I-249999J0D01*
G01*
X61151999Y-145607000D01*
G75*
G02*
X60902000Y-145357001I0J249999D01*
G01*
X60902000Y-144456999D01*
G75*
G02*
X61151999Y-144207000I249999J0D01*
G01*
X61802001Y-144207000D01*
G75*
G02*
X62052000Y-144456999I0J-249999D01*
G01*
G37*
%TD*%
%TO.C,C44*%
G36*
G01*
X84799999Y-159625000D02*
X85700001Y-159625000D01*
G75*
G02*
X85950000Y-159874999I0J-249999D01*
G01*
X85950000Y-160525001D01*
G75*
G02*
X85700001Y-160775000I-249999J0D01*
G01*
X84799999Y-160775000D01*
G75*
G02*
X84550000Y-160525001I0J249999D01*
G01*
X84550000Y-159874999D01*
G75*
G02*
X84799999Y-159625000I249999J0D01*
G01*
G37*
G36*
G01*
X84799999Y-161675000D02*
X85700001Y-161675000D01*
G75*
G02*
X85950000Y-161924999I0J-249999D01*
G01*
X85950000Y-162575001D01*
G75*
G02*
X85700001Y-162825000I-249999J0D01*
G01*
X84799999Y-162825000D01*
G75*
G02*
X84550000Y-162575001I0J249999D01*
G01*
X84550000Y-161924999D01*
G75*
G02*
X84799999Y-161675000I249999J0D01*
G01*
G37*
%TD*%
%TO.C,C45*%
G36*
G01*
X79700001Y-160800000D02*
X78799999Y-160800000D01*
G75*
G02*
X78550000Y-160550001I0J249999D01*
G01*
X78550000Y-159899999D01*
G75*
G02*
X78799999Y-159650000I249999J0D01*
G01*
X79700001Y-159650000D01*
G75*
G02*
X79950000Y-159899999I0J-249999D01*
G01*
X79950000Y-160550001D01*
G75*
G02*
X79700001Y-160800000I-249999J0D01*
G01*
G37*
G36*
G01*
X79700001Y-162850000D02*
X78799999Y-162850000D01*
G75*
G02*
X78550000Y-162600001I0J249999D01*
G01*
X78550000Y-161949999D01*
G75*
G02*
X78799999Y-161700000I249999J0D01*
G01*
X79700001Y-161700000D01*
G75*
G02*
X79950000Y-161949999I0J-249999D01*
G01*
X79950000Y-162600001D01*
G75*
G02*
X79700001Y-162850000I-249999J0D01*
G01*
G37*
%TD*%
%TO.C,C56*%
G36*
G01*
X102950000Y-156950001D02*
X102950000Y-156049999D01*
G75*
G02*
X103199999Y-155800000I249999J0D01*
G01*
X103850001Y-155800000D01*
G75*
G02*
X104100000Y-156049999I0J-249999D01*
G01*
X104100000Y-156950001D01*
G75*
G02*
X103850001Y-157200000I-249999J0D01*
G01*
X103199999Y-157200000D01*
G75*
G02*
X102950000Y-156950001I0J249999D01*
G01*
G37*
G36*
G01*
X100900000Y-156950001D02*
X100900000Y-156049999D01*
G75*
G02*
X101149999Y-155800000I249999J0D01*
G01*
X101800001Y-155800000D01*
G75*
G02*
X102050000Y-156049999I0J-249999D01*
G01*
X102050000Y-156950001D01*
G75*
G02*
X101800001Y-157200000I-249999J0D01*
G01*
X101149999Y-157200000D01*
G75*
G02*
X100900000Y-156950001I0J249999D01*
G01*
G37*
%TD*%
%TO.C,C57*%
G36*
G01*
X108700000Y-159450001D02*
X108700000Y-158549999D01*
G75*
G02*
X108949999Y-158300000I249999J0D01*
G01*
X109600001Y-158300000D01*
G75*
G02*
X109850000Y-158549999I0J-249999D01*
G01*
X109850000Y-159450001D01*
G75*
G02*
X109600001Y-159700000I-249999J0D01*
G01*
X108949999Y-159700000D01*
G75*
G02*
X108700000Y-159450001I0J249999D01*
G01*
G37*
G36*
G01*
X106650000Y-159450001D02*
X106650000Y-158549999D01*
G75*
G02*
X106899999Y-158300000I249999J0D01*
G01*
X107550001Y-158300000D01*
G75*
G02*
X107800000Y-158549999I0J-249999D01*
G01*
X107800000Y-159450001D01*
G75*
G02*
X107550001Y-159700000I-249999J0D01*
G01*
X106899999Y-159700000D01*
G75*
G02*
X106650000Y-159450001I0J249999D01*
G01*
G37*
%TD*%
%TO.C,C58*%
G36*
G01*
X114600000Y-158549999D02*
X114600000Y-159450001D01*
G75*
G02*
X114350001Y-159700000I-249999J0D01*
G01*
X113699999Y-159700000D01*
G75*
G02*
X113450000Y-159450001I0J249999D01*
G01*
X113450000Y-158549999D01*
G75*
G02*
X113699999Y-158300000I249999J0D01*
G01*
X114350001Y-158300000D01*
G75*
G02*
X114600000Y-158549999I0J-249999D01*
G01*
G37*
G36*
G01*
X112550000Y-158549999D02*
X112550000Y-159450001D01*
G75*
G02*
X112300001Y-159700000I-249999J0D01*
G01*
X111649999Y-159700000D01*
G75*
G02*
X111400000Y-159450001I0J249999D01*
G01*
X111400000Y-158549999D01*
G75*
G02*
X111649999Y-158300000I249999J0D01*
G01*
X112300001Y-158300000D01*
G75*
G02*
X112550000Y-158549999I0J-249999D01*
G01*
G37*
%TD*%
%TO.C,C59*%
G36*
G01*
X93300000Y-153799999D02*
X93300000Y-154700001D01*
G75*
G02*
X93050001Y-154950000I-249999J0D01*
G01*
X92399999Y-154950000D01*
G75*
G02*
X92150000Y-154700001I0J249999D01*
G01*
X92150000Y-153799999D01*
G75*
G02*
X92399999Y-153550000I249999J0D01*
G01*
X93050001Y-153550000D01*
G75*
G02*
X93300000Y-153799999I0J-249999D01*
G01*
G37*
G36*
G01*
X95350000Y-153799999D02*
X95350000Y-154700001D01*
G75*
G02*
X95100001Y-154950000I-249999J0D01*
G01*
X94449999Y-154950000D01*
G75*
G02*
X94200000Y-154700001I0J249999D01*
G01*
X94200000Y-153799999D01*
G75*
G02*
X94449999Y-153550000I249999J0D01*
G01*
X95100001Y-153550000D01*
G75*
G02*
X95350000Y-153799999I0J-249999D01*
G01*
G37*
%TD*%
%TO.C,C60*%
G36*
G01*
X90775000Y-153799999D02*
X90775000Y-154700001D01*
G75*
G02*
X90525001Y-154950000I-249999J0D01*
G01*
X89874999Y-154950000D01*
G75*
G02*
X89625000Y-154700001I0J249999D01*
G01*
X89625000Y-153799999D01*
G75*
G02*
X89874999Y-153550000I249999J0D01*
G01*
X90525001Y-153550000D01*
G75*
G02*
X90775000Y-153799999I0J-249999D01*
G01*
G37*
G36*
G01*
X88725000Y-153799999D02*
X88725000Y-154700001D01*
G75*
G02*
X88475001Y-154950000I-249999J0D01*
G01*
X87824999Y-154950000D01*
G75*
G02*
X87575000Y-154700001I0J249999D01*
G01*
X87575000Y-153799999D01*
G75*
G02*
X87824999Y-153550000I249999J0D01*
G01*
X88475001Y-153550000D01*
G75*
G02*
X88725000Y-153799999I0J-249999D01*
G01*
G37*
%TD*%
%TO.C,C65*%
G36*
G01*
X69799999Y-108284000D02*
X70700001Y-108284000D01*
G75*
G02*
X70950000Y-108533999I0J-249999D01*
G01*
X70950000Y-109184001D01*
G75*
G02*
X70700001Y-109434000I-249999J0D01*
G01*
X69799999Y-109434000D01*
G75*
G02*
X69550000Y-109184001I0J249999D01*
G01*
X69550000Y-108533999D01*
G75*
G02*
X69799999Y-108284000I249999J0D01*
G01*
G37*
G36*
G01*
X69799999Y-110334000D02*
X70700001Y-110334000D01*
G75*
G02*
X70950000Y-110583999I0J-249999D01*
G01*
X70950000Y-111234001D01*
G75*
G02*
X70700001Y-111484000I-249999J0D01*
G01*
X69799999Y-111484000D01*
G75*
G02*
X69550000Y-111234001I0J249999D01*
G01*
X69550000Y-110583999D01*
G75*
G02*
X69799999Y-110334000I249999J0D01*
G01*
G37*
%TD*%
%TO.C,C63*%
G36*
G01*
X69799999Y-117975000D02*
X70700001Y-117975000D01*
G75*
G02*
X70950000Y-118224999I0J-249999D01*
G01*
X70950000Y-118875001D01*
G75*
G02*
X70700001Y-119125000I-249999J0D01*
G01*
X69799999Y-119125000D01*
G75*
G02*
X69550000Y-118875001I0J249999D01*
G01*
X69550000Y-118224999D01*
G75*
G02*
X69799999Y-117975000I249999J0D01*
G01*
G37*
G36*
G01*
X69799999Y-115925000D02*
X70700001Y-115925000D01*
G75*
G02*
X70950000Y-116174999I0J-249999D01*
G01*
X70950000Y-116825001D01*
G75*
G02*
X70700001Y-117075000I-249999J0D01*
G01*
X69799999Y-117075000D01*
G75*
G02*
X69550000Y-116825001I0J249999D01*
G01*
X69550000Y-116174999D01*
G75*
G02*
X69799999Y-115925000I249999J0D01*
G01*
G37*
%TD*%
%TO.C,C61*%
G36*
G01*
X94049001Y-110448000D02*
X93148999Y-110448000D01*
G75*
G02*
X92899000Y-110198001I0J249999D01*
G01*
X92899000Y-109547999D01*
G75*
G02*
X93148999Y-109298000I249999J0D01*
G01*
X94049001Y-109298000D01*
G75*
G02*
X94299000Y-109547999I0J-249999D01*
G01*
X94299000Y-110198001D01*
G75*
G02*
X94049001Y-110448000I-249999J0D01*
G01*
G37*
G36*
G01*
X94049001Y-108398000D02*
X93148999Y-108398000D01*
G75*
G02*
X92899000Y-108148001I0J249999D01*
G01*
X92899000Y-107497999D01*
G75*
G02*
X93148999Y-107248000I249999J0D01*
G01*
X94049001Y-107248000D01*
G75*
G02*
X94299000Y-107497999I0J-249999D01*
G01*
X94299000Y-108148001D01*
G75*
G02*
X94049001Y-108398000I-249999J0D01*
G01*
G37*
%TD*%
%TO.C,C62*%
G36*
G01*
X79813999Y-109298000D02*
X80714001Y-109298000D01*
G75*
G02*
X80964000Y-109547999I0J-249999D01*
G01*
X80964000Y-110198001D01*
G75*
G02*
X80714001Y-110448000I-249999J0D01*
G01*
X79813999Y-110448000D01*
G75*
G02*
X79564000Y-110198001I0J249999D01*
G01*
X79564000Y-109547999D01*
G75*
G02*
X79813999Y-109298000I249999J0D01*
G01*
G37*
G36*
G01*
X79813999Y-107248000D02*
X80714001Y-107248000D01*
G75*
G02*
X80964000Y-107497999I0J-249999D01*
G01*
X80964000Y-108148001D01*
G75*
G02*
X80714001Y-108398000I-249999J0D01*
G01*
X79813999Y-108398000D01*
G75*
G02*
X79564000Y-108148001I0J249999D01*
G01*
X79564000Y-107497999D01*
G75*
G02*
X79813999Y-107248000I249999J0D01*
G01*
G37*
%TD*%
%TO.C,D1*%
G36*
G01*
X97705999Y-145617000D02*
X98606001Y-145617000D01*
G75*
G02*
X98856000Y-145866999I0J-249999D01*
G01*
X98856000Y-146517001D01*
G75*
G02*
X98606001Y-146767000I-249999J0D01*
G01*
X97705999Y-146767000D01*
G75*
G02*
X97456000Y-146517001I0J249999D01*
G01*
X97456000Y-145866999D01*
G75*
G02*
X97705999Y-145617000I249999J0D01*
G01*
G37*
G36*
G01*
X97705999Y-147667000D02*
X98606001Y-147667000D01*
G75*
G02*
X98856000Y-147916999I0J-249999D01*
G01*
X98856000Y-148567001D01*
G75*
G02*
X98606001Y-148817000I-249999J0D01*
G01*
X97705999Y-148817000D01*
G75*
G02*
X97456000Y-148567001I0J249999D01*
G01*
X97456000Y-147916999D01*
G75*
G02*
X97705999Y-147667000I249999J0D01*
G01*
G37*
%TD*%
%TO.C,D2*%
G36*
G01*
X100372999Y-147667000D02*
X101273001Y-147667000D01*
G75*
G02*
X101523000Y-147916999I0J-249999D01*
G01*
X101523000Y-148567001D01*
G75*
G02*
X101273001Y-148817000I-249999J0D01*
G01*
X100372999Y-148817000D01*
G75*
G02*
X100123000Y-148567001I0J249999D01*
G01*
X100123000Y-147916999D01*
G75*
G02*
X100372999Y-147667000I249999J0D01*
G01*
G37*
G36*
G01*
X100372999Y-145617000D02*
X101273001Y-145617000D01*
G75*
G02*
X101523000Y-145866999I0J-249999D01*
G01*
X101523000Y-146517001D01*
G75*
G02*
X101273001Y-146767000I-249999J0D01*
G01*
X100372999Y-146767000D01*
G75*
G02*
X100123000Y-146517001I0J249999D01*
G01*
X100123000Y-145866999D01*
G75*
G02*
X100372999Y-145617000I249999J0D01*
G01*
G37*
%TD*%
%TO.C,D7*%
G36*
G01*
X103166999Y-145617000D02*
X104067001Y-145617000D01*
G75*
G02*
X104317000Y-145866999I0J-249999D01*
G01*
X104317000Y-146517001D01*
G75*
G02*
X104067001Y-146767000I-249999J0D01*
G01*
X103166999Y-146767000D01*
G75*
G02*
X102917000Y-146517001I0J249999D01*
G01*
X102917000Y-145866999D01*
G75*
G02*
X103166999Y-145617000I249999J0D01*
G01*
G37*
G36*
G01*
X103166999Y-147667000D02*
X104067001Y-147667000D01*
G75*
G02*
X104317000Y-147916999I0J-249999D01*
G01*
X104317000Y-148567001D01*
G75*
G02*
X104067001Y-148817000I-249999J0D01*
G01*
X103166999Y-148817000D01*
G75*
G02*
X102917000Y-148567001I0J249999D01*
G01*
X102917000Y-147916999D01*
G75*
G02*
X103166999Y-147667000I249999J0D01*
G01*
G37*
%TD*%
%TO.C,D3*%
G36*
G01*
X115893001Y-141303000D02*
X114992999Y-141303000D01*
G75*
G02*
X114743000Y-141053001I0J249999D01*
G01*
X114743000Y-140402999D01*
G75*
G02*
X114992999Y-140153000I249999J0D01*
G01*
X115893001Y-140153000D01*
G75*
G02*
X116143000Y-140402999I0J-249999D01*
G01*
X116143000Y-141053001D01*
G75*
G02*
X115893001Y-141303000I-249999J0D01*
G01*
G37*
G36*
G01*
X115893001Y-143353000D02*
X114992999Y-143353000D01*
G75*
G02*
X114743000Y-143103001I0J249999D01*
G01*
X114743000Y-142452999D01*
G75*
G02*
X114992999Y-142203000I249999J0D01*
G01*
X115893001Y-142203000D01*
G75*
G02*
X116143000Y-142452999I0J-249999D01*
G01*
X116143000Y-143103001D01*
G75*
G02*
X115893001Y-143353000I-249999J0D01*
G01*
G37*
%TD*%
%TO.C,D4*%
G36*
G01*
X118687001Y-143353000D02*
X117786999Y-143353000D01*
G75*
G02*
X117537000Y-143103001I0J249999D01*
G01*
X117537000Y-142452999D01*
G75*
G02*
X117786999Y-142203000I249999J0D01*
G01*
X118687001Y-142203000D01*
G75*
G02*
X118937000Y-142452999I0J-249999D01*
G01*
X118937000Y-143103001D01*
G75*
G02*
X118687001Y-143353000I-249999J0D01*
G01*
G37*
G36*
G01*
X118687001Y-141303000D02*
X117786999Y-141303000D01*
G75*
G02*
X117537000Y-141053001I0J249999D01*
G01*
X117537000Y-140402999D01*
G75*
G02*
X117786999Y-140153000I249999J0D01*
G01*
X118687001Y-140153000D01*
G75*
G02*
X118937000Y-140402999I0J-249999D01*
G01*
X118937000Y-141053001D01*
G75*
G02*
X118687001Y-141303000I-249999J0D01*
G01*
G37*
%TD*%
%TO.C,D5*%
G36*
G01*
X121481001Y-141303000D02*
X120580999Y-141303000D01*
G75*
G02*
X120331000Y-141053001I0J249999D01*
G01*
X120331000Y-140402999D01*
G75*
G02*
X120580999Y-140153000I249999J0D01*
G01*
X121481001Y-140153000D01*
G75*
G02*
X121731000Y-140402999I0J-249999D01*
G01*
X121731000Y-141053001D01*
G75*
G02*
X121481001Y-141303000I-249999J0D01*
G01*
G37*
G36*
G01*
X121481001Y-143353000D02*
X120580999Y-143353000D01*
G75*
G02*
X120331000Y-143103001I0J249999D01*
G01*
X120331000Y-142452999D01*
G75*
G02*
X120580999Y-142203000I249999J0D01*
G01*
X121481001Y-142203000D01*
G75*
G02*
X121731000Y-142452999I0J-249999D01*
G01*
X121731000Y-143103001D01*
G75*
G02*
X121481001Y-143353000I-249999J0D01*
G01*
G37*
%TD*%
%TO.C,D6*%
G36*
G01*
X124275001Y-143344000D02*
X123374999Y-143344000D01*
G75*
G02*
X123125000Y-143094001I0J249999D01*
G01*
X123125000Y-142443999D01*
G75*
G02*
X123374999Y-142194000I249999J0D01*
G01*
X124275001Y-142194000D01*
G75*
G02*
X124525000Y-142443999I0J-249999D01*
G01*
X124525000Y-143094001D01*
G75*
G02*
X124275001Y-143344000I-249999J0D01*
G01*
G37*
G36*
G01*
X124275001Y-141294000D02*
X123374999Y-141294000D01*
G75*
G02*
X123125000Y-141044001I0J249999D01*
G01*
X123125000Y-140393999D01*
G75*
G02*
X123374999Y-140144000I249999J0D01*
G01*
X124275001Y-140144000D01*
G75*
G02*
X124525000Y-140393999I0J-249999D01*
G01*
X124525000Y-141044001D01*
G75*
G02*
X124275001Y-141294000I-249999J0D01*
G01*
G37*
%TD*%
%TO.C,D8*%
G36*
G01*
X126942001Y-141303000D02*
X126041999Y-141303000D01*
G75*
G02*
X125792000Y-141053001I0J249999D01*
G01*
X125792000Y-140402999D01*
G75*
G02*
X126041999Y-140153000I249999J0D01*
G01*
X126942001Y-140153000D01*
G75*
G02*
X127192000Y-140402999I0J-249999D01*
G01*
X127192000Y-141053001D01*
G75*
G02*
X126942001Y-141303000I-249999J0D01*
G01*
G37*
G36*
G01*
X126942001Y-143353000D02*
X126041999Y-143353000D01*
G75*
G02*
X125792000Y-143103001I0J249999D01*
G01*
X125792000Y-142452999D01*
G75*
G02*
X126041999Y-142203000I249999J0D01*
G01*
X126942001Y-142203000D01*
G75*
G02*
X127192000Y-142452999I0J-249999D01*
G01*
X127192000Y-143103001D01*
G75*
G02*
X126942001Y-143353000I-249999J0D01*
G01*
G37*
%TD*%
%TO.C,D9*%
G36*
G01*
X129609001Y-141303000D02*
X128708999Y-141303000D01*
G75*
G02*
X128459000Y-141053001I0J249999D01*
G01*
X128459000Y-140402999D01*
G75*
G02*
X128708999Y-140153000I249999J0D01*
G01*
X129609001Y-140153000D01*
G75*
G02*
X129859000Y-140402999I0J-249999D01*
G01*
X129859000Y-141053001D01*
G75*
G02*
X129609001Y-141303000I-249999J0D01*
G01*
G37*
G36*
G01*
X129609001Y-143353000D02*
X128708999Y-143353000D01*
G75*
G02*
X128459000Y-143103001I0J249999D01*
G01*
X128459000Y-142452999D01*
G75*
G02*
X128708999Y-142203000I249999J0D01*
G01*
X129609001Y-142203000D01*
G75*
G02*
X129859000Y-142452999I0J-249999D01*
G01*
X129859000Y-143103001D01*
G75*
G02*
X129609001Y-143353000I-249999J0D01*
G01*
G37*
%TD*%
%TO.C,FB1*%
G36*
G01*
X81799999Y-154728000D02*
X82700001Y-154728000D01*
G75*
G02*
X82950000Y-154977999I0J-249999D01*
G01*
X82950000Y-155628001D01*
G75*
G02*
X82700001Y-155878000I-249999J0D01*
G01*
X81799999Y-155878000D01*
G75*
G02*
X81550000Y-155628001I0J249999D01*
G01*
X81550000Y-154977999D01*
G75*
G02*
X81799999Y-154728000I249999J0D01*
G01*
G37*
G36*
G01*
X81799999Y-156778000D02*
X82700001Y-156778000D01*
G75*
G02*
X82950000Y-157027999I0J-249999D01*
G01*
X82950000Y-157678001D01*
G75*
G02*
X82700001Y-157928000I-249999J0D01*
G01*
X81799999Y-157928000D01*
G75*
G02*
X81550000Y-157678001I0J249999D01*
G01*
X81550000Y-157027999D01*
G75*
G02*
X81799999Y-156778000I249999J0D01*
G01*
G37*
%TD*%
%TO.C,FB2*%
G36*
G01*
X86950000Y-147549999D02*
X86950000Y-148450001D01*
G75*
G02*
X86700001Y-148700000I-249999J0D01*
G01*
X86049999Y-148700000D01*
G75*
G02*
X85800000Y-148450001I0J249999D01*
G01*
X85800000Y-147549999D01*
G75*
G02*
X86049999Y-147300000I249999J0D01*
G01*
X86700001Y-147300000D01*
G75*
G02*
X86950000Y-147549999I0J-249999D01*
G01*
G37*
G36*
G01*
X89000000Y-147549999D02*
X89000000Y-148450001D01*
G75*
G02*
X88750001Y-148700000I-249999J0D01*
G01*
X88099999Y-148700000D01*
G75*
G02*
X87850000Y-148450001I0J249999D01*
G01*
X87850000Y-147549999D01*
G75*
G02*
X88099999Y-147300000I249999J0D01*
G01*
X88750001Y-147300000D01*
G75*
G02*
X89000000Y-147549999I0J-249999D01*
G01*
G37*
%TD*%
%TO.C,FB3*%
G36*
G01*
X82742001Y-160775000D02*
X81841999Y-160775000D01*
G75*
G02*
X81592000Y-160525001I0J249999D01*
G01*
X81592000Y-159874999D01*
G75*
G02*
X81841999Y-159625000I249999J0D01*
G01*
X82742001Y-159625000D01*
G75*
G02*
X82992000Y-159874999I0J-249999D01*
G01*
X82992000Y-160525001D01*
G75*
G02*
X82742001Y-160775000I-249999J0D01*
G01*
G37*
G36*
G01*
X82742001Y-162825000D02*
X81841999Y-162825000D01*
G75*
G02*
X81592000Y-162575001I0J249999D01*
G01*
X81592000Y-161924999D01*
G75*
G02*
X81841999Y-161675000I249999J0D01*
G01*
X82742001Y-161675000D01*
G75*
G02*
X82992000Y-161924999I0J-249999D01*
G01*
X82992000Y-162575001D01*
G75*
G02*
X82742001Y-162825000I-249999J0D01*
G01*
G37*
%TD*%
D10*
%TO.C,J1*%
X101900000Y-165985000D03*
X99980000Y-165985000D03*
D11*
X102240000Y-162835000D03*
X101590000Y-162835000D03*
X100940000Y-162835000D03*
X100290000Y-162835000D03*
X99640000Y-162835000D03*
D12*
X103840000Y-162715000D03*
X98090000Y-162735000D03*
D13*
X103940000Y-164035000D03*
X97990000Y-164035000D03*
D14*
X98210000Y-164785000D03*
X103690000Y-164785000D03*
%TD*%
%TO.C,J2*%
X121725000Y-164777000D03*
X116245000Y-164777000D03*
D13*
X116025000Y-164027000D03*
X121975000Y-164027000D03*
D12*
X116125000Y-162727000D03*
X121875000Y-162707000D03*
D11*
X117675000Y-162827000D03*
X118325000Y-162827000D03*
X118975000Y-162827000D03*
X119625000Y-162827000D03*
X120275000Y-162827000D03*
D10*
X118015000Y-165977000D03*
X119935000Y-165977000D03*
%TD*%
D15*
%TO.C,J3*%
X72060000Y-158766000D03*
X71560000Y-158766000D03*
X71060000Y-158766000D03*
X70560000Y-158766000D03*
X70060000Y-158766000D03*
X69560000Y-158766000D03*
X69060000Y-158766000D03*
X68560000Y-158766000D03*
X68060000Y-158766000D03*
X67560000Y-158766000D03*
X67060000Y-158766000D03*
X66560000Y-158766000D03*
X66060000Y-158766000D03*
X65560000Y-158766000D03*
X65060000Y-158766000D03*
X64560000Y-158766000D03*
X64060000Y-158766000D03*
X63560000Y-158766000D03*
X63060000Y-158766000D03*
%TD*%
%TO.C,L1*%
G36*
G01*
X98700001Y-153275000D02*
X97799999Y-153275000D01*
G75*
G02*
X97550000Y-153025001I0J249999D01*
G01*
X97550000Y-152374999D01*
G75*
G02*
X97799999Y-152125000I249999J0D01*
G01*
X98700001Y-152125000D01*
G75*
G02*
X98950000Y-152374999I0J-249999D01*
G01*
X98950000Y-153025001D01*
G75*
G02*
X98700001Y-153275000I-249999J0D01*
G01*
G37*
G36*
G01*
X98700001Y-155325000D02*
X97799999Y-155325000D01*
G75*
G02*
X97550000Y-155075001I0J249999D01*
G01*
X97550000Y-154424999D01*
G75*
G02*
X97799999Y-154175000I249999J0D01*
G01*
X98700001Y-154175000D01*
G75*
G02*
X98950000Y-154424999I0J-249999D01*
G01*
X98950000Y-155075001D01*
G75*
G02*
X98700001Y-155325000I-249999J0D01*
G01*
G37*
%TD*%
%TO.C,R1*%
G36*
G01*
X98606001Y-142694000D02*
X97705999Y-142694000D01*
G75*
G02*
X97456000Y-142444001I0J249999D01*
G01*
X97456000Y-141793999D01*
G75*
G02*
X97705999Y-141544000I249999J0D01*
G01*
X98606001Y-141544000D01*
G75*
G02*
X98856000Y-141793999I0J-249999D01*
G01*
X98856000Y-142444001D01*
G75*
G02*
X98606001Y-142694000I-249999J0D01*
G01*
G37*
G36*
G01*
X98606001Y-144744000D02*
X97705999Y-144744000D01*
G75*
G02*
X97456000Y-144494001I0J249999D01*
G01*
X97456000Y-143843999D01*
G75*
G02*
X97705999Y-143594000I249999J0D01*
G01*
X98606001Y-143594000D01*
G75*
G02*
X98856000Y-143843999I0J-249999D01*
G01*
X98856000Y-144494001D01*
G75*
G02*
X98606001Y-144744000I-249999J0D01*
G01*
G37*
%TD*%
%TO.C,R2*%
G36*
G01*
X108278431Y-119582828D02*
X108914828Y-118946431D01*
G75*
G02*
X109268380Y-118946431I176776J-176776D01*
G01*
X109728001Y-119406052D01*
G75*
G02*
X109728001Y-119759604I-176776J-176776D01*
G01*
X109091604Y-120396001D01*
G75*
G02*
X108738052Y-120396001I-176776J176776D01*
G01*
X108278431Y-119936380D01*
G75*
G02*
X108278431Y-119582828I176776J176776D01*
G01*
G37*
G36*
G01*
X109727999Y-121032396D02*
X110364396Y-120395999D01*
G75*
G02*
X110717948Y-120395999I176776J-176776D01*
G01*
X111177569Y-120855620D01*
G75*
G02*
X111177569Y-121209172I-176776J-176776D01*
G01*
X110541172Y-121845569D01*
G75*
G02*
X110187620Y-121845569I-176776J176776D01*
G01*
X109727999Y-121385948D01*
G75*
G02*
X109727999Y-121032396I176776J176776D01*
G01*
G37*
%TD*%
%TO.C,R7*%
G36*
G01*
X101273001Y-142703000D02*
X100372999Y-142703000D01*
G75*
G02*
X100123000Y-142453001I0J249999D01*
G01*
X100123000Y-141802999D01*
G75*
G02*
X100372999Y-141553000I249999J0D01*
G01*
X101273001Y-141553000D01*
G75*
G02*
X101523000Y-141802999I0J-249999D01*
G01*
X101523000Y-142453001D01*
G75*
G02*
X101273001Y-142703000I-249999J0D01*
G01*
G37*
G36*
G01*
X101273001Y-144753000D02*
X100372999Y-144753000D01*
G75*
G02*
X100123000Y-144503001I0J249999D01*
G01*
X100123000Y-143852999D01*
G75*
G02*
X100372999Y-143603000I249999J0D01*
G01*
X101273001Y-143603000D01*
G75*
G02*
X101523000Y-143852999I0J-249999D01*
G01*
X101523000Y-144503001D01*
G75*
G02*
X101273001Y-144753000I-249999J0D01*
G01*
G37*
%TD*%
%TO.C,R3*%
G36*
G01*
X96225000Y-144349999D02*
X96225000Y-145250001D01*
G75*
G02*
X95975001Y-145500000I-249999J0D01*
G01*
X95324999Y-145500000D01*
G75*
G02*
X95075000Y-145250001I0J249999D01*
G01*
X95075000Y-144349999D01*
G75*
G02*
X95324999Y-144100000I249999J0D01*
G01*
X95975001Y-144100000D01*
G75*
G02*
X96225000Y-144349999I0J-249999D01*
G01*
G37*
G36*
G01*
X94175000Y-144349999D02*
X94175000Y-145250001D01*
G75*
G02*
X93925001Y-145500000I-249999J0D01*
G01*
X93274999Y-145500000D01*
G75*
G02*
X93025000Y-145250001I0J249999D01*
G01*
X93025000Y-144349999D01*
G75*
G02*
X93274999Y-144100000I249999J0D01*
G01*
X93925001Y-144100000D01*
G75*
G02*
X94175000Y-144349999I0J-249999D01*
G01*
G37*
%TD*%
%TO.C,R4*%
G36*
G01*
X96225000Y-147549999D02*
X96225000Y-148450001D01*
G75*
G02*
X95975001Y-148700000I-249999J0D01*
G01*
X95324999Y-148700000D01*
G75*
G02*
X95075000Y-148450001I0J249999D01*
G01*
X95075000Y-147549999D01*
G75*
G02*
X95324999Y-147300000I249999J0D01*
G01*
X95975001Y-147300000D01*
G75*
G02*
X96225000Y-147549999I0J-249999D01*
G01*
G37*
G36*
G01*
X94175000Y-147549999D02*
X94175000Y-148450001D01*
G75*
G02*
X93925001Y-148700000I-249999J0D01*
G01*
X93274999Y-148700000D01*
G75*
G02*
X93025000Y-148450001I0J249999D01*
G01*
X93025000Y-147549999D01*
G75*
G02*
X93274999Y-147300000I249999J0D01*
G01*
X93925001Y-147300000D01*
G75*
G02*
X94175000Y-147549999I0J-249999D01*
G01*
G37*
%TD*%
%TO.C,R5*%
G36*
G01*
X59112999Y-152333000D02*
X60013001Y-152333000D01*
G75*
G02*
X60263000Y-152582999I0J-249999D01*
G01*
X60263000Y-153233001D01*
G75*
G02*
X60013001Y-153483000I-249999J0D01*
G01*
X59112999Y-153483000D01*
G75*
G02*
X58863000Y-153233001I0J249999D01*
G01*
X58863000Y-152582999D01*
G75*
G02*
X59112999Y-152333000I249999J0D01*
G01*
G37*
G36*
G01*
X59112999Y-150283000D02*
X60013001Y-150283000D01*
G75*
G02*
X60263000Y-150532999I0J-249999D01*
G01*
X60263000Y-151183001D01*
G75*
G02*
X60013001Y-151433000I-249999J0D01*
G01*
X59112999Y-151433000D01*
G75*
G02*
X58863000Y-151183001I0J249999D01*
G01*
X58863000Y-150532999D01*
G75*
G02*
X59112999Y-150283000I249999J0D01*
G01*
G37*
%TD*%
%TO.C,R15*%
G36*
G01*
X104067001Y-144735000D02*
X103166999Y-144735000D01*
G75*
G02*
X102917000Y-144485001I0J249999D01*
G01*
X102917000Y-143834999D01*
G75*
G02*
X103166999Y-143585000I249999J0D01*
G01*
X104067001Y-143585000D01*
G75*
G02*
X104317000Y-143834999I0J-249999D01*
G01*
X104317000Y-144485001D01*
G75*
G02*
X104067001Y-144735000I-249999J0D01*
G01*
G37*
G36*
G01*
X104067001Y-142685000D02*
X103166999Y-142685000D01*
G75*
G02*
X102917000Y-142435001I0J249999D01*
G01*
X102917000Y-141784999D01*
G75*
G02*
X103166999Y-141535000I249999J0D01*
G01*
X104067001Y-141535000D01*
G75*
G02*
X104317000Y-141784999I0J-249999D01*
G01*
X104317000Y-142435001D01*
G75*
G02*
X104067001Y-142685000I-249999J0D01*
G01*
G37*
%TD*%
%TO.C,R20*%
G36*
G01*
X72950001Y-111484000D02*
X72049999Y-111484000D01*
G75*
G02*
X71800000Y-111234001I0J249999D01*
G01*
X71800000Y-110583999D01*
G75*
G02*
X72049999Y-110334000I249999J0D01*
G01*
X72950001Y-110334000D01*
G75*
G02*
X73200000Y-110583999I0J-249999D01*
G01*
X73200000Y-111234001D01*
G75*
G02*
X72950001Y-111484000I-249999J0D01*
G01*
G37*
G36*
G01*
X72950001Y-109434000D02*
X72049999Y-109434000D01*
G75*
G02*
X71800000Y-109184001I0J249999D01*
G01*
X71800000Y-108533999D01*
G75*
G02*
X72049999Y-108284000I249999J0D01*
G01*
X72950001Y-108284000D01*
G75*
G02*
X73200000Y-108533999I0J-249999D01*
G01*
X73200000Y-109184001D01*
G75*
G02*
X72950001Y-109434000I-249999J0D01*
G01*
G37*
%TD*%
%TO.C,R10*%
G36*
G01*
X115893001Y-145367000D02*
X114992999Y-145367000D01*
G75*
G02*
X114743000Y-145117001I0J249999D01*
G01*
X114743000Y-144466999D01*
G75*
G02*
X114992999Y-144217000I249999J0D01*
G01*
X115893001Y-144217000D01*
G75*
G02*
X116143000Y-144466999I0J-249999D01*
G01*
X116143000Y-145117001D01*
G75*
G02*
X115893001Y-145367000I-249999J0D01*
G01*
G37*
G36*
G01*
X115893001Y-147417000D02*
X114992999Y-147417000D01*
G75*
G02*
X114743000Y-147167001I0J249999D01*
G01*
X114743000Y-146516999D01*
G75*
G02*
X114992999Y-146267000I249999J0D01*
G01*
X115893001Y-146267000D01*
G75*
G02*
X116143000Y-146516999I0J-249999D01*
G01*
X116143000Y-147167001D01*
G75*
G02*
X115893001Y-147417000I-249999J0D01*
G01*
G37*
%TD*%
%TO.C,R11*%
G36*
G01*
X118687001Y-147408000D02*
X117786999Y-147408000D01*
G75*
G02*
X117537000Y-147158001I0J249999D01*
G01*
X117537000Y-146507999D01*
G75*
G02*
X117786999Y-146258000I249999J0D01*
G01*
X118687001Y-146258000D01*
G75*
G02*
X118937000Y-146507999I0J-249999D01*
G01*
X118937000Y-147158001D01*
G75*
G02*
X118687001Y-147408000I-249999J0D01*
G01*
G37*
G36*
G01*
X118687001Y-145358000D02*
X117786999Y-145358000D01*
G75*
G02*
X117537000Y-145108001I0J249999D01*
G01*
X117537000Y-144457999D01*
G75*
G02*
X117786999Y-144208000I249999J0D01*
G01*
X118687001Y-144208000D01*
G75*
G02*
X118937000Y-144457999I0J-249999D01*
G01*
X118937000Y-145108001D01*
G75*
G02*
X118687001Y-145358000I-249999J0D01*
G01*
G37*
%TD*%
%TO.C,R12*%
G36*
G01*
X121481001Y-145367000D02*
X120580999Y-145367000D01*
G75*
G02*
X120331000Y-145117001I0J249999D01*
G01*
X120331000Y-144466999D01*
G75*
G02*
X120580999Y-144217000I249999J0D01*
G01*
X121481001Y-144217000D01*
G75*
G02*
X121731000Y-144466999I0J-249999D01*
G01*
X121731000Y-145117001D01*
G75*
G02*
X121481001Y-145367000I-249999J0D01*
G01*
G37*
G36*
G01*
X121481001Y-147417000D02*
X120580999Y-147417000D01*
G75*
G02*
X120331000Y-147167001I0J249999D01*
G01*
X120331000Y-146516999D01*
G75*
G02*
X120580999Y-146267000I249999J0D01*
G01*
X121481001Y-146267000D01*
G75*
G02*
X121731000Y-146516999I0J-249999D01*
G01*
X121731000Y-147167001D01*
G75*
G02*
X121481001Y-147417000I-249999J0D01*
G01*
G37*
%TD*%
%TO.C,R13*%
G36*
G01*
X124275001Y-145367000D02*
X123374999Y-145367000D01*
G75*
G02*
X123125000Y-145117001I0J249999D01*
G01*
X123125000Y-144466999D01*
G75*
G02*
X123374999Y-144217000I249999J0D01*
G01*
X124275001Y-144217000D01*
G75*
G02*
X124525000Y-144466999I0J-249999D01*
G01*
X124525000Y-145117001D01*
G75*
G02*
X124275001Y-145367000I-249999J0D01*
G01*
G37*
G36*
G01*
X124275001Y-147417000D02*
X123374999Y-147417000D01*
G75*
G02*
X123125000Y-147167001I0J249999D01*
G01*
X123125000Y-146516999D01*
G75*
G02*
X123374999Y-146267000I249999J0D01*
G01*
X124275001Y-146267000D01*
G75*
G02*
X124525000Y-146516999I0J-249999D01*
G01*
X124525000Y-147167001D01*
G75*
G02*
X124275001Y-147417000I-249999J0D01*
G01*
G37*
%TD*%
%TO.C,R14*%
G36*
G01*
X126942001Y-147408000D02*
X126041999Y-147408000D01*
G75*
G02*
X125792000Y-147158001I0J249999D01*
G01*
X125792000Y-146507999D01*
G75*
G02*
X126041999Y-146258000I249999J0D01*
G01*
X126942001Y-146258000D01*
G75*
G02*
X127192000Y-146507999I0J-249999D01*
G01*
X127192000Y-147158001D01*
G75*
G02*
X126942001Y-147408000I-249999J0D01*
G01*
G37*
G36*
G01*
X126942001Y-145358000D02*
X126041999Y-145358000D01*
G75*
G02*
X125792000Y-145108001I0J249999D01*
G01*
X125792000Y-144457999D01*
G75*
G02*
X126041999Y-144208000I249999J0D01*
G01*
X126942001Y-144208000D01*
G75*
G02*
X127192000Y-144457999I0J-249999D01*
G01*
X127192000Y-145108001D01*
G75*
G02*
X126942001Y-145358000I-249999J0D01*
G01*
G37*
%TD*%
%TO.C,R16*%
G36*
G01*
X129609001Y-145367000D02*
X128708999Y-145367000D01*
G75*
G02*
X128459000Y-145117001I0J249999D01*
G01*
X128459000Y-144466999D01*
G75*
G02*
X128708999Y-144217000I249999J0D01*
G01*
X129609001Y-144217000D01*
G75*
G02*
X129859000Y-144466999I0J-249999D01*
G01*
X129859000Y-145117001D01*
G75*
G02*
X129609001Y-145367000I-249999J0D01*
G01*
G37*
G36*
G01*
X129609001Y-147417000D02*
X128708999Y-147417000D01*
G75*
G02*
X128459000Y-147167001I0J249999D01*
G01*
X128459000Y-146516999D01*
G75*
G02*
X128708999Y-146267000I249999J0D01*
G01*
X129609001Y-146267000D01*
G75*
G02*
X129859000Y-146516999I0J-249999D01*
G01*
X129859000Y-147167001D01*
G75*
G02*
X129609001Y-147417000I-249999J0D01*
G01*
G37*
%TD*%
%TO.C,R19*%
G36*
G01*
X72950001Y-119125000D02*
X72049999Y-119125000D01*
G75*
G02*
X71800000Y-118875001I0J249999D01*
G01*
X71800000Y-118224999D01*
G75*
G02*
X72049999Y-117975000I249999J0D01*
G01*
X72950001Y-117975000D01*
G75*
G02*
X73200000Y-118224999I0J-249999D01*
G01*
X73200000Y-118875001D01*
G75*
G02*
X72950001Y-119125000I-249999J0D01*
G01*
G37*
G36*
G01*
X72950001Y-117075000D02*
X72049999Y-117075000D01*
G75*
G02*
X71800000Y-116825001I0J249999D01*
G01*
X71800000Y-116174999D01*
G75*
G02*
X72049999Y-115925000I249999J0D01*
G01*
X72950001Y-115925000D01*
G75*
G02*
X73200000Y-116174999I0J-249999D01*
G01*
X73200000Y-116825001D01*
G75*
G02*
X72950001Y-117075000I-249999J0D01*
G01*
G37*
%TD*%
%TO.C,R17*%
G36*
G01*
X82746001Y-110430000D02*
X81845999Y-110430000D01*
G75*
G02*
X81596000Y-110180001I0J249999D01*
G01*
X81596000Y-109529999D01*
G75*
G02*
X81845999Y-109280000I249999J0D01*
G01*
X82746001Y-109280000D01*
G75*
G02*
X82996000Y-109529999I0J-249999D01*
G01*
X82996000Y-110180001D01*
G75*
G02*
X82746001Y-110430000I-249999J0D01*
G01*
G37*
G36*
G01*
X82746001Y-108380000D02*
X81845999Y-108380000D01*
G75*
G02*
X81596000Y-108130001I0J249999D01*
G01*
X81596000Y-107479999D01*
G75*
G02*
X81845999Y-107230000I249999J0D01*
G01*
X82746001Y-107230000D01*
G75*
G02*
X82996000Y-107479999I0J-249999D01*
G01*
X82996000Y-108130001D01*
G75*
G02*
X82746001Y-108380000I-249999J0D01*
G01*
G37*
%TD*%
D16*
%TO.C,U2*%
X103600000Y-151700000D03*
X103600000Y-153600000D03*
X101400000Y-153600000D03*
X101400000Y-152650000D03*
X101400000Y-151700000D03*
%TD*%
D12*
%TO.C,U3*%
X107600000Y-151700000D03*
X107600000Y-156300000D03*
X107600000Y-154000000D03*
D17*
X113900000Y-154000000D03*
%TD*%
D18*
%TO.C,U1*%
X115154000Y-134860000D03*
X115154000Y-134060000D03*
X115154000Y-133260000D03*
X115154000Y-132460000D03*
X115154000Y-131660000D03*
X115154000Y-130860000D03*
X115154000Y-130060000D03*
X115154000Y-129260000D03*
X115154000Y-128460000D03*
X115154000Y-127660000D03*
X115154000Y-126860000D03*
X115154000Y-126060000D03*
X115154000Y-125260000D03*
X115154000Y-124460000D03*
X115154000Y-123660000D03*
X115154000Y-122860000D03*
X115154000Y-122060000D03*
X115154000Y-121260000D03*
X115154000Y-120460000D03*
X115154000Y-119660000D03*
X115154000Y-118860000D03*
X115154000Y-118060000D03*
X115154000Y-117260000D03*
X115154000Y-116460000D03*
X115154000Y-115660000D03*
X115154000Y-114860000D03*
X115154000Y-114060000D03*
X126654000Y-114060000D03*
X126654000Y-114860000D03*
X126654000Y-115660000D03*
X126654000Y-116460000D03*
X126654000Y-117260000D03*
X126654000Y-118060000D03*
X126654000Y-118860000D03*
X126654000Y-119660000D03*
X126654000Y-120460000D03*
X126654000Y-121260000D03*
X126654000Y-122060000D03*
X126654000Y-122860000D03*
X126654000Y-123660000D03*
X126654000Y-124460000D03*
X126654000Y-125260000D03*
X126654000Y-126060000D03*
X126654000Y-126860000D03*
X126654000Y-127660000D03*
X126654000Y-128460000D03*
X126654000Y-129260000D03*
X126654000Y-130060000D03*
X126654000Y-130860000D03*
X126654000Y-131660000D03*
X126654000Y-132460000D03*
X126654000Y-133260000D03*
X126654000Y-134060000D03*
X126654000Y-134860000D03*
%TD*%
D17*
%TO.C,U4*%
X88100000Y-159500000D03*
D12*
X94400000Y-159500000D03*
X94400000Y-157200000D03*
X94400000Y-161800000D03*
%TD*%
D19*
%TO.C,Y1*%
X85351000Y-108712000D03*
X90551000Y-108712000D03*
%TD*%
D20*
%TO.C,SW1*%
X60033000Y-116495000D03*
X67983000Y-116495000D03*
X60033000Y-120995000D03*
X67983000Y-120995000D03*
%TD*%
%TO.C,SW2*%
X68021000Y-113375000D03*
X60071000Y-113375000D03*
X68021000Y-108875000D03*
X60071000Y-108875000D03*
%TD*%
D21*
%TO.C,J4*%
X122301000Y-158275000D03*
X122301000Y-153225000D03*
X124841000Y-158275000D03*
X124841000Y-153225000D03*
X127381000Y-158275000D03*
X127381000Y-153225000D03*
%TD*%
%TO.C,C54*%
G36*
G01*
X110450001Y-115075000D02*
X109549999Y-115075000D01*
G75*
G02*
X109300000Y-114825001I0J249999D01*
G01*
X109300000Y-114174999D01*
G75*
G02*
X109549999Y-113925000I249999J0D01*
G01*
X110450001Y-113925000D01*
G75*
G02*
X110700000Y-114174999I0J-249999D01*
G01*
X110700000Y-114825001D01*
G75*
G02*
X110450001Y-115075000I-249999J0D01*
G01*
G37*
G36*
G01*
X110450001Y-117125000D02*
X109549999Y-117125000D01*
G75*
G02*
X109300000Y-116875001I0J249999D01*
G01*
X109300000Y-116224999D01*
G75*
G02*
X109549999Y-115975000I249999J0D01*
G01*
X110450001Y-115975000D01*
G75*
G02*
X110700000Y-116224999I0J-249999D01*
G01*
X110700000Y-116875001D01*
G75*
G02*
X110450001Y-117125000I-249999J0D01*
G01*
G37*
%TD*%
D22*
%TO.C,Q1*%
X107600000Y-147150000D03*
X107600000Y-145250000D03*
X105600000Y-146200000D03*
%TD*%
%TO.C,R21*%
G36*
G01*
X109749999Y-144425000D02*
X110650001Y-144425000D01*
G75*
G02*
X110900000Y-144674999I0J-249999D01*
G01*
X110900000Y-145325001D01*
G75*
G02*
X110650001Y-145575000I-249999J0D01*
G01*
X109749999Y-145575000D01*
G75*
G02*
X109500000Y-145325001I0J249999D01*
G01*
X109500000Y-144674999D01*
G75*
G02*
X109749999Y-144425000I249999J0D01*
G01*
G37*
G36*
G01*
X109749999Y-142375000D02*
X110650001Y-142375000D01*
G75*
G02*
X110900000Y-142624999I0J-249999D01*
G01*
X110900000Y-143275001D01*
G75*
G02*
X110650001Y-143525000I-249999J0D01*
G01*
X109749999Y-143525000D01*
G75*
G02*
X109500000Y-143275001I0J249999D01*
G01*
X109500000Y-142624999D01*
G75*
G02*
X109749999Y-142375000I249999J0D01*
G01*
G37*
%TD*%
%TO.C,R22*%
G36*
G01*
X109749999Y-146425000D02*
X110650001Y-146425000D01*
G75*
G02*
X110900000Y-146674999I0J-249999D01*
G01*
X110900000Y-147325001D01*
G75*
G02*
X110650001Y-147575000I-249999J0D01*
G01*
X109749999Y-147575000D01*
G75*
G02*
X109500000Y-147325001I0J249999D01*
G01*
X109500000Y-146674999D01*
G75*
G02*
X109749999Y-146425000I249999J0D01*
G01*
G37*
G36*
G01*
X109749999Y-148475000D02*
X110650001Y-148475000D01*
G75*
G02*
X110900000Y-148724999I0J-249999D01*
G01*
X110900000Y-149375001D01*
G75*
G02*
X110650001Y-149625000I-249999J0D01*
G01*
X109749999Y-149625000D01*
G75*
G02*
X109500000Y-149375001I0J249999D01*
G01*
X109500000Y-148724999D01*
G75*
G02*
X109749999Y-148475000I249999J0D01*
G01*
G37*
%TD*%
M02*
