M48
; DRILL file {KiCad (5.1.6)-1} date 12/19/20 20:46:52
; FORMAT={-:-/ absolute / inch / decimal}
; #@! TF.CreationDate,2020-12-19T20:46:52-03:30
; #@! TF.GenerationSoftware,Kicad,Pcbnew,(5.1.6)-1
; #@! TF.FileFunction,Plated,1,4,PTH
FMAT,2
INCH
T1C0.0118
T2C0.0256
T3C0.0276
T4C0.0512
T5C0.0787
%
G90
G05
T1
X2.34Y-5.7054
X2.345Y-5.9393
X2.4409Y-4.3602
X2.5Y-6.3091
X2.505Y-6.185
X2.558Y-6.308
X2.5689Y-5.748
X2.5701Y-5.7763
X2.5861Y-5.976
X2.595Y-5.695
X2.5982Y-6.0326
X2.5984Y-5.5217
X2.6329Y-6.314
X2.6692Y-5.8508
X2.67Y-6.01
X2.6732Y-4.7598
X2.675Y-5.695
X2.6772Y-4.4685
X2.6969Y-5.525
X2.71Y-5.42
X2.72Y-5.96
X2.755Y-6.0004
X2.8248Y-5.5722
X2.825Y-5.2893
X2.8387Y-5.3879
X2.8541Y-4.5864
X2.8543Y-4.2858
X2.8543Y-4.6673
X2.87Y-5.5743
X2.8882Y-5.3974
X2.91Y-5.8911
X2.9157Y-5.3974
X2.93Y-5.28
X2.93Y-5.59
X2.93Y-5.925
X2.94Y-5.37
X2.9429Y-5.7185
X2.9606Y-5.2056
X2.97Y-5.84
X2.9882Y-5.2056
X2.99Y-5.63
X3.0197Y-5.2047
X3.02Y-5.84
X3.0472Y-5.2047
X3.07Y-5.9374
X3.0726Y-5.2461
X3.0953Y-5.4343
X3.1004Y-5.4823
X3.1102Y-4.7922
X3.1102Y-4.872
X3.1102Y-4.94
X3.1102Y-5.0207
X3.1201Y-6.1122
X3.1201Y-6.25
X3.1201Y-6.3888
X3.1426Y-5.2756
X3.1435Y-4.4965
X3.16Y-4.3257
X3.17Y-5.7
X3.1792Y-5.6138
X3.18Y-5.99
X3.18Y-6.055
X3.215Y-5.675
X3.2165Y-5.8268
X3.23Y-4.43
X3.248Y-5.502
X3.2612Y-4.8986
X3.2677Y-4.9254
X3.2766Y-5.9325
X3.2777Y-4.7265
X3.2793Y-4.635
X3.28Y-4.5546
X3.28Y-4.95
X3.2874Y-5.1467
X3.29Y-5.2304
X3.293Y-4.7494
X3.295Y-5.725
X3.3Y-4.98
X3.3071Y-5.4921
X3.31Y-5.01
X3.3175Y-4.7691
X3.3223Y-5.0347
X3.3272Y-5.2772
X3.3278Y-5.3102
X3.33Y-5.34
X3.3339Y-5.0597
X3.345Y-4.7888
X3.3473Y-5.0837
X3.3563Y-4.498
X3.3563Y-6.3878
X3.3642Y-5.1055
X3.3702Y-4.8082
X3.3878Y-5.4921
X3.39Y-4.8274
X3.4006Y-5.8268
X3.41Y-4.85
X3.4626Y-6.0728
X3.47Y-5.29
X3.4744Y-5.4921
X3.4963Y-4.4474
X3.515Y-4.52
X3.52Y-5.2674
X3.5271Y-5.8815
X3.5308Y-5.9098
X3.54Y-4.47
X3.54Y-4.76
X3.55Y-5.46
X3.5987Y-4.7813
X3.6122Y-5.3445
X3.6417Y-4.4531
X3.645Y-5.46
X3.67Y-4.81
X3.6713Y-4.498
X3.6727Y-5.47
X3.6811Y-4.2421
X3.71Y-4.48
X3.75Y-5.4921
X3.76Y-5.35
X3.7697Y-4.498
X3.7906Y-5.3474
X3.8033Y-5.4569
X3.8189Y-4.4685
X3.8346Y-5.4567
X3.8673Y-5.45
X3.8769Y-5.32
X3.878Y-4.4764
X3.8898Y-6.2835
X3.8988Y-5.454
X3.9228Y-6.3134
X3.9264Y-5.4594
X3.9567Y-4.4764
X3.9694Y-5.8363
X3.9764Y-5.4547
X3.9876Y-4.8425
X3.99Y-5.5
X3.9921Y-6.0079
X4.0173Y-4.8426
X4.021Y-5.501
X4.0354Y-4.4764
X4.0449Y-4.8426
X4.06Y-5.5
X4.0742Y-4.8422
X4.0758Y-6.1614
X4.0787Y-6.0472
X4.1026Y-4.8426
X4.124Y-5.5945
X4.1437Y-4.8425
X4.1508Y-4.4666
X4.1732Y-5.4035
X4.2126Y-6.4764
X4.2215Y-6.2598
X4.2323Y-4.4203
X4.2323Y-5.4724
X4.2362Y-5.9724
X4.2458Y-5.1332
X4.27Y-5.1181
X4.32Y-4.81
X4.3386Y-5.7874
X4.3504Y-5.4035
X4.3504Y-6.2598
X4.3701Y-4.3602
X4.419Y-4.531
X4.4193Y-4.9803
X4.42Y-4.5
X4.46Y-4.7574
X4.47Y-4.59
X4.47Y-4.62
X4.47Y-4.65
X4.47Y-4.68
X4.47Y-4.73
X4.4704Y-5.0113
X4.4715Y-5.12
X4.4715Y-5.1898
X4.4715Y-5.2198
X4.4715Y-5.2474
X4.4717Y-5.0882
X4.4726Y-5.0387
X4.4843Y-6.063
X4.5866Y-5.2461
X4.61Y-4.9726
X4.61Y-5.05
X4.61Y-5.21
X4.62Y-5.32
X4.6358Y-6.3189
X4.6841Y-6.3199
X4.813Y-6.0335
X4.813Y-6.2303
X4.8228Y-5.7776
X4.84Y-5.3126
X4.87Y-5.32
X4.91Y-4.9526
X4.9114Y-5.3937
X4.92Y-4.65
X4.92Y-4.77
X4.92Y-4.81
X4.9209Y-4.8411
X4.93Y-5.13
X4.93Y-5.17
X4.93Y-5.22
X4.93Y-5.29
X4.9311Y-4.9902
X4.9921Y-5.3937
X5.0197Y-6.0335
X5.03Y-5.09
X5.031Y-5.026
X5.0338Y-4.965
X5.04Y-4.83
X5.0482Y-4.76
X5.085Y-4.4946
X5.0953Y-4.8907
X5.0953Y-5.061
X5.0976Y-4.9706
X5.0984Y-5.2461
T4
X2.3409Y-6.4829
X2.3646Y-6.29
X2.9354Y-6.29
X2.9591Y-6.4829
T5
X2.82Y-5.775
T2
G00X4.5888Y-6.4137
M15
G01X4.5888Y-6.3979
M16
G05
G00X4.7793Y-6.4137
M15
G01X4.7793Y-6.3979
M16
G05
G00X3.8787Y-6.414
M15
G01X3.8787Y-6.3982
M16
G05
G00X4.0693Y-6.414
M15
G01X4.0693Y-6.3982
M16
G05
T3
G00X4.5766Y-6.5337
M15
G01X4.5766Y-6.5141
M16
G05
G00X4.7915Y-6.5337
M15
G01X4.7915Y-6.5141
M16
G05
G00X3.8665Y-6.5341
M15
G01X3.8665Y-6.5144
M16
G05
G00X4.0815Y-6.5341
M15
G01X4.0815Y-6.5144
M16
G05
T0
M30
