%TF.GenerationSoftware,KiCad,Pcbnew,(5.1.6)-1*%
%TF.CreationDate,2020-12-19T20:46:55-03:30*%
%TF.ProjectId,graphics-card-rev-2,67726170-6869-4637-932d-636172642d72,rev?*%
%TF.SameCoordinates,Original*%
%TF.FileFunction,Legend,Bot*%
%TF.FilePolarity,Positive*%
%FSLAX46Y46*%
G04 Gerber Fmt 4.6, Leading zero omitted, Abs format (unit mm)*
G04 Created by KiCad (PCBNEW (5.1.6)-1) date 2020-12-19 20:46:55*
%MOMM*%
%LPD*%
G01*
G04 APERTURE LIST*
%ADD10C,0.120000*%
%ADD11C,0.100000*%
%ADD12O,1.450000X1.800000*%
%ADD13O,1.200000X1.600000*%
%ADD14C,2.050000*%
G04 APERTURE END LIST*
D10*
%TO.C,C5*%
X80263748Y-132290000D02*
X80786252Y-132290000D01*
X80263748Y-133710000D02*
X80786252Y-133710000D01*
%TO.C,C6*%
X80213748Y-135960000D02*
X80736252Y-135960000D01*
X80213748Y-134540000D02*
X80736252Y-134540000D01*
%TO.C,C7*%
X100290000Y-137786252D02*
X100290000Y-137263748D01*
X101710000Y-137786252D02*
X101710000Y-137263748D01*
%TO.C,C12*%
X110210000Y-137488748D02*
X110210000Y-138011252D01*
X108790000Y-137488748D02*
X108790000Y-138011252D01*
%TO.C,C28*%
X106790000Y-137513748D02*
X106790000Y-138036252D01*
X108210000Y-137513748D02*
X108210000Y-138036252D01*
%TO.C,C31*%
X105460000Y-115463748D02*
X105460000Y-115986252D01*
X104040000Y-115463748D02*
X104040000Y-115986252D01*
%TO.C,C34*%
X103210000Y-114463748D02*
X103210000Y-114986252D01*
X101790000Y-114463748D02*
X101790000Y-114986252D01*
%TO.C,C35*%
X101210000Y-114463748D02*
X101210000Y-114986252D01*
X99790000Y-114463748D02*
X99790000Y-114986252D01*
%TO.C,C36*%
X99210000Y-114463748D02*
X99210000Y-114986252D01*
X97790000Y-114463748D02*
X97790000Y-114986252D01*
%TO.C,C37*%
X93713748Y-113460000D02*
X94236252Y-113460000D01*
X93713748Y-112040000D02*
X94236252Y-112040000D01*
%TO.C,C48*%
X90035748Y-117550000D02*
X90558252Y-117550000D01*
X90035748Y-116130000D02*
X90558252Y-116130000D01*
%TO.C,C49*%
X88086000Y-114682748D02*
X88086000Y-115205252D01*
X86666000Y-114682748D02*
X86666000Y-115205252D01*
%TO.C,C50*%
X90044748Y-115518000D02*
X90567252Y-115518000D01*
X90044748Y-114098000D02*
X90567252Y-114098000D01*
%TO.C,C51*%
X86054000Y-114673748D02*
X86054000Y-115196252D01*
X84634000Y-114673748D02*
X84634000Y-115196252D01*
%TO.C,C52*%
X84210000Y-131488748D02*
X84210000Y-132011252D01*
X82790000Y-131488748D02*
X82790000Y-132011252D01*
%TO.C,C17*%
X117804000Y-126094748D02*
X117804000Y-126617252D01*
X116384000Y-126094748D02*
X116384000Y-126617252D01*
%TO.C,C20*%
X117804000Y-130445252D02*
X117804000Y-129922748D01*
X116384000Y-130445252D02*
X116384000Y-129922748D01*
%TO.C,C46*%
X70687000Y-151645252D02*
X70687000Y-151122748D01*
X69267000Y-151645252D02*
X69267000Y-151122748D01*
%TO.C,C47*%
X71299000Y-151654252D02*
X71299000Y-151131748D01*
X72719000Y-151654252D02*
X72719000Y-151131748D01*
%TO.C,C55*%
X64263748Y-159540000D02*
X64786252Y-159540000D01*
X64263748Y-160960000D02*
X64786252Y-160960000D01*
%TO.C,C66*%
X66531748Y-150928000D02*
X67054252Y-150928000D01*
X66531748Y-152348000D02*
X67054252Y-152348000D01*
%TO.C,C67*%
X89772748Y-111050000D02*
X90295252Y-111050000D01*
X89772748Y-112470000D02*
X90295252Y-112470000D01*
%TO.C,C64*%
X84022000Y-116974252D02*
X84022000Y-116451748D01*
X82602000Y-116974252D02*
X82602000Y-116451748D01*
%TO.C,R6*%
X67108000Y-147835252D02*
X67108000Y-147312748D01*
X68528000Y-147835252D02*
X68528000Y-147312748D01*
%TO.C,R8*%
X66623000Y-143366748D02*
X66623000Y-143889252D01*
X65203000Y-143366748D02*
X65203000Y-143889252D01*
%TO.C,R9*%
X67235000Y-143366748D02*
X67235000Y-143889252D01*
X68655000Y-143366748D02*
X68655000Y-143889252D01*
%TO.C,R18*%
X66540748Y-154380000D02*
X67063252Y-154380000D01*
X66540748Y-152960000D02*
X67063252Y-152960000D01*
%TO.C,C5*%
D11*
X77916666Y-133250000D02*
X77950000Y-133283333D01*
X78050000Y-133316666D01*
X78116666Y-133316666D01*
X78216666Y-133283333D01*
X78283333Y-133216666D01*
X78316666Y-133150000D01*
X78350000Y-133016666D01*
X78350000Y-132916666D01*
X78316666Y-132783333D01*
X78283333Y-132716666D01*
X78216666Y-132650000D01*
X78116666Y-132616666D01*
X78050000Y-132616666D01*
X77950000Y-132650000D01*
X77916666Y-132683333D01*
X77283333Y-132616666D02*
X77616666Y-132616666D01*
X77650000Y-132950000D01*
X77616666Y-132916666D01*
X77550000Y-132883333D01*
X77383333Y-132883333D01*
X77316666Y-132916666D01*
X77283333Y-132950000D01*
X77250000Y-133016666D01*
X77250000Y-133183333D01*
X77283333Y-133250000D01*
X77316666Y-133283333D01*
X77383333Y-133316666D01*
X77550000Y-133316666D01*
X77616666Y-133283333D01*
X77650000Y-133250000D01*
%TO.C,C6*%
X77916666Y-135450000D02*
X77950000Y-135483333D01*
X78050000Y-135516666D01*
X78116666Y-135516666D01*
X78216666Y-135483333D01*
X78283333Y-135416666D01*
X78316666Y-135350000D01*
X78350000Y-135216666D01*
X78350000Y-135116666D01*
X78316666Y-134983333D01*
X78283333Y-134916666D01*
X78216666Y-134850000D01*
X78116666Y-134816666D01*
X78050000Y-134816666D01*
X77950000Y-134850000D01*
X77916666Y-134883333D01*
X77316666Y-134816666D02*
X77450000Y-134816666D01*
X77516666Y-134850000D01*
X77550000Y-134883333D01*
X77616666Y-134983333D01*
X77650000Y-135116666D01*
X77650000Y-135383333D01*
X77616666Y-135450000D01*
X77583333Y-135483333D01*
X77516666Y-135516666D01*
X77383333Y-135516666D01*
X77316666Y-135483333D01*
X77283333Y-135450000D01*
X77250000Y-135383333D01*
X77250000Y-135216666D01*
X77283333Y-135150000D01*
X77316666Y-135116666D01*
X77383333Y-135083333D01*
X77516666Y-135083333D01*
X77583333Y-135116666D01*
X77616666Y-135150000D01*
X77650000Y-135216666D01*
%TO.C,C7*%
X101116666Y-135450000D02*
X101150000Y-135483333D01*
X101250000Y-135516666D01*
X101316666Y-135516666D01*
X101416666Y-135483333D01*
X101483333Y-135416666D01*
X101516666Y-135350000D01*
X101550000Y-135216666D01*
X101550000Y-135116666D01*
X101516666Y-134983333D01*
X101483333Y-134916666D01*
X101416666Y-134850000D01*
X101316666Y-134816666D01*
X101250000Y-134816666D01*
X101150000Y-134850000D01*
X101116666Y-134883333D01*
X100883333Y-134816666D02*
X100416666Y-134816666D01*
X100716666Y-135516666D01*
%TO.C,C12*%
X112050000Y-137850000D02*
X112083333Y-137883333D01*
X112183333Y-137916666D01*
X112250000Y-137916666D01*
X112350000Y-137883333D01*
X112416666Y-137816666D01*
X112450000Y-137750000D01*
X112483333Y-137616666D01*
X112483333Y-137516666D01*
X112450000Y-137383333D01*
X112416666Y-137316666D01*
X112350000Y-137250000D01*
X112250000Y-137216666D01*
X112183333Y-137216666D01*
X112083333Y-137250000D01*
X112050000Y-137283333D01*
X111383333Y-137916666D02*
X111783333Y-137916666D01*
X111583333Y-137916666D02*
X111583333Y-137216666D01*
X111650000Y-137316666D01*
X111716666Y-137383333D01*
X111783333Y-137416666D01*
X111116666Y-137283333D02*
X111083333Y-137250000D01*
X111016666Y-137216666D01*
X110850000Y-137216666D01*
X110783333Y-137250000D01*
X110750000Y-137283333D01*
X110716666Y-137350000D01*
X110716666Y-137416666D01*
X110750000Y-137516666D01*
X111150000Y-137916666D01*
X110716666Y-137916666D01*
%TO.C,C28*%
X105850000Y-138050000D02*
X105883333Y-138083333D01*
X105983333Y-138116666D01*
X106050000Y-138116666D01*
X106150000Y-138083333D01*
X106216666Y-138016666D01*
X106250000Y-137950000D01*
X106283333Y-137816666D01*
X106283333Y-137716666D01*
X106250000Y-137583333D01*
X106216666Y-137516666D01*
X106150000Y-137450000D01*
X106050000Y-137416666D01*
X105983333Y-137416666D01*
X105883333Y-137450000D01*
X105850000Y-137483333D01*
X105583333Y-137483333D02*
X105550000Y-137450000D01*
X105483333Y-137416666D01*
X105316666Y-137416666D01*
X105250000Y-137450000D01*
X105216666Y-137483333D01*
X105183333Y-137550000D01*
X105183333Y-137616666D01*
X105216666Y-137716666D01*
X105616666Y-138116666D01*
X105183333Y-138116666D01*
X104783333Y-137716666D02*
X104850000Y-137683333D01*
X104883333Y-137650000D01*
X104916666Y-137583333D01*
X104916666Y-137550000D01*
X104883333Y-137483333D01*
X104850000Y-137450000D01*
X104783333Y-137416666D01*
X104650000Y-137416666D01*
X104583333Y-137450000D01*
X104550000Y-137483333D01*
X104516666Y-137550000D01*
X104516666Y-137583333D01*
X104550000Y-137650000D01*
X104583333Y-137683333D01*
X104650000Y-137716666D01*
X104783333Y-137716666D01*
X104850000Y-137750000D01*
X104883333Y-137783333D01*
X104916666Y-137850000D01*
X104916666Y-137983333D01*
X104883333Y-138050000D01*
X104850000Y-138083333D01*
X104783333Y-138116666D01*
X104650000Y-138116666D01*
X104583333Y-138083333D01*
X104550000Y-138050000D01*
X104516666Y-137983333D01*
X104516666Y-137850000D01*
X104550000Y-137783333D01*
X104583333Y-137750000D01*
X104650000Y-137716666D01*
%TO.C,C31*%
X105050000Y-118150000D02*
X105083333Y-118116666D01*
X105116666Y-118016666D01*
X105116666Y-117950000D01*
X105083333Y-117850000D01*
X105016666Y-117783333D01*
X104950000Y-117750000D01*
X104816666Y-117716666D01*
X104716666Y-117716666D01*
X104583333Y-117750000D01*
X104516666Y-117783333D01*
X104450000Y-117850000D01*
X104416666Y-117950000D01*
X104416666Y-118016666D01*
X104450000Y-118116666D01*
X104483333Y-118150000D01*
X104416666Y-118383333D02*
X104416666Y-118816666D01*
X104683333Y-118583333D01*
X104683333Y-118683333D01*
X104716666Y-118750000D01*
X104750000Y-118783333D01*
X104816666Y-118816666D01*
X104983333Y-118816666D01*
X105050000Y-118783333D01*
X105083333Y-118750000D01*
X105116666Y-118683333D01*
X105116666Y-118483333D01*
X105083333Y-118416666D01*
X105050000Y-118383333D01*
X105116666Y-119483333D02*
X105116666Y-119083333D01*
X105116666Y-119283333D02*
X104416666Y-119283333D01*
X104516666Y-119216666D01*
X104583333Y-119150000D01*
X104616666Y-119083333D01*
%TO.C,C34*%
X102650000Y-117150000D02*
X102683333Y-117116666D01*
X102716666Y-117016666D01*
X102716666Y-116950000D01*
X102683333Y-116850000D01*
X102616666Y-116783333D01*
X102550000Y-116750000D01*
X102416666Y-116716666D01*
X102316666Y-116716666D01*
X102183333Y-116750000D01*
X102116666Y-116783333D01*
X102050000Y-116850000D01*
X102016666Y-116950000D01*
X102016666Y-117016666D01*
X102050000Y-117116666D01*
X102083333Y-117150000D01*
X102016666Y-117383333D02*
X102016666Y-117816666D01*
X102283333Y-117583333D01*
X102283333Y-117683333D01*
X102316666Y-117750000D01*
X102350000Y-117783333D01*
X102416666Y-117816666D01*
X102583333Y-117816666D01*
X102650000Y-117783333D01*
X102683333Y-117750000D01*
X102716666Y-117683333D01*
X102716666Y-117483333D01*
X102683333Y-117416666D01*
X102650000Y-117383333D01*
X102250000Y-118416666D02*
X102716666Y-118416666D01*
X101983333Y-118250000D02*
X102483333Y-118083333D01*
X102483333Y-118516666D01*
%TO.C,C35*%
X100850000Y-117150000D02*
X100883333Y-117116666D01*
X100916666Y-117016666D01*
X100916666Y-116950000D01*
X100883333Y-116850000D01*
X100816666Y-116783333D01*
X100750000Y-116750000D01*
X100616666Y-116716666D01*
X100516666Y-116716666D01*
X100383333Y-116750000D01*
X100316666Y-116783333D01*
X100250000Y-116850000D01*
X100216666Y-116950000D01*
X100216666Y-117016666D01*
X100250000Y-117116666D01*
X100283333Y-117150000D01*
X100216666Y-117383333D02*
X100216666Y-117816666D01*
X100483333Y-117583333D01*
X100483333Y-117683333D01*
X100516666Y-117750000D01*
X100550000Y-117783333D01*
X100616666Y-117816666D01*
X100783333Y-117816666D01*
X100850000Y-117783333D01*
X100883333Y-117750000D01*
X100916666Y-117683333D01*
X100916666Y-117483333D01*
X100883333Y-117416666D01*
X100850000Y-117383333D01*
X100216666Y-118450000D02*
X100216666Y-118116666D01*
X100550000Y-118083333D01*
X100516666Y-118116666D01*
X100483333Y-118183333D01*
X100483333Y-118350000D01*
X100516666Y-118416666D01*
X100550000Y-118450000D01*
X100616666Y-118483333D01*
X100783333Y-118483333D01*
X100850000Y-118450000D01*
X100883333Y-118416666D01*
X100916666Y-118350000D01*
X100916666Y-118183333D01*
X100883333Y-118116666D01*
X100850000Y-118083333D01*
%TO.C,C36*%
X98850000Y-117150000D02*
X98883333Y-117116666D01*
X98916666Y-117016666D01*
X98916666Y-116950000D01*
X98883333Y-116850000D01*
X98816666Y-116783333D01*
X98750000Y-116750000D01*
X98616666Y-116716666D01*
X98516666Y-116716666D01*
X98383333Y-116750000D01*
X98316666Y-116783333D01*
X98250000Y-116850000D01*
X98216666Y-116950000D01*
X98216666Y-117016666D01*
X98250000Y-117116666D01*
X98283333Y-117150000D01*
X98216666Y-117383333D02*
X98216666Y-117816666D01*
X98483333Y-117583333D01*
X98483333Y-117683333D01*
X98516666Y-117750000D01*
X98550000Y-117783333D01*
X98616666Y-117816666D01*
X98783333Y-117816666D01*
X98850000Y-117783333D01*
X98883333Y-117750000D01*
X98916666Y-117683333D01*
X98916666Y-117483333D01*
X98883333Y-117416666D01*
X98850000Y-117383333D01*
X98216666Y-118416666D02*
X98216666Y-118283333D01*
X98250000Y-118216666D01*
X98283333Y-118183333D01*
X98383333Y-118116666D01*
X98516666Y-118083333D01*
X98783333Y-118083333D01*
X98850000Y-118116666D01*
X98883333Y-118150000D01*
X98916666Y-118216666D01*
X98916666Y-118350000D01*
X98883333Y-118416666D01*
X98850000Y-118450000D01*
X98783333Y-118483333D01*
X98616666Y-118483333D01*
X98550000Y-118450000D01*
X98516666Y-118416666D01*
X98483333Y-118350000D01*
X98483333Y-118216666D01*
X98516666Y-118150000D01*
X98550000Y-118116666D01*
X98616666Y-118083333D01*
%TO.C,C37*%
X94450000Y-111450000D02*
X94483333Y-111483333D01*
X94583333Y-111516666D01*
X94650000Y-111516666D01*
X94750000Y-111483333D01*
X94816666Y-111416666D01*
X94850000Y-111350000D01*
X94883333Y-111216666D01*
X94883333Y-111116666D01*
X94850000Y-110983333D01*
X94816666Y-110916666D01*
X94750000Y-110850000D01*
X94650000Y-110816666D01*
X94583333Y-110816666D01*
X94483333Y-110850000D01*
X94450000Y-110883333D01*
X94216666Y-110816666D02*
X93783333Y-110816666D01*
X94016666Y-111083333D01*
X93916666Y-111083333D01*
X93850000Y-111116666D01*
X93816666Y-111150000D01*
X93783333Y-111216666D01*
X93783333Y-111383333D01*
X93816666Y-111450000D01*
X93850000Y-111483333D01*
X93916666Y-111516666D01*
X94116666Y-111516666D01*
X94183333Y-111483333D01*
X94216666Y-111450000D01*
X93550000Y-110816666D02*
X93083333Y-110816666D01*
X93383333Y-111516666D01*
%TO.C,C48*%
X90747000Y-118650000D02*
X90780333Y-118683333D01*
X90880333Y-118716666D01*
X90947000Y-118716666D01*
X91047000Y-118683333D01*
X91113666Y-118616666D01*
X91147000Y-118550000D01*
X91180333Y-118416666D01*
X91180333Y-118316666D01*
X91147000Y-118183333D01*
X91113666Y-118116666D01*
X91047000Y-118050000D01*
X90947000Y-118016666D01*
X90880333Y-118016666D01*
X90780333Y-118050000D01*
X90747000Y-118083333D01*
X90147000Y-118250000D02*
X90147000Y-118716666D01*
X90313666Y-117983333D02*
X90480333Y-118483333D01*
X90047000Y-118483333D01*
X89680333Y-118316666D02*
X89747000Y-118283333D01*
X89780333Y-118250000D01*
X89813666Y-118183333D01*
X89813666Y-118150000D01*
X89780333Y-118083333D01*
X89747000Y-118050000D01*
X89680333Y-118016666D01*
X89547000Y-118016666D01*
X89480333Y-118050000D01*
X89447000Y-118083333D01*
X89413666Y-118150000D01*
X89413666Y-118183333D01*
X89447000Y-118250000D01*
X89480333Y-118283333D01*
X89547000Y-118316666D01*
X89680333Y-118316666D01*
X89747000Y-118350000D01*
X89780333Y-118383333D01*
X89813666Y-118450000D01*
X89813666Y-118583333D01*
X89780333Y-118650000D01*
X89747000Y-118683333D01*
X89680333Y-118716666D01*
X89547000Y-118716666D01*
X89480333Y-118683333D01*
X89447000Y-118650000D01*
X89413666Y-118583333D01*
X89413666Y-118450000D01*
X89447000Y-118383333D01*
X89480333Y-118350000D01*
X89547000Y-118316666D01*
%TO.C,C49*%
X87650000Y-111550000D02*
X87683333Y-111516666D01*
X87716666Y-111416666D01*
X87716666Y-111350000D01*
X87683333Y-111250000D01*
X87616666Y-111183333D01*
X87550000Y-111150000D01*
X87416666Y-111116666D01*
X87316666Y-111116666D01*
X87183333Y-111150000D01*
X87116666Y-111183333D01*
X87050000Y-111250000D01*
X87016666Y-111350000D01*
X87016666Y-111416666D01*
X87050000Y-111516666D01*
X87083333Y-111550000D01*
X87250000Y-112150000D02*
X87716666Y-112150000D01*
X86983333Y-111983333D02*
X87483333Y-111816666D01*
X87483333Y-112250000D01*
X87716666Y-112550000D02*
X87716666Y-112683333D01*
X87683333Y-112750000D01*
X87650000Y-112783333D01*
X87550000Y-112850000D01*
X87416666Y-112883333D01*
X87150000Y-112883333D01*
X87083333Y-112850000D01*
X87050000Y-112816666D01*
X87016666Y-112750000D01*
X87016666Y-112616666D01*
X87050000Y-112550000D01*
X87083333Y-112516666D01*
X87150000Y-112483333D01*
X87316666Y-112483333D01*
X87383333Y-112516666D01*
X87416666Y-112550000D01*
X87450000Y-112616666D01*
X87450000Y-112750000D01*
X87416666Y-112816666D01*
X87383333Y-112850000D01*
X87316666Y-112883333D01*
%TO.C,C50*%
X90756000Y-113650000D02*
X90789333Y-113683333D01*
X90889333Y-113716666D01*
X90956000Y-113716666D01*
X91056000Y-113683333D01*
X91122666Y-113616666D01*
X91156000Y-113550000D01*
X91189333Y-113416666D01*
X91189333Y-113316666D01*
X91156000Y-113183333D01*
X91122666Y-113116666D01*
X91056000Y-113050000D01*
X90956000Y-113016666D01*
X90889333Y-113016666D01*
X90789333Y-113050000D01*
X90756000Y-113083333D01*
X90122666Y-113016666D02*
X90456000Y-113016666D01*
X90489333Y-113350000D01*
X90456000Y-113316666D01*
X90389333Y-113283333D01*
X90222666Y-113283333D01*
X90156000Y-113316666D01*
X90122666Y-113350000D01*
X90089333Y-113416666D01*
X90089333Y-113583333D01*
X90122666Y-113650000D01*
X90156000Y-113683333D01*
X90222666Y-113716666D01*
X90389333Y-113716666D01*
X90456000Y-113683333D01*
X90489333Y-113650000D01*
X89656000Y-113016666D02*
X89589333Y-113016666D01*
X89522666Y-113050000D01*
X89489333Y-113083333D01*
X89456000Y-113150000D01*
X89422666Y-113283333D01*
X89422666Y-113450000D01*
X89456000Y-113583333D01*
X89489333Y-113650000D01*
X89522666Y-113683333D01*
X89589333Y-113716666D01*
X89656000Y-113716666D01*
X89722666Y-113683333D01*
X89756000Y-113650000D01*
X89789333Y-113583333D01*
X89822666Y-113450000D01*
X89822666Y-113283333D01*
X89789333Y-113150000D01*
X89756000Y-113083333D01*
X89722666Y-113050000D01*
X89656000Y-113016666D01*
%TO.C,C51*%
X85650000Y-111550000D02*
X85683333Y-111516666D01*
X85716666Y-111416666D01*
X85716666Y-111350000D01*
X85683333Y-111250000D01*
X85616666Y-111183333D01*
X85550000Y-111150000D01*
X85416666Y-111116666D01*
X85316666Y-111116666D01*
X85183333Y-111150000D01*
X85116666Y-111183333D01*
X85050000Y-111250000D01*
X85016666Y-111350000D01*
X85016666Y-111416666D01*
X85050000Y-111516666D01*
X85083333Y-111550000D01*
X85016666Y-112183333D02*
X85016666Y-111850000D01*
X85350000Y-111816666D01*
X85316666Y-111850000D01*
X85283333Y-111916666D01*
X85283333Y-112083333D01*
X85316666Y-112150000D01*
X85350000Y-112183333D01*
X85416666Y-112216666D01*
X85583333Y-112216666D01*
X85650000Y-112183333D01*
X85683333Y-112150000D01*
X85716666Y-112083333D01*
X85716666Y-111916666D01*
X85683333Y-111850000D01*
X85650000Y-111816666D01*
X85716666Y-112883333D02*
X85716666Y-112483333D01*
X85716666Y-112683333D02*
X85016666Y-112683333D01*
X85116666Y-112616666D01*
X85183333Y-112550000D01*
X85216666Y-112483333D01*
%TO.C,C52*%
X83850000Y-129650000D02*
X83883333Y-129683333D01*
X83983333Y-129716666D01*
X84050000Y-129716666D01*
X84150000Y-129683333D01*
X84216666Y-129616666D01*
X84250000Y-129550000D01*
X84283333Y-129416666D01*
X84283333Y-129316666D01*
X84250000Y-129183333D01*
X84216666Y-129116666D01*
X84150000Y-129050000D01*
X84050000Y-129016666D01*
X83983333Y-129016666D01*
X83883333Y-129050000D01*
X83850000Y-129083333D01*
X83216666Y-129016666D02*
X83550000Y-129016666D01*
X83583333Y-129350000D01*
X83550000Y-129316666D01*
X83483333Y-129283333D01*
X83316666Y-129283333D01*
X83250000Y-129316666D01*
X83216666Y-129350000D01*
X83183333Y-129416666D01*
X83183333Y-129583333D01*
X83216666Y-129650000D01*
X83250000Y-129683333D01*
X83316666Y-129716666D01*
X83483333Y-129716666D01*
X83550000Y-129683333D01*
X83583333Y-129650000D01*
X82916666Y-129083333D02*
X82883333Y-129050000D01*
X82816666Y-129016666D01*
X82650000Y-129016666D01*
X82583333Y-129050000D01*
X82550000Y-129083333D01*
X82516666Y-129150000D01*
X82516666Y-129216666D01*
X82550000Y-129316666D01*
X82950000Y-129716666D01*
X82516666Y-129716666D01*
%TO.C,C17*%
X115450000Y-126650000D02*
X115483333Y-126683333D01*
X115583333Y-126716666D01*
X115650000Y-126716666D01*
X115750000Y-126683333D01*
X115816666Y-126616666D01*
X115850000Y-126550000D01*
X115883333Y-126416666D01*
X115883333Y-126316666D01*
X115850000Y-126183333D01*
X115816666Y-126116666D01*
X115750000Y-126050000D01*
X115650000Y-126016666D01*
X115583333Y-126016666D01*
X115483333Y-126050000D01*
X115450000Y-126083333D01*
X114783333Y-126716666D02*
X115183333Y-126716666D01*
X114983333Y-126716666D02*
X114983333Y-126016666D01*
X115050000Y-126116666D01*
X115116666Y-126183333D01*
X115183333Y-126216666D01*
X114550000Y-126016666D02*
X114083333Y-126016666D01*
X114383333Y-126716666D01*
%TO.C,C20*%
X115450000Y-130450000D02*
X115483333Y-130483333D01*
X115583333Y-130516666D01*
X115650000Y-130516666D01*
X115750000Y-130483333D01*
X115816666Y-130416666D01*
X115850000Y-130350000D01*
X115883333Y-130216666D01*
X115883333Y-130116666D01*
X115850000Y-129983333D01*
X115816666Y-129916666D01*
X115750000Y-129850000D01*
X115650000Y-129816666D01*
X115583333Y-129816666D01*
X115483333Y-129850000D01*
X115450000Y-129883333D01*
X115183333Y-129883333D02*
X115150000Y-129850000D01*
X115083333Y-129816666D01*
X114916666Y-129816666D01*
X114850000Y-129850000D01*
X114816666Y-129883333D01*
X114783333Y-129950000D01*
X114783333Y-130016666D01*
X114816666Y-130116666D01*
X115216666Y-130516666D01*
X114783333Y-130516666D01*
X114350000Y-129816666D02*
X114283333Y-129816666D01*
X114216666Y-129850000D01*
X114183333Y-129883333D01*
X114150000Y-129950000D01*
X114116666Y-130083333D01*
X114116666Y-130250000D01*
X114150000Y-130383333D01*
X114183333Y-130450000D01*
X114216666Y-130483333D01*
X114283333Y-130516666D01*
X114350000Y-130516666D01*
X114416666Y-130483333D01*
X114450000Y-130450000D01*
X114483333Y-130383333D01*
X114516666Y-130250000D01*
X114516666Y-130083333D01*
X114483333Y-129950000D01*
X114450000Y-129883333D01*
X114416666Y-129850000D01*
X114350000Y-129816666D01*
%TO.C,C46*%
X70250000Y-154050000D02*
X70283333Y-154083333D01*
X70383333Y-154116666D01*
X70450000Y-154116666D01*
X70550000Y-154083333D01*
X70616666Y-154016666D01*
X70650000Y-153950000D01*
X70683333Y-153816666D01*
X70683333Y-153716666D01*
X70650000Y-153583333D01*
X70616666Y-153516666D01*
X70550000Y-153450000D01*
X70450000Y-153416666D01*
X70383333Y-153416666D01*
X70283333Y-153450000D01*
X70250000Y-153483333D01*
X69650000Y-153650000D02*
X69650000Y-154116666D01*
X69816666Y-153383333D02*
X69983333Y-153883333D01*
X69550000Y-153883333D01*
X68983333Y-153416666D02*
X69116666Y-153416666D01*
X69183333Y-153450000D01*
X69216666Y-153483333D01*
X69283333Y-153583333D01*
X69316666Y-153716666D01*
X69316666Y-153983333D01*
X69283333Y-154050000D01*
X69250000Y-154083333D01*
X69183333Y-154116666D01*
X69050000Y-154116666D01*
X68983333Y-154083333D01*
X68950000Y-154050000D01*
X68916666Y-153983333D01*
X68916666Y-153816666D01*
X68950000Y-153750000D01*
X68983333Y-153716666D01*
X69050000Y-153683333D01*
X69183333Y-153683333D01*
X69250000Y-153716666D01*
X69283333Y-153750000D01*
X69316666Y-153816666D01*
%TO.C,C47*%
X72650000Y-154050000D02*
X72683333Y-154083333D01*
X72783333Y-154116666D01*
X72850000Y-154116666D01*
X72950000Y-154083333D01*
X73016666Y-154016666D01*
X73050000Y-153950000D01*
X73083333Y-153816666D01*
X73083333Y-153716666D01*
X73050000Y-153583333D01*
X73016666Y-153516666D01*
X72950000Y-153450000D01*
X72850000Y-153416666D01*
X72783333Y-153416666D01*
X72683333Y-153450000D01*
X72650000Y-153483333D01*
X72050000Y-153650000D02*
X72050000Y-154116666D01*
X72216666Y-153383333D02*
X72383333Y-153883333D01*
X71950000Y-153883333D01*
X71750000Y-153416666D02*
X71283333Y-153416666D01*
X71583333Y-154116666D01*
%TO.C,C55*%
X64850000Y-162050000D02*
X64883333Y-162083333D01*
X64983333Y-162116666D01*
X65050000Y-162116666D01*
X65150000Y-162083333D01*
X65216666Y-162016666D01*
X65250000Y-161950000D01*
X65283333Y-161816666D01*
X65283333Y-161716666D01*
X65250000Y-161583333D01*
X65216666Y-161516666D01*
X65150000Y-161450000D01*
X65050000Y-161416666D01*
X64983333Y-161416666D01*
X64883333Y-161450000D01*
X64850000Y-161483333D01*
X64216666Y-161416666D02*
X64550000Y-161416666D01*
X64583333Y-161750000D01*
X64550000Y-161716666D01*
X64483333Y-161683333D01*
X64316666Y-161683333D01*
X64250000Y-161716666D01*
X64216666Y-161750000D01*
X64183333Y-161816666D01*
X64183333Y-161983333D01*
X64216666Y-162050000D01*
X64250000Y-162083333D01*
X64316666Y-162116666D01*
X64483333Y-162116666D01*
X64550000Y-162083333D01*
X64583333Y-162050000D01*
X63550000Y-161416666D02*
X63883333Y-161416666D01*
X63916666Y-161750000D01*
X63883333Y-161716666D01*
X63816666Y-161683333D01*
X63650000Y-161683333D01*
X63583333Y-161716666D01*
X63550000Y-161750000D01*
X63516666Y-161816666D01*
X63516666Y-161983333D01*
X63550000Y-162050000D01*
X63583333Y-162083333D01*
X63650000Y-162116666D01*
X63816666Y-162116666D01*
X63883333Y-162083333D01*
X63916666Y-162050000D01*
%TO.C,C66*%
X64250000Y-152050000D02*
X64283333Y-152083333D01*
X64383333Y-152116666D01*
X64450000Y-152116666D01*
X64550000Y-152083333D01*
X64616666Y-152016666D01*
X64650000Y-151950000D01*
X64683333Y-151816666D01*
X64683333Y-151716666D01*
X64650000Y-151583333D01*
X64616666Y-151516666D01*
X64550000Y-151450000D01*
X64450000Y-151416666D01*
X64383333Y-151416666D01*
X64283333Y-151450000D01*
X64250000Y-151483333D01*
X63650000Y-151416666D02*
X63783333Y-151416666D01*
X63850000Y-151450000D01*
X63883333Y-151483333D01*
X63950000Y-151583333D01*
X63983333Y-151716666D01*
X63983333Y-151983333D01*
X63950000Y-152050000D01*
X63916666Y-152083333D01*
X63850000Y-152116666D01*
X63716666Y-152116666D01*
X63650000Y-152083333D01*
X63616666Y-152050000D01*
X63583333Y-151983333D01*
X63583333Y-151816666D01*
X63616666Y-151750000D01*
X63650000Y-151716666D01*
X63716666Y-151683333D01*
X63850000Y-151683333D01*
X63916666Y-151716666D01*
X63950000Y-151750000D01*
X63983333Y-151816666D01*
X62983333Y-151416666D02*
X63116666Y-151416666D01*
X63183333Y-151450000D01*
X63216666Y-151483333D01*
X63283333Y-151583333D01*
X63316666Y-151716666D01*
X63316666Y-151983333D01*
X63283333Y-152050000D01*
X63250000Y-152083333D01*
X63183333Y-152116666D01*
X63050000Y-152116666D01*
X62983333Y-152083333D01*
X62950000Y-152050000D01*
X62916666Y-151983333D01*
X62916666Y-151816666D01*
X62950000Y-151750000D01*
X62983333Y-151716666D01*
X63050000Y-151683333D01*
X63183333Y-151683333D01*
X63250000Y-151716666D01*
X63283333Y-151750000D01*
X63316666Y-151816666D01*
%TO.C,C67*%
X90484000Y-110450000D02*
X90517333Y-110483333D01*
X90617333Y-110516666D01*
X90684000Y-110516666D01*
X90784000Y-110483333D01*
X90850666Y-110416666D01*
X90884000Y-110350000D01*
X90917333Y-110216666D01*
X90917333Y-110116666D01*
X90884000Y-109983333D01*
X90850666Y-109916666D01*
X90784000Y-109850000D01*
X90684000Y-109816666D01*
X90617333Y-109816666D01*
X90517333Y-109850000D01*
X90484000Y-109883333D01*
X89884000Y-109816666D02*
X90017333Y-109816666D01*
X90084000Y-109850000D01*
X90117333Y-109883333D01*
X90184000Y-109983333D01*
X90217333Y-110116666D01*
X90217333Y-110383333D01*
X90184000Y-110450000D01*
X90150666Y-110483333D01*
X90084000Y-110516666D01*
X89950666Y-110516666D01*
X89884000Y-110483333D01*
X89850666Y-110450000D01*
X89817333Y-110383333D01*
X89817333Y-110216666D01*
X89850666Y-110150000D01*
X89884000Y-110116666D01*
X89950666Y-110083333D01*
X90084000Y-110083333D01*
X90150666Y-110116666D01*
X90184000Y-110150000D01*
X90217333Y-110216666D01*
X89584000Y-109816666D02*
X89117333Y-109816666D01*
X89417333Y-110516666D01*
%TO.C,C64*%
X81850000Y-117050000D02*
X81883333Y-117083333D01*
X81983333Y-117116666D01*
X82050000Y-117116666D01*
X82150000Y-117083333D01*
X82216666Y-117016666D01*
X82250000Y-116950000D01*
X82283333Y-116816666D01*
X82283333Y-116716666D01*
X82250000Y-116583333D01*
X82216666Y-116516666D01*
X82150000Y-116450000D01*
X82050000Y-116416666D01*
X81983333Y-116416666D01*
X81883333Y-116450000D01*
X81850000Y-116483333D01*
X81250000Y-116416666D02*
X81383333Y-116416666D01*
X81450000Y-116450000D01*
X81483333Y-116483333D01*
X81550000Y-116583333D01*
X81583333Y-116716666D01*
X81583333Y-116983333D01*
X81550000Y-117050000D01*
X81516666Y-117083333D01*
X81450000Y-117116666D01*
X81316666Y-117116666D01*
X81250000Y-117083333D01*
X81216666Y-117050000D01*
X81183333Y-116983333D01*
X81183333Y-116816666D01*
X81216666Y-116750000D01*
X81250000Y-116716666D01*
X81316666Y-116683333D01*
X81450000Y-116683333D01*
X81516666Y-116716666D01*
X81550000Y-116750000D01*
X81583333Y-116816666D01*
X80583333Y-116650000D02*
X80583333Y-117116666D01*
X80750000Y-116383333D02*
X80916666Y-116883333D01*
X80483333Y-116883333D01*
%TO.C,R6*%
X66316666Y-147916666D02*
X66550000Y-147583333D01*
X66716666Y-147916666D02*
X66716666Y-147216666D01*
X66450000Y-147216666D01*
X66383333Y-147250000D01*
X66350000Y-147283333D01*
X66316666Y-147350000D01*
X66316666Y-147450000D01*
X66350000Y-147516666D01*
X66383333Y-147550000D01*
X66450000Y-147583333D01*
X66716666Y-147583333D01*
X65716666Y-147216666D02*
X65850000Y-147216666D01*
X65916666Y-147250000D01*
X65950000Y-147283333D01*
X66016666Y-147383333D01*
X66050000Y-147516666D01*
X66050000Y-147783333D01*
X66016666Y-147850000D01*
X65983333Y-147883333D01*
X65916666Y-147916666D01*
X65783333Y-147916666D01*
X65716666Y-147883333D01*
X65683333Y-147850000D01*
X65650000Y-147783333D01*
X65650000Y-147616666D01*
X65683333Y-147550000D01*
X65716666Y-147516666D01*
X65783333Y-147483333D01*
X65916666Y-147483333D01*
X65983333Y-147516666D01*
X66016666Y-147550000D01*
X66050000Y-147616666D01*
%TO.C,R8*%
X66116666Y-141716666D02*
X66350000Y-141383333D01*
X66516666Y-141716666D02*
X66516666Y-141016666D01*
X66250000Y-141016666D01*
X66183333Y-141050000D01*
X66150000Y-141083333D01*
X66116666Y-141150000D01*
X66116666Y-141250000D01*
X66150000Y-141316666D01*
X66183333Y-141350000D01*
X66250000Y-141383333D01*
X66516666Y-141383333D01*
X65716666Y-141316666D02*
X65783333Y-141283333D01*
X65816666Y-141250000D01*
X65850000Y-141183333D01*
X65850000Y-141150000D01*
X65816666Y-141083333D01*
X65783333Y-141050000D01*
X65716666Y-141016666D01*
X65583333Y-141016666D01*
X65516666Y-141050000D01*
X65483333Y-141083333D01*
X65450000Y-141150000D01*
X65450000Y-141183333D01*
X65483333Y-141250000D01*
X65516666Y-141283333D01*
X65583333Y-141316666D01*
X65716666Y-141316666D01*
X65783333Y-141350000D01*
X65816666Y-141383333D01*
X65850000Y-141450000D01*
X65850000Y-141583333D01*
X65816666Y-141650000D01*
X65783333Y-141683333D01*
X65716666Y-141716666D01*
X65583333Y-141716666D01*
X65516666Y-141683333D01*
X65483333Y-141650000D01*
X65450000Y-141583333D01*
X65450000Y-141450000D01*
X65483333Y-141383333D01*
X65516666Y-141350000D01*
X65583333Y-141316666D01*
%TO.C,R9*%
X67916666Y-141716666D02*
X68150000Y-141383333D01*
X68316666Y-141716666D02*
X68316666Y-141016666D01*
X68050000Y-141016666D01*
X67983333Y-141050000D01*
X67950000Y-141083333D01*
X67916666Y-141150000D01*
X67916666Y-141250000D01*
X67950000Y-141316666D01*
X67983333Y-141350000D01*
X68050000Y-141383333D01*
X68316666Y-141383333D01*
X67583333Y-141716666D02*
X67450000Y-141716666D01*
X67383333Y-141683333D01*
X67350000Y-141650000D01*
X67283333Y-141550000D01*
X67250000Y-141416666D01*
X67250000Y-141150000D01*
X67283333Y-141083333D01*
X67316666Y-141050000D01*
X67383333Y-141016666D01*
X67516666Y-141016666D01*
X67583333Y-141050000D01*
X67616666Y-141083333D01*
X67650000Y-141150000D01*
X67650000Y-141316666D01*
X67616666Y-141383333D01*
X67583333Y-141416666D01*
X67516666Y-141450000D01*
X67383333Y-141450000D01*
X67316666Y-141416666D01*
X67283333Y-141383333D01*
X67250000Y-141316666D01*
%TO.C,R18*%
X64250000Y-154116666D02*
X64483333Y-153783333D01*
X64650000Y-154116666D02*
X64650000Y-153416666D01*
X64383333Y-153416666D01*
X64316666Y-153450000D01*
X64283333Y-153483333D01*
X64250000Y-153550000D01*
X64250000Y-153650000D01*
X64283333Y-153716666D01*
X64316666Y-153750000D01*
X64383333Y-153783333D01*
X64650000Y-153783333D01*
X63583333Y-154116666D02*
X63983333Y-154116666D01*
X63783333Y-154116666D02*
X63783333Y-153416666D01*
X63850000Y-153516666D01*
X63916666Y-153583333D01*
X63983333Y-153616666D01*
X63183333Y-153716666D02*
X63250000Y-153683333D01*
X63283333Y-153650000D01*
X63316666Y-153583333D01*
X63316666Y-153550000D01*
X63283333Y-153483333D01*
X63250000Y-153450000D01*
X63183333Y-153416666D01*
X63050000Y-153416666D01*
X62983333Y-153450000D01*
X62950000Y-153483333D01*
X62916666Y-153550000D01*
X62916666Y-153583333D01*
X62950000Y-153650000D01*
X62983333Y-153683333D01*
X63050000Y-153716666D01*
X63183333Y-153716666D01*
X63250000Y-153750000D01*
X63283333Y-153783333D01*
X63316666Y-153850000D01*
X63316666Y-153983333D01*
X63283333Y-154050000D01*
X63250000Y-154083333D01*
X63183333Y-154116666D01*
X63050000Y-154116666D01*
X62983333Y-154083333D01*
X62950000Y-154050000D01*
X62916666Y-153983333D01*
X62916666Y-153850000D01*
X62950000Y-153783333D01*
X62983333Y-153750000D01*
X63050000Y-153716666D01*
%TD*%
%LPC*%
%TO.C,C5*%
G36*
G01*
X78875000Y-133478262D02*
X78875000Y-132521738D01*
G75*
G02*
X79146738Y-132250000I271738J0D01*
G01*
X79853262Y-132250000D01*
G75*
G02*
X80125000Y-132521738I0J-271738D01*
G01*
X80125000Y-133478262D01*
G75*
G02*
X79853262Y-133750000I-271738J0D01*
G01*
X79146738Y-133750000D01*
G75*
G02*
X78875000Y-133478262I0J271738D01*
G01*
G37*
G36*
G01*
X80925000Y-133478262D02*
X80925000Y-132521738D01*
G75*
G02*
X81196738Y-132250000I271738J0D01*
G01*
X81903262Y-132250000D01*
G75*
G02*
X82175000Y-132521738I0J-271738D01*
G01*
X82175000Y-133478262D01*
G75*
G02*
X81903262Y-133750000I-271738J0D01*
G01*
X81196738Y-133750000D01*
G75*
G02*
X80925000Y-133478262I0J271738D01*
G01*
G37*
%TD*%
%TO.C,C6*%
G36*
G01*
X80875000Y-135728262D02*
X80875000Y-134771738D01*
G75*
G02*
X81146738Y-134500000I271738J0D01*
G01*
X81853262Y-134500000D01*
G75*
G02*
X82125000Y-134771738I0J-271738D01*
G01*
X82125000Y-135728262D01*
G75*
G02*
X81853262Y-136000000I-271738J0D01*
G01*
X81146738Y-136000000D01*
G75*
G02*
X80875000Y-135728262I0J271738D01*
G01*
G37*
G36*
G01*
X78825000Y-135728262D02*
X78825000Y-134771738D01*
G75*
G02*
X79096738Y-134500000I271738J0D01*
G01*
X79803262Y-134500000D01*
G75*
G02*
X80075000Y-134771738I0J-271738D01*
G01*
X80075000Y-135728262D01*
G75*
G02*
X79803262Y-136000000I-271738J0D01*
G01*
X79096738Y-136000000D01*
G75*
G02*
X78825000Y-135728262I0J271738D01*
G01*
G37*
%TD*%
%TO.C,C7*%
G36*
G01*
X101478262Y-139175000D02*
X100521738Y-139175000D01*
G75*
G02*
X100250000Y-138903262I0J271738D01*
G01*
X100250000Y-138196738D01*
G75*
G02*
X100521738Y-137925000I271738J0D01*
G01*
X101478262Y-137925000D01*
G75*
G02*
X101750000Y-138196738I0J-271738D01*
G01*
X101750000Y-138903262D01*
G75*
G02*
X101478262Y-139175000I-271738J0D01*
G01*
G37*
G36*
G01*
X101478262Y-137125000D02*
X100521738Y-137125000D01*
G75*
G02*
X100250000Y-136853262I0J271738D01*
G01*
X100250000Y-136146738D01*
G75*
G02*
X100521738Y-135875000I271738J0D01*
G01*
X101478262Y-135875000D01*
G75*
G02*
X101750000Y-136146738I0J-271738D01*
G01*
X101750000Y-136853262D01*
G75*
G02*
X101478262Y-137125000I-271738J0D01*
G01*
G37*
%TD*%
%TO.C,C12*%
G36*
G01*
X109021738Y-136100000D02*
X109978262Y-136100000D01*
G75*
G02*
X110250000Y-136371738I0J-271738D01*
G01*
X110250000Y-137078262D01*
G75*
G02*
X109978262Y-137350000I-271738J0D01*
G01*
X109021738Y-137350000D01*
G75*
G02*
X108750000Y-137078262I0J271738D01*
G01*
X108750000Y-136371738D01*
G75*
G02*
X109021738Y-136100000I271738J0D01*
G01*
G37*
G36*
G01*
X109021738Y-138150000D02*
X109978262Y-138150000D01*
G75*
G02*
X110250000Y-138421738I0J-271738D01*
G01*
X110250000Y-139128262D01*
G75*
G02*
X109978262Y-139400000I-271738J0D01*
G01*
X109021738Y-139400000D01*
G75*
G02*
X108750000Y-139128262I0J271738D01*
G01*
X108750000Y-138421738D01*
G75*
G02*
X109021738Y-138150000I271738J0D01*
G01*
G37*
%TD*%
%TO.C,C28*%
G36*
G01*
X107021738Y-138175000D02*
X107978262Y-138175000D01*
G75*
G02*
X108250000Y-138446738I0J-271738D01*
G01*
X108250000Y-139153262D01*
G75*
G02*
X107978262Y-139425000I-271738J0D01*
G01*
X107021738Y-139425000D01*
G75*
G02*
X106750000Y-139153262I0J271738D01*
G01*
X106750000Y-138446738D01*
G75*
G02*
X107021738Y-138175000I271738J0D01*
G01*
G37*
G36*
G01*
X107021738Y-136125000D02*
X107978262Y-136125000D01*
G75*
G02*
X108250000Y-136396738I0J-271738D01*
G01*
X108250000Y-137103262D01*
G75*
G02*
X107978262Y-137375000I-271738J0D01*
G01*
X107021738Y-137375000D01*
G75*
G02*
X106750000Y-137103262I0J271738D01*
G01*
X106750000Y-136396738D01*
G75*
G02*
X107021738Y-136125000I271738J0D01*
G01*
G37*
%TD*%
%TO.C,C31*%
G36*
G01*
X104271738Y-114075000D02*
X105228262Y-114075000D01*
G75*
G02*
X105500000Y-114346738I0J-271738D01*
G01*
X105500000Y-115053262D01*
G75*
G02*
X105228262Y-115325000I-271738J0D01*
G01*
X104271738Y-115325000D01*
G75*
G02*
X104000000Y-115053262I0J271738D01*
G01*
X104000000Y-114346738D01*
G75*
G02*
X104271738Y-114075000I271738J0D01*
G01*
G37*
G36*
G01*
X104271738Y-116125000D02*
X105228262Y-116125000D01*
G75*
G02*
X105500000Y-116396738I0J-271738D01*
G01*
X105500000Y-117103262D01*
G75*
G02*
X105228262Y-117375000I-271738J0D01*
G01*
X104271738Y-117375000D01*
G75*
G02*
X104000000Y-117103262I0J271738D01*
G01*
X104000000Y-116396738D01*
G75*
G02*
X104271738Y-116125000I271738J0D01*
G01*
G37*
%TD*%
%TO.C,C34*%
G36*
G01*
X102021738Y-113075000D02*
X102978262Y-113075000D01*
G75*
G02*
X103250000Y-113346738I0J-271738D01*
G01*
X103250000Y-114053262D01*
G75*
G02*
X102978262Y-114325000I-271738J0D01*
G01*
X102021738Y-114325000D01*
G75*
G02*
X101750000Y-114053262I0J271738D01*
G01*
X101750000Y-113346738D01*
G75*
G02*
X102021738Y-113075000I271738J0D01*
G01*
G37*
G36*
G01*
X102021738Y-115125000D02*
X102978262Y-115125000D01*
G75*
G02*
X103250000Y-115396738I0J-271738D01*
G01*
X103250000Y-116103262D01*
G75*
G02*
X102978262Y-116375000I-271738J0D01*
G01*
X102021738Y-116375000D01*
G75*
G02*
X101750000Y-116103262I0J271738D01*
G01*
X101750000Y-115396738D01*
G75*
G02*
X102021738Y-115125000I271738J0D01*
G01*
G37*
%TD*%
%TO.C,C35*%
G36*
G01*
X100021738Y-113075000D02*
X100978262Y-113075000D01*
G75*
G02*
X101250000Y-113346738I0J-271738D01*
G01*
X101250000Y-114053262D01*
G75*
G02*
X100978262Y-114325000I-271738J0D01*
G01*
X100021738Y-114325000D01*
G75*
G02*
X99750000Y-114053262I0J271738D01*
G01*
X99750000Y-113346738D01*
G75*
G02*
X100021738Y-113075000I271738J0D01*
G01*
G37*
G36*
G01*
X100021738Y-115125000D02*
X100978262Y-115125000D01*
G75*
G02*
X101250000Y-115396738I0J-271738D01*
G01*
X101250000Y-116103262D01*
G75*
G02*
X100978262Y-116375000I-271738J0D01*
G01*
X100021738Y-116375000D01*
G75*
G02*
X99750000Y-116103262I0J271738D01*
G01*
X99750000Y-115396738D01*
G75*
G02*
X100021738Y-115125000I271738J0D01*
G01*
G37*
%TD*%
%TO.C,C36*%
G36*
G01*
X98021738Y-113075000D02*
X98978262Y-113075000D01*
G75*
G02*
X99250000Y-113346738I0J-271738D01*
G01*
X99250000Y-114053262D01*
G75*
G02*
X98978262Y-114325000I-271738J0D01*
G01*
X98021738Y-114325000D01*
G75*
G02*
X97750000Y-114053262I0J271738D01*
G01*
X97750000Y-113346738D01*
G75*
G02*
X98021738Y-113075000I271738J0D01*
G01*
G37*
G36*
G01*
X98021738Y-115125000D02*
X98978262Y-115125000D01*
G75*
G02*
X99250000Y-115396738I0J-271738D01*
G01*
X99250000Y-116103262D01*
G75*
G02*
X98978262Y-116375000I-271738J0D01*
G01*
X98021738Y-116375000D01*
G75*
G02*
X97750000Y-116103262I0J271738D01*
G01*
X97750000Y-115396738D01*
G75*
G02*
X98021738Y-115125000I271738J0D01*
G01*
G37*
%TD*%
%TO.C,C37*%
G36*
G01*
X94375000Y-113228262D02*
X94375000Y-112271738D01*
G75*
G02*
X94646738Y-112000000I271738J0D01*
G01*
X95353262Y-112000000D01*
G75*
G02*
X95625000Y-112271738I0J-271738D01*
G01*
X95625000Y-113228262D01*
G75*
G02*
X95353262Y-113500000I-271738J0D01*
G01*
X94646738Y-113500000D01*
G75*
G02*
X94375000Y-113228262I0J271738D01*
G01*
G37*
G36*
G01*
X92325000Y-113228262D02*
X92325000Y-112271738D01*
G75*
G02*
X92596738Y-112000000I271738J0D01*
G01*
X93303262Y-112000000D01*
G75*
G02*
X93575000Y-112271738I0J-271738D01*
G01*
X93575000Y-113228262D01*
G75*
G02*
X93303262Y-113500000I-271738J0D01*
G01*
X92596738Y-113500000D01*
G75*
G02*
X92325000Y-113228262I0J271738D01*
G01*
G37*
%TD*%
%TO.C,C48*%
G36*
G01*
X90697000Y-117318262D02*
X90697000Y-116361738D01*
G75*
G02*
X90968738Y-116090000I271738J0D01*
G01*
X91675262Y-116090000D01*
G75*
G02*
X91947000Y-116361738I0J-271738D01*
G01*
X91947000Y-117318262D01*
G75*
G02*
X91675262Y-117590000I-271738J0D01*
G01*
X90968738Y-117590000D01*
G75*
G02*
X90697000Y-117318262I0J271738D01*
G01*
G37*
G36*
G01*
X88647000Y-117318262D02*
X88647000Y-116361738D01*
G75*
G02*
X88918738Y-116090000I271738J0D01*
G01*
X89625262Y-116090000D01*
G75*
G02*
X89897000Y-116361738I0J-271738D01*
G01*
X89897000Y-117318262D01*
G75*
G02*
X89625262Y-117590000I-271738J0D01*
G01*
X88918738Y-117590000D01*
G75*
G02*
X88647000Y-117318262I0J271738D01*
G01*
G37*
%TD*%
%TO.C,C49*%
G36*
G01*
X86897738Y-113294000D02*
X87854262Y-113294000D01*
G75*
G02*
X88126000Y-113565738I0J-271738D01*
G01*
X88126000Y-114272262D01*
G75*
G02*
X87854262Y-114544000I-271738J0D01*
G01*
X86897738Y-114544000D01*
G75*
G02*
X86626000Y-114272262I0J271738D01*
G01*
X86626000Y-113565738D01*
G75*
G02*
X86897738Y-113294000I271738J0D01*
G01*
G37*
G36*
G01*
X86897738Y-115344000D02*
X87854262Y-115344000D01*
G75*
G02*
X88126000Y-115615738I0J-271738D01*
G01*
X88126000Y-116322262D01*
G75*
G02*
X87854262Y-116594000I-271738J0D01*
G01*
X86897738Y-116594000D01*
G75*
G02*
X86626000Y-116322262I0J271738D01*
G01*
X86626000Y-115615738D01*
G75*
G02*
X86897738Y-115344000I271738J0D01*
G01*
G37*
%TD*%
%TO.C,C50*%
G36*
G01*
X90706000Y-115286262D02*
X90706000Y-114329738D01*
G75*
G02*
X90977738Y-114058000I271738J0D01*
G01*
X91684262Y-114058000D01*
G75*
G02*
X91956000Y-114329738I0J-271738D01*
G01*
X91956000Y-115286262D01*
G75*
G02*
X91684262Y-115558000I-271738J0D01*
G01*
X90977738Y-115558000D01*
G75*
G02*
X90706000Y-115286262I0J271738D01*
G01*
G37*
G36*
G01*
X88656000Y-115286262D02*
X88656000Y-114329738D01*
G75*
G02*
X88927738Y-114058000I271738J0D01*
G01*
X89634262Y-114058000D01*
G75*
G02*
X89906000Y-114329738I0J-271738D01*
G01*
X89906000Y-115286262D01*
G75*
G02*
X89634262Y-115558000I-271738J0D01*
G01*
X88927738Y-115558000D01*
G75*
G02*
X88656000Y-115286262I0J271738D01*
G01*
G37*
%TD*%
%TO.C,C51*%
G36*
G01*
X84865738Y-113285000D02*
X85822262Y-113285000D01*
G75*
G02*
X86094000Y-113556738I0J-271738D01*
G01*
X86094000Y-114263262D01*
G75*
G02*
X85822262Y-114535000I-271738J0D01*
G01*
X84865738Y-114535000D01*
G75*
G02*
X84594000Y-114263262I0J271738D01*
G01*
X84594000Y-113556738D01*
G75*
G02*
X84865738Y-113285000I271738J0D01*
G01*
G37*
G36*
G01*
X84865738Y-115335000D02*
X85822262Y-115335000D01*
G75*
G02*
X86094000Y-115606738I0J-271738D01*
G01*
X86094000Y-116313262D01*
G75*
G02*
X85822262Y-116585000I-271738J0D01*
G01*
X84865738Y-116585000D01*
G75*
G02*
X84594000Y-116313262I0J271738D01*
G01*
X84594000Y-115606738D01*
G75*
G02*
X84865738Y-115335000I271738J0D01*
G01*
G37*
%TD*%
%TO.C,C52*%
G36*
G01*
X83021738Y-130100000D02*
X83978262Y-130100000D01*
G75*
G02*
X84250000Y-130371738I0J-271738D01*
G01*
X84250000Y-131078262D01*
G75*
G02*
X83978262Y-131350000I-271738J0D01*
G01*
X83021738Y-131350000D01*
G75*
G02*
X82750000Y-131078262I0J271738D01*
G01*
X82750000Y-130371738D01*
G75*
G02*
X83021738Y-130100000I271738J0D01*
G01*
G37*
G36*
G01*
X83021738Y-132150000D02*
X83978262Y-132150000D01*
G75*
G02*
X84250000Y-132421738I0J-271738D01*
G01*
X84250000Y-133128262D01*
G75*
G02*
X83978262Y-133400000I-271738J0D01*
G01*
X83021738Y-133400000D01*
G75*
G02*
X82750000Y-133128262I0J271738D01*
G01*
X82750000Y-132421738D01*
G75*
G02*
X83021738Y-132150000I271738J0D01*
G01*
G37*
%TD*%
%TO.C,C17*%
G36*
G01*
X116615738Y-124706000D02*
X117572262Y-124706000D01*
G75*
G02*
X117844000Y-124977738I0J-271738D01*
G01*
X117844000Y-125684262D01*
G75*
G02*
X117572262Y-125956000I-271738J0D01*
G01*
X116615738Y-125956000D01*
G75*
G02*
X116344000Y-125684262I0J271738D01*
G01*
X116344000Y-124977738D01*
G75*
G02*
X116615738Y-124706000I271738J0D01*
G01*
G37*
G36*
G01*
X116615738Y-126756000D02*
X117572262Y-126756000D01*
G75*
G02*
X117844000Y-127027738I0J-271738D01*
G01*
X117844000Y-127734262D01*
G75*
G02*
X117572262Y-128006000I-271738J0D01*
G01*
X116615738Y-128006000D01*
G75*
G02*
X116344000Y-127734262I0J271738D01*
G01*
X116344000Y-127027738D01*
G75*
G02*
X116615738Y-126756000I271738J0D01*
G01*
G37*
%TD*%
%TO.C,C20*%
G36*
G01*
X117572262Y-129784000D02*
X116615738Y-129784000D01*
G75*
G02*
X116344000Y-129512262I0J271738D01*
G01*
X116344000Y-128805738D01*
G75*
G02*
X116615738Y-128534000I271738J0D01*
G01*
X117572262Y-128534000D01*
G75*
G02*
X117844000Y-128805738I0J-271738D01*
G01*
X117844000Y-129512262D01*
G75*
G02*
X117572262Y-129784000I-271738J0D01*
G01*
G37*
G36*
G01*
X117572262Y-131834000D02*
X116615738Y-131834000D01*
G75*
G02*
X116344000Y-131562262I0J271738D01*
G01*
X116344000Y-130855738D01*
G75*
G02*
X116615738Y-130584000I271738J0D01*
G01*
X117572262Y-130584000D01*
G75*
G02*
X117844000Y-130855738I0J-271738D01*
G01*
X117844000Y-131562262D01*
G75*
G02*
X117572262Y-131834000I-271738J0D01*
G01*
G37*
%TD*%
%TO.C,C46*%
G36*
G01*
X70455262Y-150984000D02*
X69498738Y-150984000D01*
G75*
G02*
X69227000Y-150712262I0J271738D01*
G01*
X69227000Y-150005738D01*
G75*
G02*
X69498738Y-149734000I271738J0D01*
G01*
X70455262Y-149734000D01*
G75*
G02*
X70727000Y-150005738I0J-271738D01*
G01*
X70727000Y-150712262D01*
G75*
G02*
X70455262Y-150984000I-271738J0D01*
G01*
G37*
G36*
G01*
X70455262Y-153034000D02*
X69498738Y-153034000D01*
G75*
G02*
X69227000Y-152762262I0J271738D01*
G01*
X69227000Y-152055738D01*
G75*
G02*
X69498738Y-151784000I271738J0D01*
G01*
X70455262Y-151784000D01*
G75*
G02*
X70727000Y-152055738I0J-271738D01*
G01*
X70727000Y-152762262D01*
G75*
G02*
X70455262Y-153034000I-271738J0D01*
G01*
G37*
%TD*%
%TO.C,C47*%
G36*
G01*
X72487262Y-153043000D02*
X71530738Y-153043000D01*
G75*
G02*
X71259000Y-152771262I0J271738D01*
G01*
X71259000Y-152064738D01*
G75*
G02*
X71530738Y-151793000I271738J0D01*
G01*
X72487262Y-151793000D01*
G75*
G02*
X72759000Y-152064738I0J-271738D01*
G01*
X72759000Y-152771262D01*
G75*
G02*
X72487262Y-153043000I-271738J0D01*
G01*
G37*
G36*
G01*
X72487262Y-150993000D02*
X71530738Y-150993000D01*
G75*
G02*
X71259000Y-150721262I0J271738D01*
G01*
X71259000Y-150014738D01*
G75*
G02*
X71530738Y-149743000I271738J0D01*
G01*
X72487262Y-149743000D01*
G75*
G02*
X72759000Y-150014738I0J-271738D01*
G01*
X72759000Y-150721262D01*
G75*
G02*
X72487262Y-150993000I-271738J0D01*
G01*
G37*
%TD*%
%TO.C,C55*%
G36*
G01*
X62875000Y-160728262D02*
X62875000Y-159771738D01*
G75*
G02*
X63146738Y-159500000I271738J0D01*
G01*
X63853262Y-159500000D01*
G75*
G02*
X64125000Y-159771738I0J-271738D01*
G01*
X64125000Y-160728262D01*
G75*
G02*
X63853262Y-161000000I-271738J0D01*
G01*
X63146738Y-161000000D01*
G75*
G02*
X62875000Y-160728262I0J271738D01*
G01*
G37*
G36*
G01*
X64925000Y-160728262D02*
X64925000Y-159771738D01*
G75*
G02*
X65196738Y-159500000I271738J0D01*
G01*
X65903262Y-159500000D01*
G75*
G02*
X66175000Y-159771738I0J-271738D01*
G01*
X66175000Y-160728262D01*
G75*
G02*
X65903262Y-161000000I-271738J0D01*
G01*
X65196738Y-161000000D01*
G75*
G02*
X64925000Y-160728262I0J271738D01*
G01*
G37*
%TD*%
%TO.C,C66*%
G36*
G01*
X65143000Y-152116262D02*
X65143000Y-151159738D01*
G75*
G02*
X65414738Y-150888000I271738J0D01*
G01*
X66121262Y-150888000D01*
G75*
G02*
X66393000Y-151159738I0J-271738D01*
G01*
X66393000Y-152116262D01*
G75*
G02*
X66121262Y-152388000I-271738J0D01*
G01*
X65414738Y-152388000D01*
G75*
G02*
X65143000Y-152116262I0J271738D01*
G01*
G37*
G36*
G01*
X67193000Y-152116262D02*
X67193000Y-151159738D01*
G75*
G02*
X67464738Y-150888000I271738J0D01*
G01*
X68171262Y-150888000D01*
G75*
G02*
X68443000Y-151159738I0J-271738D01*
G01*
X68443000Y-152116262D01*
G75*
G02*
X68171262Y-152388000I-271738J0D01*
G01*
X67464738Y-152388000D01*
G75*
G02*
X67193000Y-152116262I0J271738D01*
G01*
G37*
%TD*%
%TO.C,C67*%
G36*
G01*
X88384000Y-112238262D02*
X88384000Y-111281738D01*
G75*
G02*
X88655738Y-111010000I271738J0D01*
G01*
X89362262Y-111010000D01*
G75*
G02*
X89634000Y-111281738I0J-271738D01*
G01*
X89634000Y-112238262D01*
G75*
G02*
X89362262Y-112510000I-271738J0D01*
G01*
X88655738Y-112510000D01*
G75*
G02*
X88384000Y-112238262I0J271738D01*
G01*
G37*
G36*
G01*
X90434000Y-112238262D02*
X90434000Y-111281738D01*
G75*
G02*
X90705738Y-111010000I271738J0D01*
G01*
X91412262Y-111010000D01*
G75*
G02*
X91684000Y-111281738I0J-271738D01*
G01*
X91684000Y-112238262D01*
G75*
G02*
X91412262Y-112510000I-271738J0D01*
G01*
X90705738Y-112510000D01*
G75*
G02*
X90434000Y-112238262I0J271738D01*
G01*
G37*
%TD*%
%TO.C,C64*%
G36*
G01*
X83790262Y-116313000D02*
X82833738Y-116313000D01*
G75*
G02*
X82562000Y-116041262I0J271738D01*
G01*
X82562000Y-115334738D01*
G75*
G02*
X82833738Y-115063000I271738J0D01*
G01*
X83790262Y-115063000D01*
G75*
G02*
X84062000Y-115334738I0J-271738D01*
G01*
X84062000Y-116041262D01*
G75*
G02*
X83790262Y-116313000I-271738J0D01*
G01*
G37*
G36*
G01*
X83790262Y-118363000D02*
X82833738Y-118363000D01*
G75*
G02*
X82562000Y-118091262I0J271738D01*
G01*
X82562000Y-117384738D01*
G75*
G02*
X82833738Y-117113000I271738J0D01*
G01*
X83790262Y-117113000D01*
G75*
G02*
X84062000Y-117384738I0J-271738D01*
G01*
X84062000Y-118091262D01*
G75*
G02*
X83790262Y-118363000I-271738J0D01*
G01*
G37*
%TD*%
D12*
%TO.C,J1*%
X103670000Y-165715000D03*
X98210000Y-165715000D03*
D13*
X103360000Y-162715000D03*
X98520000Y-162715000D03*
%TD*%
%TO.C,J2*%
X116555000Y-162707000D03*
X121395000Y-162707000D03*
D12*
X116245000Y-165707000D03*
X121705000Y-165707000D03*
%TD*%
D14*
%TO.C,J3*%
X60060000Y-159766000D03*
X74560000Y-159766000D03*
X59460000Y-164666000D03*
X75160000Y-164666000D03*
%TD*%
%TO.C,R6*%
G36*
G01*
X68296262Y-149224000D02*
X67339738Y-149224000D01*
G75*
G02*
X67068000Y-148952262I0J271738D01*
G01*
X67068000Y-148245738D01*
G75*
G02*
X67339738Y-147974000I271738J0D01*
G01*
X68296262Y-147974000D01*
G75*
G02*
X68568000Y-148245738I0J-271738D01*
G01*
X68568000Y-148952262D01*
G75*
G02*
X68296262Y-149224000I-271738J0D01*
G01*
G37*
G36*
G01*
X68296262Y-147174000D02*
X67339738Y-147174000D01*
G75*
G02*
X67068000Y-146902262I0J271738D01*
G01*
X67068000Y-146195738D01*
G75*
G02*
X67339738Y-145924000I271738J0D01*
G01*
X68296262Y-145924000D01*
G75*
G02*
X68568000Y-146195738I0J-271738D01*
G01*
X68568000Y-146902262D01*
G75*
G02*
X68296262Y-147174000I-271738J0D01*
G01*
G37*
%TD*%
%TO.C,R8*%
G36*
G01*
X65434738Y-141978000D02*
X66391262Y-141978000D01*
G75*
G02*
X66663000Y-142249738I0J-271738D01*
G01*
X66663000Y-142956262D01*
G75*
G02*
X66391262Y-143228000I-271738J0D01*
G01*
X65434738Y-143228000D01*
G75*
G02*
X65163000Y-142956262I0J271738D01*
G01*
X65163000Y-142249738D01*
G75*
G02*
X65434738Y-141978000I271738J0D01*
G01*
G37*
G36*
G01*
X65434738Y-144028000D02*
X66391262Y-144028000D01*
G75*
G02*
X66663000Y-144299738I0J-271738D01*
G01*
X66663000Y-145006262D01*
G75*
G02*
X66391262Y-145278000I-271738J0D01*
G01*
X65434738Y-145278000D01*
G75*
G02*
X65163000Y-145006262I0J271738D01*
G01*
X65163000Y-144299738D01*
G75*
G02*
X65434738Y-144028000I271738J0D01*
G01*
G37*
%TD*%
%TO.C,R9*%
G36*
G01*
X67466738Y-144028000D02*
X68423262Y-144028000D01*
G75*
G02*
X68695000Y-144299738I0J-271738D01*
G01*
X68695000Y-145006262D01*
G75*
G02*
X68423262Y-145278000I-271738J0D01*
G01*
X67466738Y-145278000D01*
G75*
G02*
X67195000Y-145006262I0J271738D01*
G01*
X67195000Y-144299738D01*
G75*
G02*
X67466738Y-144028000I271738J0D01*
G01*
G37*
G36*
G01*
X67466738Y-141978000D02*
X68423262Y-141978000D01*
G75*
G02*
X68695000Y-142249738I0J-271738D01*
G01*
X68695000Y-142956262D01*
G75*
G02*
X68423262Y-143228000I-271738J0D01*
G01*
X67466738Y-143228000D01*
G75*
G02*
X67195000Y-142956262I0J271738D01*
G01*
X67195000Y-142249738D01*
G75*
G02*
X67466738Y-141978000I271738J0D01*
G01*
G37*
%TD*%
%TO.C,R18*%
G36*
G01*
X67202000Y-154148262D02*
X67202000Y-153191738D01*
G75*
G02*
X67473738Y-152920000I271738J0D01*
G01*
X68180262Y-152920000D01*
G75*
G02*
X68452000Y-153191738I0J-271738D01*
G01*
X68452000Y-154148262D01*
G75*
G02*
X68180262Y-154420000I-271738J0D01*
G01*
X67473738Y-154420000D01*
G75*
G02*
X67202000Y-154148262I0J271738D01*
G01*
G37*
G36*
G01*
X65152000Y-154148262D02*
X65152000Y-153191738D01*
G75*
G02*
X65423738Y-152920000I271738J0D01*
G01*
X66130262Y-152920000D01*
G75*
G02*
X66402000Y-153191738I0J-271738D01*
G01*
X66402000Y-154148262D01*
G75*
G02*
X66130262Y-154420000I-271738J0D01*
G01*
X65423738Y-154420000D01*
G75*
G02*
X65152000Y-154148262I0J271738D01*
G01*
G37*
%TD*%
M02*
